<svg xmlns="http://www.w3.org/2000/svg" width="24" height="24" viewBox="0 0 24 24">
  <g id="broadband" transform="translate(643 1998)">
    <g id="Group_40173" data-name="Group 40173">
      <g id="Group_40174" data-name="Group 40174" opacity="0">
        <rect id="Rectangle_982" data-name="Rectangle 982" width="24" height="24" transform="translate(-643 -1998)" fill="#339ad5"/>
        <path id="Rectangle_982_-_Outline" data-name="Rectangle 982 - Outline" d="M1,1V23H23V1H1M0,0H24V24H0Z" transform="translate(-643 -1998)" fill="#339ad5"/>
        <rect id="Rectangle_983" data-name="Rectangle 983" width="20" height="20" transform="translate(-641 -1996)" fill="#339ad5"/>
        <path id="Rectangle_983_-_Outline" data-name="Rectangle 983 - Outline" d="M1,1V19H19V1H1M0,0H20V20H0Z" transform="translate(-641 -1996)" fill="#339ad5"/>
      </g>
      <g id="wireless-router" transform="translate(-642.098 -1999.099)">
        <path id="Subtraction_23" data-name="Subtraction 23" d="M14059.452-12811.015H14042.7a.5.5,0,0,1-.5-.5v-4.785a.5.5,0,0,1,.5-.5h16.754a.5.5,0,0,1,.5.5v4.785A.5.5,0,0,1,14059.452-12811.015Zm-16.256-4.789v3.79h15.759v-3.79Z" transform="translate(-14040.1 12832.073)" fill="#339ad5"/>
        <path id="Subtraction_23_-_Outline" data-name="Subtraction 23 - Outline" d="M14059.452-12810.864H14042.7a.652.652,0,0,1-.651-.651v-4.785a.652.652,0,0,1,.651-.651h16.754a.651.651,0,0,1,.648.651v4.785A.651.651,0,0,1,14059.452-12810.864Zm-16.754-5.787a.351.351,0,0,0-.351.351v4.785a.351.351,0,0,0,.351.351h16.754a.349.349,0,0,0,.348-.351v-4.785a.349.349,0,0,0-.348-.351Zm16.407,4.788h-16.06v-4.091h16.06Zm-15.759-.3h15.458v-3.489h-15.458Z" transform="translate(-14040.1 12832.073)" fill="#339ad5"/>
        <path id="Subtraction_30" data-name="Subtraction 30" d="M14042.7-12809.818a.5.5,0,0,1-.5-.5v-5.984a.5.5,0,0,1,.5-.5.5.5,0,0,1,.5.5v5.984A.5.5,0,0,1,14042.7-12809.818Z" transform="translate(-14028.73 12826.089)" fill="#339ad5"/>
        <path id="Subtraction_30_-_Outline" data-name="Subtraction 30 - Outline" d="M14042.7-12809.668a.652.652,0,0,1-.651-.651v-5.984a.65.65,0,0,1,.651-.647.649.649,0,0,1,.647.647v5.984A.65.65,0,0,1,14042.7-12809.668Zm0-6.982a.349.349,0,0,0-.351.347v5.984a.351.351,0,0,0,.351.351.349.349,0,0,0,.347-.351v-5.984A.347.347,0,0,0,14042.7-12816.65Z" transform="translate(-14028.73 12826.089)" fill="#339ad5"/>
        <path id="Subtraction_26" data-name="Subtraction 26" d="M14042.7-12807.426a.5.5,0,0,1-.462-.307.5.5,0,0,1,.109-.546,5.444,5.444,0,0,0,0-7.671.5.5,0,0,1-.148-.353.491.491,0,0,1,.148-.353.489.489,0,0,1,.353-.147.5.5,0,0,1,.353.147,6.442,6.442,0,0,1,0,9.081A.5.5,0,0,1,14042.7-12807.426Z" transform="translate(-14025.141 12821.9)" fill="#339ad5"/>
        <path id="Subtraction_26_-_Outline" data-name="Subtraction 26 - Outline" d="M14042.7-12807.275a.648.648,0,0,1-.6-.4.644.644,0,0,1,.142-.71,5.294,5.294,0,0,0,0-7.459.643.643,0,0,1-.192-.458.642.642,0,0,1,.192-.459.639.639,0,0,1,.459-.191.653.653,0,0,1,.457.19,6.593,6.593,0,0,1,0,9.294A.655.655,0,0,1,14042.7-12807.275Zm0-9.376a.341.341,0,0,0-.245.1.343.343,0,0,0-.105.248.344.344,0,0,0,.1.246,5.594,5.594,0,0,1,0,7.883.349.349,0,0,0-.077.384.348.348,0,0,0,.323.213.352.352,0,0,0,.247-.1,6.292,6.292,0,0,0,0-8.868A.354.354,0,0,0,14042.7-12816.651Z" transform="translate(-14025.141 12821.9)" fill="#339ad5"/>
        <path id="Subtraction_27" data-name="Subtraction 27" d="M14042.7-12811.615a.5.5,0,0,1-.462-.307.5.5,0,0,1,.109-.543,2.467,2.467,0,0,0,0-3.482.5.5,0,0,1-.148-.353.485.485,0,0,1,.148-.353.485.485,0,0,1,.353-.148.5.5,0,0,1,.353.148,3.469,3.469,0,0,1,0,4.893A.522.522,0,0,1,14042.7-12811.615Z" transform="translate(-14026.937 12823.995)" fill="#339ad5"/>
        <path id="Subtraction_27_-_Outline" data-name="Subtraction 27 - Outline" d="M14042.7-12811.465a.648.648,0,0,1-.6-.4.647.647,0,0,1,.142-.707,2.316,2.316,0,0,0,0-3.27.646.646,0,0,1-.192-.459.633.633,0,0,1,.192-.459.633.633,0,0,1,.459-.192.646.646,0,0,1,.459.192,3.619,3.619,0,0,1,0,5.1A.679.679,0,0,1,14042.7-12811.465Zm0-5.186a.335.335,0,0,0-.244.1l0,0a.335.335,0,0,0-.1.244.346.346,0,0,0,.1.246,2.619,2.619,0,0,1,0,3.694.349.349,0,0,0-.077.38.348.348,0,0,0,.323.214.369.369,0,0,0,.25-.1,3.317,3.317,0,0,0,0-4.677A.346.346,0,0,0,14042.7-12816.65Z" transform="translate(-14026.937 12823.995)" fill="#339ad5"/>
        <path id="Subtraction_29" data-name="Subtraction 29" d="M14044.425-12807.428a.481.481,0,0,1-.35-.145,6.432,6.432,0,0,1,0-9.08.482.482,0,0,1,.35-.148.485.485,0,0,1,.353.148.5.5,0,0,1,0,.705,5.443,5.443,0,0,0,0,7.67.5.5,0,0,1,.109.543A.5.5,0,0,1,14044.425-12807.428Z" transform="translate(-14034.049 12821.9)" fill="#339ad5"/>
        <path id="Subtraction_29_-_Outline" data-name="Subtraction 29 - Outline" d="M14044.425-12807.277a.631.631,0,0,1-.457-.19,6.583,6.583,0,0,1,0-9.291.633.633,0,0,1,.456-.192.631.631,0,0,1,.461.2.655.655,0,0,1,0,.913,5.294,5.294,0,0,0,0,7.46.645.645,0,0,1,.142.706A.65.65,0,0,1,14044.425-12807.277Zm0-9.373a.334.334,0,0,0-.241.1,6.281,6.281,0,0,0,0,8.87.334.334,0,0,0,.243.1.35.35,0,0,0,.323-.214.347.347,0,0,0-.077-.379,5.594,5.594,0,0,1,0-7.882.355.355,0,0,0,0-.494A.337.337,0,0,0,14044.425-12816.65Z" transform="translate(-14034.049 12821.9)" fill="#339ad5"/>
        <path id="Subtraction_28" data-name="Subtraction 28" d="M14043.561-12811.617a.482.482,0,0,1-.353-.145,3.444,3.444,0,0,1-1.011-2.447,3.434,3.434,0,0,1,1.011-2.444.5.5,0,0,1,.353-.148.491.491,0,0,1,.353.148.5.5,0,0,1,0,.705,2.471,2.471,0,0,0,0,3.482.5.5,0,0,1,.109.542A.5.5,0,0,1,14043.561-12811.617Z" transform="translate(-14031.389 12823.995)" fill="#339ad5"/>
        <path id="Subtraction_28_-_Outline" data-name="Subtraction 28 - Outline" d="M14043.561-12811.467a.63.63,0,0,1-.46-.19,3.591,3.591,0,0,1-1.054-2.552,3.585,3.585,0,0,1,1.055-2.551.647.647,0,0,1,.459-.192.642.642,0,0,1,.459.192.653.653,0,0,1,0,.917,2.322,2.322,0,0,0,0,3.271.643.643,0,0,1,.142.705A.648.648,0,0,1,14043.561-12811.467Zm0-5.185a.344.344,0,0,0-.246.1,3.284,3.284,0,0,0-.967,2.339,3.294,3.294,0,0,0,.967,2.342.331.331,0,0,0,.246.1.348.348,0,0,0,.323-.214.346.346,0,0,0-.076-.378,2.621,2.621,0,0,1,0-3.694.353.353,0,0,0,0-.494A.341.341,0,0,0,14043.561-12816.651Z" transform="translate(-14031.389 12823.995)" fill="#339ad5"/>
        <path id="Subtraction_25" data-name="Subtraction 25" d="M14044.493-12815.806h-1.794a.5.5,0,0,1-.5-.5.5.5,0,0,1,.5-.5h1.794a.5.5,0,0,1,.5.5A.5.5,0,0,1,14044.493-12815.806Z" transform="translate(-14038.305 12833.868)" fill="#339ad5"/>
        <path id="Subtraction_25_-_Outline" data-name="Subtraction 25 - Outline" d="M14044.493-12815.655h-1.794a.65.65,0,0,1-.65-.647.649.649,0,0,1,.65-.646h1.794a.648.648,0,0,1,.647.646A.649.649,0,0,1,14044.493-12815.655Zm-1.794-.993a.348.348,0,0,0-.35.346.348.348,0,0,0,.35.347h1.794a.347.347,0,0,0,.347-.347.347.347,0,0,0-.347-.346Z" transform="translate(-14038.305 12833.868)" fill="#339ad5"/>
        <path id="Subtraction_24" data-name="Subtraction 24" d="M14043.295-12815.8h-.6a.5.5,0,0,1-.5-.5.5.5,0,0,1,.5-.5h.6a.5.5,0,0,1,.5.5A.5.5,0,0,1,14043.295-12815.8Z" transform="translate(-14034.714 12833.868)" fill="#339ad5"/>
        <path id="Subtraction_24_-_Outline" data-name="Subtraction 24 - Outline" d="M14043.295-12815.653h-.6a.65.65,0,0,1-.65-.647.652.652,0,0,1,.65-.651h.6a.652.652,0,0,1,.651.651A.65.65,0,0,1,14043.295-12815.653Zm-.6-1a.35.35,0,0,0-.35.351.348.348,0,0,0,.35.347h.6a.349.349,0,0,0,.351-.347.351.351,0,0,0-.351-.351Z" transform="translate(-14034.714 12833.868)" fill="#339ad5"/>
      </g>
    </g>
  </g>
</svg>
