<svg xmlns="http://www.w3.org/2000/svg" width="24" height="24" viewBox="0 0 24 24">
  <g id="clubs-associations" transform="translate(643 1998)">
    <g id="Group_40177" data-name="Group 40177">
      <g id="Group_40178" data-name="Group 40178" opacity="0">
        <rect id="Rectangle_982" data-name="Rectangle 982" width="24" height="24" transform="translate(-643 -1998)" fill="#339ad5"/>
        <rect id="Rectangle_983" data-name="Rectangle 983" width="20" height="20" transform="translate(-641 -1996)" fill="#339ad5"/>
      </g>
    </g>
    <g id="customer" transform="translate(-640 -2027)">
      <path id="Subtraction_33" data-name="Subtraction 33" d="M13994.108-12695.887a3.012,3.012,0,0,1-3.01-3.007,3.012,3.012,0,0,1,3.01-3.007,3.011,3.011,0,0,1,3.008,3.007A3.011,3.011,0,0,1,13994.108-12695.887Zm0-5.059a2.056,2.056,0,0,0-2.055,2.052,2.057,2.057,0,0,0,2.055,2.055,2.056,2.056,0,0,0,2.052-2.055A2.055,2.055,0,0,0,13994.108-12700.945Z" transform="translate(-13985.111 12734.95)" fill="#339ad5"/>
      <path id="Subtraction_33_-_Outline" data-name="Subtraction 33 - Outline" d="M13994.108-12695.736a3.163,3.163,0,0,1-3.16-3.157,3.163,3.163,0,0,1,3.16-3.157,3.162,3.162,0,0,1,3.158,3.157A3.162,3.162,0,0,1,13994.108-12695.736Zm0-6.014a2.861,2.861,0,0,0-2.859,2.856,2.861,2.861,0,0,0,2.859,2.856,2.86,2.86,0,0,0,2.857-2.856A2.86,2.86,0,0,0,13994.108-12701.75Zm0,5.062a2.208,2.208,0,0,1-2.205-2.205,2.206,2.206,0,0,1,2.205-2.2,2.205,2.205,0,0,1,2.2,2.2A2.206,2.206,0,0,1,13994.108-12696.688Zm0-4.106a1.9,1.9,0,0,0-1.9,1.9,1.907,1.907,0,0,0,1.9,1.9,1.9,1.9,0,0,0,1.9-1.9A1.9,1.9,0,0,0,13994.108-12700.795Z" transform="translate(-13985.111 12734.95)" fill="#339ad5"/>
      <path id="Subtraction_34" data-name="Subtraction 34" d="M13992.98-12698.136a1.883,1.883,0,0,1-1.882-1.882,1.884,1.884,0,0,1,1.882-1.883,1.887,1.887,0,0,1,1.887,1.883A1.886,1.886,0,0,1,13992.98-12698.136Zm0-2.81a.928.928,0,0,0-.927.928.928.928,0,0,0,.927.927.93.93,0,0,0,.931-.927A.93.93,0,0,0,13992.98-12700.945Z" transform="translate(-13977.802 12737.199)" fill="#339ad5"/>
      <path id="Subtraction_34_-_Outline" data-name="Subtraction 34 - Outline" d="M13992.98-12697.985a2.035,2.035,0,0,1-2.032-2.032,2.035,2.035,0,0,1,2.032-2.033,2.038,2.038,0,0,1,2.037,2.033A2.037,2.037,0,0,1,13992.98-12697.985Zm0-3.765a1.734,1.734,0,0,0-1.731,1.732,1.733,1.733,0,0,0,1.731,1.731,1.735,1.735,0,0,0,1.736-1.731A1.736,1.736,0,0,0,13992.98-12701.75Zm0,2.81a1.079,1.079,0,0,1-1.077-1.077,1.079,1.079,0,0,1,1.077-1.078,1.081,1.081,0,0,1,1.081,1.078A1.081,1.081,0,0,1,13992.98-12698.94Zm0-1.854a.777.777,0,0,0-.776.777.776.776,0,0,0,.776.776.779.779,0,0,0,.78-.776A.779.779,0,0,0,13992.98-12700.795Z" transform="translate(-13977.802 12737.199)" fill="#339ad5"/>
      <path id="Subtraction_32" data-name="Subtraction 32" d="M14003.559-12693.638h-7.025a1.19,1.19,0,0,1-1.178-1.079l0-.042h-3.27a.985.985,0,0,1-.985-.981v-3.839a2.332,2.332,0,0,1,2.339-2.32h.815a2.349,2.349,0,0,1,2.123,1.354l.032.066.049-.053a4.208,4.208,0,0,1,3.1-1.367h.984a4.208,4.208,0,0,1,3.1,1.367l.053.053.028-.066a2.349,2.349,0,0,1,2.123-1.354h.815a2.332,2.332,0,0,1,2.338,2.32v3.8a1.022,1.022,0,0,1-1.022,1.02h-3.231l0,.042A1.19,1.19,0,0,1,14003.559-12693.638Zm-4-7.31a3.253,3.253,0,0,0-3.249,3.249v2.879a.229.229,0,0,0,.229.229h7.025a.229.229,0,0,0,.229-.229v-2.879a3.253,3.253,0,0,0-3.249-3.249Zm6.286,0a1.377,1.377,0,0,0-1.382,1.368v.372l0,.008a6.073,6.073,0,0,1,.281,2.576c0,.113,0,.233,0,.359v.021c0,.149,0,.309,0,.479v.049h2.665c.612,0,.612,0,.63-.031a.052.052,0,0,0,0-.039v-3.793a1.377,1.377,0,0,0-1.382-1.368Zm-12.4,0a1.377,1.377,0,0,0-1.382,1.368v3.863h3.3v-.049c0-.17,0-.328,0-.478v-.02c0-.126,0-.244,0-.357a6.1,6.1,0,0,1,.281-2.58l0-.008v-.372a1.377,1.377,0,0,0-1.382-1.368Z" transform="translate(-13991.05 12742.26)" fill="#339ad5"/>
      <path id="Subtraction_32_-_Outline" data-name="Subtraction 32 - Outline" d="M14003.559-12693.487h-7.025a1.342,1.342,0,0,1-1.315-1.121h-3.135a1.135,1.135,0,0,1-1.136-1.132v-3.839a2.483,2.483,0,0,1,2.489-2.471h.815a2.5,2.5,0,0,1,2.193,1.311,4.361,4.361,0,0,1,3.108-1.311h.984a4.363,4.363,0,0,1,3.108,1.311,2.5,2.5,0,0,1,2.193-1.311h.815a2.482,2.482,0,0,1,2.488,2.471v3.8a1.173,1.173,0,0,1-1.173,1.17h-3.1A1.342,1.342,0,0,1,14003.559-12693.487Zm-10.122-8.262a2.182,2.182,0,0,0-2.188,2.17v3.839a.834.834,0,0,0,.835.831h3.409l.013.182a1.038,1.038,0,0,0,1.028.939h7.025a1.038,1.038,0,0,0,1.028-.941l.013-.18h3.371a.871.871,0,0,0,.872-.869v-3.8a2.181,2.181,0,0,0-2.187-2.17h-.815a2.2,2.2,0,0,0-1.987,1.267l-.113.266-.214-.214a4.06,4.06,0,0,0-2.987-1.318h-.984a4.06,4.06,0,0,0-2.987,1.318l-.2.214-.128-.264a2.2,2.2,0,0,0-1.988-1.269Zm10.122,7.309h-7.025a.379.379,0,0,1-.379-.379v-2.879a3.4,3.4,0,0,1,3.4-3.4h.984a3.4,3.4,0,0,1,3.4,3.4v2.879A.379.379,0,0,1,14003.559-12694.44Zm-4-6.356a3.1,3.1,0,0,0-3.1,3.1v2.879a.078.078,0,0,0,.078.078h7.025a.078.078,0,0,0,.078-.078v-2.879a3.1,3.1,0,0,0-3.1-3.1Zm7.851,5.231h-2.815v-.2c0-.17,0-.33,0-.479v-.035c0-.12,0-.235,0-.344a5.991,5.991,0,0,0-.269-2.516h0l-.017-.032v-.407a1.528,1.528,0,0,1,1.532-1.519h.815a1.528,1.528,0,0,1,1.532,1.519v3.775a.225.225,0,0,1-.012.107l-.011.022C14008.1-12695.565,14008.1-12695.565,14007.4-12695.565Zm-2.515-.3h2.515c.235,0,.394,0,.482,0v-3.711a1.225,1.225,0,0,0-1.231-1.218h-.815a1.225,1.225,0,0,0-1.231,1.218v.342a6.211,6.211,0,0,1,.285,2.615c0,.108,0,.225,0,.346v.033C14004.891-12696.123,14004.89-12696,14004.89-12695.866Zm-9.387.3h-3.6v-4.014a1.528,1.528,0,0,1,1.532-1.519h.815a1.528,1.528,0,0,1,1.532,1.519v.407l-.017.033a6.013,6.013,0,0,0-.269,2.519c0,.106,0,.215,0,.331v.047c0,.148,0,.308,0,.478Zm-3.3-.3h3c0-.131,0-.256,0-.375v-.046c0-.116,0-.227,0-.332a6.232,6.232,0,0,1,.285-2.618v-.342a1.225,1.225,0,0,0-1.231-1.218h-.815a1.225,1.225,0,0,0-1.231,1.218Z" transform="translate(-13991.05 12742.26)" fill="#339ad5"/>
      <path id="Subtraction_35" data-name="Subtraction 35" d="M13992.98-12698.136a1.883,1.883,0,0,1-1.882-1.882,1.884,1.884,0,0,1,1.882-1.883,1.887,1.887,0,0,1,1.887,1.883A1.886,1.886,0,0,1,13992.98-12698.136Zm0-2.81a.928.928,0,0,0-.927.928.928.928,0,0,0,.927.927.93.93,0,0,0,.931-.927A.93.93,0,0,0,13992.98-12700.945Z" transform="translate(-13990.171 12737.199)" fill="#339ad5"/>
      <path id="Subtraction_35_-_Outline" data-name="Subtraction 35 - Outline" d="M13992.98-12697.985a2.035,2.035,0,0,1-2.032-2.032,2.035,2.035,0,0,1,2.032-2.033,2.038,2.038,0,0,1,2.037,2.033A2.037,2.037,0,0,1,13992.98-12697.985Zm0-3.765a1.734,1.734,0,0,0-1.731,1.732,1.733,1.733,0,0,0,1.731,1.731,1.735,1.735,0,0,0,1.736-1.731A1.736,1.736,0,0,0,13992.98-12701.75Zm0,2.81a1.079,1.079,0,0,1-1.077-1.077,1.079,1.079,0,0,1,1.077-1.078,1.081,1.081,0,0,1,1.081,1.078A1.081,1.081,0,0,1,13992.98-12698.94Zm0-1.854a.777.777,0,0,0-.776.777.776.776,0,0,0,.776.776.779.779,0,0,0,.78-.776A.779.779,0,0,0,13992.98-12700.795Z" transform="translate(-13990.171 12737.199)" fill="#339ad5"/>
    </g>
  </g>
</svg>
