<svg xmlns="http://www.w3.org/2000/svg" width="24" height="24" viewBox="0 0 24 24">
  <g id="donation" transform="translate(14043 -12817)">
    <g id="fingerprint" transform="translate(-13400 14815)" opacity="0">
      <g id="Group_40181" data-name="Group 40181">
        <rect id="Rectangle_982" data-name="Rectangle 982" width="24" height="24" transform="translate(-643 -1998)" fill="#339ad5"/>
        <rect id="Rectangle_983" data-name="Rectangle 983" width="20" height="20" transform="translate(-641 -1996)" fill="#339ad5"/>
      </g>
    </g>
    <g id="heart" transform="translate(-14040.057 12820)">
      <g id="Group_40123" data-name="Group 40123" transform="translate(3.531)">
        <g id="Group_40122" data-name="Group 40122">
          <path id="Path_44046" data-name="Path 44046" d="M109.675,1.017a3,3,0,0,0-4.757.334c-.047.066-.092.133-.133.2-.042-.066-.086-.132-.133-.2A3,3,0,0,0,99.9,1.017a3.509,3.509,0,0,0-.859,2.344,4.242,4.242,0,0,0,1.179,2.8,25.462,25.462,0,0,0,2.875,2.661c.431.364.876.74,1.35,1.15a.526.526,0,0,0,.689,0c.473-.41.919-.786,1.35-1.15.749-.632,1.4-1.178,1.957-1.707a5.32,5.32,0,0,0,2.1-3.759A3.509,3.509,0,0,0,109.675,1.017Zm-1.961,5.337c-.54.51-1.176,1.047-1.913,1.669-.328.277-.664.56-1.016.862-.352-.3-.688-.585-1.016-.862-2.3-1.937-3.681-3.107-3.681-4.661a2.157,2.157,0,0,1,2.085-2.308,1.937,1.937,0,0,1,1.605.889,3.542,3.542,0,0,1,.5.989.526.526,0,0,0,1.015,0c.005-.019.538-1.877,2.1-1.877a2.157,2.157,0,0,1,2.085,2.308C109.482,4.315,108.986,5.154,107.714,6.354Z" transform="translate(-99.036 0)" fill="#339ad5"/>
        </g>
      </g>
      <g id="Group_40125" data-name="Group 40125" transform="translate(0.057 10.389)">
        <g id="Group_40124" data-name="Group 40124">
          <path id="Path_44047" data-name="Path 44047" d="M16.444,296.233a1.585,1.585,0,0,0-1.156.5L13.741,298.4a1.582,1.582,0,0,0-1.508-1.111H9.8a1.4,1.4,0,0,1-.924-.349,3.692,3.692,0,0,0-4.828-.033,1.578,1.578,0,0,0-1.29-.671H.583a.526.526,0,0,0-.526.526v6.316a.526.526,0,0,0,.526.526H2.759a1.575,1.575,0,0,0,1.187-.539l.312.088a12.105,12.105,0,0,0,3.276.452h4.7a3.7,3.7,0,0,0,2.947-1.474l2.527-3.369h0a1.579,1.579,0,0,0-1.264-2.526Zm-13.158,5.79a.527.527,0,0,1-.526.526H1.11v-5.263H2.759a.527.527,0,0,1,.526.526Zm13.58-3.9h0L14.338,301.5a2.644,2.644,0,0,1-2.105,1.053h-4.7a11.055,11.055,0,0,1-2.991-.412l-.206-.058c0-.019,0-.037,0-.056V298.05l.367-.323a2.637,2.637,0,0,1,3.477,0,2.45,2.45,0,0,0,1.62.611h2.432a.526.526,0,0,1,0,1.053H8.492a.526.526,0,1,0,0,1.053h4.094a1.584,1.584,0,0,0,1.155-.5l2.317-2.488a.521.521,0,0,1,.385-.168.527.527,0,0,1,.526.526A.521.521,0,0,1,16.865,298.127Z" transform="translate(-0.057 -296.021)" fill="#339ad5"/>
        </g>
      </g>
    </g>
  </g>
</svg>
