<svg xmlns="http://www.w3.org/2000/svg" width="24" height="24" viewBox="0 0 24 24">
  <g id="dth" transform="translate(14043 -12819)">
    <g id="fingerprint" transform="translate(-13400 14817)" opacity="0">
      <g id="Group_40179" data-name="Group 40179">
        <rect id="Rectangle_982" data-name="Rectangle 982" width="24" height="24" transform="translate(-643 -1998)" fill="#339ad5"/>
        <rect id="Rectangle_983" data-name="Rectangle 983" width="20" height="20" transform="translate(-641 -1996)" fill="#339ad5"/>
      </g>
    </g>
    <path id="Subtraction_31" data-name="Subtraction 31" d="M-80.159,110h-5.468a.479.479,0,0,1-.4-.206.483.483,0,0,1-.061-.444l.745-2.084h-3.8a1.66,1.66,0,0,1-1.658-1.658V97.795a1.66,1.66,0,0,1,1.658-1.658h1.911l-.044-.131a5.2,5.2,0,0,1-.148-2.8,5.154,5.154,0,0,1,1.388-2.521.482.482,0,0,1,.343-.142.483.483,0,0,1,.344.142l2.971,2.971,1.021-1.021-.032-.065a1.623,1.623,0,0,1,.093-1.582,1.625,1.625,0,0,1,1.382-.788h.022a1.661,1.661,0,0,1,1.658,1.66,1.6,1.6,0,0,1-.468,1.147,1.709,1.709,0,0,1-1.2.511,1.559,1.559,0,0,1-.7-.164l-.065-.032-1.021,1.021,1.794,1.794h3.254a1.66,1.66,0,0,1,1.658,1.658v7.813a1.66,1.66,0,0,1-1.658,1.658h-3.8l.745,2.084a.483.483,0,0,1-.061.444A.479.479,0,0,1-80.159,110Zm-4.15-2.734-.629,1.762h4.09l-.629-1.762Zm-4.834-10.157a.687.687,0,0,0-.686.686v7.813a.687.687,0,0,0,.686.686h12.5a.682.682,0,0,0,.485-.2.68.68,0,0,0,.2-.484V97.795a.687.687,0,0,0-.686-.686h-2.282l.206.205a.488.488,0,0,1,0,.688,5.138,5.138,0,0,1-3.659,1.512,5.172,5.172,0,0,1-.965-.09l-.182-.034.689,1.656a.477.477,0,0,1-.044.456.479.479,0,0,1-.4.217h-3.906a.476.476,0,0,1-.4-.217.48.48,0,0,1-.045-.456l1.372-3.29-.04-.047a5.234,5.234,0,0,1-.414-.554l-.029-.046Zm3.633,1.354-.951,2.283h2.448l-.756-1.814-.031-.017a5.062,5.062,0,0,1-.608-.378l-.1-.074Zm-.167-6.73-.068.1a4.084,4.084,0,0,0-.392,4.368,4.3,4.3,0,0,0,3.765,2.362,4.308,4.308,0,0,0,2.508-.848l.1-.069-5.908-5.908Zm5.783-.562a.688.688,0,0,0-.686.689.671.671,0,0,0,.686.679.671.671,0,0,0,.686-.682A.687.687,0,0,0-79.892,91.172Z" transform="translate(-13948.1 12730.9)" fill="#339ad5"/>
  </g>
</svg>
