<svg xmlns="http://www.w3.org/2000/svg" width="24" height="24" viewBox="0 0 24 24">
  <g id="electricity" transform="translate(14043 -12817)">
    <g id="fingerprint" transform="translate(-13400 14815)" opacity="0">
      <g id="Group_40181" data-name="Group 40181">
        <rect id="Rectangle_982" data-name="Rectangle 982" width="24" height="24" transform="translate(-643 -1998)" fill="#339ad5"/>
        <rect id="Rectangle_983" data-name="Rectangle 983" width="20" height="20" transform="translate(-641 -1996)" fill="#339ad5"/>
      </g>
    </g>
    <g id="idea" transform="translate(-14040 12820)">
      <g id="Group_40127" data-name="Group 40127" transform="translate(4.264 4.263)">
        <g id="Group_40126" data-name="Group 40126">
          <path id="Path_44048" data-name="Path 44048" d="M124.642,121.144a4.7,4.7,0,0,0-3.47,3.418,4.773,4.773,0,0,0,1.277,4.6,2.565,2.565,0,0,1,.688,1.81v.114a1.582,1.582,0,0,0,.528,1.18v.933a1.587,1.587,0,0,0,1.585,1.585h1.057a1.587,1.587,0,0,0,1.585-1.585v-.933a1.582,1.582,0,0,0,.528-1.18v-.116a2.651,2.651,0,0,1,.724-1.845,4.759,4.759,0,0,0-4.5-7.983Zm2.194,12.057a.529.529,0,0,1-.528.528h-1.057a.529.529,0,0,1-.528-.528v-.528h2.114Zm1.562-4.821a3.678,3.678,0,0,0-1.033,2.591v.116a.529.529,0,0,1-.528.528h-2.114a.529.529,0,0,1-.528-.528v-.114a3.588,3.588,0,0,0-1-2.565,3.726,3.726,0,0,1-.991-3.593,3.636,3.636,0,0,1,2.684-2.643,3.7,3.7,0,0,1,3.516,6.207Z" transform="translate(-121.024 -121.012)" fill="#339ad5"/>
          <path id="Path_44048_-_Outline" data-name="Path 44048 - Outline" d="M125.777,120.862h0a4.906,4.906,0,0,1,3.476,8.371,2.5,2.5,0,0,0-.681,1.739v.116a1.738,1.738,0,0,1-.528,1.246v.868a1.737,1.737,0,0,1-1.735,1.735h-1.057a1.737,1.737,0,0,1-1.735-1.735v-.868a1.738,1.738,0,0,1-.528-1.246v-.114a2.413,2.413,0,0,0-.643-1.7,4.921,4.921,0,0,1-1.318-4.744A4.854,4.854,0,0,1,124.608,121,5.156,5.156,0,0,1,125.777,120.862Zm.531,13.775a1.437,1.437,0,0,0,1.435-1.435v-1l.05-.045a1.438,1.438,0,0,0,.479-1.069v-.116a2.8,2.8,0,0,1,.768-1.951,4.606,4.606,0,0,0-3.263-7.859h0a4.856,4.856,0,0,0-1.1.128,4.551,4.551,0,0,0-3.358,3.308,4.624,4.624,0,0,0,1.237,4.458,2.717,2.717,0,0,1,.733,1.917v.114a1.438,1.438,0,0,0,.479,1.069l.05.045v1a1.437,1.437,0,0,0,1.435,1.435Zm-.534-12.717a3.849,3.849,0,0,1,2.73,6.567,3.527,3.527,0,0,0-.989,2.485v.116a.679.679,0,0,1-.678.678h-2.114a.679.679,0,0,1-.678-.678v-.114a3.438,3.438,0,0,0-.96-2.458,3.874,3.874,0,0,1-1.032-3.736,3.788,3.788,0,0,1,2.8-2.753A4.086,4.086,0,0,1,125.775,121.919Zm1.062,9.547a.379.379,0,0,0,.378-.378v-.116a3.829,3.829,0,0,1,1.077-2.7,3.549,3.549,0,0,0-2.517-6.055,3.785,3.785,0,0,0-.858.1,3.485,3.485,0,0,0-2.572,2.533,3.577,3.577,0,0,0,.951,3.45,3.738,3.738,0,0,1,1.05,2.672v.114a.379.379,0,0,0,.378.378Zm-2.264,1.057h2.414v.678a.679.679,0,0,1-.678.678h-1.057a.679.679,0,0,1-.678-.678Zm2.114.3h-1.814v.378a.379.379,0,0,0,.378.378h1.057a.379.379,0,0,0,.378-.378Z" transform="translate(-121.024 -121.012)" fill="#339ad5"/>
        </g>
      </g>
      <g id="Group_40129" data-name="Group 40129" transform="translate(2.512 2.512)">
        <g id="Group_40128" data-name="Group 40128">
          <path id="Path_44049" data-name="Path 44049" d="M73.69,72.944,72.2,71.449a.528.528,0,0,0-.747.747l1.495,1.495a.528.528,0,1,0,.747-.747Z" transform="translate(-71.294 -71.294)" fill="#339ad5"/>
          <path id="Path_44049_-_Outline" data-name="Path 44049 - Outline" d="M73.317,74a.674.674,0,0,1-.48-.2L71.342,72.3a.678.678,0,1,1,.959-.959L73.8,72.838A.678.678,0,0,1,73.317,74Zm-1.495-2.552a.378.378,0,0,0-.268.646l1.495,1.495a.378.378,0,1,0,.535-.535L72.09,71.555A.376.376,0,0,0,71.822,71.444Z" transform="translate(-71.294 -71.294)" fill="#339ad5"/>
        </g>
      </g>
      <g id="Group_40131" data-name="Group 40131" transform="translate(0 8.491)">
        <g id="Group_40130" data-name="Group 40130">
          <path id="Path_44050" data-name="Path 44050" d="M2.678,241H.528a.528.528,0,1,0,0,1.057H2.678a.528.528,0,1,0,0-1.057Z" transform="translate(0 -241)" fill="#339ad5"/>
          <path id="Path_44050_-_Outline" data-name="Path 44050 - Outline" d="M.528,240.85H2.678a.678.678,0,0,1,0,1.357H.528a.678.678,0,0,1,0-1.357Zm2.149,1.057a.378.378,0,0,0,0-.757H.528a.378.378,0,0,0,0,.757Z" transform="translate(0 -241)" fill="#339ad5"/>
        </g>
      </g>
      <g id="Group_40133" data-name="Group 40133" transform="translate(14.832 8.491)">
        <g id="Group_40132" data-name="Group 40132">
          <path id="Path_44051" data-name="Path 44051" d="M423.678,241h-2.149a.528.528,0,0,0,0,1.057h2.149a.528.528,0,1,0,0-1.057Z" transform="translate(-421 -241)" fill="#339ad5"/>
          <path id="Path_44051_-_Outline" data-name="Path 44051 - Outline" d="M421.528,240.85h2.149a.678.678,0,0,1,0,1.357h-2.149a.678.678,0,0,1,0-1.357Zm2.149,1.057a.378.378,0,1,0,0-.757h-2.149a.378.378,0,0,0,0,.757Z" transform="translate(-421 -241)" fill="#339ad5"/>
        </g>
      </g>
      <g id="Group_40135" data-name="Group 40135" transform="translate(12.975 2.512)">
        <g id="Group_40134" data-name="Group 40134">
          <path id="Path_44052" data-name="Path 44052" d="M370.676,71.449a.528.528,0,0,0-.747,0l-1.495,1.495a.528.528,0,0,0,.747.747l1.495-1.495A.528.528,0,0,0,370.676,71.449Z" transform="translate(-368.279 -71.294)" fill="#339ad5"/>
          <path id="Path_44052_-_Outline" data-name="Path 44052 - Outline" d="M370.3,71.144a.678.678,0,0,1,.48,1.158L369.288,73.8a.678.678,0,1,1-.96-.96l1.495-1.495A.674.674,0,0,1,370.3,71.144ZM368.808,73.7a.376.376,0,0,0,.268-.111l1.495-1.495a.378.378,0,1,0-.535-.535L368.54,73.05a.378.378,0,0,0,.268.646Z" transform="translate(-368.279 -71.294)" fill="#339ad5"/>
        </g>
      </g>
      <g id="Group_40137" data-name="Group 40137" transform="translate(8.491)">
        <g id="Group_40136" data-name="Group 40136">
          <path id="Path_44053" data-name="Path 44053" d="M241.528,0A.528.528,0,0,0,241,.528V2.678a.528.528,0,1,0,1.057,0V.528A.528.528,0,0,0,241.528,0Z" transform="translate(-241)" fill="#339ad5"/>
          <path id="Path_44053_-_Outline" data-name="Path 44053 - Outline" d="M241.528-.15a.679.679,0,0,1,.678.678V2.678a.678.678,0,0,1-1.357,0V.528A.679.679,0,0,1,241.528-.15Zm0,3.206a.379.379,0,0,0,.378-.378V.528a.378.378,0,0,0-.757,0V2.678A.379.379,0,0,0,241.528,3.056Z" transform="translate(-241)" fill="#339ad5"/>
        </g>
      </g>
      <g id="Group_40139" data-name="Group 40139" transform="translate(6.448 6.377)">
        <g id="Group_40138" data-name="Group 40138">
          <path id="Path_44054" data-name="Path 44054" d="M185.59,181a2.888,2.888,0,0,0-.657.077,2.607,2.607,0,0,0-1.9,1.866.528.528,0,1,0,1.026.254,1.548,1.548,0,0,1,1.113-1.092,1.831,1.831,0,0,1,.417-.05.528.528,0,1,0,0-1.057Z" transform="translate(-183.018 -181)" fill="#339ad5"/>
          <path id="Path_44054_-_Outline" data-name="Path 44054 - Outline" d="M185.59,180.85a.678.678,0,1,1,0,1.357,1.681,1.681,0,0,0-.382.046,1.392,1.392,0,0,0-1,.982.678.678,0,1,1-1.317-.327,2.76,2.76,0,0,1,2.01-1.976A3.036,3.036,0,0,1,185.59,180.85Zm-2.042,2.6a.378.378,0,0,0,.367-.287,1.7,1.7,0,0,1,1.225-1.2,1.981,1.981,0,0,1,.451-.053.378.378,0,1,0,0-.757,2.737,2.737,0,0,0-.623.073,2.454,2.454,0,0,0-1.787,1.757.379.379,0,0,0,.368.47Z" transform="translate(-183.018 -181)" fill="#339ad5"/>
        </g>
      </g>
    </g>
  </g>
</svg>
