<svg xmlns="http://www.w3.org/2000/svg" width="24" height="24" viewBox="0 0 24 24">
  <g id="gas" transform="translate(14043 -12817)">
    <g id="fingerprint" transform="translate(-13400 14815)" opacity="0">
      <g id="Group_40181" data-name="Group 40181">
        <rect id="Rectangle_982" data-name="Rectangle 982" width="24" height="24" transform="translate(-643 -1998)" fill="#339ad5"/>
        <rect id="Rectangle_983" data-name="Rectangle 983" width="20" height="20" transform="translate(-641 -1996)" fill="#339ad5"/>
      </g>
    </g>
    <g id="valve" transform="translate(-14040 12820)">
      <g id="Group_40140" data-name="Group 40140">
        <path id="Subtraction_45" data-name="Subtraction 45" d="M13922.282-12848.028a1.568,1.568,0,0,1-1.451-1l-.01-.035-.032.021a7.193,7.193,0,0,1-3.774,1.014,7.164,7.164,0,0,1-3.771-1.014l-.032-.021-.014.035a1.558,1.558,0,0,1-1.447,1,1.553,1.553,0,0,1-1.46-1.034l-.008-.018h-1.727a.5.5,0,0,1-.5-.5v-5.268a.5.5,0,0,1,.5-.5h1.727l.008-.021a1.551,1.551,0,0,1,1.46-1.031,1.558,1.558,0,0,1,1.447,1l.014.034.032-.021a6.309,6.309,0,0,1,1.149-.562l.021-.007v-.588l-.021-.007a1.548,1.548,0,0,1-1.034-1.461,1.552,1.552,0,0,1,1.552-1.548h.556v-1.266l-.021-.007a1.555,1.555,0,0,1-1.03-1.461v-.556h-2.664a1.554,1.554,0,0,1-1.552-1.552,1.552,1.552,0,0,1,1.552-1.548h10.531a1.55,1.55,0,0,1,1.548,1.548,1.552,1.552,0,0,1-1.548,1.552h-2.664v.556a1.555,1.555,0,0,1-1.03,1.461l-.021.007v1.266h.556a1.55,1.55,0,0,1,1.549,1.548,1.546,1.546,0,0,1-1.031,1.461l-.021.007v.588l.021.007a6.443,6.443,0,0,1,1.149.563l.032.021.01-.034a1.568,1.568,0,0,1,1.451-1,1.554,1.554,0,0,1,1.461,1.031l.007.021h1.727a.5.5,0,0,1,.5.5v5.268a.5.5,0,0,1-.5.5h-1.727l-.007.018A1.556,1.556,0,0,1,13922.282-12848.028Zm0-7.371a.556.556,0,0,0-.556.556v5.268a.556.556,0,0,0,.556.556.556.556,0,0,0,.556-.556v-5.268A.556.556,0,0,0,13922.282-12855.4Zm-8.982,1.053v4.242l0,.032h.028a.479.479,0,0,1,.279.083,6.043,6.043,0,0,0,3.4.969,6.038,6.038,0,0,0,3.4-.969.5.5,0,0,1,.283-.083h.028v-4.274h-.028a.482.482,0,0,1-.283-.088,5.274,5.274,0,0,0-1.443-.682.488.488,0,0,1-.35-.472v-.863h-3.219v.863a.487.487,0,0,1-.354.472,5.385,5.385,0,0,0-1.443.682.462.462,0,0,1-.279.088Zm-1.549-1.053a.556.556,0,0,0-.556.556v5.268a.556.556,0,0,0,.556.556.556.556,0,0,0,.556-.556v-5.268A.556.556,0,0,0,13911.751-12855.4Zm12.079,1.053v4.274h1.149v-4.274Zm-14.776,0v4.274h1.146v-4.274Zm5.857-4.212a.556.556,0,0,0-.556.556.556.556,0,0,0,.556.556h4.211a.556.556,0,0,0,.556-.556.556.556,0,0,0-.556-.556Zm1.548-2.177v1.185h1.111v-1.185Zm-1.052-2.1v.556a.556.556,0,0,0,.556.556h2.107a.556.556,0,0,0,.556-.556v-.556Zm-3.656-2.107a.556.556,0,0,0-.556.556.558.558,0,0,0,.556.56h10.531a.558.558,0,0,0,.556-.56.556.556,0,0,0-.556-.556Z" transform="translate(-13908.03 12865.97)" fill="#339ad5"/>
      </g>
    </g>
  </g>
</svg>
