<svg xmlns="http://www.w3.org/2000/svg" width="24" height="24" viewBox="0 0 24 24">
  <g id="hospital" transform="translate(14043 -12817)">
    <g id="fingerprint" transform="translate(-13400 14815)" opacity="0">
      <g id="Group_40181" data-name="Group 40181">
        <rect id="Rectangle_982" data-name="Rectangle 982" width="24" height="24" transform="translate(-643 -1998)" fill="#339ad5"/>
        <rect id="Rectangle_983" data-name="Rectangle 983" width="20" height="20" transform="translate(-641 -1996)" fill="#339ad5"/>
      </g>
    </g>
    <g id="Layer_2" data-name="Layer 2" transform="translate(-14042.25 12817.75)">
      <path id="Subtraction_39" data-name="Subtraction 39" d="M13932.4-12797.748a9.862,9.862,0,0,1-9.851-9.851,9.862,9.862,0,0,1,9.851-9.85,9.861,9.861,0,0,1,9.85,9.85,9.784,9.784,0,0,1-2.891,6.96A9.784,9.784,0,0,1,13932.4-12797.748Zm0-18.605a8.765,8.765,0,0,0-8.755,8.755,8.765,8.765,0,0,0,8.755,8.755,8.765,8.765,0,0,0,8.755-8.755,8.719,8.719,0,0,0-2.568-6.189A8.7,8.7,0,0,0,13932.4-12816.354Z" transform="translate(-13921.15 12818.85)" fill="#339ad5"/>
      <path id="Subtraction_40" data-name="Subtraction 40" d="M13929.144-12806.121h-1.86a1.48,1.48,0,0,1-1.476-1.479v-1.776h-1.78a1.485,1.485,0,0,1-1.476-1.479v-1.86a1.477,1.477,0,0,1,1.476-1.476h1.78v-1.78a1.477,1.477,0,0,1,1.476-1.476h1.86a1.48,1.48,0,0,1,1.479,1.476v1.78h1.776a1.48,1.48,0,0,1,1.479,1.476v1.86a1.487,1.487,0,0,1-1.479,1.479h-1.776v1.776A1.482,1.482,0,0,1,13929.144-12806.121Zm-5.116-6.977a.381.381,0,0,0-.381.381v1.86a.383.383,0,0,0,.381.385h2.325a.549.549,0,0,1,.55.546v2.325a.383.383,0,0,0,.381.385h1.86a.386.386,0,0,0,.385-.385v-2.325a.546.546,0,0,1,.545-.546h2.326a.386.386,0,0,0,.385-.385v-1.86a.383.383,0,0,0-.385-.381h-2.326a.547.547,0,0,1-.545-.549v-2.326a.383.383,0,0,0-.385-.381h-1.86a.381.381,0,0,0-.381.381v2.326a.55.55,0,0,1-.55.549Z" transform="translate(-13916.964 12823.036)" fill="#339ad5"/>
    </g>
  </g>
</svg>
