<svg xmlns="http://www.w3.org/2000/svg" width="24" height="24" viewBox="0 0 24 24">
  <g id="insurance" transform="translate(14043 -12817)">
    <g id="fingerprint" transform="translate(-13400 14815)">
      <g id="Group_40181" data-name="Group 40181" opacity="0">
        <rect id="Rectangle_982" data-name="Rectangle 982" width="24" height="24" transform="translate(-643 -1998)" fill="#339ad5"/>
        <rect id="Rectangle_983" data-name="Rectangle 983" width="20" height="20" transform="translate(-641 -1996)" fill="#339ad5"/>
      </g>
    </g>
    <g id="surface1" transform="translate(-14039.516 12819.001)">
      <path id="Subtraction_43" data-name="Subtraction 43" d="M14016.107-12799a1.363,1.363,0,0,1-.267-.026c-.062-.014-.125-.031-.18-.047l-.007,0a12.625,12.625,0,0,1-4.7-2.781,9.991,9.991,0,0,1-2.4-3.737,21.559,21.559,0,0,1-.873-7.881v-.035c.011-.184.015-.375.018-.623a2.051,2.051,0,0,1,1.926-2.007,8.259,8.259,0,0,0,5.646-2.379l.015-.011a1.2,1.2,0,0,1,.816-.32,1.207,1.207,0,0,1,.82.32l.01.011a8.284,8.284,0,0,0,5.649,2.379,2.051,2.051,0,0,1,1.926,2.007c0,.207.006.411.018.623v.052a21.63,21.63,0,0,1-.878,7.864,10.056,10.056,0,0,1-2.4,3.734,12.617,12.617,0,0,1-4.7,2.784c-.051.016-.119.035-.187.049A1.346,1.346,0,0,1,14016.107-12799Zm0-18.824a.185.185,0,0,0-.122.045,9.163,9.163,0,0,1-2.83,1.9,10.309,10.309,0,0,1-3.467.764,1.015,1.015,0,0,0-.961,1c0,.178-.008.355-.016.576l0,.071v.015a20.494,20.494,0,0,0,.807,7.511c1.039,2.814,3.157,4.745,6.476,5.9l.018,0h0a.077.077,0,0,0,.023,0,.246.246,0,0,0,.07.007.2.2,0,0,0,.063-.007.109.109,0,0,0,.05-.011c3.313-1.161,5.43-3.093,6.469-5.906a20.458,20.458,0,0,0,.813-7.521l0-.058c-.006-.152-.013-.356-.016-.59a1.015,1.015,0,0,0-.961-1,10.32,10.32,0,0,1-3.467-.764,9.146,9.146,0,0,1-2.83-1.9A.182.182,0,0,0,14016.107-12817.824Z" transform="translate(-14007.591 12818.925)" fill="#339ad5"/>
      <path id="Subtraction_43_-_Outline" data-name="Subtraction 43 - Outline" d="M14016.107-12798.85a1.5,1.5,0,0,1-.3-.029c-.068-.016-.132-.033-.191-.05l-.016,0a12.771,12.771,0,0,1-4.753-2.815,10.135,10.135,0,0,1-2.434-3.793,21.685,21.685,0,0,1-.883-7.936v-.041c.01-.18.014-.369.017-.616a2.2,2.2,0,0,1,2.067-2.154,8.118,8.118,0,0,0,5.55-2.337l.023-.02a1.35,1.35,0,0,1,.912-.354,1.355,1.355,0,0,1,.922.36l.017.017a8.137,8.137,0,0,0,5.549,2.334,2.2,2.2,0,0,1,2.068,2.153c0,.205,0,.406.017.618v.06a21.747,21.747,0,0,1-.888,7.916,10.2,10.2,0,0,1-2.433,3.79,12.763,12.763,0,0,1-4.75,2.818l-.006,0c-.074.022-.142.04-.2.053A1.575,1.575,0,0,1,14016.107-12798.85Zm-.407-.368h0c.055.016.113.032.171.045a1.231,1.231,0,0,0,.471,0c.048-.01.105-.024.169-.044a12.467,12.467,0,0,0,4.638-2.749,9.907,9.907,0,0,0,2.36-3.679,21.511,21.511,0,0,0,.868-7.81v-.05c-.012-.216-.018-.421-.018-.628a1.9,1.9,0,0,0-1.784-1.857,8.425,8.425,0,0,1-5.745-2.421l-.012-.013a1.059,1.059,0,0,0-.714-.275,1.05,1.05,0,0,0-.715.28l-.019.015a8.4,8.4,0,0,1-5.735,2.414,1.9,1.9,0,0,0-1.783,1.86c0,.248-.008.44-.018.624v.031a21.447,21.447,0,0,0,.863,7.829,9.846,9.846,0,0,0,2.361,3.682A12.489,12.489,0,0,0,14015.7-12799.218Zm.408-.658a.4.4,0,0,1-.1-.009.239.239,0,0,1-.035-.008l-.035-.01c-3.363-1.173-5.511-3.133-6.566-5.992a20.62,20.62,0,0,1-.816-7.565l0-.087c.009-.225.013-.4.016-.575a1.165,1.165,0,0,1,1.1-1.143,10.138,10.138,0,0,0,3.416-.753,9.01,9.01,0,0,0,2.784-1.869l.007-.007a.334.334,0,0,1,.22-.081.331.331,0,0,1,.221.083l0,0a9,9,0,0,0,2.784,1.87,10.172,10.172,0,0,0,3.417.752,1.165,1.165,0,0,1,1.1,1.144c0,.242.01.45.015.586l0,.059a20.589,20.589,0,0,1-.823,7.578c-1.055,2.856-3.2,4.816-6.554,5.994a.266.266,0,0,1-.082.021A.37.37,0,0,1,14016.108-12799.876Zm-.057-.308h.007l.02.006a.215.215,0,0,0,.041,0h.009l.02-.007.024,0c3.27-1.146,5.355-3.048,6.378-5.816a20.341,20.341,0,0,0,.8-7.467l0-.056c0-.136-.012-.347-.016-.593a.865.865,0,0,0-.818-.849,10.468,10.468,0,0,1-3.518-.774,9.3,9.3,0,0,1-2.872-1.928.035.035,0,0,0-.043,0,9.293,9.293,0,0,1-2.871,1.926,10.433,10.433,0,0,1-3.517.775.865.865,0,0,0-.819.849c0,.176-.008.354-.016.579l0,.081a20.391,20.391,0,0,0,.8,7.459c1.021,2.767,3.107,4.667,6.375,5.81l.019,0Z" transform="translate(-14007.591 12818.925)" fill="#339ad5"/>
      <path id="Subtraction_42" data-name="Subtraction 42" d="M14012.574-12809.033a4.913,4.913,0,0,1-4.908-4.907,4.915,4.915,0,0,1,4.908-4.911,4.917,4.917,0,0,1,4.911,4.911A4.915,4.915,0,0,1,14012.574-12809.033Zm0-8.795a3.89,3.89,0,0,0-3.884,3.888,3.888,3.888,0,0,0,3.884,3.884,3.889,3.889,0,0,0,3.887-3.884A3.891,3.891,0,0,0,14012.574-12817.828Z" transform="translate(-14004.06 12823.94)" fill="#339ad5"/>
      <path id="Subtraction_42_-_Outline" data-name="Subtraction 42 - Outline" d="M14012.574-12808.883a5.064,5.064,0,0,1-5.059-5.058,5.066,5.066,0,0,1,5.059-5.062,5.067,5.067,0,0,1,5.062,5.062A5.066,5.066,0,0,1,14012.574-12808.883Zm0-9.818a4.764,4.764,0,0,0-4.758,4.761,4.762,4.762,0,0,0,4.758,4.757,4.764,4.764,0,0,0,4.761-4.757A4.766,4.766,0,0,0,14012.574-12818.7Zm0,8.795a4.039,4.039,0,0,1-4.034-4.034,4.041,4.041,0,0,1,4.034-4.038,4.043,4.043,0,0,1,4.037,4.038A4.04,4.04,0,0,1,14012.574-12809.906Zm0-7.771a3.74,3.74,0,0,0-3.733,3.737,3.738,3.738,0,0,0,3.733,3.733,3.739,3.739,0,0,0,3.736-3.733A3.741,3.741,0,0,0,14012.574-12817.678Z" transform="translate(-14004.06 12823.94)" fill="#339ad5"/>
      <path id="Subtraction_44" data-name="Subtraction 44" d="M14009.22-12815.1a.493.493,0,0,1-.359-.151l-1.044-1.04a.513.513,0,0,1-.15-.367.5.5,0,0,1,.15-.357.5.5,0,0,1,.362-.151.506.506,0,0,1,.362.151l.679.679,2.37-2.367a.5.5,0,0,1,.362-.151.506.506,0,0,1,.362.151.521.521,0,0,1,0,.725l-2.732,2.729A.5.5,0,0,1,14009.22-12815.1Z" transform="translate(-14001.588 12827.206)" fill="#339ad5"/>
      <path id="Subtraction_44_-_Outline" data-name="Subtraction 44 - Outline" d="M14009.22-12814.946a.642.642,0,0,1-.467-.2l-1.042-1.039a.665.665,0,0,1-.2-.475.658.658,0,0,1,.2-.463.642.642,0,0,1,.468-.2.651.651,0,0,1,.468.2l.573.573,2.264-2.262a.644.644,0,0,1,.469-.2.651.651,0,0,1,.468.2.673.673,0,0,1,0,.936l-2.733,2.73A.651.651,0,0,1,14009.22-12814.946Zm-1.041-2.067a.349.349,0,0,0-.254.1.357.357,0,0,0-.108.255.365.365,0,0,0,.106.261l1.043,1.039a.343.343,0,0,0,.254.107.352.352,0,0,0,.255-.105l2.733-2.73a.37.37,0,0,0,0-.514.354.354,0,0,0-.255-.105.349.349,0,0,0-.254.1l-2.479,2.476-.106-.105-.679-.679A.352.352,0,0,0,14008.179-12817.014Z" transform="translate(-14001.588 12827.206)" fill="#339ad5"/>
    </g>
  </g>
</svg>
