<svg xmlns="http://www.w3.org/2000/svg" width="7.614" height="11.689" viewBox="0 0 7.614 11.689">
  <path id="light-bolt" d="M102.754,4.252a.34.34,0,0,0-.3-.174h-2.35l.309-3.71a.34.34,0,0,0-.624-.213L96.055,5.933a.34.34,0,0,0,.285.525h2.352L98.38,10.51a.34.34,0,0,0,.629.2L102.748,4.6a.34.34,0,0,0,.006-.344Zm-3.588,4.9L99.4,6.144a.34.34,0,0,0-.339-.366H96.965l2.662-4.115L99.4,4.39a.34.34,0,0,0,.339.368h2.113L99.167,9.152Z" transform="translate(-95.592 0.413)" fill="#339ad5" stroke="#339ad5" stroke-width="0.8"/>
</svg>
