<svg xmlns="http://www.w3.org/2000/svg" width="24" height="24" viewBox="0 0 24 24">
  <g id="mobile-postpaid" transform="translate(14043 -12817)">
    <g id="fingerprint" transform="translate(-13400 14815)" opacity="0">
      <g id="Group_40181" data-name="Group 40181">
        <rect id="Rectangle_982" data-name="Rectangle 982" width="24" height="24" transform="translate(-643 -1998)" fill="#339ad5"/>
        <rect id="Rectangle_983" data-name="Rectangle 983" width="20" height="20" transform="translate(-641 -1996)" fill="#339ad5"/>
      </g>
    </g>
    <g id="smartphone" transform="translate(-14139.4 12819)">
      <g id="Group_40142" data-name="Group 40142" transform="translate(107.733 1.667)">
        <g id="Group_40141" data-name="Group 40141" transform="translate(0)">
          <path id="Path_44083" data-name="Path 44083" d="M241.433,42.667h-2a.5.5,0,1,0,0,1h2a.5.5,0,1,0,0-1Z" transform="translate(-238.933 -42.667)" fill="#339ad5"/>
          <path id="Path_44083_-_Outline" data-name="Path 44083 - Outline" d="M239.433,42.517h2a.65.65,0,0,1,0,1.3h-2a.65.65,0,0,1,0-1.3Zm2,1a.35.35,0,1,0,0-.7h-2a.35.35,0,1,0,0,.7Z" transform="translate(-238.933 -42.667)" fill="#339ad5"/>
        </g>
      </g>
      <g id="Group_40144" data-name="Group 40144" transform="translate(102.4)">
        <g id="Group_40143" data-name="Group 40143" transform="translate(0)">
          <path id="Path_44084" data-name="Path 44084" d="M112.4,0h-8a2,2,0,0,0-2,2V18a2,2,0,0,0,2,2h8a2,2,0,0,0,2-2V2A2,2,0,0,0,112.4,0Zm1,18a1,1,0,0,1-1,1h-8a1,1,0,0,1-1-1V2a1,1,0,0,1,1-1h8a1,1,0,0,1,1,1Z" transform="translate(-102.4)" fill="#339ad5"/>
          <path id="Path_44084_-_Outline" data-name="Path 44084 - Outline" d="M104.4-.15h8A2.152,2.152,0,0,1,114.55,2V18a2.152,2.152,0,0,1-2.15,2.15h-8A2.152,2.152,0,0,1,102.25,18V2A2.152,2.152,0,0,1,104.4-.15Zm8,20A1.852,1.852,0,0,0,114.25,18V2A1.852,1.852,0,0,0,112.4.15h-8A1.852,1.852,0,0,0,102.55,2V18a1.852,1.852,0,0,0,1.85,1.85Zm-8-19h8A1.151,1.151,0,0,1,113.55,2V18a1.151,1.151,0,0,1-1.15,1.15h-8A1.151,1.151,0,0,1,103.25,18V2A1.151,1.151,0,0,1,104.4.85Zm8,18a.851.851,0,0,0,.85-.85V2a.851.851,0,0,0-.85-.85h-8a.851.851,0,0,0-.85.85V18a.851.851,0,0,0,.85.85Z" transform="translate(-102.4)" fill="#339ad5"/>
        </g>
      </g>
      <g id="Group_40146" data-name="Group 40146" transform="translate(107.4 16.333)">
        <g id="Group_40145" data-name="Group 40145" transform="translate(0)">
          <circle id="Ellipse_2685" data-name="Ellipse 2685" cx="1" cy="1" r="1" fill="#339ad5"/>
          <path id="Ellipse_2685_-_Outline" data-name="Ellipse 2685 - Outline" d="M1-.15A1.15,1.15,0,1,1-.15,1,1.151,1.151,0,0,1,1-.15Zm0,2A.85.85,0,1,0,.15,1,.851.851,0,0,0,1,1.85Z" fill="#339ad5"/>
        </g>
      </g>
      <g id="Group_40148" data-name="Group 40148" transform="translate(106.067 1.667)">
        <g id="Group_40147" data-name="Group 40147" transform="translate(0)">
          <circle id="Ellipse_2686" data-name="Ellipse 2686" cx="0.5" cy="0.5" r="0.5" fill="#339ad5"/>
          <path id="Ellipse_2686_-_Outline" data-name="Ellipse 2686 - Outline" d="M.5-.15A.65.65,0,1,1-.15.5.651.651,0,0,1,.5-.15Zm0,1A.35.35,0,1,0,.15.5.35.35,0,0,0,.5.85Z" fill="#339ad5"/>
        </g>
      </g>
    </g>
  </g>
</svg>
