<svg xmlns="http://www.w3.org/2000/svg" width="24" height="24" viewBox="0 0 24 24">
  <g id="mobile-prepaid" transform="translate(14043 -12817)">
    <g id="fingerprint" transform="translate(-13400 14815)" opacity="0">
      <g id="Group_40181" data-name="Group 40181">
        <rect id="Rectangle_982" data-name="Rectangle 982" width="24" height="24" transform="translate(-643 -1998)" fill="#339ad5"/>
        <rect id="Rectangle_983" data-name="Rectangle 983" width="20" height="20" transform="translate(-641 -1996)" fill="#339ad5"/>
      </g>
    </g>
    <path id="Subtraction_49" data-name="Subtraction 49" d="M-171.265-121h-8.75a1.767,1.767,0,0,1-1.765-1.765v-16.25a1.767,1.767,0,0,1,1.765-1.765h8.75a1.767,1.767,0,0,1,1.765,1.765v16.25A1.767,1.767,0,0,1-171.265-121Zm-8.75-18.75a.736.736,0,0,0-.735.734v16.25a.736.736,0,0,0,.735.735h8.75a.736.736,0,0,0,.735-.735v-16.25a.736.736,0,0,0-.735-.734h-1.385v1.048a.515.515,0,0,1-.515.515h-4.95a.515.515,0,0,1-.515-.515v-1.048Zm2.415,0h0v.532h3.92v-.532Z" transform="translate(-13855.36 12959.89)" fill="#339ad5"/>
    <path id="Subtraction_49_-_Outline" data-name="Subtraction 49 - Outline" d="M-171.265-120.85h-8.75a1.917,1.917,0,0,1-1.915-1.915v-16.25a1.917,1.917,0,0,1,1.915-1.915h8.75a1.917,1.917,0,0,1,1.915,1.915v16.25A1.917,1.917,0,0,1-171.265-120.85Zm-8.75-19.78a1.617,1.617,0,0,0-1.615,1.615v16.25a1.617,1.617,0,0,0,1.615,1.615h8.75a1.617,1.617,0,0,0,1.615-1.615v-16.25a1.617,1.617,0,0,0-1.615-1.615Zm8.75,18.751h-8.75a.886.886,0,0,1-.885-.885v-16.25a.886.886,0,0,1,.885-.884h1.535v1.2a.365.365,0,0,0,.365.365h4.95a.365.365,0,0,0,.365-.365v-1.2h1.535a.886.886,0,0,1,.885.884v16.25A.886.886,0,0,1-171.265-121.879Zm-8.75-17.72a.586.586,0,0,0-.585.584v16.25a.586.586,0,0,0,.585.585h8.75a.586.586,0,0,0,.585-.585v-16.25a.586.586,0,0,0-.585-.584H-172.5v.9a.666.666,0,0,1-.665.665h-4.95a.666.666,0,0,1-.665-.665v-.9Zm6.485.532h-4.22v-.832h4.22Zm-3.92-.3h3.62v-.232h-3.62Z" transform="translate(-13855.36 12959.89)" fill="#339ad5"/>
    <path id="light-bolt" d="M102.754,4.252a.34.34,0,0,0-.3-.174h-2.35l.309-3.71a.34.34,0,0,0-.624-.213L96.055,5.933a.34.34,0,0,0,.285.525h2.352L98.38,10.51a.34.34,0,0,0,.629.2L102.748,4.6a.34.34,0,0,0,.006-.344Zm-3.588,4.9L99.4,6.144a.34.34,0,0,0-.339-.366H96.965l2.662-4.115L99.4,4.39a.34.34,0,0,0,.339.368h2.113L99.167,9.152Z" transform="translate(-14130.398 12823.563)" fill="#339ad5" stroke="#339ad5" stroke-width="0.8"/>
  </g>
</svg>
