<svg xmlns="http://www.w3.org/2000/svg" width="24" height="24" viewBox="0 0 24 24">
  <g id="municipal-taxes" transform="translate(14043 -12817)">
    <g id="fingerprint" transform="translate(-13400 14815)">
      <g id="Group_40181" data-name="Group 40181" opacity="0">
        <rect id="Rectangle_982" data-name="Rectangle 982" width="24" height="24" transform="translate(-643 -1998)" fill="#339ad5"/>
        <rect id="Rectangle_983" data-name="Rectangle 983" width="20" height="20" transform="translate(-641 -1996)" fill="#339ad5"/>
      </g>
    </g>
    <g id="city-hall" transform="translate(-14041 12801.066)">
      <g id="Group_40150" data-name="Group 40150" transform="translate(0 18.817)">
        <g id="Group_40149" data-name="Group 40149" transform="translate(0 0)">
          <path id="Path_44085" data-name="Path 44085" d="M18.6,27.473H14.366V26.066a.477.477,0,0,0,.654-.055l1.193-1.359a.468.468,0,0,0-.041-.661l-.005,0-5.9-5.055a.469.469,0,0,0-.61,0l-5.9,5.055a.469.469,0,0,0-.051.662h0l1.168,1.359a.445.445,0,0,0,.345.164.37.37,0,0,0,.283-.1v1.407H1.4A1.414,1.414,0,0,0,0,28.892V36.6a.45.45,0,0,0,.447.453h19.09A.45.45,0,0,0,20,36.614c0-.005,0-.011,0-.016V28.892A1.414,1.414,0,0,0,18.6,27.473ZM5.493,36.111H.939v-7.22a.474.474,0,0,1,.463-.48H5.493ZM5.272,25.041l-.557-.648L9.958,19.9,15.2,24.39l-.571.653-4.363-3.734a.469.469,0,0,0-.61,0ZM11.08,36.111H8.826V34.093H11.08Zm2.347,0H12.019V33.624a.452.452,0,0,0-.447-.471H8.343a.459.459,0,0,0-.456.462s0,.006,0,.009v2.487H6.432V25.267l3.508-2.984,3.488,2.98Zm5.634,0H14.366v-7.7H18.6a.474.474,0,0,1,.463.48Z" transform="translate(0 -18.817)" fill="#339ad5"/>
          <path id="Path_44085_-_Outline" data-name="Path 44085 - Outline" d="M9.957,18.667a.619.619,0,0,1,.4.149l5.909,5.059a.618.618,0,0,1,.056.875l-1.192,1.359a.626.626,0,0,1-.617.193v1.02H18.6a1.567,1.567,0,0,1,1.552,1.57V36.6c0,.006,0,.013,0,.02a.6.6,0,0,1-.617.582H.45a.6.6,0,0,1-.6-.6V28.892A1.567,1.567,0,0,1,1.4,27.323H5.343V26.307a.688.688,0,0,1-.133.013.593.593,0,0,1-.461-.219L3.58,24.743a.62.62,0,0,1,.069-.871l5.905-5.055A.619.619,0,0,1,9.957,18.667Zm4.707,7.353a.327.327,0,0,0,.244-.11L16.1,24.552a.318.318,0,0,0-.027-.45l-5.908-5.058a.319.319,0,0,0-.415,0L3.845,24.1a.32.32,0,0,0-.035.45h0L4.978,25.91a.3.3,0,0,0,.231.111.289.289,0,0,0,.161-.041l.275-.411,0,.5v1.557H1.4A1.266,1.266,0,0,0,.15,28.891V36.6a.3.3,0,0,0,.3.3h19.1a.3.3,0,0,0,.3-.291V28.892A1.266,1.266,0,0,0,18.6,27.623H14.216V25.754l.244.195A.323.323,0,0,0,14.664,26.02ZM9.958,19.707l5.452,4.667-.769.878-4.475-3.83a.32.32,0,0,0-.208-.077h0a.32.32,0,0,0-.207.076L5.256,25.252,4.5,24.377Zm5.026,4.7L9.958,20.1,4.927,24.409l.362.421,4.267-3.636a.62.62,0,0,1,.4-.148h0a.62.62,0,0,1,.4.149l4.25,3.637ZM9.94,22.086l3.638,3.108V36.261H11.869V33.624a.3.3,0,0,0-.3-.321H8.343a.309.309,0,0,0-.306.311v2.647H6.282V25.2Zm3.338,3.246L9.939,22.48,6.582,25.336V35.961H7.737V33.616A.61.61,0,0,1,8.342,33h3.23a.6.6,0,0,1,.6.621v2.337h1.108Zm-7.784,2.93h.15v8H.789v-7.37a.625.625,0,0,1,.61-.63Zm-.15.3H1.4a.324.324,0,0,0-.313.328v7.072H5.343Zm8.873-.3H18.6a.626.626,0,0,1,.613.632v7.367H14.216Zm4.695,7.7v-7.07a.325.325,0,0,0-.316-.33H14.516v7.4ZM8.676,33.943H11.23v2.319H8.676Zm2.254.3H8.976v1.719H10.93Z" transform="translate(0 -18.817)" fill="#339ad5"/>
        </g>
      </g>
      <g id="Group_40152" data-name="Group 40152" transform="translate(7.852 30.9)">
        <g id="Group_40151" data-name="Group 40151">
          <path id="Path_44086" data-name="Path 44086" d="M170.978,276.179h-3.25a.469.469,0,0,0,0,.939h3.25a.469.469,0,1,0,0-.939Z" transform="translate(-167.259 -276.179)" fill="#339ad5"/>
          <path id="Path_44086_-_Outline" data-name="Path 44086 - Outline" d="M167.728,276.029h3.25a.619.619,0,1,1,0,1.239h-3.25a.619.619,0,0,1,0-1.239Zm3.25.939a.319.319,0,1,0,0-.639h-3.25a.319.319,0,0,0,0,.639Z" transform="translate(-167.259 -276.179)" fill="#339ad5"/>
        </g>
      </g>
      <g id="Group_40154" data-name="Group 40154" transform="translate(1.784 29.735)">
        <g id="Group_40153" data-name="Group 40153">
          <path id="Path_44087" data-name="Path 44087" d="M38.469,251.362a.469.469,0,0,0-.469.47v.807a.469.469,0,0,0,.939,0v-.807A.469.469,0,0,0,38.469,251.362Z" transform="translate(-38 -251.362)" fill="#339ad5"/>
          <path id="Path_44087_-_Outline" data-name="Path 44087 - Outline" d="M38.469,251.212a.62.62,0,0,1,.619.62v.807a.619.619,0,0,1-1.239,0v-.807A.62.62,0,0,1,38.469,251.212Zm0,1.746a.32.32,0,0,0,.319-.319v-.807a.319.319,0,1,0-.639,0v.807A.32.32,0,0,0,38.469,252.958Z" transform="translate(-38 -251.362)" fill="#339ad5"/>
        </g>
      </g>
      <g id="Group_40156" data-name="Group 40156" transform="translate(3.709 29.735)">
        <g id="Group_40155" data-name="Group 40155">
          <path id="Path_44088" data-name="Path 44088" d="M79.469,251.362a.469.469,0,0,0-.469.47v.807a.469.469,0,0,0,.939,0v-.807A.469.469,0,0,0,79.469,251.362Z" transform="translate(-79 -251.362)" fill="#339ad5"/>
          <path id="Path_44088_-_Outline" data-name="Path 44088 - Outline" d="M79.469,251.212a.62.62,0,0,1,.619.62v.807a.619.619,0,0,1-1.239,0v-.807A.62.62,0,0,1,79.469,251.212Zm0,1.746a.32.32,0,0,0,.319-.319v-.807a.319.319,0,1,0-.639,0v.807A.32.32,0,0,0,79.469,252.958Z" transform="translate(-79 -251.362)" fill="#339ad5"/>
        </g>
      </g>
      <g id="Group_40158" data-name="Group 40158" transform="translate(1.784 32.879)">
        <g id="Group_40157" data-name="Group 40157">
          <path id="Path_44089" data-name="Path 44089" d="M38.469,318.321a.469.469,0,0,0-.469.47v.807a.469.469,0,0,0,.939,0v-.807A.469.469,0,0,0,38.469,318.321Z" transform="translate(-38 -318.321)" fill="#339ad5"/>
          <path id="Path_44089_-_Outline" data-name="Path 44089 - Outline" d="M38.469,318.171a.62.62,0,0,1,.619.62v.807a.619.619,0,0,1-1.239,0v-.807A.62.62,0,0,1,38.469,318.171Zm0,1.746a.32.32,0,0,0,.319-.319v-.807a.319.319,0,1,0-.639,0v.807A.32.32,0,0,0,38.469,319.917Z" transform="translate(-38 -318.321)" fill="#339ad5"/>
        </g>
      </g>
      <g id="Group_40160" data-name="Group 40160" transform="translate(3.709 32.879)">
        <g id="Group_40159" data-name="Group 40159">
          <path id="Path_44090" data-name="Path 44090" d="M79.469,318.321a.469.469,0,0,0-.469.47v.807a.469.469,0,0,0,.939,0v-.807A.469.469,0,0,0,79.469,318.321Z" transform="translate(-79 -318.321)" fill="#339ad5"/>
          <path id="Path_44090_-_Outline" data-name="Path 44090 - Outline" d="M79.469,318.171a.62.62,0,0,1,.619.62v.807a.619.619,0,0,1-1.239,0v-.807A.62.62,0,0,1,79.469,318.171Zm0,1.746a.32.32,0,0,0,.319-.319v-.807a.319.319,0,1,0-.639,0v.807A.32.32,0,0,0,79.469,319.917Z" transform="translate(-79 -318.321)" fill="#339ad5"/>
        </g>
      </g>
      <g id="Group_40162" data-name="Group 40162" transform="translate(15.352 29.735)">
        <g id="Group_40161" data-name="Group 40161">
          <path id="Path_44091" data-name="Path 44091" d="M327.469,251.362a.469.469,0,0,0-.469.47v.807a.469.469,0,0,0,.939,0v-.807A.469.469,0,0,0,327.469,251.362Z" transform="translate(-327 -251.362)" fill="#339ad5"/>
          <path id="Path_44091_-_Outline" data-name="Path 44091 - Outline" d="M327.469,251.212a.62.62,0,0,1,.62.62v.807a.619.619,0,0,1-1.239,0v-.807A.62.62,0,0,1,327.469,251.212Zm0,1.746a.32.32,0,0,0,.32-.319v-.807a.319.319,0,1,0-.639,0v.807A.32.32,0,0,0,327.469,252.958Z" transform="translate(-327 -251.362)" fill="#339ad5"/>
        </g>
      </g>
      <g id="Group_40164" data-name="Group 40164" transform="translate(17.23 29.735)">
        <g id="Group_40163" data-name="Group 40163">
          <path id="Path_44092" data-name="Path 44092" d="M367.469,251.362a.469.469,0,0,0-.469.47v.807a.469.469,0,0,0,.939,0v-.807A.47.47,0,0,0,367.469,251.362Z" transform="translate(-367 -251.362)" fill="#339ad5"/>
          <path id="Path_44092_-_Outline" data-name="Path 44092 - Outline" d="M367.469,251.212a.62.62,0,0,1,.619.62v.807a.619.619,0,0,1-1.239,0v-.807A.62.62,0,0,1,367.469,251.212Zm0,1.746a.32.32,0,0,0,.319-.319v-.807a.319.319,0,1,0-.639,0v.807A.32.32,0,0,0,367.469,252.958Z" transform="translate(-367 -251.362)" fill="#339ad5"/>
        </g>
      </g>
      <g id="Group_40166" data-name="Group 40166" transform="translate(15.352 32.879)">
        <g id="Group_40165" data-name="Group 40165">
          <path id="Path_44093" data-name="Path 44093" d="M327.469,318.321a.469.469,0,0,0-.469.47v.807a.469.469,0,1,0,.939,0v-.807A.469.469,0,0,0,327.469,318.321Z" transform="translate(-327 -318.321)" fill="#339ad5"/>
          <path id="Path_44093_-_Outline" data-name="Path 44093 - Outline" d="M327.469,318.171a.62.62,0,0,1,.62.62v.807a.619.619,0,1,1-1.239,0v-.807A.62.62,0,0,1,327.469,318.171Zm0,1.746a.32.32,0,0,0,.32-.319v-.807a.319.319,0,1,0-.639,0v.807A.32.32,0,0,0,327.469,319.917Z" transform="translate(-327 -318.321)" fill="#339ad5"/>
        </g>
      </g>
      <g id="Group_40168" data-name="Group 40168" transform="translate(17.23 32.879)">
        <g id="Group_40167" data-name="Group 40167">
          <path id="Path_44094" data-name="Path 44094" d="M367.469,318.321a.469.469,0,0,0-.469.47v.807a.469.469,0,0,0,.939,0v-.807A.47.47,0,0,0,367.469,318.321Z" transform="translate(-367 -318.321)" fill="#339ad5"/>
          <path id="Path_44094_-_Outline" data-name="Path 44094 - Outline" d="M367.469,318.171a.62.62,0,0,1,.619.62v.807a.619.619,0,0,1-1.239,0v-.807A.62.62,0,0,1,367.469,318.171Zm0,1.746a.32.32,0,0,0,.319-.319v-.807a.319.319,0,1,0-.639,0v.807A.32.32,0,0,0,367.469,319.917Z" transform="translate(-367 -318.321)" fill="#339ad5"/>
        </g>
      </g>
      <g id="Group_40172" data-name="Group 40172" transform="translate(7.852 24.926)">
        <path id="Path_44080" data-name="Path 44080" d="M34.378,14.567h0a.681.681,0,0,0-.688.684.7.7,0,0,0,.689.69.692.692,0,0,0,.689-.69.672.672,0,0,0-.2-.484.689.689,0,0,0-.491-.2Z" transform="translate(-31.153 -12.045)" fill="#339ad5"/>
        <path id="Path_44080_-_Outline" data-name="Path 44080 - Outline" d="M34.377,14.417h0a.839.839,0,0,1,.6.245.816.816,0,0,1,.241.589.842.842,0,0,1-.839.84.851.851,0,0,1-.839-.84.831.831,0,0,1,.838-.834Zm0,1.374a.528.528,0,0,0,.379-.157.533.533,0,0,0,.161-.384.52.52,0,0,0-.154-.376.539.539,0,0,0-.386-.157h0a.531.531,0,0,0-.538.534A.547.547,0,0,0,34.378,15.791Z" transform="translate(-31.153 -12.045)" fill="#339ad5"/>
        <path id="Path_44081" data-name="Path 44081" d="M26.974,8.578a.673.673,0,0,0,.484-.2.688.688,0,0,0,.007-.974.688.688,0,0,0-.488-.2h0a.682.682,0,0,0-.689.685A.7.7,0,0,0,26.974,8.578Z" transform="translate(-26.285 -7.203)" fill="#339ad5"/>
        <path id="Path_44081_-_Outline" data-name="Path 44081 - Outline" d="M26.974,8.728a.852.852,0,0,1-.839-.84.832.832,0,0,1,.839-.835.841.841,0,0,1,.6.247.821.821,0,0,1,.241.588.83.83,0,0,1-.251.6A.817.817,0,0,1,26.974,8.728Zm0-1.375a.532.532,0,0,0-.541.535.547.547,0,0,0,.539.54.521.521,0,0,0,.377-.154.535.535,0,0,0,.163-.386.529.529,0,0,0-.153-.375A.54.54,0,0,0,26.976,7.353Z" transform="translate(-26.285 -7.203)" fill="#339ad5"/>
        <path id="Path_44082" data-name="Path 44082" d="M26.43,10.539a.619.619,0,0,0,.179.424.59.59,0,0,0,.41.164.606.606,0,0,0,.42-.17l2.639-2.639a.591.591,0,0,0,0-.822l-.007-.008a.612.612,0,0,0-.43-.17.571.571,0,0,0-.407.169L26.6,10.124A.588.588,0,0,0,26.43,10.539Z" transform="translate(-26.38 -7.279)" fill="#339ad5"/>
        <path id="Path_44082_-_Outline" data-name="Path 44082 - Outline" d="M27.019,11.277a.741.741,0,0,1-.515-.206l-.005-.006a.772.772,0,0,1-.219-.526.738.738,0,0,1,.215-.522l2.636-2.636a.716.716,0,0,1,.511-.212.768.768,0,0,1,.538.214l.009.01a.741.741,0,0,1,0,1.031l-2.64,2.64A.762.762,0,0,1,27.019,11.277Zm-.3-.418a.439.439,0,0,0,.3.118.458.458,0,0,0,.315-.128l2.637-2.637a.441.441,0,0,0,0-.613l-.007-.007a.464.464,0,0,0-.323-.123.421.421,0,0,0-.3.121l-2.64,2.64a.436.436,0,0,0-.127.309A.47.47,0,0,0,26.717,10.859Z" transform="translate(-26.38 -7.279)" fill="#339ad5"/>
      </g>
    </g>
  </g>
</svg>
