<svg xmlns="http://www.w3.org/2000/svg" width="24" height="24" viewBox="0 0 24 24">
  <g id="biometric" transform="translate(643 1998)">
    <g id="base" opacity="0">
      <rect id="Rectangle_982" data-name="Rectangle 982" width="24" height="24" transform="translate(-643 -1998)" fill="#148AFF"/>
      <rect id="Rectangle_983" data-name="Rectangle 983" width="20" height="20" transform="translate(-641 -1996)" fill="#148AFF"/>
    </g>
    <g id="fingerprint-2" transform="translate(-641.25 -1996)">
      <path id="Path_44907" data-name="Path 44907" d="M17.528,4.013a.619.619,0,0,1-.421-.163,9.793,9.793,0,0,0-13.292,0,.625.625,0,1,1-.842-.924,11.043,11.043,0,0,1,14.977,0,.625.625,0,0,1-.422,1.087Z" transform="translate(-0.212)" fill="#148AFF"/>
      <path id="Path_44908" data-name="Path 44908" d="M18.375,8.587a.623.623,0,0,1-.519-.277A9.185,9.185,0,0,0,10.25,4.184,9.185,9.185,0,0,0,2.644,8.31a.625.625,0,0,1-1.038-.7A10.434,10.434,0,0,1,10.25,2.935a10.433,10.433,0,0,1,8.644,4.679.624.624,0,0,1-.519.973Z" transform="translate(0 -0.489)" fill="#148AFF"/>
      <path id="Path_44909" data-name="Path 44909" d="M8.874,21.467a.624.624,0,0,1-.444-.185c-.137-.138-3.339-3.407-3.339-6.554A5.849,5.849,0,0,1,10.848,8.8a5.849,5.849,0,0,1,5.757,5.924.625.625,0,1,1-1.25,0,4.6,4.6,0,0,0-4.507-4.674,4.6,4.6,0,0,0-4.507,4.674c0,2.639,2.947,5.644,2.977,5.674a.625.625,0,0,1-.444,1.065Z" transform="translate(-0.599 -1.467)" fill="#148AFF"/>
      <path id="Path_44910" data-name="Path 44910" d="M12.349,20.978c-1.5,0-4.988-2.86-5.326-6.045a4.042,4.042,0,0,1,.957-3.081,3.188,3.188,0,0,1,2.377-1.091h.017a3.327,3.327,0,0,1,2.358.98,3.494,3.494,0,0,1,1.031,2.5v.408a1.745,1.745,0,1,0,3.487,0V14.5a7.181,7.181,0,0,0-6.418-7.369A6.693,6.693,0,0,0,5.767,8.955a7.3,7.3,0,0,0-.692,9.821.625.625,0,1,1-.977.78A8.551,8.551,0,0,1,4.913,8.041a7.927,7.927,0,0,1,6-2.154A8.433,8.433,0,0,1,18.5,14.5v.142a2.995,2.995,0,1,1-5.988,0v-.408a2.255,2.255,0,0,0-.662-1.612,2.082,2.082,0,0,0-1.477-.617h-.012a1.933,1.933,0,0,0-1.452.675A2.771,2.771,0,0,0,8.266,14.8c.276,2.6,3.262,4.928,4.083,4.928a.625.625,0,1,1,0,1.249Z" transform="translate(-0.125 -0.978)" fill="#148AFF"/>
      <path id="Path_44911" data-name="Path 44911" d="M16.158,21.223c-2.237,0-4.967-2.733-4.967-5.924a.625.625,0,0,1,1.25,0c0,2.473,2.079,4.674,3.717,4.674a.625.625,0,0,1,0,1.25Z" transform="translate(-1.615 -2.446)" fill="#148AFF"/>
    </g>
  </g>
</svg>
