<svg xmlns="http://www.w3.org/2000/svg" width="24" height="24" viewBox="0 0 24 24">
  <g id="feedback" transform="translate(643 1998)">
    <g id="base" opacity="0">
      <rect id="Rectangle_982" data-name="Rectangle 982" width="24" height="24" transform="translate(-643 -1998)" fill="#148AFF"/>
      <rect id="Rectangle_983" data-name="Rectangle 983" width="20" height="20" transform="translate(-641 -1996)" fill="#148AFF"/>
    </g>
    <g id="good-review" transform="translate(-640.738 -2012.284)">
      <g id="Group_42355" data-name="Group 42355" transform="translate(3.343 20.151)">
        <g id="Group_42354" data-name="Group 42354">
          <g id="Group_42352" data-name="Group 42352">
            <path id="Union_32" data-name="Union 32" d="M-164.605-2145.5a4.368,4.368,0,0,1,4.363-4.363,4.368,4.368,0,0,1,4.362,4.363,4.367,4.367,0,0,1-4.362,4.362A4.368,4.368,0,0,1-164.605-2145.5Zm1.344,0a3.023,3.023,0,0,0,3.02,3.019,3.022,3.022,0,0,0,3.019-3.019,3.022,3.022,0,0,0-3.019-3.019A3.022,3.022,0,0,0-163.262-2145.5Z" transform="translate(164.505 2149.767)" fill="#148AFF"/>
          </g>
          <g id="Group_42353" data-name="Group 42353" transform="translate(2.388 4.114)">
            <path id="Union_33" data-name="Union 33" d="M-166.962-2153.094a.674.674,0,0,1,.436-.845.686.686,0,0,1,.2-.032.67.67,0,0,1,.64.468.694.694,0,0,0,.662.483.692.692,0,0,0,.664-.488.668.668,0,0,1,.642-.473.69.69,0,0,1,.2.03.674.674,0,0,1,.442.842,2.03,2.03,0,0,1-1.948,1.433A2.033,2.033,0,0,1-166.962-2153.094Z" transform="translate(166.894 2153.881)" fill="#148AFF"/>
          </g>
        </g>
      </g>
      <path id="Union_31" data-name="Union 31" d="M-150.7-2111.515a.669.669,0,0,1-.3-.558v-.685h-.231a1.819,1.819,0,0,1-1.816-1.816v-1.62l-1.044-.429h-5.357a1.818,1.818,0,0,1-1.816-1.816v-9.46a1.818,1.818,0,0,1,1.816-1.816h11.781a1.818,1.818,0,0,1,1.815,1.816v5.35h2.449a1.818,1.818,0,0,1,1.815,1.816v6.159a1.818,1.818,0,0,1-1.815,1.816h-3.493l-3.177,1.306a.668.668,0,0,1-.254.05A.674.674,0,0,1-150.7-2111.515Zm-1-3.059a.473.473,0,0,0,.473.473h.9a.672.672,0,0,1,.672.671v.354l2.372-.976a.671.671,0,0,1,.256-.051h3.626a.472.472,0,0,0,.472-.472v-6.159a.472.472,0,0,0-.472-.473h-2.449v2.768a1.818,1.818,0,0,1-1.815,1.815H-148.7v1.216a.671.671,0,0,1-.3.558.676.676,0,0,1-.629.063l-2.078-.854Zm-8.217-13.325v9.461a.473.473,0,0,0,.473.472h5.489a.672.672,0,0,1,.256.05l3.661,1.506v-.885a.673.673,0,0,1,.672-.671h1.7a.472.472,0,0,0,.472-.473v-9.46a.473.473,0,0,0-.472-.473h-11.781A.474.474,0,0,0-159.918-2127.9Z" transform="translate(161.162 2147.483)" fill="#148AFF"/>
    </g>
  </g>
</svg>
