<svg xmlns="http://www.w3.org/2000/svg" width="24" height="24" viewBox="0 0 24 24">
  <g id="inbox" transform="translate(643 1998)">
    <g id="base" opacity="0">
      <rect id="Rectangle_982" data-name="Rectangle 982" width="24" height="24" transform="translate(-643 -1998)" fill="#148AFF"/>
      <rect id="Rectangle_983" data-name="Rectangle 983" width="20" height="20" transform="translate(-641 -1996)" fill="#148AFF"/>
    </g>
    <g id="inbox-2" transform="translate(-641 -2067.865)">
      <g id="Group_42351" data-name="Group 42351" transform="translate(0 74.786)">
        <path id="Path_44901" data-name="Path 44901" d="M19.929,80.531,17.255,75.16a.674.674,0,0,0-.6-.374H3.348a.674.674,0,0,0-.6.374L.071,80.531a.673.673,0,0,0-.071.3v7.438a.674.674,0,0,0,.674.674H19.326A.674.674,0,0,0,20,88.269V80.831A.673.673,0,0,0,19.929,80.531Zm-16.164-4.4H16.234l2.014,4.045H13.888a.677.677,0,0,0-.66.538,3.486,3.486,0,0,1-3.34,2.788A3.486,3.486,0,0,1,6.548,80.72a.674.674,0,0,0-.661-.54H1.752ZM18.652,87.6H1.348V81.528H5.376a4.723,4.723,0,0,0,9.023,0h4.252V87.6Z" transform="translate(0 -74.786)" fill="#148AFF"/>
      </g>
    </g>
  </g>
</svg>
