<svg xmlns="http://www.w3.org/2000/svg" width="24" height="24" viewBox="0 0 24 24">
  <g id="refer_a_friend" data-name="refer a friend" transform="translate(643 1998)">
    <g id="base" opacity="0">
      <rect id="Rectangle_982" data-name="Rectangle 982" width="24" height="24" transform="translate(-643 -1998)" fill="#148AFF"/>
      <rect id="Rectangle_983" data-name="Rectangle 983" width="20" height="20" transform="translate(-641 -1996)" fill="#148AFF"/>
    </g>
    <g id="commerce-and-shopping" transform="translate(-641 -1996)">
      <path id="Union_35" data-name="Union 35" d="M-152.131-2132.9l-5.835-.738h-2.349a.683.683,0,0,1-.485-.2.69.69,0,0,1-.2-.485v-6.264a.687.687,0,0,1,.686-.686h2.746l.4-.148a1.711,1.711,0,0,0,1.04-1.1l.674-2.169a1.843,1.843,0,0,1,.934-1.107,1.837,1.837,0,0,1,.842-.2,1.85,1.85,0,0,1,.6.1,1.852,1.852,0,0,1,1.251,1.945l-.187,1.9,1.076-.233a2.5,2.5,0,0,1,.529-.057,2.5,2.5,0,0,1,1.2.305,2.5,2.5,0,0,1,1.3,2.191v4.039a2.507,2.507,0,0,1-1.005,2l-.127.094a4.231,4.231,0,0,1-2.547.847A4.376,4.376,0,0,1-152.131-2132.9Zm-1.769-11.67a.486.486,0,0,0-.245.292l-.674,2.169a3.1,3.1,0,0,1-1.877,1.977l-.1.037-.392,5.174,5.23.661a2.972,2.972,0,0,0,.369.023,2.875,2.875,0,0,0,1.729-.575l.126-.094a1.128,1.128,0,0,0,.454-.9v-4.039a1.125,1.125,0,0,0-.586-.987,1.134,1.134,0,0,0-.778-.113l-2,.434a.694.694,0,0,1-.6-.158.689.689,0,0,1-.226-.58l.281-2.833a.487.487,0,0,0-.329-.511.489.489,0,0,0-.16-.027A.488.488,0,0,0-153.9-2144.574Zm-5.729,9.561h1.07l.371-4.892h-1.441ZM-159.728-2140.006Z" transform="translate(164.753 2148.483)" fill="#148AFF"/>
      <path id="Union_34" data-name="Union 34" d="M-158.042-2128.758A10.032,10.032,0,0,1-161-2135.9a10.03,10.03,0,0,1,2.958-7.141A10.033,10.033,0,0,1-150.9-2146a10.033,10.033,0,0,1,7.142,2.958,10.033,10.033,0,0,1,2.958,7.141,10.036,10.036,0,0,1-2.958,7.142,10.034,10.034,0,0,1-7.142,2.958A10.033,10.033,0,0,1-158.042-2128.758Zm.97-13.313a8.667,8.667,0,0,0-2.557,6.171,8.667,8.667,0,0,0,2.557,6.171,8.671,8.671,0,0,0,6.171,2.557,8.671,8.671,0,0,0,6.172-2.557,8.67,8.67,0,0,0,2.556-6.171,8.67,8.67,0,0,0-2.556-6.171,8.671,8.671,0,0,0-6.172-2.557A8.67,8.67,0,0,0-157.072-2142.071Z" transform="translate(160.9 2145.9)" fill="#148AFF"/>
    </g>
  </g>
</svg>
