<svg xmlns="http://www.w3.org/2000/svg" width="24" height="24" viewBox="0 0 24 24">
  <g id="settings" transform="translate(643 1998)">
    <g id="base" opacity="0">
      <rect id="Rectangle_982" data-name="Rectangle 982" width="24" height="24" transform="translate(-643 -1998)" fill="#148AFF"/>
      <rect id="Rectangle_983" data-name="Rectangle 983" width="20" height="20" transform="translate(-641 -1996)" fill="#148AFF"/>
    </g>
    <path id="setting" d="M26.373,11.4l-.818-.673a1.152,1.152,0,0,1,0-1.779l.818-.673a1.532,1.532,0,0,0,.354-1.954l-1.615-2.8a1.532,1.532,0,0,0-1.87-.671l-.992.372a1.152,1.152,0,0,1-1.541-.89l-.174-1.045A1.532,1.532,0,0,0,19.019,0H15.788a1.532,1.532,0,0,0-1.516,1.284L14.1,2.329a1.152,1.152,0,0,1-1.541.89l-.992-.372a1.532,1.532,0,0,0-1.87.671L8.08,6.316A1.532,1.532,0,0,0,8.434,8.27l.818.673a1.152,1.152,0,0,1,0,1.779l-.818.673A1.532,1.532,0,0,0,8.08,13.35l1.615,2.8a1.532,1.532,0,0,0,1.87.671l.992-.372a1.152,1.152,0,0,1,1.541.89l.174,1.045a1.532,1.532,0,0,0,1.516,1.284h3.231a1.532,1.532,0,0,0,1.515-1.284l.174-1.045a1.152,1.152,0,0,1,1.541-.89l.992.372a1.532,1.532,0,0,0,1.87-.671l1.615-2.8a1.532,1.532,0,0,0-.354-1.954ZM23.781,15.38l-.992-.372a2.689,2.689,0,0,0-3.6,2.076l-.174,1.045H15.788l-.174-1.045a2.689,2.689,0,0,0-3.6-2.076l-.992.372-1.615-2.8.818-.673a2.689,2.689,0,0,0,0-4.152l-.818-.673,1.615-2.8.992.372a2.689,2.689,0,0,0,3.6-2.076l.174-1.045h3.231l.174,1.045a2.689,2.689,0,0,0,3.6,2.076l.992-.372,1.616,2.8h0l-.818.673a2.689,2.689,0,0,0,0,4.152l.818.673ZM17.4,6.043a3.79,3.79,0,1,0,3.79,3.79A3.794,3.794,0,0,0,17.4,6.043Zm0,6.043a2.253,2.253,0,1,1,2.253-2.253A2.256,2.256,0,0,1,17.4,12.086Z" transform="translate(-648.379 -1995.82)" fill="#148AFF"/>
  </g>
</svg>
