<svg xmlns="http://www.w3.org/2000/svg" xmlns:xlink="http://www.w3.org/1999/xlink" width="1018.08" height="507.038" viewBox="0 0 1018.08 507.038">
  <defs>
    <linearGradient id="linear-gradient" x1="0.236" y1="0.015" x2="0.772" y2="0.995" gradientUnits="objectBoundingBox">
      <stop offset="0" stop-color="#66cd00"/>
      <stop offset="0.106" stop-color="#5dbb00"/>
      <stop offset="0.38" stop-color="#499200"/>
      <stop offset="0.63" stop-color="#3a7500"/>
      <stop offset="0.845" stop-color="#326300"/>
      <stop offset="1" stop-color="#2f5d00"/>
    </linearGradient>
    <linearGradient id="linear-gradient-2" x1="0.054" y1="0.136" x2="0.723" y2="0.845" gradientUnits="objectBoundingBox">
      <stop offset="0.12" stop-color="#103246"/>
      <stop offset="0.236" stop-color="#11364c"/>
      <stop offset="0.396" stop-color="#15435e"/>
      <stop offset="0.583" stop-color="#1c587b"/>
      <stop offset="0.79" stop-color="#2676a4"/>
      <stop offset="1" stop-color="#329ad6"/>
    </linearGradient>
    <linearGradient id="linear-gradient-3" y1="0.5" x2="1" y2="0.5" gradientUnits="objectBoundingBox">
      <stop offset="0" stop-color="#1a5070"/>
      <stop offset="0.165" stop-color="#1b5476"/>
      <stop offset="0.393" stop-color="#1f6188"/>
      <stop offset="0.659" stop-color="#2676a5"/>
      <stop offset="0.951" stop-color="#3094ce"/>
      <stop offset="1" stop-color="#329ad6"/>
    </linearGradient>
  </defs>
  <g id="kiya-logo-new" transform="translate(-450.96 -286.481)">
    <g id="Group_40111" data-name="Group 40111">
      <g id="Group_40103" data-name="Group 40103">
        <path id="Path_44091" data-name="Path 44091" d="M458.456,721.656h24.406a35.014,35.014,0,0,1,15.872,3.47,25.683,25.683,0,0,1,10.768,9.809,29.892,29.892,0,0,1,0,29.271,25.675,25.675,0,0,1-10.768,9.811,35.014,35.014,0,0,1-15.872,3.471H458.456Zm23.927,47.058a23.7,23.7,0,0,0,10.808-2.353,16.833,16.833,0,0,0,7.178-6.7,21.518,21.518,0,0,0,0-20.179,16.845,16.845,0,0,0-7.178-6.7,23.7,23.7,0,0,0-10.808-2.353H468.824v38.285Z" fill="#66cd00"/>
        <path id="Path_44092" data-name="Path 44092" d="M523.857,726.161a5.88,5.88,0,0,1,0-8.533,6.408,6.408,0,0,1,4.546-1.715,6.589,6.589,0,0,1,4.547,1.635,5.276,5.276,0,0,1,1.834,4.108,6.017,6.017,0,0,1-1.794,4.427,6.214,6.214,0,0,1-4.587,1.793A6.4,6.4,0,0,1,523.857,726.161Zm-.479,8.735h9.971v42.592h-9.971Z" fill="#66cd00"/>
        <path id="Path_44093" data-name="Path 44093" d="M588.7,734.9v36.131q0,22.491-22.97,22.492a42.687,42.687,0,0,1-11.645-1.555,24.718,24.718,0,0,1-9.093-4.508l4.467-7.5a21.349,21.349,0,0,0,7.059,3.709,27.673,27.673,0,0,0,8.653,1.4q7.018,0,10.289-3.19t3.27-9.73v-2.235a16.368,16.368,0,0,1-6.221,4.229,21.929,21.929,0,0,1-8.055,1.435,23.111,23.111,0,0,1-10.968-2.593,19.447,19.447,0,0,1-7.736-7.3,20.472,20.472,0,0,1-2.831-10.768,20.252,20.252,0,0,1,2.831-10.726,19.265,19.265,0,0,1,7.736-7.219,23.41,23.41,0,0,1,10.968-2.553,22.478,22.478,0,0,1,8.414,1.516,15.547,15.547,0,0,1,6.341,4.625V734.9Zm-13.439,28.832a11.5,11.5,0,0,0,3.629-8.813,11.286,11.286,0,0,0-3.629-8.693,14.673,14.673,0,0,0-18.664,0,11.283,11.283,0,0,0-3.629,8.693,11.5,11.5,0,0,0,3.629,8.813,14.54,14.54,0,0,0,18.664,0Z" fill="#66cd00"/>
        <path id="Path_44094" data-name="Path 44094" d="M602.257,726.161a5.88,5.88,0,0,1,0-8.533,6.411,6.411,0,0,1,4.547-1.715,6.584,6.584,0,0,1,4.546,1.635,5.273,5.273,0,0,1,1.835,4.108,6.018,6.018,0,0,1-1.795,4.427,6.212,6.212,0,0,1-4.586,1.793A6.4,6.4,0,0,1,602.257,726.161Zm-.478,8.735h9.97v42.592h-9.97Z" fill="#66cd00"/>
        <path id="Path_44095" data-name="Path 44095" d="M650.431,775.173a11.7,11.7,0,0,1-4.267,2.154,19.207,19.207,0,0,1-5.3.719q-7.02,0-10.847-3.67t-3.829-10.687v-20.5h-7.018v-7.977h7.018v-9.73h9.97v9.73H647.56v7.977H636.154V763.45a6.736,6.736,0,0,0,1.515,4.745,5.683,5.683,0,0,0,4.387,1.634,8.756,8.756,0,0,0,5.583-1.754Z" fill="#66cd00"/>
        <path id="Path_44096" data-name="Path 44096" d="M689.313,738.923q4.983,4.509,4.985,13.6v24.965h-9.412V772.3a11.588,11.588,0,0,1-5.224,4.268,20.419,20.419,0,0,1-8.175,1.476,20.03,20.03,0,0,1-8.375-1.637,12.906,12.906,0,0,1-5.543-4.544,11.541,11.541,0,0,1-1.954-6.581,11.276,11.276,0,0,1,4.267-9.212q4.266-3.47,13.439-3.469h11.007v-.639a8.732,8.732,0,0,0-2.672-6.859q-2.673-2.394-7.936-2.393a22.916,22.916,0,0,0-7.058,1.117,17.367,17.367,0,0,0-5.863,3.11l-3.908-7.258a24.241,24.241,0,0,1,8.056-3.908,35.874,35.874,0,0,1,9.97-1.356Q684.327,734.417,689.313,738.923Zm-9.093,30.15a9.336,9.336,0,0,0,4.108-4.906v-4.945H674.039q-8.614,0-8.614,5.664a5.086,5.086,0,0,0,2.154,4.307,9.866,9.866,0,0,0,5.982,1.593A12.874,12.874,0,0,0,680.22,769.073Z" fill="#66cd00"/>
        <path id="Path_44097" data-name="Path 44097" d="M707.059,718.306h9.97v59.182h-9.97Z" fill="#66cd00"/>
        <path id="Path_44098" data-name="Path 44098" d="M763.127,732.663v2.551h11.725v7.977H763.446v34.3h-9.97v-34.3h-7.018v-7.977h7.018V732.5q0-6.858,3.988-10.806t11.246-3.95q5.743,0,9.013,2.313l-2.792,7.5a9.541,9.541,0,0,0-5.5-1.754Q763.126,725.8,763.127,732.663Z" fill="#66cd00"/>
        <path id="Path_44099" data-name="Path 44099" d="M822.786,734.9v42.592h-9.492v-5.424a15.88,15.88,0,0,1-5.981,4.426,19.25,19.25,0,0,1-7.737,1.556q-8.535,0-13.439-4.746t-4.906-14.078V734.9h9.97v22.97q0,5.743,2.593,8.575t7.377,2.832a11.177,11.177,0,0,0,8.495-3.311q3.148-3.31,3.15-9.531V734.9Z" fill="#66cd00"/>
        <path id="Path_44100" data-name="Path 44100" d="M861.468,775.173a11.692,11.692,0,0,1-4.267,2.154,19.2,19.2,0,0,1-5.3.719q-7.02,0-10.848-3.67t-3.828-10.687v-20.5H830.2v-7.977h7.019v-9.73h9.969v9.73H858.6v7.977H847.191V763.45a6.732,6.732,0,0,0,1.516,4.745,5.682,5.682,0,0,0,4.387,1.634,8.758,8.758,0,0,0,5.583-1.754Z" fill="#66cd00"/>
        <path id="Path_44101" data-name="Path 44101" d="M910.919,734.9v42.592h-9.492v-5.424a15.876,15.876,0,0,1-5.982,4.426,19.242,19.242,0,0,1-7.736,1.556q-8.535,0-13.439-4.746t-4.906-14.078V734.9h9.97v22.97q0,5.743,2.592,8.575t7.378,2.832a11.173,11.173,0,0,0,8.494-3.311q3.15-3.31,3.151-9.531V734.9Z" fill="#66cd00"/>
        <path id="Path_44102" data-name="Path 44102" d="M948.645,734.417v9.492a12.635,12.635,0,0,0-2.313-.24q-5.823,0-9.093,3.391t-3.27,9.769v20.659H924V734.9h9.492v6.22Q937.8,734.417,948.645,734.417Z" fill="#66cd00"/>
        <path id="Path_44103" data-name="Path 44103" d="M996.58,759.382H963.161a11.576,11.576,0,0,0,4.587,7.457,15.033,15.033,0,0,0,9.211,2.752,15.518,15.518,0,0,0,11.565-4.627l5.345,6.143a17.992,17.992,0,0,1-7.259,5.183,28.745,28.745,0,0,1-22.253-1.037,20.083,20.083,0,0,1-8.255-7.775,21.959,21.959,0,0,1-2.911-11.287,22.271,22.271,0,0,1,2.832-11.2,20.1,20.1,0,0,1,7.855-7.778,22.945,22.945,0,0,1,11.327-2.791,22.354,22.354,0,0,1,11.126,2.752,19.486,19.486,0,0,1,7.657,7.737,23.469,23.469,0,0,1,2.752,11.525Q996.74,757.467,996.58,759.382Zm-29.471-14.158a11.909,11.909,0,0,0-4.027,7.537h24.166a11.758,11.758,0,0,0-3.909-7.5,11.885,11.885,0,0,0-8.134-2.871A12.027,12.027,0,0,0,967.109,745.224Z" fill="#66cd00"/>
        <path id="Path_44104" data-name="Path 44104" d="M1094.841,739.083q4.706,4.668,4.705,14v24.407h-9.969V754.357q0-5.582-2.473-8.414a8.921,8.921,0,0,0-7.1-2.832,10.4,10.4,0,0,0-8.054,3.31q-3.033,3.31-3.032,9.451v21.616h-9.97V754.357q0-5.582-2.473-8.414a8.92,8.92,0,0,0-7.1-2.832,10.429,10.429,0,0,0-8.1,3.271q-2.991,3.27-2.99,9.49v21.616h-9.971V734.9h9.492v5.424a15.491,15.491,0,0,1,5.98-4.387,20.323,20.323,0,0,1,7.977-1.516,19.258,19.258,0,0,1,8.494,1.795,13.779,13.779,0,0,1,5.862,5.3,17.753,17.753,0,0,1,6.781-5.223,22,22,0,0,1,9.172-1.875Q1090.133,734.417,1094.841,739.083Z" fill="#66cd00"/>
        <path id="Path_44105" data-name="Path 44105" d="M1142.975,738.923q4.983,4.509,4.985,13.6v24.965h-9.412V772.3a11.584,11.584,0,0,1-5.224,4.268,20.416,20.416,0,0,1-8.175,1.476,20.028,20.028,0,0,1-8.374-1.637,12.9,12.9,0,0,1-5.544-4.544,11.533,11.533,0,0,1-1.954-6.581,11.276,11.276,0,0,1,4.267-9.212q4.266-3.47,13.44-3.469h11.006v-.639a8.732,8.732,0,0,0-2.672-6.859q-2.672-2.394-7.936-2.393a22.916,22.916,0,0,0-7.058,1.117,17.357,17.357,0,0,0-5.863,3.11l-3.908-7.258a24.241,24.241,0,0,1,8.056-3.908,35.879,35.879,0,0,1,9.97-1.356Q1137.989,734.417,1142.975,738.923Zm-9.093,30.15a9.332,9.332,0,0,0,4.108-4.906v-4.945H1127.7q-8.613,0-8.614,5.664a5.086,5.086,0,0,0,2.154,4.307,9.865,9.865,0,0,0,5.981,1.593A12.875,12.875,0,0,0,1133.882,769.073Z" fill="#66cd00"/>
        <path id="Path_44106" data-name="Path 44106" d="M1202.833,718.306v59.182h-9.572v-5.5a15.411,15.411,0,0,1-6.1,4.547,20.633,20.633,0,0,1-8.016,1.515,22.435,22.435,0,0,1-11.047-2.713,19.468,19.468,0,0,1-7.7-7.7,24.772,24.772,0,0,1,0-22.85,19.57,19.57,0,0,1,7.7-7.658,22.466,22.466,0,0,1,11.047-2.711,20.243,20.243,0,0,1,7.736,1.436,15.566,15.566,0,0,1,5.983,4.306V718.306Zm-16.032,49.57a11.8,11.8,0,0,0,4.546-4.666,15.534,15.534,0,0,0,0-14.037,11.811,11.811,0,0,0-4.546-4.666,13.581,13.581,0,0,0-12.921,0,11.817,11.817,0,0,0-4.546,4.666,15.551,15.551,0,0,0,0,14.037,11.81,11.81,0,0,0,4.546,4.666,13.581,13.581,0,0,0,12.921,0Z" fill="#66cd00"/>
        <path id="Path_44107" data-name="Path 44107" d="M1255.793,759.382h-33.42a11.576,11.576,0,0,0,4.587,7.457,15.031,15.031,0,0,0,9.211,2.752,15.518,15.518,0,0,0,11.565-4.627l5.345,6.143a17.992,17.992,0,0,1-7.259,5.183,28.743,28.743,0,0,1-22.252-1.037,20.085,20.085,0,0,1-8.256-7.775,21.959,21.959,0,0,1-2.91-11.287,22.281,22.281,0,0,1,2.831-11.2,20.111,20.111,0,0,1,7.856-7.778,22.945,22.945,0,0,1,11.327-2.791,22.35,22.35,0,0,1,11.125,2.752,19.489,19.489,0,0,1,7.658,7.737,23.469,23.469,0,0,1,2.751,11.525Q1255.952,757.467,1255.793,759.382Zm-29.471-14.158a11.91,11.91,0,0,0-4.028,7.537h24.166a11.752,11.752,0,0,0-3.908-7.5,11.887,11.887,0,0,0-8.134-2.871A12.023,12.023,0,0,0,1226.322,745.224Z" fill="#66cd00"/>
        <path id="Path_44108" data-name="Path 44108" d="M1312.179,734.417v9.492a12.615,12.615,0,0,0-2.312-.24q-5.823,0-9.092,3.391t-3.271,9.769v20.659h-9.969V734.9h9.491v6.22Q1301.332,734.417,1312.179,734.417Z" fill="#66cd00"/>
        <path id="Path_44109" data-name="Path 44109" d="M1360.115,759.382H1326.7a11.571,11.571,0,0,0,4.586,7.457,15.034,15.034,0,0,0,9.212,2.752,15.52,15.52,0,0,0,11.565-4.627l5.344,6.143a17.982,17.982,0,0,1-7.258,5.183,28.745,28.745,0,0,1-22.253-1.037,20.077,20.077,0,0,1-8.255-7.775,21.96,21.96,0,0,1-2.912-11.287,22.271,22.271,0,0,1,2.832-11.2,20.1,20.1,0,0,1,7.857-7.778,22.937,22.937,0,0,1,11.325-2.791,22.355,22.355,0,0,1,11.127,2.752,19.49,19.49,0,0,1,7.656,7.737,23.457,23.457,0,0,1,2.752,11.525Q1360.275,757.467,1360.115,759.382Zm-29.471-14.158a11.909,11.909,0,0,0-4.027,7.537h24.167a11.766,11.766,0,0,0-3.908-7.5,11.89,11.89,0,0,0-8.136-2.871A12.031,12.031,0,0,0,1330.644,745.224Z" fill="#66cd00"/>
        <path id="Path_44110" data-name="Path 44110" d="M1399.316,738.923q4.983,4.509,4.985,13.6v24.965h-9.411V772.3a11.594,11.594,0,0,1-5.224,4.268,20.421,20.421,0,0,1-8.176,1.476,20.025,20.025,0,0,1-8.374-1.637,12.909,12.909,0,0,1-5.544-4.544,11.54,11.54,0,0,1-1.953-6.581,11.278,11.278,0,0,1,4.266-9.212q4.267-3.47,13.44-3.469h11.007v-.639a8.732,8.732,0,0,0-2.672-6.859q-2.675-2.394-7.936-2.393a22.911,22.911,0,0,0-7.058,1.117,17.362,17.362,0,0,0-5.864,3.11l-3.908-7.258a24.235,24.235,0,0,1,8.057-3.908,35.864,35.864,0,0,1,9.968-1.356Q1394.33,734.417,1399.316,738.923Zm-9.092,30.15a9.341,9.341,0,0,0,4.108-4.906v-4.945h-10.289q-8.614,0-8.614,5.664a5.085,5.085,0,0,0,2.153,4.307,9.866,9.866,0,0,0,5.982,1.593A12.878,12.878,0,0,0,1390.224,769.073Z" fill="#66cd00"/>
        <path id="Path_44111" data-name="Path 44111" d="M1417.062,718.306h9.971v59.182h-9.971Z" fill="#66cd00"/>
      </g>
      <g id="Group_40109" data-name="Group 40109">
        <g id="Group_40104" data-name="Group 40104">
          <path id="Path_44112" data-name="Path 44112" d="M748.571,462.885h-17.64a5.15,5.15,0,0,0-4.563,7.538l53.294,96.718h56.389l-35.368-72.71A58.815,58.815,0,0,0,748.571,462.885Z" fill="url(#linear-gradient)"/>
          <path id="Path_44113" data-name="Path 44113" d="M836.051,567.141H779.661l236.754-280.66h0Z" fill="#66cd00"/>
        </g>
        <path id="Path_44114" data-name="Path 44114" d="M1127.8,585.039a35.478,35.478,0,1,1-35.476,35.481A35.689,35.689,0,0,1,1127.8,585.039Z" fill="#329ad6"/>
        <path id="Path_44115" data-name="Path 44115" d="M683.918,366.72a32.274,32.274,0,0,1,25.732,22.994,31.708,31.708,0,0,1-30.683,40.558C661.423,430.272,647,415.847,647,398.7A32.136,32.136,0,0,1,683.918,366.72Z" fill="#329ad6"/>
        <path id="Path_44116" data-name="Path 44116" d="M682.458,461.461h17.231a5.2,5.2,0,0,1,5.2,5.2V627.211a28.1,28.1,0,0,1-28.1,28.1H658.351A5.31,5.31,0,0,1,653.04,650V490.878A29.417,29.417,0,0,1,682.458,461.461Z" fill="#329ad6"/>
        <g id="Group_40105" data-name="Group 40105">
          <path id="Path_44117" data-name="Path 44117" d="M1016.29,630.26c-9.745,15.205-28.069,28.462-56.527,28.462-40.931,0-65.88-27.682-65.88-57.7,0-34.308,25.339-53.405,57.3-58.085l47.169-7.018c10.915-1.56,14.425-7.019,14.425-13.645,0-13.644-10.525-24.949-32.355-24.949-20.259,0-32.381,11.58-35.805,26.048a5.254,5.254,0,0,1-6.185,4.008l-4.544-.963c-23.074-4.888-31.381-34.052-13.849-49.829,13.768-12.391,33.8-20.977,59.993-20.977,60.814,0,83.423,34.307,83.423,72.9v97.92A29.062,29.062,0,0,1,1034.4,655.5h-12.85a5.158,5.158,0,0,1-5.157-5.132Zm-3.509-54.572V567.11l-43.27,6.626c-13.255,1.952-23.78,9.358-23.78,24.169,0,11.3,8.186,22.223,24.949,22.223C992.51,620.128,1012.781,609.6,1012.781,575.688Z" fill="#329ad6"/>
        </g>
        <g id="Group_40106" data-name="Group 40106">
          <path id="Path_44118" data-name="Path 44118" d="M1309.613,630.26c-9.745,15.205-28.069,28.462-56.527,28.462-40.931,0-65.88-27.682-65.88-57.7,0-34.308,25.339-53.405,57.3-58.085l47.17-7.018c10.915-1.56,14.424-7.019,14.424-13.645,0-13.644-10.525-24.949-32.355-24.949-20.259,0-32.381,11.58-35.8,26.048a5.255,5.255,0,0,1-6.186,4.008l-4.544-.963c-23.073-4.888-31.38-34.052-13.849-49.829,13.768-12.391,33.8-20.977,59.993-20.977,60.814,0,83.424,34.307,83.424,72.9v97.92A29.063,29.063,0,0,1,1327.72,655.5h-12.85a5.158,5.158,0,0,1-5.157-5.132Zm-3.509-54.572V567.11l-43.27,6.626c-13.255,1.952-23.78,9.358-23.78,24.169,0,11.3,8.186,22.223,24.95,22.223C1285.834,620.128,1306.1,609.6,1306.1,575.688Z" fill="#329ad6"/>
        </g>
        <path id="Path_44119" data-name="Path 44119" d="M1381.722,625.9V466.771a5.31,5.31,0,0,1,5.31-5.31h18.437a28.1,28.1,0,0,1,28.1,28.1V650.112a5.2,5.2,0,0,1-5.2,5.2h-17.231A29.417,29.417,0,0,1,1381.722,625.9Z" fill="#329ad6"/>
        <path id="Path_44120" data-name="Path 44120" d="M781.931,580.275V650a5.31,5.31,0,0,0,5.31,5.31h18.437a28.1,28.1,0,0,0,28.1-28.1V580.275Z" fill="#329ad6"/>
        <g id="Group_40107" data-name="Group 40107">
          <path id="Path_44121" data-name="Path 44121" d="M1469,327.827c-.037-3.633-2.191-6-5.83-6.113-4.591-.144-9.192-.118-13.786,0-3.683.094-5.816,2.353-5.9,6.023a58.089,58.089,0,0,0,.031,7.545c.659,6.125-1.674,11.107-5.552,15.54-6.5,7.434-13.906,12.858-24.607,11.784a107.78,107.78,0,0,0-13.451-.037c-5.439.139-8.628,2.965-8.778,8.125q-.3,10.332,0,20.678c.157,5.311,3.573,8.29,8.932,8.316,3.282.016,6.566,0,9.849,0,3.392,0,6.784.029,10.176-.007,4.967-.053,8.132-3.213,8.173-8.215.047-5.689.011-11.379.013-17.07.005-13.493,13.681-27.134,27.174-27.107,2.626.006,5.255.063,7.879-.015,3.8-.113,5.637-1.939,5.677-5.66Q1469.077,334.721,1469,327.827Z" fill="#329ad6"/>
          <path id="Path_44122" data-name="Path 44122" d="M1462.876,362.588h-16.1a4.642,4.642,0,0,0-4.642,4.642v15.263h-.026c0,14.795-9.26,28.354-23.373,32.793-23.822,7.492-45.717-10.093-45.717-32.793a34.545,34.545,0,0,1,34.545-34.545v-.007h15.8A4.642,4.642,0,0,0,1428,343.3V327.2a4.642,4.642,0,0,0-4.642-4.642h-16.1a4.642,4.642,0,0,0-4.642,4.642v7.781a47.775,47.775,0,0,0-42.787,49.377c.934,24.591,21.283,44.939,45.874,45.872a47.771,47.771,0,0,0,49.308-42.253h7.866a4.642,4.642,0,0,0,4.642-4.642v-16.1A4.642,4.642,0,0,0,1462.876,362.588Z" fill="#329ad6"/>
        </g>
        <g id="Group_40108" data-name="Group 40108">
          <path id="Path_44123" data-name="Path 44123" d="M632.34,638.423c-9.536,8.467-33.983,26-59.761,11.075,0,0-37.954-24.64-75.746-100.222l30.428-28.248s45.766,57.46,105.053,109.632A5.168,5.168,0,0,1,632.34,638.423Z" fill="url(#linear-gradient-2)"/>
          <path id="Path_44124" data-name="Path 44124" d="M628.412,426.494c-10.342-8.995-38.917-29.456-65.889-8.952,0,0-35.673,30.546-58.829,83.135V404.366a35.16,35.16,0,0,0-35.159-35.16H456.187a5.228,5.228,0,0,0-5.227,5.228V610.068A45.245,45.245,0,0,0,496.2,655.313h2.135a5.354,5.354,0,0,0,5.354-5.354V562.765L628.72,434.1A5.232,5.232,0,0,0,628.412,426.494Z" fill="#329ad6"/>
          <path id="Path_44125" data-name="Path 44125" d="M450.96,394.114v148.75c9.814-14.887,16.431-42.582,16.431-74.375S460.774,409,450.96,394.114Z" fill="#55b5e5"/>
          <path id="Path_44126" data-name="Path 44126" d="M562.523,417.542s-35.673,30.546-58.829,83.135v28.156c20.959-65.717,63.755-105.755,63.755-105.755,15.035-12.51,31.135-12.19,44.529-7.842C598.512,408.257,580.179,404.12,562.523,417.542Z" fill="url(#linear-gradient-3)"/>
        </g>
      </g>
    </g>
  </g>
</svg>
