<svg width="104" height="40" viewBox="0 0 104 40" fill="none" xmlns="http://www.w3.org/2000/svg">
<path d="M31.0186 19.0379H29.2789C29.0021 19.0379 28.7748 19.2653 28.7748 19.5519C28.7748 19.631 28.7945 19.72 28.8341 19.7891L34.1027 29.3477H39.6579L36.1587 22.1615C35.1603 20.234 33.1834 19.0379 31.0186 19.0379Z" fill="url(#paint0_linear_442_8723)"/>
<path d="M39.6582 29.3365H34.0931L57.4904 1.59985L39.6582 29.3365Z" fill="#66CD00"/>
<path d="M68.499 31.1052C70.4364 31.1052 72.0081 32.6769 72.0081 34.6143C72.0081 36.5517 70.4364 38.1234 68.499 38.1234C66.5615 38.1234 64.9899 36.5517 64.9899 34.6143C64.9998 32.6769 66.5714 31.1151 68.499 31.1052Z" fill="white"/>
<path d="M24.6231 9.52831C25.839 9.73589 26.8274 10.6156 27.1635 11.8018C27.6479 13.4625 26.689 15.2022 25.0284 15.6865C24.7417 15.7755 24.4353 15.815 24.1388 15.815C22.4089 15.815 20.9756 14.3916 20.9756 12.6914C20.9658 10.932 22.3793 9.50854 24.1289 9.49866C24.2969 9.49866 24.465 9.50854 24.6231 9.52831Z" fill="white"/>
<path d="M24.4825 18.8992H26.1827C26.4694 18.8992 26.6967 19.1266 26.6967 19.4132V35.2882C26.6967 36.8203 25.4512 38.0658 23.9191 38.0658H22.1003C21.8137 38.0658 21.5764 37.8385 21.5764 37.5419V21.8054C21.5665 20.1941 22.8713 18.8992 24.4825 18.8992C24.4727 18.8992 24.4727 18.8992 24.4825 18.8992Z" fill="white"/>
<path d="M57.476 35.5825C56.5073 37.085 54.6984 38.3997 51.8911 38.3997C47.8482 38.3997 45.377 35.6616 45.377 32.6962C45.377 29.3057 47.8779 27.4177 51.041 26.9531L55.7066 26.2612C56.7841 26.103 57.13 25.5693 57.13 24.9169C57.13 23.5725 56.0921 22.4457 53.9373 22.4457C51.9307 22.4457 50.7346 23.5923 50.3985 25.0157C50.3392 25.2925 50.0624 25.4704 49.7857 25.4111L49.3408 25.3123C47.0575 24.8279 46.237 21.9514 47.9767 20.3896C49.3408 19.1639 51.3178 18.3138 53.9076 18.3138C59.9176 18.3138 62.1515 21.7043 62.1515 25.5198V35.197C62.1515 36.7786 60.8665 38.0735 59.275 38.0735H58.0098C57.733 38.0735 57.5057 37.8462 57.4958 37.5694L57.476 35.5825ZM57.13 30.1855V29.3354L52.8499 29.9878C51.5451 30.1855 50.4974 30.9071 50.4974 32.3799C50.4974 33.4969 51.3079 34.5743 52.9686 34.5743C55.1234 34.5743 57.13 33.5364 57.13 30.1855Z" fill="white"/>
<path d="M86.4688 35.5825C85.51 37.085 83.6912 38.3997 80.8839 38.3997C76.8411 38.3997 74.3699 35.6616 74.3699 32.6962C74.3699 29.3057 76.8707 27.4177 80.0339 26.9531L84.6995 26.2612C85.7769 26.103 86.1229 25.5693 86.1229 24.9169C86.1229 23.5725 85.085 22.4457 82.9301 22.4457C80.9235 22.4457 79.7274 23.5923 79.3913 25.0157C79.332 25.2925 79.0553 25.4704 78.7785 25.4111L78.3337 25.3123C76.0503 24.8279 75.2299 21.9514 76.9696 20.3896C78.3337 19.1639 80.3106 18.3138 82.9004 18.3138C88.9104 18.3138 91.1444 21.7043 91.1444 25.5198V35.197C91.1444 36.7786 89.8593 38.0735 88.2679 38.0735H87.0026C86.7259 38.0735 86.4985 37.8462 86.4886 37.5694L86.4688 35.5825ZM86.1229 30.1855V29.3354L81.8428 29.9878C80.538 30.1855 79.4902 30.9071 79.4902 32.3799C79.4902 33.4969 80.3007 34.5743 81.9614 34.5743C84.1163 34.5743 86.1229 33.5364 86.1229 30.1855Z" fill="white"/>
<path d="M93.5964 35.1498V19.4231C93.5964 19.1365 93.8336 18.8992 94.1203 18.8992H95.9391C97.4712 18.8992 98.7167 20.1447 98.7167 21.6769V37.5419C98.7167 37.8286 98.4894 38.0559 98.2027 38.0559H96.5025C94.9012 38.0559 93.5964 36.7511 93.5964 35.1498Z" fill="white"/>
<path d="M34.3087 30.6407V37.5304C34.3087 37.8171 34.546 38.0543 34.8326 38.0543H36.6514C38.1836 38.0543 39.4291 36.8089 39.4291 35.2767V30.6407H34.3087Z" fill="white"/>
<path d="M102.226 5.6835C102.226 5.32765 102.008 5.09042 101.652 5.08053C101.197 5.07065 100.743 5.07065 100.288 5.08053C99.9224 5.09042 99.7148 5.31777 99.7049 5.67362C99.6851 5.92074 99.6851 6.16786 99.7049 6.41498C99.7741 7.01795 99.5369 7.51219 99.1513 7.94712C98.5088 8.67859 97.7774 9.22225 96.7197 9.11352C96.2749 9.08387 95.8301 9.08387 95.3951 9.11352C94.8614 9.12341 94.545 9.41007 94.5253 9.91419C94.5055 10.5962 94.5055 11.2783 94.5253 11.9603C94.545 12.4842 94.8811 12.7808 95.405 12.7808H96.3737C96.7098 12.7808 97.0459 12.7808 97.382 12.7808C97.8762 12.7808 98.1826 12.4645 98.1925 11.9702C98.1925 11.4068 98.1925 10.8434 98.1925 10.2799C98.1925 8.94548 99.5467 7.60115 100.881 7.60115C101.138 7.60115 101.395 7.61104 101.662 7.60115C102.038 7.59127 102.216 7.41334 102.226 7.03772C102.226 6.5929 102.226 6.1382 102.226 5.6835Z" fill="white"/>
<path d="M101.625 9.12194H100.034C99.7768 9.12194 99.5791 9.32952 99.5791 9.57664V11.089C99.5791 12.552 98.6598 13.8963 97.266 14.3312C94.9135 15.0726 92.7487 13.3329 92.7487 11.089C92.7487 9.20102 94.2808 7.67876 96.1589 7.67876H97.7207C97.9777 7.67876 98.1754 7.47118 98.1754 7.22406V5.62273C98.1754 5.36573 97.9679 5.16803 97.7207 5.16803H96.1293C95.8723 5.16803 95.6746 5.37561 95.6746 5.62273V6.39374C93.1935 6.65075 91.3451 8.78586 91.4439 11.2768C91.5329 13.7085 93.5494 15.7151 95.981 15.8139C98.4423 15.9128 100.568 14.094 100.854 11.6426H101.635C101.892 11.6426 102.09 11.435 102.09 11.1879V9.59641C102.08 9.32952 101.882 9.12194 101.625 9.12194Z" fill="white"/>
<path d="M19.5208 36.3849C18.5818 37.2252 16.16 38.955 13.6097 37.4822C13.6097 37.4822 9.85351 35.0505 6.11707 27.5776L9.12203 24.7802C9.12203 24.7802 13.6493 30.464 19.5011 35.6139C19.7185 35.7919 19.7383 36.1181 19.5604 36.3355C19.5604 36.3553 19.5406 36.3751 19.5208 36.3849Z" fill="white"/>
<path d="M19.1351 15.4397C18.117 14.5501 15.2899 12.5237 12.621 14.5501C12.621 14.5501 9.09215 17.565 6.80877 22.7644V13.2453C6.80877 11.3277 5.25686 9.76587 3.32932 9.76587H2.1135C1.82684 9.76587 1.59949 9.99322 1.59949 10.2799V33.5684C1.59949 36.0396 3.6061 38.0363 6.06741 38.0363H6.27499C6.56165 38.0363 6.79888 37.7991 6.80877 37.5124V28.8929L19.1647 16.1712C19.3624 15.9636 19.3624 15.6374 19.1647 15.4397C19.1549 15.4496 19.145 15.4496 19.1351 15.4397Z" fill="white"/>
<path d="M1.59949 12.235V26.9435C2.5682 25.4707 3.22059 22.7326 3.22059 19.5893C3.22059 16.4459 2.5682 13.7078 1.59949 12.235Z" fill="white"/>
<path d="M12.6227 14.5481C12.6227 14.5481 9.09381 17.5629 6.81042 22.7623V25.5498C8.88623 19.0555 13.1169 15.0917 13.1169 15.0917C14.5996 13.8561 16.1911 13.8858 17.5156 14.3207C16.1812 13.6387 14.3723 13.2235 12.6227 14.5481Z" fill="white"/>
<defs>
<linearGradient id="paint0_linear_442_8723" x1="31.3367" y1="19.1912" x2="37.1816" y2="29.2925" gradientUnits="userSpaceOnUse">
<stop stop-color="#66CD00"/>
<stop offset="0.11" stop-color="#5DBB00"/>
<stop offset="0.38" stop-color="#499300"/>
<stop offset="0.63" stop-color="#3B7500"/>
<stop offset="0.84" stop-color="#326300"/>
<stop offset="1" stop-color="#2F5D00"/>
</linearGradient>
</defs>
</svg>
