<svg xmlns="http://www.w3.org/2000/svg" xmlns:xlink="http://www.w3.org/1999/xlink" width="327.5" height="162.963" viewBox="0 0 327.5 162.963">
  <defs>
    <clipPath id="clip-path">
      <rect id="Rectangle_17796" data-name="Rectangle 17796" width="327.5" height="162.964" rx="12" fill="#F47920" stroke="#707070" stroke-width="1"/>
    </clipPath>
  </defs>
  <g id="Group_33311" data-name="Group 33311" opacity="0.1" clip-path="url(#clip-path)">
    <g id="Group_36399" data-name="Group 36399" transform="translate(520.347 288.22) rotate(180)" style="mix-blend-mode: normal;isolation: isolate">
      <g id="Group_36395" data-name="Group 36395">
        <path id="Path_28389" data-name="Path 28389" d="M15.033,0A44.654,44.654,0,0,0,0,5.871H1.206A43.1,43.1,0,0,1,15.033.555Z" transform="translate(504.098 282.002)" fill="#F47920" opacity="0.7" style="mix-blend-mode: screen;isolation: isolate"/>
        <path id="Path_28390" data-name="Path 28390" d="M28.34,0C19.867.193,10.983,2.116.276,9.105.182,9.167.094,9.234,0,9.3H1.139C11.568,2.582,20.031.733,28.34.564Z" transform="translate(490.79 278.577)" fill="#F47920" opacity="0.7" style="mix-blend-mode: screen;isolation: isolate"/>
        <path id="Path_28391" data-name="Path 28391" d="M41.95.006C30.808-.069,19.934.422,5.137,9.082,3.369,10.117,1.671,11.2,0,12.288H1.141c1.44-.93,2.9-1.848,4.412-2.733C20.169,1,30.926.516,41.95.59Z" transform="translate(477.181 275.585)" fill="#F47920" opacity="0.7" style="mix-blend-mode: screen;isolation: isolate"/>
        <path id="Path_28392" data-name="Path 28392" d="M56.718,0c-2.741.278-5.38.473-7.976.661-11.324.817-22.026,1.589-37.584,9.618C7.229,12.306,3.556,14.43,0,16.5H1.233c3.295-1.914,6.694-3.864,10.307-5.728C26.95,2.818,37.565,2.052,48.8,1.241,51.382,1.055,54,.863,56.718.588Z" transform="translate(462.413 271.373)" fill="#F47920" opacity="0.7" style="mix-blend-mode: screen;isolation: isolate"/>
        <path id="Path_28393" data-name="Path 28393" d="M74.642,0c-6.98,1.806-12.871,2.79-18.566,3.735C45.488,5.489,35.476,7.148,20.338,13.9c-2.9,1.295-5.689,2.6-8.383,3.86C7.865,19.672,3.95,21.506,0,23.133H1.556c3.546-1.5,7.081-3.149,10.756-4.871C15,17,17.783,15.7,20.681,14.407c15.041-6.705,25-8.354,35.537-10.1,5.656-.938,11.5-1.915,18.424-3.694Z" transform="translate(444.488 264.74)" fill="#F47920" opacity="0.7" style="mix-blend-mode: screen;isolation: isolate"/>
        <path id="Path_28394" data-name="Path 28394" d="M186.863,0a52,52,0,0,1-7.538,3.317l-.386.134c-.844.29-1.669.575-2.483.835-7.505,2.394-13.62,4.059-19.534,5.667a331.926,331.926,0,0,0-33.105,10.467l-.972.363c-16.313,6.1-29.2,10.925-47.727,10.156-6.342-.273-12.89-1.506-19.822-2.812-4.289-.808-8.724-1.644-13.1-2.23A78.045,78.045,0,0,0,15.1,26.908,49.169,49.169,0,0,0,0,32.67H1.244a48.9,48.9,0,0,1,14.039-5.2,77.16,77.16,0,0,1,26.8-1c4.356.583,8.779,1.415,13.056,2.222,6.964,1.312,13.541,2.552,19.947,2.826,18.709.776,31.662-4.071,48.062-10.209l.972-.364A331.5,331.5,0,0,1,157.149,10.5c5.922-1.611,12.045-3.277,19.567-5.677.822-.263,1.652-.549,2.5-.842l.386-.134A52.575,52.575,0,0,0,186.863.69Z" transform="translate(332.268 255.203)" fill="#F47920" opacity="0.7" style="mix-blend-mode: screen;isolation: isolate"/>
        <path id="Path_28395" data-name="Path 28395" d="M203.361,0a64.25,64.25,0,0,1-19.466,11.786l-.918.359c-.606.239-1.2.473-1.795.7-5.344,2.008-9.838,3.788-14.184,5.51-10.431,4.131-19.437,7.7-35.421,12.508-16.19,4.869-29.929,7.476-48.373,5.419-5.405-.61-10.958-1.816-16.837-3.091-4.813-1.045-9.79-2.125-14.728-2.863a73.983,73.983,0,0,0-26.187.617C12.245,33.684,6.621,39.4.668,45.447L0,46.122H.917c.1-.1.207-.208.308-.311C7.1,39.842,12.652,34.2,25.628,31.5A72.943,72.943,0,0,1,51.511,30.9c4.909.733,9.873,1.811,14.671,2.852a171.789,171.789,0,0,0,16.926,3.106c18.592,2.073,32.424-.548,48.716-5.45,16.017-4.818,25.04-8.392,35.487-12.53,4.343-1.721,8.833-3.5,14.171-5.5.595-.223,1.2-.459,1.806-.7l.913-.359A65.5,65.5,0,0,0,203.361.855Z" transform="translate(315.769 241.75)" fill="#F47920" opacity="0.7" style="mix-blend-mode: screen;isolation: isolate"/>
        <path id="Path_28396" data-name="Path 28396" d="M216.994,0c-2.06,1.573-3.8,3.148-5.605,4.8-1.9,1.741-3.87,3.542-6.382,5.464A97.625,97.625,0,0,1,185.6,21.485q-.67.3-1.321.59c-.414.187-.824.371-1.232.55-5.54,2.441-10.089,4.888-14.487,7.255-8.9,4.785-17.3,9.3-32.082,12.645-16.055,3.629-29.975,3.722-48.047.321-4.282-.812-8.645-1.914-13.265-3.081-5.522-1.4-11.233-2.839-16.944-3.79a69.767,69.767,0,0,0-25.281.223C19.517,38.877,14.724,44.775,9.65,51.018A51.587,51.587,0,0,1,0,60.8H1.065a53.7,53.7,0,0,0,9.18-9.464c4.995-6.145,9.712-11.952,22.862-14.575a68.692,68.692,0,0,1,24.969-.219c5.676.944,11.369,2.382,16.874,3.774,4.632,1.17,9.009,2.276,13.316,3.092,18.2,3.425,32.216,3.328,48.4-.327,14.893-3.365,23.341-7.909,32.284-12.721,4.387-2.359,8.921-4.8,14.435-7.228.41-.18.821-.366,1.238-.553q.65-.292,1.315-.587A98.368,98.368,0,0,0,205.5,10.686c2.535-1.94,4.513-3.75,6.427-5.5,1.651-1.511,3.236-2.96,5.071-4.4Z" transform="translate(302.136 227.069)" fill="#F47920" opacity="0.7" style="mix-blend-mode: screen;isolation: isolate"/>
        <path id="Path_28397" data-name="Path 28397" d="M4.605,8.578C2.988,5.805,1.51,2.959,0,0V1.511C1.244,3.932,2.484,6.28,3.815,8.578Z" transform="translate(0 279.295)" fill="#F47920" opacity="0.7" style="mix-blend-mode: screen;isolation: isolate"/>
        <path id="Path_28398" data-name="Path 28398" d="M243.189,0c-.888.36-1.772.723-2.625,1.106-2,.9-3.94,1.865-6.109,3.035-3.6,1.946-6.593,3.921-9.759,6.013-1.776,1.173-3.612,2.386-5.645,3.651-5.089,3.167-11.366,6.607-19.192,10.513-.637.318-1.259.64-1.873.958l-.519.268a110.27,110.27,0,0,0-13.408,8.479c-8.143,5.746-15.849,11.18-30.122,13.3-16.247,2.426-30.306-.028-47.725-4.777-2.835-.776-5.685-1.63-8.7-2.535a192.643,192.643,0,0,0-20.148-5.253,65.381,65.381,0,0,0-24.376-.171c-13.611,2.6-17.559,8.672-21.737,15.1C28.817,53.429,26.3,57.3,21.741,60.72a21.941,21.941,0,0,1-3.307,2.04,67.588,67.588,0,0,1-13.4,4.489C3.313,67.7,1.627,68.14,0,68.618H2.178q1.515-.412,3.073-.813a68.21,68.21,0,0,0,13.557-4.548,22.6,22.6,0,0,0,3.417-2.108c4.651-3.492,7.2-7.4,9.655-11.187,4.1-6.306,7.974-12.263,21.268-14.8a64.449,64.449,0,0,1,24.056.172,192.3,192.3,0,0,1,20.059,5.231c3.023.907,5.878,1.763,8.723,2.542,17.526,4.778,31.683,7.246,48.079,4.8,14.488-2.156,22.244-7.639,30.462-13.437a109.537,109.537,0,0,1,13.321-8.426l.521-.269c.61-.317,1.23-.637,1.864-.953,7.846-3.917,14.144-7.367,19.252-10.547,2.04-1.271,3.882-2.486,5.661-3.662,3.153-2.082,6.132-4.049,9.7-5.978,2.153-1.163,4.079-2.12,6.061-3.012.739-.332,1.511-.645,2.279-.96Z" transform="translate(275.942 219.255)" fill="#F47920" opacity="0.7" style="mix-blend-mode: screen;isolation: isolate"/>
        <path id="Path_28399" data-name="Path 28399" d="M10.675,15.116A144.756,144.756,0,0,1,.576.9C.384.6.192.3,0,0V1.257A147.308,147.308,0,0,0,9.809,15.116Z" transform="translate(0 272.757)" fill="#F47920" opacity="0.7" style="mix-blend-mode: screen;isolation: isolate"/>
        <path id="Path_28400" data-name="Path 28400" d="M257.162,0c-4.143,1.254-8.4,2.554-12.437,4.016-2.008.726-4.112,1.535-6.431,2.471-6.148,2.486-11.526,5.1-17.418,8.017-6.443,3.189-13.106,6.487-18.976,9.8-.764.435-1.507.875-2.234,1.314a78.236,78.236,0,0,0-12.168,9.6c-7.422,6.73-14.442,13.088-28.319,14.069-17.115,1.211-31.827-4.174-47.4-9.876l-2.307-.848c-8.111-2.989-16.5-6.08-25.186-7.86a60.852,60.852,0,0,0-23.47-.566c-13.79,2.494-16.882,8.734-20.155,15.341-1.9,3.843-3.873,7.816-8.044,11.349a18.955,18.955,0,0,1-3.066,2.1,57.978,57.978,0,0,1-11.8,4.362c-6.037,1.756-11.74,3.414-15.26,7.332C1.623,71.584.8,72.581,0,73.587H.851c.716-.889,1.449-1.77,2.219-2.624,3.39-3.775,8.993-5.4,14.924-7.128a58.717,58.717,0,0,0,11.957-4.428,19.636,19.636,0,0,0,3.178-2.175c4.268-3.614,6.263-7.641,8.192-11.535,3.2-6.46,6.225-12.563,19.649-14.99a60.08,60.08,0,0,1,23.14.563c8.625,1.768,16.983,4.847,25.066,7.825l2.308.849c15.663,5.734,30.458,11.149,47.758,9.924,14.168-1,21.27-7.441,28.789-14.259a77.552,77.552,0,0,1,12.061-9.52c.723-.437,1.459-.873,2.216-1.3,5.851-3.306,12.506-6.6,18.94-9.784,5.878-2.909,11.241-5.518,17.364-7.993,2.311-.933,4.4-1.738,6.4-2.461,3.937-1.425,8.092-2.7,12.146-3.926Z" transform="translate(261.968 214.286)" fill="#F47920" opacity="0.7" style="mix-blend-mode: screen;isolation: isolate"/>
        <path id="Path_28401" data-name="Path 28401" d="M16.316,19.768h.968A112.332,112.332,0,0,1,3.738,4.974C2.46,3.331,1.219,1.671,0,0V1.135C1.027,2.527,2.066,3.914,3.135,5.286A113.562,113.562,0,0,0,16.316,19.768Z" transform="translate(0 268.104)" fill="#F47920" opacity="0.7" style="mix-blend-mode: screen;isolation: isolate"/>
        <path id="Path_28402" data-name="Path 28402" d="M262.311,0c-3.852,1.084-7.864,2.165-11.989,3.274-20.273,5.452-43.252,11.631-57.28,21.559-4.274,3.024-7.634,6.9-10.885,10.652-6.7,7.73-13.028,15.031-26.557,14.9-15.766-.155-30.035-6.907-43.833-13.436q-1.631-.773-3.253-1.536C93.92,28.553,76.746,21.934,59.952,24.795l-.138.024C45.873,27.237,43.637,33.626,41.268,40.39c-1.382,3.949-2.813,8.033-6.608,11.682-3.31,3.183-8.348,4.816-13.219,6.4-5.8,1.879-11.792,3.822-15.053,8.386A92.884,92.884,0,0,0,.257,77.211L0,77.69H.78l.131-.246A92.682,92.682,0,0,1,7,67.146c3.138-4.391,9.014-6.3,14.7-8.138,4.954-1.6,10.076-3.265,13.5-6.56,3.894-3.745,5.345-7.89,6.75-11.9,2.407-6.876,4.486-12.815,18.006-15.16l.136-.023c16.559-2.821,33.583,3.747,48.059,10.55q1.621.762,3.251,1.535c13.879,6.567,28.228,13.359,44.183,13.515,13.906.133,20.34-7.286,27.15-15.144,3.226-3.723,6.561-7.572,10.769-10.549,13.921-9.852,36.826-16.011,57.035-21.446,4.045-1.088,7.98-2.148,11.766-3.211Z" transform="translate(256.82 210.183)" fill="#F47920" opacity="0.7" style="mix-blend-mode: screen;isolation: isolate"/>
        <path id="Path_28403" data-name="Path 28403" d="M23.559,23.486h.983A108.324,108.324,0,0,1,0,0V.916A111.2,111.2,0,0,0,23.559,23.486Z" transform="translate(0 264.387)" fill="#F47920" opacity="0.7" style="mix-blend-mode: screen;isolation: isolate"/>
        <path id="Path_28404" data-name="Path 28404" d="M274.915,0c-5.62,1.686-11.728,3.323-18.12,5.034-19.677,5.265-41.98,11.233-55.915,20.7a63.778,63.778,0,0,0-10.6,9.817c-6.639,7.171-12.913,13.943-25.8,14-14.936.068-28.5-5.619-40.46-10.638l-2.691-1.132c-1.729-.729-3.445-1.453-5.151-2.152C102.9,30.189,87.191,24.952,71.355,27.4c-1.4.216-2.786.474-4.121.766-13.513,2.962-16.489,8.765-19.367,14.378-1.673,3.263-3.4,6.637-7.208,9.459-3.111,2.31-7.533,3.362-12.215,4.476-6.186,1.472-12.583,2.994-16.34,7.621-3.244,3.971-5.519,8.6-7.719,13.079-1.17,2.381-2.379,4.843-3.7,7.119-.228.39-.457.764-.686,1.134H.8c.178-.292.357-.58.535-.884,1.33-2.293,2.544-4.763,3.718-7.152C7.236,72.94,9.5,68.338,12.7,64.417c3.612-4.449,9.882-5.941,15.945-7.383,4.762-1.134,9.262-2.2,12.5-4.6,3.921-2.909,5.681-6.345,7.385-9.666,2.941-5.735,5.721-11.152,18.894-14.039,1.317-.288,2.687-.544,4.068-.756,15.626-2.411,31.2,2.786,44.366,8.188,1.7.7,3.417,1.421,5.145,2.149l2.692,1.132c12.036,5.048,25.68,10.771,40.791,10.7,13.242-.059,19.615-6.943,26.365-14.232a63.327,63.327,0,0,1,10.491-9.722c13.831-9.4,36.064-15.348,55.679-20.6,6.3-1.687,12.335-3.3,17.9-4.965Z" transform="translate(244.216 202.447)" fill="#F47920" opacity="0.7" style="mix-blend-mode: screen;isolation: isolate"/>
        <path id="Path_28405" data-name="Path 28405" d="M29.607,27.895h1.237A97.233,97.233,0,0,1,3.09,4.027C2.014,2.7.993,1.351,0,0V1.126C.808,2.2,1.632,3.28,2.493,4.347A98.009,98.009,0,0,0,29.607,27.895Z" transform="translate(0 259.978)" fill="#F47920" opacity="0.7" style="mix-blend-mode: screen;isolation: isolate"/>
        <path id="Path_28406" data-name="Path 28406" d="M289.231,0c-1.185.386-2.351.755-3.473,1.108-6.263,1.95-13.247,3.8-20.643,5.767-19.134,5.079-40.822,10.835-54.682,19.888a64.977,64.977,0,0,0-10.359,9.013c-6.573,6.606-12.783,12.844-25.006,13.075-14.348.269-27.511-4.666-40.242-9.439l-2.809-1.052c-2.23-.834-4.335-1.623-6.469-2.379-13.256-4.7-29-9.005-45.14-5.349-1.389.315-2.749.649-4.041.994C63.53,35.051,59.752,40.09,56.417,44.537c-2.1,2.8-4.076,5.435-8.029,7.508-2.836,1.487-6.766,2.068-10.928,2.682-6.356.939-13.56,2-17.923,6.734-4.085,4.43-6.492,9.969-8.82,15.324C9.927,78.6,9.179,80.318,8.37,82a34.44,34.44,0,0,1-6.015,9.085A29.828,29.828,0,0,1,0,93.284H.974c.664-.581,1.315-1.189,1.945-1.844a34.98,34.98,0,0,0,6.116-9.231c.815-1.688,1.563-3.409,2.355-5.231,2.311-5.315,4.7-10.81,8.718-15.168,4.194-4.549,10.949-5.546,17.48-6.511,4.232-.626,8.231-1.216,11.186-2.766,4.091-2.145,6.112-4.84,8.252-7.693,3.43-4.574,6.978-9.3,19.563-12.66,1.282-.342,2.631-.674,4.009-.986,15.938-3.609,31.523.665,44.664,5.321,2.128.753,4.231,1.541,6.456,2.375l2.809,1.051c12.8,4.8,26.043,9.764,40.556,9.491,12.563-.231,18.867-6.576,25.545-13.29a64.454,64.454,0,0,1,10.252-8.925c13.758-8.987,35.379-14.726,54.457-19.79,7.4-1.964,14.4-3.821,20.677-5.777,1.042-.328,2.121-.668,3.217-1.023Z" transform="translate(229.899 194.589)" fill="#F47920" opacity="0.7" style="mix-blend-mode: screen;isolation: isolate"/>
        <path id="Path_28407" data-name="Path 28407" d="M38.36,32.252h1.668C25.48,26.639,13.42,17.511,3.218,4.37,2.089,2.925,1.023,1.467,0,0V1.163C.842,2.341,1.7,3.517,2.616,4.682,12.573,17.51,24.29,26.553,38.36,32.252Z" transform="translate(0 255.621)" fill="#F47920" opacity="0.7" style="mix-blend-mode: screen;isolation: isolate"/>
        <path id="Path_28408" data-name="Path 28408" d="M8.011,0A19.046,19.046,0,0,1,0,5.783v.64A19.762,19.762,0,0,0,8.879,0Z" fill="#F47920" opacity="0.7" style="mix-blend-mode: screen;isolation: isolate"/>
        <path id="Path_28409" data-name="Path 28409" d="M39.617,32.391c3.986,1.311,6.948,2.351,9.331,3.186,1.16.408,2.2.77,3.17,1.1h1.887c-1.441-.468-2.956-1-4.776-1.638-2.384-.836-5.352-1.876-9.345-3.191C25.367,27.071,13.414,18.217,3.346,4.781Q1.569,2.409,0,0V1.209C.873,2.507,1.775,3.8,2.737,5.085,12.888,18.631,24.951,27.564,39.617,32.391Z" transform="translate(0 251.194)" fill="#F47920" opacity="0.7" style="mix-blend-mode: screen;isolation: isolate"/>
        <path id="Path_28410" data-name="Path 28410" d="M337.033,0a121.976,121.976,0,0,1-11.559,3.912c-5.732,1.725-12.022,3.381-18.681,5.134-18.534,4.881-39.541,10.414-53.322,19.007a67.214,67.214,0,0,0-10.077,8.2c-6.519,6.056-12.679,11.775-24.251,12.16-13.849.458-26.02-3.631-38.905-7.962q-1.739-.583-3.483-1.167l-.633-.21c-2.667-.883-5.185-1.717-7.716-2.482-12.449-3.76-28.868-7.438-45.458-2.455q-1.981.594-3.962,1.22c-11.642,3.687-16.219,7.8-19.895,11.1-2.708,2.435-5.048,4.537-9.47,5.9a41.292,41.292,0,0,1-9.277,1.1c-6.934.344-14.793.734-19.889,5.639-4.971,4.785-7.342,11.23-9.635,17.461-.428,1.16-.847,2.3-1.278,3.412a36,36,0,0,1-5.094,9.455A25.493,25.493,0,0,1,34.9,96.956c-5.512,2.519-12.384,3.249-18.951,3.781-2.82.229-5.355.306-7.593.372-.769.023-1.5.045-2.187.071-.881.035-1.7.05-2.465.065-1.326.026-2.527.051-3.707.162H14.735c.426-.029.846-.055,1.287-.091,6.642-.539,13.6-1.279,19.231-3.854a26.16,26.16,0,0,0,9.8-7.727,36.495,36.495,0,0,0,5.174-9.6c.432-1.112.854-2.257,1.282-3.42,2.272-6.175,4.621-12.56,9.5-17.252,4.9-4.715,12.6-5.1,19.387-5.434A41.927,41.927,0,0,0,89.873,52.9c4.584-1.413,6.977-3.563,9.747-6.053,3.814-3.428,8.138-7.314,19.623-10.951q1.974-.626,3.951-1.217c16.377-4.915,32.629-1.271,44.963,2.456,2.519.76,5.034,1.593,7.695,2.475l.633.21q1.744.581,3.48,1.166c12.39,4.163,25.2,8.468,39.207,8,11.886-.393,18.139-6.2,24.759-12.359a66.726,66.726,0,0,1,9.974-8.118c13.684-8.533,34.628-14.049,53.108-18.916,6.666-1.756,12.961-3.414,18.709-5.141,3.555-1.07,7.532-2.268,11.311-3.81Z" transform="translate(182.097 186.465)" fill="#F47920" opacity="0.7" style="mix-blend-mode: screen;isolation: isolate"/>
        <path id="Path_28411" data-name="Path 28411" d="M350.611,0c-5.317,3.825-12.9,6.006-19.645,7.944-5.017,1.441-10.41,2.846-16.12,4.333C296.713,17,276.158,22.357,262.287,30.57a70.787,70.787,0,0,0-9.779,7.384C246.04,43.467,239.935,48.674,229,49.2c-13.445.641-25.271-2.929-37.791-6.708-1.847-.557-3.7-1.116-5.563-1.663-3.209-.936-5.881-1.706-8.6-2.4-18.447-4.669-32.566-4.534-45.775.438q-1.942.731-3.886,1.446a92.315,92.315,0,0,0-18.166,8.824c-4.191,2.555-6.959,4.248-12.566,4.769a51.733,51.733,0,0,1-7.208-.131c-7.254-.436-16.285-.978-22.29,4.173-5.909,5.07-8.174,12.769-10.171,19.563l-.487,1.648a37.489,37.489,0,0,1-4.172,9.824,23.049,23.049,0,0,1-8.769,8.186c-5.252,2.8-12.062,3.773-18.645,4.714l-.2.028c-1.069.153-2.1.292-3.076.424-2.509.341-4.677.632-6.486,1.01l-.4.082c-4.6.953-6.7,1.389-11.108,4.624-.4.291-.808.6-1.241.928-.678.509-1.406,1.057-2.206,1.63-.065.047-.129.1-.193.146H1.064c.645-.469,1.256-.924,1.82-1.349.431-.324.84-.633,1.235-.923,4.277-3.139,6.188-3.535,10.805-4.492l.4-.082c1.782-.371,3.935-.661,6.428-1,.981-.133,2.009-.272,3.08-.425l.2-.027c6.658-.952,13.539-1.936,18.912-4.8a23.669,23.669,0,0,0,9.01-8.4A37.964,37.964,0,0,0,57.187,79.3l.487-1.65c1.977-6.722,4.218-14.34,9.994-19.3s14.615-4.421,21.72-3.994a52.43,52.43,0,0,0,7.342.13c5.8-.545,8.627-2.27,12.912-4.882a91.651,91.651,0,0,1,18.033-8.76q1.946-.718,3.891-1.447c13.038-4.9,27-5.033,45.264-.41,2.707.685,5.372,1.454,8.572,2.387,1.861.545,3.71,1.1,5.556,1.661,12.592,3.8,24.487,7.392,38.082,6.743,11.214-.531,17.419-5.823,23.987-11.422a70.221,70.221,0,0,1,9.681-7.316c13.778-8.158,34.274-13.5,52.358-18.209,5.715-1.489,11.112-2.895,16.14-4.339,6.615-1.9,14.02-4.036,19.407-7.73Z" transform="translate(168.519 177.116)" fill="#F47920" opacity="0.7" style="mix-blend-mode: screen;isolation: isolate"/>
        <path id="Path_28412" data-name="Path 28412" d="M37.913,31.458c10.532,3.132,13.459,3.218,17.89,3.349,1.528.045,3.261.1,5.555.284,2.111.174,4.453.518,6.932.882,1.2.176,2.435.357,3.712.53,2.5.335,5,.65,7.459.959,6.721.847,13.068,1.647,18.346,2.7,1.353.27,2.689.62,4.016,1.016h1.971a47.8,47.8,0,0,0-5.817-1.583c-5.308-1.058-11.671-1.859-18.407-2.708-2.456-.309-4.953-.624-7.452-.958-1.274-.173-2.507-.353-3.7-.529-2.493-.366-4.849-.713-6.987-.887-2.317-.19-4.062-.242-5.6-.286-4.363-.129-7.245-.214-17.671-3.314C24.424,26.828,12.756,18.2,3.474,5.265,2.224,3.521,1.074,1.766,0,0V1.283C.9,2.715,1.841,4.142,2.858,5.56,12.225,18.614,24.019,27.328,37.913,31.458Z" transform="translate(0 246.697)" fill="#F47920" opacity="0.7" style="mix-blend-mode: screen;isolation: isolate"/>
        <path id="Path_28413" data-name="Path 28413" d="M17.546,0a19.962,19.962,0,0,1-8.72,5.267A25.334,25.334,0,0,1,0,6.371v.562A26,26,0,0,0,9.082,5.81,20.56,20.56,0,0,0,18.461,0Z" fill="#F47920" opacity="0.7" style="mix-blend-mode: screen;isolation: isolate"/>
        <path id="Path_28414" data-name="Path 28414" d="M26.934,0a20.847,20.847,0,0,1-8.155,4.327C12.517,6.123,6.333,5.221,0,3.455v.608c6.3,1.723,12.685,2.629,19.016.813A21.48,21.48,0,0,0,27.93,0Z" fill="#F47920" opacity="0.7" style="mix-blend-mode: screen;isolation: isolate"/>
        <path id="Path_28415" data-name="Path 28415" d="M358.52,0a29.793,29.793,0,0,1-6.767,7.68q-.426.332-.881.657c-5.28,3.745-12.8,5.8-20.082,7.78-4.094,1.116-8.389,2.218-12.937,3.385-17.937,4.6-38.267,9.817-52.418,17.725a76.182,76.182,0,0,0-9.452,6.569c-6.429,4.98-12.5,9.682-22.8,10.328-13.115.822-24.649-2.31-36.862-5.627-2.432-.661-4.948-1.344-7.457-1.987-3.332-.849-6.112-1.531-8.855-2.1-18.412-3.814-32.628-2.787-46.091,3.331-1.227.557-2.471,1.1-3.809,1.67-5.234,2.216-9.205,4.1-12.4,5.616-8.5,4.034-11.673,5.541-19.7,4.588-1.34-.159-2.982-.466-4.718-.791-7.582-1.418-17.966-3.36-25.118,2.124-6.933,5.316-8.857,14.316-10.4,21.547a40.966,40.966,0,0,1-3.249,10.195,21.271,21.271,0,0,1-7.993,8.835c-4.646,2.848-10.863,4.106-16.875,5.323l-1.857.378a58.178,58.178,0,0,0-9.345,2.438c-4.224,1.717-5.434,2.916-8.664,6.119l-.73.724c-.9.894-1.907,1.858-3.1,2.847l-1.445,1.206c-1.46,1.222-2.957,2.474-4.511,3.686H1.03c1.369-1.084,2.7-2.193,3.993-3.279l1.442-1.2c1.216-1,2.231-1.98,3.145-2.885l.732-.724c3.25-3.22,4.344-4.306,8.431-5.968a57.586,57.586,0,0,1,9.2-2.394l1.855-.378c6.081-1.231,12.37-2.5,17.132-5.424a21.857,21.857,0,0,0,8.223-9.075A41.464,41.464,0,0,0,58.478,82.6c1.527-7.146,3.429-16.04,10.188-21.222,6.877-5.274,17.045-3.37,24.469-1.98,1.752.328,3.407.637,4.775.8,8.268.982,11.749-.672,20.159-4.661,3.185-1.511,7.148-3.392,12.366-5.6,1.344-.569,2.6-1.117,3.829-1.678,13.289-6.04,27.342-7.049,45.566-3.275,2.727.564,5.5,1.243,8.818,2.09,2.5.641,5.015,1.324,7.444,1.984,12.283,3.336,23.884,6.486,37.141,5.656,10.552-.664,16.717-5.435,23.241-10.488a75.538,75.538,0,0,1,9.364-6.51c14.064-7.86,34.339-13.061,52.229-17.651,4.552-1.167,8.851-2.271,12.951-3.388,7-1.909,14.936-4.072,20.324-7.893.313-.222.614-.448.906-.676a29.422,29.422,0,0,0,6.273-6.889Z" transform="translate(160.61 163.624)" fill="#F47920" opacity="0.7" style="mix-blend-mode: screen;isolation: isolate"/>
        <path id="Path_28416" data-name="Path 28416" d="M36.21,30.646c10.242,2.738,13.211,1.949,16.652,1.034a24.742,24.742,0,0,1,6.519-1.01,62.672,62.672,0,0,1,10.762,1.1,233.746,233.746,0,0,1,25.679,5.622c5.684,1.624,11.026,4.446,16.681,7.434.609.322,1.224.644,1.838.967h1.322q-1.394-.726-2.772-1.457c-5.692-3.007-11.069-5.847-16.832-7.493A234.486,234.486,0,0,0,70.28,31.2a63.334,63.334,0,0,0-10.919-1.111,25.723,25.723,0,0,0-6.721,1.039c-3.322.882-6.186,1.645-16.209-1.035C23.214,26.558,12.17,18.407,3.6,5.868,2.276,3.923,1.09,1.966,0,0V1.388c.92,1.6,1.905,3.19,2.979,4.763C11.635,18.823,22.816,27.064,36.21,30.646Z" transform="translate(0 242.081)" fill="#F47920" opacity="0.7" style="mix-blend-mode: screen;isolation: isolate"/>
        <path id="Path_28417" data-name="Path 28417" d="M367.977,0a38.242,38.242,0,0,0-3.056,2.864c-1.149,1.207-2.2,2.425-3.219,3.6-2.676,3.1-5.2,6.027-9.315,8.679-.288.185-.583.37-.888.551-5.184,3.076-12.21,4.879-19,6.623l-.33.085c-2.757.707-5.615,1.423-8.539,2.156-18.132,4.542-38.683,9.69-53.5,17.44a84.5,84.5,0,0,0-9.082,5.749c-6.406,4.455-12.454,8.66-22.14,9.419-12.84,1-24.13-1.757-36.083-4.679-2.993-.732-6.088-1.489-9.2-2.178-2.71-.6-5.912-1.277-9.109-1.8-18.4-3.012-32.715-1.093-46.4,6.225-1.223.654-2.48,1.292-3.736,1.895-18.259,8.776-22.057,10.6-33.464,6.831-.554-.184-1.156-.389-1.8-.607-7.374-2.518-19.714-6.731-28.369-.786-6.992,4.8-9.008,13.356-10.143,21.881A44.655,44.655,0,0,1,58.28,94.517,19.8,19.8,0,0,1,51.062,104c-4.187,2.922-9.969,4.415-15.562,5.86-1.035.267-2.059.532-3.062.8-3.372.91-6.809,1.959-9.121,3.449A13.688,13.688,0,0,0,18.4,119.49a40.427,40.427,0,0,1-2.372,3.595,24.842,24.842,0,0,1-2.766,3.134A52.055,52.055,0,0,1,0,135.856H1.384A54.484,54.484,0,0,0,13.811,126.6a25.421,25.421,0,0,0,2.831-3.21,41.151,41.151,0,0,0,2.4-3.64,13.191,13.191,0,0,1,4.713-5.177c2.224-1.435,5.593-2.459,8.9-3.353,1-.271,2.022-.534,3.055-.8,5.66-1.462,11.513-2.972,15.81-5.973A20.355,20.355,0,0,0,58.96,94.7a44.961,44.961,0,0,0,2.358-10.683c1.12-8.405,3.094-16.827,9.894-21.5,8.32-5.718,20.41-1.588,27.633.878.643.22,1.246.425,1.8.609,11.732,3.877,15.586,2.027,34.095-6.868,1.266-.608,2.532-1.251,3.764-1.909,13.52-7.227,27.667-9.122,45.872-6.141,3.176.52,6.364,1.2,9.063,1.792,3.1.687,6.189,1.443,9.178,2.174,12.022,2.94,23.377,5.715,36.358,4.7,9.9-.772,16.04-5.039,22.534-9.556a83.967,83.967,0,0,1,9-5.7c14.73-7.706,35.232-12.843,53.32-17.374,2.926-.732,5.785-1.449,8.543-2.156l.33-.084c6.849-1.758,13.933-3.575,19.21-6.708.313-.186.615-.375.91-.564,4.194-2.7,6.75-5.665,9.458-8.8,1.012-1.173,2.06-2.387,3.2-3.583.787-.826,1.619-1.615,2.49-2.375Z" transform="translate(151.153 152.017)" fill="#F47920" opacity="0.7" style="mix-blend-mode: screen;isolation: isolate"/>
        <path id="Path_28418" data-name="Path 28418" d="M34.505,30.016c10.776,2.568,13.564.781,16.515-1.109a13.621,13.621,0,0,1,6.382-2.48,37.619,37.619,0,0,1,10.88.794,151.312,151.312,0,0,1,25.553,7.585c5.133,1.953,9.937,4.831,15.021,7.878a119.178,119.178,0,0,0,14.75,7.908h1.6a110.022,110.022,0,0,1-15.922-8.377c-5.115-3.065-9.945-5.96-15.141-7.937a152.076,152.076,0,0,0-25.7-7.626,38.354,38.354,0,0,0-11.149-.8,14.342,14.342,0,0,0-6.714,2.6c-2.8,1.8-5.451,3.491-15.873,1.008C18.833,25.673,9.1,14.969,3.732,6.655A64,64,0,0,1,0,0V1.565c.93,1.8,1.956,3.589,3.1,5.36C8.534,15.34,18.392,26.176,34.505,30.016Z" transform="translate(0 237.281)" fill="#F47920" opacity="0.7" style="mix-blend-mode: screen;isolation: isolate"/>
        <path id="Path_28419" data-name="Path 28419" d="M36.347,0a22.967,22.967,0,0,1-7.612,3.386C20.522,5.481,12.044,3.1,3.85.8,2.9.53,1.941.263.982,0H0V.36c1.21.326,2.422.652,3.617.988,8.3,2.333,16.884,4.743,25.331,2.6A23.5,23.5,0,0,0,37.447,0Z" fill="#F47920" opacity="0.7" style="mix-blend-mode: screen;isolation: isolate"/>
        <path id="Path_28420" data-name="Path 28420" d="M29.065,3.01A27.007,27.007,0,0,0,36.983,0H35.717a26.573,26.573,0,0,1-6.834,2.446C21.454,4.039,13.758,2.358,6.313.719Q4.66.355,2.986,0H0C2.055.387,4.1.836,6.126,1.282,13.662,2.941,21.479,4.662,29.065,3.01Z" transform="translate(9.812)" fill="#F47920" opacity="0.7" style="mix-blend-mode: screen;isolation: isolate"/>
        <path id="Path_28421" data-name="Path 28421" d="M519.13,0a54.2,54.2,0,0,0-10.72,6.422c-1.035.808-2.014,1.608-2.981,2.4a57.175,57.175,0,0,1-10.71,7.39c-.292.149-.588.3-.893.444-5.01,2.393-11.383,3.915-17.549,5.385l-2.166.519c-18.342,4.385-41.169,9.844-57.588,17.812a98.476,98.476,0,0,0-8.645,4.918c-6.4,3.941-12.455,7.658-21.543,8.521-12.617,1.192-23.7-1.25-35.436-3.833-3.509-.773-7.138-1.572-10.809-2.266-3.726-.7-6.7-1.177-9.361-1.5-18.424-2.263-32.832.55-46.716,9.119-1.212.748-2.444,1.46-3.662,2.12-18.217,9.851-23.5,9.618-34.856,3.464-13.31-7.214-23.277-8.563-30.475-4.126-8.011,4.937-9.479,15.043-9.886,22.214l-.008.131a50.5,50.5,0,0,1-1.394,10.809,18.67,18.67,0,0,1-6.446,10.134c-3.822,3.016-9.277,4.715-14.552,6.36-1.345.419-2.677.834-3.963,1.265-3.167,1.062-6.7,2.422-8.882,4.465s-2.7,3.929-3.306,6.12a21.887,21.887,0,0,1-1.876,4.974,17.2,17.2,0,0,1-2.433,3.424c-7.023,7.744-19.348,14.759-32.883,11.213-9.109-2.386-16.561-7.433-23.769-12.314a109.938,109.938,0,0,0-13.408-8.195c-7.157-3.472-16.536-7.7-25.615-9.608-4.77-1.008-8.393-1.161-11.374-.489a11.157,11.157,0,0,0-6.45,4.165c-2.461,2.748-4.785,5.346-15.8,3.038-16.12-3.378-25.162-14.844-29.119-21.38A55.706,55.706,0,0,1,0,85.431v1.743a55.949,55.949,0,0,0,3.221,6.191C7.23,99.989,16.406,111.615,32.8,115.05c11.479,2.407,14.058-.475,16.552-3.259a10.566,10.566,0,0,1,6.065-3.946c2.871-.644,6.36-.491,11,.49,8.991,1.888,18.312,6.093,25.428,9.545a109.4,109.4,0,0,1,13.316,8.143c7.26,4.916,14.767,10,24.006,12.42,13.892,3.639,26.5-3.515,33.676-11.421a17.7,17.7,0,0,0,2.511-3.535,22.308,22.308,0,0,0,1.921-5.081,10.875,10.875,0,0,1,3.147-5.866c2.085-1.951,5.525-3.273,8.616-4.308,1.28-.429,2.606-.842,3.947-1.26,5.341-1.665,10.866-3.386,14.794-6.485a19.2,19.2,0,0,0,6.645-10.423,50.976,50.976,0,0,0,1.412-10.913l.007-.13c.4-7.055,1.833-16.987,9.6-21.777,6.923-4.27,16.624-2.912,29.648,4.146,12.145,6.584,18.141,6,35.647-3.464,1.23-.665,2.474-1.385,3.7-2.14,13.717-8.467,27.958-11.244,46.177-9.007,2.643.324,5.6.8,9.307,1.5,3.657.691,7.279,1.489,10.782,2.261,11.8,2.6,22.953,5.054,35.705,3.85,9.291-.879,15.409-4.646,21.892-8.636a98.131,98.131,0,0,1,8.579-4.882c16.342-7.93,39.121-13.378,57.425-17.754l2.166-.519c6.206-1.48,12.624-3.012,17.709-5.442.311-.148.615-.3.912-.453a57.721,57.721,0,0,0,10.834-7.471c.964-.786,1.938-1.583,2.969-2.388A53.206,53.206,0,0,1,519.13.671Z" transform="translate(0 146.817)" fill="#F47920" opacity="0.7" style="mix-blend-mode: screen;isolation: isolate"/>
        <path id="Path_28422" data-name="Path 28422" d="M29.442,2.076A32.951,32.951,0,0,0,36.6,0H34.991a33.159,33.159,0,0,1-5.7,1.507l-.089.015C22.7,2.629,15.928,1.6,9.375.606,8.011.4,6.638.19,5.26,0H0C3.081.252,6.191.715,9.243,1.178,15.9,2.189,22.808,3.239,29.442,2.076Z" transform="translate(19.363)" fill="#F47920" opacity="0.7" style="mix-blend-mode: screen;isolation: isolate"/>
        <path id="Path_28423" data-name="Path 28423" d="M0,2.959A37.972,37.972,0,0,1,11.424,0H7.451A37.955,37.955,0,0,0,0,2.3Z" fill="#F47920" opacity="0.7" style="mix-blend-mode: screen;isolation: isolate"/>
        <path id="Path_28424" data-name="Path 28424" d="M519.13,0c-1.643.554-3.242,1.1-4.8,1.651A93.014,93.014,0,0,0,500.758,7.59l-1.481.814A98.737,98.737,0,0,1,485.91,14.88c-.3.113-.6.227-.9.338a126.289,126.289,0,0,1-15.571,4.062l-2.286.5c-15.4,3.388-37.9,8.791-55.384,16.565-2.827,1.257-5.493,2.682-8.072,4.058-6.448,3.445-12.54,6.7-21.087,7.653-12.434,1.392-23.351-.775-34.912-3.07-3.98-.79-8.1-1.607-12.292-2.271-3.658-.575-6.8-.97-9.616-1.207C307.06,39.933,293,43.523,278.763,53.519c-1.189.835-2.4,1.624-3.591,2.345-17.151,10.358-24.412,9.031-36.266.1-4.287-3.231-19.177-13.276-30.765-6.861-6.569,3.635-9.808,11.22-9.627,22.546l.014.775a55.206,55.206,0,0,1-.487,10.535c-.863,4.694-2.666,8.121-5.675,10.787-3.527,3.123-8.731,5.014-13.762,6.843-1.547.562-3.149,1.144-4.646,1.745-4.476,1.8-7.058,3.436-8.631,5.479-1.848,2.4-1.96,4.735-2.079,7.206a18.447,18.447,0,0,1-1.007,6.011,13.985,13.985,0,0,1-2.106,3.714c-6.311,8.044-20.248,14.474-33.64,10.549-9.649-2.83-17.243-8.629-24.588-14.237a128.436,128.436,0,0,0-11.612-8.223c-7.112-4.279-16.442-9.464-25.53-11.595-4.73-1.113-8.524-1.17-11.594-.171-3.472,1.128-4.8,3.446-6.088,5.689-2.128,3.709-4.135,7.214-15.827,5.107-11.189-2.015-21.381-9.475-27.263-19.954A47.906,47.906,0,0,1,0,82.545v2.231a48.282,48.282,0,0,0,3.342,7.372c5.974,10.646,16.351,18.228,27.759,20.282,12.248,2.207,14.476-1.675,16.628-5.429,1.284-2.239,2.5-4.352,5.705-5.4,2.921-.95,6.56-.886,11.131.19,8.981,2.105,18.24,7.254,25.3,11.5a128.118,128.118,0,0,1,11.549,8.178c7.4,5.65,15.046,11.49,24.834,14.36,13.889,4.071,27.862-2.343,34.484-10.783a14.43,14.43,0,0,0,2.187-3.856,18.838,18.838,0,0,0,1.039-6.159c.119-2.495.222-4.65,1.969-6.919,1.5-1.944,3.993-3.519,8.342-5.265,1.484-.6,3.007-1.149,4.62-1.736,5.1-1.852,10.37-3.768,14-6.981,3.111-2.754,4.971-6.28,5.857-11.1a55.627,55.627,0,0,0,.495-10.629l-.012-.774c-.178-11.118,2.955-18.539,9.313-22.058,11.15-6.167,25.689,3.65,29.879,6.807,11.632,8.764,19.367,10.694,37.176-.059,1.208-.729,2.43-1.528,3.633-2.372,14.071-9.88,27.973-13.43,46.485-11.873,2.792.235,5.917.627,9.554,1.2,4.178.661,8.286,1.477,12.258,2.265,11.628,2.308,22.61,4.488,35.178,3.081,8.716-.975,15.15-4.415,21.382-7.744,2.566-1.371,5.22-2.789,8.022-4.034,17.416-7.745,39.861-13.134,55.229-16.514l2.284-.5A126.814,126.814,0,0,0,485.3,15.75c.311-.113.614-.228.915-.342a100.726,100.726,0,0,0,13.466-6.521l1.48-.814a92.271,92.271,0,0,1,13.458-5.888c1.466-.522,2.973-1.034,4.514-1.554Z" transform="translate(0 144.006)" fill="#F47920" opacity="0.7" style="mix-blend-mode: screen;isolation: isolate"/>
        <path id="Path_28425" data-name="Path 28425" d="M6.408,4.451a20.675,20.675,0,0,0,10.049,2,17.275,17.275,0,0,0,1.753-.2A11.691,11.691,0,0,0,23.7,3.92a15.131,15.131,0,0,0,3-3.651L26.874,0h-.812a14.435,14.435,0,0,1-2.869,3.51A11.906,11.906,0,0,1,16.4,5.869,19.817,19.817,0,0,1,6.771,3.95,25.178,25.178,0,0,1,.982,0H0A26.147,26.147,0,0,0,6.408,4.451Z" transform="translate(280.276)" fill="#F47920" opacity="0.7" style="mix-blend-mode: screen;isolation: isolate"/>
        <path id="Path_28426" data-name="Path 28426" d="M5.311,31.007l.008-.083a30.78,30.78,0,0,0,.01-8A164.521,164.521,0,0,0,0,0V2.331A177.728,177.728,0,0,1,4.622,23a30.462,30.462,0,0,1-.016,7.879l-.007.083A123.794,123.794,0,0,1,2.037,45.484c-.713,3.3-1.448,6.71-2.037,10.2v5.045c.6-5.211,1.694-10.3,2.74-15.141A123.967,123.967,0,0,0,5.311,31.007Z" transform="translate(0 143.6)" fill="#F47920" opacity="0.7" style="mix-blend-mode: screen;isolation: isolate"/>
        <path id="Path_28427" data-name="Path 28427" d="M0,59.915a20.218,20.218,0,0,0,2.869-2.46C9.7,50.326,7.534,41.592,5.439,33.145,3.5,25.327,1.492,17.242,6.686,10.5c3.73-4.843,10.382-8.335,18.35-9.574C30.426.084,36.052.513,42.007.969c5.526.422,11.238.859,16.72.174A44.977,44.977,0,0,0,64.715,0h-2.6c-1.122.228-2.284.42-3.492.566-5.4.674-11.065.241-16.546-.177C40.172.243,38.25.1,36.329,0H28.222C27.1.078,25.99.185,24.9.355,16.817,1.618,9.917,5.212,6.08,10.191.735,17.13,2.77,25.331,4.739,33.262,6.8,41.578,8.937,50.178,2.306,57.1A19.466,19.466,0,0,1,0,59.133Z" fill="#F47920" opacity="0.7" style="mix-blend-mode: screen;isolation: isolate"/>
        <path id="Path_28428" data-name="Path 28428" d="M519.13,0c-3.931,1.48-8.111,2.778-12.276,4-4.762,1.4-9.4,2.784-13.734,4.279-5.531,1.906-10.321,3.339-16.016,4.792l-.911.231c-3.81.943-8.024,1.742-12.1,2.516-1.68.319-3.362.639-5.025.969A303.428,303.428,0,0,0,407.009,31.84c-2.474.992-4.876,2.078-7.2,3.128-6.593,2.98-12.807,5.794-20.93,6.855-12.288,1.607-23.078-.325-34.5-2.371-4.415-.79-8.978-1.607-13.665-2.213-3.659-.469-6.887-.767-9.868-.909-18.814-.892-32.97,3.564-47.334,14.9-1.166.921-2.351,1.786-3.52,2.571-17.014,11.408-26.371,7.651-37.692-3.267-7.9-7.616-20.765-14.7-31.041-9.591-8.975,4.459-10.046,14.9-9.364,22.876l.127,1.451a59.5,59.5,0,0,1,.325,10.231c-.443,4.933-2,8.568-4.9,11.437-3.279,3.243-8.284,5.315-13.123,7.318-1.733.717-3.525,1.459-5.177,2.233-2.976,1.4-6.616,3.4-8.371,6.489-1.593,2.811-1.274,5.543-.935,8.436a19.1,19.1,0,0,1-.062,6.9,12.209,12.209,0,0,1-1.782,4.006c-5.638,8.341-20.807,14.3-34.4,9.885-10.26-3.335-18-10-25.489-16.454-3.149-2.712-6.4-5.515-9.737-7.955-9.82-7.187-18.381-11.757-25.445-13.583-4.777-1.237-8.642-1.19-11.809.147-3.5,1.479-4.613,4.367-5.684,7.161-1.792,4.67-3.482,9.082-15.9,7.227-12.7-1.9-21.449-10.814-25.4-18.531A40.931,40.931,0,0,1,0,77.036v3.877a40.933,40.933,0,0,0,3.462,9.538c4.03,7.856,12.959,16.941,25.937,18.879,13.041,1.947,14.908-2.92,16.715-7.627,1.075-2.8,2.089-5.45,5.33-6.818,2.991-1.26,6.676-1.3,11.264-.108,6.966,1.8,15.439,6.328,25.183,13.46,3.313,2.424,6.413,5.094,9.7,7.922,7.541,6.5,15.338,13.211,25.744,16.595,13.945,4.532,29.506-1.586,35.29-10.145a12.732,12.732,0,0,0,1.859-4.177,19.494,19.494,0,0,0,.071-7.07c-.33-2.813-.64-5.469.872-8.137,1.3-2.3,3.8-4.218,8.08-6.227,1.635-.768,3.418-1.506,5.143-2.22,4.9-2.03,9.976-4.13,13.35-7.467,3-2.968,4.61-6.706,5.064-11.767a59.742,59.742,0,0,0-.325-10.316l-.127-1.448c-.667-7.814.356-18.032,9.023-22.338,9.894-4.919,22.411,2.029,30.126,9.469,11.617,11.2,21.225,15.053,38.691,3.341,1.184-.8,2.383-1.671,3.563-2.6,14.205-11.215,28.2-15.624,46.8-14.74,2.957.14,6.163.436,9.8.9,4.665.6,9.219,1.417,13.622,2.206,11.492,2.058,22.348,4,34.769,2.376,8.239-1.077,14.806-4.048,21.163-6.92,2.315-1.047,4.709-2.129,7.167-3.114a302.462,302.462,0,0,1,51.915-15.006c1.661-.33,3.341-.65,5.018-.968,4.086-.775,8.311-1.577,12.144-2.526l.916-.231c5.718-1.46,10.527-2.9,16.081-4.812,4.32-1.489,8.946-2.868,13.7-4.267,4.077-1.2,8.168-2.468,12.033-3.909Z" transform="translate(0 141.676)" fill="#F47920" opacity="0.7" style="mix-blend-mode: screen;isolation: isolate"/>
        <path id="Path_28429" data-name="Path 28429" d="M21.971,25.181A23.354,23.354,0,0,0,33.433,26.5c.178-.027.356-.054.532-.084a14.724,14.724,0,0,0,7.641-3.475,19.414,19.414,0,0,0,3.422-4.7,23.111,23.111,0,0,1,2.624-3.877c4.935-5.543,14.369-6.788,24.358-8.1,2.351-.31,4.783-.63,7.118-1.009A27.594,27.594,0,0,0,91.352,0H90.238A25.769,25.769,0,0,1,78.987,4.682c-2.324.377-4.748.7-7.093,1.005-9.69,1.278-19.714,2.6-24.821,8.334a23.624,23.624,0,0,0-2.691,3.971,18.746,18.746,0,0,1-3.314,4.568,14.2,14.2,0,0,1-7.759,3.368,22.8,22.8,0,0,1-11.034-1.274C16.668,22.5,11.6,18.214,7.212,11.907A63.932,63.932,0,0,1,.752,0H0A64.573,64.573,0,0,0,6.589,12.193C11.053,18.608,16.228,22.978,21.971,25.181Z" transform="translate(251.372)" fill="#F47920" opacity="0.7" style="mix-blend-mode: screen;isolation: isolate"/>
        <path id="Path_28430" data-name="Path 28430" d="M12.077,66.762A76.353,76.353,0,0,1,0,69.057v.59a77.489,77.489,0,0,0,12.325-2.338,23.589,23.589,0,0,0,10.409-5.825c7.212-7.382,3.974-16.7.842-25.7-2.842-8.177-5.781-16.631-1.246-23.9,2.9-4.64,8.453-8.176,15.649-9.957C44.054.416,51.01.424,57.733.431c3.614,0,7.354.008,10.913-.222.86-.054,1.71-.127,2.56-.209h-23A54.764,54.764,0,0,0,37.77,1.363C30.387,3.192,24.678,6.833,21.694,11.614c-4.664,7.474-1.685,16.04,1.2,24.324,3.224,9.275,6.27,18.036-.714,25.184A22.881,22.881,0,0,1,12.077,66.762Z" fill="#F47920" opacity="0.7" style="mix-blend-mode: screen;isolation: isolate"/>
        <path id="Path_28431" data-name="Path 28431" d="M519.13,18.188c-5.813,3.864-13.377,6.279-19.748,7.742-4.865,1.115-9.724,1.941-13.894,2.628-3.9.642-7.64,1.1-11.6,1.587-1.82.224-3.673.452-5.585.7l-.918.123c-5.324.7-10.959,1.457-16.4,2.405-18.629,3.256-36.735,9.284-48.733,13.533-1.793.635-3.561,1.289-5.322,1.942-7.072,2.619-13.747,5.1-21.78,6.313-12.17,1.848-22.867.116-34.193-1.717-4.812-.779-9.788-1.586-14.932-2.107-3.666-.371-6.977-.571-10.122-.611-18.993-.243-33.24,5.079-47.64,17.794-1.176,1.03-2.337,1.972-3.452,2.8-6.831,5.06-12.971,7.26-18.774,6.72-6.654-.618-13.123-4.863-20.355-13.36-7.484-8.793-20.169-17.3-31.307-12.316-10.694,4.756-9.929,17.812-9.1,23.2q.16,1.066.333,2.149a64.069,64.069,0,0,1,1.047,9.9c-.016,5.157-1.329,9-4.133,12.091-3.083,3.38-7.943,5.635-12.643,7.816-1.863.865-3.79,1.758-5.547,2.7-2.984,1.61-6.6,3.917-8.1,7.492-1.365,3.25-.6,6.41.2,9.754a21.475,21.475,0,0,1,.889,7.711,11.367,11.367,0,0,1-1.463,4.3c-5.37,9.283-22.46,13.764-35.162,9.221-10.952-3.918-18.847-11.607-26.482-19.042-2.519-2.454-5.124-4.99-7.771-7.317-5.27-4.63-15.571-12.811-25.355-15.57-4.774-1.349-8.819-1.192-12.019.464-3.527,1.826-4.412,5.259-5.266,8.58-1.45,5.624-2.819,10.932-16,9.4A30.279,30.279,0,0,1,4.251,108.121C-2.513,93.41,3.09,78.532,8.034,65.407c1.477-3.919,2.87-7.622,3.951-11.266a44.176,44.176,0,0,0,1.783-7.993c1.7-17.142-1.148-30.345-8.7-40.362A56.326,56.326,0,0,0,0,0V.944A54.521,54.521,0,0,1,4.461,6.091c7.468,9.908,10.28,23,8.595,40.01A43.131,43.131,0,0,1,11.29,54c-1.075,3.627-2.467,7.32-3.94,11.231C2.373,78.451-3.267,93.429,3.582,108.325A30.979,30.979,0,0,0,27.7,125.8c13.844,1.613,15.348-4.219,16.8-9.858.862-3.35,1.677-6.514,4.95-8.208,3.052-1.579,6.781-1.711,11.4-.405,10,2.819,20.86,11.719,25.065,15.415,2.637,2.317,5.235,4.847,7.747,7.295,7.688,7.487,15.638,15.23,26.745,19.2,13.027,4.659,30.57.04,36.094-9.505a11.879,11.879,0,0,0,1.528-4.494,21.824,21.824,0,0,0-.9-7.881c-.787-3.266-1.528-6.351-.227-9.454,1.118-2.66,3.53-4.879,7.821-7.194,1.737-.93,3.654-1.821,5.506-2.681,4.765-2.21,9.691-4.5,12.865-7.975,2.9-3.2,4.257-7.148,4.273-12.436a64.638,64.638,0,0,0-1.053-9.98q-.172-1.08-.334-2.146c-.807-5.274-1.571-18.037,8.737-22.621,10.72-4.8,23.063,3.542,30.378,12.136,7.359,8.645,13.987,12.968,20.862,13.606,6.015.557,12.341-1.689,19.335-6.868,1.129-.836,2.3-1.789,3.5-2.833,14.25-12.581,28.341-17.843,47.1-17.607,3.119.039,6.4.238,10.045.607,5.119.52,10.081,1.323,14.88,2.1,11.4,1.845,22.159,3.587,34.465,1.719,8.118-1.231,15.145-3.836,21.945-6.355,1.757-.651,3.521-1.3,5.311-1.939,11.97-4.241,30.031-10.252,48.6-13.5,5.407-.941,11.045-1.7,16.361-2.4l.918-.123c1.909-.25,3.759-.478,5.578-.7,3.968-.487,7.717-.948,11.635-1.592,4.181-.69,9.057-1.517,13.945-2.639,6.281-1.442,13.714-3.8,19.555-7.545Z" transform="translate(0 119.773)" fill="#F47920" opacity="0.7" style="mix-blend-mode: screen;isolation: isolate"/>
        <path id="Path_28432" data-name="Path 28432" d="M29.879,45.908a27.217,27.217,0,0,0,12.2.758,17.708,17.708,0,0,0,9.779-4.7,23.987,23.987,0,0,0,3.848-5.778,29.682,29.682,0,0,1,2.808-4.58c5.566-7.024,16.4-8.925,26.869-10.764,2.068-.362,4.208-.738,6.243-1.145,6.136-1.227,9.5-3.715,13.062-6.349a44.687,44.687,0,0,1,6.806-4.387c7.778-3.883,11.638-3.911,20.688-3C143.663,7.125,158.627,7.417,169.321,0h-1.149c-10.461,6.809-24.825,6.507-35.9,5.391-9.232-.93-13.176-.9-21.147,3.08a45.2,45.2,0,0,0-6.913,4.453c-3.493,2.584-6.794,5.023-12.753,6.215-2.024.405-4.159.78-6.222,1.142C74.616,22.144,63.639,24.069,57.913,31.3a30.11,30.11,0,0,0-2.864,4.665,23.543,23.543,0,0,1-3.75,5.645c-5.08,5.181-14.494,5.811-21.168,3.757C23.788,43.409,18.057,39.18,13.1,32.791,6.07,23.733,1.973,12.887.716,0H0C1.261,13,5.394,23.951,12.5,33.1,17.538,39.6,23.386,43.909,29.879,45.908Z" transform="translate(230.118)" fill="#F47920" opacity="0.7" style="mix-blend-mode: screen;isolation: isolate"/>
        <path id="Path_28433" data-name="Path 28433" d="M15.728,72.493A92.636,92.636,0,0,0,0,74.435v.586c4.723-1.2,10.17-1.57,15.787-1.947,10.16-.682,20.667-1.385,26.811-7.56,7.6-7.639,3.492-17.112-.857-27.142-3.7-8.521-7.516-17.331-3.766-25.119C41.43,6.079,50.136,1.647,63.906,0H59.793C48.051,2.027,40.514,6.386,37.31,13.039c-3.849,7.991.017,16.906,3.756,25.528,4.281,9.87,8.324,19.195.977,26.58C36.09,71.128,25.739,71.822,15.728,72.493Z" fill="#F47920" opacity="0.7" style="mix-blend-mode: screen;isolation: isolate"/>
        <path id="Path_28434" data-name="Path 28434" d="M513.423,8.009A22.588,22.588,0,0,1,519.13.871V0a24.023,24.023,0,0,0-6.376,7.8c-3.007,6.524-.732,13.545,1.468,20.337,2.079,6.418,4.229,13.055,1.91,19.247-3.288,8.78-14.376,13.585-23.812,15.191-.136.024-.273.047-.407.068-7.458,1.2-15.231,1.038-22.75.876-3.167-.069-6.442-.139-9.655-.106-19.849.2-37.116,5.6-53.816,10.817-10.925,3.414-22.223,6.946-34.27,9.063l-.347.06c-11.933,2.032-22.483.481-33.641-1.16-5.174-.76-10.525-1.547-16.094-1.966-24.63-1.858-41.528,4.044-58.321,20.371-7.083,6.885-14.065,10.145-20.75,9.694-7.891-.534-15.483-5.992-23.205-16.686-7.152-9.9-19.705-19.779-31.571-15.037s-9.766,19.212-8.838,23.532c.181.844.375,1.7.568,2.562,1.794,7.959,3.652,16.188-1.619,22.607-2.881,3.507-7.594,5.925-12.152,8.263-6.2,3.182-12.059,6.187-13.763,11.71-1.146,3.715.127,7.487,1.358,11.134.935,2.767,1.9,5.628,1.816,8.457-.141,4.815-3.36,9.036-9.059,11.883A37.115,37.115,0,0,1,117.791,180c-11.741-4.59-19.785-13.489-27.564-22.1-1.861-2.058-3.784-4.186-5.721-6.211-2.207-2.307-20.155-20.572-33.314-18.327a11.694,11.694,0,0,0-4.174,1.552c-3.546,2.166-4.209,6.118-4.85,9.94-1.1,6.557-2.138,12.753-16.1,11.633A25.929,25.929,0,0,1,4.381,140.808c-5.879-14.663,1.992-28.634,9.606-42.145,1.583-2.811,3.221-5.717,4.663-8.524,5.6-10.911,13.124-31.565.544-47.293-3.769-4.714-9.023-8.509-14.106-12.178C3.4,29.446,1.677,28.2,0,26.919v.791C1.528,28.868,3.081,30,4.614,31.105,9.661,34.748,14.879,38.517,18.6,43.164c12.4,15.5,4.942,35.945-.606,46.75-1.436,2.8-3,5.57-4.653,8.506-7.671,13.613-15.6,27.69-9.635,42.57,3.539,8.83,12.5,15.291,22.3,16.078,14.644,1.173,15.782-5.593,16.878-12.135.65-3.873,1.264-7.531,4.571-9.552,10.242-6.262,27.76,7.532,36.5,16.668,1.931,2.019,3.852,4.144,5.711,6.2,7.83,8.663,15.928,17.622,27.83,22.275,8.616,3.368,20.413,2.83,28.693-1.306,5.914-2.954,9.252-7.346,9.4-12.365.086-2.916-.893-5.819-1.841-8.626-1.261-3.739-2.454-7.272-1.353-10.837,1.634-5.3,7.374-8.241,13.45-11.359,4.622-2.371,9.4-4.823,12.365-8.432,5.432-6.616,3.549-14.963,1.729-23.037-.194-.86-.386-1.713-.568-2.556-.907-4.219-2.975-18.338,8.45-22.908s23.643,5.124,30.64,14.81c7.851,10.869,15.623,16.421,23.762,16.972,6.932.469,14.117-2.862,21.357-9.9,16.839-16.373,33.016-22.027,57.708-20.166,5.538.418,10.873,1.2,16.032,1.962,11.23,1.651,21.843,3.211,33.913,1.156l.352-.061c12.1-2.126,23.424-5.665,34.375-9.089,16.64-5.2,33.844-10.579,53.569-10.779,3.2-.032,6.467.038,9.628.107,7.557.162,15.371.33,22.907-.887,9.681-1.577,21.337-6.508,24.765-15.661,2.378-6.351.2-13.069-1.9-19.566C512.742,21.289,510.5,14.359,513.423,8.009Z" transform="translate(0 83.078)" fill="#F47920" opacity="0.7" style="mix-blend-mode: screen;isolation: isolate"/>
      </g>
      <g id="Group_36398" data-name="Group 36398" style="mix-blend-mode: screen;isolation: isolate">
        <g id="Group_36396" data-name="Group 36396" transform="translate(0 209.875)">
          <path id="Path_28435" data-name="Path 28435" d="M262.7,0c-3.886,1.094-7.937,2.186-12.1,3.306-20.305,5.461-43.319,11.65-57.4,21.616-4.306,3.048-7.68,6.94-10.942,10.705-6.644,7.664-12.916,14.907-26.262,14.774-15.672-.154-29.9-6.887-43.657-13.4l-3.254-1.537c-14.651-6.885-31.9-13.528-48.813-10.648l-.14.024C45.977,27.3,43.712,33.767,41.314,40.617c-1.372,3.92-2.792,7.973-6.537,11.574-3.253,3.128-8.249,4.747-13.08,6.313-5.853,1.9-11.905,3.859-15.23,8.51A93.5,93.5,0,0,0,.318,77.4C.212,77.6.105,77.8,0,78H1.56l.068-.129A92.42,92.42,0,0,1,7.7,67.6c3.076-4.3,8.635-6.106,14.522-8.014,4.994-1.619,10.159-3.292,13.642-6.642,3.944-3.792,5.407-7.969,6.822-12.008,2.376-6.785,4.428-12.646,17.738-14.955,16.533-2.833,33.484,3.7,47.941,10.495l3.251,1.534c13.917,6.586,28.309,13.4,44.357,13.555,14.091.136,20.881-7.694,27.446-15.267,3.213-3.709,6.537-7.542,10.712-10.5C208,15.988,230.869,9.839,251.047,4.413c4-1.077,7.9-2.127,11.652-3.18Z" transform="translate(256.43)" fill="#F47920"/>
          <path id="Path_28436" data-name="Path 28436" d="M23.02,24.048H25.11A108.211,108.211,0,0,1,0,0V2.022A111.361,111.361,0,0,0,23.02,24.048Z" transform="translate(0 53.95)" fill="#F47920"/>
        </g>
        <g id="Group_36397" data-name="Group 36397">
          <path id="Path_28437" data-name="Path 28437" d="M30.111,46.181a27.659,27.659,0,0,0,12.4.769,18.076,18.076,0,0,0,9.983-4.8,24.127,24.127,0,0,0,3.9-5.843,29.469,29.469,0,0,1,2.781-4.538c5.485-6.922,16.241-8.811,26.644-10.637,2.118-.372,4.216-.741,6.252-1.147,6.225-1.244,9.621-3.757,13.219-6.416a44.364,44.364,0,0,1,6.752-4.355c7.679-3.834,11.5-3.86,20.456-2.958C144.175,7.434,159.426,7.716,170.23,0h-2.106c-7.958,5.117-19.428,6.715-35.453,5.1-9.136-.92-13.346-.889-21.378,3.121a45.485,45.485,0,0,0-6.966,4.485c-3.459,2.558-6.726,4.973-12.6,6.148-2.023.4-4.108.77-6.212,1.139-10.686,1.876-21.736,3.816-27.544,11.144a30.316,30.316,0,0,0-2.891,4.707,23.008,23.008,0,0,1-3.7,5.579c-4.972,5.072-14.21,5.684-20.763,3.666-6.27-1.93-11.94-6.121-16.855-12.456C6.767,23.623,2.689,12.829,1.433,0H0C1.264,13.061,5.416,24.061,12.553,33.258,17.638,39.811,23.545,44.159,30.111,46.181Z" transform="translate(229.759)" fill="#F47920"/>
          <path id="Path_28438" data-name="Path 28438" d="M15.7,72.2A93.931,93.931,0,0,0,0,74.127v1.2c4.715-1.211,10.179-1.586,15.816-1.965,10.238-.685,20.82-1.4,27.06-7.666,7.726-7.767,3.585-17.314-.8-27.423C38.4,29.805,34.6,21.047,38.307,13.36,41.938,5.823,51.475,1.351,66.709,0H58.268C47.243,2.153,40.092,6.467,36.978,12.933c-3.9,8.092-.01,17.059,3.751,25.73,4.246,9.793,8.258,19.041,1.036,26.3C35.91,70.848,25.636,71.538,15.7,72.2Z" fill="#F47920"/>
        </g>
      </g>
    </g>
  </g>
</svg>
