<svg width="24" height="24" viewBox="0 0 24 24" fill="none" xmlns="http://www.w3.org/2000/svg">
<path d="M16.2855 9.03242V7.81494C16.2855 7.69874 16.243 7.58655 16.166 7.49952C16.089 7.41248 15.9828 7.35661 15.8675 7.34242L14.8602 7.21834L14.5456 6.45919L15.1692 5.65975C15.2407 5.56813 15.2761 5.45355 15.269 5.3376C15.2618 5.22164 15.2125 5.11231 15.1303 5.03018L13.2531 3.15292C13.1709 3.07075 13.0616 3.02143 12.9456 3.01427C12.8297 3.0071 12.7151 3.04257 12.6235 3.114L11.8268 3.7399L11.0658 3.42397L10.9417 2.41666C10.9273 2.30181 10.8715 2.19616 10.7847 2.11948C10.698 2.04279 10.5863 2.00032 10.4706 2H7.81494C7.69874 2.00002 7.58655 2.04254 7.49952 2.11954C7.41248 2.19653 7.35661 2.3027 7.34242 2.41803L7.21971 3.42397L6.45919 3.7399L5.65929 3.11583C5.56767 3.0444 5.45309 3.00893 5.33714 3.0161C5.22118 3.02327 5.11185 3.07258 5.02972 3.15475L3.15246 5.03201C3.07029 5.11414 3.02098 5.22347 3.01381 5.33943C3.00664 5.45538 3.04211 5.56996 3.11354 5.66158L3.7399 6.45919L3.42443 7.21971L2.41712 7.34379C2.30218 7.35816 2.19643 7.41393 2.11965 7.50065C2.04287 7.58738 2.00033 7.69911 2 7.81494V10.4706C2.00002 10.5868 2.04254 10.699 2.11954 10.786C2.19653 10.873 2.3027 10.9289 2.41803 10.9431L3.42535 11.0672L3.7399 11.8268L3.11583 12.6262C3.0444 12.7179 3.00893 12.8324 3.0161 12.9484C3.02327 13.0643 3.07258 13.1737 3.15475 13.2558L5.03201 15.1331C5.11414 15.2152 5.22347 15.2645 5.33943 15.2717C5.45538 15.2789 5.56996 15.2434 5.66158 15.172L6.45919 14.5456L7.22017 14.8606L7.34425 15.8679C7.35851 15.9829 7.41416 16.0887 7.5008 16.1656C7.58744 16.2424 7.69912 16.2851 7.81494 16.2855H9.03104C9.17976 17.4959 9.66553 18.6401 10.433 19.5878C11.2005 20.5354 12.2187 21.2484 13.3717 21.6454C14.5247 22.0424 15.7661 22.1075 16.9543 21.8333C18.1425 21.559 19.2298 20.9564 20.0921 20.0942C20.9545 19.232 21.5573 18.1449 21.8318 16.9567C22.1063 15.7686 22.0414 14.5272 21.6446 13.3741C21.2478 12.221 20.535 11.2026 19.5875 10.435C18.64 9.66735 17.4958 9.18136 16.2855 9.03242ZM8.13087 14.4696C8.12053 14.3861 8.08821 14.3067 8.03721 14.2397C7.98622 14.1727 7.91837 14.1204 7.84058 14.0882L6.56725 13.5607C6.48946 13.5286 6.40454 13.5176 6.32113 13.5289C6.23772 13.5403 6.15881 13.5735 6.09244 13.6253L5.40563 14.1606L4.1236 12.8785L4.65885 12.1917C4.71061 12.1253 4.74386 12.0464 4.7552 11.963C4.76654 11.8796 4.75557 11.7947 4.72341 11.7169L4.19777 10.4449C4.16554 10.3672 4.11326 10.2993 4.04626 10.2483C3.97926 10.1973 3.89993 10.165 3.81637 10.1547L2.95237 10.048V8.23755L3.81637 8.13087C3.89993 8.12053 3.97926 8.08821 4.04626 8.03721C4.11326 7.98622 4.16554 7.91837 4.19777 7.84058L4.72524 6.56725C4.7574 6.48946 4.76837 6.40454 4.75703 6.32113C4.74569 6.23772 4.71245 6.15881 4.66068 6.09244L4.12543 5.40563L5.40746 4.1236L6.09427 4.65885C6.16064 4.71061 6.23955 4.74386 6.32296 4.7552C6.40637 4.76654 6.49129 4.75557 6.56908 4.72341L7.84058 4.19777C7.91837 4.16554 7.98622 4.11326 8.03721 4.04626C8.08821 3.97926 8.12053 3.89993 8.13087 3.81637L8.23755 2.95283H10.048L10.1547 3.81683C10.165 3.90039 10.1973 3.97971 10.2483 4.04672C10.2993 4.11372 10.3672 4.166 10.4449 4.19823L11.7183 4.7257C11.7961 4.75786 11.881 4.76883 11.9644 4.75749C12.0478 4.74615 12.1267 4.7129 12.1931 4.66114L12.8799 4.12589L14.1619 5.40792L13.6267 6.09473C13.5748 6.16115 13.5415 6.24014 13.5302 6.32364C13.5188 6.40714 13.5299 6.49215 13.5621 6.56999L14.0878 7.84058C14.12 7.91837 14.1723 7.98622 14.2393 8.03721C14.3063 8.08821 14.3856 8.12053 14.4692 8.13087L15.3327 8.23755V8.98617C14.4321 9.00713 13.5458 9.21612 12.7306 9.59972C12.8269 8.84982 12.6861 8.0886 12.3281 7.4227C11.9701 6.75679 11.4127 6.21958 10.7341 5.88631C10.0554 5.55304 9.28956 5.44041 8.54371 5.56422C7.79787 5.68802 7.10944 6.04204 6.57487 6.57669C6.0403 7.11133 5.68638 7.79982 5.56269 8.54568C5.439 9.29154 5.55173 10.0574 5.8851 10.736C6.21847 11.4146 6.75577 11.9719 7.42172 12.3298C8.08768 12.6877 8.84892 12.8284 9.5988 12.732C9.21526 13.547 9.00628 14.4331 8.98526 15.3336H8.23755L8.13087 14.4696ZM10.3332 11.5296C9.76685 11.8122 9.11843 11.8842 8.50389 11.7325C7.88936 11.5809 7.34879 11.2157 6.97886 10.7021C6.60892 10.1885 6.43374 9.56003 6.48464 8.92912C6.53554 8.2982 6.8092 7.70597 7.25668 7.25831C7.70416 6.81066 8.29629 6.53677 8.92718 6.48563C9.55807 6.43449 10.1866 6.60943 10.7003 6.97917C11.2141 7.34891 11.5795 7.88934 11.7314 8.50382C11.8832 9.11829 11.8116 9.76675 11.5292 10.3332C11.0806 10.6786 10.6786 11.0806 10.3332 11.5292V11.5296ZM15.492 21.0474C14.3933 21.0474 13.3192 20.7216 12.4057 20.1111C11.4921 19.5007 10.7801 18.6331 10.3596 17.618C9.93911 16.6029 9.8291 15.4859 10.0435 14.4082C10.2578 13.3306 10.7869 12.3408 11.5638 11.5638C12.3408 10.7869 13.3306 10.2578 14.4082 10.0435C15.4859 9.8291 16.6029 9.93911 17.618 10.3596C18.6331 10.7801 19.5007 11.4921 20.1111 12.4057C20.7216 13.3192 21.0474 14.3933 21.0474 15.492C21.0457 16.9649 20.4598 18.3769 19.4184 19.4184C18.3769 20.4598 16.9649 21.0457 15.492 21.0474Z" fill="#339ad5" stroke="#178CFF" stroke-width="0.1"/>
<path d="M19.302 14.3813H18.5081V13.9051C18.5081 13.1053 18.1904 12.3381 17.6247 11.7725C17.0591 11.2069 16.292 10.8892 15.4921 10.8892C14.6922 10.8892 13.9251 11.2069 13.3595 11.7725C12.7939 12.3381 12.4761 13.1053 12.4761 13.9051V14.3813H11.6826C11.4723 14.3816 11.2706 14.4652 11.1218 14.614C10.9731 14.7628 10.8894 14.9644 10.8892 15.1748V16.8415C10.8894 17.0308 10.9647 17.2124 11.0986 17.3463C11.2325 17.4802 11.4141 17.5555 11.6034 17.5557H12.4766V17.7146C12.477 18.0934 12.6276 18.4565 12.8954 18.7244C13.1632 18.9922 13.5264 19.1428 13.9051 19.1432H16.1272C16.2535 19.1432 16.3746 19.093 16.4639 19.0037C16.5532 18.9144 16.6034 18.7933 16.6034 18.667C16.6034 18.5407 16.5532 18.4196 16.4639 18.3303C16.3746 18.241 16.2535 18.1908 16.1272 18.1908H13.9051C13.7789 18.1907 13.6578 18.1405 13.5686 18.0512C13.4793 17.9619 13.4291 17.8409 13.429 17.7146V13.9051C13.4249 13.6316 13.4752 13.36 13.5771 13.106C13.679 12.8521 13.8303 12.621 14.0223 12.4261C14.2143 12.2312 14.4432 12.0765 14.6955 11.9708C14.9479 11.8652 15.2188 11.8108 15.4923 11.8108C15.7659 11.8108 16.0368 11.8652 16.2892 11.9708C16.5415 12.0765 16.7704 12.2312 16.9624 12.4261C17.1544 12.621 17.3057 12.8521 17.4076 13.106C17.5095 13.36 17.5598 13.6316 17.5557 13.9051V17.0796C17.5557 17.2058 17.6059 17.327 17.6952 17.4163C17.7845 17.5056 17.9056 17.5557 18.0319 17.5557H19.3813C19.5706 17.5555 19.7522 17.4802 19.8861 17.3463C20.02 17.2124 20.0953 17.0308 20.0955 16.8415V15.1748C20.0953 14.9644 20.0116 14.7628 19.8629 14.614C19.7141 14.4652 19.5124 14.3816 19.302 14.3813ZM11.8415 15.3337H12.4766V16.6034H11.8415V15.3337ZM19.1432 16.6034H18.5081V15.3337H19.1432V16.6034Z" fill="#339ad5" stroke="#178CFF" stroke-width="0.1"/>
</svg>
