<svg width="24" height="24" viewBox="0 0 24 24" fill="none" xmlns="http://www.w3.org/2000/svg">
<path d="M21.8587 6.78434V18.0396C21.8582 18.4752 21.6849 18.8929 21.3769 19.201C21.0688 19.509 20.6511 19.6823 20.2155 19.6828H3.78458C3.34892 19.6823 2.93123 19.509 2.62317 19.201C2.31511 18.8929 2.14183 18.4752 2.14136 18.0396V13.1103C2.1445 13.0253 2.18048 12.9448 2.24174 12.8858C2.30301 12.8267 2.38478 12.7937 2.46987 12.7937C2.55495 12.7937 2.63673 12.8267 2.69799 12.8858C2.75926 12.9448 2.79524 13.0253 2.79838 13.1103V18.0396C2.7992 18.3003 2.90314 18.5501 3.08749 18.7344C3.27184 18.9188 3.52163 19.0227 3.78234 19.0235H20.2155C20.4762 19.0227 20.726 18.9188 20.9103 18.7344C21.0947 18.5501 21.1986 18.3003 21.1994 18.0396V6.78434C21.1986 6.52363 21.0947 6.27383 20.9103 6.08948C20.726 5.90513 20.4762 5.8012 20.2155 5.80037H3.78458C3.52387 5.8012 3.27407 5.90513 3.08972 6.08948C2.90537 6.27383 2.80144 6.52363 2.80061 6.78434V8.09882H19.6403C19.7253 8.10196 19.8058 8.13795 19.8649 8.19921C19.9239 8.26048 19.9569 8.34225 19.9569 8.42734C19.9569 8.51242 19.9239 8.5942 19.8649 8.65546C19.8058 8.71672 19.7253 8.75271 19.6403 8.75585H2.79838V10.8919H19.6403C19.6845 10.8903 19.7285 10.8976 19.7698 10.9134C19.811 10.9292 19.8487 10.9531 19.8805 10.9838C19.9124 11.0144 19.9377 11.0512 19.955 11.0919C19.9722 11.1325 19.9812 11.1763 19.9812 11.2205C19.9812 11.2646 19.9722 11.3084 19.955 11.3491C19.9377 11.3897 19.9124 11.4265 19.8805 11.4572C19.8487 11.4878 19.811 11.5118 19.7698 11.5275C19.7285 11.5433 19.6845 11.5506 19.6403 11.549H2.47009C2.38298 11.549 2.29944 11.5144 2.2378 11.4528C2.17616 11.3913 2.14148 11.3078 2.14136 11.2207V6.78434C2.14183 6.34867 2.31511 5.93099 2.62317 5.62293C2.93123 5.31487 3.34892 5.14159 3.78458 5.14111H20.2155C20.6511 5.14159 21.0688 5.31487 21.3769 5.62293C21.6849 5.93099 21.8582 6.34867 21.8587 6.78434ZM19.2297 15.3269C19.229 15.1352 19.1767 14.9472 19.0784 14.7826C18.98 14.618 18.8392 14.4828 18.6707 14.3914C18.5021 14.2999 18.3121 14.2554 18.1205 14.2627C17.9289 14.2699 17.7427 14.3285 17.5816 14.4324C17.8046 14.7985 17.8834 15.2346 17.8025 15.6555C17.7215 16.0765 17.4868 16.4523 17.1439 16.7097C16.8011 16.967 16.3747 17.0875 15.9478 17.0476C15.521 17.0077 15.1243 16.8103 14.8351 16.4939C14.5459 16.1774 14.3848 15.7647 14.3833 15.336C14.3818 14.9073 14.54 14.4934 14.827 14.175C15.1141 13.8566 15.5094 13.6564 15.9359 13.6136C16.3625 13.5707 16.7897 13.6882 17.1343 13.9431C17.3535 13.7806 17.6082 13.6723 17.8773 13.6273C18.1465 13.5823 18.4225 13.6018 18.6827 13.6841C18.9428 13.7665 19.1797 13.9094 19.3739 14.1012C19.5681 14.2929 19.7141 14.528 19.7998 14.7871C19.8854 15.0462 19.9084 15.3219 19.8668 15.5917C19.8252 15.8614 19.7203 16.1174 19.5605 16.3386C19.4007 16.5599 19.1908 16.7401 18.9478 16.8644C18.7049 16.9887 18.4359 17.0536 18.163 17.0538C18.078 17.0507 17.9975 17.0147 17.9384 16.9534C17.8794 16.8922 17.8464 16.8104 17.8464 16.7253C17.8464 16.6402 17.8794 16.5584 17.9384 16.4972C17.9975 16.4359 18.078 16.3999 18.163 16.3968C18.446 16.3961 18.7172 16.2832 18.9171 16.0829C19.1171 15.8827 19.2295 15.6113 19.2297 15.3283V15.3269ZM17.1759 15.3269C17.1759 15.1157 17.1133 14.9092 16.9959 14.7336C16.8786 14.5579 16.7117 14.421 16.5166 14.3402C16.3214 14.2594 16.1067 14.2382 15.8995 14.2794C15.6923 14.3206 15.502 14.4224 15.3526 14.5717C15.2033 14.7211 15.1015 14.9114 15.0603 15.1186C15.0191 15.3258 15.0403 15.5405 15.1211 15.7357C15.2019 15.9308 15.3388 16.0976 15.5145 16.215C15.6901 16.3324 15.8966 16.395 16.1079 16.395C16.3908 16.3946 16.662 16.2822 16.8622 16.0823C17.0624 15.8823 17.1752 15.6112 17.1759 15.3283V15.3269ZM5.13798 14.6301H7.8904C7.93456 14.6318 7.9786 14.6245 8.01988 14.6087C8.06116 14.5929 8.09883 14.569 8.13065 14.5383C8.16247 14.5076 8.18778 14.4709 8.20506 14.4302C8.22235 14.3895 8.23126 14.3458 8.23126 14.3016C8.23126 14.2574 8.22235 14.2137 8.20506 14.173C8.18778 14.1323 8.16247 14.0956 8.13065 14.0649C8.09883 14.0342 8.06116 14.0103 8.01988 13.9945C7.9786 13.9788 7.93456 13.9715 7.8904 13.9731H5.13798C5.09382 13.9715 5.04978 13.9788 5.00851 13.9945C4.96723 14.0103 4.92955 14.0342 4.89773 14.0649C4.86592 14.0956 4.84061 14.1323 4.82332 14.173C4.80603 14.2137 4.79712 14.2574 4.79712 14.3016C4.79712 14.3458 4.80603 14.3895 4.82332 14.4302C4.84061 14.4709 4.86592 14.5076 4.89773 14.5383C4.92955 14.569 4.96723 14.5929 5.00851 14.6087C5.04978 14.6245 5.09382 14.6318 5.13798 14.6301ZM5.13798 16.6839H7.8904C7.97543 16.6808 8.05593 16.6448 8.11498 16.5835C8.17402 16.5223 8.20701 16.4405 8.20701 16.3554C8.20701 16.2703 8.17402 16.1886 8.11498 16.1273C8.05593 16.066 7.97543 16.03 7.8904 16.0269H5.13798C5.05295 16.03 4.97245 16.066 4.91341 16.1273C4.85436 16.1886 4.82137 16.2703 4.82137 16.3554C4.82137 16.4405 4.85436 16.5223 4.91341 16.5835C4.97245 16.6448 5.05295 16.6808 5.13798 16.6839Z" fill="#339ad5" stroke="#339ad5" stroke-width="0.1"/>
<path d="M3.78456 5H20.2154C20.6886 5.00047 21.1422 5.18864 21.4768 5.52321C21.8114 5.85777 21.9995 6.31141 22 6.78456V18.0375C21.9995 18.5107 21.8114 18.9643 21.4768 19.2989C21.1422 19.6335 20.6886 19.8216 20.2154 19.8221H3.78456C3.31141 19.8216 2.85777 19.6335 2.52321 19.2989C2.18864 18.9643 2.00047 18.5107 2 18.0375V13.1101C2.00528 12.9891 2.05707 12.8748 2.14456 12.7911C2.23205 12.7073 2.3485 12.6605 2.46962 12.6605C2.59074 12.6605 2.70719 12.7073 2.79468 12.7911C2.88217 12.8748 2.93396 12.9891 2.93924 13.1101V18.0375C2.93912 18.1487 2.9609 18.2587 3.00332 18.3614C3.04574 18.4641 3.10798 18.5574 3.18648 18.636C3.26498 18.7146 3.35821 18.777 3.46083 18.8196C3.56345 18.8622 3.67345 18.8841 3.78456 18.8842H20.2154C20.4397 18.8838 20.6546 18.7945 20.8129 18.6357C20.9713 18.4769 21.0601 18.2618 21.0599 18.0375V6.78456C21.0595 6.56071 20.9704 6.34614 20.8121 6.18785C20.6539 6.02957 20.4393 5.94049 20.2154 5.94013H3.78456C3.56063 5.94037 3.34594 6.0294 3.18756 6.18769C3.02918 6.34599 2.94004 6.56063 2.93969 6.78456V7.95771H19.6403C19.7613 7.96299 19.8756 8.01478 19.9593 8.10227C20.0431 8.18977 20.0898 8.30621 20.0898 8.42733C20.0898 8.54845 20.0431 8.6649 19.9593 8.75239C19.8756 8.83988 19.7613 8.89167 19.6403 8.89695H2.93969V10.7504H19.6403C19.7613 10.7557 19.8756 10.8075 19.9593 10.8949C20.0431 10.9824 20.0898 11.0989 20.0898 11.22C20.0898 11.3411 20.0431 11.4576 19.9593 11.5451C19.8756 11.6326 19.7613 11.6843 19.6403 11.6896H2.46962C2.3453 11.6894 2.22612 11.64 2.13812 11.5521C2.05013 11.4643 2.00047 11.3452 2 11.2209V6.78456C2.00047 6.31141 2.18864 5.85777 2.52321 5.52321C2.85777 5.18864 3.31141 5.00047 3.78456 5ZM20.2154 19.5417C20.614 19.5412 20.9961 19.3825 21.2777 19.1005C21.5593 18.8184 21.7175 18.4361 21.7173 18.0375V6.78456C21.7169 6.38637 21.5585 6.00464 21.2769 5.72308C20.9954 5.44153 20.6136 5.28314 20.2154 5.28267H3.78456C3.38638 5.28314 3.00464 5.44153 2.72308 5.72308C2.44153 6.00464 2.28314 6.38637 2.28267 6.78456V11.2209C2.28267 11.2706 2.30241 11.3183 2.33755 11.3534C2.3727 11.3886 2.42037 11.4083 2.47007 11.4083H19.6403C19.69 11.4083 19.7376 11.3886 19.7728 11.3534C19.8079 11.3183 19.8277 11.2706 19.8277 11.2209C19.8277 11.1712 19.8079 11.1235 19.7728 11.0884C19.7376 11.0532 19.69 11.0335 19.6403 11.0335H2.65702V8.61473H19.6403C19.69 8.61473 19.7376 8.59499 19.7728 8.55984C19.8079 8.5247 19.8277 8.47703 19.8277 8.42733C19.8277 8.37763 19.8079 8.32996 19.7728 8.29482C19.7376 8.25968 19.69 8.23993 19.6403 8.23993H2.65702V6.78456C2.65738 6.48574 2.77624 6.19927 2.98753 5.98798C3.19882 5.77668 3.4853 5.65782 3.78411 5.65747H20.2154C20.5143 5.65782 20.8007 5.77668 21.012 5.98798C21.2233 6.19927 21.3422 6.48574 21.3425 6.78456V18.0375C21.3422 18.3364 21.2233 18.6228 21.012 18.8341C20.8007 19.0454 20.5143 19.1643 20.2154 19.1646H3.78456C3.48574 19.1643 3.19927 19.0454 2.98798 18.8341C2.77668 18.6228 2.65782 18.3364 2.65747 18.0375V13.1101C2.65747 13.0604 2.63772 13.0127 2.60258 12.9776C2.56744 12.9425 2.51977 12.9227 2.47007 12.9227C2.42037 12.9227 2.3727 12.9425 2.33755 12.9776C2.30241 13.0127 2.28267 13.0604 2.28267 13.1101V18.0375C2.28255 18.4361 2.44067 18.8184 2.72229 19.1005C3.00391 19.3825 3.38599 19.5412 3.78456 19.5417H20.2154ZM16.1177 13.459C16.4799 13.4593 16.8339 13.5671 17.1347 13.7689C17.436 13.5674 17.7902 13.4597 18.1527 13.4594C18.6361 13.4621 19.1005 13.6478 19.4524 13.9791C19.6359 14.1521 19.7816 14.3611 19.8807 14.5929C19.9797 14.8248 20.0299 15.0746 20.028 15.3267C20.0275 15.8215 19.8306 16.2959 19.4807 16.6458C19.1308 16.9957 18.6565 17.1925 18.1616 17.1931C18.0406 17.1878 17.9263 17.1361 17.8426 17.0486C17.7588 16.9611 17.7121 16.8446 17.7121 16.7235C17.7121 16.6024 17.7588 16.4859 17.8426 16.3984C17.9263 16.311 18.0406 16.2592 18.1616 16.2539C18.2834 16.2536 18.4039 16.2294 18.5163 16.1825C18.6287 16.1357 18.7307 16.0672 18.8167 15.9809C18.9026 15.8946 18.9706 15.7923 19.017 15.6797C19.0633 15.5671 19.0871 15.4465 19.0868 15.3247C19.0865 15.2029 19.0623 15.0824 19.0154 14.9701C18.9686 14.8577 18.9001 14.7556 18.8138 14.6697C18.7275 14.5838 18.6252 14.5157 18.5126 14.4694C18.4 14.423 18.2794 14.3993 18.1576 14.3996C18.025 14.3998 17.894 14.4291 17.7739 14.4854C17.9169 14.7701 17.9847 15.0865 17.9711 15.4048C17.9574 15.7231 17.8626 16.0325 17.6957 16.3039C17.5287 16.5752 17.2953 16.7993 17.0174 16.955C16.7395 17.1108 16.4264 17.1929 16.1078 17.1936C15.613 17.193 15.1386 16.9962 14.7887 16.6463C14.4389 16.2964 14.242 15.822 14.2414 15.3272C14.2396 15.0748 14.2898 14.8248 14.389 14.5928C14.4882 14.3608 14.6342 14.1517 14.8179 13.9787C15.1703 13.6482 15.6346 13.4631 16.1177 13.4608V13.459ZM17.1347 14.1173L17.0502 14.057C16.7813 13.8544 16.4539 13.7445 16.1172 13.7439C15.7061 13.7464 15.3111 13.9044 15.0116 14.1862C14.856 14.333 14.7324 14.5102 14.6484 14.7069C14.5645 14.9036 14.522 15.1155 14.5236 15.3294C14.5241 15.7494 14.6912 16.1521 14.9882 16.4491C15.2852 16.7461 15.6878 16.9131 16.1078 16.9136C16.3891 16.9133 16.6652 16.8382 16.9078 16.696C17.1504 16.5538 17.3509 16.3496 17.4886 16.1044C17.6263 15.8592 17.6963 15.5817 17.6914 15.3005C17.6865 15.0193 17.6069 14.7445 17.4608 14.5042L17.3892 14.3866L17.5051 14.3119C17.6992 14.1853 17.9258 14.1176 18.1576 14.1169C18.4784 14.1164 18.7863 14.2433 19.0135 14.4698C19.2407 14.6962 19.3687 15.0037 19.3692 15.3245C19.3698 15.6453 19.2428 15.9532 19.0164 16.1804C18.7899 16.4076 18.4824 16.5356 18.1616 16.5361C18.1119 16.5361 18.0643 16.5558 18.0291 16.591C17.994 16.6261 17.9742 16.6738 17.9742 16.7235C17.9742 16.7732 17.994 16.8209 18.0291 16.856C18.0643 16.8912 18.1119 16.9109 18.1616 16.9109C18.5816 16.9104 18.9843 16.7434 19.2813 16.4464C19.5783 16.1494 19.7453 15.7467 19.7458 15.3267C19.7474 15.113 19.7049 14.9013 19.621 14.7048C19.5371 14.5083 19.4137 14.3311 19.2583 14.1844C18.959 13.9025 18.5639 13.7444 18.1527 13.7421C17.8158 13.7431 17.4882 13.8529 17.2188 14.0552L17.1347 14.1173ZM5.13975 13.8333H7.89217C7.95556 13.8306 8.01886 13.8407 8.07825 13.863C8.13764 13.8854 8.19189 13.9195 8.23773 13.9634C8.28356 14.0073 8.32004 14.06 8.34496 14.1183C8.36989 14.1767 8.38273 14.2395 8.38273 14.3029C8.38273 14.3664 8.36989 14.4292 8.34496 14.4876C8.32004 14.5459 8.28356 14.5986 8.23773 14.6425C8.19189 14.6864 8.13764 14.7205 8.07825 14.7429C8.01886 14.7652 7.95556 14.7753 7.89217 14.7726H5.13975C5.07635 14.7753 5.01305 14.7652 4.95366 14.7429C4.89427 14.7205 4.84002 14.6864 4.79419 14.6425C4.74835 14.5986 4.71187 14.5459 4.68695 14.4876C4.66203 14.4292 4.64918 14.3664 4.64918 14.3029C4.64918 14.2395 4.66203 14.1767 4.68695 14.1183C4.71187 14.06 4.74835 14.0073 4.79419 13.9634C4.84002 13.9195 4.89427 13.8854 4.95366 13.863C5.01305 13.8407 5.07635 13.8306 5.13975 13.8333ZM7.89217 14.4904C7.91678 14.4904 7.94114 14.4855 7.96388 14.4761C7.98662 14.4667 8.00728 14.4529 8.02468 14.4355C8.04208 14.4181 8.05588 14.3974 8.0653 14.3747C8.07472 14.3519 8.07957 14.3276 8.07957 14.3029C8.07957 14.2783 8.07472 14.254 8.0653 14.2312C8.05588 14.2085 8.04208 14.1878 8.02468 14.1704C8.00728 14.153 7.98662 14.1392 7.96388 14.1298C7.94114 14.1204 7.91678 14.1155 7.89217 14.1155H5.13975C5.11514 14.1155 5.09077 14.1204 5.06803 14.1298C5.04529 14.1392 5.02463 14.153 5.00723 14.1704C4.98983 14.1878 4.97603 14.2085 4.96661 14.2312C4.95719 14.254 4.95234 14.2783 4.95234 14.3029C4.95234 14.3276 4.95719 14.3519 4.96661 14.3747C4.97603 14.3974 4.98983 14.4181 5.00723 14.4355C5.02463 14.4529 5.04529 14.4667 5.06803 14.4761C5.09077 14.4855 5.11514 14.4904 5.13975 14.4904H7.89217ZM16.1078 14.1205C16.3467 14.1205 16.5801 14.1913 16.7787 14.324C16.9773 14.4567 17.1321 14.6453 17.2235 14.8659C17.3149 15.0866 17.3388 15.3294 17.2922 15.5637C17.2456 15.7979 17.1306 16.0131 16.9617 16.182C16.7928 16.3508 16.5777 16.4659 16.3434 16.5125C16.1092 16.559 15.8664 16.5351 15.6457 16.4437C15.425 16.3523 15.2364 16.1976 15.1038 15.999C14.9711 15.8004 14.9002 15.5669 14.9002 15.3281C14.9007 15.0078 15.028 14.7008 15.2544 14.4742C15.4807 14.2476 15.7876 14.12 16.1078 14.1191V14.1205ZM16.1078 16.2566C16.2911 16.2566 16.4703 16.2022 16.6227 16.1004C16.7751 15.9986 16.8939 15.8538 16.964 15.6845C17.0341 15.5152 17.0525 15.3288 17.0167 15.1491C16.981 14.9693 16.8927 14.8042 16.7631 14.6746C16.6335 14.545 16.4684 14.4567 16.2886 14.4209C16.1089 14.3852 15.9225 14.4035 15.7532 14.4737C15.5839 14.5438 15.4391 14.6626 15.3373 14.815C15.2355 14.9674 15.1811 15.1466 15.1811 15.3299C15.1817 15.5753 15.2796 15.8106 15.4533 15.984C15.627 16.1575 15.8624 16.255 16.1078 16.2552V16.2566ZM5.13975 15.8858H7.89217C8.01317 15.8911 8.12747 15.9429 8.21122 16.0304C8.29498 16.1178 8.34173 16.2343 8.34173 16.3554C8.34173 16.4765 8.29498 16.593 8.21122 16.6805C8.12747 16.768 8.01317 16.8197 7.89217 16.825H5.13975C5.01874 16.8197 4.90444 16.768 4.82069 16.6805C4.73693 16.593 4.69018 16.4765 4.69018 16.3554C4.69018 16.2343 4.73693 16.1178 4.82069 16.0304C4.90444 15.9429 5.01874 15.8911 5.13975 15.8858ZM7.89217 16.5433C7.94187 16.5433 7.98953 16.5235 8.02468 16.4884C8.05982 16.4532 8.07957 16.4056 8.07957 16.3559C8.07957 16.3062 8.05982 16.2585 8.02468 16.2233C7.98953 16.1882 7.94187 16.1685 7.89217 16.1685H5.13975C5.09004 16.1685 5.04238 16.1882 5.00723 16.2233C4.97209 16.2585 4.95234 16.3062 4.95234 16.3559C4.95234 16.4056 4.97209 16.4532 5.00723 16.4884C5.04238 16.5235 5.09004 16.5433 5.13975 16.5433H7.89217Z" fill="#339ad5" stroke="#339ad5" stroke-width="0.1"/>
</svg>
