<svg width="24" height="24" viewBox="0 0 24 24" fill="none" xmlns="http://www.w3.org/2000/svg">
<path d="M20.8235 7.2549H8.41298C8.16686 6.52627 7.47729 6 6.66667 6H3.17647C2.52776 6 2 6.52776 2 7.17647V14.1569C2 14.8056 2.52776 15.3333 3.17647 15.3333H4.82353V16.6667C4.82353 17.3154 5.35129 17.8431 6 17.8431H20.8235C21.4722 17.8431 22 17.3154 22 16.6667V8.43137C22 7.78267 21.4722 7.2549 20.8235 7.2549ZM7.13816 16.4715C6.89267 16.717 6.68071 16.6667 6 16.6667V15.3333H6.64157C7.24969 15.3333 7.56286 16.0468 7.13816 16.4715ZM7.33333 14.2901C6.88808 14.1124 6.97686 14.1569 3.17647 14.1569C3.17647 13.2516 3.17647 7.97145 3.17647 7.17647H6.66667C7.03427 7.17647 7.33333 7.47553 7.33333 7.84314V14.2901ZM20.8235 16.6667H8.38608C8.55024 16.2427 8.5098 16.5773 8.5098 8.43137H20.8235V16.6667Z" fill="#339ad5" stroke="white" stroke-width="0.2"/>
<path d="M10.7452 11.8825H18.5884C18.9132 11.8825 19.1766 11.6192 19.1766 11.2943C19.1766 10.9694 18.9132 10.7061 18.5884 10.7061H10.7452C10.4204 10.7061 10.157 10.9694 10.157 11.2943C10.157 11.6192 10.4204 11.8825 10.7452 11.8825Z" fill="#339ad5" stroke="white" stroke-width="0.2"/>
<path d="M10.7452 14.3923H18.5884C18.9132 14.3923 19.1766 14.1289 19.1766 13.8041C19.1766 13.4792 18.9132 13.2158 18.5884 13.2158H10.7452C10.4204 13.2158 10.157 13.4792 10.157 13.8041C10.157 14.1289 10.4204 14.3923 10.7452 14.3923Z" fill="#339ad5" stroke="white" stroke-width="0.2"/>
</svg>
