<svg width="24" height="24" viewBox="0 0 24 24" fill="none" xmlns="http://www.w3.org/2000/svg">
<path fill-rule="evenodd" clip-rule="evenodd" d="M12.0193 2.26958L11.7497 2.53924L11.7423 3.95361C11.7383 4.73159 11.7305 5.43006 11.725 5.50583C11.717 5.61597 11.4548 5.75465 10.42 6.19624C9.10326 6.75819 8.90249 6.89687 8.90249 7.24444C8.90249 7.3702 10.0575 10.1175 10.1532 10.2193C10.2207 10.2912 10.708 10.1416 10.708 10.049C10.708 10.0132 10.4437 9.36846 10.1207 8.61638C9.79756 7.86423 9.53978 7.2461 9.54777 7.24277C9.55569 7.23944 10.0153 7.04249 10.5692 6.80506C11.123 6.56763 11.6152 6.37374 11.6629 6.37423C11.73 6.37478 11.7497 6.76958 11.7497 8.11423V9.85353L12.0101 9.80652C12.1534 9.78068 12.294 9.74617 12.3226 9.72985C12.3512 9.71346 12.3747 8.12568 12.3747 6.20138C12.3747 3.88743 12.3988 2.68778 12.4459 2.65868C12.485 2.63444 13.8522 2.61764 15.4841 2.62132C18.1778 2.62736 18.4591 2.63868 18.5384 2.74472C18.6068 2.83597 18.6219 3.71868 18.6079 6.78833L18.59 10.7153L17.7365 10.7348L16.883 10.7543L17.106 11.0646L17.3288 11.375H18.6338C19.8964 11.375 19.9436 11.3801 20.0885 11.5312C20.2762 11.7271 20.4303 12.0795 20.4303 12.313C20.4303 12.5439 20.2151 12.9611 19.9856 13.1753C19.8864 13.2679 19.8053 13.3966 19.8053 13.4612C19.8053 13.5259 19.941 13.7812 20.1069 14.0287C20.6582 14.8507 20.6001 15.3121 19.8521 16.0545L19.3704 16.5326L19.4835 17.0014C19.7114 17.9457 19.3505 18.5732 18.3296 19.0075C17.9519 19.1682 17.9071 19.3253 18.1397 19.6736C18.2162 19.7882 18.3115 20.0012 18.3515 20.147C18.4514 20.5113 18.2512 20.9232 17.8454 21.1882L17.5483 21.382L16.4372 21.3611C15.1682 21.3373 14.9827 21.282 14.7801 20.8672C14.6651 20.6316 14.6612 20.575 14.7455 20.3538C14.9002 19.9473 15.143 19.817 15.7996 19.7881C16.4118 19.7612 16.5414 19.7057 16.5414 19.4707C16.5414 19.215 16.4066 19.1528 15.8504 19.1517C15.562 19.1512 15.251 19.1121 15.1591 19.0649C14.7629 18.8613 14.6048 18.3814 14.8086 18.0007C14.9737 17.6923 15.2065 17.625 16.108 17.625C17.0418 17.625 17.1925 17.5695 17.155 17.2396L17.1316 17.0347L16.2289 17.014C15.7323 17.0026 15.2227 17.0122 15.0962 17.0353C14.8428 17.0816 14.361 17.4792 14.2198 17.7587C13.9785 18.2359 14.0748 18.9643 14.4225 19.2908C14.595 19.453 14.5957 19.4577 14.4666 19.5993C14.3089 19.772 14.1469 20.0902 14.0851 20.3486C14.0441 20.5193 14.0832 20.7747 14.2184 21.2187L14.2659 21.375H12.6213C11.5176 21.375 10.9268 21.3487 10.825 21.2952C10.7099 21.2347 9.76728 20.4349 9.52749 20.1943C9.01964 19.6848 8.51326 19.5 7.62444 19.5H7.02749V16.2014V12.9028H7.43312C7.93756 12.9028 8.39048 12.7699 8.81701 12.4969C10.2658 11.5694 11.9644 11.0721 13.6941 11.0687C14.9572 11.0662 15.4716 11.1716 15.8143 11.5027C16.3139 11.9855 16.8156 12.9457 17.1939 14.1431C17.358 14.6625 17.3655 14.7348 17.2776 14.9451C17.0956 15.3808 16.6364 15.5273 16.1849 15.2938C15.9187 15.1562 15.2346 14.5293 14.7283 13.9592L14.3389 13.5207L14.4501 13.2115C14.5796 12.8514 14.5128 12.6722 14.2368 12.6388C14.0304 12.6139 13.9657 12.6893 13.8017 13.1458C13.5441 13.8631 12.9842 14.5363 12.3952 14.8367C12.2462 14.9128 11.9227 15.0155 11.6765 15.065C11.1983 15.1612 11.1274 15.2111 11.1258 15.4524C11.1219 16.0103 12.5814 15.63 13.4336 14.8511C13.6361 14.6661 13.8456 14.4327 13.8992 14.3325L13.9968 14.1502L14.7689 14.9121C15.6253 15.7569 16.072 16.027 16.6108 16.0255C17.2473 16.0238 17.7616 15.6235 17.9273 15.0006C18.0221 14.6446 17.8949 14.1075 17.4607 13.0299C17.0985 12.1309 16.7978 11.638 16.2983 11.1239C15.9063 10.7206 15.8508 10.6883 15.3608 10.5789C13.3655 10.1333 10.6702 10.6251 8.81638 11.7733C7.9877 12.2865 8.0459 12.2778 5.47014 12.2778C3.7709 12.2778 3.14452 12.2996 3.08306 12.3611C3.02021 12.4239 2.99979 13.4171 3 16.4062C3.00021 20.2131 3.00556 20.3767 3.13583 20.5903C3.3884 21.0046 3.54285 21.0382 5.0825 21.0144C6.65576 20.99 6.76472 20.9551 6.9559 20.4138L7.05791 20.125L7.61562 20.1303C7.92235 20.1332 8.28965 20.1723 8.4318 20.2171C8.58833 20.2665 9.04784 20.6087 9.59749 21.0854C10.0979 21.5193 10.6046 21.9009 10.7274 21.9361C10.8499 21.9712 12.4592 22 14.3036 22C18.008 22 17.8937 22.0125 18.4072 21.5486C18.9857 21.0259 19.1359 20.5389 18.9177 19.8925L18.7853 19.5005L19.0868 19.3238C19.4019 19.1391 19.8543 18.6926 19.9871 18.4352C20.1648 18.0907 20.2336 17.5807 20.1578 17.1706L20.0837 16.7696L20.4345 16.3987C21.1508 15.6413 21.2763 14.8812 20.829 14.0094L20.5767 13.5176L20.788 13.1743C21.2086 12.4906 21.1184 11.7528 20.5354 11.1075L20.2777 10.8222L20.5229 10.2479C20.8387 9.50811 21.4512 8.03256 21.6199 7.60506C21.7708 7.22263 21.7373 6.98548 21.5066 6.80402C21.4197 6.73569 20.8783 6.48034 20.3037 6.23673L19.2587 5.79367L19.2368 4.19201C19.2172 2.75521 19.2014 2.57028 19.0832 2.39576C18.8128 1.99694 18.841 2 15.4255 2H12.2889L12.0193 2.26958ZM14.9437 5.32875C14.6316 5.42368 14.3579 5.59486 14.1407 5.8309C13.7528 6.25229 13.6712 6.44472 13.6382 7.01513C13.6105 7.4936 13.6276 7.59471 13.7937 7.9343C14.0224 8.40173 14.4126 8.74735 14.883 8.89923C15.3284 9.04311 15.6135 9.04395 16.0355 8.90256C17.2792 8.48596 17.7371 7.08013 16.9711 6.02972C16.5209 5.41236 15.6541 5.1127 14.9437 5.32875ZM16.1014 6.06548C16.7592 6.45104 16.9107 7.32735 16.4203 7.9102C15.6812 8.7886 14.2497 8.29381 14.2497 7.15985C14.2497 6.73951 14.3527 6.49534 14.6428 6.22805C14.9412 5.95312 15.086 5.89333 15.4589 5.89097C15.7018 5.88951 15.8868 5.93972 16.1014 6.06548ZM21.0553 7.32201C21.0553 7.36548 20.9649 7.59985 20.8544 7.84291C20.744 8.08589 20.4252 8.83943 20.1461 9.51735C19.6591 10.7002 19.6307 10.75 19.4441 10.75H19.2497V8.6061V6.46221L20.1525 6.85256C20.649 7.06721 21.0553 7.27846 21.0553 7.32201ZM6.4025 16.5809C6.4025 20.1462 6.3984 20.2612 6.26819 20.3309C6.07152 20.4361 3.81465 20.426 3.70806 20.3194C3.64535 20.2567 3.62472 19.3287 3.62472 16.5694V12.9028H5.01361H6.4025V16.5809ZM4.73854 14.2172C4.59694 14.4817 4.89937 14.77 5.16986 14.6282C5.32465 14.5471 5.33312 14.1837 5.18153 14.1255C4.97861 14.0476 4.81069 14.0823 4.73854 14.2172Z" fill="#339ad5" stroke="#339ad5" stroke-width="0.4"/>
</svg>
