<svg width="24" height="24" viewBox="0 0 24 24" fill="none" xmlns="http://www.w3.org/2000/svg">
<path fill-rule="evenodd" clip-rule="evenodd" d="M5.33328 2.2002H7.83328C8.6643 2.2002 9.46127 2.53031 10.0489 3.11793C10.6365 3.70554 10.9666 4.50252 10.9666 5.33353V7.83353C10.9666 8.66454 10.6365 9.46152 10.0489 10.0491C9.46127 10.6367 8.6643 10.9669 7.83328 10.9669H5.33328C4.50227 10.9669 3.7053 10.6367 3.11768 10.0491C2.53007 9.46152 2.19995 8.66454 2.19995 7.83353V5.33353C2.19995 4.50252 2.53007 3.70554 3.11768 3.11793C3.7053 2.53031 4.50227 2.2002 5.33328 2.2002ZM9.15322 9.15346C9.50328 8.80339 9.69995 8.3286 9.69995 7.83353V5.33353C9.69995 4.83846 9.50328 4.36366 9.15322 4.0136C8.80315 3.66353 8.32835 3.46686 7.83328 3.46686H5.33328C4.83821 3.46686 4.36342 3.66353 4.01335 4.0136C3.66328 4.36366 3.46662 4.83846 3.46662 5.33353V7.83353C3.46662 8.3286 3.66328 8.80339 4.01335 9.15346C4.36342 9.50353 4.83821 9.70019 5.33328 9.70019H7.83328C8.32835 9.70019 8.80315 9.50353 9.15322 9.15346Z" fill="#339ad5"/>
<path fill-rule="evenodd" clip-rule="evenodd" d="M16.1668 2.2002H18.6668C19.4978 2.2002 20.2948 2.53031 20.8824 3.11793C21.47 3.70554 21.8001 4.50252 21.8001 5.33353V7.83353C21.8001 8.66454 21.47 9.46152 20.8824 10.0491C20.2948 10.6367 19.4978 10.9669 18.6668 10.9669H16.1668C15.3358 10.9669 14.5388 10.6367 13.9512 10.0491C13.3636 9.46152 13.0334 8.66454 13.0334 7.83353V5.33353C13.0334 4.50252 13.3636 3.70554 13.9512 3.11793C14.5388 2.53031 15.3358 2.2002 16.1668 2.2002ZM19.9867 9.15346C20.3368 8.80339 20.5334 8.3286 20.5334 7.83353V5.33353C20.5334 4.83846 20.3368 4.36366 19.9867 4.0136C19.6366 3.66353 19.1619 3.46686 18.6668 3.46686H16.1668C15.6717 3.46686 15.1969 3.66353 14.8468 4.0136C14.4968 4.36366 14.3001 4.83846 14.3001 5.33353V7.83353C14.3001 8.3286 14.4968 8.80339 14.8468 9.15346C15.1969 9.50353 15.6717 9.70019 16.1668 9.70019H18.6668C19.1619 9.70019 19.6366 9.50353 19.9867 9.15346Z" fill="#339ad5"/>
<path fill-rule="evenodd" clip-rule="evenodd" d="M5.33328 13.0332H7.83328C8.6643 13.0332 9.46127 13.3633 10.0489 13.9509C10.6365 14.5385 10.9666 15.3355 10.9666 16.1665V18.6665C10.9666 19.4975 10.6365 20.2945 10.0489 20.8821C9.46127 21.4698 8.6643 21.7999 7.83328 21.7999H5.33328C4.50227 21.7999 3.7053 21.4698 3.11768 20.8821C2.53007 20.2945 2.19995 19.4975 2.19995 18.6665V16.1665C2.19995 15.3355 2.53007 14.5385 3.11768 13.9509C3.7053 13.3633 4.50227 13.0332 5.33328 13.0332ZM9.15322 19.9865C9.50328 19.6364 9.69995 19.1616 9.69995 18.6665V16.1665C9.69995 15.6715 9.50328 15.1967 9.15322 14.8466C8.80315 14.4965 8.32835 14.2999 7.83328 14.2999H5.33328C4.83821 14.2999 4.36342 14.4965 4.01335 14.8466C3.66328 15.1967 3.46662 15.6715 3.46662 16.1665V18.6665C3.46662 19.1616 3.66328 19.6364 4.01335 19.9865C4.36342 20.3365 4.83821 20.5332 5.33328 20.5332H7.83328C8.32835 20.5332 8.80315 20.3365 9.15322 19.9865Z" fill="#339ad5"/>
<path fill-rule="evenodd" clip-rule="evenodd" d="M16.1668 13.0332H18.6668C19.4978 13.0332 20.2948 13.3633 20.8824 13.9509C21.47 14.5385 21.8001 15.3355 21.8001 16.1665V18.6665C21.8001 19.4975 21.47 20.2945 20.8824 20.8821C20.2948 21.4698 19.4978 21.7999 18.6668 21.7999H16.1668C15.3358 21.7999 14.5388 21.4698 13.9512 20.8821C13.3636 20.2945 13.0334 19.4975 13.0334 18.6665V16.1665C13.0334 15.3355 13.3636 14.5385 13.9512 13.9509C14.5388 13.3633 15.3358 13.0332 16.1668 13.0332ZM19.9867 19.9865C20.3368 19.6364 20.5334 19.1616 20.5334 18.6665V16.1665C20.5334 15.6715 20.3368 15.1967 19.9867 14.8466C19.6366 14.4965 19.1619 14.2999 18.6668 14.2999H16.1668C15.6717 14.2999 15.1969 14.4965 14.8468 14.8466C14.4968 15.1967 14.3001 15.6715 14.3001 16.1665V18.6665C14.3001 19.1616 14.4968 19.6364 14.8468 19.9865C15.1969 20.3365 15.6717 20.5332 16.1668 20.5332H18.6668C19.1619 20.5332 19.6366 20.3365 19.9867 19.9865Z" fill="#339ad5"/>
</svg>
