<svg width="24" height="24" viewBox="0 0 24 24" fill="none" xmlns="http://www.w3.org/2000/svg">
<path fill-rule="evenodd" clip-rule="evenodd" d="M11.5228 2.35307C10.8767 2.67843 10.8253 2.711 10.7776 2.8253L10.7263 2.94803L11.2988 4.09637C11.7713 5.04403 11.8625 5.24967 11.8208 5.27303C11.6872 5.3478 11.5623 5.48557 11.4854 5.6432C11.3673 5.8851 11.3467 6.081 11.4148 6.3152C11.4455 6.42077 11.466 6.51103 11.4603 6.51573C11.4546 6.52043 11.345 6.55823 11.2167 6.5997C10.0277 6.98403 8.98463 7.95697 8.3853 9.24067C7.88343 10.3156 7.63343 11.6347 7.63337 13.2083L7.63333 13.8667H7.94907H8.2648L8.26513 13.2015C8.26573 11.9436 8.41013 10.9744 8.73457 10.05C9.2679 8.53043 10.314 7.48427 11.6885 7.09597C11.9371 7.02577 12.0241 7.02147 13.4499 7.00887C15.1533 6.9938 15.2576 7.005 15.8437 7.2654C17.1157 7.83047 18.0917 9.04923 18.5342 10.6253C18.8096 11.606 18.8651 12.202 18.866 14.1881C18.8666 15.5595 18.8724 15.7284 18.9194 15.7464C18.9484 15.7576 19.0909 15.7667 19.2361 15.7667H19.5V14.29C19.5 12.0597 19.4096 11.2507 19.0353 10.1313C18.4761 8.4587 17.3022 7.14937 15.8829 6.61533C15.7548 6.56713 15.6461 6.52377 15.6412 6.51897C15.6364 6.51417 15.6552 6.4559 15.6829 6.38953C15.758 6.20973 15.7486 5.8525 15.664 5.6779C15.5913 5.5276 15.4691 5.38293 15.3397 5.2939L15.2627 5.24093L15.8147 4.13733C16.3984 2.97033 16.4295 2.88 16.2966 2.73733C16.2058 2.63987 14.9192 2 14.8141 2C14.7699 2 14.4712 2.13107 14.1502 2.29123L13.5667 2.58243L12.9831 2.29123C12.6571 2.12853 12.3592 2.0008 12.3081 2.00177C12.2578 2.00277 11.9044 2.16083 11.5228 2.35307ZM12.9087 2.95463C13.2247 3.113 13.5226 3.24157 13.5707 3.2403C13.6187 3.23907 13.9181 3.1078 14.2361 2.94863L14.8141 2.6592L15.2101 2.8546C15.4278 2.96207 15.6125 3.06043 15.6205 3.07317C15.6285 3.08593 15.406 3.55467 15.1261 4.11483L14.6172 5.13333H13.5667H12.5162L12.0081 4.11653C11.7286 3.55727 11.5 3.0924 11.5 3.08347C11.5 3.06547 12.2683 2.67113 12.3087 2.6684C12.3227 2.66743 12.5927 2.79623 12.9087 2.95463ZM15.0215 5.83783C15.0628 5.87663 15.1058 5.9504 15.1171 6.00177C15.141 6.11063 15.0644 6.28103 14.9685 6.33233C14.9275 6.35427 14.4151 6.36667 13.5496 6.36667H12.1949L12.0974 6.26923C12.033 6.20483 12 6.13787 12 6.0718C12 5.94307 12.1408 5.77413 12.2595 5.76043C12.3093 5.7547 12.9342 5.7539 13.6482 5.75863C14.9183 5.7671 14.948 5.76883 15.0215 5.83783ZM2 14.1823V14.5H3.86667H5.73333L5.7343 14.5917C5.73543 14.6999 5.73527 20.0717 5.7341 20.1083C5.7337 20.1221 4.89333 20.1333 3.86667 20.1333H2V20.4516V20.7698L3.95833 20.7599C5.7401 20.7509 5.92617 20.7448 6.022 20.6924C6.1736 20.6094 6.33173 20.4033 6.35507 20.2583L6.3752 20.1333H6.98327H7.59133L10.2369 21.0667L12.8825 22H13.2601H13.6378L17.5772 19.9541C20.4071 18.4845 21.5503 17.8747 21.6361 17.7892C21.9378 17.4883 22.06 17.0588 21.9514 16.6809C21.8117 16.1952 21.4301 15.8475 20.9546 15.7729C20.781 15.7457 20.7263 15.7574 20.0433 15.9688C19.1166 16.2555 16.5006 17.0638 16.4289 17.0855C16.3836 17.0992 16.3723 17.0672 16.3608 16.8927C16.3239 16.3326 15.8778 15.8597 15.3 15.7682C15.1771 15.7487 14.4865 15.7337 13.7043 15.7336L12.3252 15.7333L10.628 15.1167L8.93077 14.5H7.65307H6.3754L6.35577 14.3791C6.329 14.2141 6.21103 14.0521 6.05057 13.9601L5.91667 13.8833L3.95833 13.874L2 13.8646V14.1823ZM10.5378 15.75L12.234 16.3667H13.712C14.7404 16.3667 15.2245 16.3784 15.3034 16.4051C15.5828 16.4999 15.7333 16.7082 15.7333 17C15.7333 17.2696 15.6013 17.4716 15.35 17.5862C15.3133 17.603 14.3983 17.6242 13.3167 17.6333L11.35 17.65L11.1594 17.7436C10.7894 17.9252 10.505 18.3111 10.4484 18.7083L10.4258 18.8667H10.7462C11.0465 18.8667 11.0667 18.8624 11.0667 18.7987C11.0667 18.684 11.1929 18.4755 11.322 18.3769L11.4447 18.2833L13.3974 18.2648C14.6385 18.253 15.3868 18.2334 15.4509 18.2109C15.6137 18.1539 15.8168 18.0429 15.9251 17.9518C16.001 17.8879 16.6182 17.6819 18.4287 17.116L20.8316 16.365L20.9574 16.4176C21.2001 16.519 21.3667 16.7425 21.3667 16.9669C21.3667 17.0972 21.2548 17.3183 21.1579 17.3794C21.1169 17.4053 19.3773 18.3131 17.2921 19.3966L13.5008 21.3667H13.2358C12.974 21.3667 12.9388 21.3554 10.3244 20.4333L7.67793 19.5H7.0223H6.36667V17.3167V15.1333H7.60413H8.8416L10.5378 15.75ZM3.25617 18.8917C3.24823 18.9054 3.23893 19.0479 3.23547 19.2083L3.2292 19.5H3.54793H3.86667V19.1833V18.8667H3.56863C3.4047 18.8667 3.2641 18.8779 3.25617 18.8917ZM4.5 19.1833V19.5H4.81667H5.13333V19.1833V18.8667H4.81667H4.5V19.1833Z" fill="#339ad5" stroke="#339ad5" stroke-width="0.4"/>
<path d="M13.4254 12.3202L14.7584 14.2126H14.4613L13.052 12.1522L12.9924 12.0651H12.8869H12.2004V11.8666H13.3074V11.8667L13.312 11.8666C13.5739 11.8606 13.8268 11.7698 14.0327 11.6078C14.2386 11.4457 14.3863 11.2213 14.4537 10.9681L14.5207 10.7167H14.2605H12.2V10.5178H14.258H14.5233L14.4503 10.2627C14.374 9.99641 14.2074 9.76498 13.9795 9.6079C13.7539 9.45245 13.4818 9.3793 13.2089 9.40055H12.2V9.2H15.5541V9.39888H14.5693H14.0739L14.4304 9.74282C14.6019 9.90825 14.7185 10.1224 14.7642 10.3562L14.7958 10.5178H14.9605H15.5545V10.7167H14.9738H14.7973L14.7753 10.8918C14.7381 11.1883 14.5979 11.4624 14.3792 11.6659C14.1603 11.8695 13.8769 11.9896 13.5784 12.0053L13.217 12.0244L13.4254 12.3202Z" fill="#339ad5" stroke="#339ad5" stroke-width="0.4"/>
</svg>
