<svg xmlns="http://www.w3.org/2000/svg" width="58" height="58" viewBox="0 0 58 58">
  <g id="my-request" transform="translate(643 1998)">
    <g id="base" transform="translate(-643 -1998)" opacity="0">
      <rect id="Rectangle_982" data-name="Rectangle 982" width="58" height="58" fill="#339ad5"/>
      <rect id="Rectangle_983" data-name="Rectangle 983" width="48" height="48" transform="translate(5 5)" fill="#339ad5"/>
    </g>
    <g id="interview" transform="translate(-635.737 -1990.736)">
      <path id="Subtraction_54" data-name="Subtraction 54" d="M340.9-76.253H327.26a1.024,1.024,0,0,1-1.023-1.023v-2.729a7.811,7.811,0,0,1,1.111-4.029,7.927,7.927,0,0,1,2.735-2.722l.314-.187-.289-.225a6.445,6.445,0,0,1-2.507-5.114,6.487,6.487,0,0,1,6.48-6.48,6.488,6.488,0,0,1,6.481,6.48,6.446,6.446,0,0,1-2.507,5.114l-.289.225.315.187a7.943,7.943,0,0,1,2.735,2.722,7.816,7.816,0,0,1,1.111,4.029v2.729A1.025,1.025,0,0,1,340.9-76.253ZM334.081-85.8a5.8,5.8,0,0,0-5.8,5.8v1.7h11.595v-1.7A5.8,5.8,0,0,0,334.081-85.8Zm0-10.913a4.438,4.438,0,0,0-4.433,4.433,4.438,4.438,0,0,0,4.433,4.433,4.438,4.438,0,0,0,4.432-4.433A4.438,4.438,0,0,0,334.082-96.716Z" transform="translate(-325.987 119.477)" fill="#339ad5"/>
      <path id="Subtraction_50" data-name="Subtraction 50" d="M327.267-68.066a1.031,1.031,0,0,1-1.03-1.026V-93.648a5.122,5.122,0,0,1,5.116-5.116h16.37a5.122,5.122,0,0,1,5.116,5.116v16.371a5.122,5.122,0,0,1-5.116,5.116H333.059l-5.184,3.888A1.012,1.012,0,0,1,327.267-68.066Zm4.086-28.651a3.072,3.072,0,0,0-3.069,3.069V-71.14L332.1-74a1.029,1.029,0,0,1,.614-.2h15.007a3.072,3.072,0,0,0,3.069-3.069V-93.648a3.072,3.072,0,0,0-3.069-3.069Z" transform="translate(-309.616 99.014)" fill="#339ad5"/>
      <path id="Subtraction_53" data-name="Subtraction 53" d="M340.9-96.717H327.26a1.024,1.024,0,0,1-1.023-1.023,1.024,1.024,0,0,1,1.023-1.023H340.9a1.025,1.025,0,0,1,1.024,1.023A1.025,1.025,0,0,1,340.9-96.717Z" transform="translate(-304.159 105.834)" fill="#339ad5"/>
      <path id="Subtraction_52" data-name="Subtraction 52" d="M340.9-96.717H327.26a1.024,1.024,0,0,1-1.023-1.023,1.024,1.024,0,0,1,1.023-1.023H340.9a1.025,1.025,0,0,1,1.024,1.023A1.025,1.025,0,0,1,340.9-96.717Z" transform="translate(-304.159 111.292)" fill="#339ad5"/>
      <path id="Subtraction_51" data-name="Subtraction 51" d="M334.081-96.717H327.26a1.024,1.024,0,0,1-1.023-1.023,1.024,1.024,0,0,1,1.023-1.023h6.821a1.025,1.025,0,0,1,1.024,1.023A1.025,1.025,0,0,1,334.081-96.717Z" transform="translate(-304.159 116.748)" fill="#339ad5"/>
    </g>
  </g>
</svg>
