<svg width="24" height="24" viewBox="0 0 24 24" fill="none" xmlns="http://www.w3.org/2000/svg">
<path d="M12 2C11.9151 1.99983 11.8318 2.02284 11.7591 2.06655L3.11673 7.33675C3.03432 7.38584 2.97052 7.46089 2.93535 7.55014C2.90018 7.63939 2.89563 7.73778 2.9224 7.8299C2.95104 7.92253 3.00879 8.00344 3.08709 8.06064C3.16538 8.11783 3.26003 8.14823 3.35698 8.14735H20.643C20.7016 8.14823 20.7597 8.13756 20.8142 8.11596C20.8686 8.09437 20.9183 8.06226 20.9603 8.02147C21.0023 7.98068 21.0359 7.93201 21.0591 7.87824C21.0823 7.82448 21.0947 7.76666 21.0956 7.70811C21.0953 7.62922 21.0737 7.55188 21.033 7.48428C20.9924 7.41667 20.9342 7.36133 20.8646 7.32411L12.2409 2.06655C12.1682 2.02284 12.0849 1.99983 12 2ZM12 2.95767L19.0717 7.26953H4.92826L12 2.95767ZM3.35765 9.02582C3.29997 9.02582 3.24285 9.03718 3.18956 9.05926C3.13627 9.08133 3.08785 9.11369 3.04706 9.15447C3.00627 9.19526 2.97392 9.24368 2.95184 9.29697C2.92977 9.35026 2.91841 9.40738 2.91841 9.46506C2.91841 9.52274 2.92977 9.57986 2.95184 9.63315C2.97392 9.68644 3.00627 9.73486 3.04706 9.77565C3.08785 9.81644 3.13627 9.84879 3.18956 9.87087C3.24285 9.89294 3.29997 9.9043 3.35765 9.9043H3.8102V16.5787H3.35765C3.29909 16.5779 3.24093 16.5885 3.1865 16.6101C3.13206 16.6317 3.08241 16.6638 3.04039 16.7046C2.99836 16.7454 2.96479 16.7941 2.94157 16.8478C2.91836 16.9016 2.90597 16.9594 2.9051 17.018V18.335H2.45255C2.39399 18.3341 2.33583 18.3448 2.2814 18.3664C2.22696 18.388 2.17732 18.4201 2.13529 18.4609C2.09327 18.5017 2.05969 18.5504 2.03648 18.6041C2.01326 18.6579 2.00087 18.7157 2 18.7743V20.9705C2.00087 21.029 2.01326 21.0868 2.03648 21.1406C2.05969 21.1944 2.09327 21.243 2.13529 21.2838C2.17732 21.3246 2.22696 21.3567 2.2814 21.3783C2.33583 21.3999 2.39399 21.4106 2.45255 21.4097H21.5475C21.606 21.4106 21.6642 21.3999 21.7186 21.3783C21.773 21.3567 21.8227 21.3246 21.8647 21.2838C21.9067 21.243 21.9403 21.1944 21.9635 21.1406C21.9867 21.0868 21.9991 21.029 22 20.9705V18.7743C21.9991 18.7157 21.9867 18.6579 21.9635 18.6041C21.9403 18.5504 21.9067 18.5017 21.8647 18.4609C21.8227 18.4201 21.773 18.388 21.7186 18.3664C21.6642 18.3448 21.606 18.3341 21.5475 18.335H21.0949V17.018C21.094 16.9594 21.0816 16.9016 21.0584 16.8478C21.0352 16.7941 21.0016 16.7454 20.9596 16.7046C20.9176 16.6638 20.8679 16.6317 20.8135 16.6101C20.7591 16.5885 20.7009 16.5779 20.6424 16.5787H20.1898V9.9043H20.6424C20.7 9.9043 20.7572 9.89294 20.8104 9.87087C20.8637 9.84879 20.9122 9.81644 20.9529 9.77565C20.9937 9.73486 21.0261 9.68644 21.0482 9.63315C21.0702 9.57986 21.0816 9.52274 21.0816 9.46506C21.0816 9.40738 21.0702 9.35026 21.0482 9.29697C21.0261 9.24368 20.9937 9.19526 20.9529 9.15447C20.9122 9.11369 20.8637 9.08133 20.8104 9.05926C20.7572 9.03718 20.7 9.02582 20.6424 9.02582H3.35765ZM9.28071 9.89964C12.0033 9.89964 14.6507 9.9043 17.4732 9.9043V16.5787C13.6638 16.5754 10.2723 16.5787 6.52283 16.5787V9.9043C7.45721 9.90164 8.37428 9.89964 9.28204 9.89964H9.28071ZM4.7133 9.9043H5.61839V16.5787H4.71463L4.7133 9.9043ZM18.3783 9.9043H19.2834V16.5787H18.3783V9.9043ZM12.0592 10.3003C11.8097 10.3036 12.1817 10.3003 12.0592 10.3003V10.3003ZM3.8102 17.4572H20.1898V18.3357H3.8102V17.4572ZM2.9051 19.2135H21.0949V20.5305H2.9051V19.2135Z" fill="#339ad5" stroke="#339ad5" stroke-width="0.1"/>
<path d="M12.1051 15.7995L10.7135 14.1257C10.6056 13.9859 10.4788 13.8616 10.3369 13.7564C10.2468 13.6918 10.1389 13.6569 10.0281 13.6566H9.90961V12.9305H10.4819C10.628 12.9308 10.7739 12.9208 10.9185 12.9005C11.0422 12.8841 11.163 12.8503 11.2772 12.8C11.3743 12.7569 11.4607 12.6928 11.5301 12.6124C11.5749 12.5589 11.6074 12.4961 11.6253 12.4287H9.69531L10.048 11.7998H11.5734C11.5591 11.7681 11.5424 11.7377 11.5235 11.7086C11.4791 11.642 11.4235 11.5837 11.3591 11.5362C11.2896 11.485 11.2117 11.4465 11.1288 11.4224C11.027 11.3933 10.9219 11.3772 10.816 11.3745H9.69531L10.048 10.7456H13.6791L13.3264 11.3745H12.374C12.4037 11.419 12.4304 11.4655 12.4539 11.5136C12.498 11.6049 12.5309 11.7012 12.5517 11.8004H13.6791L13.3264 12.4294H12.561C12.5363 12.5624 12.49 12.6906 12.4239 12.8087C12.3442 12.9482 12.2421 13.0736 12.1218 13.1801C11.9981 13.2879 11.8596 13.3776 11.7105 13.4463C11.6135 13.4917 11.5137 13.5309 11.4117 13.5634L13.2838 15.7995H12.1051ZM10.0281 13.5468C10.1637 13.5476 10.2958 13.5899 10.4067 13.6679C10.5574 13.7794 10.6918 13.9113 10.8061 14.0599L12.1657 15.6904L10.8107 14.0599C10.6965 13.9113 10.5621 13.7794 10.4114 13.6679C10.2992 13.5889 10.1653 13.5466 10.0281 13.5468ZM12.3148 12.7561C12.2411 12.8852 12.1467 13.0012 12.0353 13.0995C11.9203 13.2006 11.7914 13.2847 11.6526 13.3491C11.5103 13.4158 11.3615 13.468 11.2087 13.5048C11.3615 13.468 11.5103 13.4158 11.6526 13.3491C11.7914 13.2847 11.9203 13.2006 12.0353 13.0995C12.1467 13.0012 12.2411 12.8852 12.3148 12.7561C12.3906 12.6212 12.4388 12.4726 12.4565 12.3189H13.2551L13.4847 11.9096L13.2551 12.3189H12.4565C12.4388 12.4726 12.3906 12.6212 12.3148 12.7561ZM11.7391 11.9096C11.6974 11.7263 11.5917 11.564 11.441 11.4517C11.2579 11.3264 11.0405 11.261 10.8187 11.2647C11.0396 11.2616 11.256 11.3269 11.4383 11.4517C11.5893 11.5639 11.6952 11.7262 11.7371 11.9096H11.7391ZM13.2518 11.2647L13.4814 10.8554L13.2518 11.2647Z" fill="#339ad5"/>
<path d="M12.1051 15.7995L10.7135 14.1257C10.6056 13.9859 10.4788 13.8616 10.3369 13.7564C10.2468 13.6918 10.1389 13.6569 10.0281 13.6566H9.90961V12.9305H10.4819C10.628 12.9308 10.7739 12.9208 10.9185 12.9005C11.0422 12.8841 11.163 12.8503 11.2772 12.8C11.3743 12.7569 11.4607 12.6928 11.5301 12.6124C11.5749 12.5589 11.6074 12.4961 11.6253 12.4287H9.69531L10.048 11.7998H11.5734C11.5591 11.7681 11.5424 11.7377 11.5235 11.7086C11.4791 11.642 11.4235 11.5837 11.3591 11.5362C11.2896 11.485 11.2117 11.4465 11.1288 11.4224C11.027 11.3933 10.9219 11.3772 10.816 11.3745H9.69531L10.048 10.7456H13.6791L13.3264 11.3745H12.374C12.4037 11.419 12.4304 11.4655 12.4539 11.5136C12.498 11.6049 12.5309 11.7012 12.5517 11.8004H13.6791L13.3264 12.4294H12.561C12.5363 12.5624 12.49 12.6906 12.4239 12.8087C12.3442 12.9482 12.2421 13.0736 12.1218 13.1801C11.9981 13.2879 11.8596 13.3776 11.7105 13.4463C11.6135 13.4917 11.5137 13.5309 11.4117 13.5634L13.2838 15.7995H12.1051ZM10.0281 13.5468C10.1637 13.5476 10.2958 13.5899 10.4067 13.6679C10.5574 13.7794 10.6918 13.9113 10.8061 14.0599L12.1657 15.6904L10.8107 14.0599C10.6965 13.9113 10.5621 13.7794 10.4114 13.6679C10.2992 13.5889 10.1653 13.5466 10.0281 13.5468V13.5468ZM12.3148 12.7561C12.2411 12.8852 12.1467 13.0012 12.0353 13.0995C11.9203 13.2006 11.7914 13.2847 11.6526 13.3491C11.5103 13.4158 11.3615 13.468 11.2087 13.5048C11.3615 13.468 11.5103 13.4158 11.6526 13.3491C11.7914 13.2847 11.9203 13.2006 12.0353 13.0995C12.1467 13.0012 12.2411 12.8852 12.3148 12.7561C12.3906 12.6212 12.4388 12.4726 12.4565 12.3189H13.2551L13.4847 11.9096L13.2551 12.3189H12.4565C12.4388 12.4726 12.3906 12.6212 12.3148 12.7561V12.7561ZM11.7391 11.9096C11.6974 11.7263 11.5917 11.564 11.441 11.4517C11.2579 11.3264 11.0405 11.261 10.8187 11.2647V11.2647C11.0396 11.2616 11.256 11.3269 11.4383 11.4517C11.5893 11.5639 11.6952 11.7262 11.7371 11.9096H11.7391ZM13.2518 11.2647L13.4814 10.8554L13.2518 11.2647Z" stroke="#339ad5" stroke-width="0.1"/>
</svg>
