<svg width="24" height="24" viewBox="0 0 24 24" fill="none" xmlns="http://www.w3.org/2000/svg">
<path d="M11.7293 16.9166C10.4259 16.9152 9.17634 16.3966 8.25471 15.475C7.33308 14.5534 6.81468 13.3038 6.81323 12.0004C6.81523 10.6974 7.33388 9.44839 8.25545 8.52721C9.17702 7.60604 10.4263 7.08787 11.7293 7.08643C13.0323 7.08787 14.2816 7.60604 15.2032 8.52721C16.1247 9.44839 16.6434 10.6974 16.6454 12.0004C16.6439 13.3038 16.1255 14.5534 15.2039 15.475C14.2823 16.3966 13.0327 16.9152 11.7293 16.9166ZM11.7293 8.01942C10.6739 8.02098 9.66226 8.4408 8.916 9.18706C8.16975 9.93331 7.74982 10.945 7.74827 12.0004C7.74982 13.0558 8.16975 14.0675 8.916 14.8137C9.66226 15.56 10.6739 15.98 11.7293 15.9816C12.7847 15.98 13.7964 15.56 14.5426 14.8137C15.2889 14.0675 15.7088 13.0558 15.7103 12.0004C15.7088 10.945 15.2889 9.93331 14.5426 9.18706C13.7964 8.4408 12.7847 8.02098 11.7293 8.01942Z" fill="#339ad5" stroke="#339ad5" stroke-width="0.1"/>
<path d="M19.9906 12.4675C19.8666 12.4674 19.7478 12.4181 19.6601 12.3304C19.5724 12.2428 19.5232 12.124 19.523 12.0001C19.5267 9.95929 18.725 7.99944 17.2921 6.54635C15.8704 5.08796 13.9317 4.24779 11.8955 4.20781L11.582 4.20125L12.06 4.67871C12.1034 4.72212 12.1379 4.77381 12.1613 4.83056C12.1848 4.88731 12.1969 4.94804 12.1968 5.00945C12.1969 5.07087 12.1848 5.1318 12.1613 5.18855C12.1379 5.2453 12.1034 5.29678 12.06 5.34019C12.0166 5.38364 11.965 5.41815 11.9082 5.44163C11.8515 5.46511 11.7907 5.47716 11.7293 5.47708C11.6679 5.47722 11.6071 5.46511 11.5504 5.44163C11.4937 5.41815 11.4423 5.38368 11.399 5.34019L10.1278 4.06908C10.0843 4.0258 10.0498 3.97433 10.0263 3.91764C10.0028 3.86095 9.99081 3.80011 9.99097 3.73875C9.99089 3.67733 10.0029 3.6164 10.0264 3.55965C10.0499 3.5029 10.0843 3.45142 10.1278 3.40801L11.399 2.1373C11.4421 2.09361 11.4936 2.05882 11.5503 2.03525C11.607 2.01169 11.6678 1.99976 11.7293 2.00001C11.7907 1.9997 11.8517 2.01169 11.9085 2.03525C11.9652 2.05882 12.0168 2.09356 12.06 2.1373C12.1035 2.18058 12.138 2.23204 12.1614 2.28874C12.1849 2.34543 12.1969 2.40606 12.1968 2.46743C12.1969 2.52885 12.1849 2.58977 12.1614 2.64653C12.1379 2.70328 12.1034 2.75479 12.06 2.79817L11.5903 3.26825L11.8866 3.27378C13.0372 3.2924 14.1725 3.54029 15.226 4.00309C16.2456 4.45034 17.1703 5.08852 17.9501 5.88323C19.5609 7.51145 20.4625 9.71055 20.4585 12.0009C20.4582 12.1248 20.4087 12.2435 20.321 12.331C20.2333 12.4185 20.1145 12.4675 19.9906 12.4675Z" fill="#339ad5" stroke="#339ad5" stroke-width="0.1"/>
<path d="M11.7288 22.0002C11.6674 22.0004 11.6066 21.9884 11.5498 21.965C11.493 21.9415 11.4415 21.9068 11.3981 21.8633C11.3547 21.8199 11.3202 21.7684 11.2967 21.7117C11.2732 21.6549 11.2612 21.5942 11.2613 21.5328C11.2613 21.4714 11.2733 21.4106 11.2968 21.3539C11.3203 21.2972 11.3547 21.2458 11.3981 21.2025L11.8677 20.7328L11.5715 20.7275C10.4209 20.7088 9.28563 20.4607 8.2321 19.9979C7.21247 19.5505 6.28782 18.9122 5.50799 18.1174C3.89732 16.4893 2.99578 14.2903 3.00001 12.0001C3.00013 11.8762 3.04942 11.7575 3.13707 11.6698C3.22472 11.5822 3.34357 11.5328 3.46753 11.5327C3.59149 11.5328 3.71034 11.5822 3.79799 11.6698C3.88565 11.7575 3.93494 11.8762 3.93505 12.0001C3.9316 14.0404 4.73314 15.9998 6.16562 17.4526C7.5873 18.9109 9.52599 19.7508 11.5622 19.7906L11.8757 19.7973L11.3977 19.3199C11.3103 19.2321 11.2612 19.1132 11.2612 18.9893C11.2612 18.8654 11.3103 18.7466 11.3977 18.6588C11.4411 18.6153 11.4926 18.5808 11.5494 18.5574C11.6061 18.5339 11.667 18.5218 11.7284 18.5219C11.7898 18.5216 11.8506 18.5337 11.9073 18.5571C11.9641 18.5806 12.0155 18.6152 12.0587 18.6588L13.3299 19.9299C13.3734 19.9732 13.4079 20.0246 13.4314 20.0813C13.4549 20.138 13.4669 20.1989 13.4667 20.2602C13.467 20.3216 13.4551 20.3824 13.4316 20.4391C13.4081 20.4958 13.3735 20.5474 13.3299 20.5906L12.0587 21.8617C12.0157 21.9056 11.9644 21.9404 11.9077 21.9641C11.8511 21.9879 11.7903 22.0002 11.7288 22.0002Z" fill="#339ad5" stroke="#339ad5" stroke-width="0.1"/>
<path d="M9.69556 9.49756V10.0981H10.9126C11.1423 10.0785 11.3717 10.1393 11.5616 10.2701C11.7514 10.401 11.8901 10.5937 11.9536 10.8153H9.69556V11.4142H11.956C11.8997 11.6255 11.7765 11.8129 11.6046 11.9481C11.4327 12.0834 11.2216 12.1592 11.0029 12.1642H9.69597V12.7626H10.5824L12.0513 14.9101H12.8394L11.2845 12.7026C11.6298 12.6844 11.9578 12.5454 12.2109 12.3099C12.4641 12.0744 12.6263 11.7573 12.6693 11.4142H13.4501V10.8153H12.656C12.6024 10.5413 12.4658 10.2903 12.2648 10.0964H13.4497V9.49756H9.69556Z" fill="#339ad5" stroke="#339ad5" stroke-width="0.1"/>
</svg>
