<svg width="24" height="24" viewBox="0 0 24 24" fill="none" xmlns="http://www.w3.org/2000/svg">
<path fill-rule="evenodd" clip-rule="evenodd" d="M11.9997 13.5275C12.8432 13.5275 13.527 12.8437 13.527 12.0002C13.527 11.1567 12.8432 10.4729 11.9997 10.4729C11.1562 10.4729 10.4725 11.1567 10.4725 12.0002C10.4725 12.8437 11.1562 13.5275 11.9997 13.5275ZM14.727 12.0002C14.727 13.5065 13.506 14.7275 11.9997 14.7275C10.4935 14.7275 9.27246 13.5065 9.27246 12.0002C9.27246 10.494 10.4935 9.27295 11.9997 9.27295C13.506 9.27295 14.727 10.494 14.727 12.0002Z" fill="#339ad5" stroke="#339ad5" stroke-width="0.1" stroke-linecap="round" stroke-linejoin="round"/>
<path fill-rule="evenodd" clip-rule="evenodd" d="M18.1694 17.2209C17.7922 16.8353 17.5391 16.3455 17.4429 15.8146C17.3471 15.2861 17.411 14.7411 17.6266 14.2493C17.8342 13.7676 18.1778 13.3567 18.6152 13.0671C19.0542 12.7763 19.5687 12.6203 20.0952 12.6182L20.1 12.6182L20.1818 12.6182C20.3458 12.6182 20.503 12.5531 20.6189 12.4371C20.7349 12.3212 20.8 12.164 20.8 12C20.8 11.836 20.7349 11.6788 20.6189 11.5629C20.503 11.4469 20.3458 11.3818 20.1818 11.3818H20.0225C19.4959 11.3797 18.9815 11.2237 18.5425 10.9329C18.1034 10.6422 17.759 10.2294 17.5516 9.74545C17.5122 9.65365 17.4846 9.55753 17.4691 9.45934C17.323 9.02733 17.2883 8.56396 17.3702 8.11265C17.4664 7.58182 17.7195 7.09199 18.0967 6.70634L18.106 6.69688L18.1606 6.64238C18.218 6.58497 18.2641 6.51632 18.2952 6.44127C18.3263 6.36622 18.3423 6.28578 18.3423 6.20455C18.3423 6.12331 18.3263 6.04287 18.2952 5.96782C18.2641 5.89277 18.2185 5.8246 18.161 5.76718L18.1601 5.76624C18.1027 5.70876 18.0345 5.66316 17.9595 5.63206C17.8844 5.60095 17.804 5.58493 17.7227 5.58493C17.6415 5.58493 17.561 5.60095 17.486 5.63206C17.411 5.66317 17.3428 5.70876 17.2854 5.76624L17.221 5.83061C16.8353 6.20786 16.3455 6.46087 15.8146 6.55712C15.2861 6.65294 14.7411 6.58895 14.2493 6.37342C13.7676 6.16575 13.3567 5.82224 13.0671 5.38482C12.7763 4.9458 12.6203 4.43135 12.6182 3.90479L12.6182 3.9L12.6182 3.81818C12.6182 3.65423 12.5531 3.49699 12.4371 3.38106C12.3212 3.26513 12.164 3.2 12 3.2C11.836 3.2 11.6788 3.26513 11.5629 3.38106C11.4469 3.49699 11.3818 3.65423 11.3818 3.81818V3.97751C11.3797 4.50407 11.2237 5.01853 10.9329 5.45755C10.6422 5.89657 10.2294 6.24099 9.74545 6.44842C9.65365 6.48777 9.55753 6.5154 9.45934 6.53086C9.02733 6.67696 8.56396 6.71168 8.11265 6.62984C7.58182 6.53359 7.09199 6.28053 6.70634 5.90329L6.69687 5.89403L6.64238 5.83944C6.58497 5.78196 6.51632 5.73589 6.44127 5.70478C6.36623 5.67367 6.28578 5.65766 6.20455 5.65766C6.12331 5.65766 6.04287 5.67367 5.96782 5.70478C5.89277 5.73589 5.82459 5.78149 5.76718 5.83897L5.76624 5.83991C5.70876 5.89732 5.66317 5.9655 5.63206 6.04055C5.60095 6.11559 5.58493 6.19603 5.58493 6.27727C5.58493 6.35851 5.60095 6.43895 5.63206 6.514C5.66317 6.58905 5.70876 6.65722 5.76624 6.71464L5.83061 6.77901C6.20786 7.16467 6.46087 7.65455 6.55712 8.18537C6.65111 8.70376 6.59135 9.23803 6.38563 9.72245C6.19623 10.2159 5.86602 10.6432 5.43564 10.9511C4.99498 11.2662 4.46969 11.4415 3.92806 11.4542C3.91871 11.4544 3.90935 11.4545 3.9 11.4545H3.81818C3.65423 11.4545 3.49699 11.5197 3.38106 11.6356C3.26513 11.7515 3.2 11.9088 3.2 12.0727C3.2 12.2367 3.26513 12.3939 3.38106 12.5098C3.49699 12.6258 3.65423 12.6909 3.81818 12.6909H3.97751C4.50407 12.693 5.01853 12.849 5.45755 13.1398C5.89497 13.4295 6.23848 13.8403 6.44615 14.322C6.66168 14.8138 6.72567 15.3589 6.62984 15.8874C6.53359 16.4182 6.28053 16.908 5.90329 17.2937L5.89403 17.3031L5.83943 17.3576C5.78196 17.415 5.73589 17.4837 5.70478 17.5587C5.67367 17.6338 5.65766 17.7142 5.65766 17.7955C5.65766 17.8767 5.67367 17.9571 5.70478 18.0322C5.73589 18.1072 5.78149 18.1754 5.83897 18.2328L5.83991 18.2338C5.89732 18.2912 5.9655 18.3368 6.04055 18.3679C6.11559 18.3991 6.19604 18.4151 6.27727 18.4151C6.35851 18.4151 6.43895 18.3991 6.514 18.3679C6.58905 18.3368 6.65723 18.2912 6.71464 18.2338L6.77901 18.1694C7.16467 17.7921 7.65455 17.5391 8.18537 17.4429C8.70376 17.3489 9.23803 17.4087 9.72245 17.6144C10.2159 17.8038 10.6432 18.134 10.9511 18.5644C11.2662 19.005 11.4415 19.5303 11.4542 20.0719C11.4544 20.0813 11.4545 20.0906 11.4545 20.1V20.1818C11.4545 20.3458 11.5197 20.503 11.6356 20.6189C11.7515 20.7349 11.9088 20.8 12.0727 20.8C12.2367 20.8 12.3939 20.7349 12.5098 20.6189C12.6258 20.503 12.6909 20.3458 12.6909 20.1818V20.0225C12.693 19.4959 12.849 18.9815 13.1398 18.5425C13.4295 18.105 13.8403 17.7615 14.322 17.5538C14.8138 17.3383 15.3589 17.2743 15.8874 17.3702C16.4182 17.4664 16.908 17.7195 17.2937 18.0967L17.3031 18.106L17.3576 18.1606C17.415 18.218 17.4837 18.2641 17.5587 18.2952C17.6338 18.3263 17.7142 18.3423 17.7955 18.3423C17.8767 18.3423 17.9571 18.3263 18.0322 18.2952C18.1072 18.2641 18.1754 18.2185 18.2328 18.161L18.2338 18.1601C18.2912 18.1027 18.3368 18.0345 18.3679 17.9595C18.3991 17.8844 18.4151 17.804 18.4151 17.7227C18.4151 17.6415 18.3991 17.561 18.3679 17.486C18.3368 17.411 18.2912 17.3428 18.2338 17.2854L18.1694 17.2209ZM14.8 18.6545C14.5311 18.7698 14.3018 18.9611 14.1403 19.205C13.9788 19.4489 13.8921 19.7347 13.8909 20.0273V20.1818C13.8909 20.664 13.6994 21.1265 13.3584 21.4675C13.0174 21.8084 12.5549 22 12.0727 22C11.5905 22 11.1281 21.8084 10.7871 21.4675C10.4461 21.1265 10.2545 20.664 10.2545 20.1818V20.1C10.2475 19.7991 10.1501 19.5073 9.97501 19.2625C9.79991 19.0176 9.55521 18.8312 9.27273 18.7273C8.99853 18.6063 8.69437 18.5702 8.39947 18.6236C8.10456 18.6771 7.83244 18.8177 7.61818 19.0273L7.56364 19.0818C7.39478 19.2509 7.19425 19.385 6.97353 19.4765C6.7528 19.568 6.51621 19.6151 6.27727 19.6151C6.03834 19.6151 5.80174 19.568 5.58102 19.4765C5.36029 19.385 5.15977 19.2509 4.99091 19.0818C4.82186 18.913 4.68775 18.7124 4.59626 18.4917C4.50476 18.271 4.45766 18.0344 4.45766 17.7955C4.45766 17.5565 4.50476 17.3199 4.59626 17.0992C4.68775 16.8785 4.82186 16.678 4.99091 16.5091L5.04545 16.4545C5.25503 16.2403 5.39562 15.9682 5.4491 15.6733C5.50257 15.3784 5.46647 15.0742 5.34545 14.8C5.23022 14.5311 5.03887 14.3018 4.79497 14.1403C4.55107 13.9788 4.26526 13.8921 3.97273 13.8909H3.81818C3.33597 13.8909 2.87351 13.6994 2.53253 13.3584C2.19156 13.0174 2 12.5549 2 12.0727C2 11.5905 2.19156 11.1281 2.53253 10.7871C2.87351 10.4461 3.33597 10.2545 3.81818 10.2545H3.9C4.2009 10.2475 4.49273 10.1501 4.73754 9.97501C4.98236 9.79991 5.16883 9.55521 5.27273 9.27273C5.39374 8.99853 5.42984 8.69437 5.37637 8.39947C5.3229 8.10456 5.18231 7.83244 4.97273 7.61818L4.91818 7.56364C4.74913 7.39478 4.61503 7.19425 4.52353 6.97353C4.43203 6.7528 4.38493 6.51621 4.38493 6.27727C4.38493 6.03834 4.43203 5.80174 4.52353 5.58102C4.61503 5.36029 4.74913 5.15977 4.91818 4.99091C5.08704 4.82186 5.28757 4.68775 5.50829 4.59626C5.72901 4.50476 5.96561 4.45766 6.20455 4.45766C6.44348 4.45766 6.68008 4.50476 6.9008 4.59626C7.12152 4.68775 7.32205 4.82186 7.49091 4.99091L7.54545 5.04545C7.75971 5.25503 8.03183 5.39562 8.32674 5.4491C8.62164 5.50257 8.9258 5.46647 9.2 5.34545H9.27273C9.54161 5.23022 9.77093 5.03887 9.93245 4.79497C10.094 4.55107 10.1807 4.26526 10.1818 3.97273V3.81818C10.1818 3.33597 10.3734 2.87351 10.7144 2.53253C11.0553 2.19156 11.5178 2 12 2C12.4822 2 12.9447 2.19156 13.2856 2.53253C13.6266 2.87351 13.8182 3.33597 13.8182 3.81818V3.9C13.8193 4.19253 13.906 4.47834 14.0676 4.72224C14.2291 4.96614 14.4584 5.15749 14.7273 5.27273C15.0015 5.39374 15.3056 5.42984 15.6005 5.37637C15.8954 5.3229 16.1676 5.18231 16.3818 4.97273L16.4364 4.91818C16.6052 4.74913 16.8057 4.61503 17.0265 4.52353C17.2472 4.43203 17.4838 4.38493 17.7227 4.38493C17.9617 4.38493 18.1983 4.43203 18.419 4.52353C18.6397 4.61503 18.8402 4.74913 19.0091 4.91818C19.1781 5.08704 19.3122 5.28757 19.4037 5.50829C19.4952 5.72901 19.5423 5.96561 19.5423 6.20455C19.5423 6.44348 19.4952 6.68008 19.4037 6.9008C19.3122 7.12152 19.1781 7.32205 19.0091 7.49091L18.9545 7.54545C18.745 7.75971 18.6044 8.03183 18.5509 8.32674C18.4974 8.62164 18.5335 8.9258 18.6545 9.2V9.27273C18.7698 9.54161 18.9611 9.77093 19.205 9.93245C19.4489 10.094 19.7347 10.1807 20.0273 10.1818H20.1818C20.664 10.1818 21.1265 10.3734 21.4675 10.7144C21.8084 11.0553 22 11.5178 22 12C22 12.4822 21.8084 12.9447 21.4675 13.2856C21.1265 13.6266 20.664 13.8182 20.1818 13.8182H20.1C19.8075 13.8193 19.5217 13.906 19.2778 14.0676C19.0339 14.2291 18.8425 14.4584 18.7273 14.7273C18.6063 15.0015 18.5702 15.3056 18.6236 15.6005C18.6771 15.8954 18.8177 16.1676 19.0273 16.3818L19.0818 16.4364C19.2509 16.6052 19.385 16.8057 19.4765 17.0265C19.568 17.2472 19.6151 17.4838 19.6151 17.7227C19.6151 17.9617 19.568 18.1983 19.4765 18.419C19.385 18.6397 19.2509 18.8402 19.0818 19.0091C18.913 19.1781 18.7124 19.3122 18.4917 19.4037C18.271 19.4952 18.0344 19.5423 17.7955 19.5423C17.5565 19.5423 17.3199 19.4952 17.0992 19.4037C16.8785 19.3122 16.678 19.1781 16.5091 19.0091L16.4545 18.9545C16.2403 18.745 15.9682 18.6044 15.6733 18.5509C15.3784 18.4974 15.0742 18.5335 14.8 18.6545Z" fill="#339ad5" stroke="#339ad5" stroke-width="0.1" stroke-linecap="round" stroke-linejoin="round"/>
</svg>
