<svg width="24" height="24" viewBox="0 0 24 24" fill="none" xmlns="http://www.w3.org/2000/svg">
<path fill-rule="evenodd" clip-rule="evenodd" d="M11.6772 20.675L15.9317 18.0469C17.9839 16.7647 19.2153 14.7732 19.2153 12.6698V4.83318L11.6772 3.15086L4.139 4.83318V12.6698C4.139 14.7732 5.38699 16.7814 7.42266 18.0469L11.6772 20.675ZM3 12.6698V3.90911L11.6772 2L20.3543 3.90911V12.6698C20.3543 15.1614 18.9317 17.5351 16.5329 19.0149L11.6772 22L6.82139 19.0149C4.42259 17.5351 3 15.1614 3 12.6698Z" fill="#339ad5"/>
<path fill-rule="evenodd" clip-rule="evenodd" d="M16.5762 8.53541L10.0876 15.0197L10.0881 15.0202L16.5762 8.53541ZM10.088 13.2688L15.6273 7.72949L16.4332 8.53539L10.0881 14.8772L6.92163 11.7107L7.7275 10.9049L10.088 13.2688Z" fill="#339ad5"/>
</svg>
