<svg width="24" height="24" viewBox="0 0 24 24" fill="none" xmlns="http://www.w3.org/2000/svg">
<path d="M8.95844 21.8186L5.92024 21.8032C5.85107 21.8033 5.78282 21.7873 5.72086 21.7566C5.65891 21.7258 5.60493 21.6812 5.56317 21.626C5.52098 21.5713 5.49201 21.5075 5.47849 21.4397C5.46498 21.3719 5.4673 21.302 5.48527 21.2352L6.06202 19.0616L6.00557 19.018C5.43066 18.5892 4.93727 18.0607 4.54883 17.4578L4.53132 17.4313L4.50244 17.4176C4.3541 17.3494 4.19613 17.2863 4.04385 17.2268L4.03597 17.2238C3.33414 16.9965 2.70097 16.5958 2.19502 16.0589C2.12476 15.9802 2.08408 15.8795 2.07993 15.7741L2.00029 13.5808C1.99811 13.5201 2.00818 13.4597 2.02991 13.403C2.05164 13.3463 2.08458 13.2946 2.12675 13.2509C2.16928 13.2071 2.22017 13.1723 2.27639 13.1485C2.33262 13.1248 2.39304 13.1126 2.45407 13.1127C2.47649 13.1127 2.49887 13.1143 2.52103 13.1178C2.63083 13.134 2.74172 13.1419 2.85272 13.1411C3.06444 13.1391 3.27569 13.1208 3.4846 13.0864L3.55024 13.0763L3.57168 13.0129C3.57781 12.9936 3.58175 12.9783 3.58437 12.9661V12.9582C3.58656 12.9494 3.58875 12.9415 3.59225 12.9315C3.64389 12.7766 3.73053 12.5311 3.84912 12.2449C3.86662 12.2012 3.88412 12.1609 3.90119 12.1189C4.04173 11.6671 4.29609 11.259 4.63985 10.9339C4.72106 10.8674 4.8228 10.8311 4.92778 10.8311H4.93128C4.99731 10.8316 5.06242 10.8465 5.12201 10.8749C5.1816 10.9033 5.23421 10.9446 5.27611 10.9956C5.47171 11.2337 5.28573 11.533 5.19646 11.652L5.1527 11.708L5.15533 11.7131C4.97491 11.9934 4.81703 12.2876 4.68317 12.5928C4.59959 12.7941 4.51601 13.0169 4.44862 13.2195C4.41142 13.3306 4.38167 13.4409 4.36766 13.4938L4.36285 13.5118C4.36023 13.521 4.35891 13.5267 4.3576 13.5302C4.36536 13.5092 4.37933 13.4912 4.39763 13.4785C4.41593 13.4657 4.43769 13.4588 4.46 13.4588V13.5616L4.35235 13.5453C4.33898 13.6322 4.30057 13.7134 4.24181 13.7789C4.18306 13.8443 4.10651 13.8913 4.02153 13.9139C3.69709 13.9945 3.36424 14.0363 3.02994 14.0385H2.91923L2.97393 15.5478L3.00544 15.5784C3.38531 15.9166 3.82876 16.1758 4.3099 16.3407L4.32259 16.3461C4.54489 16.4389 4.77462 16.5346 5.0258 16.6602C5.1025 16.6983 5.1666 16.7578 5.21047 16.8313C5.60746 17.5081 6.15393 18.0851 6.80812 18.5182L6.84225 18.5441C6.91373 18.5981 6.96745 18.6722 6.99653 18.7569C7.02561 18.8417 7.02873 18.9332 7.00547 19.0197L6.50618 20.9013L8.57643 20.9117L8.78603 19.7246C8.80446 19.62 8.85918 19.5252 8.94057 19.4569C9.02197 19.3886 9.12483 19.3513 9.23106 19.3513C9.242 19.3513 9.25294 19.3513 9.26432 19.3513C10.0257 19.4065 10.7959 19.4349 11.556 19.4349C12.3161 19.4349 13.0701 19.4077 13.8656 19.353H13.8989C14.0153 19.3531 14.1272 19.3982 14.2111 19.4789C14.295 19.5596 14.3445 19.6696 14.3491 19.7859C14.3551 20.1374 14.4037 20.4868 14.494 20.8265L14.5167 20.9062L16.5944 20.8887L16.5616 20.7543L16.5428 20.6759C16.5257 20.6045 16.5082 20.5324 16.4907 20.4611C16.3594 19.9224 16.2142 19.312 16.0466 18.7847C16.0156 18.6872 16.0188 18.5821 16.0556 18.4866C16.0924 18.3912 16.1607 18.3109 16.2492 18.2595C16.5773 18.0949 16.8686 17.8654 17.1052 17.5847C17.3419 17.3041 17.519 16.9781 17.6258 16.6269C17.6523 16.5317 17.7092 16.4478 17.7878 16.388C17.8664 16.3281 17.9624 16.2955 18.0612 16.2952C18.1022 16.2954 18.143 16.3011 18.1824 16.3123C18.2397 16.3281 18.2933 16.355 18.3401 16.3916C18.3869 16.4282 18.426 16.4736 18.4551 16.5254C18.4847 16.5769 18.5038 16.6339 18.5114 16.6929C18.5189 16.7518 18.5146 16.8116 18.4988 16.8689C18.2546 17.6578 17.7452 18.3379 17.057 18.7943L16.9931 18.8381L17.015 18.9125C17.2285 19.6441 17.4088 20.3631 17.6223 21.2278C17.6388 21.2941 17.64 21.3634 17.6257 21.4303C17.6115 21.4972 17.5822 21.5598 17.5401 21.6136C17.4985 21.6678 17.445 21.7119 17.3838 21.7423C17.3226 21.7726 17.2552 21.7886 17.1869 21.7889L14.2012 21.8128H14.1977C14.1164 21.8129 14.0366 21.7912 13.9667 21.7498C13.8968 21.7083 13.8393 21.6487 13.8004 21.5773C13.6095 21.2054 13.5025 20.7962 13.4866 20.3784L13.4783 20.2716L13.372 20.2774C12.7707 20.3102 12.1691 20.3267 11.5836 20.3267C10.967 20.3267 10.336 20.3083 9.7076 20.2725L9.61002 20.2669L9.40129 21.4448C9.38295 21.5494 9.32832 21.6441 9.247 21.7124C9.16567 21.7806 9.06288 21.8182 8.95669 21.8181L8.95844 21.8186ZM6.79674 13.9015C6.61627 13.9013 6.44326 13.8296 6.31568 13.7019C6.18811 13.5743 6.1164 13.4012 6.11628 13.2208C6.11663 13.0404 6.18845 12.8675 6.31599 12.74C6.44354 12.6125 6.61642 12.5409 6.79674 12.5407C6.97702 12.5409 7.14985 12.6125 7.27733 12.74C7.40481 12.8675 7.47652 13.0405 7.47676 13.2208C7.47664 13.4012 7.40499 13.5741 7.27751 13.7017C7.15003 13.8294 6.97713 13.9012 6.79674 13.9015ZM6.71228 10.6743C6.41332 10.6634 6.12153 10.5797 5.86225 10.4305C5.60297 10.2812 5.38404 10.0709 5.22447 9.81789V9.81533C4.99893 9.48467 4.81119 9.12976 4.66479 8.75724L4.66216 8.75019L4.65954 8.74335L4.63241 8.67413L4.59302 8.57392C4.46418 8.27695 4.36779 7.96704 4.30553 7.64937C4.28713 7.54102 4.30883 7.42964 4.36658 7.33614C4.42432 7.24263 4.51416 7.17334 4.61928 7.14127C4.96584 7.0358 5.31942 6.95484 5.67738 6.89919H5.6835C5.96685 6.85436 6.25303 6.8298 6.53987 6.82568C6.57838 6.82568 6.62039 6.82584 6.67115 6.82846C7.03442 6.83532 7.39221 6.9182 7.72137 7.07204C7.73421 7.07791 7.74663 7.08459 7.75856 7.09213C8.01334 7.25401 8.22648 7.4737 8.38079 7.73313C8.5351 7.99257 8.62625 8.28452 8.64688 8.58567C8.67251 8.83694 8.64586 9.0909 8.56859 9.33137C8.49132 9.57183 8.36511 9.79375 8.19791 9.98306C7.8656 10.3654 7.40168 10.6086 6.89826 10.6647C6.83652 10.6717 6.77442 10.6751 6.71228 10.6747V10.6743ZM6.52455 7.73463C6.28631 7.73777 6.04857 7.75727 5.81303 7.79317C5.73908 7.80455 5.66731 7.82268 5.59817 7.84018L5.58548 7.84317C5.53822 7.85499 5.49403 7.86581 5.44939 7.87543L5.32599 7.90214L5.36975 8.02073C5.38988 8.07587 5.40607 8.12709 5.42314 8.18354L5.42883 8.20149C5.44895 8.26538 5.46952 8.3328 5.49971 8.40982V8.41324C5.62072 8.72321 5.77523 9.01907 5.9605 9.29547L5.96531 9.3021L5.96969 9.30872C6.0514 9.43918 6.16233 9.54881 6.29372 9.62901C6.4251 9.70921 6.57335 9.75763 6.72672 9.77067C6.74923 9.7707 6.77173 9.76961 6.79411 9.76725H6.7998C7.06398 9.7288 7.30485 9.5948 7.47676 9.39055C7.56678 9.29723 7.63702 9.18649 7.68326 9.06535C7.72951 8.94421 7.7508 8.81502 7.74587 8.68545V8.67904C7.73244 8.52493 7.68707 8.37514 7.61263 8.23952C7.5382 8.10391 7.43633 7.98533 7.31353 7.89125L7.3061 7.88612L7.29778 7.88249C7.08536 7.79195 6.85739 7.74364 6.62651 7.73997C6.59413 7.73603 6.55956 7.73505 6.52455 7.73505V7.73463Z" fill="#339ad5" stroke="#339ad5" stroke-width="0.1"/>
<path d="M15.6842 15.6316C14.0097 15.6298 12.4043 14.9638 11.2203 13.7798C10.0363 12.5957 9.37026 10.9903 9.36841 9.31581C9.37026 7.64134 10.0363 6.0359 11.2203 4.85186C12.4043 3.66783 14.0097 3.00185 15.6842 3C17.3587 3.00185 18.964 3.66783 20.1481 4.85186C21.3321 6.0359 21.9981 7.64134 21.9999 9.31581C21.9981 10.9903 21.3321 12.5957 20.1481 13.7798C18.964 14.9638 17.3587 15.6298 15.6842 15.6316ZM15.6842 3.90403C14.973 3.90165 14.2685 4.04019 13.6112 4.31171C12.9539 4.58323 12.3569 4.98245 11.8548 5.48603C11.351 5.988 10.9517 6.58486 10.6801 7.24217C10.4085 7.89948 10.2699 8.60418 10.2725 9.31539C10.2699 10.0266 10.4085 10.7313 10.6801 11.3886C10.9517 12.0459 11.351 12.6428 11.8548 13.1447C12.3567 13.6486 12.9537 14.0479 13.611 14.3195C14.2683 14.5911 14.973 14.7295 15.6842 14.727C16.3953 14.7296 17.1 14.5913 17.7572 14.3197C18.4145 14.0481 19.0113 13.6487 19.5131 13.1447C20.0169 12.6428 20.4162 12.0459 20.6878 11.3886C20.9594 10.7313 21.098 10.0266 21.0954 9.31539C21.098 8.60418 20.9594 7.89948 20.6878 7.24217C20.4162 6.58486 20.0169 5.988 19.5131 5.48603C19.0111 4.9824 18.4142 4.58338 17.757 4.31192C17.0998 4.04047 16.3953 3.90186 15.6842 3.90446V3.90403Z" fill="#339ad5" stroke="#339ad5" stroke-width="0.1"/>
<path d="M13.2166 6.21094V7.00473H14.8257C15.1294 6.97899 15.4325 7.05952 15.6834 7.23256C15.9342 7.40561 16.1173 7.66042 16.2011 7.95343H13.217V8.74503H16.2053C16.1305 9.0243 15.9672 9.27181 15.74 9.45055C15.5127 9.62929 15.2337 9.72966 14.9447 9.73662H13.217V10.5278H14.3877L16.3314 13.3669H17.375L15.3184 10.4481C15.7753 10.4245 16.2092 10.2408 16.5442 9.92937C16.8793 9.61791 17.0941 9.19851 17.151 8.7446H18.1824V7.95299H17.1322C17.061 7.59062 16.8805 7.25876 16.6149 7.0021H18.1811V6.21094H13.2166Z" fill="#339ad5" stroke="#339ad5" stroke-width="0.1"/>
</svg>
