<svg width="28" height="28" viewBox="0 0 28 28" fill="none" xmlns="http://www.w3.org/2000/svg">
<path fill-rule="evenodd" clip-rule="evenodd" d="M25.1021 10.4197C25.6708 12.179 25.8115 14.0487 25.5124 15.8733C25.1177 18.2294 24.0143 20.4091 22.3493 22.1221C20.6845 23.8348 18.5374 24.9995 16.194 25.461C15.4683 25.5975 14.7313 25.6663 13.9927 25.6666C12.2805 25.6677 10.5893 25.2886 9.0414 24.5567L8.93346 24.5057L5.50541 25.1915C5.13512 25.265 4.75243 25.246 4.3912 25.1364C4.0298 25.0266 3.70101 24.8295 3.43394 24.5625C3.16688 24.2954 2.96977 23.9666 2.86006 23.6052C2.7504 23.2439 2.73154 22.8608 2.80498 22.4905L3.49626 19.059L3.44524 18.9509C2.39445 16.7245 2.0781 14.2219 2.54183 11.8041C3.00258 9.46148 4.16618 7.31488 5.87762 5.65023C7.58909 3.98555 9.76716 2.88188 12.1217 2.48625C13.9467 2.18723 15.8167 2.32785 17.5764 2.89642C19.3364 3.46508 20.9353 4.4454 22.2404 5.75599L22.4961 5.50138L22.2416 5.75716C23.5526 7.06156 24.5332 8.66003 25.1021 10.4197ZM9.04028 23.0062C9.15541 23.0062 9.26888 23.0337 9.37124 23.0864C9.47674 23.1403 9.58309 23.1924 9.69021 23.2425C11.034 23.8712 12.5011 24.1999 13.9875 24.203C15.5923 24.2062 17.1752 23.8303 18.6072 23.1057C20.0392 22.3812 21.2797 21.3285 22.2277 20.0336C22.9749 19.0129 23.5237 17.8644 23.849 16.6481C23.9364 16.3212 24.0077 15.9895 24.0623 15.654C24.3225 14.0561 24.199 12.4193 23.702 10.8785C23.205 9.33768 22.3488 7.93713 21.2041 6.79235C20.0593 5.64758 18.6587 4.7914 17.1179 4.29443C15.5772 3.79746 13.9403 3.67396 12.3423 3.9341C10.7583 4.19211 9.25767 4.82065 7.96261 5.76853C6.66754 6.71641 5.61471 7.95682 4.88988 9.3887C4.16505 10.8206 3.78872 12.4034 3.79154 14.0083C3.79437 15.6132 4.17658 17.1953 4.90646 18.6246C4.98145 18.7708 5.00451 18.9387 4.97206 19.0997L4.23737 22.7743C4.21073 22.9089 4.21766 23.048 4.25756 23.1793C4.29745 23.3106 4.36908 23.43 4.46611 23.527C4.56313 23.624 4.68257 23.6957 4.81386 23.7356C4.94515 23.7755 5.08496 23.7823 5.21957 23.7556L8.89293 23.0209C8.94144 23.0112 8.99081 23.0062 9.04028 23.0062ZM14.7255 12.9104V17.6436H15.0863C15.2805 17.6436 15.4668 17.7207 15.6041 17.858C15.7414 17.9954 15.8186 18.1816 15.8186 18.3758C15.8186 18.57 15.7414 18.7563 15.6041 18.8936C15.4668 19.0309 15.2805 19.1081 15.0863 19.1081H13.9932C13.799 19.1081 13.6128 19.0309 13.4754 18.8936C13.3381 18.7563 13.261 18.57 13.261 18.3758V13.6426H12.9001C12.7059 13.6426 12.5197 13.5655 12.3823 13.4282C12.245 13.2908 12.1679 13.1046 12.1679 12.9104C12.1679 12.7162 12.245 12.5299 12.3823 12.3926C12.5197 12.2553 12.7059 12.1781 12.9001 12.1781H13.9932C14.1874 12.1781 14.3737 12.2553 14.511 12.3926C14.6483 12.5299 14.7255 12.7162 14.7255 12.9104ZM14.7253 9.63101C14.7253 10.0354 14.3975 10.3633 13.9931 10.3633C13.5886 10.3633 13.2608 10.0354 13.2608 9.63101C13.2608 9.22659 13.5886 8.89875 13.9931 8.89875C14.3975 8.89875 14.7253 9.22659 14.7253 9.63101Z" fill="#148AFF"/>
</svg>
