<?xml version="1.0" encoding="utf-8"?>
<!-- Generator: Adobe Illustrator 23.0.1, SVG Export Plug-In . SVG Version: 6.00 Build 0)  -->
<svg version="1.1" id="inactive_upi_number" xmlns="http://www.w3.org/2000/svg" xmlns:xlink="http://www.w3.org/1999/xlink"
	 x="0px" y="0px" viewBox="0 0 32 32" style="enable-background:new 0 0 32 32;" xml:space="preserve">
<style type="text/css">
	.st0{fill:#339ad5;fill-opacity:0;}
	.st1{display:none;}
	.st2{display:inline;fill:#339ad5;stroke:#339ad5;stroke-width:0.3;}
	.st3{opacity:0;}
	.st4{fill:#339ad5;}
</style>
<rect id="Rectangle_18710" class="st0" width="32" height="32"/>
<g id="noun_toggle_1943594" transform="translate(2.613 7.834)" class="st1">
	<path id="Path_43342" class="st2" d="M19.2-0.1H7.8C3-0.1-0.9,3.8-0.9,8.6c0,4.8,3.9,8.7,8.7,8.7c0,0,0,0,0,0h11.4
		c4.8,0,8.7-3.9,8.7-8.7S24-0.1,19.2-0.1z M19.2,16.1H7.8c-4.1,0-7.5-3.4-7.5-7.5s3.4-7.5,7.5-7.5h11.4c4.1,0,7.5,3.4,7.5,7.5
		S23.4,16.1,19.2,16.1z"/>
	<path id="Path_43342_-_Outline" class="st2" d="M7.8-0.3h11.4c4.9,0,8.9,4,8.9,8.9s-4,8.9-8.9,8.9l0,0H7.8c-4.9,0-8.9-4-8.9-8.9
		C-1.2,3.7,2.8-0.3,7.8-0.3z M19.2,17.1c4.7,0,8.5-3.8,8.5-8.5c0-4.7-3.8-8.5-8.5-8.5H7.8c-4.7,0-8.5,3.8-8.5,8.5
		c0,4.7,3.8,8.5,8.5,8.5H19.2z M7.8,0.9h11.4c4.3,0,7.7,3.5,7.7,7.7c0,4.3-3.5,7.7-7.7,7.7H7.8C3.5,16.3,0,12.9,0,8.6
		S3.5,0.9,7.8,0.9C7.8,0.9,7.8,0.9,7.8,0.9z M19.2,15.9c4,0,7.3-3.3,7.3-7.3c0-4-3.3-7.3-7.3-7.3H7.8c-4,0-7.3,3.3-7.3,7.3
		s3.3,7.3,7.3,7.3c0,0,0,0,0,0H19.2z"/>
	<path id="Path_43343" class="st2" d="M7.8,3.2c-3,0-5.4,2.4-5.4,5.4s2.4,5.4,5.4,5.4s5.4-2.4,5.4-5.4C13.2,5.6,10.8,3.2,7.8,3.2z
		 M7.8,12.8c-2.3,0-4.2-1.9-4.2-4.2c0-2.3,1.9-4.2,4.2-4.2c2.3,0,4.2,1.9,4.2,4.2C12,11,10.1,12.9,7.8,12.8L7.8,12.8z"/>
	<path id="Path_43343_-_Outline" class="st2" d="M7.8,2.9c3.1,0,5.7,2.5,5.7,5.7s-2.5,5.7-5.7,5.7s-5.7-2.5-5.7-5.7l0,0
		C2.1,5.5,4.7,2.9,7.8,2.9z M7.8,13.8c2.9,0,5.2-2.3,5.2-5.2s-2.3-5.2-5.2-5.2S2.6,5.7,2.6,8.6C2.6,11.5,4.9,13.8,7.8,13.8z
		 M7.8,4.1c2.5,0,4.5,2,4.5,4.5s-2,4.5-4.5,4.5s-4.5-2-4.5-4.5C3.3,6.1,5.3,4.1,7.8,4.1z M7.8,12.6c2.2,0,4-1.8,4-4s-1.8-4-4-4
		s-4,1.8-4,4l0,0C3.8,10.8,5.6,12.6,7.8,12.6z"/>
	<rect id="Rectangle_18721" x="5.7" y="6.9" class="st2" width="1.2" height="3.3"/>
	<path id="Rectangle_18721_-_Outline" class="st2" d="M5.5,6.7h1.6v3.8H5.5V6.7z M6.7,7.2H5.9V10h0.8V7.2z"/>
	<rect id="Rectangle_18722" x="8.7" y="6.9" class="st2" width="1.2" height="3.3"/>
	<path id="Rectangle_18722_-_Outline" class="st2" d="M8.5,6.7h1.6v3.8H8.5V6.7z M9.7,7.2H8.9V10h0.8L9.7,7.2z"/>
</g>
<g id="Group_18710" class="st3">
	<rect id="Rectangle_18710_1_" x="-1.5" y="-1" class="st4" width="34.9" height="34.9"/>
	<path id="Rectangle_18710_-_Outline" class="st4" d="M-0.8-0.4v33.6h33.6V-0.4H-0.8 M-1.5-1h34.9v34.9H-1.5V-1z"/>
</g>
<g id="noun_toggle_1943594_1_" transform="translate(2.813 8.034)">
	<path id="Path_43342_1_" class="st4" d="M18.9-0.3H7.5c-4.8,0-8.7,3.9-8.7,8.7c0,4.8,3.9,8.7,8.7,8.7c0,0,0,0,0,0h11.4
		c4.8,0,8.7-3.9,8.7-8.7S23.7-0.3,18.9-0.3z M18.9,15.9H7.5C3.4,15.9,0,12.5,0,8.4s3.4-7.5,7.5-7.5h11.4c4.1,0,7.5,3.4,7.5,7.5
		S23,15.9,18.9,15.9z"/>
	<path id="Path_43342_-_Outline_1_" class="st4" d="M7.5-0.6h11.4c5,0,9,4,9,9c0,5-4,9-9,9H7.5c-5,0-9-4-9-9S2.5-0.6,7.5-0.6z
		 M18.9,16.8c4.6,0,8.4-3.7,8.4-8.4c0-4.6-3.7-8.4-8.4-8.4H7.5c-4.6,0-8.4,3.7-8.4,8.4c0,4.6,3.7,8.4,8.4,8.4H18.9z M7.5,0.6h11.4
		c4.3,0,7.8,3.5,7.8,7.8c0,4.3-3.5,7.8-7.8,7.8H7.5c-4.3,0-7.8-3.5-7.8-7.8S3.2,0.6,7.5,0.6C7.5,0.6,7.5,0.6,7.5,0.6z M18.9,15.6
		c4,0,7.2-3.2,7.2-7.2c0-4-3.2-7.2-7.2-7.2H7.5c-4,0-7.2,3.2-7.2,7.2c0,4,3.2,7.2,7.2,7.2c0,0,0,0,0,0H18.9z"/>
	<path id="Path_43343_1_" class="st4" d="M7.5,3c-3,0-5.4,2.4-5.4,5.4s2.4,5.4,5.4,5.4s5.4-2.4,5.4-5.4C12.9,5.4,10.5,3,7.5,3z
		 M7.5,12.6c-2.3,0-4.2-1.9-4.2-4.2s1.9-4.2,4.2-4.2c2.3,0,4.2,1.9,4.2,4.2C11.7,10.8,9.8,12.6,7.5,12.6L7.5,12.6z"/>
	<path id="Path_43343_-_Outline_1_" class="st4" d="M7.5,2.7c3.2,0,5.8,2.6,5.8,5.8s-2.6,5.8-5.8,5.8s-5.8-2.6-5.8-5.8
		C1.7,5.2,4.3,2.7,7.5,2.7z M7.5,13.5c2.8,0,5.1-2.3,5.1-5.1c0-2.8-2.3-5.1-5.1-5.1c-2.8,0-5.1,2.3-5.1,5.1c0,0,0,0,0,0
		C2.4,11.2,4.7,13.5,7.5,13.5L7.5,13.5z M7.5,3.9c2.5,0,4.6,2,4.6,4.6S10,13,7.5,13s-4.6-2-4.6-4.6c0,0,0,0,0,0
		C2.9,5.9,5,3.9,7.5,3.9z M7.5,12.3c2.2,0,3.9-1.7,3.9-3.9c0-2.2-1.7-3.9-3.9-3.9c-2.2,0-3.9,1.7-3.9,3.9
		C3.6,10.6,5.3,12.3,7.5,12.3L7.5,12.3z"/>
	<path id="Path_43344" class="st4" d="M9,7C9,7,8.8,7,8.8,7c0,0,0,0,0,0L6.5,9.3L6,8.8c-0.1-0.1-0.2-0.1-0.3,0
		C5.6,8.9,5.6,9,5.7,9.1l0.7,0.7c0.1,0.1,0.2,0.1,0.3,0c0,0,0,0,0,0L9,7.3C9.1,7.3,9.1,7.1,9,7C9.1,7.1,9.1,7.1,9,7z"/>
	<path id="Path_43344_-_Outline" class="st4" d="M8.9,6.7c0.3,0,0.5,0.2,0.5,0.5c0,0.1-0.1,0.3-0.2,0.4L6.8,10
		c-0.2,0.2-0.5,0.2-0.8,0c0,0,0,0,0,0L5.4,9.3c-0.2-0.2-0.2-0.5,0-0.8c0.2-0.2,0.5-0.2,0.8,0l0,0l0.3,0.3l2.1-2.1
		C8.6,6.7,8.8,6.7,8.9,6.7z"/>
</g>
</svg>
