<svg width="18" height="18" viewBox="0 0 18 18" fill="none" xmlns="http://www.w3.org/2000/svg">
<path fill-rule="evenodd" clip-rule="evenodd" d="M9 7.5C9.29667 7.5 9.58668 7.58797 9.83336 7.7528C10.08 7.91762 10.2723 8.15189 10.3858 8.42597C10.4994 8.70006 10.5291 9.00166 10.4712 9.29264C10.4133 9.58361 10.2704 9.85088 10.0607 10.0607C9.85088 10.2704 9.58361 10.4133 9.29264 10.4712C9.00167 10.5291 8.70007 10.4994 8.42598 10.3858C8.15189 10.2723 7.91762 10.08 7.7528 9.83335C7.58797 9.58668 7.5 9.29667 7.5 9C7.5 8.60217 7.65804 8.22064 7.93934 7.93934C8.22065 7.65803 8.60218 7.5 9 7.5ZM9 6.5C8.50555 6.5 8.0222 6.64662 7.61108 6.92133C7.19995 7.19603 6.87952 7.58648 6.6903 8.04329C6.50108 8.50011 6.45157 9.00277 6.54804 9.48773C6.6445 9.97268 6.8826 10.4181 7.23223 10.7678C7.58187 11.1174 8.02732 11.3555 8.51228 11.452C8.99723 11.5484 9.49989 11.4989 9.95671 11.3097C10.4135 11.1205 10.804 10.8 11.0787 10.3889C11.3534 9.9778 11.5 9.49445 11.5 9C11.5 8.33696 11.2366 7.70107 10.7678 7.23223C10.2989 6.76339 9.66304 6.5 9 6.5Z" fill="#148AFF"/>
<path fill-rule="evenodd" clip-rule="evenodd" d="M9 3.5C10.0878 3.5 11.1512 3.82257 12.0556 4.42692C12.9601 5.03126 13.6651 5.89025 14.0813 6.89524C14.4976 7.90023 14.6065 9.0061 14.3943 10.073C14.1821 11.1399 13.6583 12.1199 12.8891 12.8891C12.1199 13.6583 11.1399 14.1821 10.073 14.3943C9.0061 14.6065 7.90023 14.4976 6.89524 14.0813C5.89025 13.6651 5.03126 12.9601 4.42692 12.0556C3.82257 11.1512 3.5 10.0878 3.5 9C3.50066 7.54151 4.08034 6.14295 5.11164 5.11164C6.14295 4.08034 7.54151 3.50066 9 3.5ZM8.5 2.519C6.95379 2.63936 5.50144 3.30815 4.4048 4.4048C3.30815 5.50144 2.63936 6.95379 2.519 8.5H2C1.86739 8.5 1.74021 8.55268 1.64645 8.64645C1.55268 8.74021 1.5 8.86739 1.5 9C1.5 9.13261 1.55268 9.25979 1.64645 9.35355C1.74021 9.44732 1.86739 9.5 2 9.5H2.519C2.63926 11.0462 3.30802 12.4987 4.40468 13.5953C5.50135 14.692 6.95375 15.3607 8.5 15.481V16C8.5 16.1326 8.55268 16.2598 8.64645 16.3536C8.74021 16.4473 8.86739 16.5 9 16.5C9.13261 16.5 9.25979 16.4473 9.35355 16.3536C9.44732 16.2598 9.5 16.1326 9.5 16V15.481C11.0462 15.3606 12.4986 14.6918 13.5952 13.5952C14.6918 12.4986 15.3606 11.0462 15.481 9.5H16C16.1326 9.5 16.2598 9.44732 16.3536 9.35355C16.4473 9.25979 16.5 9.13261 16.5 9C16.5 8.86739 16.4473 8.74021 16.3536 8.64645C16.2598 8.55268 16.1326 8.5 16 8.5H15.481C15.3607 6.95375 14.692 5.50135 13.5953 4.40468C12.4987 3.30802 11.0462 2.63926 9.5 2.519V2C9.5 1.86739 9.44732 1.74021 9.35355 1.64645C9.25979 1.55268 9.13261 1.5 9 1.5C8.86739 1.5 8.74021 1.55268 8.64645 1.64645C8.55268 1.74021 8.5 1.86739 8.5 2V2.519Z" fill="#148AFF"/>
</svg>
