<svg xmlns="http://www.w3.org/2000/svg" width="16.418" height="14.688" viewBox="0 0 16.418 14.688">
  <g id="noun_Alert_1864086" transform="translate(-5.015 -9.755)">
    <path id="Path_43953" data-name="Path 43953" d="M14.742,10.632a1.753,1.753,0,0,0-3.036,0L5.25,21.814a1.753,1.753,0,0,0,1.518,2.629H19.68A1.753,1.753,0,0,0,21.2,21.814ZM20.25,23.019a.647.647,0,0,1-.57.329H6.768a.658.658,0,0,1-.57-.987l6.456-11.182a.658.658,0,0,1,1.14,0L20.25,22.361a.647.647,0,0,1,0,.658Z" transform="translate(0 0)" fill="#148AFF"/>
    <path id="Path_43954" data-name="Path 43954" d="M47.548,37.352A.547.547,0,0,0,48.1,36.8V31.977a.547.547,0,1,0-1.095,0V36.8a.547.547,0,0,0,.547.547Z" transform="translate(-34.323 -17.719)" fill="#148AFF"/>
    <path id="Path_43955" data-name="Path 43955" d="M47.4,69.917a.579.579,0,1,0,.579.579.579.579,0,0,0-.579-.579Z" transform="translate(-34.18 -49.183)" fill="#148AFF"/>
  </g>
</svg>
