<svg id="Group_6353" data-name="Group 6353" xmlns="http://www.w3.org/2000/svg" width="32" height="32" viewBox="0 0 32 32">
  <rect id="Rectangle_16548" data-name="Rectangle 16548" width="32" height="32" fill="none" opacity="0"/>
  <g id="loan-2" transform="translate(-11 4.106)">
    <g id="Group_40012" data-name="Group 40012" transform="translate(21.289)">
      <g id="Group_40011" data-name="Group 40011">
        <path id="Path_43906" data-name="Path 43906" d="M140.313,0a7.292,7.292,0,1,0,7.234,7.292A7.271,7.271,0,0,0,140.313,0Zm0,13.19a5.9,5.9,0,1,1,5.84-5.9A5.876,5.876,0,0,1,140.313,13.19Z" transform="translate(-133.079)" fill="#fff"/>
        <path id="Path_43909" data-name="Path 43909" d="M1.263-5.807a2.185,2.185,0,0,1-.224.763,2.331,2.331,0,0,1-.442.6,2.517,2.517,0,0,1-.606.436,3.467,3.467,0,0,1-.7.273L2.184.081H.8L-1.342-2.766a3.36,3.36,0,0,0-.636-.685.989.989,0,0,0-.6-.212v-.885h.715A4.619,4.619,0,0,0-1.142-4.6,2.129,2.129,0,0,0-.518-4.8a1.341,1.341,0,0,0,.466-.382,1.187,1.187,0,0,0,.224-.63H-2.8l.364-.715H.124a1.4,1.4,0,0,0-.473-.8,1.587,1.587,0,0,0-.981-.327H-2.8l.364-.715H2.887l-.363.715H.754a2.03,2.03,0,0,1,.5,1.127H2.887l-.363.715Z" transform="translate(7.189 11.884)" fill="#fff"/>
      </g>
    </g>
    <path id="Path_43908" data-name="Path 43908" d="M37.954,318.257a3.349,3.349,0,0,0-4.731,0l-2.091,2.091H30.14a3.415,3.415,0,0,0,.673-2.039.7.7,0,0,0-.7-.7H27.8a5.47,5.47,0,0,1-2.251-.706,7.2,7.2,0,0,0-2.615-.84,7.368,7.368,0,0,0-2.541.277,2.253,2.253,0,0,0-1.611,1.961H16.539a.7.7,0,0,0-.7.7v5.456a.7.7,0,0,0,.7.7H30.764a3.067,3.067,0,0,0,2.182-.9l5.007-5.007A.7.7,0,0,0,37.954,318.257ZM17.236,319.7h1.539v4.062H17.236Zm14.725,3.566a1.682,1.682,0,0,1-1.2.5H20.169v-5.269a.85.85,0,0,1,.612-.809,5.979,5.979,0,0,1,2.062-.226,6.066,6.066,0,0,1,2.113.709,6.591,6.591,0,0,0,2.847.84H29.3a2.043,2.043,0,0,1-1.82,1.34c-.024,0-3.6,0-3.6,0a.7.7,0,1,0,0,1.394l7.543.006a.7.7,0,0,0,.493-.2l2.3-2.3a1.956,1.956,0,0,1,2.177-.4Z" transform="translate(0 -301.366)" fill="#fff"/>
  </g>
</svg>
