<?xml version="1.0" encoding="utf-8"?>
<!-- Generator: Adobe Illustrator 23.0.1, SVG Export Plug-In . SVG Version: 6.00 Build 0)  -->
<svg version="1.1" id="Layer_1" xmlns="http://www.w3.org/2000/svg" xmlns:xlink="http://www.w3.org/1999/xlink" x="0px" y="0px"
	 viewBox="0 0 16 16" style="enable-background:new 0 0 16 16;" xml:space="preserve">
<style type="text/css">
	.st0{fill-opacity:0;}
	.st1{fill:#04602E;}
</style>
<g transform="translate(-1982 643) rotate(90)">
	
		<rect x="-643" y="-1998" transform="matrix(2.535182e-06 1 -1 2.535182e-06 -2624.9983 -1354.995)" class="st0" width="16" height="16"/>
	<g transform="translate(-637.058 -1994.105)">
		<g>
			<path class="st1" d="M4.3,3.7L0.7,0.1C0.5,0,0.3,0,0.1,0.1S0,0.5,0.1,0.7l0,0L3.4,4L0.1,7.3C0,7.4,0,7.7,0.1,7.9
				C0.3,8,0.5,8,0.7,7.9l0,0l3.6-3.6C4.4,4.1,4.4,3.9,4.3,3.7z"/>
			<path class="st1" d="M4.6,4c0,0.2-0.1,0.3-0.2,0.5L0.9,8C0.6,8.3,0.2,8.3-0.1,8c-0.3-0.3-0.3-0.7,0-0.9L3.1,4l-3.1-3.1
				c-0.1-0.1-0.2-0.3-0.2-0.5v0c0-0.2,0.1-0.3,0.2-0.5c0.3-0.3,0.7-0.3,0.9,0l3.6,3.6C4.6,3.7,4.6,3.8,4.6,4z M0.2,7.6
				c0,0,0,0.1,0,0.1c0.1,0.1,0.2,0.1,0.2,0l3.6-3.6c0.1-0.1,0.1-0.2,0-0.2L0.5,0.3c-0.1-0.1-0.2-0.1-0.2,0c-0.1,0.1-0.1,0.2,0,0.2
				L3.8,4L0.3,7.5C0.3,7.5,0.2,7.5,0.2,7.6z"/>
		</g>
	</g>
</g>
</svg>
