<svg width="54" height="54" viewBox="0 0 54 54" fill="none" xmlns="http://www.w3.org/2000/svg">
<path d="M36.6424 20.3229V17.5836C36.6424 17.3222 36.5467 17.0697 36.3735 16.8739C36.2002 16.6781 35.9614 16.5524 35.7019 16.5204L33.4354 16.2413L32.7276 14.5332L34.1308 12.7344C34.2915 12.5283 34.3713 12.2705 34.3552 12.0096C34.3391 11.7487 34.2281 11.5027 34.0432 11.3179L29.8194 7.09406C29.6346 6.90918 29.3886 6.79823 29.1277 6.7821C28.8668 6.76597 28.609 6.84578 28.4028 7.00649L26.6103 8.41478L24.8981 7.70394L24.6189 5.43749C24.5863 5.17907 24.4608 4.94136 24.2657 4.76882C24.0705 4.59628 23.8193 4.50071 23.5588 4.5H17.5836C17.3222 4.50005 17.0697 4.59571 16.8739 4.76896C16.6781 4.9422 16.5524 5.18108 16.5204 5.44058L16.2443 7.70394L14.5332 8.41478L12.7334 7.01061C12.5273 6.8499 12.2695 6.77009 12.0086 6.78622C11.7477 6.80235 11.5017 6.9133 11.3169 7.09818L7.09303 11.322C6.90815 11.5068 6.7972 11.7528 6.78107 12.0137C6.76494 12.2746 6.84475 12.5324 7.00546 12.7386L8.41478 14.5332L7.70497 16.2443L5.43852 16.5235C5.17992 16.5559 4.94196 16.6813 4.76921 16.8765C4.59645 17.0716 4.50074 17.323 4.5 17.5836V23.5588C4.50005 23.8203 4.59571 24.0727 4.76896 24.2685C4.9422 24.4643 5.18108 24.5901 5.44058 24.622L7.70703 24.9012L8.41478 26.6103L7.01061 28.409C6.8499 28.6152 6.77009 28.873 6.78622 29.1339C6.80235 29.3948 6.9133 29.6408 7.09818 29.8256L11.322 34.0494C11.5068 34.2343 11.7528 34.3452 12.0137 34.3614C12.2746 34.3775 12.5324 34.2977 12.7386 34.137L14.5332 32.7276L16.2454 33.4364L16.5246 35.7029C16.5566 35.9615 16.6819 36.1996 16.8768 36.3725C17.0717 36.5454 17.323 36.6414 17.5836 36.6424H20.3198C20.6545 39.3657 21.7474 41.9402 23.4742 44.0724C25.201 46.2047 27.4921 47.8089 30.0864 48.7022C32.6807 49.5955 35.4737 49.7419 38.1472 49.1249C40.8207 48.5078 43.267 47.152 45.2073 45.212C47.1476 43.2721 48.5039 40.826 49.1215 38.1527C49.7391 35.4793 49.5931 32.6862 48.7003 30.0918C47.8075 27.4973 46.2038 25.2059 44.0718 23.4787C41.9399 21.7515 39.3657 20.6581 36.6424 20.3229ZM18.2945 32.5566C18.2712 32.3686 18.1985 32.1901 18.0837 32.0394C17.969 31.8886 17.8163 31.771 17.6413 31.6985L14.7763 30.5117C14.6013 30.4393 14.4102 30.4146 14.2225 30.4401C14.0349 30.4657 13.8573 30.5405 13.708 30.6569L12.1627 31.8612L9.2781 28.9767L10.4824 27.4314C10.5989 27.282 10.6737 27.1045 10.6992 26.9168C10.7247 26.7291 10.7 26.5381 10.6277 26.363L9.44499 23.5011C9.37247 23.3261 9.25483 23.1734 9.10408 23.0587C8.95332 22.944 8.77484 22.8712 8.58683 22.848L6.64283 22.6079V18.5345L8.58683 18.2945C8.77484 18.2712 8.95332 18.1985 9.10408 18.0837C9.25483 17.969 9.37247 17.8163 9.44499 17.6413L10.6318 14.7763C10.7042 14.6013 10.7288 14.4102 10.7033 14.2225C10.6778 14.0349 10.603 13.8573 10.4865 13.708L9.28222 12.1627L12.1668 9.2781L13.7121 10.4824C13.8614 10.5989 14.039 10.6737 14.2267 10.6992C14.4143 10.7247 14.6054 10.7 14.7804 10.6277L17.6413 9.44499C17.8163 9.37247 17.969 9.25483 18.0837 9.10408C18.1985 8.95332 18.2712 8.77484 18.2945 8.58683L18.5345 6.64386H22.6079L22.848 8.58786C22.8712 8.77587 22.944 8.95436 23.0587 9.10511C23.1734 9.25586 23.3261 9.3735 23.5011 9.44602L26.3661 10.6328C26.5411 10.7052 26.7322 10.7299 26.9199 10.7044C27.1076 10.6788 27.2851 10.604 27.4344 10.4876L28.9798 9.28325L31.8643 12.1678L30.66 13.7131C30.5434 13.8626 30.4684 14.0403 30.4429 14.2282C30.4174 14.4161 30.4422 14.6073 30.5148 14.7825L31.6974 17.6413C31.77 17.8163 31.8876 17.969 32.0384 18.0837C32.1891 18.1985 32.3676 18.2712 32.5556 18.2945L34.4986 18.5345V20.2189C32.4721 20.2661 30.4779 20.7363 28.6439 21.5994C28.8605 19.9121 28.5438 18.1993 27.7382 16.7011C26.9327 15.2028 25.6786 13.994 24.1517 13.2442C22.6248 12.4943 20.9015 12.2409 19.2234 12.5195C17.5452 12.798 15.9962 13.5946 14.7935 14.7975C13.5907 16.0005 12.7944 17.5496 12.516 19.2278C12.2377 20.906 12.4914 22.6292 13.2415 24.156C13.9916 25.6828 15.2005 26.9367 16.6989 27.7421C18.1973 28.5474 19.9101 28.8638 21.5973 28.647C20.7343 30.4807 20.2641 32.4746 20.2168 34.5006H18.5345L18.2945 32.5566ZM23.2498 25.9417C21.9754 26.5775 20.5165 26.7394 19.1338 26.3982C17.7511 26.0571 16.5348 25.2353 15.7024 24.0797C14.8701 22.9241 14.4759 21.5101 14.5904 20.0905C14.705 18.671 15.3207 17.3384 16.3275 16.3312C17.3344 15.324 18.6667 14.7077 20.0862 14.5927C21.5057 14.4776 22.9198 14.8712 24.0757 15.7031C25.2317 16.5351 26.054 17.751 26.3956 19.1336C26.7373 20.5162 26.576 21.9752 25.9406 23.2498C24.9314 24.0269 24.0269 24.9314 23.2498 25.9406V25.9417ZM34.8571 47.3566C32.3849 47.3566 29.9683 46.6235 27.9127 45.25C25.8572 43.8766 24.2551 41.9244 23.3091 39.6404C22.363 37.3564 22.1155 34.8432 22.5978 32.4186C23.0801 29.9939 24.2705 27.7667 26.0186 26.0186C27.7667 24.2705 29.9939 23.0801 32.4186 22.5978C34.8432 22.1155 37.3564 22.363 39.6404 23.3091C41.9244 24.2551 43.8766 25.8572 45.25 27.9127C46.6235 29.9683 47.3566 32.3849 47.3566 34.8571C47.3528 38.171 46.0346 41.3481 43.6913 43.6913C41.3481 46.0346 38.171 47.3528 34.8571 47.3566Z" fill="#148AFF"/>
<path d="M43.4295 32.3579H41.6431V31.2865C41.6431 29.4867 40.9282 27.7607 39.6556 26.4881C38.3829 25.2154 36.6569 24.5005 34.8571 24.5005C33.0574 24.5005 31.3314 25.2154 30.0588 26.4881C28.7861 27.7607 28.0712 29.4867 28.0712 31.2865V32.3579H26.2858C25.8125 32.3584 25.3587 32.5467 25.024 32.8814C24.6893 33.2161 24.501 33.6699 24.5005 34.1432V37.8932C24.501 38.3192 24.6705 38.7277 24.9718 39.029C25.2731 39.3303 25.6815 39.4997 26.1076 39.5003H28.0722V39.8578C28.073 40.71 28.4119 41.5271 29.0145 42.1297C29.6172 42.7323 30.4342 43.0712 31.2865 43.072H36.286C36.5702 43.072 36.8427 42.9591 37.0436 42.7582C37.2446 42.5573 37.3575 42.2848 37.3575 42.0006C37.3575 41.7164 37.2446 41.4439 37.0436 41.243C36.8427 41.0421 36.5702 40.9292 36.286 40.9292H31.2865C31.0024 40.9289 30.73 40.816 30.5292 40.6151C30.3283 40.4142 30.2153 40.1418 30.215 39.8578V31.2865C30.2059 30.671 30.3192 30.0598 30.5484 29.4885C30.7776 28.9172 31.1181 28.3971 31.5501 27.9586C31.9821 27.5201 32.497 27.1719 33.0648 26.9342C33.6327 26.6966 34.2421 26.5742 34.8577 26.5742C35.4732 26.5742 36.0827 26.6966 36.6505 26.9342C37.2183 27.1719 37.7332 27.5201 38.1652 27.9586C38.5972 28.3971 38.9378 28.9172 39.167 29.4885C39.3962 30.0598 39.5095 30.671 39.5003 31.2865V38.4289C39.5003 38.713 39.6132 38.9855 39.8141 39.1865C40.015 39.3874 40.2876 39.5003 40.5717 39.5003H43.6077C44.0338 39.4997 44.4423 39.3303 44.7435 39.029C45.0448 38.7277 45.2143 38.3192 45.2148 37.8932V34.1432C45.2143 33.6699 45.026 33.2161 44.6913 32.8814C44.3566 32.5467 43.9028 32.3584 43.4295 32.3579ZM26.6433 34.5007H28.0722V37.3575H26.6433V34.5007ZM43.072 37.3575H41.6431V34.5007H43.072V37.3575Z" fill="#148AFF"/>
</svg>
