<svg xmlns="http://www.w3.org/2000/svg" width="24" height="24" viewBox="0 0 24 24">
  <g id="broadband" transform="translate(643 1998)">
    <g id="Group_40173" data-name="Group 40173">
      <g id="Group_40174" data-name="Group 40174" opacity="0">
        <rect id="Rectangle_982" data-name="Rectangle 982" width="24" height="24" transform="translate(-643 -1998)" fill="#148AFF"/>
        <rect id="Rectangle_983" data-name="Rectangle 983" width="20" height="20" transform="translate(-641 -1996)" fill="#148AFF"/>
      </g>
      <g id="wireless-router" transform="translate(-642.098 -1999.099)">
        <path id="Subtraction_23" data-name="Subtraction 23" d="M14059.452-12811.015H14042.7a.5.5,0,0,1-.5-.5v-4.785a.5.5,0,0,1,.5-.5h16.754a.5.5,0,0,1,.5.5v4.785A.5.5,0,0,1,14059.452-12811.015Zm-16.256-4.789v3.79h15.759v-3.79Z" transform="translate(-14040.1 12832.073)" fill="#148AFF"/>
        <path id="Subtraction_30" data-name="Subtraction 30" d="M14042.7-12809.818a.5.5,0,0,1-.5-.5v-5.984a.5.5,0,0,1,.5-.5.5.5,0,0,1,.5.5v5.984A.5.5,0,0,1,14042.7-12809.818Z" transform="translate(-14028.73 12826.089)" fill="#148AFF"/>
        <path id="Subtraction_26" data-name="Subtraction 26" d="M14042.7-12807.426a.5.5,0,0,1-.462-.307.5.5,0,0,1,.109-.546,5.444,5.444,0,0,0,0-7.671.5.5,0,0,1-.148-.353.491.491,0,0,1,.148-.353.489.489,0,0,1,.353-.147.5.5,0,0,1,.353.147,6.442,6.442,0,0,1,0,9.081A.5.5,0,0,1,14042.7-12807.426Z" transform="translate(-14025.141 12821.9)" fill="#148AFF"/>
        <path id="Subtraction_27" data-name="Subtraction 27" d="M14042.7-12811.615a.5.5,0,0,1-.462-.307.5.5,0,0,1,.109-.543,2.467,2.467,0,0,0,0-3.482.5.5,0,0,1-.148-.353.485.485,0,0,1,.148-.353.485.485,0,0,1,.353-.148.5.5,0,0,1,.353.148,3.469,3.469,0,0,1,0,4.893A.522.522,0,0,1,14042.7-12811.615Z" transform="translate(-14026.937 12823.995)" fill="#148AFF"/>
        <path id="Subtraction_29" data-name="Subtraction 29" d="M14044.425-12807.428a.481.481,0,0,1-.35-.145,6.432,6.432,0,0,1,0-9.08.482.482,0,0,1,.35-.148.485.485,0,0,1,.353.148.5.5,0,0,1,0,.705,5.443,5.443,0,0,0,0,7.67.5.5,0,0,1,.109.543A.5.5,0,0,1,14044.425-12807.428Z" transform="translate(-14034.049 12821.9)" fill="#148AFF"/>
        <path id="Subtraction_28" data-name="Subtraction 28" d="M14043.561-12811.617a.482.482,0,0,1-.353-.145,3.444,3.444,0,0,1-1.011-2.447,3.434,3.434,0,0,1,1.011-2.444.5.5,0,0,1,.353-.148.491.491,0,0,1,.353.148.5.5,0,0,1,0,.705,2.471,2.471,0,0,0,0,3.482.5.5,0,0,1,.109.542A.5.5,0,0,1,14043.561-12811.617Z" transform="translate(-14031.389 12823.995)" fill="#148AFF"/>
        <path id="Subtraction_25" data-name="Subtraction 25" d="M14044.493-12815.806h-1.794a.5.5,0,0,1-.5-.5.5.5,0,0,1,.5-.5h1.794a.5.5,0,0,1,.5.5A.5.5,0,0,1,14044.493-12815.806Z" transform="translate(-14038.305 12833.868)" fill="#148AFF"/>
        <path id="Subtraction_24" data-name="Subtraction 24" d="M14043.295-12815.8h-.6a.5.5,0,0,1-.5-.5.5.5,0,0,1,.5-.5h.6a.5.5,0,0,1,.5.5A.5.5,0,0,1,14043.295-12815.8Z" transform="translate(-14034.714 12833.868)" fill="#148AFF"/>
      </g>
    </g>
  </g>
</svg>
