<svg width="54" height="54" viewBox="0 0 54 54" fill="none" xmlns="http://www.w3.org/2000/svg">
<path d="M49.1819 15.2651V40.5894C49.1808 41.5696 48.7909 42.5094 48.0978 43.2026C47.4047 43.8957 46.4649 44.2856 45.4846 44.2866H8.51512C7.53488 44.2856 6.59509 43.8957 5.90195 43.2026C5.20881 42.5094 4.81894 41.5696 4.81787 40.5894V29.4986C4.82493 29.3073 4.9059 29.1262 5.04374 28.9933C5.18159 28.8605 5.36557 28.7863 5.55702 28.7863C5.74846 28.7863 5.93245 28.8605 6.0703 28.9933C6.20814 29.1262 6.28911 29.3073 6.29617 29.4986V40.5894C6.29803 41.176 6.53187 41.738 6.94666 42.1528C7.36145 42.5676 7.92349 42.8015 8.51009 42.8033H45.4846C46.0712 42.8015 46.6333 42.5676 47.048 42.1528C47.4628 41.738 47.6967 41.176 47.6985 40.5894V15.2651C47.6967 14.6785 47.4628 14.1165 47.048 13.7017C46.6333 13.2869 46.0712 13.0531 45.4846 13.0512H8.51512C7.92853 13.0531 7.36648 13.2869 6.95169 13.7017C6.53691 14.1165 6.30306 14.6785 6.3012 15.2651V18.2227H44.1905C44.3818 18.2298 44.5629 18.3107 44.6958 18.4486C44.8286 18.5864 44.9029 18.7704 44.9029 18.9619C44.9029 19.1533 44.8286 19.3373 44.6958 19.4752C44.5629 19.613 44.3818 19.694 44.1905 19.701H6.29617V24.5072H44.1905C44.2898 24.5036 44.3889 24.52 44.4818 24.5555C44.5747 24.591 44.6594 24.6448 44.731 24.7138C44.8026 24.7828 44.8596 24.8655 44.8985 24.9571C44.9374 25.0486 44.9574 25.147 44.9574 25.2464C44.9574 25.3458 44.9374 25.4442 44.8985 25.5357C44.8596 25.6272 44.8026 25.71 44.731 25.779C44.6594 25.848 44.5747 25.9018 44.4818 25.9373C44.3889 25.9728 44.2898 25.9892 44.1905 25.9855H5.55752C5.36153 25.9855 5.17355 25.9078 5.03487 25.7693C4.89618 25.6308 4.81814 25.4429 4.81787 25.2469V15.2651C4.81894 14.2849 5.20881 13.3451 5.90195 12.652C6.59509 11.9588 7.53488 11.5689 8.51512 11.5679H45.4846C46.4649 11.5689 47.4047 11.9588 48.0978 12.652C48.7909 13.3451 49.1808 14.2849 49.1819 15.2651ZM43.2667 34.486C43.2651 34.0546 43.1475 33.6315 42.9262 33.2611C42.7049 32.8908 42.388 32.5867 42.0088 32.3809C41.6296 32.1751 41.2021 32.0751 40.7709 32.0914C40.3398 32.1076 39.921 32.2396 39.5583 32.4733C40.0602 33.2971 40.2374 34.2781 40.0553 35.2253C39.8733 36.1726 39.3451 37.0181 38.5737 37.5971C37.8022 38.1761 36.8428 38.4471 35.8825 38.3574C34.9221 38.2676 34.0296 37.8235 33.3788 37.1115C32.728 36.3996 32.3656 35.4709 32.3623 34.5063C32.3589 33.5418 32.7148 32.6105 33.3607 31.8941C34.0065 31.1776 34.8959 30.7273 35.8556 30.6309C36.8153 30.5344 37.7766 30.7988 38.552 31.3724C39.0452 31.0066 39.6182 30.7631 40.2238 30.6618C40.8294 30.5605 41.4504 30.6043 42.0358 30.7897C42.6212 30.975 43.1542 31.2966 43.5912 31.728C44.0281 32.1595 44.3565 32.6884 44.5493 33.2714C44.7421 33.8543 44.7938 34.4747 44.7002 35.0816C44.6066 35.6885 44.3704 36.2645 44.0109 36.7623C43.6515 37.2601 43.179 37.6655 42.6324 37.9452C42.0858 38.225 41.4806 38.3711 40.8666 38.3714C40.6753 38.3644 40.4941 38.2834 40.3613 38.1456C40.2284 38.0077 40.1542 37.8237 40.1542 37.6323C40.1542 37.4408 40.2284 37.2569 40.3613 37.119C40.4941 36.9812 40.6753 36.9002 40.8666 36.8931C41.5033 36.8915 42.1135 36.6376 42.5634 36.187C43.0132 35.7363 43.2661 35.1258 43.2667 34.489V34.486ZM38.6456 34.486C38.6456 34.0107 38.5047 33.5461 38.2406 33.1509C37.9766 32.7557 37.6012 32.4477 37.1621 32.2658C36.723 32.0839 36.2398 32.0363 35.7737 32.1291C35.3075 32.2218 34.8793 32.4507 34.5432 32.7867C34.2072 33.1228 33.9783 33.551 33.8856 34.0172C33.7928 34.4833 33.8404 34.9665 34.0223 35.4056C34.2042 35.8447 34.5122 36.2201 34.9074 36.4841C35.3026 36.7482 35.7672 36.8891 36.2425 36.8891C36.8791 36.8883 37.4894 36.6353 37.9398 36.1854C38.3902 35.7356 38.644 35.1256 38.6456 34.489V34.486ZM11.5603 32.9181H17.7532C17.8526 32.9218 17.9517 32.9054 18.0445 32.8699C18.1374 32.8344 18.2222 32.7806 18.2938 32.7116C18.3654 32.6426 18.4223 32.5598 18.4612 32.4683C18.5001 32.3768 18.5201 32.2784 18.5201 32.179C18.5201 32.0796 18.5001 31.9812 18.4612 31.8897C18.4223 31.7981 18.3654 31.7154 18.2938 31.6464C18.2222 31.5774 18.1374 31.5236 18.0445 31.4881C17.9517 31.4526 17.8526 31.4362 17.7532 31.4398H11.5603C11.4609 31.4362 11.3618 31.4526 11.269 31.4881C11.1761 31.5236 11.0913 31.5774 11.0197 31.6464C10.9481 31.7154 10.8912 31.7981 10.8523 31.8897C10.8134 31.9812 10.7933 32.0796 10.7933 32.179C10.7933 32.2784 10.8134 32.3768 10.8523 32.4683C10.8912 32.5598 10.9481 32.6426 11.0197 32.7116C11.0913 32.7806 11.1761 32.8344 11.269 32.8699C11.3618 32.9054 11.4609 32.9218 11.5603 32.9181ZM11.5603 37.5392H17.7532C17.9445 37.5321 18.1257 37.4512 18.2585 37.3133C18.3914 37.1755 18.4656 36.9915 18.4656 36.8001C18.4656 36.6086 18.3914 36.4246 18.2585 36.2868C18.1257 36.1489 17.9445 36.068 17.7532 36.0609H11.5603C11.369 36.068 11.1878 36.1489 11.055 36.2868C10.9221 36.4246 10.8479 36.6086 10.8479 36.8001C10.8479 36.9915 10.9221 37.1755 11.055 37.3133C11.1878 37.4512 11.369 37.5321 11.5603 37.5392Z" fill="#148AFF"/>
<path d="M8.51525 11.25H45.4847C46.5493 11.2511 47.57 11.6744 48.3228 12.4272C49.0756 13.18 49.4989 14.2007 49.5 15.2652V40.5845C49.4989 41.6491 49.0756 42.6697 48.3228 43.4225C47.57 44.1753 46.5493 44.5987 45.4847 44.5997H8.51525C7.45067 44.5987 6.42999 44.1753 5.67722 43.4225C4.92444 42.6697 4.50107 41.6491 4.5 40.5845V29.4978C4.51189 29.2255 4.6284 28.9683 4.82526 28.7799C5.02212 28.5914 5.28412 28.4862 5.55665 28.4862C5.82917 28.4862 6.09117 28.5914 6.28803 28.7799C6.48489 28.9683 6.6014 29.2255 6.61329 29.4978V40.5845C6.61303 40.8345 6.66202 41.0821 6.75747 41.3131C6.85292 41.5441 6.99296 41.7541 7.16959 41.931C7.34622 42.1079 7.55597 42.2483 7.78686 42.3441C8.01776 42.4399 8.26527 42.4893 8.51525 42.4895H45.4847C45.9893 42.4887 46.4728 42.2875 46.8291 41.9303C47.1854 41.5731 47.3852 41.089 47.3847 40.5845V15.2652C47.3839 14.7616 47.1835 14.2788 46.8273 13.9227C46.4712 13.5665 45.9884 13.3661 45.4847 13.3653H8.51525C8.01142 13.3658 7.52837 13.5661 7.17202 13.9223C6.81566 14.2785 6.6151 14.7614 6.6143 15.2652V17.9049H44.1906C44.4629 17.9167 44.72 18.0333 44.9085 18.2301C45.0969 18.427 45.2021 18.689 45.2021 18.9615C45.2021 19.234 45.0969 19.496 44.9085 19.6929C44.72 19.8897 44.4629 20.0063 44.1906 20.0181H6.6143V24.1884H44.1906C44.4629 24.2003 44.72 24.3168 44.9085 24.5136C45.0969 24.7105 45.2021 24.9725 45.2021 25.245C45.2021 25.5175 45.0969 25.7795 44.9085 25.9764C44.72 26.1733 44.4629 26.2898 44.1906 26.3017H5.55665C5.27692 26.3011 5.00877 26.1899 4.81078 25.9923C4.61279 25.7947 4.50106 25.5267 4.5 25.247V15.2652C4.50107 14.2007 4.92444 13.18 5.67722 12.4272C6.42999 11.6744 7.45067 11.2511 8.51525 11.25ZM45.4847 43.9688C46.3815 43.9677 47.2412 43.6106 47.8748 42.976C48.5085 42.3415 48.8643 41.4813 48.864 40.5845V15.2652C48.8629 14.3693 48.5066 13.5104 47.8731 12.8769C47.2396 12.2434 46.3807 11.8871 45.4847 11.886H8.51525C7.61935 11.8871 6.76044 12.2434 6.12694 12.8769C5.49343 13.5104 5.13706 14.3693 5.136 15.2652V25.247C5.136 25.3589 5.18042 25.4661 5.2595 25.5452C5.33857 25.6243 5.44582 25.6687 5.55765 25.6687H44.1906C44.3024 25.6687 44.4097 25.6243 44.4888 25.5452C44.5678 25.4661 44.6123 25.3589 44.6123 25.247C44.6123 25.1352 44.5678 25.028 44.4888 24.9489C44.4097 24.8698 44.3024 24.8254 44.1906 24.8254H5.9783V19.3831H44.1906C44.3024 19.3831 44.4097 19.3387 44.4888 19.2596C44.5678 19.1806 44.6123 19.0733 44.6123 18.9615C44.6123 18.8497 44.5678 18.7424 44.4888 18.6633C44.4097 18.5843 44.3024 18.5398 44.1906 18.5398H5.9783V15.2652C5.9791 14.5929 6.24653 13.9484 6.72194 13.4729C7.19735 12.9975 7.84191 12.7301 8.51425 12.7293H45.4847C46.1571 12.7301 46.8016 12.9975 47.2771 13.4729C47.7525 13.9484 48.0199 14.5929 48.0207 15.2652V40.5845C48.0199 41.2568 47.7525 41.9014 47.2771 42.3768C46.8016 42.8522 46.1571 43.1196 45.4847 43.1204H8.51525C7.84292 43.1196 7.19836 42.8522 6.72295 42.3768C6.24754 41.9014 5.9801 41.2568 5.9793 40.5845V29.4978C5.9793 29.3859 5.93488 29.2787 5.8558 29.1996C5.77673 29.1205 5.66948 29.0761 5.55765 29.0761C5.44582 29.0761 5.33857 29.1205 5.2595 29.1996C5.18042 29.2787 5.136 29.3859 5.136 29.4978V40.5845C5.13573 41.4813 5.49151 42.3415 6.12516 42.976C6.75881 43.6106 7.61847 43.9677 8.51525 43.9688H45.4847ZM36.2648 30.2827C37.0798 30.2833 37.8763 30.5261 38.5532 30.9801C39.231 30.5267 40.028 30.2844 40.8436 30.2837C41.9312 30.2896 42.9761 30.7075 43.768 31.4531C44.1807 31.8423 44.5087 32.3124 44.7316 32.8341C44.9544 33.3558 45.0673 33.9178 45.0631 34.4851C45.0618 35.5985 44.6189 36.6658 43.8316 37.4531C43.0444 38.2403 41.977 38.6832 40.8637 38.6845C40.5914 38.6726 40.3343 38.5561 40.1458 38.3593C39.9574 38.1624 39.8522 37.9004 39.8522 37.6279C39.8522 37.3554 39.9574 37.0934 40.1458 36.8965C40.3343 36.6996 40.5914 36.5831 40.8637 36.5712C41.1376 36.5706 41.4088 36.5161 41.6617 36.4107C41.9145 36.3053 42.1442 36.1512 42.3375 35.957C42.5308 35.7629 42.6839 35.5326 42.7882 35.2793C42.8925 35.0259 42.9459 34.7545 42.9453 34.4806C42.9447 34.2066 42.8901 33.9355 42.7847 33.6826C42.6794 33.4297 42.5252 33.2001 42.3311 33.0068C42.1369 32.8135 41.9066 32.6604 41.6533 32.5561C41.4 32.4518 41.1286 32.3984 40.8546 32.399C40.5562 32.3996 40.2615 32.4656 39.9912 32.5922C40.313 33.2327 40.4657 33.9447 40.4349 34.6608C40.4041 35.3769 40.1908 36.0732 39.8152 36.6837C39.4397 37.2941 38.9143 37.7985 38.2891 38.1488C37.6638 38.4992 36.9594 38.684 36.2426 38.6855C35.1293 38.6842 34.0619 38.2413 33.2747 37.4541C32.4874 36.6668 32.0445 35.5995 32.0432 34.4861C32.039 33.9184 32.1521 33.3558 32.3753 32.8338C32.5985 32.3117 32.927 31.8413 33.3404 31.452C34.1331 30.7083 35.1778 30.292 36.2648 30.2867V30.2827ZM38.5532 31.764L38.363 31.6282C37.7579 31.1723 37.0213 30.9251 36.2638 30.9237C35.3386 30.9294 34.4499 31.285 33.7761 31.919C33.4261 32.2492 33.1479 32.648 32.959 33.0906C32.7701 33.5332 32.6745 34.01 32.6782 34.4912C32.6793 35.4362 33.0552 36.3422 33.7234 37.0104C34.3916 37.6786 35.2976 38.0545 36.2426 38.0556C36.8754 38.0549 37.4966 37.8859 38.0425 37.5659C38.5885 37.246 39.0395 36.7866 39.3493 36.2348C39.6591 35.6831 39.8166 35.0589 39.8056 34.4262C39.7946 33.7935 39.6156 33.1751 39.2868 32.6345L39.1258 32.3698L39.3864 32.2018C39.8233 31.917 40.3331 31.7646 40.8546 31.763C41.5764 31.7618 42.2692 32.0474 42.7804 32.5569C43.2917 33.0665 43.5796 33.7583 43.5808 34.4801C43.582 35.2019 43.2964 35.8946 42.7868 36.4059C42.2773 36.9171 41.5855 37.205 40.8637 37.2062C40.7519 37.2062 40.6446 37.2507 40.5655 37.3297C40.4865 37.4088 40.442 37.5161 40.442 37.6279C40.442 37.7397 40.4865 37.847 40.5655 37.926C40.6446 38.0051 40.7519 38.0495 40.8637 38.0495C41.8087 38.0485 42.7147 37.6726 43.3829 37.0044C44.0512 36.3361 44.427 35.4301 44.4281 34.4851C44.4316 34.0043 44.336 33.528 44.1473 33.0858C43.9586 32.6436 43.6808 32.2451 43.3312 31.915C42.6576 31.2806 41.7688 30.925 40.8436 30.9197C40.0855 30.9219 39.3485 31.169 38.7423 31.6241L38.5532 31.764ZM11.5644 31.125H17.7574C17.9 31.1188 18.0424 31.1415 18.1761 31.1918C18.3097 31.2421 18.4317 31.3189 18.5349 31.4176C18.638 31.5164 18.7201 31.635 18.7762 31.7663C18.8322 31.8976 18.8612 32.0389 18.8612 32.1816C18.8612 32.3244 18.8322 32.4657 18.7762 32.597C18.7201 32.7283 18.638 32.8469 18.5349 32.9456C18.4317 33.0444 18.3097 33.1212 18.1761 33.1715C18.0424 33.2218 17.9 33.2445 17.7574 33.2383H11.5644C11.4218 33.2445 11.2794 33.2218 11.1457 33.1715C11.0121 33.1212 10.8901 33.0444 10.7869 32.9456C10.6838 32.8469 10.6017 32.7283 10.5456 32.597C10.4896 32.4657 10.4606 32.3244 10.4606 32.1816C10.4606 32.0389 10.4896 31.8976 10.5456 31.7663C10.6017 31.635 10.6838 31.5164 10.7869 31.4176C10.8901 31.3189 11.0121 31.2421 11.1457 31.1918C11.2794 31.1415 11.4218 31.1188 11.5644 31.125ZM17.7574 32.6033C17.8127 32.6033 17.8676 32.5924 17.9187 32.5712C17.9699 32.55 18.0164 32.5189 18.0555 32.4798C18.0947 32.4406 18.1257 32.3942 18.1469 32.343C18.1681 32.2918 18.179 32.237 18.179 32.1816C18.179 32.1263 18.1681 32.0714 18.1469 32.0203C18.1257 31.9691 18.0947 31.9226 18.0555 31.8835C18.0164 31.8443 17.9699 31.8133 17.9187 31.7921C17.8676 31.7709 17.8127 31.76 17.7574 31.76H11.5644C11.5091 31.76 11.4542 31.7709 11.4031 31.7921C11.3519 31.8133 11.3054 31.8443 11.2663 31.8835C11.2271 31.9226 11.1961 31.9691 11.1749 32.0203C11.1537 32.0714 11.1428 32.1263 11.1428 32.1816C11.1428 32.237 11.1537 32.2918 11.1749 32.343C11.1961 32.3942 11.2271 32.4406 11.2663 32.4798C11.3054 32.5189 11.3519 32.55 11.4031 32.5712C11.4542 32.5924 11.5091 32.6033 11.5644 32.6033H17.7574ZM36.2426 31.7711C36.78 31.7711 37.3053 31.9304 37.7522 32.229C38.199 32.5275 38.5472 32.9519 38.7529 33.4484C38.9585 33.9448 39.0123 34.4912 38.9075 35.0182C38.8027 35.5453 38.5439 36.0294 38.1639 36.4094C37.7839 36.7894 37.2998 37.0482 36.7727 37.153C36.2456 37.2579 35.6993 37.2041 35.2028 36.9984C34.7064 36.7928 34.282 36.4445 33.9835 35.9977C33.6849 35.5509 33.5255 35.0255 33.5255 34.4881C33.5266 33.7676 33.8131 33.0768 34.3223 32.567C34.8316 32.0572 35.5221 31.7699 36.2426 31.768V31.7711ZM36.2426 36.5773C36.655 36.5773 37.0582 36.455 37.4011 36.2259C37.7439 35.9968 38.0112 35.6711 38.169 35.2901C38.3268 34.9091 38.3681 34.4899 38.2877 34.0854C38.2072 33.6809 38.0086 33.3094 37.717 33.0178C37.4254 32.7262 37.0539 32.5276 36.6494 32.4471C36.2449 32.3667 35.8257 32.408 35.4447 32.5658C35.0637 32.7236 34.738 32.9908 34.5089 33.3337C34.2798 33.6766 34.1575 34.0798 34.1575 34.4922C34.1588 35.0445 34.379 35.5738 34.7699 35.964C35.1607 36.3543 35.6903 36.5737 36.2426 36.5743V36.5773ZM11.5644 35.743H17.7574C18.0296 35.7549 18.2868 35.8714 18.4753 36.0683C18.6637 36.2652 18.7689 36.5272 18.7689 36.7997C18.7689 37.0722 18.6637 37.3342 18.4753 37.5311C18.2868 37.7279 18.0296 37.8444 17.7574 37.8563H11.5644C11.2922 37.8444 11.035 37.7279 10.8465 37.5311C10.6581 37.3342 10.5529 37.0722 10.5529 36.7997C10.5529 36.5272 10.6581 36.2652 10.8465 36.0683C11.035 35.8714 11.2922 35.7549 11.5644 35.743ZM17.7574 37.2223C17.8692 37.2223 17.9765 37.1779 18.0555 37.0988C18.1346 37.0198 18.179 36.9125 18.179 36.8007C18.179 36.6889 18.1346 36.5816 18.0555 36.5025C17.9765 36.4235 17.8692 36.379 17.7574 36.379H11.5644C11.4526 36.379 11.3453 36.4235 11.2663 36.5025C11.1872 36.5816 11.1428 36.6889 11.1428 36.8007C11.1428 36.9125 11.1872 37.0198 11.2663 37.0988C11.3453 37.1779 11.4526 37.2223 11.5644 37.2223H17.7574Z" fill="#148AFF"/>
</svg>
