<svg xmlns="http://www.w3.org/2000/svg" width="44.716" height="33.144" viewBox="0 0 44.716 33.144">
  <g id="cards" transform="translate(0.35 0.35)">
    <path id="Path_19189" data-name="Path 19189" d="M44.085,66.674V91.839a3.678,3.678,0,0,1-3.674,3.674H3.674A3.678,3.678,0,0,1,0,91.839V80.818a.735.735,0,0,1,1.469,0V91.839a2.207,2.207,0,0,0,2.2,2.2H40.411a2.207,2.207,0,0,0,2.2-2.2V66.674a2.207,2.207,0,0,0-2.2-2.2H3.674a2.207,2.207,0,0,0-2.2,2.2v2.939H39.125a.735.735,0,0,1,0,1.469H1.469v4.776H39.125a.735.735,0,1,1,0,1.469H.735A.735.735,0,0,1,0,76.593V66.674A3.678,3.678,0,0,1,3.674,63H40.411A3.678,3.678,0,0,1,44.085,66.674Zm-5.878,19.1a2.39,2.39,0,0,0-3.685-2,3.857,3.857,0,1,1-1-1.094,3.857,3.857,0,1,1,2.3,6.955.735.735,0,0,1,0-1.469A2.391,2.391,0,0,0,38.207,85.777Zm-4.592,0a2.388,2.388,0,1,0-2.388,2.388A2.391,2.391,0,0,0,33.615,85.777ZM6.7,84.216h6.154a.735.735,0,1,0,0-1.469H6.7a.735.735,0,1,0,0,1.469Zm0,4.592h6.154a.735.735,0,0,0,0-1.469H6.7a.735.735,0,0,0,0,1.469Z" transform="translate(-0.034 -63.034)"/>
    <path id="Path_19189_-_Outline" data-name="Path 19189 - Outline" d="M3.64,62.65H40.377a3.994,3.994,0,0,1,3.99,3.99V91.8a3.994,3.994,0,0,1-3.99,3.99H3.64A3.994,3.994,0,0,1-.35,91.8V80.783a1.051,1.051,0,0,1,2.1,0V91.8A1.891,1.891,0,0,0,3.64,93.693H40.377A1.891,1.891,0,0,0,42.265,91.8V66.64a1.891,1.891,0,0,0-1.888-1.888H3.64A1.891,1.891,0,0,0,1.751,66.64v2.623h37.34a1.051,1.051,0,0,1,0,2.1H1.751v4.144h37.34a1.051,1.051,0,0,1,0,2.1H.7A1.052,1.052,0,0,1-.35,76.559V66.64A3.994,3.994,0,0,1,3.64,62.65ZM40.377,95.163A3.362,3.362,0,0,0,43.735,91.8V66.64a3.362,3.362,0,0,0-3.358-3.358H3.64A3.362,3.362,0,0,0,.282,66.64v9.919a.419.419,0,0,0,.419.419H39.091a.419.419,0,0,0,0-.838H1.119V70.732H39.091a.419.419,0,0,0,0-.838H1.119V66.64a2.523,2.523,0,0,1,2.52-2.52H40.377a2.523,2.523,0,0,1,2.52,2.52V91.8a2.523,2.523,0,0,1-2.52,2.52H3.64a2.523,2.523,0,0,1-2.52-2.52V80.783a.419.419,0,0,0-.838,0V91.8A3.362,3.362,0,0,0,3.64,95.163Zm-9.162-13.6a4.088,4.088,0,0,1,2.274.693,4.1,4.1,0,0,1,2.276-.692,4.273,4.273,0,0,1,2.906,1.162,4.1,4.1,0,0,1,1.287,3.013,4.178,4.178,0,0,1-4.173,4.173,1.051,1.051,0,0,1,0-2.1,2.073,2.073,0,1,0-.009-4.146h0a2.032,2.032,0,0,0-.858.192,4.179,4.179,0,0,1-3.725,6.055,4.178,4.178,0,0,1-4.173-4.173,4.1,4.1,0,0,1,1.289-3.015A4.278,4.278,0,0,1,31.215,81.567Zm2.274,1.472L33.3,82.9a3.477,3.477,0,0,0-2.086-.7,3.64,3.64,0,0,0-2.472.989,3.477,3.477,0,0,0-1.091,2.556,3.546,3.546,0,0,0,3.542,3.542A3.545,3.545,0,0,0,34.218,83.9l-.16-.263.259-.167a2.687,2.687,0,0,1,1.459-.436h0a2.7,2.7,0,1,1,.009,5.409.419.419,0,0,0,0,.838,3.546,3.546,0,0,0,3.542-3.542,3.478,3.478,0,0,0-1.09-2.554,3.636,3.636,0,0,0-2.472-.989,3.494,3.494,0,0,0-2.088.7ZM6.67,82.4h6.154a1.051,1.051,0,1,1,0,2.1H6.67a1.051,1.051,0,1,1,0-2.1Zm6.154,1.469a.419.419,0,1,0,0-.838H6.67a.419.419,0,1,0,0,.838Zm18.369-.827a2.7,2.7,0,1,1-2.7,2.7A2.707,2.707,0,0,1,31.193,83.039Zm0,4.776a2.072,2.072,0,1,0-2.072-2.072A2.074,2.074,0,0,0,31.193,87.815ZM6.67,86.989h6.154a1.051,1.051,0,0,1,0,2.1H6.67a1.051,1.051,0,0,1,0-2.1Zm6.154,1.47a.419.419,0,0,0,0-.838H6.67a.419.419,0,0,0,0,.838Z" transform="translate(0 -63)"/>
  </g>
</svg>
