<svg xmlns="http://www.w3.org/2000/svg" width="24" height="24" viewBox="0 0 24 24">
  <g id="clubs-associations" transform="translate(643 1998)">
    <g id="Group_40177" data-name="Group 40177">
      <g id="Group_40178" data-name="Group 40178" opacity="0">
        <rect id="Rectangle_982" data-name="Rectangle 982" width="24" height="24" transform="translate(-643 -1998)" fill="#148AFF"/>
        <rect id="Rectangle_983" data-name="Rectangle 983" width="20" height="20" transform="translate(-641 -1996)" fill="#148AFF"/>
      </g>
    </g>
    <g id="customer" transform="translate(-640 -2027)">
      <path id="Subtraction_33" data-name="Subtraction 33" d="M13994.108-12695.887a3.012,3.012,0,0,1-3.01-3.007,3.012,3.012,0,0,1,3.01-3.007,3.011,3.011,0,0,1,3.008,3.007A3.011,3.011,0,0,1,13994.108-12695.887Zm0-5.059a2.056,2.056,0,0,0-2.055,2.052,2.057,2.057,0,0,0,2.055,2.055,2.056,2.056,0,0,0,2.052-2.055A2.055,2.055,0,0,0,13994.108-12700.945Z" transform="translate(-13985.111 12734.95)" fill="#148AFF"/>
      <path id="Subtraction_34" data-name="Subtraction 34" d="M13992.98-12698.136a1.883,1.883,0,0,1-1.882-1.882,1.884,1.884,0,0,1,1.882-1.883,1.887,1.887,0,0,1,1.887,1.883A1.886,1.886,0,0,1,13992.98-12698.136Zm0-2.81a.928.928,0,0,0-.927.928.928.928,0,0,0,.927.927.93.93,0,0,0,.931-.927A.93.93,0,0,0,13992.98-12700.945Z" transform="translate(-13977.802 12737.199)" fill="#148AFF"/>
      <path id="Subtraction_32" data-name="Subtraction 32" d="M14003.559-12693.638h-7.025a1.19,1.19,0,0,1-1.178-1.079l0-.042h-3.27a.985.985,0,0,1-.985-.981v-3.839a2.332,2.332,0,0,1,2.339-2.32h.815a2.349,2.349,0,0,1,2.123,1.354l.032.066.049-.053a4.208,4.208,0,0,1,3.1-1.367h.984a4.208,4.208,0,0,1,3.1,1.367l.053.053.028-.066a2.349,2.349,0,0,1,2.123-1.354h.815a2.332,2.332,0,0,1,2.338,2.32v3.8a1.022,1.022,0,0,1-1.022,1.02h-3.231l0,.042A1.19,1.19,0,0,1,14003.559-12693.638Zm-4-7.31a3.253,3.253,0,0,0-3.249,3.249v2.879a.229.229,0,0,0,.229.229h7.025a.229.229,0,0,0,.229-.229v-2.879a3.253,3.253,0,0,0-3.249-3.249Zm6.286,0a1.377,1.377,0,0,0-1.382,1.368v.372l0,.008a6.073,6.073,0,0,1,.281,2.576c0,.113,0,.233,0,.359v.021c0,.149,0,.309,0,.479v.049h2.665c.612,0,.612,0,.63-.031a.052.052,0,0,0,0-.039v-3.793a1.377,1.377,0,0,0-1.382-1.368Zm-12.4,0a1.377,1.377,0,0,0-1.382,1.368v3.863h3.3v-.049c0-.17,0-.328,0-.478v-.02c0-.126,0-.244,0-.357a6.1,6.1,0,0,1,.281-2.58l0-.008v-.372a1.377,1.377,0,0,0-1.382-1.368Z" transform="translate(-13991.05 12742.26)" fill="#148AFF"/>
      <path id="Subtraction_35" data-name="Subtraction 35" d="M13992.98-12698.136a1.883,1.883,0,0,1-1.882-1.882,1.884,1.884,0,0,1,1.882-1.883,1.887,1.887,0,0,1,1.887,1.883A1.886,1.886,0,0,1,13992.98-12698.136Zm0-2.81a.928.928,0,0,0-.927.928.928.928,0,0,0,.927.927.93.93,0,0,0,.931-.927A.93.93,0,0,0,13992.98-12700.945Z" transform="translate(-13990.171 12737.199)" fill="#148AFF"/>
    </g>
  </g>
</svg>
