<svg width="54" height="54" viewBox="0 0 54 54" fill="none" xmlns="http://www.w3.org/2000/svg">
<path fill-rule="evenodd" clip-rule="evenodd" d="M27.0434 5.10656L26.4368 5.71328L26.4203 8.89562C26.4111 10.6461 26.3936 12.2176 26.3812 12.3881C26.3633 12.6359 25.7734 12.948 23.445 13.9415C20.4823 15.2059 20.0306 15.518 20.0306 16.3C20.0306 16.5829 22.6294 22.7643 22.8447 22.9934C22.9965 23.1551 24.0931 22.8186 24.0931 22.6103C24.0931 22.5297 23.4984 21.079 22.7715 19.3869C22.0445 17.6945 21.4645 16.3037 21.4825 16.2962C21.5003 16.2887 22.5345 15.8456 23.7806 15.3114C25.0267 14.7772 26.1342 14.3409 26.2415 14.342C26.3925 14.3433 26.4368 15.2315 26.4368 18.257V22.1704L27.0228 22.0647C27.3451 22.0065 27.6615 21.9289 27.7259 21.8922C27.7903 21.8553 27.8431 18.2828 27.8431 13.9531C27.8431 8.74671 27.8973 6.0475 28.0032 5.98203C28.0912 5.9275 31.1675 5.88969 34.8392 5.89797C40.8999 5.91156 41.5331 5.93703 41.7115 6.17562C41.8653 6.38094 41.8993 8.36703 41.8678 15.2737L41.8274 24.1093L39.9071 24.1532L37.9868 24.1972L38.4884 24.8954L38.9898 25.5937H41.926C44.7668 25.5937 44.8731 25.6051 45.1992 25.9453C45.6215 26.3859 45.9681 27.1789 45.9681 27.7043C45.9681 28.2237 45.484 29.1625 44.9676 29.6443C44.7445 29.8528 44.5618 30.1423 44.5618 30.2878C44.5618 30.4332 44.8673 31.0078 45.2406 31.5645C46.4809 33.414 46.3502 34.4521 44.6673 36.1226L43.5834 37.1984L43.8379 38.2531C44.3507 40.3778 43.5387 41.7896 41.2415 42.7668C40.3918 43.1284 40.291 43.4818 40.8143 44.2656C40.9865 44.5234 41.2009 45.0027 41.2909 45.3307C41.5157 46.1504 41.0651 47.0773 40.1521 47.6734L39.4837 48.1096L36.9837 48.0626C34.1285 48.0088 33.7111 47.8845 33.2553 46.9512C32.9964 46.4212 32.9878 46.2938 33.1773 45.796C33.5254 44.8813 34.0717 44.5882 35.549 44.5232C36.9265 44.4627 37.2181 44.3379 37.2181 43.809C37.2181 43.2337 36.9149 43.0938 35.6634 43.0913C35.0145 43.0901 34.3146 43.0023 34.1081 42.896C33.2165 42.4379 32.8609 41.3582 33.3193 40.5015C33.6907 39.8078 34.2146 39.6562 36.2429 39.6562C38.344 39.6562 38.6831 39.5313 38.5987 38.7892L38.5462 38.3281L36.515 38.2815C35.3978 38.2559 34.251 38.2774 33.9665 38.3295C33.3964 38.4335 32.3123 39.3282 31.9945 39.957C31.4517 41.0309 31.6684 42.6696 32.4506 43.4043C32.8387 43.7692 32.8403 43.7798 32.5498 44.0984C32.1951 44.487 31.8306 45.2029 31.6914 45.7845C31.5993 46.1684 31.6873 46.7431 31.9914 47.7421L32.0982 48.0937H28.3979C25.9145 48.0937 24.5853 48.0346 24.3562 47.9143C24.0973 47.778 21.9764 45.9785 21.4369 45.4371C20.2942 44.2907 19.1548 43.8749 17.155 43.8749H15.8119V36.4531V29.0312H16.7245C17.8595 29.0312 18.8786 28.7323 19.8383 28.1181C23.0979 26.0312 26.9198 24.9122 30.8118 24.9045C33.6537 24.899 34.8112 25.1361 35.5821 25.8811C36.7064 26.9675 37.8351 29.1278 38.6862 31.822C39.0554 32.9906 39.0724 33.1532 38.8746 33.6265C38.4651 34.6068 37.432 34.9365 36.416 34.411C35.8171 34.1014 34.2778 32.6909 33.1387 31.4082L32.2626 30.4215L32.5126 29.7259C32.804 28.9157 32.6539 28.5125 32.0328 28.4373C31.5684 28.3812 31.4228 28.5509 31.0539 29.5781C30.4742 31.192 29.2143 32.7067 27.8892 33.3826C27.5539 33.5537 26.8261 33.785 26.2722 33.8964C25.1962 34.1128 25.0367 34.225 25.0329 34.7679C25.0243 36.0231 28.3081 35.1674 30.2256 33.415C30.6812 32.9987 31.1526 32.4736 31.2732 32.2481L31.4928 31.8379L33.2301 33.5521C35.1568 35.4531 36.162 36.0607 37.3743 36.0574C38.8065 36.0535 39.9635 35.1528 40.3364 33.7514C40.5496 32.9503 40.2635 31.7418 39.2865 29.3173C38.4715 27.2945 37.7951 26.1854 36.6712 25.0289C35.7892 24.1214 35.6643 24.0487 34.5618 23.8025C30.0723 22.7998 24.0079 23.9065 19.8369 26.49C17.9723 27.6446 18.1033 27.625 12.3078 27.625C8.48453 27.625 7.07516 27.6742 6.93688 27.8125C6.79547 27.9539 6.74953 30.1886 6.75 36.914C6.75047 45.4795 6.7625 45.8476 7.05563 46.3282C7.62391 47.2604 7.97141 47.336 11.4356 47.2824C14.9755 47.2276 15.2206 47.149 15.6508 45.931L15.8803 45.2812L17.1351 45.2932C17.8253 45.2998 18.6517 45.3877 18.9715 45.4885C19.3237 45.5996 20.3576 46.3696 21.5944 47.4421C22.7203 48.4185 23.8603 49.277 24.1367 49.3562C24.4123 49.4352 28.0332 49.4999 32.1831 49.4999C40.5181 49.4999 40.2607 49.5282 41.4162 48.4845C42.7179 47.3084 43.0557 46.2124 42.5648 44.7582L42.267 43.876L42.9453 43.4785C43.6543 43.0629 44.6721 42.0584 44.9709 41.4792C45.3707 40.704 45.5256 39.5565 45.3551 38.6339L45.1882 37.7317L45.9776 36.8971C47.5893 35.1929 47.8717 33.4828 46.8652 31.521L46.2976 30.4146L46.7729 29.6421C47.7193 28.1039 47.5165 26.4437 46.2046 24.9918L45.6248 24.35L46.1765 23.0578C46.887 21.3933 48.2651 18.0733 48.6448 17.1114C48.9843 16.2509 48.9088 15.7173 48.3898 15.309C48.1943 15.1553 46.9762 14.5808 45.6832 14.0326L43.3321 13.0358L43.2829 9.43202C43.2387 6.19922 43.2032 5.78312 42.9371 5.39047C42.3288 4.49313 42.3923 4.5 34.7075 4.5H27.6501L27.0434 5.10656ZM33.6234 11.9897C32.9212 12.2033 32.3053 12.5884 31.8165 13.1195C30.9439 14.0676 30.7601 14.5006 30.6859 15.784C30.6236 16.8606 30.662 17.0881 31.0359 17.8522C31.5504 18.9039 32.4282 19.6815 33.4867 20.0233C34.4889 20.347 35.1303 20.3489 36.0798 20.0308C38.8782 19.0934 39.9084 15.9303 38.1849 13.5669C37.172 12.1778 35.2218 11.5036 33.6234 11.9897ZM36.2281 13.6473C37.7082 14.5148 38.0492 16.4865 36.9457 17.7979C35.2826 19.7743 32.0618 18.6611 32.0618 16.1097C32.0618 15.1639 32.2936 14.6145 32.9464 14.0131C33.6176 13.3945 33.9435 13.26 34.7825 13.2547C35.329 13.2514 35.7453 13.3644 36.2281 13.6473ZM47.3743 16.4745C47.3743 16.5723 47.171 17.0997 46.9224 17.6465C46.674 18.1933 45.9568 19.8887 45.3287 21.414C44.2329 24.0754 44.1692 24.1875 43.7493 24.1875H43.3118V19.3637V14.54L45.3431 15.4183C46.4602 15.9012 47.3743 16.3765 47.3743 16.4745ZM14.4056 37.307C14.4056 45.329 14.3964 45.5876 14.1034 45.7445C13.6609 45.9812 8.58297 45.9585 8.34313 45.7187C8.20203 45.5776 8.15563 43.4895 8.15563 37.2812V29.0312H11.2806H14.4056V37.307ZM10.6617 31.9887C10.3431 32.5839 11.0236 33.2325 11.6322 32.9135C11.9805 32.7309 11.9995 31.9132 11.6584 31.7823C11.2019 31.6071 10.8241 31.6853 10.6617 31.9887Z" fill="#148AFF" stroke="#148AFF" stroke-width="0.5"/>
</svg>
