<svg width="24" height="24" viewBox="0 0 24 24" fill="none" xmlns="http://www.w3.org/2000/svg">
<path d="M17.7918 14.3893C17.3823 13.963 16.8884 13.735 16.365 13.735C15.8458 13.735 15.3477 13.9588 14.9214 14.3851L13.5875 15.7147C13.4778 15.6557 13.368 15.6008 13.2625 15.5459C13.1105 15.4699 12.967 15.3982 12.8446 15.3222C11.5951 14.5286 10.4596 13.4944 9.37059 12.1563C8.84295 11.4894 8.48837 10.928 8.23089 10.3581C8.57702 10.0415 8.89783 9.71229 9.21019 9.3957C9.32838 9.27751 9.44657 9.1551 9.56477 9.03691C10.4512 8.15047 10.4512 7.00232 9.56477 6.11588L8.41239 4.96351C8.28154 4.83265 8.14646 4.69758 8.01983 4.5625C7.76656 4.30079 7.50063 4.03064 7.22625 3.77737C6.8168 3.37214 6.32715 3.15686 5.81217 3.15686C5.29719 3.15686 4.7991 3.37214 4.37699 3.77737C4.37276 3.78159 4.37276 3.78159 4.36854 3.78581L2.93336 5.23366C2.39305 5.77397 2.08491 6.43246 2.01737 7.19649C1.91606 8.42906 2.27908 9.57721 2.55768 10.3286C3.2415 12.1732 4.26302 13.8828 5.78685 15.7147C7.6357 17.9224 9.86025 19.6657 12.4014 20.8941C13.3722 21.3542 14.6681 21.8987 16.116 21.9916C16.2046 21.9958 16.2975 22 16.3819 22C17.357 22 18.1759 21.6497 18.8175 20.9532C18.8217 20.9447 18.8302 20.9405 18.8344 20.9321C19.0539 20.6661 19.3072 20.4255 19.5731 20.168C19.7546 19.995 19.9403 19.8135 20.1218 19.6235C20.5397 19.1887 20.7592 18.6822 20.7592 18.163C20.7592 17.6396 20.5355 17.1373 20.1092 16.7152L17.7918 14.3893ZM19.3029 18.8342C19.2987 18.8342 19.2987 18.8384 19.3029 18.8342C19.1383 19.0115 18.9695 19.1719 18.788 19.3491C18.5136 19.6109 18.235 19.8852 17.9733 20.1934C17.5469 20.6493 17.0446 20.8645 16.3861 20.8645C16.3228 20.8645 16.2553 20.8645 16.192 20.8603C14.9383 20.7801 13.7732 20.2905 12.8995 19.8726C10.5103 18.716 8.41239 17.074 6.66906 14.9929C5.22966 13.258 4.26724 11.654 3.62984 9.93179C3.23728 8.88072 3.09376 8.06182 3.15708 7.28936C3.19929 6.79548 3.38924 6.38603 3.73959 6.03568L5.179 4.59627C5.38584 4.4021 5.60534 4.29657 5.82062 4.29657C6.08655 4.29657 6.30183 4.45697 6.4369 4.59205C6.44112 4.59627 6.44534 4.60049 6.44956 4.60471C6.70705 4.84532 6.95188 5.09436 7.20937 5.3603C7.34023 5.49537 7.4753 5.63045 7.61038 5.76975L8.76275 6.92212C9.21019 7.36956 9.21019 7.78323 8.76275 8.23067C8.64034 8.35308 8.52214 8.47549 8.39973 8.59369C8.04516 8.9567 7.70746 9.2944 7.34023 9.62364C7.33178 9.63209 7.32334 9.63631 7.31912 9.64475C6.9561 10.0078 7.02364 10.3623 7.09962 10.6029C7.10384 10.6156 7.10806 10.6283 7.11228 10.6409C7.41198 11.367 7.8341 12.0508 8.47571 12.8655L8.47993 12.8697C9.64497 14.3049 10.8733 15.4235 12.2283 16.2804C12.4014 16.3901 12.5787 16.4788 12.7475 16.5632C12.8995 16.6392 13.043 16.7109 13.1654 16.7869C13.1823 16.7954 13.1992 16.808 13.2161 16.8165C13.3596 16.8882 13.4946 16.922 13.6339 16.922C13.9843 16.922 14.2038 16.7025 14.2756 16.6307L15.7192 15.1871C15.8627 15.0436 16.0906 14.8705 16.3566 14.8705C16.6183 14.8705 16.8336 15.0351 16.9644 15.1787C16.9686 15.1829 16.9686 15.1829 16.9729 15.1871L19.2987 17.513C19.7335 17.9435 19.7335 18.3867 19.3029 18.8342Z" fill="#339ad5"/>
<path d="M12.794 6.75753C13.9 6.94326 14.9046 7.46668 15.7066 8.26869C16.5086 9.07071 17.0278 10.0753 17.2178 11.1813C17.2642 11.4599 17.5048 11.654 17.7792 11.654C17.8129 11.654 17.8425 11.6498 17.8763 11.6456C18.1886 11.595 18.3955 11.2995 18.3448 10.9871C18.1169 9.64901 17.4837 8.4291 16.5171 7.46246C15.5504 6.49582 14.3305 5.86265 12.9924 5.6347C12.68 5.58405 12.3888 5.79089 12.3339 6.09903C12.279 6.40717 12.4816 6.70687 12.794 6.75753Z" fill="#339ad5"/>
<path d="M21.9622 10.8224C21.5865 8.61899 20.5481 6.61395 18.9525 5.01836C17.3569 3.42277 15.3519 2.38437 13.1485 2.00869C12.8403 1.95381 12.5491 2.16487 12.4942 2.47301C12.4435 2.78538 12.6504 3.07664 12.9627 3.13151C14.9298 3.46498 16.7238 4.39785 18.1505 5.82038C19.5773 7.24712 20.5059 9.0411 20.8394 11.0082C20.8858 11.2867 21.1264 11.4809 21.4008 11.4809C21.4346 11.4809 21.4641 11.4767 21.4979 11.4725C21.806 11.426 22.0171 11.1306 21.9622 10.8224Z" fill="#339ad5"/>
</svg>
