<svg id="Group_38150" data-name="Group 38150" xmlns="http://www.w3.org/2000/svg" width="32" height="32" viewBox="0 0 32 32">
  <rect id="Rectangle_18710" data-name="Rectangle 18710" width="32" height="32" fill="#707273" opacity="0"/>
  <g id="delete" transform="translate(3.228 3.86)">
    <path id="Path_25442" data-name="Path 25442" d="M16,22.489H8.213a3.092,3.092,0,0,1-3.041-2.9L4.25,5.561A.77.77,0,0,1,4.453,5,.78.78,0,0,1,5.01,4.75H19.2a.76.76,0,0,1,.76.811L19.079,19.59A3.092,3.092,0,0,1,16,22.489ZM5.862,6.27,6.642,19.5a1.571,1.571,0,0,0,1.571,1.47H16a1.581,1.581,0,0,0,1.571-1.47L18.39,6.321Z" transform="translate(0.027 0.041)" fill="#a01c29"/>
    <path id="Path_25443" data-name="Path 25443" d="M21.256,6.27H3.01a.76.76,0,1,1,0-1.52H21.256a.76.76,0,0,1,0,1.52Z" transform="translate(0 0.041)" fill="#a01c29"/>
    <path id="Path_25444" data-name="Path 25444" d="M15.092,6.311H9.01a.77.77,0,0,1-.76-.76V3.727A2.027,2.027,0,0,1,10.227,1.75h3.649a2.027,2.027,0,0,1,1.977,2.027V5.551A.77.77,0,0,1,15.092,6.311ZM9.77,4.791h4.561V3.777a.456.456,0,0,0-.456-.456H10.227a.456.456,0,0,0-.456.456Z" transform="translate(0.082 0)" fill="#a01c29"/>
    <path id="Path_25445" data-name="Path 25445" d="M15.01,18.379a.77.77,0,0,1-.76-.76V9.51a.76.76,0,0,1,1.52,0v8.109A.77.77,0,0,1,15.01,18.379Z" transform="translate(0.164 0.095)" fill="#a01c29"/>
    <path id="Path_25446" data-name="Path 25446" d="M9.01,18.379a.77.77,0,0,1-.76-.76V9.51a.76.76,0,0,1,1.52,0v8.109A.77.77,0,0,1,9.01,18.379Z" transform="translate(0.082 0.095)" fill="#a01c29"/>
    <path id="Path_25447" data-name="Path 25447" d="M12.01,18.379a.77.77,0,0,1-.76-.76V9.51a.76.76,0,0,1,1.52,0v8.109A.77.77,0,0,1,12.01,18.379Z" transform="translate(0.123 0.095)" fill="#a01c29"/>
  </g>
</svg>
