<?xml version="1.0" encoding="utf-8"?>
<!-- Generator: Adobe Illustrator 23.0.1, SVG Export Plug-In . SVG Version: 6.00 Build 0)  -->
<svg version="1.1" id="Layer_1" xmlns="http://www.w3.org/2000/svg" xmlns:xlink="http://www.w3.org/1999/xlink" x="0px" y="0px"
	 viewBox="0 0 23.3 24.5" style="enable-background:new 0 0 23.3 24.5;" xml:space="preserve">
<style type="text/css">
	.st0{opacity:0;}
	.st1{fill:#5d5d5d;}
</style>
<g id="delete" transform="translate(643 1998)">
	<g id="base" class="st0">
		<rect id="Rectangle_982" x="-643.3" y="-1998.1" class="st1" width="24" height="24"/>
		<rect id="Rectangle_983" x="-641.3" y="-1996.1" class="st1" width="20" height="20"/>
	</g>
	<g id="trash" transform="translate(-641.333 -1996)">
		<path id="Path_45855" class="st1" d="M18.7,2.4h-3c-0.5-2.3-2.5-3.9-4.8-3.9h-2c-2.3,0-4.3,1.6-4.8,3.9h-3c-0.5,0-1,0.4-1,1
			c0,0.5,0.4,1,1,1h1v12.7c0,2.7,2.2,4.9,4.9,4.9h5.9c2.7,0,4.9-2.2,4.9-4.9V4.4h1c0.5,0,1-0.4,1-1C19.7,2.9,19.2,2.4,18.7,2.4
			L18.7,2.4z M8.9,0.5h2c1.2,0,2.4,0.8,2.8,1.9H6.1C6.6,1.3,7.7,0.5,8.9,0.5z M15.7,17.1c0,1.6-1.3,2.9-2.9,2.9H6.9
			C5.3,20,4,18.7,4,17.1V4.4h11.7V17.1z"/>
		<path id="Path_45856" class="st1" d="M7.9,16.1c0.5,0,1-0.4,1-1l0,0V9.3c0-0.5-0.4-1-1-1s-1,0.4-1,1v5.8
			C6.9,15.6,7.4,16.1,7.9,16.1C7.9,16.1,7.9,16.1,7.9,16.1z"/>
		<path id="Path_45857" class="st1" d="M11.8,16.1c0.5,0,1-0.4,1-1l0,0V9.3c0-0.5-0.4-1-1-1s-1,0.4-1,1v5.8
			C10.9,15.6,11.3,16.1,11.8,16.1C11.8,16.1,11.8,16.1,11.8,16.1z"/>
	</g>
</g>
</svg>
