<svg width="28" height="28" viewBox="0 0 28 28" fill="none" xmlns="http://www.w3.org/2000/svg">
<path d="M13.9986 25.6637C12.4659 25.6681 10.9476 25.3686 9.53148 24.7824C8.11536 24.1962 6.82945 23.335 5.74829 22.2487C4.66206 21.1675 3.80113 19.8816 3.21497 18.4655C2.6288 17.0494 2.32913 15.5312 2.33342 13.9985C2.32913 12.4659 2.6288 10.9477 3.21497 9.53157C3.80113 8.11547 4.66206 6.82961 5.74829 5.74839C6.82941 4.66202 8.11535 3.80084 9.53148 3.21467C10.9476 2.62849 12.4659 2.32897 13.9986 2.33342C15.531 2.33071 17.0489 2.63163 18.4644 3.2188C19.88 3.80598 21.1651 4.66778 22.2457 5.75442C23.3321 6.83516 24.1938 8.12036 24.7809 9.53586C25.3681 10.9514 25.6692 12.4691 25.6667 14.0016C25.6711 15.5342 25.3715 17.0525 24.7854 18.4686C24.1992 19.8848 23.3381 21.1706 22.2518 22.2517C21.1701 23.3379 19.8835 24.1987 18.4669 24.7844C17.0502 25.3701 15.5315 25.6689 13.9986 25.6637ZM13.9986 3.9013C11.3225 3.90449 8.75695 4.96904 6.86476 6.86142C4.97257 8.7538 3.90817 11.3194 3.90525 13.9955C3.90817 16.6716 4.97257 19.2373 6.86476 21.1297C8.75695 23.022 11.3225 24.0866 13.9986 24.0898C15.3237 24.0912 16.6361 23.8304 17.86 23.3224C19.0839 22.8144 20.195 22.0692 21.1297 21.1298C22.0691 20.1952 22.8144 19.0839 23.3224 17.86C23.8304 16.6361 24.0911 15.3237 24.0897 13.9985C24.0873 11.3224 23.0237 8.75639 21.1319 6.86347C19.2401 4.97056 16.6747 3.90529 13.9986 3.9013Z" fill="#148AFF"/>
<path d="M11.4875 18.1298C11.279 18.1295 11.079 18.0466 10.9316 17.8991C10.7841 17.7517 10.7013 17.5518 10.701 17.3433V10.6469C10.7013 10.5249 10.7299 10.4046 10.7844 10.2954C10.8492 10.1643 10.9493 10.054 11.0735 9.97696C11.1978 9.89991 11.3412 9.85921 11.4875 9.8595C11.6092 9.85953 11.7291 9.88809 11.8379 9.94287L18.5342 13.2916C18.6871 13.3679 18.8109 13.492 18.8868 13.6451C18.9337 13.7377 18.9615 13.8387 18.9687 13.9422C18.976 14.0456 18.9625 14.1496 18.929 14.2478C18.8965 14.3459 18.845 14.4366 18.7772 14.5147C18.7095 14.5928 18.6268 14.6567 18.5342 14.7028L11.8379 18.0514C11.7286 18.104 11.6088 18.1309 11.4875 18.1298ZM12.2748 11.9195V16.0697L16.4251 13.9956L12.2748 11.9205V11.9195Z" fill="#148AFF"/>
</svg>
