<svg xmlns="http://www.w3.org/2000/svg" width="58" height="58" viewBox="0 0 58 58">
  <g id="deposit" transform="translate(643 1998)">
    <g id="base" transform="translate(-643 -1998)" opacity="0">
      <rect id="Rectangle_982" data-name="Rectangle 982" width="58" height="58" fill="#148AFF"/>
      <rect id="Rectangle_983" data-name="Rectangle 983" width="48" height="48" transform="translate(5 5)" fill="#148AFF"/>
    </g>
    <g id="piggy-bank" transform="translate(-636.969 -1990.628)">
      <path id="Subtraction_44" data-name="Subtraction 44" d="M60.37-4607.608l-6.943-.035a1.022,1.022,0,0,1-.816-.405,1.026,1.026,0,0,1-.178-.893l1.318-4.967-.129-.1a13.712,13.712,0,0,1-3.329-3.565l-.04-.061-.066-.031c-.339-.156-.7-.3-1.048-.436l-.018-.007a10.026,10.026,0,0,1-4.207-2.662,1.039,1.039,0,0,1-.263-.651l-.182-5.012a1.032,1.032,0,0,1,.289-.754,1.042,1.042,0,0,1,.748-.316,1.007,1.007,0,0,1,.153.012,4.923,4.923,0,0,0,.758.053,9.415,9.415,0,0,0,1.444-.125l.15-.023.049-.145c.014-.044.023-.079.029-.107l0-.018c.005-.02.01-.038.018-.061.118-.354.316-.915.587-1.569.04-.1.08-.192.119-.288a6.305,6.305,0,0,1,1.688-2.708,1.038,1.038,0,0,1,.658-.235h.008a1.029,1.029,0,0,1,.788.376c.447.544.022,1.228-.182,1.5l-.1.128.006.012a14.388,14.388,0,0,0-1.079,2.01c-.191.46-.382.969-.536,1.432-.085.254-.153.506-.185.627l-.011.041c-.006.021-.009.034-.012.042a.25.25,0,0,1,.234-.163v.235l-.246-.037a1.034,1.034,0,0,1-.756.842,9.662,9.662,0,0,1-2.266.285l-.253,0,.125,3.449.072.07a8.749,8.749,0,0,0,2.981,1.742l.029.012c.508.212,1.033.431,1.607.718a1.02,1.02,0,0,1,.422.391,11.76,11.76,0,0,0,3.651,3.855l.078.059a1.028,1.028,0,0,1,.373,1.087l-1.141,4.3,4.731.024.479-2.713a1.032,1.032,0,0,1,1.017-.853c.025,0,.05,0,.076,0,1.74.126,3.5.191,5.237.191s3.46-.062,5.278-.187l.076,0a1.03,1.03,0,0,1,1.029.989,9.92,9.92,0,0,0,.331,2.378l.052.182,4.748-.04-.075-.307-.043-.179c-.039-.163-.079-.328-.119-.491-.3-1.231-.632-2.626-1.015-3.831a1.028,1.028,0,0,1,.463-1.2,6.189,6.189,0,0,0,3.146-3.731,1.036,1.036,0,0,1,.995-.758,1.028,1.028,0,0,1,.277.039,1.026,1.026,0,0,1,.623.487,1.027,1.027,0,0,1,.1.785,8.184,8.184,0,0,1-3.295,4.4l-.146.1.05.17c.488,1.672.9,3.315,1.388,5.291a1.029,1.029,0,0,1-.188.882,1.023,1.023,0,0,1-.807.4l-6.823.055h-.008a1.032,1.032,0,0,1-.908-.538,6.544,6.544,0,0,1-.717-2.74l-.019-.244-.243.013c-1.374.075-2.749.113-4.087.113-1.409,0-2.851-.042-4.287-.124l-.223-.013-.477,2.692a1.031,1.031,0,0,1-1.016.853ZM55.43-4625.7a1.557,1.557,0,0,1-1.555-1.556,1.557,1.557,0,0,1,1.555-1.554,1.556,1.556,0,0,1,1.554,1.554A1.557,1.557,0,0,1,55.43-4625.7Zm-.193-7.375a4.2,4.2,0,0,1-3.4-1.957l0-.006a12.229,12.229,0,0,1-1.279-2.418l-.006-.016-.006-.016-.062-.158-.09-.229a10.273,10.273,0,0,1-.657-2.113,1.033,1.033,0,0,1,.717-1.161,17.584,17.584,0,0,1,2.418-.553l.014,0a13.79,13.79,0,0,1,1.957-.168c.088,0,.184,0,.3.006a5.933,5.933,0,0,1,2.4.557.716.716,0,0,1,.085.046,4.4,4.4,0,0,1,2.03,3.413,4.182,4.182,0,0,1-1.026,3.193,4.612,4.612,0,0,1-2.97,1.558A3.547,3.547,0,0,1,55.237-4633.074Zm-.429-6.718a11.823,11.823,0,0,0-1.626.134c-.169.026-.333.067-.491.107l-.029.007c-.108.027-.209.052-.311.074l-.282.061.1.271c.046.126.083.243.122.372l.013.041c.046.146.093.3.162.476l0,.008a10.438,10.438,0,0,0,1.053,2.016l.011.015.01.015a2.268,2.268,0,0,0,1.73,1.056,1.448,1.448,0,0,0,.154-.008l.013,0a2.491,2.491,0,0,0,1.547-.861,2.2,2.2,0,0,0,.615-1.611v-.015a2.546,2.546,0,0,0-.988-1.8l-.017-.012-.019-.008a4.078,4.078,0,0,0-1.534-.326C54.967-4639.79,54.888-4639.792,54.808-4639.792Z" transform="translate(-44.219 4650.862)"/>
      <path id="Subtraction_45" data-name="Subtraction 45" d="M58.9-4613.006a14.449,14.449,0,0,1-14.433-14.433A14.449,14.449,0,0,1,58.9-4641.872a14.449,14.449,0,0,1,14.433,14.433A14.449,14.449,0,0,1,58.9-4613.006Zm0-26.8a12.3,12.3,0,0,0-8.751,3.615,12.291,12.291,0,0,0-3.616,8.751,12.291,12.291,0,0,0,3.616,8.751,12.289,12.289,0,0,0,8.751,3.616,12.284,12.284,0,0,0,8.75-3.616,12.291,12.291,0,0,0,3.616-8.751,12.291,12.291,0,0,0-3.616-8.751A12.291,12.291,0,0,0,58.9-4639.805Z" transform="translate(-27.379 4642.122)"/>
      <g id="Group_42386" data-name="Group 42386" transform="translate(25.882 7.586)">
        <path id="Path_44833" data-name="Path 44833" d="M4268.069,183.7v1.814h3.677a3.005,3.005,0,0,1,3.143,2.168h-6.819v1.809h6.829a3.059,3.059,0,0,1-2.881,2.266h-3.948v1.808h2.675l4.442,6.488h2.385l-4.7-6.67a4.453,4.453,0,0,0,4.188-3.893h2.357v-1.809h-2.4a4.129,4.129,0,0,0-1.182-2.173h3.579V183.7Z" transform="translate(-4268.069 -183.699)"/>
      </g>
    </g>
  </g>
</svg>
