<svg id="discord-icon-svgrepo-com" xmlns="http://www.w3.org/2000/svg" width="31.772" height="24.595" viewBox="0 0 31.772 24.595">
  <path id="Path_46574" data-name="Path 46574" d="M26.914,2.06A25.877,25.877,0,0,0,20.359,0a19.219,19.219,0,0,0-.84,1.743,24.068,24.068,0,0,0-7.264,0A18.633,18.633,0,0,0,11.405,0a25.791,25.791,0,0,0-6.56,2.065A27.49,27.49,0,0,0,.135,20.472a26.206,26.206,0,0,0,8.039,4.12A19.993,19.993,0,0,0,9.9,21.756a16.93,16.93,0,0,1-2.711-1.32c.227-.168.45-.345.665-.526a18.526,18.526,0,0,0,16.073,0c.217.181.44.357.665.526a16.887,16.887,0,0,1-2.716,1.322,19.905,19.905,0,0,0,1.722,2.836,26.154,26.154,0,0,0,8.044-4.122A27.463,27.463,0,0,0,26.914,2.06ZM10.608,16.766a3.084,3.084,0,0,1-2.856-3.249,3.068,3.068,0,0,1,2.856-3.252,3.048,3.048,0,0,1,2.856,3.252A3.064,3.064,0,0,1,10.608,16.766Zm10.556,0a3.084,3.084,0,0,1-2.856-3.249,3.068,3.068,0,0,1,2.856-3.252,3.048,3.048,0,0,1,2.856,3.252A3.065,3.065,0,0,1,21.164,16.766Z" fill="#5865f2"/>
</svg>
