<svg xmlns="http://www.w3.org/2000/svg" width="24" height="24" viewBox="0 0 24 24">
  <g id="domestic-usages" transform="translate(643 1998)">
    <g id="base" opacity="0">
      <rect id="Rectangle_982" data-name="Rectangle 982" width="24" height="24" transform="translate(-643 -1998)" fill="#7e2323"/>
      <rect id="Rectangle_983" data-name="Rectangle 983" width="20" height="20" transform="translate(-641 -1996)" fill="#e88e8e"/>
    </g>
    <g id="_009-rupee" data-name="009-rupee" transform="translate(-643.061 -1998.092)">
      <path id="Path_43214" data-name="Path 43214" d="M147.789,127.08a.54.54,0,1,0,0-1.08h-4.641a.54.54,0,1,0,0,1.08h1.328a1.413,1.413,0,0,1,1.346.877h-2.674a.54.54,0,1,0,0,1.08h2.674a1.473,1.473,0,0,1-1.346.945h-1.328a.532.532,0,0,0-.371.921l3.319,3.134a.54.54,0,0,0,.742-.786l-2.332-2.213a2.523,2.523,0,0,0,2.443-2h.84a.54.54,0,1,0,0-1.08h-.84a2.331,2.331,0,0,0-.4-.877Zm0,0" transform="translate(-133.331 -117.84)" fill="#148AFF"/>
      <path id="Path_43214_-_Outline" data-name="Path 43214 - Outline" d="M146.46,134.321a.682.682,0,0,1-.468-.185L142.673,131a.679.679,0,0,1-.166-.747.672.672,0,0,1,.627-.423h1.337a1.317,1.317,0,0,0,1.114-.657h-2.443a.684.684,0,0,1,0-1.368h2.441a1.281,1.281,0,0,0-1.112-.589h-1.328a.684.684,0,0,1,0-1.368h4.641a.684.684,0,0,1,0,1.368h-.974a2.453,2.453,0,0,1,.246.589h.728a.684.684,0,0,1,0,1.368h-.726a2.647,2.647,0,0,1-2.221,1.976l2.1,1.988a.685.685,0,0,1-.471,1.181Zm-3.326-4.2a.385.385,0,0,0-.359.242.39.39,0,0,0,.1.429l3.32,3.135a.4.4,0,0,0,.543-.577l-2.591-2.459.356,0A2.364,2.364,0,0,0,146.8,129l.024-.114h.957a.4.4,0,0,0,0-.791h-.956l-.025-.113a2.173,2.173,0,0,0-.376-.823l-.17-.23h1.527a.4.4,0,0,0,0-.791h-4.641a.4.4,0,1,0,0,.791h1.328a1.548,1.548,0,0,1,1.48.968l.079.2h-2.887a.4.4,0,1,0,0,.791h2.886l-.079.2a1.622,1.622,0,0,1-1.48,1.036Z" transform="translate(-133.325 -117.834)" fill="#148AFF"/>
      <path id="Path_43216" data-name="Path 43216" d="M61.494,52.047a8.861,8.861,0,0,0-1.62,17.573c-.43.368,3.871.368,3.442-.04a8.861,8.861,0,0,0-1.822-17.533Zm0,16.64a7.78,7.78,0,1,1,7.78-7.78A7.78,7.78,0,0,1,61.494,68.687Zm0,0" transform="translate(-49.424 -48.877)" fill="#148AFF"/>
      <path id="Path_43216_-_Outline" data-name="Path 43216 - Outline" d="M61.7,69.9h-.187c-1.69,0-1.779-.084-1.81-.167a9.008,9.008,0,1,1,3.77-.044A17.245,17.245,0,0,1,61.7,69.9Zm-1.638-.261a7.213,7.213,0,0,0,1.45.106h0a6.836,6.836,0,0,0,1.62-.134l-.123-.117.268-.057a8.723,8.723,0,1,0-3.386.039l.3.055Zm1.423-.81a7.933,7.933,0,1,1,5.6-2.324A7.933,7.933,0,0,1,61.489,68.825Zm0-15.56A7.632,7.632,0,1,0,69.124,60.9,7.645,7.645,0,0,0,61.488,53.265Z" transform="translate(-49.418 -48.871)" fill="#148AFF"/>
    </g>
  </g>
</svg>
