<svg xmlns="http://www.w3.org/2000/svg" width="32" height="32" viewBox="0 0 32 32">
  <g id="e-services" transform="translate(643 1998.45)">
    <g id="base" transform="translate(-643 -1998)" opacity="0">
      <rect id="Rectangle_982" data-name="Rectangle 982" width="32" height="32" transform="translate(0 -0.45)" fill="#7e2323"/>
      <rect id="Rectangle_983" data-name="Rectangle 983" width="26" height="26" transform="translate(3 2.55)" fill="#e88e8e"/>
    </g>
    <g id="setting" transform="translate(-640.371 -1995.371)">
      <path id="Path_46006" data-name="Path 46006" d="M24.722,10.64H24.61a.819.819,0,0,1-.757-.526.81.81,0,0,1,.175-.885l.08-.08a2.575,2.575,0,0,0,0-3.634L22.784,4.192a2.572,2.572,0,0,0-3.634,0l-.08.08a.838.838,0,0,1-1.419-.589V3.57A2.572,2.572,0,0,0,15.082,1H13.21a2.572,2.572,0,0,0-2.57,2.57v.113a.838.838,0,0,1-1.414.585l-.075-.08a2.572,2.572,0,0,0-3.634,0L4.188,5.512a2.575,2.575,0,0,0,0,3.634l.08.08a.819.819,0,0,1,.162.907.81.81,0,0,1-.748.507H3.57A2.572,2.572,0,0,0,1,13.21v1.872a2.572,2.572,0,0,0,2.57,2.57h.112a.819.819,0,0,1,.757.526.81.81,0,0,1-.175.885l-.08.08a2.575,2.575,0,0,0,0,3.634L5.507,24.1a2.571,2.571,0,0,0,3.634,0l.08-.08a.82.82,0,0,1,.907-.162.808.808,0,0,1,.507.748v.113a2.572,2.572,0,0,0,2.574,2.574h1.872a2.572,2.572,0,0,0,2.57-2.57v-.113a.838.838,0,0,1,1.414-.585l.08.08a2.572,2.572,0,0,0,3.634,0L24.1,22.781a2.575,2.575,0,0,0,0-3.634l-.08-.08a.819.819,0,0,1-.162-.907.81.81,0,0,1,.748-.508h.112a2.572,2.572,0,0,0,2.57-2.57V13.21a2.572,2.572,0,0,0-2.57-2.57Zm.817,4.442a.818.818,0,0,1-.817.817H24.61a2.591,2.591,0,0,0-1.826,4.406l.079.08a.819.819,0,0,1,0,1.156l-1.324,1.322a.817.817,0,0,1-1.155,0l-.079-.08A2.591,2.591,0,0,0,15.9,24.609v.113a.818.818,0,0,1-.817.817H13.21a.818.818,0,0,1-.817-.817v-.113a2.586,2.586,0,0,0-4.406-1.825l-.08.08a.819.819,0,0,1-1.155,0L5.428,21.542a.819.819,0,0,1,0-1.156l.08-.08A2.591,2.591,0,0,0,3.682,15.9H3.57a.818.818,0,0,1-.817-.817V13.21a.818.818,0,0,1,.817-.817h.112A2.591,2.591,0,0,0,5.507,7.987l-.079-.08a.818.818,0,0,1,0-1.155L6.752,5.428a.817.817,0,0,1,1.155,0l.079.08a2.591,2.591,0,0,0,4.407-1.825V3.57a.818.818,0,0,1,.817-.817h1.872a.818.818,0,0,1,.817.817v.113a2.591,2.591,0,0,0,4.406,1.825l.08-.08a.817.817,0,0,1,1.155,0l1.323,1.324a.818.818,0,0,1,0,1.155l-.08.08a2.591,2.591,0,0,0,1.826,4.406h.112a.818.818,0,0,1,.817.817Z" transform="translate(-1 -1)"/>
      <path id="Path_46007" data-name="Path 46007" d="M15.135,9a6.135,6.135,0,1,0,6.135,6.135A6.135,6.135,0,0,0,15.135,9Zm0,10.517a4.382,4.382,0,1,1,4.382-4.382A4.382,4.382,0,0,1,15.135,19.517Z" transform="translate(-1.989 -1.989)"/>
    </g>
  </g>
</svg>
