<svg xmlns="http://www.w3.org/2000/svg" width="24" height="24" viewBox="0 0 24 24">
  <g id="education" transform="translate(14043 -12817)">
    <g id="fingerprint" transform="translate(-13400 14815)" opacity="0">
      <g id="Group_40181" data-name="Group 40181">
        <rect id="Rectangle_982" data-name="Rectangle 982" width="24" height="24" transform="translate(-643 -1998)" fill="#148AFF"/>
        <rect id="Rectangle_983" data-name="Rectangle 983" width="20" height="20" transform="translate(-641 -1996)" fill="#148AFF"/>
      </g>
    </g>
    <path id="Subtraction_36" data-name="Subtraction 36" d="M-67.206,34.979a.487.487,0,0,1-.486-.486V33.152l-1.579-1.579a.482.482,0,0,1-.142-.343.483.483,0,0,1,.142-.344l1.579-1.579V24.233l-1.626.586v3.894a.487.487,0,0,1-.093.286,3.646,3.646,0,0,1-1.3.962,10.145,10.145,0,0,1-4.48.864,9.969,9.969,0,0,1-4.457-.865,3.467,3.467,0,0,1-1.273-.97A.485.485,0,0,1-81,28.713V24.781l-3.479-1.289a.491.491,0,0,1-.318-.458.488.488,0,0,1,.32-.455l9.254-3.352a.491.491,0,0,1,.165-.028.491.491,0,0,1,.165.028l9.253,3.352a.485.485,0,0,1,.32.457.487.487,0,0,1-.32.456l-1.078.389v5.425l1.579,1.579A.483.483,0,0,1-65,31.23a.482.482,0,0,1-.142.343l-1.578,1.579v1.341A.487.487,0,0,1-67.206,34.979Zm0-4.783h0L-68.24,31.23l1.034,1.033,1.033-1.033L-67.206,30.2Zm-12.825-5.054v3.385l.03.029c.788.789,2.694,1.3,4.856,1.3a7.614,7.614,0,0,0,4.822-1.3l.033-.03V25.169l-4.729,1.7a.754.754,0,0,1-.185.029.328.328,0,0,1-.111-.019l-.014,0-.037-.01Zm4.97-4.939h0l-7.84,2.84,7.717,2.858,7.947-2.865L-75.061,20.2Z" transform="translate(-13956.101 12801.911)" fill="#148AFF"/>
  </g>
</svg>
