<svg xmlns="http://www.w3.org/2000/svg" width="48" height="48" viewBox="0 0 48 48">
  <g id="fingerprint" transform="translate(643 1997.999)">
    <g id="base" transform="translate(-643 -1998)" opacity="0">
      <rect id="Rectangle_982" data-name="Rectangle 982" width="48" height="48" transform="translate(0 0.001)" fill="#7e2323"/>
      <rect id="Rectangle_983" data-name="Rectangle 983" width="40" height="40" transform="translate(4 4.001)" fill="#e88e8e"/>
    </g>
    <g id="XMLID_2615_" transform="translate(-636.961 -1991.961)">
      <g id="XMLID_1395_" transform="translate(0 0)">
        <path id="XMLID_2019_" d="M0,3.227A3.227,3.227,0,1,0,3.227,0,3.231,3.231,0,0,0,0,3.227Zm5.052,0A1.824,1.824,0,1,1,3.227,1.4,1.826,1.826,0,0,1,5.052,3.227Z" transform="translate(12.839 5.03)"/>
        <path id="XMLID_2108_" d="M29.116,17.978v-3.1h2.315a.7.7,0,0,0,.7-.7V10.384a.7.7,0,0,0-.328-.594L26.131,6.214A.7.7,0,0,0,25.383,7.4l5.347,3.37v2.7H1.4v-2.7l14.663-9.24,9.865,6.225a.7.7,0,0,0,.748-1.187L16.441.108a.7.7,0,0,0-.748,0L.328,9.79A.7.7,0,0,0,0,10.384v3.789a.7.7,0,0,0,.7.7H3.017V27.783H2.175a.7.7,0,0,0-.7.7v2.666H.7a.7.7,0,0,0-.7.7V35.22a.7.7,0,0,0,.7.7H26.8a9.121,9.121,0,0,0,2.315-17.944Zm-1.4-3.1v2.852q-.45-.045-.912-.045a9.141,9.141,0,0,0-1.473.12V14.874Zm-9.051,7.813V14.874h5.262v3.272A9.169,9.169,0,0,0,18.663,22.687Zm-1.4-7.813V27.783H14.874V14.874ZM8.209,27.783V14.874h5.262V27.783ZM4.42,14.874H6.806V27.783H4.42ZM2.877,29.187H18a9.059,9.059,0,0,0,.789,1.964H2.877ZM1.4,34.519V32.554H19.729a9.192,9.192,0,0,0,2.217,1.964Zm25.4,0A7.718,7.718,0,1,1,34.519,26.8,7.726,7.726,0,0,1,26.8,34.519Z"/>
      </g>
      <g id="Group_41001" data-name="Group 41001" transform="translate(22.891 21.374)">
        <path id="Path_44952" data-name="Path 44952" d="M6.547,0H1.786A1.786,1.786,0,0,0,0,1.786V4.166a.6.6,0,0,0,.6.6H7.737a.6.6,0,0,0,.6-.6V1.786A1.786,1.786,0,0,0,6.547,0Zm.6,3.571H1.19V1.786a.6.6,0,0,1,.6-.6H6.547a.6.6,0,0,1,.6.6Z" transform="translate(0 5.952)"/>
        <path id="Path_44953" data-name="Path 44953" d="M4.761,3.571V2.381A2.381,2.381,0,1,0,0,2.381v1.19a2.381,2.381,0,1,0,4.761,0Zm-1.19,0a1.19,1.19,0,1,1-2.381,0V2.381a1.19,1.19,0,1,1,2.381,0Z" transform="translate(1.786 0)"/>
      </g>
    </g>
  </g>
</svg>
