<svg xmlns="http://www.w3.org/2000/svg" width="20" height="20" viewBox="0 0 20 20">
  <g id="eye-off" transform="translate(643 1998)">
    <g id="base" transform="translate(-643 -1998)" opacity="0">
      <rect id="Rectangle_982" data-name="Rectangle 982" width="20" height="20" fill="#fff"/>
      <rect id="Rectangle_983" data-name="Rectangle 983" width="17" height="17" transform="translate(2 2)" fill="#fff"/>
    </g>
    <path id="eye-crossed" d="M14.53,6.258a9.907,9.907,0,0,0-2.1-2.441l1.748-1.748a.624.624,0,1,0-.883-.883l-1.9,1.9a7.527,7.527,0,0,0-3.9-1.055A8.272,8.272,0,0,0,.454,6.258a3.065,3.065,0,0,0,0,3.223,9.907,9.907,0,0,0,2.1,2.441L.81,13.671a.624.624,0,1,0,.883.883L3.6,12.648a7.527,7.527,0,0,0,3.893,1.057A8.272,8.272,0,0,0,14.53,9.482,3.065,3.065,0,0,0,14.53,6.258ZM1.518,8.828a1.822,1.822,0,0,1,0-1.916A7.069,7.069,0,0,1,7.492,3.283a6.307,6.307,0,0,1,2.976.727L9.211,5.268A3.117,3.117,0,0,0,4.89,9.589L3.447,11.031a8.569,8.569,0,0,1-1.93-2.2ZM9.365,7.87A1.873,1.873,0,0,1,7.492,9.743a1.843,1.843,0,0,1-.8-.187L9.178,7.068A1.843,1.843,0,0,1,9.365,7.87Zm-3.747,0A1.873,1.873,0,0,1,7.492,6a1.843,1.843,0,0,1,.8.187L5.806,8.672a1.843,1.843,0,0,1-.187-.8Zm7.847.958a7.069,7.069,0,0,1-5.974,3.629,6.307,6.307,0,0,1-2.976-.727l1.257-1.257a3.117,3.117,0,0,0,4.321-4.321l1.442-1.442a8.569,8.569,0,0,1,1.93,2.2A1.822,1.822,0,0,1,13.466,8.828Z" transform="translate(-640.528 -1995.904)" fill="#fff"/>
  </g>
</svg>
