<svg width="24" height="24" viewBox="0 0 24 24" fill="none" xmlns="http://www.w3.org/2000/svg">
<path d="M21.3907 10.0159C20.6384 8.78441 19.6895 7.68441 18.5817 6.75957L20.9144 4.42692C21.0014 4.3523 21.0721 4.26053 21.1221 4.15733C21.172 4.05414 21.2001 3.94175 21.2047 3.82719C21.2092 3.71264 21.19 3.59838 21.1484 3.49156C21.1067 3.38475 21.0435 3.28767 20.9626 3.20641C20.8817 3.12515 20.785 3.06146 20.6784 3.01931C20.5717 2.97715 20.4576 2.95746 20.343 2.96144C20.2284 2.96543 20.1159 2.99301 20.0125 3.04247C19.909 3.09193 19.8169 3.1622 19.7419 3.24888L17.1995 5.79015C15.6273 4.85578 13.8298 4.3686 12.001 4.38118C10.0807 4.42202 8.2043 4.96331 6.55731 5.95154C4.91033 6.93977 3.54976 8.34073 2.61013 10.0159C2.21063 10.662 1.99902 11.4066 1.99902 12.1662C1.99902 12.9258 2.21063 13.6704 2.61013 14.3164C3.36209 15.5479 4.3106 16.6478 5.41801 17.5728L3.08647 19.9054C3.00905 19.9828 2.94762 20.0746 2.90569 20.1757C2.86376 20.2768 2.84215 20.3852 2.8421 20.4946C2.84205 20.604 2.86355 20.7124 2.90539 20.8136C2.94722 20.9147 3.00856 21.0066 3.08591 21.084C3.16327 21.1614 3.25511 21.2229 3.3562 21.2648C3.45729 21.3067 3.56566 21.3283 3.6751 21.3284C3.78454 21.3284 3.89292 21.3069 3.99405 21.2651C4.09519 21.2233 4.18709 21.1619 4.26451 21.0846L6.80131 18.5411C8.37208 19.4751 10.168 19.9626 11.9954 19.9512C13.9155 19.9101 15.7916 19.3688 17.4384 18.3805C19.0852 17.3923 20.4456 15.9915 21.3851 14.3164C21.7855 13.6709 21.998 12.9266 21.999 12.167C22 11.4074 21.7894 10.6625 21.3907 10.0159ZM4.03024 13.4441C3.79294 13.0601 3.66725 12.6176 3.66725 12.1662C3.66725 11.7148 3.79294 11.2723 4.03024 10.8883C4.8252 9.4596 5.97791 8.26212 7.37528 7.41333C8.77266 6.56454 10.3667 6.09361 12.001 6.04673C13.3841 6.03903 14.7477 6.37238 15.9713 7.01727L14.2979 8.69062C13.4981 8.1594 12.5391 7.92131 11.5836 8.01675C10.6282 8.1122 9.73525 8.5353 9.0563 9.21425C8.37735 9.8932 7.95425 10.7862 7.8588 11.7416C7.76336 12.697 8.00145 13.656 8.53267 14.4559L6.60386 16.388C5.58327 15.5632 4.71231 14.5689 4.02913 13.4485L4.03024 13.4441ZM14.4987 12.1667C14.4987 12.8295 14.2355 13.4651 13.7668 13.9337C13.2982 14.4023 12.6626 14.6656 11.9999 14.6656C11.6286 14.6644 11.2624 14.5789 10.9289 14.4157L14.2488 11.0958C14.4121 11.4293 14.4975 11.7954 14.4987 12.1667ZM9.49987 12.1667C9.49987 11.504 9.76314 10.8684 10.2318 10.3998C10.7004 9.93113 11.336 9.66786 11.9987 9.66786C12.37 9.66907 12.7362 9.75451 13.0697 9.91775L9.75087 13.2366C9.58764 12.9031 9.5022 12.5369 9.50099 12.1656L9.49987 12.1667ZM19.9695 13.4452C19.1744 14.8731 18.0219 16.07 16.625 16.9183C15.2281 17.7667 13.6347 18.2375 12.001 18.2845C10.6179 18.2922 9.25423 17.9589 8.03067 17.314L9.70402 15.6406C10.504 16.1741 11.4641 16.414 12.421 16.3193C13.3779 16.2247 14.2724 15.8013 14.9523 15.1214C15.6322 14.4415 16.0556 13.547 16.1502 12.5901C16.2449 11.6332 16.005 10.6731 15.4715 9.87312L17.3992 7.94877C18.4186 8.77387 19.2884 9.76821 19.9706 10.8883C20.2079 11.2723 20.3336 11.7148 20.3336 12.1662C20.3336 12.6176 20.2079 13.0601 19.9706 13.4441L19.9695 13.4452Z" fill="#339ad5"/>
</svg>
