<svg width="24" height="24" viewBox="0 0 24 24" fill="none" xmlns="http://www.w3.org/2000/svg">
<path d="M21.3884 9.63442C20.4492 7.95942 19.0892 6.55857 17.4426 5.57038C15.7961 4.58219 13.9202 4.04089 12.0003 4C10.0802 4.04069 8.20403 4.58191 6.55729 5.57011C4.91055 6.55831 3.5503 7.95926 2.61107 9.63442C2.2116 10.2805 2 11.025 2 11.7846C2 12.5441 2.2116 13.2887 2.61107 13.9347C3.5503 15.6098 4.91055 17.0108 6.55729 17.999C8.20403 18.9872 10.0802 19.5284 12.0003 19.5691C13.9203 19.5284 15.7965 18.9872 17.4433 17.999C19.09 17.0108 20.4503 15.6098 21.3895 13.9347C21.7888 13.2886 22.0002 12.544 22 11.7844C21.9998 11.0248 21.788 10.2803 21.3884 9.63442ZM19.965 13.0624C19.1708 14.4903 18.0191 15.6873 16.6228 16.5359C15.2265 17.3844 13.6335 17.8554 12.0003 17.9025C10.3665 17.8559 8.77282 17.3853 7.37587 16.5367C5.97891 15.6881 4.82665 14.4908 4.03222 13.0624C3.79493 12.6784 3.66925 12.2359 3.66925 11.7846C3.66925 11.3332 3.79493 10.8907 4.03222 10.5067C4.82651 9.07809 5.97871 7.88058 7.37568 7.03181C8.77264 6.18303 10.3663 5.71216 12.0003 5.66545C13.6338 5.71197 15.2271 6.18279 16.6236 7.03161C18.0201 7.88044 19.1716 9.07806 19.965 10.5067C20.2023 10.8907 20.328 11.3332 20.328 11.7846C20.328 12.2359 20.2023 12.6784 19.965 13.0624Z" fill="#339ad5"/>
<path d="M12.0005 7.61914C11.1767 7.61914 10.3714 7.86343 9.68639 8.32112C9.00141 8.77881 8.46753 9.42934 8.15227 10.1904C7.83701 10.9516 7.75452 11.7891 7.91524 12.597C8.07596 13.405 8.47267 14.1472 9.05519 14.7297C9.63772 15.3123 10.3799 15.709 11.1879 15.8697C11.9959 16.0304 12.8334 15.9479 13.5945 15.6327C14.3556 15.3174 15.0061 14.7835 15.4638 14.0986C15.9215 13.4136 16.1658 12.6083 16.1658 11.7844C16.1658 10.6797 15.727 9.62027 14.9458 8.83913C14.1647 8.05798 13.1052 7.61914 12.0005 7.61914ZM12.0005 14.2832C11.5063 14.2832 11.0232 14.1366 10.6123 13.8621C10.2014 13.5875 9.8811 13.1972 9.69198 12.7407C9.50285 12.2841 9.45337 11.7817 9.54978 11.297C9.6462 10.8123 9.88418 10.367 10.2336 10.0176C10.5831 9.66811 11.0283 9.43013 11.513 9.33372C11.9977 9.2373 12.5001 9.28679 12.9567 9.47591C13.4133 9.66503 13.8036 9.9853 14.0781 10.3962C14.3527 10.8071 14.4992 11.2902 14.4992 11.7844C14.4992 12.4471 14.236 13.0827 13.7674 13.5513C13.2988 14.0199 12.6632 14.2832 12.0005 14.2832Z" fill="#339ad5"/>
</svg>
