<svg xmlns="http://www.w3.org/2000/svg" xmlns:xlink="http://www.w3.org/1999/xlink" width="311.009" height="193.102" viewBox="0 0 311.009 193.102">
  <defs>
    <linearGradient id="linear-gradient" x1="0.5" x2="0.5" y2="1" gradientUnits="objectBoundingBox">
      <stop offset="0" stop-color="#f9d0c2"/>
      <stop offset="1" stop-color="#ff9992"/>
    </linearGradient>
    <linearGradient id="linear-gradient-3" x1="0.5" x2="0.26" y2="1.064" gradientUnits="objectBoundingBox">
      <stop offset="0" stop-color="#93e69a"/>
      <stop offset="1" stop-color="#1daec4"/>
    </linearGradient>
    <linearGradient id="linear-gradient-6" x1="0.5" x2="0.5" y2="1" gradientUnits="objectBoundingBox">
      <stop offset="0" stop-color="#3b234c"/>
      <stop offset="0.337" stop-color="#402450"/>
      <stop offset="0.75" stop-color="#4f2a5c"/>
      <stop offset="1" stop-color="#5c2f67"/>
    </linearGradient>
    <clipPath id="clip-path">
      <rect id="Rectangle_18536" data-name="Rectangle 18536" width="44" height="23" transform="translate(0.415 0.189)" stroke="#707070" stroke-width="1" fill="url(#linear-gradient)"/>
    </clipPath>
    <clipPath id="clip-path-2">
      <path id="Path_30908" data-name="Path 30908" d="M1213.842,894.607,1199.9,936.614l32.232,14.467,14.558-45.775Z" transform="translate(-1199.9 -894.607)" stroke="#707070" stroke-width="1" fill="url(#linear-gradient)"/>
    </clipPath>
  </defs>
  <g id="failure-icon" transform="translate(-19182.717 -7818.899)">
    <g id="Group_39318" data-name="Group 39318" transform="translate(19182.717 7818.899)">
      <g id="Group_39286" data-name="Group 39286" transform="translate(61.389 87.15)">
        <path id="Path_30845" data-name="Path 30845" d="M1041.819,1136.63q1.9-1.119,3.755-2.311c15.777-10.136,29.316-25.069,33.787-43.281s-1.927-39.667-17.948-49.413c-13.929-8.474-31.762-6.887-47.45-2.447s-30.8,11.457-47.017,13.137c-19.207,1.99-39.8-3.468-57.244,4.815-19.361,9.193-28.088,34.314-21.815,54.807a56.975,56.975,0,0,0,15.461,24.432Z" transform="translate(-883.486 -1030.706)" fill="#339ad5" opacity="0.045"/>
        <path id="Path_30846" data-name="Path 30846" d="M907.611,1108.783l-.058-.037c-1.237-.786-2.461-1.6-3.639-2.413-17.2-11.9-28.834-27.967-32.763-45.241-4.622-20.318,2.731-42.088,17.484-51.763,11.5-7.539,27.007-8.413,46.1-2.6,4.966,1.512,9.949,3.34,14.768,5.108,9.9,3.631,20.134,7.386,30.666,8.557a138.319,138.319,0,0,0,19.885.258c12.085-.422,24.581-.858,35.571,4.761,18.064,9.236,27.574,34.983,21.2,57.394-2.752,9.674-8.349,17.328-18.715,25.593l-.064.051h-.083Zm4.279-105.371c-8.889,0-16.579,2.106-23,6.314-14.594,9.57-21.862,31.129-17.282,51.262,3.9,17.157,15.471,33.123,32.571,44.956,1.154.8,2.353,1.594,3.565,2.365l130.132-.329c10.242-8.179,15.773-15.749,18.49-25.3,6.316-22.2-3.087-47.7-20.96-56.843-10.88-5.562-23.313-5.127-35.339-4.709a138.352,138.352,0,0,1-19.953-.261c-10.589-1.177-20.852-4.942-30.777-8.583-4.813-1.765-9.79-3.591-14.743-5.1A78.549,78.549,0,0,0,911.89,1003.412Z" transform="translate(-869.778 -1002.938)" fill="#9192ff" opacity="0.6"/>
      </g>
      <g id="Group_39289" data-name="Group 39289" transform="translate(253.32 160.264)">
        <g id="Group_39287" data-name="Group 39287" transform="translate(16.506 6.832)">
          <path id="Path_30847" data-name="Path 30847" d="M2280.709,1556.626a7.9,7.9,0,1,1,8.438-7.882A8.183,8.183,0,0,1,2280.709,1556.626Zm0-12.825a4.972,4.972,0,1,0,5.5,4.944A5.25,5.25,0,0,0,2280.709,1543.8Z" transform="translate(-2272.272 -1540.863)" fill="#339ad5"/>
        </g>
        <g id="Group_39288" data-name="Group 39288">
          <path id="Path_30848" data-name="Path 30848" d="M2185.172,1529.054h-18.465l-3.156-32.037h24.778Z" transform="translate(-2163.202 -1496.701)" fill="#fff"/>
          <path id="Path_30849" data-name="Path 30849" d="M2183.463,1527.56h-19.037l-3.219-32.669h25.474Zm-18.465-.632h17.892l3.094-31.406H2161.9Z" transform="translate(-2161.207 -1494.891)" fill="#339ad5"/>
        </g>
        <path id="Path_30850" data-name="Path 30850" d="M2206.652,1579.617h-12.041l-2.058-20.083h16.157Z" transform="translate(-2187.895 -1549.926)" fill="#ebf9ff"/>
      </g>
      <g id="Group_39292" data-name="Group 39292" transform="translate(99.774 0)">
        <path id="Path_30852" data-name="Path 30852" d="M1388.937,416.569c-4.46,2.065-10.4,5.388-9.269,11.295,1.108,5.795,8.1,4.749,12.184,3.364a39.577,39.577,0,0,0,8.635-4.129c1.747-1.12,4.2-3.054,3.606-5.453-.512-2.06-2.9-2.663-4.739-2.285a19.7,19.7,0,0,0-7.794,3.881c-1.894,1.553-3.37,3.971-3,6.507a6.2,6.2,0,0,0,4.382,4.7,15.786,15.786,0,0,0,8.922-.089c1.621-.492,3.12-1.961,2.059-3.716-1.256-2.079-3.862-1.576-5.669-.661-2.439,1.235-5.327,2.849-6.534,5.439a4.756,4.756,0,0,0,1.012,5.829c1.746,1.4,4.266,1.4,6.38,1.239,1.751-.134,4.609-.5,4.887-2.707.281-2.227-2.457-3.239-4.2-2.582-2.7,1.018-4.383,4.341-5.2,6.914a15.615,15.615,0,0,0-.01,9.334c.12.387.729.222.609-.168a14.965,14.965,0,0,1,1.292-11.9c1-1.722,2.972-4.444,5.326-3.682,1.257.407,2.149,1.9,1.034,3.016a5.255,5.255,0,0,1-3.155,1.092,13.32,13.32,0,0,1-4.666-.157,4.02,4.02,0,0,1-2.912-5.561c.786-2.083,2.71-3.392,4.543-4.485,1.742-1.04,5.215-3.215,6.715-.643,1.68,2.881-3.785,3.187-5.286,3.3a10.473,10.473,0,0,1-6.467-1.126,4.918,4.918,0,0,1-2.212-5.829c.746-2.34,2.689-3.9,4.764-5.045a19.518,19.518,0,0,1,5.343-2.289,3.484,3.484,0,0,1,3.68,1.177c.918,1.463-.177,3.059-1.237,4.057-2.969,2.8-7.452,4.561-11.287,5.741-3.995,1.229-10.548,1.494-10.491-4.385.05-5.085,5.079-7.6,9.068-9.445.368-.17.048-.715-.319-.545Z" transform="translate(-1342.155 -416.536)" fill="#1b1b43"/>
        <path id="Path_30853" data-name="Path 30853" d="M1128.985,617.064c1.023,2.151,1.953,4.335,2.859,6.528l1.325,3.3,1.27,3.321-1.9-.558,3.182-2.5c1.062-.83,2.146-1.633,3.219-2.45l1.3-.989.6,1.5c.431,1.079.831,2.171,1.248,3.256s.8,2.186,1.2,3.278c.376,1.1.768,2.2,1.121,3.308s.708,2.221,1.029,3.346l-.914.374q-.839-1.54-1.611-3.108c-.526-1.04-1.014-2.1-1.518-3.146-.481-1.059-.978-2.111-1.445-3.176s-.943-2.126-1.391-3.2l1.9.51c-1.064.828-2.116,1.672-3.191,2.487l-3.227,2.44-1.37,1.036-.526-1.594-1.114-3.376-1.059-3.4c-.684-2.272-1.343-4.552-1.91-6.866Z" transform="translate(-1128.055 -587.262)" fill="#d92121"/>
        <path id="Path_30854" data-name="Path 30854" d="M1640.336,661.995c-.567,2.314-1.226,4.594-1.91,6.866l-1.059,3.4-1.114,3.376-.526,1.594-1.37-1.036-3.227-2.44c-1.074-.815-2.126-1.659-3.191-2.487l1.9-.51c-.449,1.072-.929,2.131-1.391,3.2s-.964,2.117-1.445,3.176c-.5,1.049-.992,2.105-1.518,3.146s-1.051,2.081-1.611,3.108l-.914-.374q.48-1.687,1.029-3.346c.354-1.111.746-2.206,1.121-3.308.4-1.092.782-2.191,1.2-3.278s.817-2.177,1.248-3.256l.6-1.5,1.3.989c1.072.818,2.156,1.62,3.219,2.45l3.182,2.5-1.9.558,1.27-3.321,1.325-3.3c.905-2.193,1.836-4.377,2.859-6.528Z" transform="translate(-1549.405 -625.233)" fill="#d92121"/>
      </g>
      <g id="Group_39312" data-name="Group 39312" transform="translate(83.747 52.862)">
        <path id="Union_2" data-name="Union 2" d="M35.143,42.927,0,74.068,17.884,27.234A32.235,32.235,0,0,1,39.77,7.564L68.392,0,90.33,1.333h0l2.96.183A39.894,39.894,0,0,1,126.9,24.2l9.169,17.982-23.9,8.872-1.83-4.166.138,44.855-65.652.21Z" transform="translate(0 47.783)" stroke="rgba(0,0,0,0)" stroke-miterlimit="10" stroke-width="1" fill="url(#linear-gradient-3)"/>
        <g id="Group_39308" data-name="Group 39308" transform="translate(28.304)">
          <path id="Path_30882" data-name="Path 30882" d="M1391.954,980.574a8.678,8.678,0,0,1-11.483-4.47l-.713-1.521-7.234-15.372L1368.1,949.8l21.381-10.334,9.312,19.784C1402.616,967.386,1399.567,976.893,1391.954,980.574Z" transform="translate(-1344.701 -914.61)" fill="url(#linear-gradient)"/>
          <path id="Path_30883" data-name="Path 30883" d="M1416.869,1045.613c-1.881,9.166-6.584,15.447-11.761,19.342l-7.234-15.372Z" transform="translate(-1370.052 -1004.982)" fill="#fa8579" opacity="0.751"/>
          <path id="Path_30884" data-name="Path 30884" d="M1337.672,865.367c0,11.07-6.241,18.658-14.158,22.569-8.147,4.025-16.654-11.441-20.717-21.78-4.218-10.732,7.393-18.781,17.113-18.781S1337.672,854.3,1337.672,865.367Z" transform="translate(-1288.347 -836.207)" fill="url(#linear-gradient)"/>
          <path id="Path_30885" data-name="Path 30885" d="M1260.433,795.071c-.947-11.363-3.257-22.1-13.783-19.359-4-5.576-20.727-5.471-24.83,7.786-2.647,8.552-11.153,12.731-11.153,12.731,10.206,5.366,19.614,3.356,32.721-6.628,4.1,6,15.782,6.418,15.782,6.418Z" transform="translate(-1210.667 -772.223)" fill="url(#linear-gradient-6)"/>
          <ellipse id="Ellipse_2864" data-name="Ellipse 2864" cx="6.549" cy="5.12" rx="6.549" ry="5.12" transform="translate(42.043 33.388) rotate(-82.69)" fill="url(#linear-gradient)"/>
          <path id="Path_30886" data-name="Path 30886" d="M1529.669,937.38a2.578,2.578,0,0,0-.9,2.132,4.369,4.369,0,0,0,.186,1.2,2.949,2.949,0,0,0,.569,1.076l-.188.319a2.1,2.1,0,0,1-1.147-1.07,3.292,3.292,0,0,1-.363-1.521,2.92,2.92,0,0,1,.416-1.537,2.018,2.018,0,0,1,1.268-.934Z" transform="translate(-1480.695 -912.548)" fill="#1b1b43"/>
        </g>
        <g id="Group_39309" data-name="Group 39309" transform="translate(4.765 21.738)">
          <path id="Path_30892" data-name="Path 30892" d="M1098.123,937.985c-.237-3.63.395-12.152-1.815-11.205s-2.762,13.256-2.762,13.256-.316-20.516-2.683-19.57-2.367,15.782-7.575,31.564l-29.25,61.773c-3.519,7.431-1.91,16.185,6.162,17.747h0a12.59,12.59,0,0,0,14.072-7.662c7.576-18.824,24.314-59.447,25.665-67.359,1.1-6.471.819-9.269.392-10.933C1099.625,942.847,1098.307,940.817,1098.123,937.985Z" transform="translate(-1052.278 -920.146)" fill="#67d1ae"/>
          <path id="Path_30893" data-name="Path 30893" d="M1262.167,949.012a55.248,55.248,0,0,0,2.025-7.518c.537-2.546.988-5.11,1.452-7.673l1.372-7.7c.242-1.283.492-2.565.792-3.841.151-.638.313-1.275.516-1.909a8.692,8.692,0,0,1,.359-.948,3.275,3.275,0,0,1,.261-.473,1.009,1.009,0,0,1,.544-.433l-.023.007a1.55,1.55,0,0,1,.281-.03,1.256,1.256,0,0,1,.259.08,1.107,1.107,0,0,1,.33.282,2.492,2.492,0,0,1,.363.615,8.166,8.166,0,0,1,.421,1.243,25.469,25.469,0,0,1,.511,2.506c.264,1.676.444,3.358.585,5.042.273,3.368.419,6.744.386,10.127l-.718-.016c.079-1.91.222-3.806.439-5.7a30.153,30.153,0,0,1,1.091-5.648,6.832,6.832,0,0,1,.616-1.365,2.323,2.323,0,0,1,.547-.615,1.2,1.2,0,0,1,.907-.239,2.312,2.312,0,0,1,.221.07.605.605,0,0,1,.232.116,1.488,1.488,0,0,1,.124.111.718.718,0,0,1,.069.1,1.439,1.439,0,0,1,.111.2,4.366,4.366,0,0,1,.245.73,13.349,13.349,0,0,1,.265,1.433,41.8,41.8,0,0,1,.3,5.723c-.006.962-.067,1.9.016,2.82a15.742,15.742,0,0,0,.484,2.752,27.874,27.874,0,0,0,.881,2.677,16.888,16.888,0,0,1,.875,2.742,18.981,18.981,0,0,1,.277,5.731,33.309,33.309,0,0,1-1.045,5.619l-.274-.071a32.975,32.975,0,0,0,.932-5.579,18.538,18.538,0,0,0-.371-5.591,17.4,17.4,0,0,0-.878-2.667,28.413,28.413,0,0,1-.915-2.723,16.288,16.288,0,0,1-.518-2.844c-.092-.968-.036-1.935-.037-2.87a41.274,41.274,0,0,0-.326-5.636,12.8,12.8,0,0,0-.26-1.363,3.854,3.854,0,0,0-.208-.617.794.794,0,0,0-.065-.112c-.023-.05-.039-.053-.039-.053.017-.012-.051-.024-.083-.037s-.078-.03-.116-.041c-.28-.045-.584.2-.809.577a6.252,6.252,0,0,0-.542,1.228,29.6,29.6,0,0,0-1.025,5.52c-.2,1.875-.333,3.767-.4,5.649l-.718-.015c.031-3.354-.079-6.717-.335-10.064-.13-1.673-.3-3.344-.549-5a24.859,24.859,0,0,0-.483-2.445,7.587,7.587,0,0,0-.38-1.15,1.927,1.927,0,0,0-.27-.473.54.54,0,0,0-.139-.132c-.016,0-.028-.01-.041-.016a.024.024,0,0,1-.033,0l-.023.007a.563.563,0,0,0-.187.187,2.708,2.708,0,0,0-.212.381,8.1,8.1,0,0,0-.337.877c-.2.607-.362,1.232-.514,1.861-.3,1.259-.561,2.534-.809,3.81l-1.416,7.686c-.467,2.565-.977,5.124-1.556,7.67a55.592,55.592,0,0,1-2.167,7.531Z" transform="translate(-1230.974 -918.493)" fill="#67d1ae"/>
        </g>
        <g id="Group_39311" data-name="Group 39311" transform="translate(43.021 86.258)">
          <path id="Path_30894" data-name="Path 30894" d="M1810.269,1412.271c-.107,7.272-3.276,12.354-7.247,15.283l-8.061-.126-1.995-.032h-.044l-9.476-21.571-.019-.051-8.491-19.33,23.9-8.876,8.92,21.893A34.845,34.845,0,0,1,1810.269,1412.271Z" transform="translate(-1705.792 -1373.862)" fill="#63cfab"/>
          <path id="Path_30895" data-name="Path 30895" d="M1407.553,1552.487l-62.741,7.02-8.164-2.637a11.567,11.567,0,0,0-10.777,1.964c-7.119,5.686-18.692,16.166-15.693,17.01,5.05,1.42,11.646-1.238,17.567-2.724a13.9,13.9,0,0,1,9.727,1.1l4.1,2.1,62.5-.009Z" transform="translate(-1309.693 -1522.783)" fill="#63cfab"/>
          <g id="Group_39310" data-name="Group 39310" transform="translate(1.981 38.673)">
            <path id="Path_30896" data-name="Path 30896" d="M1323.019,1658.633c1.693-.99,3.412-1.93,5.137-2.859s3.469-1.817,5.2-2.729a20.163,20.163,0,0,1,2.725-1.24,13.691,13.691,0,0,1,2.944-.678,14.984,14.984,0,0,1,3.008-.034,13.529,13.529,0,0,1,2.922.626l-.1.357a15.884,15.884,0,0,0-2.866-.323,14.224,14.224,0,0,0-2.851.193,14.7,14.7,0,0,0-2.749.728,22.612,22.612,0,0,0-2.61,1.207c-1.756.867-3.5,1.766-5.266,2.606s-3.536,1.688-5.332,2.476Z" transform="translate(-1323.019 -1645.356)" fill="#63cfab"/>
            <path id="Path_30897" data-name="Path 30897" d="M1329.162,1622.979c1.139-1.079,2.331-2.093,3.548-3.078s2.462-1.936,3.741-2.844a44.481,44.481,0,0,1,3.973-2.539,12.109,12.109,0,0,1,4.465-1.681l.031.369a8.371,8.371,0,0,0-2.084.857c-.682.341-1.337.757-1.989,1.166-1.305.825-2.578,1.714-3.853,2.6s-2.527,1.809-3.8,2.709-2.522,1.831-3.8,2.729Z" transform="translate(-1328.249 -1612.837)" fill="#63cfab"/>
          </g>
          <rect id="Rectangle_18532" data-name="Rectangle 18532" width="8.42" height="0.947" transform="translate(77.543 31.438) rotate(-1.406)" fill="#63cfab"/>
          <rect id="Rectangle_18533" data-name="Rectangle 18533" width="0.631" height="13.863" transform="translate(62.752 0.278) rotate(-26.153)" fill="#63cfab"/>
          <path id="Path_30898" data-name="Path 30898" d="M1922.339,1608.206c-.107,7.272-3.276,12.354-7.247,15.283l-8.061-.126a.057.057,0,0,1-.006-.032,12.3,12.3,0,0,1,11.855-15.624A12.061,12.061,0,0,1,1922.339,1608.206Z" transform="translate(-1817.863 -1569.797)" fill="#63cfab" opacity="0.2"/>
        </g>
        <g id="Mask_Group_33315" data-name="Mask Group 33315" transform="translate(45.296 117.025)" clip-path="url(#clip-path)">
          <g id="Group_39321" data-name="Group 39321" transform="translate(-2.275 -30.766)">
            <path id="Path_30894-2" data-name="Path 30894" d="M1810.269,1412.271c-.107,7.272-3.276,12.354-7.247,15.283l-8.061-.126-1.995-.032h-.044l-9.476-21.571-.019-.051-8.491-19.33,23.9-8.876,8.92,21.893A34.845,34.845,0,0,1,1810.269,1412.271Z" transform="translate(-1705.792 -1373.862)" fill="url(#linear-gradient)"/>
            <path id="Path_30895-2" data-name="Path 30895" d="M1407.553,1552.487l-62.741,7.02-8.164-2.637a11.567,11.567,0,0,0-10.777,1.964c-7.119,5.686-18.692,16.166-15.693,17.01,5.05,1.42,11.646-1.238,17.567-2.724a13.9,13.9,0,0,1,9.727,1.1l4.1,2.1,62.5-.009Z" transform="translate(-1309.693 -1522.783)" fill="url(#linear-gradient)"/>
            <g id="Group_39310-2" data-name="Group 39310" transform="translate(1.981 38.673)">
              <path id="Path_30896-2" data-name="Path 30896" d="M1323.019,1658.633c1.693-.99,3.412-1.93,5.137-2.859s3.469-1.817,5.2-2.729a20.163,20.163,0,0,1,2.725-1.24,13.691,13.691,0,0,1,2.944-.678,14.984,14.984,0,0,1,3.008-.034,13.529,13.529,0,0,1,2.922.626l-.1.357a15.884,15.884,0,0,0-2.866-.323,14.224,14.224,0,0,0-2.851.193,14.7,14.7,0,0,0-2.749.728,22.612,22.612,0,0,0-2.61,1.207c-1.756.867-3.5,1.766-5.266,2.606s-3.536,1.688-5.332,2.476Z" transform="translate(-1323.019 -1645.356)" fill="url(#linear-gradient)"/>
              <path id="Path_30897-2" data-name="Path 30897" d="M1329.162,1622.979c1.139-1.079,2.331-2.093,3.548-3.078s2.462-1.936,3.741-2.844a44.481,44.481,0,0,1,3.973-2.539,12.109,12.109,0,0,1,4.465-1.681l.031.369a8.371,8.371,0,0,0-2.084.857c-.682.341-1.337.757-1.989,1.166-1.305.825-2.578,1.714-3.853,2.6s-2.527,1.809-3.8,2.709-2.522,1.831-3.8,2.729Z" transform="translate(-1328.249 -1612.837)" fill="url(#linear-gradient)"/>
            </g>
            <rect id="Rectangle_18532-2" data-name="Rectangle 18532" width="8.42" height="0.947" transform="translate(77.543 31.438) rotate(-1.406)" fill="url(#linear-gradient)"/>
            <rect id="Rectangle_18533-2" data-name="Rectangle 18533" width="0.631" height="13.863" transform="translate(62.752 0.278) rotate(-26.153)" fill="url(#linear-gradient)"/>
            <path id="Path_30898-2" data-name="Path 30898" d="M1922.339,1608.206c-.107,7.272-3.276,12.354-7.247,15.283l-8.061-.126a.057.057,0,0,1-.006-.032,12.3,12.3,0,0,1,11.855-15.624A12.061,12.061,0,0,1,1922.339,1608.206Z" transform="translate(-1817.863 -1569.797)" opacity="0.2" fill="url(#linear-gradient)"/>
          </g>
        </g>
        <g id="Mask_Group_33316" data-name="Mask Group 33316" transform="translate(26.704 18.189)" clip-path="url(#clip-path-2)">
          <g id="Group_39322" data-name="Group 39322" transform="translate(-21.94 3.55)">
            <path id="Path_30892-2" data-name="Path 30892" d="M1098.123,937.985c-.237-3.63.395-12.152-1.815-11.205s-2.762,13.256-2.762,13.256-.316-20.516-2.683-19.57-2.367,15.782-7.575,31.564l-29.25,61.773c-3.519,7.431-1.91,16.185,6.162,17.747h0a12.59,12.59,0,0,0,14.072-7.662c7.576-18.824,24.314-59.447,25.665-67.359,1.1-6.471.819-9.269.392-10.933C1099.625,942.847,1098.307,940.817,1098.123,937.985Z" transform="translate(-1052.278 -920.146)" fill="url(#linear-gradient)"/>
            <path id="Path_30893-2" data-name="Path 30893" d="M1262.167,949.012a55.248,55.248,0,0,0,2.025-7.518c.537-2.546.988-5.11,1.452-7.673l1.372-7.7c.242-1.283.492-2.565.792-3.841.151-.638.313-1.275.516-1.909a8.692,8.692,0,0,1,.359-.948,3.275,3.275,0,0,1,.261-.473,1.009,1.009,0,0,1,.544-.433l-.023.007a1.55,1.55,0,0,1,.281-.03,1.256,1.256,0,0,1,.259.08,1.107,1.107,0,0,1,.33.282,2.492,2.492,0,0,1,.363.615,8.166,8.166,0,0,1,.421,1.243,25.469,25.469,0,0,1,.511,2.506c.264,1.676.444,3.358.585,5.042.273,3.368.419,6.744.386,10.127l-.718-.016c.079-1.91.222-3.806.439-5.7a30.153,30.153,0,0,1,1.091-5.648,6.832,6.832,0,0,1,.616-1.365,2.323,2.323,0,0,1,.547-.615,1.2,1.2,0,0,1,.907-.239,2.312,2.312,0,0,1,.221.07.605.605,0,0,1,.232.116,1.488,1.488,0,0,1,.124.111.718.718,0,0,1,.069.1,1.439,1.439,0,0,1,.111.2,4.366,4.366,0,0,1,.245.73,13.349,13.349,0,0,1,.265,1.433,41.8,41.8,0,0,1,.3,5.723c-.006.962-.067,1.9.016,2.82a15.742,15.742,0,0,0,.484,2.752,27.874,27.874,0,0,0,.881,2.677,16.888,16.888,0,0,1,.875,2.742,18.981,18.981,0,0,1,.277,5.731,33.309,33.309,0,0,1-1.045,5.619l-.274-.071a32.975,32.975,0,0,0,.932-5.579,18.538,18.538,0,0,0-.371-5.591,17.4,17.4,0,0,0-.878-2.667,28.413,28.413,0,0,1-.915-2.723,16.288,16.288,0,0,1-.518-2.844c-.092-.968-.036-1.935-.037-2.87a41.274,41.274,0,0,0-.326-5.636,12.8,12.8,0,0,0-.26-1.363,3.854,3.854,0,0,0-.208-.617.794.794,0,0,0-.065-.112c-.023-.05-.039-.053-.039-.053.017-.012-.051-.024-.083-.037s-.078-.03-.116-.041c-.28-.045-.584.2-.809.577a6.252,6.252,0,0,0-.542,1.228,29.6,29.6,0,0,0-1.025,5.52c-.2,1.875-.333,3.767-.4,5.649l-.718-.015c.031-3.354-.079-6.717-.335-10.064-.13-1.673-.3-3.344-.549-5a24.859,24.859,0,0,0-.483-2.445,7.587,7.587,0,0,0-.38-1.15,1.927,1.927,0,0,0-.27-.473.54.54,0,0,0-.139-.132c-.016,0-.028-.01-.041-.016a.024.024,0,0,1-.033,0l-.023.007a.563.563,0,0,0-.187.187,2.708,2.708,0,0,0-.212.381,8.1,8.1,0,0,0-.337.877c-.2.607-.362,1.232-.514,1.861-.3,1.259-.561,2.534-.809,3.81l-1.416,7.686c-.467,2.565-.977,5.124-1.556,7.67a55.592,55.592,0,0,1-2.167,7.531Z" transform="translate(-1230.974 -918.493)" fill="url(#linear-gradient)"/>
          </g>
        </g>
      </g>
      <g id="Group_39314" data-name="Group 39314" transform="translate(33.669 135.249)">
        <g id="Group_39313" data-name="Group 39313" transform="translate(0.314 0.237)">
          <rect id="Rectangle_18534" data-name="Rectangle 18534" width="35.983" height="7.575" transform="translate(61.339 49.555)" fill="#1b1b43"/>
          <path id="Path_30899" data-name="Path 30899" d="M758.922,1385.3h-57.13l-16.413-57.13h57.13Z" transform="translate(-685.378 -1328.174)" fill="#ebebff"/>
        </g>
        <path id="Path_30900" data-name="Path 30900" d="M699.764,1384.011l-16.5-57.433h17.674v.474H683.892l16.326,56.828Z" transform="translate(-683.264 -1326.578)" fill="#1b1b43"/>
        <path id="Path_30901" data-name="Path 30901" d="M928.2,1363.059l-10.472-36.008H891.389v-.474H918.08l10.571,36.349Z" transform="translate(-860.457 -1326.578)" fill="#1b1b43"/>
      </g>
      <rect id="Rectangle_18535" data-name="Rectangle 18535" width="311.009" height="0.947" transform="translate(0 192.127)" fill="#1b1b43"/>
    </g>
    <g id="Group_39320" data-name="Group 39320" transform="translate(19330.156 7938.209)">
      <path id="Path_30904" data-name="Path 30904" d="M294.38,239.978l-2.126,3.077h-3.806l-1.547-3.709,4.322-2.889Z" transform="translate(-282.555 -236.455)" fill="#285e96"/>
      <path id="Path_30905" data-name="Path 30905" d="M1451.884,805.189s-1.588,18.276-5.946,42.533l3,2.736,3.521-1.888s1.3-13.009,3.133-43.381Z" transform="translate(-1445.938 -798.684)" fill="#285e96"/>
    </g>
    <path id="Path_30906" data-name="Path 30906" d="M27.749,10.192h0c-2.584,3.139-6.182,5.03-9.917,6.418l-1.989.739-.806-.464A15.424,15.424,0,0,1,7.8,9.054a39.083,39.083,0,0,1-2.415-7.3L2.16,0,.563.273.1,7.337A56.382,56.382,0,0,0,2.409,26.709l.035.112,13.235-8.849L26.933,30.094h0a50.24,50.24,0,0,0,6.79-17.753c1.33-7.244-1.47-11.223-1.47-11.223L29.535.566a14.974,14.974,0,0,1-.241,4.79A43.874,43.874,0,0,1,27.749,10.192Z" transform="matrix(0.995, -0.105, 0.105, 0.995, 19320.746, 7922.921)" fill="#9cfbb1"/>
    <path id="Path_30907" data-name="Path 30907" d="M1406.224,1056.43a5.173,5.173,0,0,1,2.357-1.5,7.071,7.071,0,0,1,2.728-.352l.068.364a19.86,19.86,0,0,1-2.5.884c-.824.255-1.6.558-2.427.9Z" transform="translate(17915.824 6859.613)" fill="#1b1b43"/>
    <circle id="Ellipse_2871" data-name="Ellipse 2871" cx="4.037" cy="4.037" r="4.037" transform="matrix(0.012, -1, 1, 0.012, 19328.756, 7910.46)" fill="#fe5b52" opacity="0.2"/>
  </g>
</svg>
