<svg xmlns="http://www.w3.org/2000/svg" width="20" height="20" viewBox="0 0 20 20">
  <g id="filter" transform="translate(643 1998)">
    <g id="base" transform="translate(-643 -1998)" opacity="0.001">
      <rect id="Rectangle_982" data-name="Rectangle 982" width="20" height="20" fill="#339ad5"/>
      <rect id="Rectangle_983" data-name="Rectangle 983" width="17" height="17" transform="translate(2 2)" fill="#e88e8e"/>
    </g>
    <path id="Subtraction_50" data-name="Subtraction 50" d="M9.137,14a.651.651,0,0,1-.291-.069l-2.822-1.4a.694.694,0,0,1-.378-.62V7.581L.167,1.143A.7.7,0,0,1,.06.408.661.661,0,0,1,.671,0h14.11a.661.661,0,0,1,.612.408.7.7,0,0,1-.108.734L9.808,7.581v5.728A.681.681,0,0,1,9.137,14ZM2.148,1.378h0L6.82,6.867a.7.7,0,0,1,.166.455v4.153l1.482.736V7.321a.7.7,0,0,1,.166-.455l4.672-5.489Z" transform="translate(-640.545 -1994.818)" fill="#339ad5"/>
  </g>
</svg>
