<svg xmlns="http://www.w3.org/2000/svg" width="32" height="32" viewBox="0 0 32 32">
  <g id="fingerprint" transform="translate(643 1998)">
    <g id="Group_40007" data-name="Group 40007" transform="translate(-643 -1998)" opacity="0">
      <rect id="Rectangle_982" data-name="Rectangle 982" width="32" height="32" fill="#148AFF"/>
      <rect id="Rectangle_983" data-name="Rectangle 983" width="26.667" height="26.667" transform="translate(2.667 2.667)" fill="#148AFF"/>
    </g>
    <g id="login_touchid" transform="translate(-639 -1994)">
      <path id="Path_18730" data-name="Path 18730" d="M374.048,0H370.7a.7.7,0,1,0,0,1.4h3.347a1.185,1.185,0,0,1,1.184,1.184V5.932a.7.7,0,0,0,1.4,0V2.585A2.588,2.588,0,0,0,374.048,0Z" transform="translate(-352.718 0)" fill="#148AFF"/>
      <path id="Path_18731" data-name="Path 18731" d="M.7,6.633a.7.7,0,0,0,.7-.7V2.585A1.185,1.185,0,0,1,2.585,1.4H5.932a.7.7,0,1,0,0-1.4H2.585A2.588,2.588,0,0,0,0,2.585V5.932a.7.7,0,0,0,.7.7Z" transform="translate(0 0)" fill="#148AFF"/>
      <path id="Path_18732" data-name="Path 18732" d="M5.932,375.231H2.585A1.185,1.185,0,0,1,1.4,374.048V370.7a.7.7,0,1,0-1.4,0v3.347a2.588,2.588,0,0,0,2.585,2.585H5.932a.7.7,0,0,0,0-1.4Z" transform="translate(0 -352.718)" fill="#148AFF"/>
      <path id="Path_18733" data-name="Path 18733" d="M375.932,370a.7.7,0,0,0-.7.7v3.347a1.185,1.185,0,0,1-1.184,1.184H370.7a.7.7,0,1,0,0,1.4h3.347a2.588,2.588,0,0,0,2.585-2.585V370.7A.7.7,0,0,0,375.932,370Z" transform="translate(-352.718 -352.718)" fill="#148AFF"/>
      <path id="Path_18734" data-name="Path 18734" d="M104.4,43.864c-4.863-3.607-10.1-3.7-15.11-.064a.7.7,0,1,0,.823,1.134c4.524-3.285,9.1-3.176,13.452.056a.7.7,0,0,0,.835-1.125Z" transform="translate(-84.842 -39.195)" fill="#148AFF"/>
      <path id="Path_18735" data-name="Path 18735" d="M81.547,105a11.357,11.357,0,0,0-8.43,4.422.7.7,0,1,0,1.166.777,10.025,10.025,0,0,1,7.264-3.8c2.468,0,5.844,1.317,7.239,3.757a.7.7,0,1,0,1.217-.7C88.4,106.652,84.624,105,81.547,105Z" transform="translate(-69.589 -100.096)" fill="#148AFF"/>
      <path id="Path_18736" data-name="Path 18736" d="M146.4,238.558a3.8,3.8,0,1,1,7.567,0v.747a.7.7,0,0,0,1.4,0v-.747a5.2,5.2,0,1,0-10.369,0c0,2.979,2.24,4.575,3.229,6a.7.7,0,1,0,1.152-.8C148.311,242.219,146.4,240.937,146.4,238.558Z" transform="translate(-138.227 -222.117)" fill="#148AFF"/>
      <path id="Path_18737" data-name="Path 18737" d="M96.9,180.1c2.165-4.331-1.685-11.1-7.726-11.1A8.309,8.309,0,0,0,81,177.174a7.138,7.138,0,0,0,1.251,4.517.7.7,0,0,0,1.141-.814,5.667,5.667,0,0,1-.991-3.7,6.95,6.95,0,0,1,6.773-6.773,6.813,6.813,0,0,1,4.921,2.2c1.856,1.977,2.523,4.934,1.552,6.877a2.272,2.272,0,0,1-4.278-1.181c0-5.2-5.323-3.642-4.37.17a.7.7,0,1,0,1.359-.34c-.245-.979.2-1.745.815-1.745.548,0,.794.962.794,1.915A3.672,3.672,0,0,0,96.9,180.1Z" transform="translate(-77.217 -161.106)" fill="#148AFF"/>
    </g>
  </g>
</svg>
