<?xml version="1.0" encoding="utf-8"?>
<!-- Generator: Adobe Illustrator 23.0.1, SVG Export Plug-In . SVG Version: 6.00 Build 0)  -->
<svg version="1.1" id="Layer_1" xmlns="http://www.w3.org/2000/svg" xmlns:xlink="http://www.w3.org/1999/xlink" x="0px" y="0px"
	 viewBox="0 0 24 24" style="enable-background:new 0 0 24 24;" xml:space="preserve">
<style type="text/css">
	.st0{fill:#339ad5;fill-opacity:0;}
	.st1{fill:#339ad5;}
</style>
<g>
	<g transform="translate(643 1998)">
		<path class="st0" d="M-646-1998.9L-646-1998.9L-646-1998.9z"/>
		<path class="st1" d="M-626-1984.6c-0.4,0.1-1.3,0.4-1.6,0.6l-2-0.6c-0.5-0.2-0.3-0.2-0.8-0.5v-0.5l0,0c1.2-0.4,1.9-1.4,1.9-2.6
			v-2.6c0-2.6-2.2-4.6-4.7-4.6c-2.6,0-4.6,2.1-4.6,4.6v2.6c0,1.2,0.8,2.3,2,2.6v0.5c0,0.3-0.2,0.5-0.5,0.6l-4.1,1.6
			c-1.3,0.5-2.1,1.7-2.1,3.1v2.2c0,0.7,0.6,1.4,1.4,1.4h12.3c1.8,2.3,5.2,2.6,7.5,0.8c2.3-1.8,2.6-5.2,0.8-7.5
			c-1.6-1.7-3.4-1.8-3.4-1.8C-625-1984.8-626-1984.6-626-1984.6z M-641.1-1977.4v-2.2c0-0.8,0.5-1.5,1.3-1.8l4.1-1.6
			c0.7-0.3,1.3-1,1.3-1.8v-0.5c0-0.6-0.5-1.2-1-1.3c-0.5-0.2-1-0.7-1-1.3v-2.6c0-1.8,1.5-3.3,3.4-3.3c1.8,0,3.2,1.5,3.3,3.3v2.6
			c0,0.6-0.4,1.1-1,1.3c-0.6,0.2-1,0.6-1,1.3v0.5c0,0.8,2.3,1.5,3.1,1.8l0.2,0.1c-1.5,1.5-1.8,3.7-1.1,5.6L-641.1-1977.4
			L-641.1-1977.4z M-624.7-1975.4c-2.2,0-4-1.8-4-4s1.8-4,4-4c1.2,0,2.3,0.5,3.1,1.5c0.6,0.7,1,1.6,0.9,2.6
			C-620.7-1977.1-622.5-1975.4-624.7-1975.4z"/>
	</g>
	<path class="st1" d="M18.4,8.9c-2,0-3.7,1.6-3.7,3.7v2.7c-0.8,0.9-1.2,2-1.2,3.2c0,2.7,2.2,4.9,4.9,4.9s4.9-2.2,4.9-4.9
		c0-1.2-0.5-2.4-1.2-3.2v-2.7C22.1,10.6,20.4,8.9,18.4,8.9z M18.4,10.1c1.4,0,2.5,1.1,2.5,2.5v1.7c-0.7-0.4-1.6-0.7-2.5-0.7
		s-1.7,0.2-2.5,0.7v-1.7C15.9,11.2,17,10.1,18.4,10.1z M18.4,14.8c2,0,3.7,1.7,3.7,3.7s-1.7,3.7-3.7,3.7s-3.7-1.7-3.7-3.7
		S16.3,14.8,18.4,14.8z M18.4,16.7c-0.7,0-1.2,0.6-1.2,1.2c0,0.5,0.2,0.8,0.6,1.1v2H19v-2c0.4-0.2,0.6-0.6,0.6-1.1
		C19.6,17.2,19,16.7,18.4,16.7z"/>
</g>
</svg>
