<svg width="24" height="24" viewBox="0 0 24 24" fill="none" xmlns="http://www.w3.org/2000/svg">
<path fill-rule="evenodd" clip-rule="evenodd" d="M3.19102 3.19102C3.31332 3.06871 3.47921 3 3.65217 3L7.82609 3C8.18627 3 8.47826 3.29199 8.47826 3.65217C8.47826 4.01236 8.18627 4.30435 7.82609 4.30435L5.22666 4.30435L8.80898 7.88667C9.06367 8.14136 9.06367 8.55429 8.80898 8.80898C8.55429 9.06367 8.14136 9.06367 7.88667 8.80898L4.30435 5.22666L4.30435 7.82609C4.30435 8.18627 4.01236 8.47826 3.65217 8.47826C3.29199 8.47826 3 8.18627 3 7.82609L3 3.65217C3 3.47921 3.06871 3.31332 3.19102 3.19102ZM18.7733 4.30435H16.1739C15.8137 4.30435 15.5217 4.01236 15.5217 3.65217C15.5217 3.29199 15.8137 3 16.1739 3H20.3478C20.708 3 21 3.29199 21 3.65217V7.82609C21 8.18627 20.708 8.47826 20.3478 8.47826C19.9876 8.47826 19.6957 8.18627 19.6957 7.82609V5.22666L16.1133 8.80898C15.8586 9.06367 15.4457 9.06367 15.191 8.80898C14.9363 8.55429 14.9363 8.14136 15.191 7.88667L18.7733 4.30435ZM8.80898 15.191C9.06367 15.4457 9.06367 15.8586 8.80898 16.1133L5.22666 19.6957H7.82609C8.18627 19.6957 8.47826 19.9876 8.47826 20.3478C8.47826 20.708 8.18627 21 7.82609 21H3.65217C3.29199 21 3 20.708 3 20.3478V16.1739C3 15.8137 3.29199 15.5217 3.65217 15.5217C4.01236 15.5217 4.30435 15.8137 4.30435 16.1739V18.7733L7.88667 15.191C8.14136 14.9363 8.55429 14.9363 8.80898 15.191ZM15.191 15.191C15.4457 14.9363 15.8586 14.9363 16.1133 15.191L19.6957 18.7733L19.6957 16.1739C19.6957 15.8137 19.9876 15.5217 20.3478 15.5217C20.708 15.5217 21 15.8137 21 16.1739L21 20.3478C21 20.708 20.708 21 20.3478 21H16.1739C15.8137 21 15.5217 20.708 15.5217 20.3478C15.5217 19.9876 15.8137 19.6957 16.1739 19.6957H18.7733L15.191 16.1133C14.9363 15.8586 14.9363 15.4457 15.191 15.191Z" fill="white"/>
</svg>
