<svg width="28" height="28" viewBox="0 0 28 28" fill="none" xmlns="http://www.w3.org/2000/svg">
<path d="M23.1604 5.06763H21.5191V4.38377C21.5191 3.83981 21.303 3.31813 20.9184 2.93349C20.5337 2.54885 20.0121 2.33276 19.4681 2.33276C18.9241 2.33276 18.4025 2.54885 18.0178 2.93349C17.6332 3.31813 17.4171 3.83981 17.4171 4.38377V5.06763H10.5819V4.38377C10.5819 3.83981 10.3658 3.31813 9.98115 2.93349C9.59652 2.54885 9.07483 2.33276 8.53087 2.33276C7.98691 2.33276 7.46523 2.54885 7.08059 2.93349C6.69595 3.31813 6.47987 3.83981 6.47987 4.38377V5.06763H4.83973C4.17527 5.06851 3.53828 5.33285 3.06844 5.80269C2.5986 6.27254 2.33426 6.90952 2.33337 7.57398L2.33337 23.1603C2.33426 23.8248 2.5986 24.4617 3.06844 24.9316C3.53828 25.4014 4.17527 25.6658 4.83973 25.6667H23.1604C23.8248 25.6658 24.4618 25.4014 24.9316 24.9316C25.4015 24.4617 25.6658 23.8248 25.6667 23.1603V7.57398C25.6658 6.90952 25.4015 6.27254 24.9316 5.80269C24.4618 5.33285 23.8248 5.06851 23.1604 5.06763ZM18.7904 4.38377C18.7904 4.2024 18.8624 4.02846 18.9907 3.90021C19.1189 3.77197 19.2928 3.69992 19.4742 3.69992C19.6556 3.69992 19.8295 3.77197 19.9578 3.90021C20.086 4.02846 20.1581 4.2024 20.1581 4.38377V7.11474C20.1581 7.29611 20.086 7.47005 19.9578 7.5983C19.8295 7.72655 19.6556 7.7986 19.4742 7.7986C19.2928 7.7986 19.1189 7.72655 18.9907 7.5983C18.8624 7.47005 18.7904 7.29611 18.7904 7.11474V4.38377ZM7.85314 4.38377C7.85314 4.2024 7.92518 4.02846 8.05343 3.90021C8.18168 3.77197 8.35562 3.69992 8.53699 3.69992C8.71836 3.69992 8.8923 3.77197 9.02055 3.90021C9.14879 4.02846 9.22084 4.2024 9.22084 4.38377V7.11474C9.22084 7.29611 9.14879 7.47005 9.02055 7.5983C8.8923 7.72655 8.71836 7.7986 8.53699 7.7986C8.35562 7.7986 8.18168 7.72655 8.05343 7.5983C7.92518 7.47005 7.85314 7.29611 7.85314 7.11474V4.38377ZM3.70108 7.57398C3.70167 7.27217 3.82182 6.98289 4.03523 6.76948C4.24864 6.55607 4.53792 6.43592 4.83973 6.43533H6.48098V7.11474C6.48098 7.6587 6.69707 8.18038 7.0817 8.56502C7.46634 8.94966 7.98802 9.16575 8.53199 9.16575C9.07595 9.16575 9.59763 8.94966 9.98227 8.56502C10.3669 8.18038 10.583 7.6587 10.583 7.11474V6.43533H17.4193V7.11474C17.4193 7.6587 17.6354 8.18038 18.02 8.56502C18.4047 8.94966 18.9264 9.16575 19.4703 9.16575C20.0143 9.16575 20.536 8.94966 20.9206 8.56502C21.3052 8.18038 21.5213 7.6587 21.5213 7.11474V6.43533H23.1604C23.4625 6.43563 23.7523 6.5558 23.966 6.76949C24.1796 6.98317 24.2998 7.2729 24.3001 7.57509V10.6274H3.70108V7.57398ZM24.299 23.1603C24.2987 23.4625 24.1785 23.7522 23.9648 23.9659C23.7512 24.1796 23.4614 24.2998 23.1592 24.3001H4.83973C4.53773 24.2995 4.24828 24.1792 4.03484 23.9655C3.8214 23.7519 3.70138 23.4623 3.70108 23.1603V11.9951H24.299V23.1603Z" fill="#148AFF"/>
<path d="M16.314 14.7284H17.3837V22.2474C17.38 22.3395 17.3949 22.4313 17.4275 22.5175C17.4602 22.6036 17.51 22.6823 17.5738 22.7487C17.6376 22.8152 17.7142 22.868 17.7989 22.9041C17.8837 22.9402 17.9748 22.9589 18.067 22.9589C18.1591 22.9589 18.2503 22.9402 18.335 22.9041C18.4198 22.868 18.4964 22.8152 18.5602 22.7487C18.624 22.6823 18.6737 22.6036 18.7064 22.5175C18.7391 22.4313 18.754 22.3395 18.7503 22.2474V14.0445C18.7503 13.8632 18.6782 13.6892 18.55 13.561C18.4217 13.4327 18.2478 13.3607 18.0664 13.3607H16.3128C16.2208 13.3569 16.1289 13.3719 16.0428 13.4045C15.9566 13.4372 15.878 13.4869 15.8116 13.5508C15.7451 13.6146 15.6923 13.6912 15.6561 13.7759C15.62 13.8607 15.6014 13.9518 15.6014 14.044C15.6014 14.1361 15.62 14.2273 15.6561 14.312C15.6923 14.3968 15.7451 14.4734 15.8116 14.5372C15.878 14.601 15.9566 14.6507 16.0428 14.6834C16.1289 14.7161 16.2208 14.731 16.3128 14.7273L16.314 14.7284Z" fill="#148AFF"/>
<path d="M11.9843 21.5647C11.6551 21.5641 11.337 21.445 11.0883 21.2292C10.8397 21.0134 10.677 20.7153 10.63 20.3894C10.6211 20.326 10.6166 20.2621 10.6166 20.1981C10.6166 20.0168 10.5446 19.8428 10.4163 19.7146C10.2881 19.5863 10.1141 19.5143 9.93276 19.5143C9.75139 19.5143 9.57745 19.5863 9.4492 19.7146C9.32095 19.8428 9.2489 20.0168 9.2489 20.1981C9.2489 20.9233 9.53699 21.6188 10.0498 22.1316C10.5625 22.6444 11.258 22.9324 11.9832 22.9324C12.7084 22.9324 13.4039 22.6444 13.9166 22.1316C14.4294 21.6188 14.7175 20.9233 14.7175 20.1981C14.7176 19.81 14.6348 19.4263 14.4746 19.0727C14.3145 18.7191 14.0808 18.4037 13.789 18.1477C14.1147 17.8605 14.3673 17.4999 14.5259 17.0957C14.6844 16.6915 14.7444 16.2553 14.7008 15.8233C14.6573 15.3913 14.5114 14.9759 14.2753 14.6115C14.0393 14.2471 13.7198 13.9442 13.3433 13.7278C12.9668 13.5115 12.5443 13.3879 12.1105 13.3674C11.6768 13.3469 11.2445 13.43 10.8493 13.6099C10.4541 13.7897 10.1074 14.0612 9.83802 14.4017C9.56861 14.7422 9.38419 15.142 9.30006 15.5679C9.2788 15.6575 9.27585 15.7504 9.29137 15.8412C9.30689 15.9319 9.34056 16.0185 9.39037 16.096C9.44019 16.1734 9.50514 16.2399 9.58129 16.2916C9.65744 16.3433 9.74324 16.3791 9.83356 16.3969C9.92387 16.4146 10.0169 16.4139 10.1069 16.3949C10.197 16.3759 10.2823 16.3388 10.3577 16.286C10.4331 16.2332 10.497 16.1658 10.5457 16.0877C10.5944 16.0095 10.6269 15.9224 10.6411 15.8315C10.6914 15.5773 10.813 15.3426 10.9915 15.1548C11.1701 14.967 11.3984 14.8338 11.6498 14.7707C11.9011 14.7076 12.1652 14.7172 12.4113 14.7984C12.6574 14.8796 12.8754 15.0291 13.0398 15.2294C13.2043 15.4297 13.3084 15.6726 13.3401 15.9298C13.3719 16.187 13.3299 16.4479 13.219 16.6822C13.1082 16.9164 12.9331 17.1144 12.7141 17.253C12.4951 17.3915 12.2412 17.4651 11.9821 17.4649C11.89 17.4612 11.7982 17.4762 11.7121 17.5088C11.6259 17.5415 11.5473 17.5912 11.4808 17.655C11.4144 17.7188 11.3615 17.7954 11.3254 17.8802C11.2893 17.9649 11.2707 18.0561 11.2707 18.1482C11.2707 18.2404 11.2893 18.3315 11.3254 18.4163C11.3615 18.501 11.4144 18.5776 11.4808 18.6414C11.5473 18.7053 11.6259 18.755 11.7121 18.7877C11.7982 18.8203 11.89 18.8353 11.9821 18.8315C12.1649 18.8263 12.3469 18.8578 12.5173 18.9242C12.6878 18.9905 12.8432 19.0904 12.9743 19.2179C13.1055 19.3454 13.2097 19.4978 13.2809 19.6663C13.3521 19.8348 13.3888 20.0158 13.3888 20.1987C13.3888 20.3816 13.3521 20.5626 13.2809 20.7311C13.2097 20.8996 13.1055 21.052 12.9743 21.1795C12.8432 21.307 12.6878 21.4068 12.5173 21.4732C12.3469 21.5396 12.1649 21.5711 11.9821 21.5659L11.9843 21.5647Z" fill="#148AFF"/>
</svg>
