<svg width="25" height="24" viewBox="0 0 25 24" fill="none" xmlns="http://www.w3.org/2000/svg">
<path d="M21.4298 9.46876L15.1722 3.20656C14.3977 2.43389 13.3486 2 12.255 2C11.1613 2 10.1123 2.43389 9.33778 3.20656L3.08016 9.46876C2.84952 9.69807 2.66665 9.97091 2.54217 10.2715C2.41769 10.572 2.35406 10.8943 2.35499 11.2196V19.3235C2.35499 19.9803 2.61575 20.6102 3.0799 21.0747C3.54405 21.5391 4.17358 21.8 4.82999 21.8H19.68C20.3364 21.8 20.9659 21.5391 21.4301 21.0747C21.8942 20.6102 22.155 19.9803 22.155 19.3235V11.2196C22.1559 10.8943 22.0923 10.572 21.9678 10.2715C21.8433 9.97091 21.6604 9.69807 21.4298 9.46876ZM14.73 20.149H9.77998V16.9015C9.77998 16.2447 10.0407 15.6148 10.5049 15.1504C10.969 14.6859 11.5986 14.425 12.255 14.425C12.9114 14.425 13.5409 14.6859 14.0051 15.1504C14.4692 15.6148 14.73 16.2447 14.73 16.9015V20.149ZM20.505 19.3235C20.505 19.5424 20.4181 19.7524 20.2633 19.9072C20.1086 20.062 19.8988 20.149 19.68 20.149H16.38V16.9015C16.38 15.8068 15.9454 14.757 15.1718 13.983C14.3982 13.2089 13.349 12.774 12.255 12.774C11.161 12.774 10.1118 13.2089 9.33817 13.983C8.56458 14.757 8.12998 15.8068 8.12998 16.9015V20.149H4.82999C4.61118 20.149 4.40134 20.062 4.24663 19.9072C4.09191 19.7524 4.00499 19.5424 4.00499 19.3235V11.2196C4.00575 11.0009 4.09259 10.7912 4.24671 10.636L10.5043 4.37629C10.9694 3.91313 11.5988 3.65311 12.255 3.65311C12.9111 3.65311 13.5406 3.91313 14.0056 4.37629L20.2632 10.6385C20.4168 10.7931 20.5036 11.0017 20.505 11.2196V19.3235Z" fill="white" stroke="white" stroke-width="0.2"/>
</svg>
