<?xml version="1.0" encoding="utf-8"?>
<!-- Generator: Adobe Illustrator 23.0.1, SVG Export Plug-In . SVG Version: 6.00 Build 0)  -->
<svg version="1.1" id="inactive_upi_number" xmlns="http://www.w3.org/2000/svg" xmlns:xlink="http://www.w3.org/1999/xlink"
	 x="0px" y="0px" viewBox="0 0 32 32" style="enable-background:new 0 0 32 32;" xml:space="preserve">
<style type="text/css">
	.st0{fill:#339ad5;fill-opacity:0;}
	.st1{fill:#339ad5;stroke:#339ad5;stroke-width:0.3;}
</style>
<rect id="Rectangle_18710" class="st0" width="32" height="32"/>
<g id="noun_toggle_1943594" transform="translate(2.613 7.834)">
	<path id="Path_43342" class="st1" d="M19.2-0.1H7.8C3-0.1-0.9,3.8-0.9,8.6c0,4.8,3.9,8.7,8.7,8.7c0,0,0,0,0,0h11.4
		c4.8,0,8.7-3.9,8.7-8.7S24-0.1,19.2-0.1z M19.2,16.1H7.8c-4.1,0-7.5-3.4-7.5-7.5s3.4-7.5,7.5-7.5h11.4c4.1,0,7.5,3.4,7.5,7.5
		S23.4,16.1,19.2,16.1z"/>
	<path id="Path_43342_-_Outline" class="st1" d="M7.8-0.3h11.4c4.9,0,8.9,4,8.9,8.9s-4,8.9-8.9,8.9l0,0H7.8c-4.9,0-8.9-4-8.9-8.9
		C-1.2,3.7,2.8-0.3,7.8-0.3z M19.2,17.1c4.7,0,8.5-3.8,8.5-8.5c0-4.7-3.8-8.5-8.5-8.5H7.8c-4.7,0-8.5,3.8-8.5,8.5
		c0,4.7,3.8,8.5,8.5,8.5H19.2z M7.8,0.9h11.4c4.3,0,7.7,3.5,7.7,7.7c0,4.3-3.5,7.7-7.7,7.7H7.8C3.5,16.3,0,12.9,0,8.6
		S3.5,0.9,7.8,0.9C7.8,0.9,7.8,0.9,7.8,0.9z M19.2,15.9c4,0,7.3-3.3,7.3-7.3c0-4-3.3-7.3-7.3-7.3H7.8c-4,0-7.3,3.3-7.3,7.3
		s3.3,7.3,7.3,7.3c0,0,0,0,0,0H19.2z"/>
	<path id="Path_43343" class="st1" d="M7.8,3.2c-3,0-5.4,2.4-5.4,5.4s2.4,5.4,5.4,5.4s5.4-2.4,5.4-5.4C13.2,5.6,10.8,3.2,7.8,3.2z
		 M7.8,12.8c-2.3,0-4.2-1.9-4.2-4.2c0-2.3,1.9-4.2,4.2-4.2c2.3,0,4.2,1.9,4.2,4.2C12,11,10.1,12.9,7.8,12.8L7.8,12.8z"/>
	<path id="Path_43343_-_Outline" class="st1" d="M7.8,2.9c3.1,0,5.7,2.5,5.7,5.7s-2.5,5.7-5.7,5.7s-5.7-2.5-5.7-5.7l0,0
		C2.1,5.5,4.7,2.9,7.8,2.9z M7.8,13.8c2.9,0,5.2-2.3,5.2-5.2s-2.3-5.2-5.2-5.2S2.6,5.7,2.6,8.6C2.6,11.5,4.9,13.8,7.8,13.8z
		 M7.8,4.1c2.5,0,4.5,2,4.5,4.5s-2,4.5-4.5,4.5s-4.5-2-4.5-4.5C3.3,6.1,5.3,4.1,7.8,4.1z M7.8,12.6c2.2,0,4-1.8,4-4s-1.8-4-4-4
		s-4,1.8-4,4l0,0C3.8,10.8,5.6,12.6,7.8,12.6z"/>
	<rect id="Rectangle_18721" x="5.7" y="6.9" class="st1" width="1.2" height="3.3"/>
	<path id="Rectangle_18721_-_Outline" class="st1" d="M5.5,6.7h1.6v3.8H5.5V6.7z M6.7,7.2H5.9V10h0.8V7.2z"/>
	<rect id="Rectangle_18722" x="8.7" y="6.9" class="st1" width="1.2" height="3.3"/>
	<path id="Rectangle_18722_-_Outline" class="st1" d="M8.5,6.7h1.6v3.8H8.5V6.7z M9.7,7.2H8.9V10h0.8L9.7,7.2z"/>
</g>
</svg>
