<svg xmlns="http://www.w3.org/2000/svg" width="24" height="24" viewBox="0 0 24 24">
  <g id="International_Usages" data-name="International Usages" transform="translate(643 1998)">
    <g id="base" opacity="0">
      <rect id="Rectangle_982" data-name="Rectangle 982" width="24" height="24" transform="translate(-643 -1998)" fill="#7e2323"/>
      <rect id="Rectangle_983" data-name="Rectangle 983" width="20" height="20" transform="translate(-641 -1996)" fill="#e88e8e"/>
    </g>
    <g id="globe" transform="translate(-639.779 -1994.779)">
      <g id="Group_39332" data-name="Group 39332" transform="translate(-0.15 -0.15)">
        <path id="Path_43238" data-name="Path 43238" d="M8.792,0a8.792,8.792,0,1,0,8.792,8.792A8.815,8.815,0,0,0,8.792,0Zm0,1.03a7.731,7.731,0,0,1,2.455.4,1.5,1.5,0,0,0-.235.861A3.48,3.48,0,0,0,11.5,3.824a2.741,2.741,0,0,1,.38,1.074c0,.181-.043.223-.191.272a4.55,4.55,0,0,1-1.168.082A3.459,3.459,0,0,0,7.684,6.273c-.142.142-.219.149-.71-.1a1.484,1.484,0,0,0-1.9.1,1.717,1.717,0,0,0-.456,1.565c-.5-.2-1.2-.286-1.286-.5-.039-.1-.1-.536.763-1.938.32-.52.705-1.282.35-1.892a1.2,1.2,0,0,0-.779-.536A7.729,7.729,0,0,1,8.792,1.03Zm0,15.524A7.757,7.757,0,0,1,2.756,3.918c.594-.005.754.067.8.106.005.034.021.254-.336.834-.842,1.367-1.094,2.221-.844,2.856.338.858,1.4.859,1.977,1.13A12.182,12.182,0,0,1,6.663,10.12v.866c0,.646.609.994,1.1,1.274.2.113.611.35.64.465a11.056,11.056,0,0,0,.453,3.828ZM10.132,16a.772.772,0,0,1-.2.409c-.131-.182-.5-.939-.5-3.681,0-.7-.643-1.064-1.159-1.359a2.487,2.487,0,0,1-.584-.4v-.85a1,1,0,0,0-.067-.374,2.852,2.852,0,0,0,1.59-.609.86.86,0,0,1,.575-.241H9.8a1.4,1.4,0,0,1,.238.334,2.978,2.978,0,0,0,2.271,1.57,2.026,2.026,0,0,1,.439.126.316.316,0,0,1,.005.064,3.7,3.7,0,0,1-1.54,2.513c-.579.545-1.079,1.015-1.079,1.613C10.132,15.195,10.131,15.952,10.132,16Zm1.015.192a1.193,1.193,0,0,0,.012-.219c0-.07,0-.853,0-.858s.008-.075.164-.264a7.477,7.477,0,0,1,.594-.6,4.612,4.612,0,0,0,1.864-3.263,1.04,1.04,0,0,0-.479-.931,2.327,2.327,0,0,0-.775-.266A1.988,1.988,0,0,1,10.92,8.7a1.332,1.332,0,0,0-1.133-.836A1.849,1.849,0,0,0,8.609,8.3a2.018,2.018,0,0,1-1.431.433,1.554,1.554,0,0,1-1.487-.889A.76.76,0,0,1,5.8,7c.142-.142.219-.149.71.1a1.484,1.484,0,0,0,1.9-.1,2.473,2.473,0,0,1,2.107-.719,4.964,4.964,0,0,0,1.5-.135,1.237,1.237,0,0,0,.9-1.25,3.48,3.48,0,0,0-.489-1.535,2.741,2.741,0,0,1-.38-1.074c0-.242.053-.377.319-.388a7.761,7.761,0,0,1-1.214,14.287Z" transform="translate(0.137 0.137)" fill="#148AFF"/>
        <path id="Path_43238_-_Outline" data-name="Path 43238 - Outline" d="M8.779-.15A8.952,8.952,0,1,1,2.466,2.478,8.939,8.939,0,0,1,8.779-.15Zm0,17.584A8.646,8.646,0,1,0,.124,8.779,8.665,8.665,0,0,0,8.779,17.434ZM8.779.88a7.866,7.866,0,0,1,2.5.405l.171.057-.1.15a1.373,1.373,0,0,0-.212.784,3.377,3.377,0,0,0,.475,1.473,2.818,2.818,0,0,1,.4,1.136.355.355,0,0,1-.285.4,3.467,3.467,0,0,1-.955.09h-.392a3.241,3.241,0,0,0-2.606.981A.389.389,0,0,1,7.48,6.5a1.426,1.426,0,0,1-.58-.21A2.162,2.162,0,0,0,5.965,6a1.107,1.107,0,0,0-.806.361A1.579,1.579,0,0,0,4.74,7.8l.047.244-.231-.09c-.17-.066-.364-.12-.552-.172-.409-.114-.732-.2-.813-.408-.072-.183-.068-.694.774-2.06.3-.49.666-1.2.348-1.752a1.053,1.053,0,0,0-.695-.472l-.25-.065.194-.171A7.886,7.886,0,0,1,8.779.88Zm2.251.613A7.616,7.616,0,0,0,3.927,2.9a1.235,1.235,0,0,1,.624.521A2.054,2.054,0,0,1,4.2,5.457c-.885,1.436-.758,1.8-.752,1.816.035.079.408.182.631.244.12.033.243.067.362.105a1.827,1.827,0,0,1,.525-1.459,1.385,1.385,0,0,1,1-.442,2.384,2.384,0,0,1,1.058.32,1.587,1.587,0,0,0,.458.181c.022,0,.038,0,.094-.059a3.48,3.48,0,0,1,2.8-1.061h.392a3.351,3.351,0,0,0,.868-.076c.1-.033.1-.033.1-.142a2.672,2.672,0,0,0-.366-1.013,3.583,3.583,0,0,1-.5-1.6A1.733,1.733,0,0,1,11.03,1.494Zm1.349.256.032.017a7.892,7.892,0,0,1,2.71,11.715,7.984,7.984,0,0,1-3.946,2.824l-.212.068.035-.22a1.046,1.046,0,0,0,.01-.194c0-.061,0-.613,0-.848v-.019c0-.043.029-.145.2-.346a7.547,7.547,0,0,1,.605-.61,4.5,4.5,0,0,0,1.822-3.164.909.909,0,0,0-.416-.815,2.229,2.229,0,0,0-.73-.247,2.112,2.112,0,0,1-1.7-1.156c-.205-.343-.46-.769-1.015-.769a1.71,1.71,0,0,0-1.1.411,2.155,2.155,0,0,1-1.511.459,1.69,1.69,0,0,1-1.614-.973.891.891,0,0,1,.142-.99.389.389,0,0,1,.288-.139,1.426,1.426,0,0,1,.58.21,2.162,2.162,0,0,0,.935.291A1.107,1.107,0,0,0,8.3,6.892a2.492,2.492,0,0,1,2.07-.76h.379A4.037,4.037,0,0,0,11.96,6a1.1,1.1,0,0,0,.8-1.12,3.377,3.377,0,0,0-.475-1.474,2.819,2.819,0,0,1-.4-1.136c0-.152,0-.506.451-.525Zm-1.1,14.231A7.716,7.716,0,0,0,14.9,13.318,7.618,7.618,0,0,0,12.318,2.027c-.12.01-.152.048-.152.249a2.672,2.672,0,0,0,.366,1.013,3.583,3.583,0,0,1,.5,1.6,1.366,1.366,0,0,1-.99,1.38,4.257,4.257,0,0,1-1.294.143h-.379A2.236,2.236,0,0,0,8.5,7.086a1.385,1.385,0,0,1-1,.442,2.384,2.384,0,0,1-1.058-.32,1.587,1.587,0,0,0-.458-.181c-.022,0-.038,0-.094.059a.629.629,0,0,0-.083.692,1.418,1.418,0,0,0,1.361.8,1.883,1.883,0,0,0,1.35-.407,1.992,1.992,0,0,1,1.259-.463,1.462,1.462,0,0,1,1.25.9,1.852,1.852,0,0,0,1.519,1.029,2.428,2.428,0,0,1,.819.284,1.171,1.171,0,0,1,.542,1.046A4.722,4.722,0,0,1,12,14.336a7.4,7.4,0,0,0-.582.586.853.853,0,0,0-.133.2c0,.485,0,.8,0,.837Q11.283,15.968,11.283,15.981ZM2.8,3.768c.6,0,.762.08.83.141l.036.032.008.048c.014.084.006.342-.354.927C2.5,6.242,2.255,7.06,2.488,7.65c.22.557.78.712,1.322.862a3.786,3.786,0,0,1,.585.194l.069.032a8.523,8.523,0,0,1,2.3,1.292l.023.035v.908c0,.566.547.879,1.03,1.155.5.287.672.42.705.551l0,.016v.017A11.349,11.349,0,0,0,8.97,16.49l.074.186-.227,0H8.779A7.894,7.894,0,0,1,2.637,3.819l.041-.05H2.8Zm.6.326a2.291,2.291,0,0,0-.59-.052A7.62,7.62,0,0,0,8.647,16.4a12.408,12.408,0,0,1-.394-3.657,2.6,2.6,0,0,0-.571-.38c-.493-.282-1.168-.668-1.168-1.393v-.818A10.047,10.047,0,0,0,4.348,8.987l-.069-.032a3.606,3.606,0,0,0-.542-.178,1.958,1.958,0,0,1-1.5-1.025c-.268-.68-.012-1.571.855-2.978A2.124,2.124,0,0,0,3.4,4.094ZM9.775,8.742h.042l.028.014c.078.038.154.15.3.387a2.838,2.838,0,0,0,2.183,1.506,1.8,1.8,0,0,1,.485.145l.046.031.012.055a.453.453,0,0,1,.008.093,3.8,3.8,0,0,1-1.583,2.613c-.556.523-1.036.975-1.036,1.513v.089c0,.187,0,.756,0,.793a.886.886,0,0,1-.238.51L9.9,16.6l-.095-.131c-.158-.22-.527-1.026-.527-3.761,0-.617-.579-.948-1.09-1.241l-.015-.008a1.991,1.991,0,0,1-.617-.438l-.021-.033V10.1a.857.857,0,0,0-.057-.323L7.415,9.61,7.6,9.593A2.711,2.711,0,0,0,9.12,9.009.985.985,0,0,1,9.775,8.742ZM12.6,11c-.093-.03-.262-.067-.336-.083a3.1,3.1,0,0,1-2.36-1.633,3.146,3.146,0,0,0-.173-.267.77.77,0,0,0-.453.214,2.952,2.952,0,0,1-1.492.616,1.234,1.234,0,0,1,.026.256v.8a3.854,3.854,0,0,0,.5.321l.015.008c.518.3,1.228.7,1.228,1.478a9.74,9.74,0,0,0,.377,3.416.411.411,0,0,0,.048-.14c0-.036,0-.425,0-.8V15.1c0-.656.52-1.146,1.122-1.712A3.64,3.64,0,0,0,12.6,11Z" transform="translate(0.15 0.15)" fill="#148AFF"/>
      </g>
    </g>
  </g>
</svg>
