<svg width="24" height="24" viewBox="0 0 24 24" fill="none" xmlns="http://www.w3.org/2000/svg">
<path d="M7.55816 9.37489C7.23148 9.04821 6.70148 9.04821 6.37484 9.37489C6.22234 9.54571 6.14734 9.77157 6.16652 9.99989C6.1682 10.1091 6.1907 10.2166 6.2332 10.3166C6.30902 10.5258 6.47402 10.6908 6.6832 10.7666C6.7832 10.8091 6.8907 10.8316 6.99988 10.8333C7.21488 10.8174 7.41488 10.7183 7.5582 10.5583C7.88484 10.2315 7.88484 9.70153 7.55816 9.37489Z" fill="#339ad5"/>
<path d="M7.55853 13.5412C7.31853 13.3045 6.96021 13.2353 6.65021 13.3662C6.54689 13.4045 6.45353 13.4637 6.37521 13.5412C6.36189 13.5537 6.34939 13.567 6.33689 13.5812C6.03189 13.9262 6.06357 14.4528 6.40857 14.7578C6.48689 14.8345 6.58025 14.8945 6.68357 14.9328C6.78357 14.9753 6.89107 14.9978 7.00025 14.9995C7.21525 14.9837 7.41525 14.8845 7.55857 14.7245C7.56025 14.7228 7.56189 14.7212 7.56357 14.7195C7.88771 14.3928 7.88521 13.8653 7.55853 13.5412Z" fill="#339ad5"/>
<path d="M10.8867 9.37939C10.5625 9.05271 10.035 9.05021 9.70834 9.37439C9.55584 9.54521 9.48084 9.77107 9.50002 9.99939C9.5017 10.1086 9.5242 10.2161 9.5667 10.3161C9.6067 10.4186 9.66588 10.5119 9.7417 10.5911C9.82252 10.6644 9.91588 10.7236 10.0167 10.7661C10.1167 10.8086 10.2242 10.8311 10.3334 10.8328L10.3001 10.7994C10.5176 10.7978 10.7267 10.7111 10.8817 10.5578C11.2083 10.2335 11.2108 9.70603 10.8867 9.37939Z" fill="#339ad5"/>
<path d="M14.2252 9.37514C13.9852 9.13846 13.6268 9.06932 13.3168 9.20014C13.216 9.24264 13.1227 9.30182 13.0418 9.37514C12.8893 9.54596 12.8143 9.77182 12.8335 10.0001C12.8352 10.1093 12.8577 10.2168 12.9002 10.3168C12.9402 10.4193 12.9994 10.5126 13.0752 10.5918C13.156 10.6651 13.2494 10.7243 13.3502 10.7668C13.4502 10.8093 13.5577 10.8318 13.6669 10.8335C13.8802 10.8135 14.0794 10.7152 14.2252 10.5585C14.301 10.4793 14.3602 10.386 14.4002 10.2835C14.4427 10.1835 14.4652 10.076 14.4669 9.96682C14.4685 9.74514 14.381 9.53264 14.2252 9.37514Z" fill="#339ad5"/>
<path d="M17.5916 9.37496C17.2557 9.04828 16.7182 9.05578 16.3916 9.39164C16.0649 9.72746 16.0724 10.265 16.4082 10.5916C16.5657 10.7475 16.7782 10.835 16.9999 10.8333C17.1107 10.8216 17.2191 10.7875 17.3166 10.7333C17.5258 10.6575 17.6908 10.4925 17.7666 10.2833C17.8091 10.1833 17.8316 10.0758 17.8333 9.96664C17.8349 9.74496 17.7474 9.53246 17.5916 9.37496Z" fill="#339ad5"/>
<path d="M17.5583 13.5412C17.3183 13.3045 16.96 13.2353 16.65 13.3662C16.5475 13.4062 16.4542 13.4653 16.375 13.5412C16.2325 13.717 16.1642 13.9412 16.1833 14.1662C16.1792 14.222 16.1792 14.277 16.1833 14.3328C16.1925 14.3853 16.2092 14.4353 16.2333 14.4828C16.2517 14.5362 16.2767 14.5862 16.3083 14.6328L16.4083 14.7578C16.4875 14.8337 16.5808 14.8928 16.6833 14.9328C16.7833 14.9753 16.8908 14.9978 17 14.9995L16.9667 14.9662C17.1909 14.967 17.4059 14.8787 17.5634 14.7195C17.8875 14.3928 17.885 13.8653 17.5583 13.5412Z" fill="#339ad5"/>
<path d="M13.6667 13.333H10.3334C9.87332 13.333 9.5 13.7063 9.5 14.1663C9.5 14.6263 9.87332 14.9996 10.3333 14.9996H13.6666C14.1266 14.9996 14.5 14.6263 14.5 14.1663C14.5 13.7063 14.1267 13.333 13.6667 13.333Z" fill="#339ad5"/>
<path d="M19.5 5H4.5C3.11918 5 2 6.11918 2 7.5V16.6667C2 18.0475 3.11918 19.1667 4.5 19.1667H19.5C20.8808 19.1667 22 18.0475 22 16.6667V7.5C22 6.11914 20.8808 5 19.5 5ZM20.3333 16.6666C20.3333 17.1266 19.96 17.5 19.5 17.5H4.5C4.04 17.5 3.66668 17.1266 3.66668 16.6666V7.5C3.66668 7.04 4.04 6.66668 4.5 6.66668H19.5C19.96 6.66668 20.3333 7.04 20.3333 7.5V16.6666Z" fill="#339ad5"/>
</svg>
