<svg width="24" height="24" viewBox="0 0 24 24" fill="none" xmlns="http://www.w3.org/2000/svg">
<path d="M19.7273 8.22727H14.7273V5.27273C14.7266 4.67018 14.4869 4.09253 14.0608 3.66646C13.6347 3.2404 13.0571 3.00072 12.4545 3H4.27273C3.67018 3.00072 3.09253 3.2404 2.66646 3.66646C2.2404 4.09253 2.00072 4.67018 2 5.27273V10.7273C2.00072 11.3298 2.2404 11.9075 2.66646 12.3335C3.09253 12.7596 3.67018 12.9993 4.27273 13V13.95C4.27239 14.1293 4.32541 14.3047 4.42506 14.4538C4.5247 14.6029 4.66645 14.719 4.83227 14.7873C4.99882 14.8566 5.18224 14.8749 5.35919 14.8397C5.53613 14.8044 5.6986 14.7174 5.82591 14.5895C5.8425 14.5736 5.85771 14.5563 5.87136 14.5377L7.00227 13H9.27273V15.9545C9.27345 16.5571 9.51313 17.1347 9.93919 17.5608C10.3653 17.9869 10.9429 18.2266 11.5455 18.2273H16.5845L18.1755 19.8182C18.3026 19.9453 18.4646 20.0318 18.6409 20.0669C18.8172 20.102 19 20.084 19.166 20.0152C19.3321 19.9464 19.4741 19.8299 19.574 19.6804C19.6739 19.531 19.7272 19.3552 19.7273 19.1755V18.2273C20.3298 18.2266 20.9075 17.9869 21.3335 17.5608C21.7596 17.1347 21.9993 16.5571 22 15.9545V10.5C21.9993 9.89746 21.7596 9.3198 21.3335 8.89374C20.9075 8.46767 20.3298 8.22799 19.7273 8.22727ZM6.77273 12.0909C6.70189 12.0913 6.63212 12.1082 6.56899 12.1403C6.50585 12.1724 6.4511 12.2189 6.40909 12.2759L5.18182 13.9395V12.5455C5.18182 12.4249 5.13393 12.3093 5.04868 12.224C4.96344 12.1388 4.84783 12.0909 4.72727 12.0909H4.27273C3.91107 12.0909 3.56422 11.9472 3.30849 11.6915C3.05276 11.4358 2.90909 11.0889 2.90909 10.7273V5.27273C2.90909 4.91107 3.05276 4.56422 3.30849 4.30849C3.56422 4.05276 3.91107 3.90909 4.27273 3.90909H12.4545C12.8162 3.90909 13.1631 4.05276 13.4188 4.30849C13.6745 4.56422 13.8182 4.91107 13.8182 5.27273V8.22727H11.5455C11.0619 8.2287 10.5916 8.38568 10.2041 8.675L8.77727 5.53864C8.74112 5.45928 8.68289 5.392 8.60955 5.34482C8.53621 5.29764 8.45084 5.27255 8.36364 5.27255C8.27643 5.27255 8.19106 5.29764 8.11772 5.34482C8.04438 5.392 7.98616 5.45928 7.95 5.53864L5.67727 10.5386C5.65263 10.5931 5.63897 10.6518 5.63706 10.7115C5.63515 10.7713 5.64503 10.8308 5.66614 10.8867C5.68725 10.9426 5.71917 10.9937 5.76008 11.0373C5.80098 11.0808 5.85008 11.1159 5.90455 11.1405C5.96296 11.1675 6.02653 11.1816 6.09091 11.1818C6.17815 11.1818 6.26353 11.1567 6.33688 11.1094C6.41022 11.0622 6.46843 10.9949 6.50455 10.9155L7.21 9.36364H9.51818L9.55045 9.43409C9.3708 9.76082 9.27535 10.1271 9.27273 10.5V12.0909H6.77273ZM9.105 8.45455H7.62318L8.36364 6.82545L9.105 8.45455ZM21.0909 15.9545C21.0909 16.3162 20.9472 16.6631 20.6915 16.9188C20.4358 17.1745 20.0889 17.3182 19.7273 17.3182H19.2727C19.1522 17.3182 19.0366 17.3661 18.9513 17.4513C18.8661 17.5366 18.8182 17.6522 18.8182 17.7727V19.1755L17.0941 17.4514C17.0089 17.3661 16.8933 17.3182 16.7727 17.3182H11.5455C11.1838 17.3182 10.8369 17.1745 10.5812 16.9188C10.3255 16.6631 10.1818 16.3162 10.1818 15.9545V10.5C10.1818 10.1383 10.3255 9.79149 10.5812 9.53576C10.8369 9.28003 11.1838 9.13636 11.5455 9.13636H19.7273C20.0889 9.13636 20.4358 9.28003 20.6915 9.53576C20.9472 9.79149 21.0909 10.1383 21.0909 10.5V15.9545Z" fill="#fff"/>
<path d="M19.7273 8.22727H14.7273V5.27273C14.7266 4.67018 14.4869 4.09253 14.0608 3.66646C13.6347 3.2404 13.0571 3.00072 12.4545 3H4.27273C3.67018 3.00072 3.09253 3.2404 2.66646 3.66646C2.2404 4.09253 2.00072 4.67018 2 5.27273V10.7273C2.00072 11.3298 2.2404 11.9075 2.66646 12.3335C3.09253 12.7596 3.67018 12.9993 4.27273 13V13.95C4.27239 14.1293 4.32541 14.3047 4.42506 14.4538C4.5247 14.6029 4.66645 14.719 4.83227 14.7873C4.99882 14.8566 5.18224 14.8749 5.35919 14.8397C5.53613 14.8044 5.6986 14.7174 5.82591 14.5895C5.8425 14.5736 5.85771 14.5563 5.87136 14.5377L7.00227 13H9.27273V15.9545C9.27345 16.5571 9.51313 17.1347 9.93919 17.5608C10.3653 17.9869 10.9429 18.2266 11.5455 18.2273H16.5845L18.1755 19.8182C18.3026 19.9453 18.4646 20.0318 18.6409 20.0669C18.8172 20.102 19 20.084 19.166 20.0152C19.3321 19.9464 19.4741 19.8299 19.574 19.6804C19.6739 19.531 19.7272 19.3552 19.7273 19.1755V18.2273C20.3298 18.2266 20.9075 17.9869 21.3335 17.5608C21.7596 17.1347 21.9993 16.5571 22 15.9545V10.5C21.9993 9.89746 21.7596 9.3198 21.3335 8.89374C20.9075 8.46767 20.3298 8.22799 19.7273 8.22727ZM6.77273 12.0909C6.70189 12.0913 6.63212 12.1082 6.56899 12.1403C6.50585 12.1724 6.4511 12.2189 6.40909 12.2759L5.18182 13.9395V12.5455C5.18182 12.4249 5.13393 12.3093 5.04868 12.224C4.96344 12.1388 4.84783 12.0909 4.72727 12.0909H4.27273C3.91107 12.0909 3.56422 11.9472 3.30849 11.6915C3.05276 11.4358 2.90909 11.0889 2.90909 10.7273V5.27273C2.90909 4.91107 3.05276 4.56422 3.30849 4.30849C3.56422 4.05276 3.91107 3.90909 4.27273 3.90909H12.4545C12.8162 3.90909 13.1631 4.05276 13.4188 4.30849C13.6745 4.56422 13.8182 4.91107 13.8182 5.27273V8.22727H11.5455C11.0619 8.2287 10.5916 8.38568 10.2041 8.675L8.77727 5.53864C8.74112 5.45928 8.68289 5.392 8.60955 5.34482C8.53621 5.29764 8.45084 5.27255 8.36364 5.27255C8.27643 5.27255 8.19106 5.29764 8.11772 5.34482C8.04438 5.392 7.98616 5.45928 7.95 5.53864L5.67727 10.5386C5.65263 10.5931 5.63897 10.6518 5.63706 10.7115C5.63515 10.7713 5.64503 10.8308 5.66614 10.8867C5.68725 10.9426 5.71917 10.9937 5.76008 11.0373C5.80098 11.0808 5.85008 11.1159 5.90455 11.1405C5.96296 11.1675 6.02653 11.1816 6.09091 11.1818C6.17815 11.1818 6.26353 11.1567 6.33688 11.1094C6.41022 11.0622 6.46843 10.9949 6.50455 10.9155L7.21 9.36364H9.51818L9.55045 9.43409C9.3708 9.76082 9.27535 10.1271 9.27273 10.5V12.0909H6.77273ZM9.105 8.45455H7.62318L8.36364 6.82545L9.105 8.45455ZM21.0909 15.9545C21.0909 16.3162 20.9472 16.6631 20.6915 16.9188C20.4358 17.1745 20.0889 17.3182 19.7273 17.3182H19.2727C19.1522 17.3182 19.0366 17.3661 18.9513 17.4513C18.8661 17.5366 18.8182 17.6522 18.8182 17.7727V19.1755L17.0941 17.4514C17.0089 17.3661 16.8933 17.3182 16.7727 17.3182H11.5455C11.1838 17.3182 10.8369 17.1745 10.5812 16.9188C10.3255 16.6631 10.1818 16.3162 10.1818 15.9545V10.5C10.1818 10.1383 10.3255 9.79149 10.5812 9.53576C10.8369 9.28003 11.1838 9.13636 11.5455 9.13636H19.7273C20.0889 9.13636 20.4358 9.28003 20.6915 9.53576C20.9472 9.79149 21.0909 10.1383 21.0909 10.5V15.9545Z" stroke=""/>
<path d="M17.9092 11.6363H16.091V10.7273C16.091 10.6067 16.0431 10.4911 15.9579 10.4058C15.8726 10.3206 15.757 10.2727 15.6365 10.2727C15.5159 10.2727 15.4003 10.3206 15.315 10.4058C15.2298 10.4911 15.1819 10.6067 15.1819 10.7273V11.6363H13.3637C13.2432 11.6363 13.1276 11.6842 13.0423 11.7695C12.9571 11.8547 12.9092 11.9703 12.9092 12.0909C12.9092 12.2114 12.9571 12.3271 13.0423 12.4123C13.1276 12.4975 13.2432 12.5454 13.3637 12.5454H16.7365C16.6252 13.3177 16.2324 14.0215 15.6337 14.5218C15.284 14.2297 15.0014 13.8657 14.8051 13.4545C14.7804 13.3992 14.7449 13.3494 14.7006 13.308C14.6564 13.2666 14.6043 13.2345 14.5475 13.2135C14.4906 13.1925 14.4302 13.1831 14.3696 13.1858C14.3091 13.1885 14.2497 13.2033 14.195 13.2293C14.1403 13.2553 14.0913 13.292 14.051 13.3372C14.0106 13.3824 13.9797 13.4352 13.9601 13.4925C13.9404 13.5499 13.9324 13.6105 13.9366 13.671C13.9407 13.7314 13.9569 13.7904 13.9842 13.8445C14.1954 14.2825 14.4841 14.6785 14.8365 15.0136C14.4325 15.1857 13.9978 15.2738 13.5587 15.2727C13.4999 15.273 13.4416 15.285 13.3875 15.3082C13.3334 15.3313 13.2844 15.3651 13.2435 15.4074C13.2026 15.4498 13.1706 15.4999 13.1494 15.5549C13.1283 15.6098 13.1183 15.6684 13.1201 15.7273C13.1238 15.8495 13.1751 15.9654 13.263 16.0503C13.351 16.1353 13.4687 16.1824 13.591 16.1818C14.3134 16.1815 15.0226 15.9885 15.6455 15.6227C16.2742 15.987 16.9876 16.1798 17.7142 16.1818C17.7731 16.1815 17.8313 16.1695 17.8854 16.1463C17.9396 16.1232 17.9885 16.0894 18.0294 16.0471C18.0703 16.0047 18.1023 15.9546 18.1235 15.8996C18.1447 15.8447 18.1546 15.7861 18.1528 15.7273C18.1491 15.605 18.0978 15.4891 18.0099 15.4042C17.9219 15.3192 17.8042 15.2721 17.6819 15.2727C17.2567 15.271 16.8361 15.1835 16.4455 15.0154C17.1226 14.357 17.5501 13.484 17.6551 12.5454H17.9092C18.0297 12.5454 18.1453 12.4975 18.2306 12.4123C18.3158 12.3271 18.3637 12.2114 18.3637 12.0909C18.3637 11.9703 18.3158 11.8547 18.2306 11.7695C18.1453 11.6842 18.0297 11.6363 17.9092 11.6363Z" fill="#fff"/>
</svg>
