<svg xmlns="http://www.w3.org/2000/svg" width="30" height="30" viewBox="0 0 30 30">
  <g id="Group_40108" data-name="Group 40108" transform="translate(-565 -10932)">
    <rect id="Rectangle_18715" data-name="Rectangle 18715" width="30" height="30" transform="translate(565 10932)" fill="none"/>
    <g id="inquiry" transform="translate(568 10935)">
      <path id="Path_44007" data-name="Path 44007" d="M294.5,255h1.406v1.406H294.5Zm0,0" transform="translate(-280.695 -243.047)" fill="#339ad5"/>
      <path id="Path_44008" data-name="Path 44008" d="M14.508,0A9.488,9.488,0,0,0,6.474,14.543L.618,20.4A2.109,2.109,0,0,0,3.6,23.382l5.856-5.856A9.491,9.491,0,1,0,14.508,0ZM2.607,22.388a.7.7,0,1,1-.994-.994l3.7-3.7.994.994ZM7.3,17.7,6.3,16.7,7.32,15.685a9.584,9.584,0,0,0,.994.994Zm7.209-.118a8.086,8.086,0,1,1,8.086-8.086A8.1,8.1,0,0,1,14.508,17.578Zm0,0" fill="#339ad5"/>
      <path id="Path_44009" data-name="Path 44009" d="M173.68,60a6.68,6.68,0,1,0,6.68,6.68A6.687,6.687,0,0,0,173.68,60Zm0,11.953a5.273,5.273,0,1,1,5.273-5.273A5.279,5.279,0,0,1,173.68,71.953Zm0,0" transform="translate(-159.172 -57.188)" fill="#339ad5"/>
      <path id="Path_44010" data-name="Path 44010" d="M266.609,120a2.112,2.112,0,0,0-2.109,2.109h1.406a.7.7,0,1,1,1.227.469l-1.227,1.372v.972h1.406v-.435l.869-.972A2.109,2.109,0,0,0,266.609,120Zm0,0" transform="translate(-252.102 -114.375)" fill="#339ad5"/>
    </g>
  </g>
</svg>
