<?xml version="1.0" encoding="utf-8"?>
<!-- Generator: Adobe Illustrator 23.0.1, SVG Export Plug-In . SVG Version: 6.00 Build 0)  -->
<svg version="1.1" id="link-upi-number" xmlns="http://www.w3.org/2000/svg" xmlns:xlink="http://www.w3.org/1999/xlink" x="0px"
	 y="0px" viewBox="0 0 32 32" style="enable-background:new 0 0 32 32;" xml:space="preserve">
<style type="text/css">
	.st0{fill:#339ad5;fill-opacity:0;}
	.st1{fill:#339ad5;stroke:#339ad5;stroke-width:0.3;}
</style>
<rect id="Rectangle_18710" class="st0" width="32" height="32"/>
<g id="noun_link_2321450" transform="translate(6.224 5.972)">
	<g id="Group_38146">
		<path id="Path_43341" class="st1" d="M6.7,21.3c-2.2,2.3-5.9,2.3-8.2,0.1s-2.3-5.9-0.1-8.2c0,0,0.1-0.1,0.1-0.1L3.6,8
			c2.1-2.1,5.6-2.3,7.9-0.3C12,8.1,12,8.7,11.6,9.2c-0.4,0.5-1.1,0.5-1.5,0.1C8.6,8.1,6.5,8.2,5.1,9.5L0,14.7
			c-1.4,1.4-1.4,3.7,0,5.1c1.4,1.4,3.7,1.4,5.1,0l4.9-4.9c0.4-0.4,1.1-0.5,1.5,0c0.4,0.4,0.5,1.1,0,1.5c0,0,0,0,0,0L6.7,21.3z
			 M15.9,12.1c-2.1,2.1-5.6,2.3-7.9,0.3c-0.5-0.4-0.5-1.1-0.1-1.5c0.4-0.5,1.1-0.5,1.5-0.1c1.4,1.2,3.6,1.2,4.9-0.2l5.1-5.1
			C21,4,21,1.7,19.5,0.3c-1.4-1.4-3.7-1.4-5.1,0L9.5,5.1C9.1,5.6,8.4,5.6,8,5.2c-0.4-0.4-0.5-1.1,0-1.5c0,0,0,0,0,0l4.9-4.9
			c2.2-2.3,5.9-2.3,8.2-0.1c2.3,2.2,2.3,5.9,0.1,8.2c0,0-0.1,0.1-0.1,0.1L15.9,12.1z"/>
	</g>
</g>
</svg>
