<svg xmlns="http://www.w3.org/2000/svg" width="24" height="24" viewBox="0 0 24 24">
  <g id="loan" transform="translate(14043 -12817)">
    <g id="fingerprint" transform="translate(-13400 14815)" opacity="0">
      <g id="Group_40181" data-name="Group 40181">
        <rect id="Rectangle_982" data-name="Rectangle 982" width="24" height="24" transform="translate(-643 -1998)" fill="#148AFF"/>
        <rect id="Rectangle_983" data-name="Rectangle 983" width="20" height="20" transform="translate(-641 -1996)" fill="#148AFF"/>
      </g>
    </g>
    <g id="mortgage-loan-2" transform="translate(-14041.376 12818.9)">
      <path id="Path_44078" data-name="Path 44078" d="M19.643,60.757H1.109a.466.466,0,0,0,0,.931H19.643a.466.466,0,1,0,0-.931Z" transform="translate(0 -41.732)" fill="#148AFF"/>
      <path id="Path_44079" data-name="Path 44079" d="M4.446,18.354H20.908a.466.466,0,1,0,0-.931H19.527v-.959a.624.624,0,0,0-.41-.587v-5.86h1.012a.652.652,0,0,0,.652-.652v-.8a.765.765,0,0,0-.363-.649L16.4,5.451a3.936,3.936,0,1,0-7.449,0L4.936,7.919a.765.765,0,0,0-.363.649v.8a.652.652,0,0,0,.652.652H6.236v5.86a.624.624,0,0,0-.41.587v.959H4.446a.466.466,0,1,0,0,.931Zm4.364-.931H6.758v-.655H8.81ZM7.168,15.836v-5.82H8.4v5.82Zm3.96.04a.628.628,0,0,0-.407.587v.959H9.741v-.959a.624.624,0,0,0-.41-.587v-5.86h1.8ZM13.7,17.423H11.653v-.655H13.7Zm-1.642-1.586v-5.82h1.235v5.82Zm3.964.04a.624.624,0,0,0-.41.587v.959h-.981v-.959a.628.628,0,0,0-.407-.587v-5.86h1.8ZM18.6,17.423H16.544v-.655H18.6Zm-1.642-1.586v-5.82h1.232v5.82ZM12.677,1.174a3.008,3.008,0,0,1,2.905,3.774,2.935,2.935,0,0,1-.382.86,3,3,0,0,1-5.047,0,2.935,2.935,0,0,1-.382-.86,3.008,3.008,0,0,1,2.905-3.774ZM5.5,9.086V8.664L9.362,6.292a3.927,3.927,0,0,0,6.63,0L19.85,8.664v.422Z" transform="translate(-2.301)" fill="#148AFF"/>
      <g id="Group_40171" data-name="Group 40171" transform="translate(8.601 2.403)">
        <path id="Path_44080" data-name="Path 44080" d="M34.313,14.567h0a.617.617,0,0,0-.624.62.633.633,0,0,0,.624.625.627.627,0,0,0,.625-.626.609.609,0,0,0-.18-.438.624.624,0,0,0-.445-.181Z" transform="translate(-31.391 -12.281)" fill="#148AFF"/>
        <path id="Path_44081" data-name="Path 44081" d="M26.91,8.449a.61.61,0,0,0,.439-.181.623.623,0,0,0,.007-.882.624.624,0,0,0-.443-.183h0a.618.618,0,0,0-.624.62A.634.634,0,0,0,26.91,8.449Z" transform="translate(-26.285 -7.203)" fill="#148AFF"/>
        <path id="Path_44082" data-name="Path 44082" d="M26.43,10.237a.561.561,0,0,0,.163.385.535.535,0,0,0,.372.148.55.55,0,0,0,.38-.154l2.391-2.391a.535.535,0,0,0,0-.745l-.007-.007a.554.554,0,0,0-.39-.154.518.518,0,0,0-.369.153L26.585,9.861A.532.532,0,0,0,26.43,10.237Z" transform="translate(-26.385 -7.283)" fill="#148AFF"/>
      </g>
    </g>
  </g>
</svg>
