<svg xmlns="http://www.w3.org/2000/svg" width="32" height="32" viewBox="0 0 32 32">
  <g id="Group_39431" data-name="Group 39431" transform="translate(-546 -1370)">
    <rect id="Rectangle_18312" data-name="Rectangle 18312" width="32" height="32" transform="translate(546 1370)" fill="#f7f8fa" opacity="0.002"/>
    <g id="quick" transform="translate(549.996 1374)">
      <path id="Path_42694" data-name="Path 42694" d="M203.4,93.574l.114.792a3.2,3.2,0,1,0-2.286-.542l.458-.656a2.4,2.4,0,1,1,1.714.406Zm0,0" transform="translate(-189.864 -83.599)" fill="#007236" stroke="#007236" stroke-width="0.4"/>
      <path id="Path_42695" data-name="Path 42695" d="M68.259,0h-19.2a1.2,1.2,0,0,0-1.2,1.2V9.6h.8V2.8a.4.4,0,0,1,.4-.4h19.2a.4.4,0,0,1,.4.4v9.6a.4.4,0,0,1-.4.4h-8.4v.8h8.4a1.2,1.2,0,0,0,1.2-1.2V1.2A1.2,1.2,0,0,0,68.259,0Zm0,1.6h-19.2a1.186,1.186,0,0,0-.4.074V1.2a.4.4,0,0,1,.4-.4h19.2a.4.4,0,0,1,.4.4v.474A1.186,1.186,0,0,0,68.259,1.6Zm0,0" transform="translate(-45.463)" fill="#007236" stroke="#007236" stroke-width="0.4"/>
      <path id="Path_42696" data-name="Path 42696" d="M96.659,80.8h1.2V80h-1.6a.4.4,0,0,0-.4.4V82h.8Zm0,0" transform="translate(-91.063 -76)" fill="#007236" stroke="#007236" stroke-width="0.4"/>
      <path id="Path_42697" data-name="Path 42697" d="M393.859,82V80.4a.4.4,0,0,0-.4-.4h-1.6v.8h1.2V82Zm0,0" transform="translate(-372.263 -76)" fill="#007236" stroke="#007236" stroke-width="0.4"/>
      <path id="Path_42698" data-name="Path 42698" d="M391.859,186h1.6a.4.4,0,0,0,.4-.4V184h-.8v1.2h-1.2Zm0,0" transform="translate(-372.263 -174.8)" fill="#007236" stroke="#007236" stroke-width="0.4"/>
      <path id="Path_42700" data-name="Path 42700" d="M13.059,141.835l.645-.644a.4.4,0,0,0,0-.566l-1.132-1.132a.4.4,0,0,0-.566,0l-.644.645A7.153,7.153,0,0,0,8.4,138.908V138.4a.8.8,0,0,0,.8-.8v-.8a.8.8,0,0,0-.8-.8H6a.8.8,0,0,0-.8.8v.8a.8.8,0,0,0,.8.8v.508a7.153,7.153,0,0,0-2.965,1.229l-.644-.645a.4.4,0,0,0-.566,0L.69,140.625a.4.4,0,0,0,0,.566l.644.644a7.2,7.2,0,1,0,11.724,0Zm-.566-1.626.566.566-.5.432a7.263,7.263,0,0,0-.566-.568ZM6,136.8H8.4v.8H6Zm.8,1.6h.8v.42c-.133-.007-.265-.02-.4-.02s-.267.013-.4.02Zm-5.422,2.3.566-.566.463.5a7.263,7.263,0,0,0-.568.566ZM7.2,152.4a6.4,6.4,0,1,1,6.4-6.4A6.4,6.4,0,0,1,7.2,152.4Zm0,0" transform="translate(0 -129.2)" fill="#007236" stroke="#007236" stroke-width="0.4"/>
      <path id="Path_42701" data-name="Path 42701" d="M122.259,313.2a1.2,1.2,0,1,0-1.2,1.2,1.185,1.185,0,0,0,.514-.12l2,2,.566-.566-2-2A1.185,1.185,0,0,0,122.259,313.2Zm-1.6,0a.4.4,0,1,1,.4.4A.4.4,0,0,1,120.659,313.2Zm0,0" transform="translate(-113.863 -296.401)" fill="#007236" stroke="#007236" stroke-width="0.4"/>
      <path id="Path_42702" data-name="Path 42702" d="M173.462,237.922l-.267.754a4.406,4.406,0,0,1,2.683,5.616l.754.267A5.206,5.206,0,0,0,173.462,237.922Zm0,0" transform="translate(-164.532 -226.026)" fill="#007236" stroke="#007236" stroke-width="0.4"/>
      <path id="Path_42703" data-name="Path 42703" d="M144.726,232.072a5.235,5.235,0,0,0-.866-.072v.8a4.437,4.437,0,0,1,.734.061Zm0,0" transform="translate(-136.663 -220.4)" fill="#007236" stroke="#007236" stroke-width="0.4"/>
      <path id="Path_42704" data-name="Path 42704" d="M319.859,294v.8a6.807,6.807,0,0,0,6.8-6.8h-.8A6.007,6.007,0,0,1,319.859,294Zm0,0" transform="translate(-303.863 -273.6)" fill="#007236" stroke="#007236" stroke-width="0.4"/>
      <path id="Path_42705" data-name="Path 42705" d="M287.859,408h.8v.8h-.8Zm0,0" transform="translate(-273.463 -387.601)" fill="#007236" stroke="#007236" stroke-width="0.4"/>
    </g>
  </g>
</svg>
