<svg width="24" height="24" viewBox="0 0 24 24" fill="none" xmlns="http://www.w3.org/2000/svg">
<path d="M11.5437 21.7391C11.6524 21.9021 11.8354 22 12.0312 22C12.2271 22 12.4101 21.9021 12.5188 21.7391C13.9055 19.6591 15.9479 17.0903 17.3712 14.4778C18.5093 12.3889 19.0625 10.6073 19.0625 9.03125C19.0625 5.15422 15.9083 2 12.0312 2C8.15422 2 5 5.15422 5 9.03125C5 10.6073 5.55324 12.3889 6.69129 14.4778C8.11352 17.0883 10.1599 19.6634 11.5437 21.7391ZM12.0312 3.17188C15.2621 3.17188 17.8906 5.80039 17.8906 9.03125C17.8906 10.4064 17.3841 12.0046 16.3421 13.9171C15.1153 16.1691 13.3646 18.4534 12.0312 20.3738C10.6981 18.4537 8.94727 16.1692 7.72035 13.9171C6.6784 12.0046 6.17188 10.4064 6.17188 9.03125C6.17188 5.80039 8.80039 3.17188 12.0312 3.17188Z" fill="#fff"/>
<path d="M12.0312 12.5469C13.9698 12.5469 15.5469 10.9698 15.5469 9.03125C15.5469 7.09273 13.9698 5.51562 12.0312 5.51562C10.0927 5.51562 8.51562 7.09273 8.51562 9.03125C8.51562 10.9698 10.0927 12.5469 12.0312 12.5469ZM12.0312 6.6875C13.3236 6.6875 14.375 7.73891 14.375 9.03125C14.375 10.3236 13.3236 11.375 12.0312 11.375C10.7389 11.375 9.6875 10.3236 9.6875 9.03125C9.6875 7.73891 10.7389 6.6875 12.0312 6.6875Z" fill="#fff"/>
</svg>
