<svg width="34" height="34" viewBox="0 0 34 34" fill="none" xmlns="http://www.w3.org/2000/svg">
<path fill-rule="evenodd" clip-rule="evenodd" d="M8.0313 11.1718C8.0313 6.32931 11.8764 2.40039 16.6813 2.40039C19.6713 2.40039 22.2956 3.92586 23.8458 6.2446C24.1528 6.70373 24.0294 7.32476 23.5703 7.63171C23.1111 7.93867 22.4901 7.81531 22.1831 7.35618C20.9856 5.56499 18.971 4.40039 16.6813 4.40039C13.0105 4.40039 10.0313 7.40407 10.0313 11.1718C10.0313 11.2746 10.0158 11.3737 9.987 11.4671H24.6501C26.6196 11.4671 28.2001 13.0954 28.2001 15.0575V28.0099C28.2001 29.9721 26.6196 31.6004 24.6501 31.6004H9.35005C7.38048 31.6004 5.80005 29.9721 5.80005 28.0099V15.0575C5.80005 13.5097 6.78348 12.1696 8.16559 11.6727C8.08019 11.5254 8.0313 11.3543 8.0313 11.1718ZM9.35005 13.4671C8.51462 13.4671 7.80005 14.1702 7.80005 15.0575V28.0099C7.80005 28.8973 8.51462 29.6004 9.35005 29.6004H24.6501C25.4855 29.6004 26.2001 28.8973 26.2001 28.0099V15.0575C26.2001 14.1702 25.4855 13.4671 24.6501 13.4671H9.35005ZM17 18.5504C17.5523 18.5504 18 18.9981 18 19.5504V22.9504C18 23.5027 17.5523 23.9504 17 23.9504C16.4478 23.9504 16 23.5027 16 22.9504V19.5504C16 18.9981 16.4478 18.5504 17 18.5504Z" fill="#339ad5"/>
</svg>
