<?xml version="1.0" encoding="utf-8"?>
<!-- Generator: Adobe Illustrator 23.0.1, SVG Export Plug-In . SVG Version: 6.00 Build 0)  -->
<svg version="1.1" id="Layer_1" xmlns="http://www.w3.org/2000/svg" xmlns:xlink="http://www.w3.org/1999/xlink" x="0px" y="0px"
	 viewBox="0 0 24 24" style="enable-background:new 0 0 24 24;" xml:space="preserve">
<style type="text/css">
	.st0{opacity:0;}
	.st1{fill:#FFFFFF;}
</style>
<g id="notification" transform="translate(643 1998)">
	<g id="base" class="st0">
		<rect id="Rectangle_982" x="-643" y="-1998" class="st1" width="24" height="24"/>
		<rect id="Rectangle_983" x="-641" y="-1996" class="st1" width="20" height="20"/>
	</g>
	<g>
		<path class="st1" d="M-631-1976.2c-5.3,0-9.6-4.3-9.6-9.6c0-4.3,2.9-8.1,7.1-9.3c0.4-0.1,0.9,0.1,1,0.6c0.1,0.5-0.1,0.9-0.6,1
			c-4.3,1.2-6.8,5.6-5.6,9.9c1.2,4.3,5.6,6.8,9.9,5.6c4.3-1.2,6.8-5.6,5.6-9.9c-0.8-2.6-2.8-4.7-5.4-5.5c-0.4-0.1-0.7-0.6-0.6-1
			c0.1-0.4,0.6-0.7,1-0.6l0,0c5.1,1.5,7.9,6.9,6.5,12C-623.1-1979-626.7-1976.2-631-1976.2z"/>
		<path class="st1" d="M-630.9-1990.4c-0.5,0-0.8-0.4-0.8-0.8l0,0v-5c0-0.4,0.3-0.8,0.8-0.8c0.5,0,0.8,0.4,0.8,0.8v4.9
			C-630.1-1990.8-630.4-1990.4-630.9-1990.4L-630.9-1990.4z"/>
	</g>
</g>
</svg>
