<svg width="24" height="24" viewBox="0 0 24 24" fill="none" xmlns="http://www.w3.org/2000/svg">
<path d="M11.9894 2.18171C11.8603 2.18298 11.7327 2.20979 11.6139 2.26064C11.4952 2.3115 11.3875 2.38539 11.2972 2.47807C11.2069 2.57075 11.1357 2.68047 11.0876 2.80083C11.0395 2.92119 11.0156 3.04985 11.0171 3.17952V11.0716C11.0172 11.3333 11.1207 11.5844 11.3051 11.7695C11.4894 11.9546 11.7393 12.0585 12 12.0585C12.2606 12.0585 12.5106 11.9546 12.6949 11.7695C12.8792 11.5844 12.9828 11.3333 12.9829 11.0716V3.17952C12.9844 3.04806 12.9597 2.9176 12.9103 2.79584C12.861 2.67409 12.7878 2.56345 12.6953 2.47049C12.6027 2.37752 12.4926 2.30413 12.3714 2.25453C12.2502 2.20492 12.1203 2.18017 11.9894 2.18171ZM17.718 4.16001C17.686 4.15909 17.654 4.15973 17.6221 4.16194C17.4279 4.17849 17.2431 4.2527 17.0911 4.37507C16.939 4.49744 16.8267 4.66242 16.7683 4.84912C16.7099 5.03581 16.7081 5.23579 16.7631 5.4235C16.8182 5.61122 16.9276 5.77824 17.0774 5.90333C18.7783 7.35413 19.8544 9.51349 19.8544 11.9384C19.8544 16.3168 16.3541 19.8458 12.0048 19.8458C7.65541 19.8458 4.1474 16.3168 4.14741 11.9384C4.14742 9.52751 5.20983 7.38282 6.89374 5.93221C6.99185 5.8481 7.0725 5.74537 7.13109 5.62995C7.18968 5.51454 7.22506 5.38867 7.23521 5.25952C7.24537 5.13037 7.2301 5.00054 7.19027 4.87732C7.15045 4.75409 7.08685 4.63996 7.0031 4.54143C6.91936 4.44289 6.81711 4.36189 6.7022 4.30304C6.58729 4.2442 6.46197 4.2086 6.33338 4.1984C6.2048 4.18821 6.07548 4.20358 5.9528 4.24359C5.83012 4.28359 5.71649 4.34746 5.61839 4.43158C3.51634 6.2424 2.18165 8.94153 2.18164 11.9384C2.18163 17.381 6.59231 21.8183 12.0048 21.8183C17.4172 21.8183 21.8183 17.381 21.8183 11.9384C21.8183 8.92405 20.4704 6.21382 18.347 4.4027C18.1724 4.24981 17.9496 4.16386 17.718 4.16001H17.718Z" fill="white"/>
</svg>
