<svg xmlns="http://www.w3.org/2000/svg" width="24" height="24" viewBox="0 0 24 24">
  <g id="lpg-cylinder" transform="translate(14043 -12817)">
    <g id="fingerprint" transform="translate(-13400 14815)" opacity="0">
      <g id="Group_40181" data-name="Group 40181">
        <rect id="Rectangle_982" data-name="Rectangle 982" width="24" height="24" transform="translate(-643 -1998)" fill="#148AFF"/>
        <rect id="Rectangle_983" data-name="Rectangle 983" width="20" height="20" transform="translate(-641 -1996)" fill="#148AFF"/>
      </g>
    </g>
    <g id="gas-tank" transform="translate(-14128 12819)">
      <path id="Subtraction_37" data-name="Subtraction 37" d="M14072.428-12758h-7.814a2.465,2.465,0,0,1-2.462-2.463v-10.159a2.475,2.475,0,0,1,2.275-2.454l.066,0v-3.748h-.66a.512.512,0,0,1-.512-.512.511.511,0,0,1,.512-.509h9.375a.511.511,0,0,1,.512.509.512.512,0,0,1-.512.512h-.66v3.748l.066,0a2.475,2.475,0,0,1,2.275,2.454v10.159A2.465,2.465,0,0,1,14072.428-12758Zm-9.255-2.734v.271a1.443,1.443,0,0,0,1.44,1.441h7.814a1.443,1.443,0,0,0,1.44-1.441v-.271Zm0-8.595v7.574h10.7v-7.574Zm1.44-2.733a1.442,1.442,0,0,0-1.44,1.44v.272h10.7v-.272a1.442,1.442,0,0,0-1.44-1.44Zm4.419-2.342v1.32h2.494v-3.744h-6.012v3.744h2.494v-1.32h-.661a.512.512,0,0,1-.509-.513.511.511,0,0,1,.509-.512h2.346a.511.511,0,0,1,.509.512.512.512,0,0,1-.509.513Z" transform="translate(-13971.075 12777.925)" fill="#148AFF"/>
      <path id="Subtraction_38" data-name="Subtraction 38" d="M14063.87-12772.92a1.7,1.7,0,0,1-1.461-.815,1.716,1.716,0,0,1-.074-1.674l1.08-2.156a.5.5,0,0,1,.455-.283.5.5,0,0,1,.455.283l1.08,2.156a1.718,1.718,0,0,1-.073,1.674A1.717,1.717,0,0,1,14063.87-12772.92Zm0-3.276h0l-.625,1.246a.691.691,0,0,0,.032.678.686.686,0,0,0,.593.328.686.686,0,0,0,.593-.328.693.693,0,0,0,.028-.678l-.621-1.246Z" transform="translate(-13966.425 12787.769)" fill="#148AFF"/>
    </g>
  </g>
</svg>
