<svg xmlns="http://www.w3.org/2000/svg" width="58" height="58" viewBox="0 0 58 58">
  <g id="m-passbook" transform="translate(643 1998)">
    <g id="base" transform="translate(-643 -1998)" opacity="0">
      <rect id="Rectangle_982" data-name="Rectangle 982" width="58" height="58" transform="translate(0 0)" fill="#7e2323"/>
      <rect id="Rectangle_983" data-name="Rectangle 983" width="48" height="48" transform="translate(5 5)" fill="#e88e8e"/>
    </g>
    <g id="XMLID_1699_" transform="translate(-633.038 -1991.564)">
      <g id="XMLID_238_" transform="translate(0)">
        <path id="XMLID_670_" d="M73.669,0H44.407A4.412,4.412,0,0,0,40,4.407V40.72a4.412,4.412,0,0,0,4.407,4.407H73.669a4.412,4.412,0,0,0,4.407-4.407V4.407A4.412,4.412,0,0,0,73.669,0ZM44.407,1.763H73.669a2.647,2.647,0,0,1,2.644,2.644V4.76H63a.881.881,0,0,0,0,1.763H76.313v15.16H41.763V6.522H55.072a.881.881,0,1,0,0-1.763H41.763V4.407A2.647,2.647,0,0,1,44.407,1.763Zm29.262,41.6H44.407a2.647,2.647,0,0,1-2.644-2.644V23.445H76.313V40.72A2.647,2.647,0,0,1,73.669,43.364Z" transform="translate(-40)"/>
        <path id="XMLID_684_" d="M196,98.944v4.231a.881.881,0,0,0,.881.881h18.252a.881.881,0,0,0,.881-.881V98.944a.881.881,0,0,0-.881-.881H196.881A.881.881,0,0,0,196,98.944Zm1.763.881h16.49v2.468h-16.49Z" transform="translate(-182.25 -89.42)"/>
        <path id="XMLID_685_" d="M215.134,194.063H196.881a.881.881,0,1,0,0,1.763h18.252a.881.881,0,0,0,0-1.763Z" transform="translate(-182.25 -176.958)"/>
        <path id="XMLID_686_" d="M243.533,393.208h-5.318a.881.881,0,1,0,0,1.763h5.318a.881.881,0,1,0,0-1.763Z" transform="translate(-219.941 -358.551)"/>
        <path id="XMLID_687_" d="M243.533,345.208h-5.318a.881.881,0,1,0,0,1.763h5.318a.881.881,0,1,0,0-1.763Z" transform="translate(-219.941 -314.782)"/>
        <path id="XMLID_688_" d="M243.533,441.208h-5.318a.881.881,0,1,0,0,1.763h5.318a.881.881,0,1,0,0-1.763Z" transform="translate(-219.941 -402.32)"/>
        <path id="XMLID_689_" d="M243.533,297.208h-5.318a.881.881,0,1,0,0,1.763h5.318a.881.881,0,0,0,0-1.763Z" transform="translate(-219.941 -271.012)"/>
        <path id="XMLID_690_" d="M351.928,393.208h-5.38a.881.881,0,1,0,0,1.763h5.38a.881.881,0,1,0,0-1.763Z" transform="translate(-318.725 -358.551)"/>
        <path id="XMLID_692_" d="M351.928,345.208h-5.38a.881.881,0,1,0,0,1.763h5.38a.881.881,0,1,0,0-1.763Z" transform="translate(-318.725 -314.782)"/>
        <path id="XMLID_693_" d="M351.928,441.208h-5.38a.881.881,0,1,0,0,1.763h5.38a.881.881,0,1,0,0-1.763Z" transform="translate(-318.725 -402.32)"/>
        <path id="XMLID_694_" d="M351.928,297.208h-5.38a.881.881,0,1,0,0,1.763h5.38a.881.881,0,1,0,0-1.763Z" transform="translate(-318.725 -271.012)"/>
        <path id="XMLID_695_" d="M97.813,393.208H88.881a.881.881,0,1,0,0,1.763h8.931a.881.881,0,1,0,0-1.763Z" transform="translate(-83.769 -358.551)"/>
        <path id="XMLID_696_" d="M97.813,345.208H88.881a.881.881,0,0,0,0,1.763h8.931a.881.881,0,0,0,0-1.763Z" transform="translate(-83.769 -314.782)"/>
        <path id="XMLID_697_" d="M97.813,441.208H88.881a.881.881,0,0,0,0,1.763h8.931a.881.881,0,0,0,0-1.763Z" transform="translate(-83.769 -402.32)"/>
        <path id="XMLID_699_" d="M97.813,297.208H88.881a.881.881,0,0,0,0,1.763h8.931a.881.881,0,0,0,0-1.763Z" transform="translate(-83.769 -271.012)"/>
        <path id="XMLID_700_" d="M246.881,55.763a.882.882,0,1,0-.623-.258A.888.888,0,0,0,246.881,55.763Z" transform="translate(-227.843 -49.24)"/>
      </g>
    </g>
    <g id="Group_42388" data-name="Group 42388" transform="translate(-628.226 -1981.909)">
      <path id="Union_30" data-name="Union 30" d="M-71.655-4738.66a.1.1,0,0,1-.082-.044l-2.477-3.619h-1.459a.1.1,0,0,1-.1-.1v-1.02a.1.1,0,0,1,.1-.1h2.225a1.624,1.624,0,0,0,1.493-1.08h-3.718a.1.1,0,0,1-.1-.1v-1.02a.1.1,0,0,1,.1-.1h3.715a1.615,1.615,0,0,0-1.64-1.023h-2.076a.1.1,0,0,1-.1-.1v-1.025a.1.1,0,0,1,.1-.1h6.406a.1.1,0,0,1,.1.1v1.021a.1.1,0,0,1-.1.1h-1.787a2.471,2.471,0,0,1,.514,1.027h1.274a.1.1,0,0,1,.1.1v1.02a.1.1,0,0,1-.1.1h-1.246a2.6,2.6,0,0,1-2.271,2.178l2.554,3.627a.1.1,0,0,1,.007.1.1.1,0,0,1-.088.054Z" transform="translate(75.673 4747.991)"/>
    </g>
  </g>
</svg>
