<svg xmlns="http://www.w3.org/2000/svg" width="30" height="30" viewBox="0 0 30 30">
  <g id="Group_40102" data-name="Group 40102" transform="translate(-550 -10817)">
    <rect id="Rectangle_18714" data-name="Rectangle 18714" width="30" height="30" transform="translate(550 10817)" fill="none"/>
    <g id="Group_40101" data-name="Group 40101" transform="translate(-6.298 -29)">
      <g id="transaction" transform="translate(559.297 10849)">
        <path id="Path_44002" data-name="Path 44002" d="M23.3,17.859H20.156V2.578A2.581,2.581,0,0,0,17.578,0h-15A2.581,2.581,0,0,0,0,2.578V4.453a.7.7,0,0,0,.7.7H3.75V15.984H.7a.7.7,0,0,0,0,1.406H3.75v1.453H.7a.7.7,0,0,0-.7.7v1.875A2.581,2.581,0,0,0,2.578,24h15a2.581,2.581,0,0,0,2.578-2.578V19.266H23.3a.7.7,0,0,0,0-1.406ZM3.75,21.422a1.172,1.172,0,0,1-2.344,0V20.25H3.75Zm0-17.672H1.406V2.578a1.172,1.172,0,0,1,2.344,0Zm15,14.109h-3.6l.675-.675a.7.7,0,0,0-.994-.994l-1.875,1.875a.7.7,0,0,0,0,.994l1.875,1.875a.7.7,0,0,0,.994-.994l-.675-.675h3.6v2.156a1.173,1.173,0,0,1-1.172,1.172H4.874a2.563,2.563,0,0,0,.282-1.172V17.391H8.849l-.675.675a.7.7,0,0,0,.994.994l1.875-1.875a.7.7,0,0,0,0-.994L9.169,14.315a.7.7,0,0,0-.994.994l.675.675H5.156V2.578a2.563,2.563,0,0,0-.282-1.172h12.7A1.173,1.173,0,0,1,18.75,2.578Z" fill="#339ad5"/>
        <path id="Path_44003" data-name="Path 44003" d="M140.7,62.406h7.031a.7.7,0,0,0,0-1.406H140.7a.7.7,0,0,0,0,1.406Z" transform="translate(-133.438 -58.141)" fill="#339ad5"/>
        <path id="Path_44004" data-name="Path 44004" d="M150.078,121H140.7a.7.7,0,0,0,0,1.406h9.375a.7.7,0,0,0,0-1.406Z" transform="translate(-133.438 -115.328)" fill="#339ad5"/>
        <path id="Path_44005" data-name="Path 44005" d="M150.078,181H140.7a.7.7,0,0,0,0,1.406h9.375a.7.7,0,0,0,0-1.406Z" transform="translate(-133.438 -172.516)" fill="#339ad5"/>
        <path id="Path_44006" data-name="Path 44006" d="M197.734,241H190.7a.7.7,0,0,0,0,1.406h7.031a.7.7,0,0,0,0-1.406Z" transform="translate(-181.094 -229.703)" fill="#339ad5"/>
      </g>
    </g>
  </g>
</svg>
