<svg width="24" height="24" viewBox="0 0 24 24" fill="none" xmlns="http://www.w3.org/2000/svg">
<path d="M12 2C6.47715 2 2 6.47715 2 12C2 17.5229 6.47715 22 12 22C17.5229 22 22 17.5229 22 12C22 6.47715 17.5229 2 12 2ZM12 20.75C7.1675 20.75 3.25 16.8325 3.25 12C3.25 7.1675 7.1675 3.25 12 3.25C16.8325 3.25 20.75 7.1675 20.75 12C20.75 16.8325 16.8325 20.75 12 20.75Z" fill="#fff"/>
<path d="M12 13.25C12.6904 13.25 13.25 12.6904 13.25 12C13.25 11.3096 12.6904 10.75 12 10.75C11.3096 10.75 10.75 11.3096 10.75 12C10.75 12.6904 11.3096 13.25 12 13.25Z" fill="#fff"/>
<path d="M16.375 13.25C17.0654 13.25 17.625 12.6904 17.625 12C17.625 11.3096 17.0654 10.75 16.375 10.75C15.6846 10.75 15.125 11.3096 15.125 12C15.125 12.6904 15.6846 13.25 16.375 13.25Z" fill="#fff"/>
<path d="M7.625 13.25C8.31536 13.25 8.875 12.6904 8.875 12C8.875 11.3096 8.31536 10.75 7.625 10.75C6.93464 10.75 6.375 11.3096 6.375 12C6.375 12.6904 6.93464 13.25 7.625 13.25Z" fill="#fff"/>
</svg>
