<svg width="42" height="42" viewBox="0 0 42 42" fill="none" xmlns="http://www.w3.org/2000/svg">
<path fill-rule="evenodd" clip-rule="evenodd" d="M9.4502 20.9999C9.4502 19.7782 10.4452 18.7832 11.6669 18.7832C12.8885 18.7832 13.8835 19.7782 13.8835 20.9999C13.8835 22.2215 12.8885 23.2165 11.6669 23.2165C10.4452 23.2165 9.4502 22.2215 9.4502 20.9999Z" fill="#339ad5"/>
<path fill-rule="evenodd" clip-rule="evenodd" d="M18.7832 20.9999C18.7832 19.7782 19.7782 18.7832 20.9999 18.7832C22.2215 18.7832 23.2165 19.7782 23.2165 20.9999C23.2165 22.2215 22.2215 23.2165 20.9999 23.2165C19.7782 23.2165 18.7832 22.2215 18.7832 20.9999Z" fill="#339ad5"/>
<path fill-rule="evenodd" clip-rule="evenodd" d="M28.1165 20.9999C28.1165 19.7782 29.1115 18.7832 30.3331 18.7832C31.5548 18.7832 32.5498 19.7782 32.5498 20.9999C32.5498 22.2215 31.5548 23.2165 30.3331 23.2165C29.1115 23.2165 28.1165 22.2215 28.1165 20.9999Z" fill="#339ad5"/>
<path fill-rule="evenodd" clip-rule="evenodd" d="M2.44995 21.0002C2.44995 10.7723 10.7721 2.4502 21 2.4502C31.2278 2.4502 39.5499 10.7723 39.5499 21.0002C39.5499 31.228 31.2278 39.5502 21 39.5502C10.7721 39.5502 2.44995 31.228 2.44995 21.0002ZM4.54995 21.0002C4.54995 30.0713 11.9288 37.4502 21 37.4502C30.0711 37.4502 37.45 30.0713 37.45 21.0002C37.45 11.929 30.0711 4.5502 21 4.5502C11.9288 4.5502 4.54995 11.929 4.54995 21.0002Z" fill="#339ad5"/>
</svg>
