<svg xmlns="http://www.w3.org/2000/svg" width="24" height="24" viewBox="0 0 24 24">
  <g id="municipal-services" transform="translate(14043 -12817)">
    <g id="fingerprint" transform="translate(-13400 14815)">
      <g id="Group_40181" data-name="Group 40181" opacity="0">
        <rect id="Rectangle_982" data-name="Rectangle 982" width="24" height="24" transform="translate(-643 -1998)" fill="#148AFF"/>
        <rect id="Rectangle_983" data-name="Rectangle 983" width="20" height="20" transform="translate(-641 -1996)" fill="#148AFF"/>
      </g>
    </g>
    <g id="city-hall" transform="translate(-14041 12801.066)">
      <g id="Group_40150" data-name="Group 40150" transform="translate(0 18.817)">
        <g id="Group_40149" data-name="Group 40149" transform="translate(0 0)">
          <path id="Path_44085" data-name="Path 44085" d="M18.6,27.473H14.366V26.066a.477.477,0,0,0,.654-.055l1.193-1.359a.468.468,0,0,0-.041-.661l-.005,0-5.9-5.055a.469.469,0,0,0-.61,0l-5.9,5.055a.469.469,0,0,0-.051.662h0l1.168,1.359a.445.445,0,0,0,.345.164.37.37,0,0,0,.283-.1v1.407H1.4A1.414,1.414,0,0,0,0,28.892V36.6a.45.45,0,0,0,.447.453h19.09A.45.45,0,0,0,20,36.614c0-.005,0-.011,0-.016V28.892A1.414,1.414,0,0,0,18.6,27.473ZM5.493,36.111H.939v-7.22a.474.474,0,0,1,.463-.48H5.493ZM5.272,25.041l-.557-.648L9.958,19.9,15.2,24.39l-.571.653-4.363-3.734a.469.469,0,0,0-.61,0ZM11.08,36.111H8.826V34.093H11.08Zm2.347,0H12.019V33.624a.452.452,0,0,0-.447-.471H8.343a.459.459,0,0,0-.456.462s0,.006,0,.009v2.487H6.432V25.267l3.508-2.984,3.488,2.98Zm5.634,0H14.366v-7.7H18.6a.474.474,0,0,1,.463.48Z" transform="translate(0 -18.817)" fill="#148AFF"/>
        </g>
      </g>
      <g id="Group_40152" data-name="Group 40152" transform="translate(7.852 30.9)">
        <g id="Group_40151" data-name="Group 40151">
          <path id="Path_44086" data-name="Path 44086" d="M170.978,276.179h-3.25a.469.469,0,0,0,0,.939h3.25a.469.469,0,1,0,0-.939Z" transform="translate(-167.259 -276.179)" fill="#148AFF"/>
        </g>
      </g>
      <g id="Group_40154" data-name="Group 40154" transform="translate(1.784 29.735)">
        <g id="Group_40153" data-name="Group 40153">
          <path id="Path_44087" data-name="Path 44087" d="M38.469,251.362a.469.469,0,0,0-.469.47v.807a.469.469,0,0,0,.939,0v-.807A.469.469,0,0,0,38.469,251.362Z" transform="translate(-38 -251.362)" fill="#148AFF"/>
        </g>
      </g>
      <g id="Group_40156" data-name="Group 40156" transform="translate(3.709 29.735)">
        <g id="Group_40155" data-name="Group 40155">
          <path id="Path_44088" data-name="Path 44088" d="M79.469,251.362a.469.469,0,0,0-.469.47v.807a.469.469,0,0,0,.939,0v-.807A.469.469,0,0,0,79.469,251.362Z" transform="translate(-79 -251.362)" fill="#148AFF"/>
        </g>
      </g>
      <g id="Group_40158" data-name="Group 40158" transform="translate(1.784 32.879)">
        <g id="Group_40157" data-name="Group 40157">
          <path id="Path_44089" data-name="Path 44089" d="M38.469,318.321a.469.469,0,0,0-.469.47v.807a.469.469,0,0,0,.939,0v-.807A.469.469,0,0,0,38.469,318.321Z" transform="translate(-38 -318.321)" fill="#148AFF"/>
        </g>
      </g>
      <g id="Group_40160" data-name="Group 40160" transform="translate(3.709 32.879)">
        <g id="Group_40159" data-name="Group 40159">
          <path id="Path_44090" data-name="Path 44090" d="M79.469,318.321a.469.469,0,0,0-.469.47v.807a.469.469,0,0,0,.939,0v-.807A.469.469,0,0,0,79.469,318.321Z" transform="translate(-79 -318.321)" fill="#148AFF"/>
        </g>
      </g>
      <g id="Group_40162" data-name="Group 40162" transform="translate(15.352 29.735)">
        <g id="Group_40161" data-name="Group 40161">
          <path id="Path_44091" data-name="Path 44091" d="M327.469,251.362a.469.469,0,0,0-.469.47v.807a.469.469,0,0,0,.939,0v-.807A.469.469,0,0,0,327.469,251.362Z" transform="translate(-327 -251.362)" fill="#148AFF"/>
        </g>
      </g>
      <g id="Group_40164" data-name="Group 40164" transform="translate(17.23 29.735)">
        <g id="Group_40163" data-name="Group 40163">
          <path id="Path_44092" data-name="Path 44092" d="M367.469,251.362a.469.469,0,0,0-.469.47v.807a.469.469,0,0,0,.939,0v-.807A.47.47,0,0,0,367.469,251.362Z" transform="translate(-367 -251.362)" fill="#148AFF"/>
        </g>
      </g>
      <g id="Group_40166" data-name="Group 40166" transform="translate(15.352 32.879)">
        <g id="Group_40165" data-name="Group 40165">
          <path id="Path_44093" data-name="Path 44093" d="M327.469,318.321a.469.469,0,0,0-.469.47v.807a.469.469,0,1,0,.939,0v-.807A.469.469,0,0,0,327.469,318.321Z" transform="translate(-327 -318.321)" fill="#148AFF"/>
        </g>
      </g>
      <g id="Group_40168" data-name="Group 40168" transform="translate(17.23 32.879)">
        <g id="Group_40167" data-name="Group 40167">
          <path id="Path_44094" data-name="Path 44094" d="M367.469,318.321a.469.469,0,0,0-.469.47v.807a.469.469,0,0,0,.939,0v-.807A.47.47,0,0,0,367.469,318.321Z" transform="translate(-367 -318.321)" fill="#148AFF"/>
        </g>
      </g>
      <g id="Group_40199" data-name="Group 40199" transform="translate(8.48 25.487)">
        <g id="Group_40169" data-name="Group 40169">
          <path id="Path_44095" data-name="Path 44095" d="M182.351,178.521a1.52,1.52,0,0,0-1.52,1.52h0a1.52,1.52,0,1,0,1.52-1.52Zm0,2.095a.575.575,0,1,1,.575-.575A.575.575,0,0,1,182.351,180.616Z" transform="translate(-180.831 -178.521)" fill="#148AFF"/>
        </g>
      </g>
    </g>
  </g>
</svg>
