<svg width="180" height="130" viewBox="0 0 180 130" fill="none" xmlns="http://www.w3.org/2000/svg">
<g clip-path="url(#clip0_14628_67717)">
<path d="M87.935 116.913C116.785 116.913 140.172 93.5266 140.172 64.6774C140.172 35.8283 116.785 12.4414 87.935 12.4414C59.0853 12.4414 35.698 35.8283 35.698 64.6774C35.698 93.5266 59.0853 116.913 87.935 116.913Z" fill="url(#paint0_linear_14628_67717)"/>
<path d="M20.6969 34.4458C20.6786 34.4971 20.6467 34.5424 20.6046 34.5769C20.5626 34.6114 20.5119 34.6338 20.458 34.6417C20.4042 34.6496 20.3493 34.6427 20.299 34.6218C20.2488 34.6009 20.2052 34.5667 20.1729 34.5229L18.951 32.7558H16.803C16.7487 32.7541 16.6959 32.7378 16.6502 32.7085C16.6045 32.6791 16.5676 32.6379 16.5434 32.5893C16.5193 32.5406 16.5088 32.4863 16.5132 32.4322C16.5175 32.378 16.5364 32.326 16.568 32.2818L17.868 30.5739L17.1999 28.5329C17.1845 28.4807 17.1836 28.4253 17.1973 28.3726C17.211 28.3199 17.2387 28.272 17.2776 28.2338C17.3164 28.1957 17.3648 28.1689 17.4178 28.1562C17.4707 28.1435 17.5261 28.1455 17.578 28.1618L19.605 28.8728L21.3399 27.6068C21.3848 27.5762 21.4372 27.5584 21.4914 27.5552C21.5457 27.552 21.5997 27.5637 21.6479 27.5888C21.696 27.614 21.7364 27.6517 21.7648 27.698C21.7932 27.7443 21.8084 27.7975 21.8089 27.8518L21.7589 29.9989L23.4989 31.2578C23.542 31.291 23.5752 31.3353 23.595 31.3859C23.6148 31.4366 23.6206 31.4916 23.6115 31.5453C23.6025 31.5989 23.5791 31.649 23.5437 31.6903C23.5084 31.7317 23.4625 31.7626 23.4109 31.7799L21.3529 32.3958L20.6969 34.4458Z" fill="#F47458"/>
<path d="M97.7639 8.79384C97.8478 8.18736 98.0647 7.60692 98.399 7.09401C98.7334 6.5811 99.1769 6.14842 99.6979 5.82686C100.454 5.30886 101.074 4.86884 101.242 4.26484C101.531 3.22184 100.434 2.72185 99.3419 2.72685C99.0696 2.72696 98.808 2.62089 98.6127 2.43116C98.4173 2.24144 98.3037 1.98303 98.2959 1.71084C98.2874 1.4353 98.3874 1.16745 98.5744 0.964917C98.7615 0.762381 99.0205 0.641332 99.2959 0.627836C100.018 0.59573 100.74 0.678437 101.436 0.872846C103.782 1.52385 104.489 3.11785 104.079 4.59285C103.666 5.72229 102.825 6.64417 101.739 7.15983C101.318 7.399 100.955 7.72837 100.676 8.12428C100.398 8.5202 100.21 8.97286 100.127 9.44984L97.7639 8.79384ZM96.6208 11.1178C96.7133 10.8055 96.896 10.5275 97.1461 10.3188C97.3962 10.1101 97.7024 9.98005 98.0262 9.94499C98.3501 9.90993 98.6771 9.97141 98.9661 10.1217C99.255 10.2721 99.493 10.5045 99.6501 10.7898C99.8073 11.0751 99.8765 11.4006 99.8491 11.7251C99.8217 12.0497 99.699 12.3589 99.4963 12.6139C99.2936 12.8688 99.02 13.0581 98.7099 13.1579C98.3999 13.2578 98.0673 13.2637 97.7539 13.1748C97.5399 13.1217 97.3391 13.0249 97.1643 12.8905C96.9895 12.7561 96.8443 12.5871 96.7379 12.3939C96.6315 12.2007 96.5663 11.9877 96.5461 11.7681C96.526 11.5485 96.5514 11.3271 96.6208 11.1178Z" fill="#F7CC7F"/>
<path d="M157.057 32.7568L157.93 34.2068C157.951 34.2436 157.982 34.2736 158.019 34.2933C158.056 34.3131 158.098 34.3218 158.14 34.3183C158.182 34.3148 158.223 34.2994 158.256 34.2738C158.29 34.2481 158.315 34.2134 158.33 34.1738L158.95 32.5988L160.599 32.2168C160.639 32.2076 160.676 32.1872 160.705 32.1581C160.735 32.129 160.755 32.0923 160.764 32.0521C160.774 32.012 160.772 31.9699 160.759 31.9308C160.746 31.8917 160.722 31.857 160.69 31.8308L159.384 30.7548L159.53 29.0688C159.533 29.0277 159.526 28.9863 159.507 28.9495C159.488 28.9126 159.46 28.8817 159.425 28.8602C159.389 28.8388 159.349 28.8277 159.307 28.8281C159.266 28.8286 159.226 28.8406 159.191 28.8628L157.764 29.7728L156.206 29.1128C156.168 29.0967 156.126 29.0916 156.085 29.098C156.045 29.1044 156.007 29.1221 155.975 29.1491C155.944 29.176 155.921 29.2111 155.909 29.2505C155.897 29.2899 155.895 29.3319 155.906 29.3718L156.33 31.0098L155.221 32.2878C155.194 32.319 155.176 32.3571 155.169 32.398C155.163 32.4388 155.168 32.4807 155.184 32.5189C155.2 32.557 155.226 32.5899 155.26 32.6137C155.294 32.6376 155.333 32.6515 155.375 32.6538L157.057 32.7568Z" fill="#F79C8D"/>
<path d="M117.335 11.1696L115.426 9.81357L115.956 7.47656L116.577 7.61755L116.141 9.54056L118.115 10.9406L117.098 13.4506L119.326 14.6506L118.312 16.8666L117.551 17.0006L118.499 14.9286L116.294 13.7386L117.335 11.1696Z" fill="#F48C7F"/>
<path d="M29.39 20.918L30.572 21.959L32.043 21.314L33.285 22.575L34.64 21.405L36.108 22.769L37.489 21.8459L39.116 22.927L38.707 23.543L37.491 22.735L36.0339 23.709L34.6229 22.3979L33.2449 23.5869L31.874 22.196L30.4379 22.826L29.338 21.861L28.481 22.472L28.0519 21.8719L29.39 20.918Z" fill="#F7CC7F"/>
<path d="M162.831 42.9945C163.416 43.555 163.821 44.2764 163.996 45.0673C164.17 45.8582 164.107 46.6832 163.812 47.4378C163.518 48.1925 163.007 48.8429 162.343 49.3069C161.679 49.7709 160.892 50.0276 160.082 50.0445C159.273 50.0615 158.476 49.8379 157.793 49.402C157.111 48.9662 156.573 48.3376 156.247 47.5959C155.922 46.8542 155.824 46.0327 155.965 45.2351C156.106 44.4376 156.481 43.7 157.042 43.1155C157.794 42.332 158.826 41.8791 159.911 41.8564C160.997 41.8337 162.047 42.243 162.831 42.9945Z" fill="#FFF3D9"/>
<path d="M162.742 46.4163L161 46.9523L160.453 48.6913C160.443 48.7231 160.425 48.7516 160.4 48.7734C160.374 48.7952 160.344 48.8095 160.311 48.8146C160.278 48.8197 160.244 48.8155 160.214 48.8024C160.183 48.7892 160.157 48.7677 160.138 48.7403L159.09 47.2493L157.267 47.2663C157.234 47.2665 157.201 47.2574 157.173 47.2402C157.145 47.223 157.122 47.1982 157.107 47.1687C157.092 47.1393 157.086 47.1062 157.089 47.0733C157.091 47.0403 157.103 47.0088 157.123 46.9823L158.218 45.5253L157.638 43.7973C157.627 43.7658 157.626 43.7321 157.633 43.6998C157.641 43.6676 157.658 43.6381 157.681 43.6147C157.705 43.5913 157.734 43.5749 157.767 43.5674C157.799 43.5599 157.833 43.5616 157.864 43.5722L159.588 44.1633L161.052 43.0773C161.079 43.0577 161.11 43.0461 161.143 43.0435C161.176 43.0409 161.209 43.0476 161.238 43.0628C161.268 43.0779 161.292 43.101 161.309 43.1294C161.326 43.1577 161.335 43.1902 161.335 43.2232L161.306 45.0462L162.791 46.1033C162.817 46.1225 162.838 46.1487 162.85 46.179C162.863 46.2093 162.867 46.2424 162.862 46.2748C162.857 46.3071 162.843 46.3374 162.822 46.3624C162.801 46.3874 162.773 46.4061 162.742 46.4163Z" fill="#FED333"/>
<path d="M42.4299 8.40358C41.9206 8.69907 41.5101 9.13865 41.2501 9.66698C40.99 10.1953 40.8921 10.7887 40.9686 11.3726C41.0452 11.9565 41.2928 12.5046 41.6802 12.948C42.0677 13.3915 42.5776 13.7104 43.1459 13.8646C43.6049 13.9921 44.0028 14.2802 44.267 14.6766L45.1849 16.0326C45.3068 16.2128 45.4922 16.3405 45.704 16.3902C45.9159 16.4398 46.1386 16.4079 46.3279 16.3006L47.1969 15.8086C47.3863 15.7014 47.5283 15.5268 47.5947 15.3196C47.661 15.1124 47.6468 14.8878 47.5549 14.6906C46.8609 13.1976 46.4959 12.6976 46.7449 11.8266C46.905 11.2599 46.8939 10.6585 46.7129 10.0981C46.532 9.53776 46.1892 9.04345 45.7278 8.67748C45.2665 8.3115 44.7072 8.09023 44.1204 8.04149C43.5335 7.99275 42.9453 8.11873 42.4299 8.40358Z" fill="#F7CC7F"/>
<path d="M45.075 14.8278C44.431 13.5668 43.696 12.2568 43.475 11.8888C42.103 12.4808 42.093 10.8088 42.96 11.1718C43.2005 11.2877 43.3995 11.4749 43.53 11.7078C43.98 11.4945 44.3844 11.196 44.721 10.8288C44.5779 10.5872 44.4924 10.3158 44.471 10.0358C44.493 9.67083 44.86 9.43583 45.134 9.68583C45.186 9.73351 45.2277 9.79125 45.2568 9.85553C45.2858 9.91982 45.3015 9.9893 45.303 10.0598C45.2622 10.3667 45.1154 10.6497 44.8879 10.8598C45.3469 11.8818 45.8379 12.9008 46.3489 13.8948L46.223 13.9598C45.723 12.9818 45.237 11.9798 44.784 10.9748C44.4471 11.3314 44.0474 11.6229 43.605 11.8348C43.886 12.3048 44.597 13.5848 45.205 14.7678L45.075 14.8278ZM42.695 11.8228C42.8086 11.865 42.9301 11.882 43.051 11.8725C43.1719 11.863 43.2893 11.8273 43.395 11.7678C43.2805 11.5672 43.1083 11.4056 42.9009 11.3038C42.4409 11.1078 42.403 11.6748 42.695 11.8228ZM44.6119 10.0448C44.6318 10.2805 44.7043 10.5088 44.824 10.7128C45.0061 10.5397 45.1248 10.3105 45.161 10.0618C45.161 9.89583 45.025 9.71082 44.861 9.72782C44.841 9.72882 44.6209 9.89984 44.6119 10.0448Z" fill="white"/>
<path d="M44.2419 14.6401C44.2499 14.6511 44.259 14.6621 44.266 14.6731L45.184 16.0291C45.306 16.2091 45.4913 16.3367 45.7031 16.3863C45.9149 16.436 46.1376 16.4041 46.327 16.2971L47.196 15.8051C47.3853 15.6979 47.5273 15.5233 47.5936 15.3161C47.66 15.1089 47.6458 14.8843 47.554 14.6871C47.245 14.0231 47.002 13.5561 46.848 13.1641L44.2419 14.6401Z" fill="#96D9C9"/>
<path d="M40.2079 7.95565L38.9869 6.89065C38.9328 6.84046 38.9004 6.7712 38.8965 6.69751C38.8925 6.62381 38.9175 6.55151 38.966 6.49588C39.0145 6.44024 39.0827 6.40564 39.1562 6.39944C39.2298 6.39324 39.3028 6.41594 39.3599 6.46267L40.5809 7.52764C40.635 7.57783 40.6674 7.64713 40.6714 7.72082C40.6753 7.79451 40.6503 7.86682 40.6018 7.92245C40.5534 7.97808 40.4851 8.01266 40.4116 8.01886C40.3381 8.02505 40.265 8.00239 40.2079 7.95565Z" fill="#FAE0B2"/>
<path d="M39.798 11.7675L38.155 12.2135C38.0828 12.2316 38.0065 12.2207 37.9423 12.1832C37.8781 12.1456 37.8312 12.0844 37.8116 12.0126C37.7921 11.9408 37.8016 11.8642 37.8379 11.7993C37.8742 11.7344 37.9346 11.6864 38.006 11.6655L39.65 11.2195C39.7221 11.2014 39.7985 11.2122 39.8627 11.2498C39.9269 11.2874 39.9737 11.3486 39.9932 11.4204C40.0127 11.4922 40.0033 11.5688 39.967 11.6337C39.9306 11.6986 39.8694 11.7466 39.798 11.7675Z" fill="#FAE0B2"/>
<path d="M40.013 17.2276C39.9792 17.2117 39.9489 17.1893 39.9238 17.1617C39.8987 17.1341 39.8793 17.1019 39.8667 17.0668C39.854 17.0317 39.8485 16.9944 39.8502 16.9572C39.852 16.9199 39.8611 16.8834 39.877 16.8496C40.1283 16.3175 40.4297 15.8106 40.777 15.3356C40.8223 15.2776 40.8884 15.2395 40.9613 15.2293C41.0342 15.2191 41.1083 15.2376 41.1678 15.2809C41.2273 15.3242 41.2677 15.389 41.2804 15.4615C41.2931 15.534 41.2772 15.6086 41.236 15.6696C40.9113 16.1156 40.6297 16.5914 40.395 17.0906C40.3792 17.1249 40.3567 17.1558 40.3289 17.1814C40.301 17.2069 40.2683 17.2266 40.2327 17.2394C40.1972 17.2522 40.1594 17.2577 40.1217 17.2557C40.0839 17.2536 40.047 17.2441 40.013 17.2276Z" fill="#FAE0B2"/>
<path d="M44.117 6.43565C44.0798 6.43909 44.0423 6.43517 44.0067 6.42411C43.971 6.41305 43.9379 6.39509 43.9092 6.37122C43.8805 6.34735 43.8568 6.31805 43.8394 6.28501C43.822 6.25197 43.8113 6.21583 43.808 6.17866C43.7401 5.43568 43.5953 4.70175 43.3759 3.98866C43.3538 3.91665 43.3612 3.8388 43.3965 3.77222C43.4317 3.70565 43.4919 3.65579 43.5639 3.63364C43.6359 3.6115 43.7138 3.61886 43.7804 3.65412C43.847 3.68938 43.8968 3.74966 43.919 3.82166C44.1495 4.5706 44.3019 5.34135 44.3739 6.12165C44.3781 6.15921 44.3747 6.19723 44.364 6.23347C44.3532 6.2697 44.3354 6.30341 44.3114 6.33265C44.2875 6.36189 44.258 6.38607 44.2246 6.40376C44.1912 6.42144 44.1546 6.43228 44.117 6.43565Z" fill="#FAE0B2"/>
<path d="M46.509 7.87793C46.4862 7.84807 46.4695 7.81398 46.46 7.77765C46.4505 7.74131 46.4483 7.70343 46.4535 7.66623C46.4587 7.62902 46.4712 7.59324 46.4904 7.56091C46.5095 7.52859 46.5348 7.50039 46.5649 7.47793L48.037 6.37793C48.0667 6.35435 48.1008 6.33698 48.1373 6.32681C48.1739 6.31664 48.2121 6.31389 48.2497 6.31872C48.2873 6.32356 48.3236 6.33589 48.3564 6.35498C48.3892 6.37406 48.4178 6.39951 48.4406 6.42984C48.4633 6.46017 48.4798 6.49476 48.489 6.53155C48.4982 6.56835 48.4999 6.60662 48.4941 6.6441C48.4882 6.68158 48.475 6.71749 48.455 6.74975C48.4351 6.78201 48.4089 6.80997 48.378 6.83194L46.9059 7.93893C46.8759 7.961 46.8418 7.9769 46.8055 7.98578C46.7693 7.99465 46.7317 7.99632 46.6948 7.99066C46.658 7.985 46.6226 7.97213 46.5907 7.95279C46.5588 7.93345 46.531 7.908 46.509 7.87793Z" fill="#FAE0B2"/>
<path d="M50.848 11.2833C50.8235 11.2925 50.7979 11.2982 50.7719 11.3003C50.1384 11.3498 49.5015 11.3313 48.8719 11.2453C48.835 11.2403 48.7994 11.228 48.7671 11.2092C48.7349 11.1903 48.7067 11.1654 48.6841 11.1356C48.6616 11.1059 48.6451 11.0721 48.6356 11.036C48.6261 10.9999 48.6238 10.9623 48.6289 10.9253C48.634 10.8883 48.6463 10.8527 48.6651 10.8205C48.6839 10.7883 48.7089 10.7601 48.7386 10.7375C48.7683 10.715 48.8022 10.6985 48.8382 10.689C48.8743 10.6795 48.9119 10.6772 48.9489 10.6823C49.539 10.7632 50.1361 10.7806 50.7299 10.7343C50.7985 10.7287 50.8667 10.7482 50.922 10.7891C50.9773 10.8301 51.0158 10.8897 51.0304 10.9568C51.0451 11.024 51.0349 11.0942 51.0017 11.1545C50.9685 11.2147 50.9145 11.2608 50.8499 11.2843L50.848 11.2833Z" fill="#FAE0B2"/>
<path d="M137.331 10.5586L136.603 11.9026C134.845 15.1287 132.525 18.0152 129.753 20.4266L129.445 20.6956C129.595 21.4298 130.028 22.0757 130.649 22.4941C131.271 22.9125 132.032 23.07 132.769 22.9326C134.877 19.7066 137.379 16.7561 140.217 14.1496L141.285 13.2796L137.331 10.5586Z" fill="#466EB6"/>
<path d="M141.287 13.278C141.125 13.473 140.112 13.021 139.024 12.269C137.936 11.517 137.174 10.748 137.336 10.553C137.498 10.358 138.521 10.812 139.61 11.564C140.699 12.316 141.449 13.083 141.287 13.278Z" fill="#86B1F2"/>
<path d="M141.282 13.2783C141.282 13.2783 138.775 11.8783 138.318 11.1133L138.018 11.4913C138.336 11.7689 138.67 12.028 139.018 12.2673C140.101 13.0093 141.103 13.4603 141.282 13.2783Z" fill="#355389"/>
<path d="M136.742 17.7034C136.422 17.8104 135.002 18.1464 133.742 16.2344C133.581 16.439 133.416 16.642 133.249 16.8434C133.521 17.2727 133.88 17.6398 134.304 17.9205C134.728 18.2013 135.206 18.3893 135.707 18.4724C135.807 18.4854 135.949 18.4984 136.053 18.5014C136.281 18.2327 136.511 17.9667 136.742 17.7034Z" fill="#B75742"/>
<path d="M134.213 16.291L133.337 13.1641L132.891 14.1161L131.879 13.9601L133.641 16.618L134.213 16.291Z" fill="#B75742"/>
<path d="M133.519 16.8253L131.066 16.4062L131.638 17.0732L131.067 17.5853L133.441 17.3853L133.519 16.8253Z" fill="#B75742"/>
<path d="M133.085 17.4284C133.039 17.2917 133.02 17.1472 133.029 17.0032C133.039 16.8592 133.078 16.7185 133.142 16.5894C133.207 16.4604 133.296 16.3454 133.406 16.2511C133.515 16.1568 133.642 16.0852 133.779 16.0404C134.046 15.9178 134.35 15.9042 134.627 16.0027C134.903 16.1011 135.131 16.3038 135.26 16.5674C135.306 16.704 135.325 16.8484 135.315 16.9923C135.305 17.1362 135.267 17.2767 135.202 17.4057C135.138 17.5347 135.048 17.6496 134.939 17.7437C134.83 17.8379 134.703 17.9095 134.566 17.9544C134.299 18.0771 133.995 18.0908 133.719 17.9925C133.442 17.8942 133.215 17.6918 133.085 17.4284Z" fill="#F47458"/>
<path d="M143.175 29.14L144.375 28.749L145.216 30.605L147.036 30.2501L147.892 31.536L148.543 31.1021L147.398 29.382L145.673 29.7191L144.798 27.7891L142.998 28.377L143.175 29.14Z" fill="#50BFA5"/>
<path d="M164.827 94.5648L166.027 94.1738L166.868 96.0298L168.688 95.6748L169.544 96.9608L170.195 96.5278L169.049 94.8079L167.324 95.1448L166.449 93.2148L164.649 93.8029L164.827 94.5648Z" fill="#F7CC7F"/>
<path d="M76.8991 5.38589C76.7228 6.2556 76.2927 7.05353 75.663 7.67879C75.0333 8.30404 74.2324 8.72854 73.3615 8.89862C72.4905 9.0687 71.5887 8.97673 70.77 8.63432C69.9514 8.29191 69.2526 7.71445 68.7621 6.97494C68.2716 6.23544 68.0114 5.3671 68.0144 4.47972C68.0174 3.59234 68.2835 2.72578 68.779 1.98959C69.2744 1.2534 69.9769 0.680643 70.7979 0.343749C71.6188 0.00685591 72.5213 -0.0790471 73.391 0.0968927C73.9687 0.213745 74.5177 0.443262 75.0066 0.772323C75.4956 1.10138 75.9149 1.52354 76.2406 2.01469C76.5664 2.50585 76.7922 3.05636 76.9052 3.6348C77.0181 4.21323 77.0161 4.80827 76.8991 5.38589Z" fill="#F7CC7F"/>
<path d="M70.0089 4.71094C69.9308 5.02536 69.9172 5.35232 69.9689 5.67215C70.0206 5.99197 70.1365 6.29803 70.3096 6.57187C70.4827 6.84571 70.7095 7.08166 70.9762 7.2655C71.243 7.44935 71.5442 7.57729 71.8617 7.6416C72.1792 7.70592 72.5065 7.70529 72.8237 7.63974C73.141 7.57419 73.4417 7.44508 73.7078 7.26019C73.9738 7.07531 74.1997 6.83847 74.3717 6.56396C74.5438 6.28946 74.6586 5.98296 74.709 5.66293L70.0089 4.71094Z" fill="#EFEFEF"/>
<path d="M10.043 56.2203C9.91571 56.0115 9.74041 55.8362 9.53168 55.7089C9.32295 55.5815 9.08682 55.5059 8.84296 55.4883C6.39896 55.4883 5.84894 62.6883 5.84894 65.2083C5.78579 67.6259 6.0968 70.0388 6.77094 72.3613C7.32694 74.0223 8.07093 74.9373 8.85993 74.9373C9.69993 74.9373 10.4669 73.8863 11.0209 71.9773C12.4349 67.1063 11.914 58.7123 10.043 56.2203ZM10.536 71.9203C10.065 73.4983 9.43598 74.4403 8.84497 74.4403C8.25397 74.4403 7.62494 73.4983 7.15394 71.9203C6.06697 67.511 6.06697 62.9037 7.15394 58.4943C7.62494 56.9163 8.25397 55.9743 8.84497 55.9743C9.43598 55.9743 10.065 56.9163 10.536 58.4943C11.6232 62.9036 11.6232 67.511 10.536 71.9203Z" fill="#B75742"/>
<path d="M17.1489 67.8961C15.1949 64.6541 6.16296 59.8281 2.04896 59.8281C1.09996 59.8281 0.481946 60.0881 0.210946 60.6021C0.0919117 60.8942 0.0526007 61.2126 0.0970547 61.5248C0.141509 61.8371 0.268122 62.1319 0.463937 62.3791C2.42394 65.6301 11.4419 70.4701 15.5419 70.4701C16.4989 70.4701 17.1239 70.2051 17.3999 69.6831C17.5204 69.3898 17.5607 69.0697 17.5166 68.7556C17.4725 68.4416 17.3456 68.1449 17.1489 67.8961ZM17.0239 69.3731C16.8769 69.7381 16.3689 69.9301 15.5559 69.9301C12.7079 69.9301 6.22695 67.5051 2.14195 63.5571C0.583946 62.0511 0.441937 61.2891 0.588937 60.9151C0.735937 60.5411 1.24196 60.3591 2.05296 60.3591C4.25676 60.5414 6.40668 61.1361 8.39094 62.1121C10.9935 63.2416 13.3871 64.8018 15.471 66.7271C17.033 68.2341 17.1749 68.9981 17.0239 69.3731Z" fill="#B75742"/>
<path d="M17.233 60.4976C17.0298 60.21 16.751 59.9844 16.4275 59.8457C16.1039 59.707 15.7483 59.6605 15.4 59.7115C13.535 59.7115 10.362 60.8256 7.11996 62.6186C3.87796 64.4116 1.30195 66.4746 0.389945 68.0066C0.196584 68.2508 0.0717124 68.542 0.0281291 68.8505C-0.0154543 69.1589 0.0238347 69.4734 0.14196 69.7616C0.344251 70.044 0.620544 70.2651 0.940422 70.4006C1.2603 70.5361 1.61134 70.5807 1.95495 70.5295C6.02595 70.5295 15.017 65.6046 16.987 62.2956C17.1843 62.0449 17.3111 61.7461 17.3544 61.43C17.3976 61.1139 17.3557 60.792 17.233 60.4976ZM12.676 65.6266C9.96037 67.562 6.90846 68.9753 3.67596 69.7945C3.11012 69.927 2.53195 69.9998 1.95095 70.0116C1.22195 70.0116 0.745943 69.8445 0.574943 69.5295C0.500117 69.318 0.48133 69.0907 0.520408 68.8697C0.559486 68.6487 0.65512 68.4416 0.797965 68.2685C1.62797 66.8735 4.09796 64.8686 7.08596 63.1686C10.298 61.3386 13.419 60.2466 15.434 60.2466C16.359 60.2466 16.8539 60.4896 16.9059 60.9686C17.0049 61.9356 15.347 63.7636 12.677 65.6266H12.676Z" fill="#B75742"/>
<path d="M10.409 64.9154C10.409 65.2232 10.3177 65.524 10.1467 65.7798C9.97574 66.0357 9.73273 66.2352 9.44841 66.353C9.16409 66.4707 8.85126 66.5015 8.54943 66.4415C8.24759 66.3814 7.97034 66.2332 7.75273 66.0156C7.53512 65.798 7.38687 65.5208 7.32683 65.2189C7.26679 64.9171 7.29762 64.6043 7.41539 64.3199C7.53316 64.0356 7.73263 63.7926 7.98851 63.6216C8.2444 63.4507 8.54521 63.3594 8.85295 63.3594C9.26563 63.3594 9.66143 63.5233 9.95323 63.8151C10.245 64.1069 10.409 64.5027 10.409 64.9154Z" fill="#F47458"/>
<path d="M8.39999 57.624C8.39999 57.8548 8.3315 58.0805 8.20327 58.2724C8.07504 58.4643 7.89277 58.6139 7.67953 58.7022C7.46629 58.7905 7.23165 58.8136 7.00527 58.7686C6.7789 58.7236 6.57101 58.6124 6.4078 58.4492C6.24459 58.286 6.13343 58.0781 6.0884 57.8517C6.04337 57.6253 6.06648 57.3907 6.15481 57.1774C6.24314 56.9642 6.39271 56.7819 6.58462 56.6537C6.77653 56.5255 7.00212 56.457 7.23294 56.457C7.38619 56.457 7.53794 56.4872 7.67953 56.5458C7.82112 56.6045 7.94976 56.6905 8.05813 56.7988C8.1665 56.9072 8.25247 57.0358 8.31112 57.1774C8.36977 57.319 8.39999 57.4708 8.39999 57.624Z" fill="#F47458"/>
<path d="M11.9949 71.4642C11.9949 71.6564 11.9379 71.8444 11.8311 72.0042C11.7243 72.1641 11.5725 72.2886 11.3949 72.3622C11.2173 72.4358 11.0219 72.455 10.8333 72.4175C10.6448 72.38 10.4716 72.2874 10.3356 72.1515C10.1997 72.0156 10.1072 71.8424 10.0696 71.6538C10.0321 71.4653 10.0514 71.2698 10.1249 71.0922C10.1985 70.9146 10.3231 70.7628 10.4829 70.656C10.6428 70.5492 10.8307 70.4922 11.023 70.4922C11.2807 70.4922 11.528 70.5946 11.7103 70.7769C11.8926 70.9591 11.9949 71.2064 11.9949 71.4642Z" fill="#F47458"/>
<path d="M2.56594 66.7969C2.56594 66.9947 2.50727 67.188 2.39739 67.3524C2.28751 67.5169 2.13132 67.645 1.9486 67.7207C1.76587 67.7964 1.56482 67.8162 1.37084 67.7776C1.17686 67.7391 0.998665 67.6438 0.858812 67.504C0.71896 67.3641 0.623716 67.1859 0.585131 66.9919C0.546545 66.798 0.566358 66.5969 0.642046 66.4142C0.717734 66.2315 0.845913 66.0753 1.01036 65.9654C1.17481 65.8555 1.36815 65.7969 1.56594 65.7969C1.83115 65.7969 2.08549 65.9022 2.27303 66.0897C2.46056 66.2773 2.56594 66.5317 2.56594 66.7969Z" fill="#F47458"/>
<path d="M17.442 62.3065C17.442 62.4698 17.3936 62.6295 17.3028 62.7654C17.212 62.9012 17.083 63.0071 16.9321 63.0696C16.7811 63.1321 16.6151 63.1484 16.4548 63.1166C16.2946 63.0847 16.1474 63.0061 16.0319 62.8906C15.9164 62.775 15.8377 62.6278 15.8059 62.4676C15.774 62.3074 15.7903 62.1413 15.8528 61.9904C15.9154 61.8394 16.0213 61.7105 16.1571 61.6197C16.2929 61.5289 16.4526 61.4805 16.616 61.4805C16.835 61.4805 17.0452 61.5675 17.2001 61.7224C17.355 61.8773 17.442 62.0874 17.442 62.3065Z" fill="#F47458"/>
<path d="M5.20295 60.576C5.20295 60.7394 5.15455 60.8991 5.06379 61.0349C4.97302 61.1707 4.84399 61.2767 4.69306 61.3392C4.54213 61.4017 4.37605 61.418 4.21582 61.3862C4.0556 61.3543 3.90843 61.2756 3.79291 61.1601C3.67739 61.0446 3.59871 60.8974 3.56684 60.7372C3.53497 60.577 3.55132 60.4109 3.61383 60.2599C3.67635 60.109 3.7822 59.98 3.91803 59.8892C4.05387 59.7985 4.21359 59.75 4.37696 59.75C4.59603 59.75 4.80616 59.837 4.96106 59.9919C5.11597 60.1468 5.20295 60.357 5.20295 60.576Z" fill="#F47458"/>
<path d="M176.151 77.7409L172.253 79.0156L172.472 79.6867L176.37 78.4119L176.151 77.7409Z" fill="#9BC1F9"/>
<path d="M169.13 69.9801L167.083 73.7852L167.705 74.1198L169.752 70.3148L169.13 69.9801Z" fill="#9BC1F9"/>
<path d="M170.554 86.1624L170.017 86.6211L172.946 90.0481L173.482 89.5895L170.554 86.1624Z" fill="#9BC1F9"/>
<path d="M170.522 86.4518L163.428 88.3688L158.071 83.9168L158.522 83.3738L163.597 87.5908L169.949 85.8748L171.763 79.3378L167.076 74.3218L167.592 73.8398L172.549 79.1448L170.522 86.4518Z" fill="#9BC1F9"/>
<path d="M159.774 83.0594C159.887 83.3777 159.902 83.7222 159.819 84.0494C159.736 84.3767 159.557 84.6719 159.306 84.8977C159.055 85.1236 158.743 85.2699 158.409 85.3182C158.075 85.3666 157.734 85.3147 157.429 85.1692C157.125 85.0237 156.87 84.7911 156.697 84.5009C156.525 84.2106 156.442 83.8757 156.46 83.5386C156.478 83.2014 156.595 82.8771 156.798 82.6067C157 82.3363 157.278 82.1319 157.596 82.0194C158.023 81.8686 158.492 81.8935 158.9 82.0885C159.309 82.2835 159.623 82.6328 159.774 83.0594Z" fill="#96D9C9"/>
<path d="M165.144 87.6496C165.257 87.9679 165.272 88.3125 165.189 88.6397C165.106 88.9669 164.928 89.2621 164.677 89.488C164.426 89.7138 164.113 89.8602 163.779 89.9085C163.445 89.9568 163.104 89.9049 162.799 89.7594C162.495 89.614 162.24 89.3814 162.067 89.0911C161.895 88.8008 161.812 88.466 161.83 88.1288C161.848 87.7917 161.965 87.4672 162.167 87.1968C162.37 86.9264 162.648 86.722 162.966 86.6095C163.177 86.5347 163.401 86.5023 163.625 86.5141C163.849 86.5259 164.068 86.5817 164.271 86.6783C164.473 86.7748 164.654 86.9103 164.804 87.0769C164.954 87.2436 165.069 87.4382 165.144 87.6496Z" fill="#96D9C9"/>
<path d="M171.869 85.6063C171.982 85.9246 171.997 86.2691 171.914 86.5963C171.831 86.9235 171.652 87.2187 171.401 87.4446C171.151 87.6704 170.838 87.8168 170.504 87.8651C170.17 87.9134 169.829 87.8616 169.524 87.7161C169.22 87.5706 168.965 87.338 168.792 87.0477C168.62 86.7575 168.537 86.4226 168.555 86.0854C168.573 85.7483 168.69 85.424 168.892 85.1536C169.095 84.8831 169.373 84.6788 169.691 84.5663C170.118 84.4155 170.587 84.4404 170.995 84.6354C171.404 84.8304 171.718 85.1796 171.869 85.6063Z" fill="#96D9C9"/>
<path d="M175.312 89.6923C175.425 90.0106 175.44 90.3551 175.357 90.6824C175.274 91.0096 175.095 91.3048 174.844 91.5306C174.593 91.7565 174.281 91.9028 173.947 91.9512C173.613 91.9995 173.272 91.9476 172.967 91.8021C172.663 91.6566 172.408 91.424 172.235 91.1338C172.063 90.8435 171.98 90.5087 171.998 90.1715C172.016 89.8343 172.133 89.51 172.336 89.2396C172.538 88.9692 172.816 88.7647 173.134 88.6522C173.561 88.5014 174.03 88.5263 174.438 88.7213C174.847 88.9163 175.161 89.2656 175.312 89.6923Z" fill="#96D9C9"/>
<path d="M178.976 77.2863C179.089 77.6046 179.104 77.9492 179.021 78.2764C178.938 78.6036 178.76 78.8988 178.509 79.1247C178.258 79.3505 177.945 79.4969 177.611 79.5452C177.277 79.5935 176.936 79.5416 176.631 79.3962C176.326 79.2507 176.072 79.0181 175.899 78.7278C175.727 78.4376 175.644 78.1027 175.662 77.7655C175.68 77.4284 175.797 77.1041 176 76.8337C176.202 76.5632 176.48 76.3588 176.798 76.2463C177.009 76.1714 177.233 76.139 177.457 76.1508C177.681 76.1626 177.9 76.2184 178.102 76.315C178.305 76.4116 178.486 76.5471 178.636 76.7138C178.786 76.8804 178.901 77.0749 178.976 77.2863Z" fill="#96D9C9"/>
<path d="M171.714 68.9305C171.826 69.2486 171.842 69.5929 171.758 69.9198C171.675 70.2467 171.497 70.5416 171.246 70.7672C170.995 70.9928 170.683 71.1389 170.349 71.1872C170.015 71.2354 169.675 71.1835 169.37 71.0382C169.066 70.8928 168.811 70.6604 168.639 70.3704C168.466 70.0805 168.384 69.7459 168.402 69.409C168.42 69.0721 168.537 68.748 168.738 68.4777C168.94 68.2075 169.218 68.0031 169.536 67.8905C169.963 67.7397 170.432 67.7645 170.84 67.9596C171.249 68.1546 171.563 68.5038 171.714 68.9305Z" fill="#96D9C9"/>
<path d="M174.049 78.5946C174.162 78.9129 174.177 79.2575 174.094 79.5847C174.011 79.9119 173.833 80.2071 173.582 80.433C173.331 80.6588 173.018 80.8052 172.684 80.8535C172.35 80.9018 172.009 80.85 171.704 80.7045C171.399 80.559 171.145 80.3264 170.972 80.0361C170.8 79.7459 170.717 79.411 170.735 79.0739C170.753 78.7367 170.87 78.4124 171.073 78.142C171.275 77.8715 171.553 77.6671 171.871 77.5546C172.298 77.4038 172.767 77.4286 173.175 77.6237C173.584 77.8187 173.898 78.1679 174.049 78.5946Z" fill="#96D9C9"/>
<path d="M169.003 73.3837C169.116 73.702 169.131 74.0465 169.048 74.3737C168.965 74.7009 168.786 74.9962 168.535 75.222C168.284 75.4479 167.972 75.5942 167.638 75.6425C167.304 75.6908 166.963 75.639 166.658 75.4935C166.354 75.348 166.099 75.1155 165.926 74.8252C165.754 74.5349 165.671 74.2 165.689 73.8629C165.707 73.5257 165.824 73.2014 166.027 72.931C166.229 72.6605 166.507 72.4561 166.825 72.3436C167.252 72.1928 167.721 72.2177 168.129 72.4127C168.538 72.6077 168.852 72.957 169.003 73.3837Z" fill="#96D9C9"/>
<path d="M168.221 61.8455L165.931 61.3685L166.417 59.5195L167.1 59.6985L166.8 60.8286L168.362 61.1535L168.221 61.8455Z" fill="#F47458"/>
<path d="M13.4109 82.2969L12.8959 83.7269L10.504 83.152L9.49292 85.152L7.63293 85.0139L7.56293 85.9559L10.051 86.1399L11.009 84.2469L13.4969 84.8469L14.2729 82.6959L13.4109 82.2969Z" fill="#50BFA5"/>
<path d="M11.2219 42.5679L12.4739 42.6979L12.4879 44.735L14.2949 45.15L14.5549 46.673L15.3259 46.5419L14.9789 44.5049L13.2669 44.1119L13.252 41.993L11.3679 41.793L11.2219 42.5679Z" fill="#9BC1F9"/>
<path d="M64.1439 69.375L60.7249 80.362L49.9589 64.609V64.596C48.3617 63.7558 46.7112 63.0208 45.018 62.396C44.134 62.229 41.296 61.961 40.851 62.435C40.8308 62.4016 40.7986 62.3773 40.7609 62.367C40.3849 62.267 39.6919 63.543 39.5949 63.851C39.7437 64.6264 39.9974 65.378 40.349 66.085C40.419 66.22 40.149 66.293 39.806 66.162C39.2831 65.7593 38.8068 65.2994 38.3859 64.791C38.3859 64.791 38.2859 62.784 37.6359 62.791C36.9859 62.798 37.577 65.312 37.577 65.312L38.205 66.152L37.276 65.589C37.276 65.589 36.64 64.238 36.471 64.309C36.319 64.5212 36.2337 64.774 36.226 65.0349C36.2184 65.2959 36.2886 65.5532 36.4279 65.774C36.7337 66.3134 37.1086 66.8106 37.543 67.253L38.952 67.978C38.2212 67.9328 37.5039 67.7609 36.832 67.47C36.349 67.104 36.1529 67.618 36.5319 68.054C37.7191 68.777 39.0504 69.2306 40.432 69.383C42.508 69.4936 44.5891 69.4689 46.6619 69.309C47.2795 69.1411 47.9318 69.1494 48.5449 69.333C49.1449 71.101 54.402 90.249 60.757 92.484C60.757 92.484 63.6909 92.099 67.0349 84.484C70.3789 76.869 72.171 72.298 72.171 72.298L64.1439 69.375ZM44.393 65.475C43.5352 65.6819 42.6454 65.7203 41.773 65.588C41.327 65.425 40.651 63.701 40.651 63.701C40.7649 63.4106 40.8473 63.1089 40.8969 62.801C41.3969 63.344 43.5069 63.101 43.9829 63.409C44.4989 63.736 44.866 65.299 44.393 65.475Z" fill="#F7A491"/>
<path d="M102.379 71.7875C102.379 71.7875 104.328 76.2985 107.933 83.7875C111.538 91.2765 114.484 91.5605 114.484 91.5605C120.757 89.1075 125.345 69.7885 125.884 68.0015C126.49 67.7969 127.142 67.7661 127.765 67.9125C129.842 68.0005 131.923 67.953 133.994 67.7705C135.371 67.5712 136.688 67.0718 137.851 66.3075C138.218 65.8585 138.005 65.3515 137.534 65.7345C136.873 66.0484 136.162 66.245 135.434 66.3155L136.817 65.5425C137.236 65.0855 137.593 64.5759 137.88 64.0265C138.012 63.801 138.073 63.5414 138.056 63.2809C138.04 63.0203 137.946 62.7705 137.787 62.5635C137.616 62.4985 137.026 63.8705 137.026 63.8705L136.117 64.4655L136.717 63.6035C136.717 63.6035 137.217 61.0755 136.571 61.0865C135.925 61.0975 135.891 63.1075 135.891 63.1075C135.488 63.6304 135.028 64.1067 134.52 64.5275C134.182 64.6695 133.908 64.6065 133.974 64.4695C134.301 63.7507 134.528 62.9907 134.65 62.2105C134.542 61.9105 133.806 60.6585 133.433 60.7675C133.396 60.7794 133.365 60.8048 133.346 60.8385C132.885 60.3795 130.058 60.7455 129.18 60.9435C127.509 61.6251 125.885 62.4151 124.318 63.3085V63.3215L114.104 79.4375L110.304 68.5755L102.379 71.7875ZM130.253 61.9125C130.718 61.5905 132.836 61.7585 133.316 61.1985C133.376 61.506 133.47 61.806 133.594 62.0936C133.594 62.0936 132.977 63.8405 132.538 64.0185C131.671 64.1807 130.78 64.1729 129.916 63.9955C129.435 63.8335 129.751 62.2615 130.251 61.9115L130.253 61.9125Z" fill="#F7A491"/>
<path d="M85.2909 99.9183C81.6525 98.1288 77.8682 96.6528 73.979 95.5063C65.235 92.9143 53.4579 91.1973 46.7739 96.7713C42.8429 100.049 83.513 104.371 83.513 104.371L85.2909 99.9183Z" fill="#13375B"/>
<path d="M129.249 98.8422C129.249 98.8422 125.378 93.1632 115.421 93.2952C110.662 93.5018 105.929 94.1009 101.269 95.0863C95.5176 96.273 89.8466 97.8211 84.29 99.7213L83.514 104.372L129.249 98.8422Z" fill="#13375B"/>
<path d="M72.614 106.921L90.3069 115.537L104.151 104.47L99.6099 94.5312L74.524 96.1073L72.614 106.921Z" fill="#13375B"/>
<path d="M76.4729 43.9942C74.4919 39.9572 74.387 32.3292 75.939 27.8512C77.196 24.2272 80.204 22.1622 84.078 21.7402C87.9092 21.1749 91.8091 22.1378 94.9369 24.4212C98.5819 26.8032 102.937 29.3852 107.13 30.4362C112.595 31.8072 118.235 32.8162 123.236 35.4122C126.536 37.1252 129.606 39.6712 130.925 43.1482C132.812 48.1242 130.651 53.8542 127.163 57.8732C124.818 60.5809 121.914 62.7493 118.652 64.2297C115.39 65.7101 111.846 66.4676 108.264 66.4501C104.682 66.4326 101.146 65.6406 97.8983 64.1284C94.6509 62.6162 91.7689 60.4196 89.45 57.6892C87.837 55.6947 86.0191 53.875 84.026 52.2602C81.222 50.0552 78.0729 47.2452 76.4729 43.9942Z" fill="url(#paint1_linear_14628_67717)"/>
<path d="M100.055 49.3055C100.055 49.3055 93.1449 48.6155 86.3349 48.3975C80.2589 48.2025 73.7549 49.3265 73.3289 49.7685C71.6289 51.5285 71.0139 66.6515 71.9649 69.4415C72.9159 72.2315 77.352 79.4735 76.531 84.1995C75.71 88.9255 74.0139 95.5135 74.0139 95.5135C78.0495 97.6186 82.5283 98.7327 87.0799 98.7635C91.4539 98.7315 97.5099 97.8635 101.267 95.0855C101.267 95.0855 99.075 89.2235 99.296 84.6085C99.517 79.9935 101.887 72.1325 103.142 69.3035C104.397 66.4745 102.371 49.7665 100.055 49.3055Z" fill="url(#paint2_linear_14628_67717)"/>
<path d="M76.0549 51.0212L73.455 49.6992C71.6871 50.2404 70.1241 51.3031 68.9709 52.7482C67.7119 54.5622 62.0709 71.0132 62.0709 71.0132C62.0709 71.0132 69.944 74.0852 72.448 73.9412L76.2839 63.8492L76.0549 51.0212Z" fill="url(#paint3_linear_14628_67717)"/>
<path d="M97.305 50.6547L100.1 49.3047C100.1 49.3047 101.878 49.6667 104.16 52.3137C105.601 53.9867 111.979 70.1507 111.979 70.1507C111.979 70.1507 104.217 73.4927 101.709 73.4357L97.5269 63.4827L97.305 50.6547Z" fill="url(#paint4_linear_14628_67717)"/>
<path d="M89.3859 39.6683C89.3859 39.6683 89.8599 46.4203 90.2859 48.5683C90.7299 50.7913 91.3229 61.0083 86.7049 62.2213C82.0869 63.4343 83.229 50.6773 83.113 48.4213C82.997 46.1653 81.941 38.4453 81.941 38.4453L89.3859 39.6683Z" fill="#F7A491"/>
<path d="M81.9399 38.4531C81.9399 38.4531 82.1529 40.0111 82.3979 41.9311C84.1269 43.2391 86.4919 43.5651 89.1979 41.9621C89.3149 41.8931 89.4249 41.8191 89.5369 41.7461C89.4369 40.5361 89.3779 39.6691 89.3779 39.6691L81.9399 38.4531Z" fill="#F47458"/>
<path d="M87.219 23.8743C89.0206 24.4407 90.561 25.6315 91.563 27.2323C93.176 29.8803 94.091 37.5493 88.38 40.9273C82.669 44.3053 78.48 39.1273 78.573 34.2073C78.666 29.2873 79.93 22.7673 87.219 23.8743Z" fill="#F7A491"/>
<path d="M77.342 32.6287C77.78 33.8287 78.7029 34.5967 79.4029 34.3417C80.1029 34.0867 80.3149 32.9057 79.8769 31.7037C79.4389 30.5017 78.516 29.7347 77.816 29.9907C77.116 30.2467 76.9 31.4267 77.342 32.6287Z" fill="#F7A491"/>
<path d="M86.3989 23.6875C86.3989 23.6875 89.647 31.6685 92.705 32.4725C95.763 33.2765 95.5879 37.2325 95.5879 37.2325C95.5879 37.2325 95.819 28.0905 93.001 25.8985C91.063 24.5335 88.7681 23.7649 86.3989 23.6875Z" fill="url(#paint5_linear_14628_67717)"/>
<path d="M91.4271 34.0681C90.9791 35.3321 91.309 36.6021 92.164 36.9051C93.019 37.2081 94.074 36.4281 94.521 35.1641C94.968 33.9001 94.639 32.6301 93.784 32.3271C92.929 32.0241 91.8751 32.8031 91.4271 34.0681Z" fill="#F7A491"/>
<path d="M57.7619 110.733C56.4328 109.684 54.9181 108.895 53.2969 108.407C50.8749 107.765 50.9219 109.54 50.2969 112.279C49.616 114.796 48.6074 117.214 47.2969 119.469C45.9699 122.125 47.5969 128.169 48.3389 128.25C50.1389 128.439 50.9689 124.592 52.6689 121.31C54.3689 118.028 59.1109 116.925 60.4929 116.778C65.3568 116.104 70.2637 115.789 75.1739 115.837C73.4399 112.537 70.9339 109.845 68.3609 106.973C62.0899 109.149 57.7619 110.733 57.7619 110.733Z" fill="#F7A491"/>
<path d="M130.578 101.877C129.734 97.6147 126.162 95.8767 122.038 95.9767C112.538 96.2217 85.738 102.347 69.783 107.352C70.737 110.786 70.006 113.028 71.144 116.561C88.044 115.661 119.749 113.03 128.916 107.747C130.34 106.928 130.983 103.938 130.578 101.877Z" fill="#2A4E96"/>
<path d="M119.485 120.552C118.285 117.837 117.078 116.046 116.585 113.281C116.001 110.01 116.274 108.181 112.261 109.732C109.964 110.634 107.41 110.622 105.122 109.698C103.622 109.083 101.766 108.327 99.6589 107.48C98.2814 110.33 97.4553 113.414 97.2239 116.57C102.213 117.084 105.849 117.586 106.034 117.606C106.834 117.689 112.245 118.83 113.79 122.189C115.335 125.548 116.028 129.728 117.79 129.325C118.812 129.091 120.686 123.269 119.485 120.552Z" fill="#F7A491"/>
<path d="M56.3299 94.4775C52.5909 94.3775 46.13 95.0775 45.16 99.3015C44.6851 101.589 44.872 103.964 45.699 106.149C46.739 108.557 49.1339 109.867 51.5109 110.886C56.0409 112.806 84.0989 115.786 98.5539 117.272C100.261 114.183 101.671 110.749 101.565 107.745C87.6099 102.14 63.4939 94.6765 56.3299 94.4775Z" fill="#375FAF"/>
</g>
<defs>
<linearGradient id="paint0_linear_14628_67717" x1="47.1901" y1="133.629" x2="133.274" y2="-12.2154" gradientUnits="userSpaceOnUse">
<stop stop-color="#E6F2F2"/>
<stop offset="1" stop-color="white"/>
</linearGradient>
<linearGradient id="paint1_linear_14628_67717" x1="131.624" y1="44.0162" x2="74.8702" y2="44.0162" gradientUnits="userSpaceOnUse">
<stop stop-color="#3B234C"/>
<stop offset="0.337" stop-color="#402450"/>
<stop offset="0.75" stop-color="#4F2A5C"/>
<stop offset="1" stop-color="#5C2F67"/>
</linearGradient>
<linearGradient id="paint2_linear_14628_67717" x1="87.8738" y1="43.6889" x2="86.8428" y2="106.564" gradientUnits="userSpaceOnUse">
<stop stop-color="#93E69A"/>
<stop offset="1" stop-color="#1DAEC4"/>
</linearGradient>
<linearGradient id="paint3_linear_14628_67717" x1="69.3338" y1="47.4443" x2="68.7961" y2="77.6981" gradientUnits="userSpaceOnUse">
<stop stop-color="#93E69A"/>
<stop offset="1" stop-color="#1DAEC4"/>
</linearGradient>
<linearGradient id="paint4_linear_14628_67717" x1="104.803" y1="47.0604" x2="104.288" y2="77.1713" gradientUnits="userSpaceOnUse">
<stop stop-color="#93E69A"/>
<stop offset="1" stop-color="#1DAEC4"/>
</linearGradient>
<linearGradient id="paint5_linear_14628_67717" x1="88.8628" y1="28.645" x2="96.8527" y2="26.6055" gradientUnits="userSpaceOnUse">
<stop stop-color="#3B234C"/>
<stop offset="0.125" stop-color="#402450"/>
<stop offset="0.657" stop-color="#4F2A5C"/>
<stop offset="1" stop-color="#5C2F67"/>
</linearGradient>
<clipPath id="clip0_14628_67717">
<rect width="179.074" height="129.353" fill="white"/>
</clipPath>
</defs>
</svg>
