<svg width="24" height="24" viewBox="0 0 24 24" fill="none" xmlns="http://www.w3.org/2000/svg">
<path d="M13.9095 20.2316H10.2731C10.0453 20.2316 9.82679 20.3222 9.66568 20.4833C9.50457 20.6444 9.41406 20.8629 9.41406 21.0907C9.41406 21.3186 9.50457 21.5371 9.66568 21.6982C9.82679 21.8593 10.0453 21.9498 10.2731 21.9498H13.9095C14.1374 21.9498 14.3559 21.8593 14.517 21.6982C14.6781 21.5371 14.7686 21.3186 14.7686 21.0907C14.7686 20.8629 14.6781 20.6444 14.517 20.4833C14.3559 20.3222 14.1374 20.2316 13.9095 20.2316Z" fill="white" stroke="white" stroke-width="0.1"/>
<path d="M3.55056 13.7282L3.55095 13.7276L4.86003 11.7549L4.86837 11.7424V11.7273V9.27273C4.86837 7.35714 5.62934 5.52001 6.98386 4.16549C8.33838 2.81096 10.1755 2.05 12.0911 2.05C14.0067 2.05 15.8438 2.81096 17.1983 4.16549C18.5529 5.52001 19.3138 7.35714 19.3138 9.27273V11.7273V11.7424L19.3223 11.7551L20.6404 13.7277L3.55056 13.7282ZM3.55056 13.7282C3.22139 14.2097 3.04685 14.7801 3.05019 15.3633V15.3636C3.05019 16.146 3.36099 16.8964 3.91422 17.4496C4.46746 18.0028 5.2178 18.3136 6.00019 18.3136H18.182H18.1821M3.55056 13.7282L18.1821 18.3136M18.1821 18.3136C18.7163 18.3143 19.2406 18.1698 19.6991 17.8957C20.1577 17.6217 20.5331 17.2282 20.7855 16.7574C21.0379 16.2866 21.1577 15.7561 21.1322 15.2225C21.1066 14.6889 20.9366 14.1723 20.6404 13.7278L18.1821 18.3136ZM6.00019 16.5955L5.9996 16.5954C5.77991 16.5928 5.56492 16.5315 5.3769 16.4179C5.18888 16.3042 5.03469 16.1423 4.9303 15.949C4.8259 15.7557 4.77511 15.538 4.78319 15.3184C4.79127 15.0989 4.85792 14.8855 4.97624 14.7003L4.97659 14.6998L6.44022 12.4725L6.44051 12.4721C6.53441 12.3324 6.58519 12.1682 6.58655 11.9998V9.27273C6.58655 7.81283 7.1665 6.41273 8.1988 5.38043C9.2311 4.34812 10.6312 3.76818 12.0911 3.76818C13.551 3.76818 14.9511 4.34812 15.9834 5.38043C17.0157 6.41273 17.5956 7.81283 17.5956 9.27273L17.5957 12L17.5956 12.0011C17.5918 12.1783 17.6428 12.3523 17.7417 12.4994L17.7418 12.4996L19.2052 14.6992C19.2053 14.6993 19.2053 14.6994 19.2054 14.6994C19.3381 14.8955 19.4105 15.1262 19.4138 15.3629V15.3636C19.4138 15.5254 19.382 15.6856 19.3201 15.835C19.2582 15.9845 19.1674 16.1203 19.053 16.2347C18.9386 16.349 18.8029 16.4398 18.6534 16.5017C18.504 16.5636 18.3438 16.5955 18.182 16.5955L6.00019 16.5955Z" fill="white" stroke="white" stroke-width="0.1"/>
</svg>
