<svg xmlns="http://www.w3.org/2000/svg" version="1.1" xmlns:xlink="http://www.w3.org/1999/xlink" xmlns:svgjs="http://svgjs.com/svgjs" width="512" height="512" x="0" y="0" viewBox="0 0 32 32" style="enable-background:new 0 0 512 512" xml:space="preserve" class=""><g transform="matrix(0.9700000000000002,0,0,0.9700000000000002,0.4799999999999969,0.4799999999999969)"><path d="M16 2a14 14 0 1 0 14 14A14 14 0 0 0 16 2zm0 26a12 12 0 1 1 12-12 12 12 0 0 1-12 12zm-4-12a2 2 0 1 1-2-2 2 2 0 0 1 2 2zm6 0a2 2 0 1 1-2-2 2 2 0 0 1 2 2zm6 0a2 2 0 1 1-2-2 2 2 0 0 1 2 2z" data-name="Layer 15" fill="#148AFF" data-original="#000000"></path></g></svg>