<svg width="100" height="100" viewBox="0 0 100 100" fill="none" xmlns="http://www.w3.org/2000/svg">
<g clip-path="url(#clip0_1988_42834)">
<path d="M24.9998 25.0013H54.9998V8.33464C54.9998 4.65299 52.0148 1.66797 48.3332 1.66797H43.3332V5.0013C43.3332 6.84212 41.8407 8.33464 39.9998 8.33464H16.6665C14.8257 8.33464 13.3332 6.84212 13.3332 5.0013V1.66797H8.33317C4.65153 1.66797 1.6665 4.65299 1.6665 8.33464V91.668C1.6665 95.3496 4.65153 98.3346 8.33317 98.3346H48.3332C52.0148 98.3346 54.9998 95.3496 54.9998 91.668V48.3346H24.9998V25.0013ZM28.3332 86.668C30.174 86.668 31.6665 88.1605 31.6665 90.0013C31.6665 91.8421 30.174 93.3346 28.3332 93.3346C26.4924 93.3346 24.9998 91.8421 24.9998 90.0013C24.9998 88.1605 26.4924 86.668 28.3332 86.668Z" fill="#FCF0E4"/>
<path d="M6.6665 80H49.9998V83.3333H6.6665V80Z" fill="#339ad5"/>
<path d="M28.3335 95C25.5723 95 23.3335 92.7612 23.3335 90C23.3335 87.2388 25.5723 85 28.3335 85C31.0947 85 33.3335 87.2388 33.3335 90C33.3335 92.7612 31.0947 95 28.3335 95ZM28.3335 88.3333C27.4131 88.3333 26.6668 89.0796 26.6668 90C26.6668 90.9204 27.4131 91.6667 28.3335 91.6667C29.2539 91.6667 30.0002 90.9204 30.0002 90C30.0002 89.0796 29.2539 88.3333 28.3335 88.3333Z" fill="#339ad5"/>
<path d="M53.3333 91.6667C53.3333 94.4279 51.0946 96.6667 48.3333 96.6667H8.33333C5.5721 96.6667 3.33333 94.4279 3.33333 91.6667V8.33333C3.33333 5.5721 5.5721 3.33333 8.33333 3.33333H11.6667V5C11.6667 7.76123 13.9054 10 16.6667 10H40C42.7612 10 45 7.76123 45 5V3.33333H48.3333C51.0946 3.33333 53.3333 5.5721 53.3333 8.33333V20H56.6667V8.33333C56.661 3.73291 52.9338 0.00569662 48.3333 0H8.33333C3.73291 0.00569662 0.00569663 3.73291 0 8.33333V91.6667C0.00569663 96.2671 3.73291 99.9943 8.33333 100H48.3333C52.9338 99.9943 56.661 96.2671 56.6667 91.6667V53.3333H53.3333V91.6667ZM15 3.33333H41.6667V5C41.6667 5.92041 40.9204 6.66667 40 6.66667H16.6667C15.7463 6.66667 15 5.92041 15 5V3.33333Z" fill="#339ad5"/>
<path d="M23.3335 23.332V49.9987H100V23.332H23.3335ZM96.6668 46.6654H26.6668V26.6654H96.6668V46.6654Z" fill="#339ad5"/>
<path d="M31.7267 41.4437L34.9998 39.5532V43.3333H38.3332V39.5532L41.6063 41.4437L43.2729 38.5563L39.9998 36.6667L43.2729 34.777L41.6063 31.8896L38.3332 33.7801V30H34.9998V33.7801L31.7267 31.8896L30.0601 34.777L33.3332 36.6667L30.0601 38.5563L31.7267 41.4437Z" fill="#339ad5"/>
<path d="M48.3937 41.4437L51.6668 39.5532V43.3333H55.0002V39.5532L58.2733 41.4437L59.9399 38.5563L56.6668 36.6667L59.9399 34.777L58.2733 31.8896L55.0002 33.7801V30H51.6668V33.7801L48.3937 31.8896L46.7271 34.777L50.0002 36.6667L46.7271 38.5563L48.3937 41.4437Z" fill="#339ad5"/>
<path d="M65.0602 41.4437L68.3333 39.5532V43.3333H71.6667V39.5532L74.9398 41.4437L76.6064 38.5563L73.3333 36.6667L76.6064 34.777L74.9398 31.8896L71.6667 33.7801V30H68.3333V33.7801L65.0602 31.8896L63.3936 34.777L66.6667 36.6667L63.3936 38.5563L65.0602 41.4437Z" fill="#339ad5"/>
<path d="M81.7267 41.4437L84.9998 39.5532V43.3333H88.3332V39.5532L91.6063 41.4437L93.2729 38.5563L89.9998 36.6667L93.2729 34.777L91.6063 31.8896L88.3332 33.7801V30H84.9998V33.7801L81.7267 31.8896L80.0601 34.777L83.3332 36.6667L80.0601 38.5563L81.7267 41.4437Z" fill="#339ad5"/>
</g>
<defs>
<clipPath id="clip0_1988_42834">
<rect width="100" height="100" fill="white"/>
</clipPath>
</defs>
</svg>
