<svg xmlns="http://www.w3.org/2000/svg" width="32" height="32" viewBox="0 0 32 32">
  <g id="Group_39992" data-name="Group 39992" transform="translate(-546 -1309)">
    <rect id="Rectangle_18312" data-name="Rectangle 18312" width="32" height="32" transform="translate(546 1309)" fill="#fff" opacity="0.002"/>
    <g id="tax" transform="translate(552.5 1313.001)">
      <path id="Path_42669" data-name="Path 42669" d="M12.674,6.695a1.193,1.193,0,0,0,.154-.3,1.167,1.167,0,0,1,.46.184,1.76,1.76,0,0,0,.94.3,1.824,1.824,0,0,0,.316-.029,1.68,1.68,0,0,0,1.088-.685.915.915,0,0,1,1.332-.235,1.68,1.68,0,0,0,1.257.271l-.139-.788a.915.915,0,0,1-.718-.176,1.7,1.7,0,0,0-2.345.413.916.916,0,0,1-.614.411.793.793,0,0,1-.349-.008,1.591,1.591,0,0,0,.64-.34,1.68,1.68,0,0,0,.6-1.138.914.914,0,0,1,.327-.663.9.9,0,0,1,.71-.206,1.645,1.645,0,0,0,1.224-.394L17.042,2.7a.955.955,0,0,1-.71.206,1.7,1.7,0,0,0-1.824,1.531.915.915,0,0,1-1.035.869,1.778,1.778,0,0,0-.736.1,1.2,1.2,0,0,0-.464-.454L14.06,1.378A.4.4,0,0,0,13.7.8a1.032,1.032,0,0,1-.749-.312,1.844,1.844,0,0,0-2.5,0A1.057,1.057,0,0,1,9.7.8a1.056,1.056,0,0,1-.75-.312,1.847,1.847,0,0,0-2.5,0A1.036,1.036,0,0,1,5.7.8a.4.4,0,0,0-.358.579L7.128,4.95a1.187,1.187,0,0,0-.4,1.744A8.407,8.407,0,0,0,.5,14.8V22a2,2,0,0,0,2,2H16.9a2,2,0,0,0,2-2V14.8A8.407,8.407,0,0,0,12.674,6.695ZM6.95,1.111a1.058,1.058,0,0,1,1.5,0,1.846,1.846,0,0,0,2.5,0,1.055,1.055,0,0,1,1.5,0A2.126,2.126,0,0,0,13.1,1.5L11.453,4.8H7.947L6.3,1.5A2.137,2.137,0,0,0,6.95,1.111ZM7.7,6.4a.4.4,0,1,1,0-.8h4a.4.4,0,1,1,0,.8ZM18.1,22a1.2,1.2,0,0,1-1.2,1.2H2.5A1.2,1.2,0,0,1,1.3,22V14.8A7.608,7.608,0,0,1,8.9,7.2h1.6a7.609,7.609,0,0,1,7.6,7.6Zm0,0" fill="#fff" stroke="#fff" stroke-width="0.2"/>
      <path id="Path_42670" data-name="Path 42670" d="M130.84,263.136l4.8-4.8.566.566-4.8,4.8Zm0,0" transform="translate(-123.823 -245.42)" fill="#fff" stroke="#fff" stroke-width="0.2"/>
      <path id="Path_42671" data-name="Path 42671" d="M193.7,320a1.2,1.2,0,1,0,1.2,1.2A1.2,1.2,0,0,0,193.7,320Zm0,1.6a.4.4,0,1,1,.4-.4A.4.4,0,0,1,193.7,321.6Zm0,0" transform="translate(-182.4 -303.997)" fill="#fff" stroke="#fff" stroke-width="0.2"/>
      <path id="Path_42672" data-name="Path 42672" d="M129.7,258.4a1.2,1.2,0,1,0-1.2-1.2A1.2,1.2,0,0,0,129.7,258.4Zm0-1.6a.4.4,0,1,1-.4.4A.4.4,0,0,1,129.7,256.8Zm0,0" transform="translate(-121.6 -243.197)" fill="#fff" stroke="#fff" stroke-width="0.2"/>
      <path id="Path_42673" data-name="Path 42673" d="M78.1,200a5.6,5.6,0,1,0,5.6,5.6A5.6,5.6,0,0,0,78.1,200Zm0,10.4a4.8,4.8,0,1,1,4.8-4.8A4.8,4.8,0,0,1,78.1,210.4Zm0,0" transform="translate(-68.4 -189.997)" fill="#fff" stroke="#fff" stroke-width="0.2"/>
    </g>
  </g>
</svg>
