<svg width="24" height="24" viewBox="0 0 24 24" fill="none" xmlns="http://www.w3.org/2000/svg">
<g clip-path="url(#clip0_2075_13936)">
<path d="M15.5628 15.4381C15.9082 15.4381 16.1881 15.1582 16.1881 14.8128C16.1881 14.4675 15.9082 14.1875 15.5628 14.1875C15.2175 14.1875 14.9375 14.4675 14.9375 14.8128C14.9375 15.1582 15.2175 15.4381 15.5628 15.4381Z" fill="#6A6A6A"/>
<path d="M18.3781 15.3125C18.5439 15.3125 18.703 15.2467 18.8203 15.1294C18.9375 15.0121 19.0034 14.8531 19.0034 14.6872V12.3754C19.0018 11.7126 18.7374 11.0774 18.2681 10.6093C17.7988 10.1411 17.163 9.8782 16.5001 9.87821H15.7491V7.67082C15.7491 6.67628 15.354 5.72247 14.6508 5.01922C13.9475 4.31598 12.9937 3.9209 11.9992 3.9209C11.0046 3.9209 10.0508 4.31598 9.34758 5.01922C8.64433 5.72247 8.24926 6.67628 8.24926 7.67082V9.87821H7.50028C6.83794 9.87901 6.20291 10.1423 5.73428 10.6103C5.26564 11.0784 5.00161 11.7131 5 12.3754V17.4997C5.0008 18.1625 5.26449 18.798 5.73321 19.2667C6.20193 19.7355 6.83741 19.9991 7.50028 20H16.5001C17.163 19.9991 17.7985 19.7355 18.2672 19.2667C18.7359 18.798 18.9996 18.1625 19.0004 17.4997C19.0038 17.4155 18.9901 17.3315 18.9602 17.2527C18.9304 17.174 18.8849 17.1021 18.8265 17.0413C18.7682 16.9806 18.6982 16.9322 18.6207 16.8992C18.5432 16.8662 18.4598 16.8492 18.3756 16.8492C18.2913 16.8492 18.208 16.8662 18.1305 16.8992C18.053 16.9322 17.9829 16.9806 17.9246 17.0413C17.8662 17.1021 17.8207 17.174 17.7909 17.2527C17.761 17.3315 17.7474 17.4155 17.7507 17.4997C17.7502 17.8309 17.6184 18.1485 17.3841 18.3827C17.1499 18.6169 16.8324 18.7488 16.5011 18.7493H7.5013C7.17004 18.7488 6.8525 18.6169 6.61826 18.3827C6.38403 18.1485 6.2522 17.8309 6.25166 17.4997V12.3754C6.25193 12.0442 6.3835 11.7265 6.61755 11.4921C6.8516 11.2577 7.16903 11.1256 7.50028 11.1248H16.5001C16.8315 11.1253 17.1492 11.2573 17.3835 11.4918C17.6178 11.7262 17.7495 12.044 17.7497 12.3754V14.6882C17.7499 14.7705 17.7662 14.852 17.7979 14.9279C17.8296 15.0039 17.8759 15.0728 17.9343 15.1308C17.9927 15.1888 18.0619 15.2347 18.1381 15.2659C18.2142 15.2971 18.2958 15.313 18.3781 15.3125ZM14.4984 9.87821H9.49889V7.67082C9.52149 7.02293 9.79476 6.40911 10.2611 5.95876C10.7274 5.50842 11.3504 5.25671 11.9987 5.25671C12.647 5.25671 13.2699 5.50842 13.7363 5.95876C14.2026 6.40911 14.4759 7.02293 14.4984 7.67082V9.87821Z" fill="#6A6A6A"/>
<path d="M10.8441 15.4381C11.1894 15.4381 11.4694 15.1582 11.4694 14.8128C11.4694 14.4675 11.1894 14.1875 10.8441 14.1875C10.4987 14.1875 10.2188 14.4675 10.2188 14.8128C10.2188 15.1582 10.4987 15.4381 10.8441 15.4381Z" fill="#6A6A6A"/>
<path d="M8.50032 15.4381C8.84568 15.4381 9.12565 15.1582 9.12565 14.8128C9.12565 14.4675 8.84568 14.1875 8.50032 14.1875C8.15497 14.1875 7.875 14.4675 7.875 14.8128C7.875 15.1582 8.15497 15.4381 8.50032 15.4381Z" fill="#6A6A6A"/>
<path d="M13.1878 15.4381C13.5332 15.4381 13.8131 15.1582 13.8131 14.8128C13.8131 14.4675 13.5332 14.1875 13.1878 14.1875C12.8425 14.1875 12.5625 14.4675 12.5625 14.8128C12.5625 15.1582 12.8425 15.4381 13.1878 15.4381Z" fill="#6A6A6A"/>
</g>
<defs>
<clipPath id="clip0_2075_13936">
<rect width="14.0004" height="16" fill="white" transform="translate(5 4)"/>
</clipPath>
</defs>
</svg>
