<?xml version="1.0" encoding="utf-8"?>
<!-- Generator: Adobe Illustrator 23.0.1, SVG Export Plug-In . SVG Version: 6.00 Build 0)  -->
<svg version="1.1" id="Layer_1" xmlns="http://www.w3.org/2000/svg" xmlns:xlink="http://www.w3.org/1999/xlink" x="0px" y="0px"
	 viewBox="0 0 32 32" style="enable-background:new 0 0 32 32;" xml:space="preserve">
<style type="text/css">
	.st0{fill:#FFFFFF;fill-opacity:0;}
	.st1{fill:#339ad5;stroke:#339ad5;stroke-width:0.5;}
	.st2{fill:#339ad5;stroke:#339ad5;stroke-width:0.1;}
</style>
<g id="Group_40205" transform="translate(-45 -406)">
	<rect id="Rectangle_18707" x="45" y="406" class="st0" width="32" height="32"/>
	<g id="noun_pay_bill_3011833" transform="translate(48.969 406)">
		<g id="Group_40223" transform="translate(2.031 2)">
			<g id="Group_40222">
				<g id="Group_40218" transform="translate(0 3.135)">
					<g id="Group_40217" transform="translate(2.152 2.703)">
						<g id="Group_40211">
							<g id="Group_40207">
								<path id="Path_44087" class="st1" d="M0.3,7c-1.4,0-2.5-1.1-2.4-2.5c0-1.2,1.7-3.2,2.1-3.6c0.2-0.2,0.5-0.2,0.7,0
									c0,0,0,0,0,0C1,1.3,2.7,3.2,2.7,4.5C2.8,5.8,1.7,6.9,0.3,7z M0.3,1.9c-0.7,0.7-1.2,1.6-1.5,2.6C-1.2,5.3-0.6,6,0.2,6
									c0.8,0,1.5-0.6,1.6-1.4c0-0.1,0-0.1,0-0.2C1.5,3.5,1,2.6,0.3,1.9z"/>
							</g>
							<g id="Group_40210" transform="translate(6.151 2.455)">
								<g id="Group_40208">
									<path id="Path_44088" class="st1" d="M5.7,1.9H-1c-0.3,0-0.5-0.2-0.5-0.5C-1.5,1.2-1.3,1-1,1h6.8C6,1,6.2,1.2,6.2,1.5
										C6.2,1.7,6,1.9,5.7,1.9z"/>
								</g>
								<g id="Group_40209" transform="translate(0 1.891)">
									<path id="Path_44089" class="st1" d="M3.7,2.1H-1c-0.3,0-0.5-0.2-0.5-0.5c0-0.3,0.2-0.5,0.5-0.5h4.7c0.3,0,0.5,0.2,0.5,0.5
										C4.1,1.9,3.9,2.1,3.7,2.1z"/>
								</g>
							</g>
						</g>
						<g id="Group_40216" transform="translate(0.378 7.732)">
							<g id="Group_40212">
								<path id="Path_44090" class="st1" d="M-1.4,7.6c-0.3,0-0.5-0.2-0.5-0.5c0-0.1,0-0.2,0.1-0.3l1.4-2h-1.3
									c-0.3,0-0.5-0.2-0.5-0.5c0-0.1,0-0.2,0.1-0.3l1.9-2.4c0.2-0.2,0.5-0.2,0.7-0.1c0.2,0.2,0.2,0.5,0.1,0.7l0,0l-1.3,1.6h1.2
									C0.8,3.9,1,4.1,1,4.4C1,4.5,1,4.6,1,4.6L-1,7.4C-1.1,7.5-1.2,7.6-1.4,7.6z"/>
							</g>
							<g id="Group_40215" transform="translate(5.328 1.898)">
								<g id="Group_40213">
									<path id="Path_44091" class="st1" d="M6.1,2.7h-7.2c-0.3,0-0.5-0.2-0.5-0.5c0-0.3,0.2-0.5,0.5-0.5h7.2
										c0.3,0,0.5,0.2,0.5,0.5C6.6,2.5,6.4,2.7,6.1,2.7L6.1,2.7z"/>
								</g>
								<g id="Group_40214" transform="translate(0 2.022)">
									<path id="Path_44092" class="st1" d="M3.9,2.9h-5c-0.3,0-0.5-0.2-0.5-0.5C-1.5,2.2-1.3,2-1.1,2h5c0.3,0,0.5,0.2,0.5,0.5
										C4.4,2.7,4.2,2.9,3.9,2.9L3.9,2.9z"/>
								</g>
							</g>
						</g>
					</g>
					<path id="Path_44093" class="st1" d="M19.8,20.4c-0.5-0.6-1.3-0.5-2-0.5l0-13.1c0-0.3-0.2-0.5-0.5-0.5l0,0
						c-0.3,0-0.5,0.2-0.5,0.5v0l0,13.1l-12.3,0c-0.3,0-0.5,0.2-0.5,0.5c0,0,0,0,0,0c0.1,1.9-0.1,3.2-0.7,3.8c-0.6,0.5-1.3,0.7-2,0.6
						c-1.6,0-2.9-1.3-2.8-2.9v-20c0-0.2,0.2-0.4,0.4-0.4c4.2,0,12.2,0,12.5,0C11.8,1.4,12,1.2,12,1c0,0,0,0,0,0c0-0.5-0.3-0.5-1-0.5
						H9.6l-4.3,0l-6.3,0c-0.7,0-1.4,0.6-1.4,1.3v20c0,2.1,1.7,3.8,3.8,3.9c0.4,0,14.3,0.1,14.4,0.1l0,0c2.4-0.1,4-1.6,4.3-4.2
						C20.2,21.1,20,20.7,19.8,20.4L19.8,20.4z M19.2,21.4c-0.2,1.5-1,3.4-3.4,3.4c-2.7,0-8.4,0-11.6,0c0.7-0.8,1-2,0.9-4l13,0
						C18.5,20.8,19.3,20.7,19.2,21.4C19,22.9,19.2,21.2,19.2,21.4L19.2,21.4z"/>
				</g>
				<g id="Group_40221" transform="translate(14.292 -1.21)">
					<g id="Group_40219">
						<path id="Path_44094" class="st1" d="M3.7,9.3c-2.6,0-4.7-2-4.7-4.6C-1,2.1,1.1,0,3.6,0c2.6,0,4.7,2,4.7,4.6c0,0,0,0,0,0.1
							C8.3,7.2,6.3,9.2,3.7,9.3z M3.7,1.1c-2,0-3.6,1.5-3.6,3.5c0,2,1.5,3.6,3.5,3.6c2,0,3.6-1.5,3.6-3.5c0,0,0,0,0-0.1
							C7.2,2.7,5.7,1.1,3.7,1.1L3.7,1.1z"/>
					</g>
				</g>
				<path id="Union_45" class="st2" d="M18.3,5.4c0,0,0,0-0.2-0.1l-0.2-0.3l-1-1.3l0,0V3.4h0.2c0.4,0,0.7-0.2,0.8-0.5v0h-1
					c-0.1,0-0.1,0-0.1-0.1c0,0,0,0,0,0V2.6c0-0.1,0.1-0.1,0.1-0.1h0.9c0-0.1-0.1-0.1-0.1-0.2c-0.1-0.1-0.3-0.1-0.4-0.1H17
					c-0.1,0-0.1,0-0.1-0.1c0,0,0,0,0,0V1.9c0-0.1,0.1-0.1,0.1-0.1h2.1c0.1,0,0.1,0.1,0.1,0.1v0.2c0,0.1,0,0.1-0.1,0.1h-0.6
					c0.1,0.1,0.1,0.2,0.1,0.3v0h0.5c0.1,0,0.1,0.1,0.1,0.1v0.2c0,0.1,0,0.1-0.1,0.1c0,0,0,0,0,0h-0.4c-0.1,0.3-0.2,0.5-0.4,0.7l0,0
					c-0.1,0.1-0.3,0.2-0.4,0.2l1.1,1.4v0.1H18.3z"/>
			</g>
		</g>
	</g>
</g>
</svg>
