<?xml version="1.0"?>
<svg xmlns="http://www.w3.org/2000/svg" xmlns:xlink="http://www.w3.org/1999/xlink" xmlns:svgjs="http://svgjs.com/svgjs" version="1.1" width="512" height="512" x="0" y="0" viewBox="0 0 99.33 79.26" style="enable-background:new 0 0 512 512" xml:space="preserve" class=""><g><g xmlns="http://www.w3.org/2000/svg" id="Layer_2" data-name="Layer 2"><g id="Layer_1-2" data-name="Layer 1"><g id="wallpaper_thin_line_minimal_icon" fill="rgb(0,0,0)" data-name="wallpaper thin line minimal icon"><path d="m89.8 79.26h-80.27a9.54 9.54 0 0 1 -9.53-9.53v-60.2a9.53 9.53 0 0 1 9.53-9.53h80.27a9.54 9.54 0 0 1 9.53 9.53v60.2a9.55 9.55 0 0 1 -9.53 9.53zm-80.27-76.26a6.54 6.54 0 0 0 -6.53 6.53v60.2a6.54 6.54 0 0 0 6.53 6.53h80.27a6.54 6.54 0 0 0 6.53-6.53v-60.2a6.54 6.54 0 0 0 -6.53-6.53z" fill="#6c6c6c" data-original="#000000" class=""/><path d="m69.81 68.44a1.48 1.48 0 0 1 -1.11-.44l-34.29-37.45-31.67 30a1.5 1.5 0 0 1 -2.06-2.17l32.78-31.06a1.55 1.55 0 0 1 1.08-.41 1.51 1.51 0 0 1 1.06.49l35.32 38.53a1.51 1.51 0 0 1 -1.11 2.51z" fill="#6c6c6c" data-original="#000000" class=""/><path d="m97.83 67.62a1.52 1.52 0 0 1 -1.08-.45l-20.49-21-12.72 13.75a1.5 1.5 0 0 1 -2.2-2l13.79-14.98a1.52 1.52 0 0 1 2.18 0l21.59 22.14a1.51 1.51 0 0 1 -1.07 2.54z" fill="#6c6c6c" data-original="#000000" class=""/><path d="m63.39 33.12a7.93 7.93 0 0 1 -7.92-7.92c.43-10.51 15.41-10.51 15.84 0a7.93 7.93 0 0 1 -7.92 7.92zm0-12.84c-6.51.2-6.51 9.63 0 9.84 6.5-.21 6.5-9.64 0-9.84z" fill="#6c6c6c" data-original="#000000" class=""/></g></g></g></g></svg>
