<svg xmlns="http://www.w3.org/2000/svg" version="1.1" xmlns:xlink="http://www.w3.org/1999/xlink" xmlns:svgjs="http://svgjs.com/svgjs" width="512" height="512" x="0" y="0" viewBox="0 0 426.667 426.667" style="enable-background:new 0 0 512 512" xml:space="preserve"><g transform="matrix(0.8500000000000005,0,0,0.8500000000000005,32.0000999450682,32.0000999450682)"><g fill="#4caf50"><path d="M405.332 234.668h-384C9.559 234.668 0 225.109 0 213.332 0 201.559 9.559 192 21.332 192h384c11.777 0 21.336 9.559 21.336 21.332 0 11.777-9.559 21.336-21.336 21.336zm0 0" fill="#148AFF" data-original="#4caf50"></path><path d="M213.332 426.668c-11.773 0-21.332-9.559-21.332-21.336v-384C192 9.559 201.559 0 213.332 0c11.777 0 21.336 9.559 21.336 21.332v384c0 11.777-9.559 21.336-21.336 21.336zm0 0" fill="#148AFF" data-original="#4caf50"></path></g></g></svg>