<svg width="28" height="28" viewBox="0 0 28 28" fill="none" xmlns="http://www.w3.org/2000/svg">
<path d="M21.5312 14.812V4.18638C21.5312 4.09588 21.5133 4.00627 21.4785 3.92271C21.4438 3.83914 21.3928 3.76328 21.3286 3.69949C21.2644 3.6357 21.1882 3.58523 21.1045 3.551C21.0207 3.51676 20.931 3.49944 20.8405 3.50001H2.45535C2.27331 3.50001 2.09873 3.57233 1.97001 3.70105C1.84129 3.82977 1.76898 4.00435 1.76898 4.18638V15.6584C1.40722 15.7101 1.06571 15.857 0.77947 16.0842C0.493232 16.3114 0.272568 16.6106 0.140109 16.9512C0.00764939 17.2918 -0.0318388 17.6614 0.025694 18.0223C0.0832267 18.3832 0.23571 18.7223 0.467506 19.0048L3.55947 22.7524C5.47275 24.9924 7.50665 25.2665 10.5284 25.2665C12.5462 25.3694 14.5687 25.2001 16.5413 24.7633L18.7419 24.237C18.9175 24.4885 19.1508 24.6943 19.4222 24.8372C19.6936 24.98 19.9954 25.0558 20.3021 25.0582H21.3887C21.9204 25.0436 22.4246 24.8187 22.7909 24.433C23.1571 24.0472 23.3555 23.532 23.3425 23.0002V16.8601C23.3524 16.3538 23.1716 15.8623 22.8362 15.4829C22.5007 15.1036 22.0349 14.8641 21.5312 14.812ZM18.4458 16.2242L17.5314 15.7593C16.7945 15.3849 15.982 15.1834 15.1555 15.1701C14.3291 15.1568 13.5104 15.3321 12.7619 15.6826C12.2004 16.0015 11.5948 16.2357 10.9648 16.3777H7.79282C7.28673 16.3783 6.80153 16.5796 6.44366 16.9374C6.0858 17.2953 5.8845 17.7805 5.88392 18.2866V18.7877L5.86637 18.769L3.59784 16.3042C3.46423 16.1587 3.31066 16.0328 3.14172 15.9303V9.12585H8.75878V11.6422C8.75878 11.8242 8.8311 11.9988 8.95982 12.1275C9.08854 12.2562 9.26312 12.3285 9.44515 12.3285H13.7761C13.9581 12.3285 14.1327 12.2562 14.2614 12.1275C14.3901 11.9988 14.4625 11.8242 14.4625 11.6422V9.12585H20.1639V14.812C19.769 14.8481 19.3941 15.0021 19.0878 15.2539C18.7814 15.5057 18.5578 15.8438 18.4458 16.2242ZM10.1315 9.12585H13.0919V10.9558H10.1315V9.12585ZM20.1585 7.75201H14.4625V4.87276H20.1639V7.75201H20.1585ZM13.0897 4.87166V7.75201H10.1293V4.87276L13.0897 4.87166ZM8.75878 4.87166V7.75201H3.14172V4.87276L8.75878 4.87166ZM16.2233 23.4311C14.3616 23.8308 12.4555 23.9852 10.5537 23.8905C7.71607 23.8905 6.34552 23.8445 4.61972 21.8829L1.52776 18.1353C1.41855 17.9934 1.36839 17.8149 1.38774 17.6369C1.4071 17.4589 1.49448 17.2953 1.63162 17.1802C1.76877 17.0651 1.94508 17.0075 2.12371 17.0194C2.30235 17.0313 2.46949 17.1117 2.59021 17.2439L4.85546 19.7032C5.14655 20.0178 5.49943 20.2691 5.89203 20.4411C6.28463 20.6132 6.7085 20.7024 7.13715 20.7032H13.4197C13.6018 20.7032 13.7764 20.6308 13.9051 20.5021C14.0338 20.3734 14.1061 20.1988 14.1061 20.0168C14.1061 19.8347 14.0338 19.6602 13.9051 19.5314C13.7764 19.4027 13.6018 19.3304 13.4197 19.3304H7.25556V18.291C7.25585 18.1489 7.31243 18.0127 7.41292 17.9122C7.51341 17.8117 7.64961 17.7551 7.79172 17.7548H10.9648C11.8042 17.6432 12.6124 17.3632 13.3408 16.9314C13.9013 16.6689 14.5142 16.5376 15.1329 16.5475C15.7517 16.5574 16.3601 16.7082 16.9119 16.9884L18.3493 17.7186V22.9234L16.2233 23.4311ZM21.9687 23.0035C21.9812 23.1711 21.9272 23.3369 21.8185 23.4652C21.7098 23.5934 21.555 23.6737 21.3876 23.6888H20.3032C20.1358 23.6737 19.981 23.5934 19.8723 23.4652C19.7635 23.3369 19.7096 23.1711 19.7221 23.0035V16.8634C19.7096 16.6958 19.7635 16.53 19.8723 16.4017C19.981 16.2735 20.1358 16.1932 20.3032 16.1781H21.3887C21.5561 16.1932 21.7109 16.2735 21.8196 16.4017C21.9283 16.53 21.9823 16.6958 21.9698 16.8634L21.9687 23.0035Z" fill="#148AFF"/>
</svg>
