<svg xmlns="http://www.w3.org/2000/svg" width="36.377" height="36.377" viewBox="0 0 36.377 36.377"><defs><style>.a,.b{fill:#fff;}.a{opacity:0.129;}.b{fill-rule:evenodd;}</style></defs><g transform="translate(0 0)"><rect class="a" width="28.134" height="29.26" transform="translate(7.209 6.943)"/><path class="b" d="M14.5,24.938a1.066,1.066,0,1,1,0-2.131h.924a1.066,1.066,0,1,1,0,2.131Zm.782-14.21a1.066,1.066,0,1,1-2.131,0V9.8a1.066,1.066,0,0,1,2.131,0Zm6.536,11.936a1.066,1.066,0,0,1,0-2.131h.924a1.066,1.066,0,1,1,0,2.131ZM-.167,15.773H4.792a1.054,1.054,0,0,0-.021.213v3.2a1.066,1.066,0,1,0,2.131,0v-3.2a1.054,1.054,0,0,0-.021-.213h9.4v1.208H10.668a1.066,1.066,0,1,0,0,2.131h6.679a1.066,1.066,0,0,0,1.066-1.066V15.773h3.979V18.9a1.066,1.066,0,0,0,2.131,0V15.773h7.353a1.066,1.066,0,0,0,0-2.131H27.009v-2.06h1.066a1.066,1.066,0,0,0,0-2.131H22.746a1.066,1.066,0,1,0,0,2.131h2.131v2.06H18.412V10.87a1.066,1.066,0,1,0-2.131,0v2.771H-.167a1.066,1.066,0,0,0-1.066,1.066A1.066,1.066,0,0,0-.167,15.773ZM18.27,2.7a1.066,1.066,0,0,1,2.131,0V8.313a1.066,1.066,0,1,1-2.131,0Zm-6.323.426h2.416V2.7a1.066,1.066,0,0,1,2.131,0V6.252a1.066,1.066,0,0,1-2.131,0V5.258H11.946v.5a1.066,1.066,0,1,1-2.131,0V2.7a1.066,1.066,0,0,1,2.131,0ZM3.42,11.51a1.066,1.066,0,0,1,0-2.131h7.887a1.066,1.066,0,0,1,0,2.131ZM26.653,25.648v1.066a1.066,1.066,0,0,0,2.131,0V20.32a1.066,1.066,0,1,0-2.131,0v3.2H23.1a1.066,1.066,0,1,0,0,2.131ZM15.783,27.78h3.2a1.066,1.066,0,0,0,1.066-1.066V21.243a1.066,1.066,0,0,0-2.131,0v4.4H15.783a1.066,1.066,0,1,0,0,2.131Zm-5.9-6.465a1.066,1.066,0,0,1,2.131,0v3.126a1.066,1.066,0,0,1-2.131,0Zm-6.465-.142H7.9a1.066,1.066,0,0,1,1.066,1.066v4.476A1.066,1.066,0,0,1,7.9,27.78H3.421a1.066,1.066,0,0,1-1.066-1.066V22.238a1.066,1.066,0,0,1,1.066-1.066ZM6.831,23.3H4.486v2.345H6.831Zm16.98-21.67h4.476A1.066,1.066,0,0,1,29.353,2.7V7.176a1.066,1.066,0,0,1-1.066,1.066H23.812a1.066,1.066,0,0,1-1.066-1.066V2.7A1.066,1.066,0,0,1,23.812,1.634Zm3.41,2.131H24.877V6.11h2.345ZM3.421,1.634A1.066,1.066,0,0,0,2.355,2.7V7.176A1.066,1.066,0,0,0,3.421,8.242H7.9A1.066,1.066,0,0,0,8.962,7.176V2.7A1.066,1.066,0,0,0,7.9,1.634Zm3.41,2.131V6.11H4.486V3.766Z" transform="translate(2.334 3.481)"/><path class="b" d="M.112,3.522A1.066,1.066,0,0,1-.954,4.588,1.066,1.066,0,0,1-2.02,3.522V-.954A1.066,1.066,0,0,1-.954-2.02H3.522A1.066,1.066,0,0,1,4.588-.954,1.066,1.066,0,0,1,3.522.112H.112ZM32.226,28.815a1.066,1.066,0,1,1,2.131,0v4.476a1.066,1.066,0,0,1-1.066,1.066H28.815a1.066,1.066,0,0,1,0-2.131h3.41Zm-34.245,0v4.476A1.066,1.066,0,0,0-.954,34.357H3.522a1.066,1.066,0,0,0,0-2.131H.112v-3.41A1.066,1.066,0,0,0-.954,27.749,1.066,1.066,0,0,0-2.02,28.815ZM34.357,3.522V-.954A1.066,1.066,0,0,0,33.291-2.02H28.815A1.066,1.066,0,0,0,27.75-.954,1.066,1.066,0,0,0,28.815.112h3.41v3.41a1.066,1.066,0,0,0,2.131,0Zm0,0" transform="translate(2.02 2.02)"/></g></svg>