<svg xmlns="http://www.w3.org/2000/svg" width="38" height="38" viewBox="0 0 38 38">
  <g id="quick-pay" transform="translate(643 1997.798)">
    <g id="base" transform="translate(-643 -1998)" opacity="0">
      <rect id="Rectangle_982" data-name="Rectangle 982" width="38" height="38" transform="translate(0 0.202)" fill="#148AFF"/>
      <rect id="Rectangle_983" data-name="Rectangle 983" width="32" height="32" transform="translate(3 3.202)" fill="#148AFF"/>
    </g>
    <g id="send" transform="translate(-641.321 -1989.36)">
      <path id="Path_46001" data-name="Path 46001" d="M427,236.739l-.844-4.647a.512.512,0,1,0-1.007.183l.845,4.648a1.706,1.706,0,0,1-1.371,1.985l-3.293.617a.512.512,0,0,0,.094,1.014c.031,0,3.386-.625,3.386-.625A2.729,2.729,0,0,0,427,236.739Z" transform="translate(-392.205 -222.747)" fill="#148AFF"/>
      <path id="Path_46001_-_Outline" data-name="Path 46001 - Outline" d="M421.427,240.739a.712.712,0,0,1-.13-1.411l3.293-.617a1.506,1.506,0,0,0,1.211-1.752l-.845-4.648a.712.712,0,1,1,1.4-.254l.844,4.647a2.929,2.929,0,0,1-2.352,3.407C421.476,240.739,421.451,240.739,421.427,240.739Zm4.23-8.867a.312.312,0,0,0-.307.367l.845,4.648a1.906,1.906,0,0,1-1.532,2.218l-3.292.617a.312.312,0,0,0,.044.618c.189-.031,2.093-.385,3.362-.622a2.529,2.529,0,0,0,2.031-2.942l-.845-4.647A.311.311,0,0,0,425.657,231.872Z" transform="translate(-392.205 -222.747)" fill="#148AFF"/>
      <path id="Path_46002" data-name="Path 46002" d="M126.792,118.046l-11.337,2.08a1.708,1.708,0,0,1-1.986-1.369l-1.718-9.36a1.707,1.707,0,0,1,1.369-1.986l17.045-3.128a1.706,1.706,0,0,1,1.985,1.369l.435,2.372a.512.512,0,1,0,1.006-.185l-.435-2.372a2.729,2.729,0,0,0-3.176-2.191l-.048.009-.077-.422a2.471,2.471,0,0,0-2.877-1.984l-17.551,3.22a2.474,2.474,0,0,0-1.984,2.877l1.81,9.867a2.47,2.47,0,0,0,2.877,1.984l.3-.055.031.169a2.727,2.727,0,0,0,3.177,2.191l11.337-2.08a.512.512,0,0,0-.185-1.006Zm-14.846-.224a1.45,1.45,0,0,1-1.686-1.163l-1.81-9.867a1.45,1.45,0,0,1,1.163-1.686l17.551-3.22a1.448,1.448,0,0,1,1.686,1.163l.077.422-15.99,2.934a2.732,2.732,0,0,0-2.191,3.177l1.5,8.185Z" transform="translate(-100.077 -100.838)" fill="#148AFF"/>
      <path id="Path_46002_-_Outline" data-name="Path 46002 - Outline" d="M115.145,121.378a2.927,2.927,0,0,1-2.874-2.372l-.1.019a2.67,2.67,0,0,1-3.11-2.145l-1.81-9.867a2.674,2.674,0,0,1,2.145-3.11l17.551-3.22a2.709,2.709,0,0,1,.487-.045,2.672,2.672,0,0,1,2.622,2.19l.042.229a2.954,2.954,0,0,1,.385-.025,2.931,2.931,0,0,1,2.875,2.4l.435,2.372a.712.712,0,1,1-1.4.257l-.435-2.372a1.507,1.507,0,0,0-1.477-1.234,1.527,1.527,0,0,0-.275.025l-17.045,3.128a1.507,1.507,0,0,0-1.209,1.753l1.718,9.36a1.5,1.5,0,0,0,1.753,1.209l11.337-2.08a.712.712,0,0,1,.257,1.4l-11.337,2.08A2.944,2.944,0,0,1,115.145,121.378Zm-2.553-2.838.067.366a2.527,2.527,0,0,0,2.944,2.031l11.337-2.08a.312.312,0,1,0-.112-.613l-11.337,2.08a1.9,1.9,0,0,1-2.218-1.53l-1.718-9.36a1.907,1.907,0,0,1,1.53-2.218l17.045-3.128a1.928,1.928,0,0,1,.347-.032,1.907,1.907,0,0,1,1.87,1.562l.435,2.372a.311.311,0,0,0,.306.255.318.318,0,0,0,.057-.005.312.312,0,0,0,.25-.363l-.435-2.372a2.531,2.531,0,0,0-2.481-2.073,2.566,2.566,0,0,0-.462.042l-.245.045-.114-.618a2.272,2.272,0,0,0-2.229-1.862,2.307,2.307,0,0,0-.415.038l-17.551,3.22a2.274,2.274,0,0,0-1.824,2.644l1.81,9.867a2.27,2.27,0,0,0,2.644,1.824Zm-.909-.494a1.647,1.647,0,0,1-1.62-1.351l-1.81-9.867a1.65,1.65,0,0,1,1.323-1.919l17.551-3.22a1.669,1.669,0,0,1,.3-.028,1.649,1.649,0,0,1,1.618,1.351l.114.618L112.972,106.6a2.532,2.532,0,0,0-2.031,2.944l1.538,8.382-.5.091A1.657,1.657,0,0,1,111.684,118.045Zm15.744-15.984a1.268,1.268,0,0,0-.229.021l-17.551,3.22a1.25,1.25,0,0,0-1,1.453l1.81,9.867a1.247,1.247,0,0,0,1.453,1l.1-.019-1.466-7.988a2.932,2.932,0,0,1,2.352-3.409l15.793-2.9-.041-.225a1.249,1.249,0,0,0-1.224-1.023Z" transform="translate(-100.077 -100.838)" fill="#148AFF"/>
      <path id="Path_46003" data-name="Path 46003" d="M267.014,205.727a4.521,4.521,0,1,0,4.521-4.521A4.526,4.526,0,0,0,267.014,205.727Zm8.018,0a3.5,3.5,0,1,1-3.5-3.5A3.5,3.5,0,0,1,275.032,205.727Z" transform="translate(-248.801 -194.36)" fill="#148AFF"/>
      <path id="Path_46003_-_Outline" data-name="Path 46003 - Outline" d="M271.535,210.447a4.721,4.721,0,1,1,4.721-4.721A4.726,4.726,0,0,1,271.535,210.447Zm0-9.041a4.321,4.321,0,1,0,4.32,4.321A4.325,4.325,0,0,0,271.535,201.406Zm0,8.018a3.7,3.7,0,1,1,3.7-3.7A3.7,3.7,0,0,1,271.535,209.424Zm0-6.995a3.3,3.3,0,1,0,3.3,3.3A3.3,3.3,0,0,0,271.535,202.429Z" transform="translate(-248.801 -194.36)" fill="#148AFF"/>
      <path id="Path_46004" data-name="Path 46004" d="M.633,290.724l3.085-.754a.512.512,0,0,0-.243-.994L.39,289.73a.512.512,0,1,0,.243.994Z" transform="translate(0 -276.129)" fill="#148AFF"/>
      <path id="Path_46004_-_Outline" data-name="Path 46004 - Outline" d="M.511,290.939a.712.712,0,0,1-.169-1.4l3.085-.754a.712.712,0,0,1,.338,1.383l-3.085.754A.714.714,0,0,1,.511,290.939ZM3.6,289.161a.315.315,0,0,0-.074.009l-3.085.754a.312.312,0,1,0,.148.605l3.085-.754a.312.312,0,0,0-.074-.614Z" transform="translate(0 -276.129)" fill="#148AFF"/>
      <path id="Path_46005" data-name="Path 46005" d="M62.1,369.716l-3.085.754a.512.512,0,0,0,.121,1.009.518.518,0,0,0,.122-.015l3.085-.754a.512.512,0,0,0-.243-.994Z" transform="translate(-54.629 -351.362)" fill="#148AFF"/>
      <path id="Path_46005_-_Outline" data-name="Path 46005 - Outline" d="M62.225,369.5a.712.712,0,0,1,.169,1.4l-3.085.754a.72.72,0,0,1-.169.02.712.712,0,0,1-.169-1.4l3.085-.754A.716.716,0,0,1,62.225,369.5Zm-3.085,1.777a.319.319,0,0,0,.075-.009l3.085-.754a.312.312,0,1,0-.148-.605l-3.085.754a.312.312,0,0,0,.074.614Z" transform="translate(-54.629 -351.362)" fill="#148AFF"/>
      <path id="Path_46006" data-name="Path 46006" d="M17.244,324.152l-4.8,1.234a.512.512,0,1,0,.255.991l4.8-1.234a.512.512,0,0,0-.255-.991Z" transform="translate(-11.238 -308.905)" fill="#148AFF"/>
      <path id="Path_46006_-_Outline" data-name="Path 46006 - Outline" d="M17.372,323.936a.712.712,0,0,1,.177,1.4l-4.8,1.234a.712.712,0,0,1-.354-1.378l4.8-1.234A.713.713,0,0,1,17.372,323.936Zm-4.8,2.257a.31.31,0,0,0,.078-.01l4.8-1.234a.312.312,0,1,0-.155-.6l-4.8,1.234a.312.312,0,0,0,.077.613Z" transform="translate(-11.238 -308.905)" fill="#148AFF"/>
      <path id="Path_46007" data-name="Path 46007" d="M81.92,279.848a.513.513,0,0,0,.118-.014l.648-.153a.512.512,0,0,0-.235-1l-.648.153a.512.512,0,0,0,.117,1.01Z" transform="translate(-75.856 -266.541)" fill="#148AFF"/>
      <path id="Path_46007_-_Outline" data-name="Path 46007 - Outline" d="M81.92,280.048a.712.712,0,0,1-.163-1.4l.648-.153a.712.712,0,0,1,.328,1.385l-.648.153A.716.716,0,0,1,81.92,280.048Zm.649-1.177a.313.313,0,0,0-.072.008l-.648.153a.312.312,0,1,0,.144.607l.648-.153a.312.312,0,0,0-.071-.615Z" transform="translate(-75.856 -266.541)" fill="#148AFF"/>
      <path id="Path_46008" data-name="Path 46008" d="M6.757,391l-1.165.274a.512.512,0,1,0,.234,1l1.165-.274a.512.512,0,0,0-.234-1Z" transform="translate(-4.842 -371.192)" fill="#148AFF"/>
      <path id="Path_46008_-_Outline" data-name="Path 46008 - Outline" d="M6.874,390.782a.712.712,0,0,1,.163,1.4l-1.165.274a.712.712,0,0,1-.326-1.385l1.165-.274A.716.716,0,0,1,6.874,390.782Zm-1.166,1.3a.315.315,0,0,0,.072-.008l1.165-.274a.312.312,0,1,0-.143-.607l-1.165.274a.312.312,0,0,0,.071.615Z" transform="translate(-4.842 -371.192)" fill="#148AFF"/>
      <path id="Path_46009" data-name="Path 46009" d="M-17.373-59.128h-.7a1.348,1.348,0,0,1,.213.569h.653l-.162.588h-.488a1.2,1.2,0,0,1-.426.816,1.837,1.837,0,0,1-1,.338l1.505,1.761v.042h-.927l-1.644-1.916,0-.494h.817a.974.974,0,0,0,.573-.15.718.718,0,0,0,.283-.4h-1.738l.165-.588h1.56q-.158-.5-.856-.5h-.869l.174-.659h3.043Z" transform="translate(52.044 64.164) rotate(-11)" fill="#148AFF"/>
    </g>
  </g>
</svg>
