<svg xmlns="http://www.w3.org/2000/svg" width="24" height="24" viewBox="0 0 24 24">
  <g id="quick-lock" transform="translate(643 1998)">
    <g id="base" opacity="0">
      <rect id="Rectangle_982" data-name="Rectangle 982" width="24" height="24" transform="translate(-643 -1998)" fill="#7e2323"/>
      <rect id="Rectangle_983" data-name="Rectangle 983" width="20" height="20" transform="translate(-641 -1996)" fill="#e88e8e"/>
    </g>
    <g id="Group_42453" data-name="Group 42453" transform="translate(2396.468 -4385.139)">
      <path id="XMLID_861_" d="M246.659,154.394a.655.655,0,0,0,.655-.655v-2.8a.655.655,0,1,0-1.311,0v2.8A.655.655,0,0,0,246.659,154.394Z" transform="translate(-3274.127 2249.705)" fill="#148AFF"/>
      <path id="XMLID_864_" d="M144.757,18.089h9.438a2.756,2.756,0,0,0,2.753-2.753V8.473a2.756,2.756,0,0,0-2.753-2.753h-.131V4.588a4.588,4.588,0,0,0-9.176,0V5.72h-.131A2.756,2.756,0,0,0,142,8.473v6.864A2.756,2.756,0,0,0,144.757,18.089Zm1.442-13.5a3.277,3.277,0,0,1,6.554,0V5.72H146.2Zm-2.884,3.885a1.444,1.444,0,0,1,1.442-1.442h9.438a1.444,1.444,0,0,1,1.442,1.442v6.864a1.444,1.444,0,0,1-1.442,1.442h-9.438a1.444,1.444,0,0,1-1.442-1.442Z" transform="translate(-3176.943 2390.138)" fill="#148AFF"/>
    </g>
  </g>
</svg>
