<?xml version="1.0" encoding="utf-8"?>
<!-- Generator: Adobe Illustrator 23.0.1, SVG Export Plug-In . SVG Version: 6.00 Build 0)  -->
<svg version="1.1" id="Layer_1" xmlns="http://www.w3.org/2000/svg" xmlns:xlink="http://www.w3.org/1999/xlink" x="0px" y="0px"
	 viewBox="0 0 11.5 11.9" style="enable-background:new 0 0 11.5 11.9;" xml:space="preserve">
<style type="text/css">
	.st0{fill:#339ad5;}
</style>
<path class="st0" d="M5.8,0.4C4.3,0.4,2.8,1,1.8,2V0.4C1.8,0.2,1.6,0,1.3,0C1.1,0,0.9,0.2,0.9,0.4c0,0,0,0,0,0v2.6
	c0,0.2,0.1,0.4,0.3,0.4l2.6,0.9c0.2,0.1,0.5-0.1,0.6-0.3c0.1-0.2,0-0.5-0.3-0.6l-2-0.6C4,0.9,7,0.8,9,2.6s2.1,4.9,0.3,6.8
	c-1.8,2-4.9,2.1-6.8,0.3C1.2,8.6,0.7,7,1,5.4c0-0.2-0.1-0.5-0.4-0.5C0.4,4.8,0.1,5,0.1,5.2v0C0,5.5,0,5.8,0,6.2
	c0,3.2,2.6,5.7,5.7,5.7c3.2,0,5.7-2.6,5.7-5.7C11.5,3,8.9,0.5,5.8,0.4z"/>
</svg>
