<svg width="266" height="198" viewBox="0 0 266 198" fill="none" xmlns="http://www.w3.org/2000/svg">
<g clip-path="url(#clip0_301_14387)">
<path d="M52.5929 82.8869C52.5929 82.8869 55.8049 73.5549 53.4549 73.2869C51.1049 73.0189 45.2109 73.0439 44.4839 74.6209C43.7569 76.1979 46.9089 84.7029 46.9089 84.7029L52.5929 82.8869Z" fill="#FFB27D"/>
<path d="M44.4842 74.6161C44.4842 74.6161 44.1841 77.8292 45.2111 78.4352C46.2381 79.0412 46.6052 74.6161 46.6052 74.6161C46.6052 74.6161 46.6652 78.2462 47.4542 78.4922C48.2432 78.7382 48.7271 74.3131 48.7271 74.3131C48.7271 74.3131 48.8111 77.8291 49.3451 77.7081C49.8791 77.5871 50.2452 74.3131 50.2452 74.3131C50.2452 74.3131 50.4871 76.8651 51.2151 76.4081C51.9431 75.9511 52.6342 73.2081 52.6342 73.2081L44.4842 74.6161Z" fill="#FFB27D"/>
<path d="M52.5938 82.886C52.5938 82.886 54.7938 81.163 55.2748 79.586C55.7558 78.009 57.1848 75.36 56.4258 75.04C55.6668 74.72 53.4558 78.131 53.4558 78.131L52.5938 82.886Z" fill="#FFB27D"/>
<path d="M11.4562 72.2255C13.0173 74.4826 13.8356 77.1704 13.7972 79.9145C13.5882 82.9555 10.8773 86.0325 10.6973 86.1535L14.9763 88.4355C14.9763 88.4355 18.1492 82.8025 17.0762 78.0955C16.4806 76.292 15.4667 74.655 14.1172 73.3185C13.3909 72.6454 12.446 72.2573 11.4562 72.2255Z" fill="#6BB7BF"/>
<path d="M2.71002 72.61L0 66.62C0 66.62 12.645 67.048 16.835 77.351C16.835 77.351 7.98602 71.041 2.71002 72.61Z" fill="#86D1CD"/>
<path d="M37.0713 141.353C35.2475 139.902 33.9219 137.917 33.2793 135.677C32.7013 133.153 34.1503 129.986 34.2683 129.842L30.2293 129.042C30.2293 129.042 29.0293 134.401 31.0583 137.964C31.9855 139.284 33.2119 140.366 34.6373 141.121C35.3941 141.489 36.2586 141.572 37.0713 141.353Z" fill="#6BB7BF"/>
<path d="M44.0894 138.895L47.7634 143.095C47.7634 143.095 37.3774 145.853 31.4414 138.506C31.4414 138.51 40.1844 141.467 44.0894 138.895Z" fill="#86D1CD"/>
<path d="M241.855 59.7073C241.855 59.7073 241.591 55.7573 249.005 53.8463C252.328 52.9903 259.728 54.5123 255.037 61.7923C250.158 69.3653 245.808 66.6313 245.808 66.6313C245.808 66.6313 255.984 58.6664 251.908 55.0244C247.414 51.0044 245.687 58.9703 245.687 58.9703C244.373 58.9568 243.07 59.2075 241.855 59.7073Z" fill="#F1A34F"/>
<path d="M244.487 67.0898C243.68 66.6132 243.069 65.8656 242.763 64.9802C242.456 64.0949 242.474 63.1293 242.813 62.2559L246.799 62.9479C246.799 62.9479 245.267 66.5549 249.015 66.9919C249.013 66.9899 245.405 67.8448 244.487 67.0898Z" fill="#DB7714"/>
<path d="M54.2682 6.20396C54.2682 6.20396 58.4112 0.237965 64.7682 4.46297L68.6322 0.764967C68.6322 0.764967 65.0172 -1.98002 56.6792 2.94298C51.2252 6.16498 54.2682 6.20396 54.2682 6.20396Z" fill="#5685D8"/>
<path d="M50.1788 12.0536C50.1788 12.0536 49.3598 5.20464 60.8238 0.931641C60.8238 0.931641 56.6798 2.93963 55.4018 9.76663L50.1788 12.0536Z" fill="#739AF0"/>
<path d="M147.721 10.6342C147.721 10.6342 151.109 8.49418 151.465 5.90918C151.465 5.90918 154.765 6.08718 155.477 7.15718C155.477 7.15718 153.961 11.4372 152.177 12.2392C152.182 12.2392 148.167 12.5072 147.721 10.6342Z" fill="#F99746"/>
<path d="M84.0698 163.149C84.0698 163.149 80.4558 160.866 80.0748 158.108C80.0748 158.108 76.5559 158.298 75.7949 159.44C75.7949 159.44 77.4118 164.005 79.3138 164.861C79.3148 164.861 83.5948 165.146 84.0698 163.149Z" fill="#F99746"/>
<path d="M187.049 78.0483C187.049 78.0483 190.679 75.7554 191.061 72.9854C191.061 72.9854 194.596 73.1764 195.361 74.3224C195.361 74.3224 193.737 78.9084 191.826 79.7674C191.826 79.7684 187.527 80.0543 187.049 78.0483Z" fill="#86D1CD"/>
<path opacity="0.25" d="M76.3775 57.352C83.4562 57.352 89.1945 51.6858 89.1945 44.696C89.1945 37.7063 83.4562 32.04 76.3775 32.04C69.2989 32.04 63.5605 37.7063 63.5605 44.696C63.5605 51.6858 69.2989 57.352 76.3775 57.352Z" fill="url(#paint0_linear_301_14387)"/>
<path d="M151.061 157.138C194.92 157.138 230.474 122.03 230.474 78.7236C230.474 35.4167 194.92 0.30957 151.061 0.30957C107.203 0.30957 71.6484 35.4167 71.6484 78.7236C71.6484 122.03 107.203 157.138 151.061 157.138Z" fill="#E2F5FC"/>
<path opacity="0.25" d="M202.111 173.718C211.157 173.718 218.49 166.477 218.49 157.545C218.49 148.613 211.157 141.372 202.111 141.372C193.066 141.372 185.732 148.613 185.732 157.545C185.732 166.477 193.066 173.718 202.111 173.718Z" fill="url(#paint1_linear_301_14387)"/>
<path opacity="0.35" d="M259.685 141.036C263.219 141.036 266.083 138.208 266.083 134.718C266.083 131.229 263.219 128.4 259.685 128.4C256.152 128.4 253.287 131.229 253.287 134.718C253.287 138.208 256.152 141.036 259.685 141.036Z" fill="url(#paint2_linear_301_14387)"/>
<path d="M154.717 67.4971C154.717 67.4971 153.911 79.5121 155.625 81.6081C157.339 83.7041 152.482 86.9421 147.814 86.9421C143.146 86.9421 139.34 80.4611 139.34 80.4611C139.34 80.4611 141.626 80.5441 141.626 77.2161V70.7441L154.717 67.4971Z" fill="url(#paint3_linear_301_14387)"/>
<g style="mix-blend-mode:darken" opacity="0.34">
<path d="M154.643 67.5978C153.897 68.5888 147.623 76.6978 141.624 77.2198C141.599 77.2198 141.58 77.2198 141.555 77.2198V70.7478L154.444 67.5478L154.649 67.5098C154.648 67.5208 154.646 67.5538 154.643 67.5978Z" fill="#FA8579"/>
</g>
<g style="mix-blend-mode:darken" opacity="0.25">
<path d="M132.506 53.0697C134.894 50.1096 137.471 47.3068 140.221 44.6787H147.676L147.768 45.2117C147.768 45.2117 143.302 54.9627 132.768 56.7907C132.591 54.9167 132.599 54.6887 132.506 53.0697Z" fill="#FA8579"/>
</g>
<path d="M130.836 50.2456C130.635 52.2394 131.209 54.2341 132.439 55.816C134.498 58.3847 133.503 49.0997 133.503 49.0997L130.836 50.2456Z" fill="url(#paint4_linear_301_14387)"/>
<path d="M151.774 68.4538C151.774 68.4538 132.443 76.8329 132.204 65.3542C132.147 57.6099 132.727 49.874 133.938 42.2246L161.036 46.5165C161.036 46.5165 163.432 66.3142 151.774 68.4538Z" fill="url(#paint5_linear_301_14387)"/>
<path d="M147.201 45.5053C145.104 47.5403 139.725 51.6029 130.87 50.7077C130.659 50.6852 130.465 50.5832 130.327 50.4225C130.19 50.2617 130.118 50.0545 130.128 49.843C130.231 47.9123 130.705 42.8167 133.031 39.6375C137.667 33.2996 144.915 33.177 153.787 37.492C153.787 37.492 161.913 37.3321 166.042 44.1581C171.309 52.8714 167.398 64.8197 151.935 71.4321L152.587 66.5875C152.634 66.2341 152.794 65.9055 153.043 65.6506C153.292 65.3957 153.617 65.2282 153.969 65.1733C155.812 64.8809 159.108 63.619 158.973 58.3297C158.832 57.6205 158.46 56.9784 157.913 56.5051C157.367 56.0318 156.678 55.7543 155.956 55.7167C155.21 55.7124 154.479 55.9203 153.847 56.316C153.214 56.7117 152.708 57.279 152.386 57.9516C152.341 58.0301 152.276 58.0949 152.197 58.1393C152.118 58.1837 152.029 58.2059 151.939 58.2037C151.849 58.2014 151.761 58.1748 151.684 58.1265C151.608 58.0783 151.546 58.0102 151.505 57.9296C149.641 54.1824 148.543 50.1007 148.277 45.9238C148.269 45.8024 148.228 45.6857 148.156 45.5875C148.084 45.4892 147.986 45.4136 147.873 45.3695C147.76 45.3255 147.636 45.3148 147.517 45.3389C147.398 45.363 147.288 45.4207 147.201 45.5053Z" fill="url(#paint6_linear_301_14387)"/>
<path d="M139.297 64.2701C139.297 64.2701 138.805 65.0091 136.836 64.1371C136.836 64.1371 135.182 63.4041 135.565 62.5371C136.979 62.64 138.307 63.2563 139.297 64.2701Z" fill="white"/>
<path d="M126.318 80.0609C126.318 80.0609 115.868 73.7572 109.903 69.2296C103.938 64.702 102.456 61.9522 102.456 61.9522L90.9687 30.8197C90.4771 30.2231 89.828 30.0598 88.1359 30.8199C85.5146 30.6342 82.3415 29.9854 80.3427 30.4765C80.3427 30.4765 79.327 29.6651 78.5949 30.4767C78.9339 35.2116 86.3796 61.1071 86.3796 61.1071C86.3796 61.1071 88.0879 66.2439 88.7485 67.8763C94.2047 81.3439 121.241 99.5224 121.241 99.5224L126.318 80.0609Z" fill="#339AD5"/>
<path d="M155.614 81.1322C154.602 82.4966 153.285 83.6048 151.767 84.3681C150.25 85.1313 148.575 85.5283 146.876 85.5272C141.033 85.5272 140.582 79.5272 140.582 79.5272C140.582 79.5272 127.382 77.4082 124.464 78.9272C121.546 80.4462 116.748 160.676 113.7 168.676C110.652 176.676 164 177.948 169.331 173.63C174.662 169.312 169.331 175.154 169.331 142.893C169.331 110.632 169.585 108.346 169.585 108.346L171.211 88.8312C171.35 87.1691 170.861 85.5153 169.841 84.1955C168.822 82.8758 167.344 81.9859 165.701 81.7012C162.181 81.0902 157.973 80.5912 155.614 81.1322Z" fill="#2976AD"/>
<mask id="mask0_301_14387" style="mask-type:alpha" maskUnits="userSpaceOnUse" x="113" y="78" width="59" height="99">
<path d="M155.614 81.1322C154.602 82.4966 153.285 83.6048 151.767 84.3681C150.25 85.1313 148.575 85.5283 146.876 85.5272C141.033 85.5272 140.582 79.5272 140.582 79.5272C140.582 79.5272 127.382 77.4082 124.464 78.9272C121.546 80.4462 116.748 160.676 113.7 168.676C110.652 176.676 164 177.948 169.331 173.63C174.662 169.312 169.331 175.154 169.331 142.893C169.331 110.632 169.585 108.346 169.585 108.346L171.211 88.8312C171.35 87.1691 170.861 85.5153 169.841 84.1955C168.822 82.8758 167.344 81.9859 165.701 81.7012C162.181 81.0902 157.973 80.5912 155.614 81.1322Z" fill="#2C87C1"/>
</mask>
<g mask="url(#mask0_301_14387)">
<g filter="url(#filter0_f_301_14387)">
<circle cx="139.5" cy="188.5" r="43.5" fill="#65CD35"/>
</g>
</g>
<path d="M154.67 80.8377C152.839 82.6955 150.623 84.1292 148.177 85.0377L146.877 85.5217L146.349 85.2217C143.99 83.8668 142.029 81.9152 140.662 79.5627L136.688 79.9487L136.572 78.9707C136.335 83.254 136.846 87.5459 138.082 91.6537L138.105 91.7267L146.77 85.9337L154.138 93.8697C156.266 90.2667 157.754 86.3229 158.538 82.2127L158.671 80.9057L154.67 80.8377Z" fill="#2C87C1"/>
<path style="mix-blend-mode:darken" opacity="0.16" d="M169.462 113.256C169.904 113.262 169.051 112.956 169.462 113.042C169.396 117.516 169.329 126.183 169.329 142.891C169.329 175.152 174.663 169.31 169.329 173.628C166.749 175.716 152.95 176.497 139.729 175.843C142.11 175.064 144.968 174.521 147.647 172.866C164.353 162.544 169.462 113.256 169.462 113.256Z" fill="url(#paint7_linear_301_14387)"/>
<path opacity="0.72" d="M124.464 106.148L137.736 107.201L137.951 104.501L124.678 103.447L124.464 106.148Z" fill="#339AD5"/>
<path opacity="0.72" d="M151.929 108.327L165.201 109.381L165.416 106.68L152.143 105.627L151.929 108.327Z" fill="#339AD5"/>
<path d="M150.302 89.8736L147.924 93.3146H143.667L141.936 89.1656L146.77 85.9336L150.302 89.8736Z" fill="#20578B"/>
<path d="M91.5292 33.7945C93.0263 32.5213 94.1261 30.8447 94.6976 28.9644C95.2691 27.084 95.2882 25.079 94.7527 23.188C93.0291 16.3003 93.777 17.8694 93.5491 17.6815C93.3212 17.4935 91.0471 17.3445 90.6373 21.5879C90.2276 25.8313 89.003 23.1738 89.003 23.1738C87.5816 20.2491 86.9187 17.0138 87.0754 13.7657C87.1674 11.9571 87.1442 10.1423 86.7662 9.43859C85.9116 7.84734 84.2314 11.6208 84.2314 11.6208C84.2314 11.6208 83.61 9.3924 81.386 14.5001C81.386 14.5001 76.1086 19.0313 78.9015 26.8391C79.7029 29.0886 82.4584 31.6269 82.2875 33.5124L91.5292 33.7945Z" fill="url(#paint8_linear_301_14387)"/>
<g style="mix-blend-mode:darken" opacity="0.34">
<path d="M92.7087 32.6172C92.3552 33.048 91.9595 33.4423 91.5276 33.7944L82.2868 33.5127C82.2441 32.5682 81.9131 31.6595 81.3384 30.9089C85.5366 29.7639 90.1964 31.4457 92.7087 32.6172Z" fill="#FA8579"/>
</g>
<path d="M201.781 40.1674L201.031 37.7276C201.031 37.7276 208.568 31.429 208.704 31.1486C208.841 30.8682 209.916 24.4441 209.677 23.3647C209.438 22.2853 207.244 23.0079 205.522 27.626C205.522 27.626 204.089 20.4567 203.813 19.7943C203.538 19.1319 201.028 20.6521 201.12 23.4019C201.213 26.1516 200.762 22.9598 200.762 22.9598C200.762 22.9598 200.511 19.782 200.128 19.6758C199.745 19.5695 196.889 20.5714 196.661 25.6782L195.225 28.0723C195.225 28.0723 195.28 23.1298 194.807 21.7584C194.334 20.387 191.995 22.5817 191.545 28.1311C191.507 28.599 188.47 32.0826 188.493 33.4016C188.515 34.7206 190.276 42.0849 190.276 42.0849L201.781 40.1674Z" fill="url(#paint9_linear_301_14387)"/>
<g style="mix-blend-mode:darken" opacity="0.34">
<path d="M190.21 41.8152C190.135 41.5023 190.002 40.9272 189.837 40.2107C191.485 39.2976 195.103 37.7764 201.21 37.5798L201.032 37.7291L201.781 40.1682L190.563 42.0385L190.21 41.8152Z" fill="#FA8579"/>
</g>
<path d="M169.539 103.331C169.539 103.331 168.636 109.422 207.927 77.7462C208.598 77.2041 209.129 76.5081 209.475 75.7173C209.82 74.9265 209.97 74.064 209.912 73.203C208.509 52.473 205.449 39.0095 204.379 34.7856C204.332 34.5999 204.248 34.4257 204.131 34.2735C204.015 34.1212 203.869 33.9941 203.702 33.8996C203.536 33.8052 203.352 33.7454 203.161 33.7239C202.971 33.7024 202.778 33.7196 202.594 33.7745L200.739 34.3218C199.186 34.779 197.696 35.4288 196.304 36.2562L194.074 37.5836C193.855 37.7142 193.675 37.901 193.553 38.1246C193.431 38.3483 193.371 38.6005 193.38 38.8552L194.385 67.957L167.519 82.5784L168.847 87.0692C169.481 92.4651 169.712 97.9008 169.539 103.331Z" fill="#339AD5"/>
<path d="M143.726 93.21C143.726 93.21 139.879 122.029 105.833 143.005L102.656 152.235H114.944C114.944 152.235 145.83 127.18 147.874 93.21H143.726Z" fill="#20578B"/>
</g>
<defs>
<filter id="filter0_f_301_14387" x="16" y="65" width="247" height="247" filterUnits="userSpaceOnUse" color-interpolation-filters="sRGB">
<feFlood flood-opacity="0" result="BackgroundImageFix"/>
<feBlend mode="normal" in="SourceGraphic" in2="BackgroundImageFix" result="shape"/>
<feGaussianBlur stdDeviation="40" result="effect1_foregroundBlur_301_14387"/>
</filter>
<linearGradient id="paint0_linear_301_14387" x1="67.4569" y1="31.306" x2="86.899" y2="61.2227" gradientUnits="userSpaceOnUse">
<stop stop-color="#FFB8AA"/>
<stop offset="1" stop-color="#FF65BD"/>
</linearGradient>
<linearGradient id="paint1_linear_301_14387" x1="190.712" y1="140.434" x2="215.556" y2="178.665" gradientUnits="userSpaceOnUse">
<stop stop-color="#FFB8AA"/>
<stop offset="1" stop-color="#FF65BD"/>
</linearGradient>
<linearGradient id="paint2_linear_301_14387" x1="255.232" y1="128.034" x2="264.938" y2="142.968" gradientUnits="userSpaceOnUse">
<stop stop-color="#FE89DD"/>
<stop offset="0.109" stop-color="#E180E6"/>
<stop offset="0.242" stop-color="#C578EE"/>
<stop offset="0.386" stop-color="#B072F5"/>
<stop offset="0.545" stop-color="#A06EFA"/>
<stop offset="0.729" stop-color="#976BFD"/>
<stop offset="1" stop-color="#956BFE"/>
</linearGradient>
<linearGradient id="paint3_linear_301_14387" x1="132.951" y1="62.3053" x2="164.778" y2="82.5944" gradientUnits="userSpaceOnUse">
<stop stop-color="#F9D0C2"/>
<stop offset="1" stop-color="#FF9992"/>
</linearGradient>
<linearGradient id="paint4_linear_301_14387" x1="134.013" y1="52.8002" x2="130.519" y2="52.2468" gradientUnits="userSpaceOnUse">
<stop stop-color="#3B234C"/>
<stop offset="0.337" stop-color="#402450"/>
<stop offset="0.75" stop-color="#4F2A5C"/>
<stop offset="1" stop-color="#5C2F67"/>
</linearGradient>
<linearGradient id="paint5_linear_301_14387" x1="133.303" y1="40.5287" x2="171.703" y2="90.5998" gradientUnits="userSpaceOnUse">
<stop stop-color="#F9D0C2"/>
<stop offset="1" stop-color="#FF9992"/>
</linearGradient>
<linearGradient id="paint6_linear_301_14387" x1="167.787" y1="56.0977" x2="129.924" y2="50.1008" gradientUnits="userSpaceOnUse">
<stop stop-color="#3B234C"/>
<stop offset="0.337" stop-color="#402450"/>
<stop offset="0.75" stop-color="#4F2A5C"/>
<stop offset="1" stop-color="#5C2F67"/>
</linearGradient>
<linearGradient id="paint7_linear_301_14387" x1="171.699" y1="144.547" x2="139.729" y2="144.547" gradientUnits="userSpaceOnUse">
<stop stop-color="#3F4485"/>
<stop offset="0.388" stop-color="#3D427F"/>
<stop offset="0.864" stop-color="#393E70"/>
<stop offset="1" stop-color="#383D6B"/>
</linearGradient>
<linearGradient id="paint8_linear_301_14387" x1="83.6826" y1="15.9472" x2="96.0416" y2="33.8372" gradientUnits="userSpaceOnUse">
<stop stop-color="#F9D0C2"/>
<stop offset="1" stop-color="#FF9992"/>
</linearGradient>
<linearGradient id="paint9_linear_301_14387" x1="95.445" y1="68.2425" x2="111.495" y2="47.7114" gradientUnits="userSpaceOnUse">
<stop stop-color="#F9D0C2"/>
<stop offset="1" stop-color="#FF9992"/>
</linearGradient>
<clipPath id="clip0_301_14387">
<rect width="266" height="198" fill="white"/>
</clipPath>
</defs>
</svg>
