<svg xmlns="http://www.w3.org/2000/svg" width="17.863" height="17.748" viewBox="0 0 17.863 17.748">
  <g id="noun_Request_Service_1219338" data-name="noun_Request Service_1219338" transform="translate(-11 -11.24)">
    <path id="Path_43949" data-name="Path 43949" d="M32.569,23.906l1.775,1.775.332-.332L32.9,23.574c-.069-.069,0-.309,0-.309L31.7,22.23l-.476.476,1.037,1.2S32.509,23.849,32.569,23.906Z" transform="translate(-15.589 -8.473)" fill="#148AFF"/>
    <path id="Path_43950" data-name="Path 43950" d="M52.06,41.89l-1.17,1.17,2.544,2.54a.527.527,0,0,0,.747,0l.415-.415a.527.527,0,0,0,0-.747Z" transform="translate(-30.755 -23.631)" fill="#148AFF"/>
    <path id="Path_43951" data-name="Path 43951" d="M38.523,23.5a.713.713,0,1,1-1.008-1.008l1.115-1.1a1.96,1.96,0,0,0-.79-.181,2,2,0,0,0-1.979,1.979,1.96,1.96,0,0,0,.181.79L31.407,28.6a.713.713,0,0,0,1.008,1.008l4.633-4.638a1.96,1.96,0,0,0,.79.181,2,2,0,0,0,1.979-1.979,1.96,1.96,0,0,0-.19-.79Z" transform="translate(-15.573 -7.687)" fill="#148AFF"/>
    <path id="Path_43952" data-name="Path 43952" d="M26.115,11.24H13.748A2.748,2.748,0,0,0,11,13.988v8.244a2.748,2.748,0,0,0,2.748,2.748h4.392l3.834,3.779a.783.783,0,0,0,.547.229.646.646,0,0,0,.3-.076.591.591,0,0,0,.311-.6l-.087-3.325h3.064a2.748,2.748,0,0,0,2.748-2.748V13.99a2.748,2.748,0,0,0-2.748-2.75Zm1.832,10.993a1.832,1.832,0,0,1-1.832,1.832H22.574a.458.458,0,0,0-.458.469l.082,3.158L18.649,24.2a.458.458,0,0,0-.321-.133h-4.58a1.832,1.832,0,0,1-1.832-1.832V13.988a1.832,1.832,0,0,1,1.832-1.832H26.115a1.832,1.832,0,0,1,1.832,1.832Z" transform="translate(0 0)" fill="#148AFF"/>
  </g>
</svg>
