<svg xmlns="http://www.w3.org/2000/svg" width="32" height="32" viewBox="0 0 32 32">
  <g id="rewards" transform="translate(643 1998.386)">
    <g id="base" transform="translate(-643 -1998)" opacity="0">
      <rect id="Rectangle_982" data-name="Rectangle 982" width="32" height="32" transform="translate(0 -0.387)" fill="#7e2323"/>
      <rect id="Rectangle_983" data-name="Rectangle 983" width="26" height="26" transform="translate(3 2.613)" fill="#e88e8e"/>
    </g>
    <path id="gift-2" d="M22.981,4.819h-5A2.346,2.346,0,0,0,18.9,2.965,2.7,2.7,0,0,0,15.939,0C14.027,0,12.7,1.854,11.861,3.583,11.027,1.855,9.7,0,7.784,0A2.7,2.7,0,0,0,4.819,2.965a2.346,2.346,0,0,0,.919,1.853h-5A.741.741,0,0,0,0,5.56v5.189a.741.741,0,0,0,.741.741V22.981a.741.741,0,0,0,.741.741H22.24a.741.741,0,0,0,.741-.741V11.491a.741.741,0,0,0,.741-.741V5.56A.741.741,0,0,0,22.981,4.819Zm-.741,5.189H15.2V6.3H22.24ZM10.008,6.3h3.707v3.707H10.008Zm5.931-4.819c1.067,0,1.483.416,1.483,1.483,0,1.043-2.151,1.67-4.48,1.819C13.532,3.4,14.64,1.483,15.939,1.483Zm-8.155,0c1.294,0,2.4,1.922,3,3.3C8.452,4.635,6.3,4.008,6.3,2.965c0-1.067.416-1.483,1.483-1.483ZM1.483,6.3H8.525v3.707H1.483Zm.741,5.189H9.267V22.24H2.224ZM10.749,22.24V11.491h2.224V22.24Zm10.749,0H14.456V11.491H21.5Z" transform="translate(-639.048 -1994.048)"/>
  </g>
</svg>
