<svg width="33" height="32" viewBox="0 0 33 32" fill="none" xmlns="http://www.w3.org/2000/svg">
<path fill-rule="evenodd" clip-rule="evenodd" d="M15.5108 23.4999C15.3036 23.4999 15.1049 23.4176 14.9584 23.2711C14.8119 23.1246 14.7296 22.9259 14.7296 22.7187C14.7296 22.5115 14.8119 22.3128 14.9584 22.1663C15.1049 22.0197 15.3036 21.9374 15.5108 21.9374H16.1881C16.3953 21.9374 16.5941 22.0197 16.7406 22.1663C16.8871 22.3128 16.9694 22.5115 16.9694 22.7187C16.9694 22.9259 16.8871 23.1246 16.7406 23.2711C16.5941 23.4176 16.3953 23.4999 16.1881 23.4999H15.5108ZM16.0834 13.0829C16.0834 13.2901 16.0011 13.4888 15.8545 13.6353C15.708 13.7819 15.5093 13.8642 15.3021 13.8642C15.0949 13.8642 14.8962 13.7819 14.7497 13.6353C14.6032 13.4888 14.5209 13.2901 14.5209 13.0829V12.4056C14.5209 12.1984 14.6032 11.9997 14.7497 11.8532C14.8962 11.7067 15.0949 11.6243 15.3021 11.6243C15.5093 11.6243 15.708 11.7067 15.8545 11.8532C16.0011 11.9997 16.0834 12.1984 16.0834 12.4056V13.0829ZM20.8749 21.8327C20.6677 21.8327 20.4689 21.7503 20.3224 21.6038C20.1759 21.4573 20.0936 21.2586 20.0936 21.0514C20.0936 20.8442 20.1759 20.6455 20.3224 20.499C20.4689 20.3525 20.6677 20.2701 20.8749 20.2701H21.5522C21.6548 20.2701 21.7563 20.2903 21.8511 20.3296C21.9459 20.3689 22.032 20.4264 22.1046 20.499C22.1771 20.5715 22.2347 20.6576 22.2739 20.7524C22.3132 20.8472 22.3334 20.9488 22.3334 21.0514C22.3334 21.154 22.3132 21.2556 22.2739 21.3504C22.2347 21.4452 22.1771 21.5313 22.1046 21.6038C22.032 21.6764 21.9459 21.7339 21.8511 21.7732C21.7563 21.8124 21.6548 21.8327 21.5522 21.8327H20.8749ZM4.75556 16.7829H8.39125C8.38076 16.8343 8.3755 16.8865 8.37557 16.9389V19.2826C8.37557 19.4898 8.45788 19.6886 8.6044 19.8351C8.75091 19.9816 8.94963 20.0639 9.15683 20.0639C9.36403 20.0639 9.56275 19.9816 9.70926 19.8351C9.85578 19.6886 9.93809 19.4898 9.93809 19.2826V16.9372C9.93816 16.8848 9.93291 16.8326 9.92241 16.7813H16.8126V17.6665H12.6985C12.5959 17.6665 12.4943 17.6867 12.3995 17.726C12.3047 17.7652 12.2186 17.8228 12.146 17.8953C12.0735 17.9679 12.0159 18.054 11.9767 18.1488C11.9374 18.2436 11.9172 18.3452 11.9172 18.4478C11.9172 18.5504 11.9374 18.6519 11.9767 18.7467C12.0159 18.8415 12.0735 18.9276 12.146 19.0002C12.2186 19.0727 12.3047 19.1303 12.3995 19.1695C12.4943 19.2088 12.5959 19.229 12.6985 19.229H17.5947C17.8019 19.229 18.0006 19.1467 18.1472 19.0002C18.2937 18.8537 18.376 18.655 18.376 18.4478V16.7829H21.2923V19.0747C21.2923 19.2819 21.3746 19.4807 21.5211 19.6272C21.6676 19.7737 21.8663 19.856 22.0735 19.856C22.2808 19.856 22.4795 19.7737 22.626 19.6272C22.7725 19.4807 22.8548 19.2819 22.8548 19.0747V16.7829H28.2452C28.4524 16.7829 28.6511 16.7006 28.7977 16.5541C28.9442 16.4076 29.0265 16.2089 29.0265 16.0017C29.0265 15.7945 28.9442 15.5958 28.7977 15.4493C28.6511 15.3027 28.4524 15.2204 28.2452 15.2204H24.6772V13.7082H25.4584C25.6656 13.7082 25.8644 13.6259 26.0109 13.4794C26.1574 13.3329 26.2397 13.1342 26.2397 12.927C26.2397 12.7198 26.1574 12.5211 26.0109 12.3746C25.8644 12.228 25.6656 12.1457 25.4584 12.1457H21.5522C21.345 12.1457 21.1462 12.228 20.9997 12.3746C20.8532 12.5211 20.7709 12.7198 20.7709 12.927C20.7709 13.1342 20.8532 13.3329 20.9997 13.4794C21.1462 13.6259 21.345 13.7082 21.5522 13.7082H23.1147V15.2155H18.3752V13.1869C18.3752 13.0843 18.355 12.9827 18.3157 12.8879C18.2764 12.7931 18.2189 12.707 18.1463 12.6344C18.0738 12.5619 17.9877 12.5043 17.8929 12.4651C17.7981 12.4258 17.6965 12.4056 17.5939 12.4056C17.4913 12.4056 17.3897 12.4258 17.2949 12.4651C17.2001 12.5043 17.114 12.5619 17.0415 12.6344C16.9689 12.707 16.9114 12.7931 16.8721 12.8879C16.8329 12.9827 16.8126 13.0843 16.8126 13.1869V15.2155H4.75556C4.54836 15.2155 4.34964 15.2978 4.20313 15.4443C4.05661 15.5908 3.9743 15.7895 3.9743 15.9967C3.9743 16.2039 4.05661 16.4027 4.20313 16.5492C4.34964 16.6957 4.54836 16.778 4.75556 16.778V16.7829ZM18.2737 7.1975C18.2737 6.9903 18.356 6.79158 18.5025 6.64507C18.649 6.49856 18.8477 6.41624 19.0549 6.41624C19.2621 6.41624 19.4609 6.49856 19.6074 6.64507C19.7539 6.79158 19.8362 6.9903 19.8362 7.1975V11.3125C19.8362 11.4151 19.816 11.5167 19.7767 11.6115C19.7375 11.7063 19.6799 11.7924 19.6074 11.8649C19.5348 11.9375 19.4487 11.995 19.3539 12.0343C19.2591 12.0736 19.1575 12.0938 19.0549 12.0938C18.9523 12.0938 18.8508 12.0736 18.756 12.0343C18.6612 11.995 18.5751 11.9375 18.5025 11.8649C18.43 11.7924 18.3724 11.7063 18.3332 11.6115C18.2939 11.5167 18.2737 11.4151 18.2737 11.3125V7.1975ZM13.6381 7.51017H15.4094V7.1975C15.4094 6.9903 15.4917 6.79158 15.6382 6.64507C15.7847 6.49856 15.9834 6.41624 16.1906 6.41624C16.3978 6.41624 16.5965 6.49856 16.743 6.64507C16.8896 6.79158 16.9719 6.9903 16.9719 7.1975V9.80196C16.9719 10.0092 16.8896 10.2079 16.743 10.3544C16.5965 10.5009 16.3978 10.5832 16.1906 10.5832C15.9834 10.5832 15.7847 10.5009 15.6382 10.3544C15.4917 10.2079 15.4094 10.0092 15.4094 9.80196V9.07268H13.6356V9.44062C13.6356 9.64783 13.5533 9.84654 13.4068 9.99305C13.2603 10.1396 13.0616 10.2219 12.8544 10.2219C12.6472 10.2219 12.4485 10.1396 12.302 9.99305C12.1554 9.84654 12.0731 9.64783 12.0731 9.44062V7.1975C12.0731 6.9903 12.1554 6.79158 12.302 6.64507C12.4485 6.49856 12.6472 6.41624 12.8544 6.41624C13.0616 6.41624 13.2603 6.49856 13.4068 6.64507C13.5533 6.79158 13.6356 6.9903 13.6356 7.1975L13.6381 7.51017ZM7.38395 13.6563C7.17675 13.6563 6.97803 13.574 6.83152 13.4274C6.685 13.2809 6.60269 13.0822 6.60269 12.875C6.60269 12.6678 6.685 12.4691 6.83152 12.3226C6.97803 12.1761 7.17675 12.0938 7.38395 12.0938H13.1671C13.3743 12.0938 13.573 12.1761 13.7195 12.3226C13.866 12.4691 13.9483 12.6678 13.9483 12.875C13.9483 13.0822 13.866 13.2809 13.7195 13.4274C13.573 13.574 13.3743 13.6563 13.1671 13.6563H7.38395ZM24.4173 24.0205V24.8018C24.4173 25.009 24.4996 25.2077 24.6461 25.3542C24.7927 25.5007 24.9914 25.583 25.1986 25.583C25.4058 25.583 25.6045 25.5007 25.751 25.3542C25.8975 25.2077 25.9798 25.009 25.9798 24.8018V20.1142C25.9798 20.0116 25.9596 19.91 25.9204 19.8152C25.8811 19.7205 25.8236 19.6343 25.751 19.5618C25.6785 19.4892 25.5923 19.4317 25.4975 19.3924C25.4028 19.3532 25.3012 19.333 25.1986 19.333C25.096 19.333 24.9944 19.3532 24.8996 19.3924C24.8048 19.4317 24.7187 19.4892 24.6461 19.5618C24.5736 19.6343 24.516 19.7205 24.4768 19.8152C24.4375 19.91 24.4173 20.0116 24.4173 20.1142V22.458H21.8129C21.6057 22.458 21.4069 22.5403 21.2604 22.6868C21.1139 22.8333 21.0316 23.032 21.0316 23.2392C21.0316 23.4464 21.1139 23.6452 21.2604 23.7917C21.4069 23.9382 21.6057 24.0205 21.8129 24.0205H24.4173ZM16.4488 25.583H18.7926C18.9998 25.583 19.1985 25.5007 19.345 25.3542C19.4915 25.2077 19.5739 25.009 19.5739 24.8018V20.7915C19.5739 20.5843 19.4915 20.3856 19.345 20.2391C19.1985 20.0926 18.9998 20.0103 18.7926 20.0103C18.5854 20.0103 18.3867 20.0926 18.2402 20.2391C18.0937 20.3856 18.0113 20.5843 18.0113 20.7915V24.0205H16.448C16.2408 24.0205 16.0421 24.1028 15.8956 24.2493C15.7491 24.3958 15.6668 24.5946 15.6668 24.8018C15.6668 25.009 15.7491 25.2077 15.8956 25.3542C16.0421 25.5007 16.2408 25.583 16.448 25.583H16.4488ZM12.1259 20.8435C12.1259 20.6363 12.2082 20.4376 12.3548 20.2911C12.5013 20.1446 12.7 20.0622 12.9072 20.0622C13.1144 20.0622 13.3131 20.1446 13.4596 20.2911C13.6061 20.4376 13.6884 20.6363 13.6884 20.8435V23.1353C13.6884 23.3425 13.6061 23.5412 13.4596 23.6877C13.3131 23.8342 13.1144 23.9166 12.9072 23.9166C12.7 23.9166 12.5013 23.8342 12.3548 23.6877C12.2082 23.5412 12.1259 23.3425 12.1259 23.1353V20.8435ZM7.38395 20.7429H10.6674C10.8746 20.7429 11.0733 20.8252 11.2198 20.9717C11.3663 21.1182 11.4486 21.3169 11.4486 21.5241V24.8018C11.4486 25.009 11.3663 25.2077 11.2198 25.3542C11.0733 25.5007 10.8746 25.583 10.6674 25.583H7.38395C7.17675 25.583 6.97803 25.5007 6.83152 25.3542C6.685 25.2077 6.60269 25.009 6.60269 24.8018V21.5208C6.60356 21.3142 6.68626 21.1163 6.83268 20.9705C6.9791 20.8247 7.17732 20.7429 7.38395 20.7429ZM9.88364 22.3054H8.16685V24.0238H9.88611L9.88364 22.3054ZM22.3334 6.41624H25.616C25.8232 6.41624 26.0219 6.49856 26.1684 6.64507C26.315 6.79158 26.3973 6.9903 26.3973 7.1975V10.4793C26.3973 10.6865 26.315 10.8852 26.1684 11.0317C26.0219 11.1782 25.8232 11.2605 25.616 11.2605H22.3334C22.1262 11.2605 21.9275 11.1782 21.781 11.0317C21.6345 10.8852 21.5522 10.6865 21.5522 10.4793V7.1975C21.5522 6.9903 21.6345 6.79158 21.781 6.64507C21.9275 6.49856 22.1262 6.41624 22.3334 6.41624ZM24.8331 7.97876H23.1147V9.69802H24.8331V7.97876ZM7.38395 6.41624C7.17675 6.41624 6.97803 6.49856 6.83152 6.64507C6.685 6.79158 6.60269 6.9903 6.60269 7.1975V10.4793C6.60269 10.6865 6.685 10.8852 6.83152 11.0317C6.97803 11.1782 7.17675 11.2605 7.38395 11.2605H10.6674C10.8746 11.2605 11.0733 11.1782 11.2198 11.0317C11.3663 10.8852 11.4486 10.6865 11.4486 10.4793V7.1975C11.4486 6.9903 11.3663 6.79158 11.2198 6.64507C11.0733 6.49856 10.8746 6.41624 10.6674 6.41624H7.38395ZM9.88364 7.97876V9.69802H8.16685V7.97876H9.88364Z" fill="#339ad5"/>
<path fill-rule="evenodd" clip-rule="evenodd" d="M4.72917 6.72558C4.72917 6.82817 4.70896 6.92976 4.6697 7.02455C4.63044 7.11934 4.57289 7.20546 4.50034 7.27801C4.4278 7.35055 4.34167 7.4081 4.24689 7.44736C4.1521 7.48662 4.05051 7.50683 3.94791 7.50683C3.74071 7.50683 3.542 7.42452 3.39548 7.27801C3.24897 7.13149 3.16666 6.93278 3.16666 6.72558V3.44793C3.16666 3.24073 3.24897 3.04201 3.39548 2.8955C3.542 2.74898 3.74071 2.66667 3.94791 2.66667H7.22556C7.43276 2.66667 7.63148 2.74898 7.77799 2.8955C7.92451 3.04201 8.00682 3.24073 8.00682 3.44793C8.00682 3.55052 7.98661 3.65212 7.94735 3.7469C7.90809 3.84169 7.85054 3.92781 7.77799 4.00036C7.70545 4.07291 7.61932 4.13045 7.52453 4.16972C7.42975 4.20898 7.32816 4.22918 7.22556 4.22918H4.72917V6.72558ZM28.2716 25.2711C28.2716 25.0639 28.3539 24.8652 28.5005 24.7187C28.647 24.5722 28.8457 24.4899 29.0529 24.4899C29.2601 24.4899 29.4588 24.5722 29.6053 24.7187C29.7518 24.8652 29.8341 25.0639 29.8341 25.2711V28.5521C29.8341 28.7593 29.7518 28.958 29.6053 29.1045C29.4588 29.251 29.2601 29.3333 29.0529 29.3333H25.7711C25.5639 29.3333 25.3652 29.251 25.2187 29.1045C25.0722 28.958 24.9899 28.7593 24.9899 28.5521C24.9899 28.3449 25.0722 28.1462 25.2187 27.9997C25.3652 27.8531 25.5639 27.7708 25.7711 27.7708H28.2708L28.2716 25.2711ZM3.16748 25.2711V28.5521C3.16748 28.7593 3.24979 28.958 3.39631 29.1045C3.54282 29.251 3.74154 29.3333 3.94874 29.3333H7.22556C7.43276 29.3333 7.63148 29.251 7.77799 29.1045C7.92451 28.958 8.00682 28.7593 8.00682 28.5521C8.00682 28.3449 7.92451 28.1462 7.77799 27.9997C7.63148 27.8531 7.43276 27.7708 7.22556 27.7708H4.72917V25.2711C4.72917 25.1685 4.70896 25.0669 4.6697 24.9722C4.63044 24.8774 4.57289 24.7913 4.50034 24.7187C4.4278 24.6462 4.34167 24.5886 4.24689 24.5494C4.1521 24.5101 4.05051 24.4899 3.94791 24.4899C3.74071 24.4899 3.542 24.5722 3.39548 24.7187C3.24897 24.8652 3.16666 25.0639 3.16666 25.2711H3.16748ZM29.83 6.72558V3.44793C29.83 3.24073 29.7477 3.04201 29.6012 2.8955C29.4547 2.74898 29.256 2.66667 29.0488 2.66667H25.7711C25.5639 2.66667 25.3652 2.74898 25.2187 2.8955C25.0722 3.04201 24.9899 3.24073 24.9899 3.44793C24.9899 3.65513 25.0722 3.85385 25.2187 4.00036C25.3652 4.14687 25.5639 4.22918 25.7711 4.22918H28.2708V6.72558C28.2708 6.93278 28.3531 7.13149 28.4996 7.27801C28.6461 7.42452 28.8449 7.50683 29.0521 7.50683C29.2593 7.50683 29.458 7.42452 29.6045 7.27801C29.751 7.13149 29.8333 6.93278 29.8333 6.72558H29.83Z" fill="#339ad5"/>
</svg>
