<svg xmlns="http://www.w3.org/2000/svg" width="38" height="38" viewBox="0 0 38 38">
  <g id="Group_42398" data-name="Group 42398" transform="translate(-162 -205)">
    <g id="Group_42376" data-name="Group 42376" transform="translate(26 -376)">
      <rect id="Rectangle_19303" data-name="Rectangle 19303" width="38" height="38" transform="translate(136 581)" fill="none"/>
      <g id="appointment" transform="translate(140 585)">
        <g id="Group_42377" data-name="Group 42377">
          <g id="Group_42376-2" data-name="Group 42376">
            <path id="Path_45989" data-name="Path 45989" d="M27.07,2.578H24.277v-.82a1.758,1.758,0,1,0-3.516,0v.82H10.918v-.82a1.758,1.758,0,0,0-3.516,0V2.6a.585.585,0,0,0-.156-.022H4.912a2.933,2.933,0,0,0-2.93,2.93v9.98a.586.586,0,1,0,1.172,0V8.613H24.277a.586.586,0,1,0,0-1.172H3.154V5.508A1.76,1.76,0,0,1,4.912,3.75H7.246A.587.587,0,0,0,7.4,3.728v.754a1.758,1.758,0,0,0,3.516,0V3.75h9.844v.732a1.758,1.758,0,1,0,3.516,0V3.75H27.07a1.76,1.76,0,0,1,1.758,1.758V27.773a1.055,1.055,0,1,1-2.11,0V26.257a.586.586,0,0,0-.586-.586H19.316a.586.586,0,1,0,0,1.172h6.23v.93a2.213,2.213,0,0,0,.266,1.055H2.227a1.056,1.056,0,0,1-1.055-1.055v-.93H14.287a.586.586,0,0,0,0-1.172H8.432a4.8,4.8,0,1,0-6.261,0H.586A.586.586,0,0,0,0,26.257v1.516A2.229,2.229,0,0,0,2.227,30H27.773A2.229,2.229,0,0,0,30,27.773V5.508A2.933,2.933,0,0,0,27.07,2.578ZM9.746,4.482a.586.586,0,1,1-1.172,0V1.758a.586.586,0,0,1,1.172,0Zm13.359,0a.586.586,0,1,1-1.172,0V1.758a.586.586,0,0,1,1.172,0ZM1.669,22.031A3.633,3.633,0,1,1,5.3,25.664,3.637,3.637,0,0,1,1.669,22.031Z" fill="#148AFF"/>
            <path id="Path_45989_-_Outline" data-name="Path 45989 - Outline" d="M9.16-.15a1.91,1.91,0,0,1,1.908,1.908v.67h9.544v-.67a1.908,1.908,0,0,1,3.816,0v.67H27.07a3.083,3.083,0,0,1,3.08,3.08V27.773a2.38,2.38,0,0,1-2.377,2.377H2.227A2.379,2.379,0,0,1-.15,27.773V26.257a.737.737,0,0,1,.736-.736h1.2a4.955,4.955,0,1,1,7.024,0h5.473a.736.736,0,1,1,0,1.472H1.322v.78a.906.906,0,0,0,.9.9H25.576a2.38,2.38,0,0,1-.179-.905v-.78h-6.08a.736.736,0,1,1,0-1.472h6.816a.737.737,0,0,1,.736.736v1.516a.905.905,0,0,0,1.81,0V5.508A1.61,1.61,0,0,0,27.07,3.9H24.427v.582a1.908,1.908,0,1,1-3.816,0V3.9H11.068v.582a1.908,1.908,0,1,1-3.816,0V3.9H4.912A1.61,1.61,0,0,0,3.3,5.508V7.291H24.277a.736.736,0,1,1,0,1.472H3.3v6.725a.736.736,0,1,1-1.472,0V5.508a3.083,3.083,0,0,1,3.08-3.08H7.252v-.67A1.91,1.91,0,0,1,9.16-.15ZM20.912,2.728H10.768v-.97a1.608,1.608,0,0,0-3.216,0V2.8l-.19-.052a.438.438,0,0,0-.116-.016H4.912a2.783,2.783,0,0,0-2.78,2.78v9.98a.436.436,0,1,0,.872,0V8.463H24.277a.436.436,0,1,0,0-.872H3V5.508A1.91,1.91,0,0,1,4.912,3.6H7.246a.439.439,0,0,0,.116-.016l.19-.052v.951a1.608,1.608,0,1,0,3.216,0V3.6H20.912v.882a1.608,1.608,0,1,0,3.216,0V3.6H27.07a1.91,1.91,0,0,1,1.908,1.908V27.773a1.205,1.205,0,1,1-2.41,0V26.257a.436.436,0,0,0-.436-.436H19.316a.436.436,0,1,0,0,.872H25.7v1.08a2.076,2.076,0,0,0,.248.984l.12.221H2.227a1.206,1.206,0,0,1-1.2-1.2v-1.08H14.287a.436.436,0,1,0,0-.872H8.028l.306-.264a4.655,4.655,0,1,0-6.066,0l.306.264H.586a.436.436,0,0,0-.436.436v1.516A2.079,2.079,0,0,0,2.227,29.85H27.773a2.079,2.079,0,0,0,2.077-2.077V5.508a2.783,2.783,0,0,0-2.78-2.78H24.127v-.97a1.608,1.608,0,0,0-3.216,0ZM9.16,1.022a.737.737,0,0,1,.736.736V4.482a.736.736,0,1,1-1.472,0V1.758A.737.737,0,0,1,9.16,1.022Zm0,3.9A.436.436,0,0,0,9.6,4.482V1.758a.436.436,0,0,0-.872,0V4.482A.436.436,0,0,0,9.16,4.918Zm13.359-3.9a.737.737,0,0,1,.736.736V4.482a.736.736,0,1,1-1.472,0V1.758A.737.737,0,0,1,22.52,1.022Zm0,3.9a.436.436,0,0,0,.436-.436V1.758a.436.436,0,0,0-.872,0V4.482A.436.436,0,0,0,22.52,4.918ZM5.3,18.248a3.783,3.783,0,1,1-3.783,3.783A3.787,3.787,0,0,1,5.3,18.248Zm0,7.266a3.483,3.483,0,1,0-3.483-3.483A3.487,3.487,0,0,0,5.3,25.514Z" fill="#148AFF"/>
          </g>
        </g>
        <g id="Group_42379" data-name="Group 42379" transform="translate(26.44 7.441)">
          <g id="Group_42378" data-name="Group 42378">
            <path id="Path_45990" data-name="Path 45990" d="M452.24,127.172a.586.586,0,1,0,.172.414A.59.59,0,0,0,452.24,127.172Z" transform="translate(-451.24 -127)" fill="#148AFF"/>
            <path id="Path_45990_-_Outline" data-name="Path 45990 - Outline" d="M451.826,126.85a.736.736,0,1,1-.52.216A.741.741,0,0,1,451.826,126.85Zm0,1.172a.436.436,0,1,0-.308-.128A.439.439,0,0,0,451.826,128.022Z" transform="translate(-451.24 -127)" fill="#148AFF"/>
          </g>
        </g>
        <g id="Group_42381" data-name="Group 42381" transform="translate(16.499 25.672)">
          <g id="Group_42380" data-name="Group 42380">
            <path id="Path_45991" data-name="Path 45991" d="M282.58,438.3a.586.586,0,1,0,.172.414A.59.59,0,0,0,282.58,438.3Z" transform="translate(-281.58 -438.13)" fill="#148AFF"/>
            <path id="Path_45991_-_Outline" data-name="Path 45991 - Outline" d="M282.166,437.98a.735.735,0,1,1-.521.215A.741.741,0,0,1,282.166,437.98Zm0,1.171a.435.435,0,1,0-.308-.127A.438.438,0,0,0,282.166,439.151Z" transform="translate(-281.58 -438.13)" fill="#148AFF"/>
          </g>
        </g>
        <g id="Group_42383" data-name="Group 42383" transform="translate(13.03 18.813)">
          <g id="Group_42382" data-name="Group 42382">
            <path id="Path_45992" data-name="Path 45992" d="M190.472,304a2.227,2.227,0,1,0,2.227,2.227A2.229,2.229,0,0,0,190.472,304Zm0,3.281a1.055,1.055,0,1,1,1.055-1.055A1.056,1.056,0,0,1,190.472,307.281Z" transform="translate(-188.245 -304)" fill="#148AFF"/>
            <path id="Path_45992_-_Outline" data-name="Path 45992 - Outline" d="M190.472,303.85a2.377,2.377,0,1,1-2.377,2.377A2.379,2.379,0,0,1,190.472,303.85Zm0,4.453a2.077,2.077,0,1,0-2.077-2.077A2.079,2.079,0,0,0,190.472,308.3Zm0-3.281a1.2,1.2,0,1,1-1.2,1.2A1.206,1.206,0,0,1,190.472,305.022Zm0,2.109a.9.9,0,1,0-.9-.9A.906.906,0,0,0,190.472,307.131Z" transform="translate(-188.245 -304)" fill="#148AFF"/>
          </g>
        </g>
        <g id="Group_42387" data-name="Group 42387" transform="translate(21.968 18.813)">
          <g id="Group_42386" data-name="Group 42386">
            <path id="Path_45994" data-name="Path 45994" d="M377.138,304a2.227,2.227,0,1,0,2.227,2.227A2.229,2.229,0,0,0,377.138,304Zm0,3.281a1.055,1.055,0,1,1,1.055-1.055A1.056,1.056,0,0,1,377.138,307.281Z" transform="translate(-374.912 -304)" fill="#148AFF"/>
            <path id="Path_45994_-_Outline" data-name="Path 45994 - Outline" d="M377.138,303.85a2.377,2.377,0,1,1-2.377,2.377A2.379,2.379,0,0,1,377.138,303.85Zm0,4.453a2.077,2.077,0,1,0-2.077-2.077A2.079,2.079,0,0,0,377.138,308.3Zm0-3.281a1.2,1.2,0,1,1-1.2,1.2A1.206,1.206,0,0,1,377.138,305.022Zm0,2.109a.9.9,0,1,0-.9-.9A.906.906,0,0,0,377.138,307.131Z" transform="translate(-374.912 -304)" fill="#148AFF"/>
          </g>
        </g>
        <g id="Group_42389" data-name="Group 42389" transform="translate(4.561 11.719)">
          <g id="Group_42388" data-name="Group 42388">
            <path id="Path_45995" data-name="Path 45995" d="M97.139,200a2.227,2.227,0,1,0,2.227,2.227A2.229,2.229,0,0,0,97.139,200Zm0,3.281a1.055,1.055,0,1,1,1.055-1.055A1.056,1.056,0,0,1,97.139,203.281Z" transform="translate(-94.912 -200)" fill="#148AFF"/>
            <path id="Path_45995_-_Outline" data-name="Path 45995 - Outline" d="M97.139,199.85a2.377,2.377,0,1,1-2.377,2.377A2.379,2.379,0,0,1,97.139,199.85Zm0,4.453a2.077,2.077,0,1,0-2.077-2.077A2.079,2.079,0,0,0,97.139,204.3Zm0-3.281a1.2,1.2,0,1,1-1.2,1.2A1.206,1.206,0,0,1,97.139,201.022Zm0,2.109a.9.9,0,1,0-.9-.9A.906.906,0,0,0,97.139,203.131Z" transform="translate(-94.912 -200)" fill="#148AFF"/>
          </g>
        </g>
        <g id="Group_42393" data-name="Group 42393" transform="translate(21.968 11.719)">
          <g id="Group_42392" data-name="Group 42392">
            <path id="Path_45997" data-name="Path 45997" d="M377.138,200a2.227,2.227,0,1,0,2.227,2.227A2.229,2.229,0,0,0,377.138,200Zm0,3.281a1.055,1.055,0,1,1,1.055-1.055A1.056,1.056,0,0,1,377.138,203.281Z" transform="translate(-374.912 -200)" fill="#148AFF"/>
            <path id="Path_45997_-_Outline" data-name="Path 45997 - Outline" d="M377.138,199.85a2.377,2.377,0,1,1-2.377,2.377A2.379,2.379,0,0,1,377.138,199.85Zm0,4.453a2.077,2.077,0,1,0-2.077-2.077A2.079,2.079,0,0,0,377.138,204.3Zm0-3.281a1.2,1.2,0,1,1-1.2,1.2A1.206,1.206,0,0,1,377.138,201.022Zm0,2.109a.9.9,0,1,0-.9-.9A.906.906,0,0,0,377.138,203.131Z" transform="translate(-374.912 -200)" fill="#148AFF"/>
          </g>
        </g>
        <g id="Group_42395" data-name="Group 42395" transform="translate(11.03 11.719)">
          <g id="Group_42394" data-name="Group 42394" transform="translate(2)">
            <path id="Path_45998" data-name="Path 45998" d="M190.472,200a2.227,2.227,0,1,0,2.227,2.227A2.229,2.229,0,0,0,190.472,200Zm0,3.281a1.055,1.055,0,1,1,1.055-1.055A1.056,1.056,0,0,1,190.472,203.281Z" transform="translate(-188.245 -200)" fill="#148AFF"/>
            <path id="Path_45998_-_Outline" data-name="Path 45998 - Outline" d="M190.472,199.85a2.377,2.377,0,1,1-2.377,2.377A2.379,2.379,0,0,1,190.472,199.85Zm0,4.453a2.077,2.077,0,1,0-2.077-2.077A2.079,2.079,0,0,0,190.472,204.3Zm0-3.281a1.2,1.2,0,1,1-1.2,1.2A1.206,1.206,0,0,1,190.472,201.022Zm0,2.109a.9.9,0,1,0-.9-.9A.906.906,0,0,0,190.472,203.131Z" transform="translate(-188.245 -200)" fill="#148AFF"/>
          </g>
        </g>
        <g id="Group_42397" data-name="Group 42397" transform="translate(3 20.432)">
          <g id="Group_42396" data-name="Group 42396">
            <path id="Path_45999" data-name="Path 45999" d="M55.583,348.872a.586.586,0,0,0-.829,0l-1.908,1.908-.652-.652a.586.586,0,0,0-.829.829l1.066,1.066a.586.586,0,0,0,.829,0l2.323-2.323A.586.586,0,0,0,55.583,348.872Z" transform="translate(-51.194 -348.7)" fill="#148AFF"/>
            <path id="Path_45999_-_Outline" data-name="Path 45999 - Outline" d="M55.169,348.55a.736.736,0,0,1,.52,1.256l-2.323,2.323a.736.736,0,0,1-1.041,0l-1.066-1.066a.736.736,0,0,1,1.041-1.041l.546.546,1.8-1.8A.731.731,0,0,1,55.169,348.55Zm-2.323,3.494a.433.433,0,0,0,.308-.128l2.323-2.323a.436.436,0,0,0-.617-.616l-2.014,2.014-.758-.758a.436.436,0,1,0-.617.617l1.066,1.066A.433.433,0,0,0,52.847,352.045Z" transform="translate(-51.194 -348.7)" fill="#148AFF"/>
          </g>
        </g>
      </g>
    </g>
  </g>
</svg>
