<svg xmlns="http://www.w3.org/2000/svg" version="1.1" xmlns:xlink="http://www.w3.org/1999/xlink" xmlns:svgjs="http://svgjs.com/svgjs" width="512" height="512" x="0" y="0" viewBox="0 0 464.374 464.374" style="enable-background:new 0 0 512 512" xml:space="preserve" class=""><g transform="matrix(6.123233995736766e-17,-1,1,6.123233995736766e-17,0.00020086020228404777,464.37367571145296)"><path d="M261.284 406.263c-112.163 0-203.09-90.926-203.09-203.09S149.12.084 261.284.084s203.09 90.926 203.09 203.09-90.927 203.089-203.09 203.089zm0-348.153c-80.117 0-145.064 64.947-145.064 145.064s64.947 145.064 145.064 145.064 145.064-64.947 145.064-145.064S341.4 58.11 261.284 58.11z" fill="#ffffff" data-original="#000000" class=""></path><path d="M29.181 464.289a29.01 29.01 0 0 1-20.599-8.414c-11.377-11.284-11.452-29.653-.168-41.03l.168-.168L117.67 305.589c11.777-11.377 30.547-11.052 41.924.725s11.052 30.547-.725 41.924L49.78 455.875a29.01 29.01 0 0 1-20.599 8.414z" fill="#ffffff" data-original="#000000" class=""></path></g></svg>