<svg xmlns="http://www.w3.org/2000/svg" xmlns:xlink="http://www.w3.org/1999/xlink" width="293.318" height="147.678" viewBox="0 0 293.318 147.678">
  <defs>
    <clipPath id="clip-path">
      <rect id="Rectangle_18719" data-name="Rectangle 18719" width="32.708" height="29.199" fill="#daece2"/>
    </clipPath>
    <clipPath id="clip-path-2">
      <rect id="Rectangle_18720" data-name="Rectangle 18720" width="18.88" height="29.852" fill="#daece2"/>
    </clipPath>
    <clipPath id="clip-path-3">
      <rect id="Rectangle_18721" data-name="Rectangle 18721" width="47.626" height="54.533" fill="#339ad5"/>
    </clipPath>
  </defs>
  <g id="security_alery" data-name="security alery" transform="translate(27.769 -8.875)">
    <g id="Group_40217" data-name="Group 40217" transform="translate(18.471 18.905)">
      <g id="Group_40214" data-name="Group 40214">
        <g id="Group_40218" data-name="Group 40218">
          <path id="Path_44178" data-name="Path 44178" d="M49.4,147.681S21.33,120.433,39.19,88.374s41.848-15.936,40.687-53.25,55.167-40.519,73.1-29.7S233.981,38.4,275.745,24.963,319.83,56.592,310.2,74.909c-13.663,25.988,37.92,21.7,5.417,72.773Z" transform="translate(-79.485 -10.033)" fill="#339ad5" opacity="0.041"/>
          <g id="Group_40206" data-name="Group 40206" transform="translate(126.754 35.855)">
            <g id="Group_40205" data-name="Group 40205">
              <g id="Group_40204" data-name="Group 40204" clip-path="url(#clip-path)">
                <path id="Path_44106" data-name="Path 44106" d="M1595.006,650.6s6.2-26.292,27.13-29.183a5.159,5.159,0,0,1,5.427,3.983c1.356,4.483-6.739,4.516-11.744,6.319s-16.67,9.448-20.814,18.88" transform="translate(-1595.006 -621.402)" fill="#daece2"/>
              </g>
            </g>
          </g>
          <g id="Group_40209" data-name="Group 40209" transform="translate(126.17 30.282)">
            <g id="Group_40208" data-name="Group 40208">
              <g id="Group_40207" data-name="Group 40207" clip-path="url(#clip-path-2)">
                <path id="Path_44107" data-name="Path 44107" d="M1588.84,591.234s-2.176-21.778,13.1-29.507a4.18,4.18,0,0,1,5.208,1.622c2.22,3.078-3.973,5.236-7.332,7.936s-10.282,11.632-10.971,19.95" transform="translate(-1588.733 -561.382)" fill="#daece2"/>
              </g>
            </g>
          </g>
          <path id="Path_44109" data-name="Path 44109" d="M368.328,1200.8c-3.231-7.362,8.488-13.687,8.488-13.687s15.443,5,17.66,3.627-12.369-6.852-12.369-6.852c3.6-3.521,17.4-6.748,17.4-6.748s9.308,12.845,11.12,10.971-8.822-10.954-8.822-10.954c4.69-1.909,11.764-.342,11.764-.342,10.187,3.627,5,16.521,5,16.521a25.792,25.792,0,0,0,9.921,7.163h0a18.7,18.7,0,0,1,3.175,1.478l-1.03.829c-.307-.208-.614-.4-.923-.574a.008.008,0,0,0-.006,0l-.013-.008c-.2-.1-.482-.247-.831-.421h0c-.811-.362-1.39-.646-1.789-.866l0,0c-2.5-1.174-5.887-2.6-7.218-2.4a2.556,2.556,0,0,0-.16-.65l.16.65c1.28,5.2-7.026,12.925-12.748,15.873s-4.7-.161-3.863-4.539,6.85-8.247,7.777-10.446-2.175-1.154-5.246,1.734-2.071,7.48-6.953,12.243-16.922-1.938-16.922-1.938c4.564-1.808,9.488-9.1,8.726-10.557s-10.355,6.472-12.17,7.312-6.893-.053-10.124-7.414" transform="translate(-354.958 -1088.847)" fill="#daece2"/>
          <path id="Path_44110" data-name="Path 44110" d="M1422.184,1218.323c4.714-5.561-3.834-14.092-3.834-14.092s-14.714.346-16.286-1.419,12.522-2.753,12.522-2.753c-2.216-3.992-13.373-10.368-13.373-10.368s-11.414,8.754-12.5,6.656,10.5-7.235,10.5-7.235c-3.581-2.873-10.135-3.342-10.135-3.342-9.792.515-8.624,13.062-8.624,13.062a23.387,23.387,0,0,1-10.475,3.656h0a16.982,16.982,0,0,0-3.141.463l.68.987c.32-.1.637-.189.951-.26h.006l.014,0c.2-.037.483-.09.831-.151h0c.8-.1,1.375-.2,1.778-.29h0c2.476-.373,5.788-.735,6.893-.216a2.331,2.331,0,0,1,.307-.523l-.307.523c-2.457,4.185,2.761,13.051,6.97,17.094s4.123,1.076,4.532-2.944-3.819-8.94-4.055-11.091,2.189-.44,4.11,2.865-.137,7.036,2.873,12.439,15.208,2.7,15.208,2.7c-3.5-2.752-5.891-10.36-4.85-11.433s7.324,8.305,8.684,9.5,6,1.738,10.717-3.823" transform="translate(-1261.268 -1097.515)" fill="#daece2"/>
          <g id="Group_40212" data-name="Group 40212" transform="translate(50.598 20.214)" opacity="0.108">
            <g id="Group_40211" data-name="Group 40211">
              <g id="Group_40210" data-name="Group 40210" clip-path="url(#clip-path-3)">
                <path id="Path_44111" data-name="Path 44111" d="M672.658,336.673c4.036-6.773,15.762-1.021,15.762-1.021s4.807,15.175,7.164,16.164-1.577-13.777-1.577-13.777c4.861.867,15.3,10.045,15.3,10.045s-4.952,14.748-2.423,15.127,3.718-13.283,3.718-13.283c4.2,2.656,6.974,9.2,6.974,9.2,2.907,10.2-10.338,13.405-10.338,13.405a25.292,25.292,0,0,0-.067,12h0a18.349,18.349,0,0,1,.628,3.376l-1.249-.35c-.008-.363-.03-.718-.068-1.064a.008.008,0,0,0,0-.006l0-.015c-.031-.217-.078-.526-.137-.9h0s0,0,0,0c-.172-.854-.276-1.477-.327-1.921a.013.013,0,0,1,0,0c-.487-2.664-1.279-6.18-2.2-7.128a2.51,2.51,0,0,0,.427-.5l-.427.5c-3.42,3.982-14.32,1.753-19.933-1.135s-2.547-3.841,1.422-5.669,10.485.771,12.769.258-.318-2.394-4.372-3.2-7.151,2.608-13.734,1.424-8.092-14.613-8.092-14.613c4.043,2.613,12.666,2.393,13.4.952s-11.066-4.579-12.77-5.55-3.884-5.533.152-12.305" transform="translate(-670.366 -333.373)" fill="#339ad5"/>
              </g>
            </g>
          </g>
          <path id="Path_44112" data-name="Path 44112" d="M1284.268,273.721a3.723,3.723,0,0,1,.282-1.461,3.415,3.415,0,0,1,.8-1.161,3.662,3.662,0,0,1,1.239-.766,4.562,4.562,0,0,1,1.631-.275,4.664,4.664,0,0,1,1.644.275,3.643,3.643,0,0,1,1.251.766,3.42,3.42,0,0,1,.8,1.161,3.734,3.734,0,0,1,.282,1.461,3.646,3.646,0,0,1-.282,1.449,3.442,3.442,0,0,1-.8,1.149,3.631,3.631,0,0,1-1.251.766,4.668,4.668,0,0,1-1.644.275,4.566,4.566,0,0,1-1.631-.275,3.65,3.65,0,0,1-1.239-.766,3.437,3.437,0,0,1-.8-1.149,3.635,3.635,0,0,1-.282-1.449m6.893-6.813h-5.887l-.834-20.116h7.555Z" transform="translate(-1186.366 -245.719)" fill="#ff7d5d"/>
          <path id="Path_44113" data-name="Path 44113" d="M1092.813,117.948a2.142,2.142,0,0,1,.163-.841,1.963,1.963,0,0,1,.459-.669,2.109,2.109,0,0,1,.714-.441,2.629,2.629,0,0,1,.94-.159,2.692,2.692,0,0,1,.947.159,2.1,2.1,0,0,1,.721.441,1.97,1.97,0,0,1,.459.669,2.148,2.148,0,0,1,.163.841,2.1,2.1,0,0,1-.163.835,1.981,1.981,0,0,1-.459.662,2.092,2.092,0,0,1-.721.441,2.693,2.693,0,0,1-.947.159,2.631,2.631,0,0,1-.94-.159,2.1,2.1,0,0,1-.714-.441,1.974,1.974,0,0,1-.459-.662,2.091,2.091,0,0,1-.163-.835m3.971-3.925h-3.391l-.48-11.588h4.353Z" transform="translate(-1008.066 -99.831)" fill="#daece2"/>
          <path id="Path_44114" data-name="Path 44114" d="M2038.188,400.49a2.363,2.363,0,0,1,.179-.927,2.17,2.17,0,0,1,.506-.737,2.323,2.323,0,0,1,.787-.487,2.9,2.9,0,0,1,1.035-.175,2.964,2.964,0,0,1,1.043.175,2.311,2.311,0,0,1,.794.487,2.173,2.173,0,0,1,.506.737,2.367,2.367,0,0,1,.179.927,2.311,2.311,0,0,1-.179.92,2.186,2.186,0,0,1-.506.73,2.3,2.3,0,0,1-.794.486,2.962,2.962,0,0,1-1.043.175,2.9,2.9,0,0,1-1.035-.175,2.314,2.314,0,0,1-.787-.486,2.183,2.183,0,0,1-.506-.73,2.307,2.307,0,0,1-.179-.92m4.376-4.326h-3.738l-.53-12.771h4.8Z" transform="translate(-1870.286 -355.32)" fill="#daece2"/>
          <path id="Path_44130" data-name="Path 44130" d="M2014.472,1151.131s-.873-.381-1.153-.545-.218.1-.133.234a.967.967,0,0,0,.662.459,1.092,1.092,0,0,0,.623-.148" transform="translate(-1847.541 -1065.551)" fill="#ffb27d"/>
          <path id="Path_44152" data-name="Path 44152" d="M839.979,636.079H803.728a3.305,3.305,0,0,0-2.337.968L775.757,662.68a3.306,3.306,0,0,0-.968,2.337v36.251a3.305,3.305,0,0,0,.968,2.337l25.633,25.633a3.305,3.305,0,0,0,2.337.968h36.251a3.305,3.305,0,0,0,2.337-.968l25.633-25.633a3.305,3.305,0,0,0,.968-2.337V665.018a3.306,3.306,0,0,0-.968-2.337l-25.633-25.633a3.305,3.305,0,0,0-2.337-.968" transform="translate(-724.191 -598.861)" fill="#ff7d5d"/>
          <path id="Path_44153" data-name="Path 44153" d="M883.467,771.534H852.316a4.721,4.721,0,0,1-3.359-1.391L826.93,748.116a4.719,4.719,0,0,1-1.391-3.359V713.606a4.72,4.72,0,0,1,1.391-3.359l22.027-22.027a4.719,4.719,0,0,1,3.359-1.391h31.151a4.719,4.719,0,0,1,3.359,1.391l22.027,22.027a4.719,4.719,0,0,1,1.391,3.359v31.151a4.718,4.718,0,0,1-1.391,3.359l-22.027,22.027a4.719,4.719,0,0,1-3.359,1.391m-31.151-81.475a1.511,1.511,0,0,0-1.075.445l-22.027,22.027a1.51,1.51,0,0,0-.445,1.075v31.151a1.51,1.51,0,0,0,.445,1.075l22.027,22.027a1.51,1.51,0,0,0,1.075.445h31.151a1.511,1.511,0,0,0,1.075-.445l22.027-22.027a1.511,1.511,0,0,0,.445-1.075V713.606a1.51,1.51,0,0,0-.445-1.075L884.542,690.5a1.51,1.51,0,0,0-1.075-.445Z" transform="translate(-770.229 -644.899)" fill="#ffe5d4"/>
          <path id="Path_44154" data-name="Path 44154" d="M1145,863.581l-.635-.55a3.846,3.846,0,0,0-5.409.389l-3.585,4.14a.845.845,0,0,1-1.484-.553,9.132,9.132,0,0,0-.052-.972V839.973a3.121,3.121,0,0,0-3.112-3.112h-.23a3.122,3.122,0,0,0-3.112,3.112v16.963a.745.745,0,0,1-.745.745.823.823,0,0,1-.823-.823V836.686a3.017,3.017,0,0,0-3.008-3.008h-.438a3.017,3.017,0,0,0-3.008,3.008v20.3a.69.69,0,0,1-.69.69.878.878,0,0,1-.878-.878V840.616a3.121,3.121,0,0,0-3.112-3.112h-.23a3.121,3.121,0,0,0-3.112,3.112v16.318a.747.747,0,0,1-.747.747.821.821,0,0,1-.821-.821V844.093a3.121,3.121,0,0,0-3.112-3.112h-.23a3.121,3.121,0,0,0-3.112,3.112v22.416c0,.062,0,.124.006.185,0,.1-.006.209-.006.314v12.338a9.145,9.145,0,0,0,9.118,9.118h12.338a9.13,9.13,0,0,0,7.667-4.2,19.289,19.289,0,0,1,1.616-2.182l11.335-13.091a3.846,3.846,0,0,0-.389-5.409" transform="translate(-1022.216 -778.114)" fill="#ffe5d4"/>
          <g id="Group_40221" data-name="Group 40221" transform="translate(6.9 13.598)">
            <path id="Path_44155" data-name="Path 44155" d="M423.018,808.565c-.436-.84,9.508-3.867,9.665,4.428,0,0,18.628-.458,9.733-10.841-3.079-3.594-2.762-6.566-2.67-9.333s-1.918-10.808-8.813-10a5.135,5.135,0,0,0-4.059.434c-5.125,2.659-16.6,28.368-3.857,25.309" transform="translate(-408.682 -782.594)" fill="#163560"/>
            <path id="Path_44156" data-name="Path 44156" d="M685.371,1016.96s1.212-1.846,2.19-1.882,2.787-.543,2.642-.181-1.267.4-1.375.615,1.665.543,2.172.579,1.7,0,1.665.253a5.751,5.751,0,0,1-3.646,1.158,10.127,10.127,0,0,0-3.339.434Z" transform="translate(-640.581 -983.374)" fill="#ffb27d"/>
            <path id="Path_44157" data-name="Path 44157" d="M555.68,941.128a18.189,18.189,0,0,0,1.855,2.8c1.441,1.8,3.662,3.889,6.452,4.3a6.924,6.924,0,0,0,3.833-.622h0a17.478,17.478,0,0,0,5.935-4.962,2.785,2.785,0,0,0-.38-2.733s-6.841,1.539-7.492,1.213-4.657-9.212-5.378-10.692a8.113,8.113,0,0,0-3.967-4.048Z" transform="translate(-528.426 -906.945)" fill="#aec3ff"/>
            <path id="Path_44158" data-name="Path 44158" d="M568.019,1032.957c1.441,1.8,3.662,3.889,6.452,4.3a6.922,6.922,0,0,0,3.833-.622c-.132.017-3.516.435-4.864-1.977-1.376-2.461-2.863-6.37-4.907-5.068-.882.563-.843,1.96-.514,3.366" transform="translate(-538.909 -995.97)" fill="#94b0ed"/>
            <path id="Path_44159" data-name="Path 44159" d="M355.85,1575.737s-2.087,1.9-1.68,3.259,2.291,2.256,2.546,3.91,1.273,2.557,2.189,2.557h4.369s.675-1.164-.955-1.515-2.243-2.295-2.142-4.1a31.808,31.808,0,0,0-.153-4.211l-3.462-.8Z" transform="translate(-354.117 -1467.714)" fill="#1d3356"/>
            <path id="Path_44160" data-name="Path 44160" d="M495.741,1587.489s-.751,8.07.165,8.521l11.728-.024s0-1.354-1.884-1.655-5.193-1.4-5.753-3.86-4.257-2.983-4.257-2.983" transform="translate(-476.34 -1478.657)" fill="#1d3356"/>
            <path id="Path_44161" data-name="Path 44161" d="M430.375,929.491a46.7,46.7,0,0,0,0,5.421c.116,1.96,2.1,4.585,2.38,5.234.706,1.629,1.5,1.894,1.5,1.894l6.157,1.509,2.165.53,6.828-2.039s3.11-8.68,1.861-13.566a37.558,37.558,0,0,0-3.157-8.279s-4.629-1.827-12.825-.463Z" transform="translate(-419.996 -900.751)" fill="#aec3ff"/>
            <path id="Path_44162" data-name="Path 44162" d="M444.2,1028.47a19.172,19.172,0,0,0,.578,4.435c.706,1.629,1.5,1.894,1.5,1.894l6.158,1.509,2.674-.786s-8.927-1.353-7.938-9.034Z" transform="translate(-432.022 -993.51)" fill="#f2ccaa"/>
            <path id="Path_44163" data-name="Path 44163" d="M495.964,1097.695s3.381,10.524,3.6,14.107-6.463,50.9-6.732,52.553c-.253,1.556-2.186,2.548-2.186,2.548a2.924,2.924,0,0,1-2.157.166,5.339,5.339,0,0,1-2.316-1.092s-2.632-33.747-1-45.8a190.957,190.957,0,0,0,1.648-22.48Z" transform="translate(-466.988 -1055.089)" fill="#233862"/>
            <path id="Path_44164" data-name="Path 44164" d="M384.408,1095.375s-5.158,6.92-5.638,11.6-.754,21.11-1.779,25.67S372.2,1145.98,372.2,1160.2a2.837,2.837,0,0,0,1.6,1.25,13.17,13.17,0,0,0,1.406.389,2.211,2.211,0,0,0,2.473-1.174c2.545-5.123,10.65-21.646,11.065-25.077.294-2.427,2.853-18.492,8.436-27.918,1.34-2.263-.822-11.263-.822-11.263Z" transform="translate(-369.757 -1053.083)" fill="#2b478b"/>
            <path id="Path_44165" data-name="Path 44165" d="M472.66,1085.68a7.089,7.089,0,0,1-4.054,1.128c-3.221.065-11.2-.821-11.2-.821a6.6,6.6,0,0,0-.34,2.037s9.748,2.459,15.4.359a3.569,3.569,0,0,0,.2-2.7" transform="translate(-443.143 -1044.699)" fill="#233862"/>
            <path id="Path_44166" data-name="Path 44166" d="M537.275,1091.609a1.481,1.481,0,1,1,1.47,1.663,1.577,1.577,0,0,1-1.47-1.663m.487,0a1,1,0,1,0,.982-1.176,1.094,1.094,0,0,0-.982,1.176" transform="translate(-512.509 -1048.388)" fill="#fff"/>
            <path id="Path_44167" data-name="Path 44167" d="M386.62,1016.84l7.915,6.892a1.373,1.373,0,0,0,1.937-.134l10.1-11.6a1.373,1.373,0,0,0-.134-1.937l-7.915-6.893a1.373,1.373,0,0,0-1.937.134l-10.1,11.6a1.373,1.373,0,0,0,.134,1.937" transform="translate(-381.817 -973.053)" fill="#f78248"/>
            <path id="Path_44168" data-name="Path 44168" d="M471.8,1100c.112.03,4.2.511,4.205,1.356a2.544,2.544,0,0,1-2.33,2.226,13.435,13.435,0,0,1-2.569-1.966Z" transform="translate(-455.29 -1057.079)" fill="#ffb27d"/>
            <path id="Path_44169" data-name="Path 44169" d="M491,887.821a13.621,13.621,0,0,0,.73-4.978l.309.061,5.2,1.029s-.118,1.636-.122,3.177c0,.013,0,.026,0,.038-.006,1.339.9,2.681-1.243,3.212-.663.164-5.85-.169-4.872-2.54" transform="translate(-472.386 -869.288)" fill="#ffb27d"/>
            <path id="Path_44170" data-name="Path 44170" d="M504.663,884.323s-.118,1.636-.122,3.177c-2.909-.082-4.446-2.735-5.076-4.206Z" transform="translate(-479.812 -869.678)" fill="#e8945b"/>
            <path id="Path_44171" data-name="Path 44171" d="M500.551,827.427s-6.882.114-6.887-4.173-.9-7.159,3.5-7.413,5.249,1.381,5.6,2.812-.42,8.635-2.21,8.775" transform="translate(-474.729 -811.322)" fill="#ffb27d"/>
            <path id="Path_44172" data-name="Path 44172" d="M486.145,809.659s-1.884,5.029-4.776,5.773-4.146-.031-4.146-.031a8.189,8.189,0,0,0,2.678-4.838s4.822-3.3,6.244-.9" transform="translate(-460.578 -805.246)" fill="#163560"/>
            <path id="Path_44173" data-name="Path 44173" d="M539.754,813.005a4.27,4.27,0,0,1,1.972,1.541,6.929,6.929,0,0,1,.93,3.936s1.42-3.418-.176-5.352c-1.692-2.05-2.727-.125-2.727-.125" transform="translate(-514.654 -808.184)" fill="#163560"/>
            <path id="Path_44174" data-name="Path 44174" d="M476.241,1098.461a4.677,4.677,0,0,1,1.636-.223c.655.092,1.14-.013,1.14.17s-.846.269-1.026.357a8.922,8.922,0,0,1-1.75-.3" transform="translate(-459.728 -1055.544)" fill="#ffb27d"/>
            <path id="Path_44175" data-name="Path 44175" d="M389.27,922.968a8.332,8.332,0,0,0-6.758,4.895c-1.873,4.552-5.425,12.2-5.425,13.481s1.985,5.249,12.643,7.528c0,0,1.1-1.16,1.036-2.077,0,0-6.654-5.715-6.636-6.383.034-1.264,1.091-2.931,6.932-8.775,1.588-1.589-1.792-8.67-1.792-8.67" transform="translate(-373.981 -903.988)" fill="#aec3ff"/>
          </g>
        </g>
      </g>
    </g>
    <g id="Group_40222" data-name="Group 40222" transform="translate(153.854 35.607)">
      <path id="Path_44176" data-name="Path 44176" d="M0,4.507S1.558.713,2.813.639,6.394-.477,6.208.267s-1.628.818-1.767,1.264,2.139,1.116,2.79,1.19,2.186,0,2.139.521S6.6,5.92,4.686,5.623A8.627,8.627,0,0,0,.4,6.515Z" transform="translate(4.826 33.439) rotate(-121)" fill="#ffb27d"/>
      <path id="Path_44115" data-name="Path 44115" d="M1790.065,953.7a44.362,44.362,0,0,1-4.844,7.224h0c-1.839,2.2-3.721,3.864-5.31,4.429l-.012,0c-.083.029-.165.056-.247.078a.02.02,0,0,1-.012,0h0a2.894,2.894,0,0,1-.923.119c-5.213-.234-10.709-11.418-10.709-11.418a3.977,3.977,0,0,1,1.157-2.262,4.687,4.687,0,0,1,1.565-1.03s5.615,5.766,6.987,6.181c.863.26,2-3.766,3.622-8.823s7.337-6.3,7.337-6.3,5.78,3.657,1.39,11.8" transform="translate(-1763.081 -923.546)" fill="#aec3ff"/>
      <path id="Path_44116" data-name="Path 44116" d="M1859.612,1057.359h0c-1.839,2.2-3.721,3.864-5.31,4.429l-.012,0-.246.078-.014,0h0a4.037,4.037,0,0,0,2.024-2.557c.273-1.672-1.5-3.04,2.95-5.627,2.591-1.507.607,3.668.607,3.668" transform="translate(-1837.472 -1019.979)" fill="#94b0ed"/>
      <path id="Path_44117" data-name="Path 44117" d="M1865.211,1606.963h12.219c.875-.594-.236-6.4-.236-6.4s-3.335-1.266-3.911,1.308-4.248,3.389-6.19,3.7a2.091,2.091,0,0,0-1.882,1.387" transform="translate(-1847.141 -1492.878)" fill="#24406d"/>
      <path id="Path_44118" data-name="Path 44118" d="M1904.872,1178.1s-.385,7.129-.867,15.388c-.347,5.922-.742,12.428-1.081,17.3-.045.646-.09,1.264-.132,1.849-.012.181-.026.361-.04.54a108.618,108.618,0,0,1-3.8,20.494c-3.435.724-4.987-.6-4.987-.6s-2.367-27.742-3.244-38.931c-.645-8.237-1.2-20.229-1.2-20.229Z" transform="translate(-1868.169 -1124.181)" fill="#ff9e55"/>
      <path id="Path_44119" data-name="Path 44119" d="M1945.985,1263.4c-.347,5.923-.742,12.428-1.081,17.3-2.246-5.3-6.834-25.947-6.834-25.947Z" transform="translate(-1910.148 -1194.089)" fill="#ed7d2b"/>
      <path id="Path_44120" data-name="Path 44120" d="M1999.241,1606.963h12.219c.875-.594-.236-6.4-.236-6.4s-3.335-1.266-3.911,1.308-4.248,3.389-6.19,3.7a2.091,2.091,0,0,0-1.882,1.387" transform="translate(-1963.049 -1492.878)" fill="#24406d"/>
      <path id="Path_44121" data-name="Path 44121" d="M1914.075,1167.567s8.726,21.721,11.515,29.954c1.987,5.865,7.591,26.439,7.591,26.439a5.632,5.632,0,0,0,4.485-.692s2.085-21.02-2.126-26.947c-2.234-3.145-.555-32.688-9.614-32.941s-11.851,4.187-11.851,4.187" transform="translate(-1889.398 -1115.067)" fill="#ff9e55"/>
      <path id="Path_44122" data-name="Path 44122" d="M1902.435,961.726c-.037,3.089-.071,5.356-.062,5.929.024,1.869-1.171,2.291-2.4,2.575,0,0-1.138.245-2.574.489a28.35,28.35,0,0,1-4.3.46,38.786,38.786,0,0,1-11.254-1.853c-1.153,0-1.678-1.783-1.868-4.273-.128-1.685.392-18.49.458-22.687a10.949,10.949,0,0,1,2.159-6.2c4.278-3.783,16.9-3.306,19.175-.7.562.645.726,6.867.745,13.682.012,4.387-.033,9.021-.075,12.571" transform="translate(-1859.891 -916.212)" fill="#aec3ff"/>
      <path id="Path_44123" data-name="Path 44123" d="M1946.23,900.3c-1.612,1.746-7.025,1.488-6.865-.037.022-.188.057-1.3.075-1.477.014-.139.027-.275.038-.4q.055-.563.091-.995c.072-.836.1-1.289.1-1.289h.005c.155-.044,3.636-1.032,5.367-1.442a2.791,2.791,0,0,1,.96-.159c-.531,3.889.761,5.228.233,5.8" transform="translate(-1911.267 -882.535)" fill="#ffb27d"/>
      <path id="Path_44124" data-name="Path 44124" d="M1946.55,896.925s-1.454,1.477-5.652,1.583c.072-.836.1-1.289.1-1.289H1941c.155-.043,3.636-1.032,5.367-1.441.3.125-.1.938.184,1.147" transform="translate(-1912.594 -883.656)" fill="#ed975d"/>
      <path id="Path_44125" data-name="Path 44125" d="M1929.152,837.032a13.141,13.141,0,0,0,2.418.564c1.981.267,4.587.11,5.406-2.288,1.379-4.036,3.14-6.455-.917-8.1-2.172-.882-3.562-.929-4.505-.592a3.264,3.264,0,0,0-1.67,1.445c-.788,1.235-2.373,8.268-.731,8.974" transform="translate(-1901.817 -823.676)" fill="#ffb27d"/>
      <path id="Path_44126" data-name="Path 44126" d="M1935.9,807.386a1.914,1.914,0,0,0,.732,3.483,14.061,14.061,0,0,1,2.379.437c1.009.448,1.876.924,1.638,2.489-.081.532-.341,1.181,1.03.859a.665.665,0,0,1,.5.03c.569.337-.158,1.972-.377,2.326,0,0-.315,1.171.385,1.741.085.068,1.459.669,4.772-4.4a4.71,4.71,0,0,0,.214-4.314c-.8-1.726-3.043-3.909-7.263-3.909a8.046,8.046,0,0,0-4.005,1.259" transform="translate(-1907.527 -806.127)" fill="#233862"/>
      <path id="Path_44127" data-name="Path 44127" d="M2019.879,1051.17c-.617,2.865-.46,2.9-1.406,2.144-3.854-3.063-2.727-4.667-1.871-7.322s-2.149-6.806,0-8.575c2.1-1.73,3.3,1.059,3.351,1.183.012,4.387-.033,9.021-.075,12.57" transform="translate(-1977.335 -1005.655)" fill="#94b0ed"/>
      <path id="Path_44128" data-name="Path 44128" d="M2000.463,1140.017s-1.452,2.375-2.4,2.291-2.237-.439-2.979.269-1.937,2.534-1.6,3.021,1.677.055,2.643-.477,2.486.262,3.3-.342a28.3,28.3,0,0,0,2.75-3.007Z" transform="translate(-1958.013 -1094.871)" fill="#ffb27d"/>
      <path id="Path_44129" data-name="Path 44129" d="M2024.6,948.58s12.054,11.343,10.489,18.888c-.713,3.438-2.927,6.339-8.825,11.035,0,0-2.791-1.928-3.4-3.494,0,0,5.354-7.541,5.147-8.825-.253-1.572-3.908-5.513-5.219-6.125S2021.6,949.9,2024.6,948.58" transform="translate(-1982.723 -929.319)" fill="#aec3ff"/>
      <path id="Path_44130-2" data-name="Path 44130" d="M2015.092,1151.4s-1.271-.556-1.679-.794-.318.147-.193.34a1.41,1.41,0,0,0,.964.669,1.592,1.592,0,0,0,.908-.216" transform="translate(-1975.046 -1103.966)" fill="#ffb27d"/>
    </g>
  </g>
</svg>
