<svg width="54" height="54" viewBox="0 0 54 54" fill="none" xmlns="http://www.w3.org/2000/svg">
<path d="M26.3908 38.0623C23.4581 38.059 20.6466 36.8923 18.5729 34.8186C16.4993 32.745 15.3328 29.9334 15.3296 27.0008C15.3341 24.069 16.5011 21.2588 18.5746 19.1861C20.6481 17.1135 23.459 15.9476 26.3908 15.9443C29.3225 15.9476 32.1334 17.1135 34.2069 19.1861C36.2805 21.2588 37.4474 24.069 37.4519 27.0008C37.4487 29.9334 36.2823 32.745 34.2086 34.8186C32.1349 36.8923 29.3234 38.059 26.3908 38.0623ZM26.3908 18.0436C24.0162 18.0471 21.7399 18.9917 20.0608 20.6708C18.3818 22.3498 17.4369 24.6262 17.4334 27.0008C17.4369 29.3753 18.3818 31.6517 20.0608 33.3308C21.7399 35.0098 24.0162 35.9549 26.3908 35.9584C28.7653 35.9549 31.0416 35.0098 32.7207 33.3308C34.3998 31.6517 35.3446 29.3753 35.3481 27.0008C35.3446 24.6262 34.3998 22.3498 32.7207 20.6708C31.0416 18.9917 28.7653 18.0471 26.3908 18.0436Z" fill="#148AFF"/>
<path d="M44.9788 28.0519C44.6999 28.0516 44.4325 27.9406 44.2353 27.7434C44.0381 27.5462 43.9272 27.2791 43.9269 27.0002C43.9352 22.4084 42.1313 17.9987 38.9072 14.7293C35.7085 11.4479 31.3465 9.55753 26.7648 9.46757L26.0595 9.45281L27.135 10.5271C27.2327 10.6248 27.3102 10.7411 27.3631 10.8688C27.4159 10.9964 27.443 11.1331 27.4428 11.2713C27.443 11.4094 27.4159 11.5466 27.3631 11.6742C27.3102 11.8019 27.2327 11.9178 27.135 12.0154C27.0373 12.1132 26.9213 12.1908 26.7936 12.2437C26.6659 12.2965 26.5291 12.3236 26.3909 12.3234C26.2528 12.3237 26.1161 12.2965 25.9885 12.2437C25.861 12.1908 25.7452 12.1133 25.6478 12.0154L22.7876 9.15542C22.6897 9.05805 22.6121 8.94225 22.5592 8.81469C22.5064 8.68714 22.4794 8.55025 22.4797 8.41218C22.4796 8.274 22.5067 8.13689 22.5595 8.00921C22.6123 7.88152 22.6898 7.76569 22.7876 7.66802L25.6478 4.80893C25.7449 4.71062 25.8606 4.63234 25.9882 4.57932C26.1158 4.5263 26.2527 4.49946 26.3909 4.50001C26.5292 4.49934 26.6663 4.52629 26.7941 4.57932C26.9219 4.63234 27.0378 4.7105 27.135 4.80893C27.2329 4.9063 27.3105 5.0221 27.3633 5.14966C27.4162 5.27722 27.4432 5.41364 27.4428 5.55171C27.4431 5.68991 27.416 5.82698 27.3632 5.95468C27.3104 6.08238 27.2328 6.19827 27.135 6.29588L26.0783 7.35357L26.745 7.36602C29.3337 7.4079 31.8881 7.96564 34.2585 9.00696C36.5527 10.0133 38.6332 11.4492 40.3878 13.2373C44.012 16.9008 46.0408 21.8487 46.0317 27.002C46.0309 27.2808 45.9197 27.548 45.7223 27.7448C45.525 27.9416 45.2576 28.0519 44.9788 28.0519Z" fill="#148AFF"/>
<path d="M26.3899 49.5001C26.2517 49.5004 26.1148 49.4736 25.9871 49.4208C25.8594 49.368 25.7434 49.29 25.6458 49.1921C25.548 49.0945 25.4704 48.9786 25.4176 48.8509C25.3647 48.7232 25.3377 48.5866 25.338 48.4484C25.3379 48.3104 25.365 48.1734 25.4178 48.0459C25.4706 47.9184 25.5481 47.8027 25.6458 47.7052L26.7024 46.6484L26.0358 46.6364C23.447 46.5945 20.8927 46.0363 18.5222 44.995C16.228 43.9883 14.1476 42.5521 12.393 40.7638C8.76898 37.1006 6.74052 32.1528 6.75003 26.9999C6.75028 26.721 6.86119 26.4539 7.05841 26.2567C7.25563 26.0595 7.52304 25.9485 7.80195 25.9482C8.08086 25.9485 8.34827 26.0595 8.54549 26.2567C8.7427 26.4539 8.85361 26.721 8.85386 26.9999C8.84609 31.5906 10.6496 35.9992 13.8727 39.2681C17.0714 42.5493 21.4335 44.4389 26.015 44.5284L26.7204 44.5436L25.6449 43.4693C25.4482 43.2718 25.3377 43.0043 25.3377 42.7256C25.3377 42.4469 25.4482 42.1794 25.6449 41.9819C25.7424 41.884 25.8584 41.8065 25.9861 41.7537C26.1138 41.7008 26.2507 41.6736 26.3889 41.6739C26.527 41.6732 26.6639 41.7004 26.7915 41.7532C26.9191 41.8061 27.0349 41.8838 27.1321 41.9819L29.9923 44.8419C30.0902 44.9393 30.1678 45.0551 30.2206 45.1826C30.2734 45.3102 30.3005 45.4471 30.3001 45.5852C30.3008 45.7233 30.2739 45.8601 30.221 45.9877C30.1682 46.1153 30.0904 46.2312 29.9923 46.3284L27.1321 49.1884C27.0353 49.2871 26.9198 49.3654 26.7924 49.4189C26.6649 49.4725 26.5281 49.5002 26.3899 49.5001Z" fill="#148AFF"/>
<path d="M21.8149 21.3694V22.7206H24.5532C25.0701 22.6765 25.5863 22.8133 26.0134 23.1077C26.4406 23.4021 26.7527 23.8357 26.8955 24.3344H21.8149V25.6819H26.901C26.7744 26.1573 26.497 26.5789 26.1103 26.8832C25.7236 27.1875 25.2485 27.358 24.7566 27.3693H21.8159V28.7158H23.8104L27.1154 33.5476H28.8887L25.3901 28.5808C26.167 28.5399 26.9049 28.2271 27.4746 27.6971C28.0442 27.1672 28.4091 26.4538 28.506 25.6819H30.2626V24.3344H28.476C28.3554 23.7178 28.048 23.1531 27.5958 22.7169H30.2617V21.3694H21.8149Z" fill="#148AFF"/>
</svg>
