<?xml version="1.0" encoding="utf-8"?>
<!-- Generator: Adobe Illustrator 23.0.1, SVG Export Plug-In . SVG Version: 6.00 Build 0)  -->
<svg version="1.1" id="Layer_1" xmlns="http://www.w3.org/2000/svg" xmlns:xlink="http://www.w3.org/1999/xlink" x="0px" y="0px"
	 viewBox="0 0 64 64" style="enable-background:new 0 0 64 64;" xml:space="preserve">
<style type="text/css">
	.st0{fill:#339ad5;}
	.st1{fill:#FFFFFF;}
</style>
<path class="st0" d="M34,3.2c-8.3,0-15.1,6.7-15.1,14.9S25.7,32.9,34,32.9c3.5,0,6.8-1.2,9.3-3.2l0.9-0.8l0.9-0.9l0.8-0.8
	c2-2.5,3.3-5.7,3.3-9.2C49.1,9.8,42.3,3.2,34,3.2z M33.9,6c6.7,0,12.1,5.4,12.1,12s-5.4,12-12.1,12s-12.1-5.4-12.1-12S27.2,6,33.9,6
	z"/>
<g>
	<g>
		<path class="st0" d="M17.7,33.8c-3.5,0-5.2,0.8-6.9,1.5c0,0,0,0,0,0c-3.4,1.3-9.1,4-9.1,4c-0.7,0.3-1,1.1-0.7,1.8
			c0.3,0.7,1.1,1,1.8,0.7c0,0,5.8-2.7,9-4c1.9-0.8,2.8-1.3,5.9-1.3c6.9,0,6.7,3,9.6,4.7c0,0,0.1,0.1,0.1,0.1c3.6,1.6,7.5,2,10.7,2
			c1.4,0,2.3,0.3,2.7,0.7c0.5,0.4,0.6,0.7,0.6,1.3c0,0.7-0.2,1.1-0.7,1.4c-0.5,0.3-1.4,0.6-2.7,0.6H31c-3,0-8.1-1.3-8.1-1.3
			c-0.5-0.1-1,0-1.3,0.4c-0.3,0.3-0.5,0.8-0.3,1.3c0.1,0.5,0.5,0.8,1,1c0,0,5.1,1.4,8.8,1.4h7.1c1.4,0,2.6-0.2,3.6-0.7
			c0.1,0,0.3-0.1,0.4-0.2l12.9-8.4c1.9-1.1,3.2-1.4,4-1.4c0.8,0,1,0.2,1.3,0.5c0.3,0.4,0.4,0.6,0.1,1.1c-0.2,0.5-0.9,1.3-2.1,2.1
			c0,0,0,0,0,0c-1.5,1-17.9,11.7-19.8,12.8c-1.4,0.8-2.6,1.7-3.9,2c-1.3,0.4-2.8,0.4-5.4-0.8c-1.7-0.8-8.9-4.5-11.2-5.7
			c-1.3-0.7-2.4-1-3.5-1c-1.1,0.1-2.1,0.5-3.1,1.2c0,0,0,0,0,0L8,53.9c-0.4,0.3-0.7,0.7-0.7,1.2c0,0.5,0.3,0.9,0.7,1.2
			c0.4,0.2,1,0.2,1.4-0.1l3.3-2.1c0.9-0.5,1.3-0.7,1.8-0.8c0.4,0,1.1,0.1,2.2,0.7c2.3,1.2,9.4,4.8,11.3,5.7c2.9,1.4,5.3,1.5,7.2,1
			c1.9-0.5,3.3-1.6,4.5-2.3c2.6-1.5,18.1-11.6,20-13c1.4-1,2.5-2,3-3.3c0.5-1.2,0.4-2.8-0.5-3.9c0,0,0,0,0,0
			c-0.7-0.9-1.9-1.6-3.4-1.6c-0.9,0-1.8,0.2-2.9,0.6c-0.2-0.3-0.5-0.6-0.9-0.9c-0.8-0.6-2-1.1-3.7-1.1c-0.9,0-1.6,0.2-2.2,0.4
			c-0.8-0.8-2.3-1.8-4.4-1.8c-1.7,0-3.3,0.6-4.4,1.2c-0.2,0.1-0.7,0.4-1.6,1c-0.8,0.5-2,1.2-3,1.9c-1.7,1.1-2.8,1.8-3.4,2.2
			c-1.3-0.3-2.7-0.6-3.9-1.2C27.5,38.2,25.5,33.8,17.7,33.8z"/>
	</g>
	<path class="st1" d="M45,36.6c0.9,0,1.5,0.2,1.9,0.5l-6.3,3.9c-0.7-0.2-1.6-0.3-2.5-0.3c-0.4,0-0.8,0-1.2,0
		c0.3-0.2,0.3-0.2,0.5-0.3c1.1-0.7,2.2-1.4,3-1.9c0.8-0.5,1.5-1,1.5-0.9C42.6,37,44,36.6,45,36.6z"/>
	<path class="st1" d="M51.5,37.9c1.1,0,1.7,0.3,2.1,0.5c0,0,0,0-0.1,0l-9.4,6.1c-0.1-0.8-0.4-1.5-0.9-2.1l6.5-4.1l0,0
		C49.8,38.4,50.9,37.9,51.5,37.9z"/>
</g>
<g>
	<path class="st0" d="M34.6,25.2l-3.5-4.2c-0.3-0.3-0.6-0.7-0.9-0.9c-0.2-0.2-0.5-0.2-0.8-0.2h-0.3v-1.8h1.4c0.4,0,0.7,0,1.1-0.1
		c0.3,0,0.6-0.1,0.9-0.3c0.2-0.1,0.5-0.3,0.6-0.5c0.1-0.1,0.2-0.3,0.2-0.5h-4.8l0.9-1.6h3.8c0-0.1-0.1-0.2-0.1-0.2
		c-0.1-0.2-0.2-0.3-0.4-0.4c-0.2-0.1-0.4-0.2-0.6-0.3c-0.3-0.1-0.5-0.1-0.8-0.1h-2.8l0.9-1.6h9l-0.9,1.6h-2.4
		c0.1,0.1,0.1,0.2,0.2,0.3c0.1,0.2,0.2,0.5,0.2,0.7h2.8l-0.9,1.6h-1.9c-0.1,0.3-0.2,0.6-0.3,0.9c-0.2,0.3-0.5,0.7-0.8,0.9
		c-0.3,0.3-0.7,0.5-1,0.7c-0.2,0.1-0.5,0.2-0.7,0.3l4.6,5.5L34.6,25.2z"/>
	<path class="st0" d="M30.4,19.9c0.4,0.3,0.7,0.6,1,1l3.4,4l0,0l-3.4-4C31.1,20.6,30.8,20.2,30.4,19.9c-0.3-0.2-0.6-0.3-0.9-0.3
		C29.8,19.6,30.1,19.8,30.4,19.9z"/>
	<path class="st0" d="M33.8,16.6L33.8,16.6z"/>
	<path class="st0" d="M31.4,14c0.5,0,1.1,0.2,1.5,0.5c0.4,0.3,0.6,0.7,0.7,1.1c-0.1-0.5-0.4-0.9-0.7-1.1C32.5,14.1,32,14,31.4,14
		L31.4,14z"/>
	<path class="st0" d="M37.5,14L37.5,14z"/>
</g>
</svg>
