<?xml version="1.0" encoding="utf-8"?>
<!-- Generator: Adobe Illustrator 23.0.1, SVG Export Plug-In . SVG Version: 6.00 Build 0)  -->
<svg version="1.1" id="Layer_1" xmlns="http://www.w3.org/2000/svg" xmlns:xlink="http://www.w3.org/1999/xlink" x="0px" y="0px"
	 viewBox="0 0 32 32" style="enable-background:new 0 0 32 32;" xml:space="preserve">
<style type="text/css">
	.st0{opacity:0;}
	.st1{fill:#339ad5;}
	.st2{fill:none;stroke:#339ad5;stroke-width:0.5;}
	.st3{fill:#339ad5;stroke:#339ad5;stroke-width:0.3;}
</style>
<g id="share-qr" transform="translate(0.063)">
	<g id="Rectangle_18710" transform="translate(-0.063)" class="st0">
		<rect class="st1" width="32" height="32"/>
		<rect x="0.3" y="0.3" class="st2" width="31.5" height="31.5"/>
	</g>
	<g id="qr-code" transform="translate(4.685 4.664)">
		<g id="Group_14">
			<g id="Group_13">
				<path id="Path_11" class="st3" d="M9.1-2.2H-1.5c-0.4,0-0.8,0.4-0.8,0.8V9.2c0,0.4,0.4,0.8,0.8,0.8H9.1c0.4,0,0.8-0.4,0.8-0.8
					V-1.4C9.9-1.9,9.5-2.2,9.1-2.2z M8.3,8.4h-9v-9h9V8.4z"/>
			</g>
		</g>
		<g id="Group_16" transform="translate(3.1 3.1)">
			<g id="Group_15">
				<path id="Path_12" class="st3" d="M2.3-1.6h-3.2c-0.4,0-0.8,0.4-0.8,0.8l0,0v3.2c0,0.4,0.4,0.8,0.8,0.8l0,0h3.2
					c0.4,0,0.8-0.4,0.8-0.8l0,0v-3.2C3.1-1.2,2.7-1.6,2.3-1.6L2.3-1.6z M1.5,1.6h-1.6V0h1.6L1.5,1.6z"/>
			</g>
		</g>
		<g id="Group_18" transform="translate(12.487)">
			<g id="Group_17">
				<path id="Path_13" class="st3" d="M11.5-2.2H0.9c-0.4,0-0.8,0.4-0.8,0.8c0,0,0,0,0,0V9.2c0,0.4,0.4,0.8,0.8,0.8l0,0h10.6
					c0.4,0,0.8-0.4,0.8-0.8v0V-1.4C12.3-1.9,12-2.2,11.5-2.2C11.5-2.2,11.5-2.2,11.5-2.2z M10.7,8.4h-9v-9h9L10.7,8.4z"/>
			</g>
		</g>
		<g id="Group_20" transform="translate(15.587 3.1)">
			<g id="Group_19">
				<path id="Path_14" class="st3" d="M4.7-1.6H1.5c-0.4,0-0.8,0.4-0.8,0.8l0,0v3.2c0,0.4,0.4,0.8,0.8,0.8l0,0h3.2
					c0.4,0,0.8-0.4,0.8-0.8l0,0v-3.2C5.5-1.2,5.1-1.6,4.7-1.6L4.7-1.6z M3.9,1.6H2.3V0h1.6V1.6z"/>
			</g>
		</g>
		<g id="Group_22" transform="translate(0 12.487)">
			<g id="Group_21">
				<path id="Path_15" class="st3" d="M9.1,0.2H-1.5c-0.4,0-0.8,0.4-0.8,0.8c0,0,0,0,0,0v10.6c0,0.4,0.4,0.8,0.8,0.8c0,0,0,0,0,0
					H9.1c0.4,0,0.8-0.4,0.8-0.8l0,0V1C9.9,0.6,9.5,0.2,9.1,0.2L9.1,0.2z M8.3,10.8h-9v-9h9L8.3,10.8z"/>
			</g>
		</g>
		<g id="Group_24" transform="translate(3.1 15.587)">
			<g id="Group_23">
				<path id="Path_16" class="st3" d="M2.3,0.8h-3.2c-0.4,0-0.8,0.4-0.8,0.8l0,0v3.2c0,0.4,0.4,0.8,0.8,0.8l0,0h3.2
					c0.4,0,0.8-0.4,0.8-0.8l0,0V1.6C3.1,1.2,2.7,0.8,2.3,0.8L2.3,0.8z M1.5,4h-1.6V2.4h1.6L1.5,4z"/>
			</g>
		</g>
		<g id="Group_26" transform="translate(16.915 15.587)">
			<g id="Group_25">
				<path id="Path_17" class="st3" d="M7.1,4.6H2.6V1.6c0-0.4-0.4-0.8-0.8-0.8S1,1.2,1,1.6v3.7c0,0.4,0.4,0.8,0.8,0.8l0,0h4.5v1.6
					H1.8C1.4,7.7,1,8.1,1,8.5s0.4,0.8,0.8,0.8h5.3c0.4,0,0.8-0.4,0.8-0.8l0,0V5.4C7.9,4.9,7.5,4.6,7.1,4.6z"/>
			</g>
		</g>
		<g id="Group_28" transform="translate(21.343 12.487)">
			<g id="Group_27">
				<path id="Path_18" class="st3" d="M2.7,0.2C2.2,0.2,1.9,0.6,1.9,1l0,0v3.7c0,0.4,0.4,0.8,0.8,0.8s0.8-0.4,0.8-0.8l0,0V1
					C3.5,0.6,3.1,0.2,2.7,0.2L2.7,0.2z"/>
			</g>
		</g>
		<g id="Group_30" transform="translate(12.487 12.487)">
			<g id="Group_29">
				<path id="Path_19" class="st3" d="M4.6,0.2H0.9C0.5,0.2,0.1,0.6,0.1,1l0,0v3.7c0,0.4,0.4,0.8,0.8,0.8s0.8-0.4,0.8-0.8l0,0V1.8
					h2.9c0.4,0,0.8-0.4,0.8-0.8S5.1,0.2,4.6,0.2L4.6,0.2z"/>
			</g>
		</g>
		<g id="Group_32" transform="translate(12.487 18.715)">
			<g id="Group_31">
				<path id="Path_20" class="st3" d="M0.9,1.4c-0.4,0-0.8,0.4-0.8,0.8l0,0v3.1c0,0.4,0.4,0.8,0.8,0.8s0.8-0.4,0.8-0.8l0,0V2.2
					C1.7,1.8,1.4,1.4,0.9,1.4z"/>
			</g>
		</g>
	</g>
</g>
</svg>
