<svg xmlns="http://www.w3.org/2000/svg" width="24" height="24" viewBox="0 0 24 24">
  <g id="share" transform="translate(643 1998)">
    <g id="base" opacity="0">
      <rect id="Rectangle_982" data-name="Rectangle 982" width="24" height="24" transform="translate(-643 -1998)" fill="#fff"/>
      <rect id="Rectangle_983" data-name="Rectangle 983" width="20" height="20" transform="translate(-641 -1996)" fill="#fff"/>
    </g>
    <path id="share-2" d="M14.445,10.964a3.483,3.483,0,0,0-2.87,1.513L6.71,10.28a3.419,3.419,0,0,0,0-2.607l4.859-2.208a3.483,3.483,0,1,0-.618-1.976,3.463,3.463,0,0,0,.06.588L5.849,6.423a3.489,3.489,0,1,0-.011,5.1l5.179,2.338a3.54,3.54,0,0,0-.059.587,3.489,3.489,0,1,0,3.488-3.488Zm0-9.469a1.994,1.994,0,1,1-1.993,1.993,1.994,1.994,0,0,1,1.993-1.993ZM3.482,10.964A1.994,1.994,0,1,1,5.475,8.97a1.994,1.994,0,0,1-1.993,1.993Zm10.963,5.482a1.994,1.994,0,1,1,1.994-1.994,1.994,1.994,0,0,1-1.994,1.994Z" transform="translate(-639.954 -1994.97)" fill="#fff"/>
  </g>
</svg>
