<svg id="share-2" xmlns="http://www.w3.org/2000/svg" width="19.671" height="20" viewBox="0 0 19.671 20">
  <path id="Path_25540" data-name="Path 25540" d="M227.583,92.9h-4.918a3.968,3.968,0,0,0-3.934,4v12a3.968,3.968,0,0,0,3.934,4h11.8a3.968,3.968,0,0,0,3.934-4v-5a.984.984,0,1,0-1.967,0v5a1.984,1.984,0,0,1-1.967,2h-11.8a1.984,1.984,0,0,1-1.967-2v-12a1.983,1.983,0,0,1,1.967-2h4.918a1,1,0,0,0,0-2Zm7.461,2h-3.527a1,1,0,0,1,0-2h5.9a.992.992,0,0,1,.984,1v6a.984.984,0,1,1-1.967,0V96.317l-7.173,7.293a.973.973,0,0,1-1.391,0,1.011,1.011,0,0,1,0-1.414Z" transform="translate(-218.731 -92.903)" fill="#148AFF" fill-rule="evenodd"/>
</svg>
