<svg width="100" height="100" viewBox="0 0 100 100" fill="none" xmlns="http://www.w3.org/2000/svg">
<g clip-path="url(#clip0_86_1426)">
<path d="M66.1984 9.55405H23.2023C22.0471 9.55405 21.11 10.4912 21.11 11.6464V88.3536C21.11 89.5088 22.0471 90.446 23.2023 90.446H76.7976C77.9528 90.446 78.8899 89.5095 78.8899 88.3536V21.4273C78.8899 20.843 78.6458 20.2861 78.2166 19.89L67.6181 10.1084C67.231 9.75241 66.7249 9.55405 66.1984 9.55405Z" fill="#EBF5FF"/>
<path d="M78.2168 19.89L67.6176 10.1091C67.2311 9.75241 66.725 9.55405 66.1986 9.55405H57.5831L68.4982 19.6274C69.1085 20.1907 69.4563 20.9842 69.4563 21.8151V90.446H76.7977C77.9529 90.446 78.8901 89.5088 78.8901 88.3536V21.4273C78.8901 20.843 78.6459 20.2861 78.2168 19.89Z" fill="#EBF5FF"/>
<path d="M79.0444 18.9922L68.4453 9.21136C67.8318 8.64488 67.0339 8.33334 66.1984 8.33334H23.2023C21.3757 8.33334 19.8893 9.8198 19.8893 11.6464V88.3536C19.8893 90.1802 21.3757 91.6667 23.2023 91.6667H76.7976C78.6242 91.6667 80.1106 90.1802 80.1106 88.3536V21.4273C80.1106 20.5054 79.7222 19.6179 79.0444 18.9922ZM77.6692 88.3536C77.6692 88.8343 77.2782 89.2253 76.7976 89.2253H23.2023C22.7217 89.2253 22.3307 88.8343 22.3307 88.3536V11.6464C22.3307 11.1658 22.7217 10.7747 23.2023 10.7747H66.1984C66.4184 10.7747 66.6282 10.8568 66.7897 11.0062L77.3889 20.7871C77.5669 20.9511 77.6692 21.1851 77.6692 21.4273V88.3536Z" fill="#148AFF"/>
<path d="M66.0155 25.5948H33.9847C29.3715 25.5948 25.6184 29.3479 25.6184 33.9605V76.7093C25.6184 81.3225 29.3721 85.0755 33.9847 85.0755H66.0155C70.6287 85.0755 74.3817 81.3219 74.3817 76.7093V33.9605C74.3817 29.3479 70.6287 25.5948 66.0155 25.5948ZM28.0598 33.9605C28.0598 30.6938 30.7174 28.0363 33.9847 28.0363H41.4285V32.5071C41.4285 33.181 41.9746 33.7278 42.6492 33.7278C43.3231 33.7278 43.8699 33.181 43.8699 32.5071V28.0363H56.1303V42.871C56.1303 43.0757 56.0998 43.2734 56.0438 43.4597C56.033 43.489 56.0229 43.5188 56.0146 43.5494C55.7342 44.3428 54.9764 44.9131 54.0882 44.9131H45.912C45.0232 44.9131 44.266 44.3428 43.9856 43.5494C43.9767 43.5188 43.9671 43.489 43.9563 43.4597C43.8997 43.2734 43.8699 43.0757 43.8699 42.871V38.2075C43.8699 37.5336 43.3231 36.9868 42.6492 36.9868C41.9746 36.9868 41.4285 37.5336 41.4285 38.2075V42.6631H40.8683C36.2932 42.6631 32.1308 45.3645 30.2647 49.5448C30.1827 49.7279 29.9977 49.8468 29.7936 49.8468H28.0598V33.9605ZM41.4285 82.6341H33.9847C30.7181 82.6341 28.0598 79.9765 28.0598 76.7093V60.8236H29.7936C29.9977 60.8236 30.1827 60.9418 30.2647 61.1256C32.1314 65.3058 36.2932 68.0073 40.869 68.0073H41.4285V82.6341ZM71.9403 76.7093C71.9403 79.9765 69.2827 82.6341 66.0155 82.6341H58.5717V77.7252C58.5717 77.0507 58.0256 76.5045 57.351 76.5045C56.6771 76.5045 56.1303 77.0507 56.1303 77.7252V82.6341H43.8699V67.7988C43.8699 67.5947 43.9004 67.3969 43.9563 67.2107C43.9671 67.1814 43.9773 67.1509 43.9862 67.1204C44.2666 66.3269 45.0238 65.7566 45.912 65.7566H54.0882C54.9764 65.7566 55.7342 66.3269 56.0146 67.1204C56.0235 67.1509 56.033 67.1814 56.0445 67.2107C56.1004 67.3969 56.1303 67.5947 56.1303 67.7988V72.0248C56.1303 72.6987 56.6771 73.2455 57.351 73.2455C58.0256 73.2455 58.5717 72.6987 58.5717 72.0248V68.0073H59.1318C63.7069 68.0073 67.8694 65.3058 69.7354 61.1256C69.8174 60.9418 70.0024 60.8236 70.2065 60.8236H71.9403V76.7093ZM71.9403 58.3822H70.2065C69.0405 58.3822 67.9807 59.0682 67.5064 60.1299C66.032 63.4322 62.745 65.5659 59.1318 65.5659H57.9753C57.1997 64.2218 55.7482 63.3152 54.0882 63.3152H45.912C44.2526 63.3152 42.8005 64.2218 42.0255 65.5659H40.869C37.2558 65.5659 33.9682 63.4322 32.4944 60.1299C32.0201 59.0682 30.9603 58.3822 29.7936 58.3822H28.0598V52.2882H29.7936C30.9597 52.2882 32.0195 51.6022 32.4938 50.5404C33.9682 47.2382 37.2552 45.1045 40.8683 45.1045H42.0248C42.8005 46.4485 44.252 47.3545 45.912 47.3545H54.0882C55.7476 47.3545 57.1997 46.4485 57.9747 45.1045H59.1312C62.745 45.1045 66.032 47.2382 67.5057 50.5404C67.98 51.6022 69.0399 52.2882 70.2065 52.2882H71.9403V58.3822ZM71.9403 49.8468H70.2065C70.0024 49.8468 69.8174 49.7279 69.7354 49.5448C67.8694 45.3639 63.7069 42.6631 59.1318 42.6631H58.5717V28.0363H66.0155C69.2827 28.0363 71.9403 30.6938 71.9403 33.9605V49.8468Z" fill="#148AFF"/>
</g>
<defs>
<clipPath id="clip0_86_1426">
<rect width="83.3333" height="83.3333" fill="white" transform="translate(8.33333 8.33334)"/>
</clipPath>
</defs>
</svg>
