<svg xmlns="http://www.w3.org/2000/svg" width="58" height="58" viewBox="0 0 58 58">
  <g id="standing-instruction" transform="translate(643 1998)">
    <g id="base" transform="translate(-643 -1998)" opacity="0">
      <rect id="Rectangle_982" data-name="Rectangle 982" width="58" height="58"/>
      <rect id="Rectangle_983" data-name="Rectangle 983" width="48.333" height="48.333" transform="translate(4.833 4.833)"/>
    </g>
    <g id="Group_42375" data-name="Group 42375" transform="translate(-637.359 -1992.143)">
      <g id="schedule" transform="translate(0 0)">
        <path id="Subtraction_29" data-name="Subtraction 29" d="M236.722-4519.374a11.992,11.992,0,0,1-4.853-1.016,12.1,12.1,0,0,1-3.924-2.756l-.118-.124H203.15a.993.993,0,0,1-.991-.991V-4562.1a.992.992,0,0,1,.991-.99h7.912v-1.977a.993.993,0,0,1,.991-.991.992.992,0,0,1,.99.991v1.977h9.889v-1.977a.993.993,0,0,1,.991-.991.993.993,0,0,1,.991.991v1.977H234.8v-1.977a.993.993,0,0,1,.991-.991.993.993,0,0,1,.991.991v1.977H244.7a.992.992,0,0,1,.991.99v22.458l.1.115a12.1,12.1,0,0,1,3.052,8.032A12.134,12.134,0,0,1,236.722-4519.374Zm0-22.258a10.149,10.149,0,0,0-10.138,10.137,10.149,10.149,0,0,0,10.138,10.138,10.15,10.15,0,0,0,10.139-10.138A10.149,10.149,0,0,0,236.722-4541.631Zm-32.581-12.058v28.438h22.176l-.312-.588a12.118,12.118,0,0,1-1.4-5.655,12.133,12.133,0,0,1,12.119-12.12,12.076,12.076,0,0,1,6.374,1.815l.611.379v-12.27H204.141Zm0-7.418v5.437h39.566v-5.437h-6.92v1.234a.993.993,0,0,1-.991.991.993.993,0,0,1-.991-.991v-1.234h-9.888v1.234a.993.993,0,0,1-.991.991.993.993,0,0,1-.991-.991v-1.234h-9.889v1.234a.992.992,0,0,1-.99.991.993.993,0,0,1-.991-.991v-1.234h-6.921Z" transform="translate(-201.759 4566.458)"/>
        <path id="Subtraction_34" data-name="Subtraction 34" d="M206.118-4564.075H203.15a.993.993,0,0,1-.991-.991.993.993,0,0,1,.991-.991h2.967a.993.993,0,0,1,.991.991A.993.993,0,0,1,206.118-4564.075Z" transform="translate(-186.92 4582.78)"/>
        <path id="Subtraction_35" data-name="Subtraction 35" d="M206.118-4564.075H203.15a.993.993,0,0,1-.991-.991.993.993,0,0,1,.991-.991h2.967a.993.993,0,0,1,.991.991A.993.993,0,0,1,206.118-4564.075Z" transform="translate(-178.017 4582.78)"/>
        <path id="Subtraction_36" data-name="Subtraction 36" d="M206.118-4564.075H203.15a.993.993,0,0,1-.991-.991.993.993,0,0,1,.991-.991h2.967a.993.993,0,0,1,.991.991A.993.993,0,0,1,206.118-4564.075Z" transform="translate(-169.114 4582.78)"/>
        <path id="Subtraction_32" data-name="Subtraction 32" d="M206.118-4564.075H203.15a.993.993,0,0,1-.991-.991.993.993,0,0,1,.991-.991h2.967a.993.993,0,0,1,.991.991A.993.993,0,0,1,206.118-4564.075Z" transform="translate(-195.823 4588.715)"/>
        <path id="Subtraction_33" data-name="Subtraction 33" d="M206.118-4564.075H203.15a.993.993,0,0,1-.991-.991.993.993,0,0,1,.991-.991h2.967a.993.993,0,0,1,.991.991A.993.993,0,0,1,206.118-4564.075Z" transform="translate(-195.823 4582.78)"/>
        <path id="Subtraction_37" data-name="Subtraction 37" d="M206.118-4564.075H203.15a.993.993,0,0,1-.991-.991.993.993,0,0,1,.991-.991h2.967a.993.993,0,0,1,.991.991A.993.993,0,0,1,206.118-4564.075Z" transform="translate(-186.92 4588.715)"/>
        <path id="Subtraction_31" data-name="Subtraction 31" d="M206.118-4564.075H203.15a.993.993,0,0,1-.991-.991.993.993,0,0,1,.991-.991h2.967a.993.993,0,0,1,.991.991A.993.993,0,0,1,206.118-4564.075Z" transform="translate(-195.823 4594.651)"/>
        <path id="Subtraction_38" data-name="Subtraction 38" d="M206.118-4564.075H203.15a.993.993,0,0,1-.991-.991.993.993,0,0,1,.991-.991h2.967a.993.993,0,0,1,.991.991A.993.993,0,0,1,206.118-4564.075Z" transform="translate(-186.92 4594.651)"/>
        <path id="Subtraction_30" data-name="Subtraction 30" d="M206.118-4564.075H203.15a.993.993,0,0,1-.991-.991.993.993,0,0,1,.991-.991h2.967a.993.993,0,0,1,.991.991A.993.993,0,0,1,206.118-4564.075Z" transform="translate(-195.823 4600.586)"/>
        <path id="Subtraction_39" data-name="Subtraction 39" d="M206.118-4564.075H203.15a.993.993,0,0,1-.991-.991.993.993,0,0,1,.991-.991h2.967a.993.993,0,0,1,.991.991A.993.993,0,0,1,206.118-4564.075Z" transform="translate(-186.92 4600.586)"/>
        <g id="Group_42376" data-name="Group 42376" transform="translate(30.695 29.032)">
          <path id="Path_44833" data-name="Path 44833" d="M4268.069,183.7v1.379h2.8a2.287,2.287,0,0,1,2.391,1.648h-5.187V188.1h5.192a2.321,2.321,0,0,1-2.189,1.723h-3V191.2h2.036l3.377,4.934h1.811l-3.573-5.071a3.385,3.385,0,0,0,3.185-2.96h1.794v-1.375h-1.824a3.134,3.134,0,0,0-.9-1.652h2.722V183.7Z" transform="translate(-4268.069 -183.699)"/>
        </g>
      </g>
    </g>
  </g>
</svg>
