<svg xmlns="http://www.w3.org/2000/svg" width="24" height="24" viewBox="0 0 24 24">
  <g id="subscription" transform="translate(14043 -12817)">
    <g id="fingerprint" transform="translate(-13400 14815)" opacity="0">
      <g id="Group_40181" data-name="Group 40181">
        <rect id="Rectangle_982" data-name="Rectangle 982" width="24" height="24" transform="translate(-643 -1998)" fill="#148AFF"/>
        <rect id="Rectangle_983" data-name="Rectangle 983" width="20" height="20" transform="translate(-641 -1996)" fill="#148AFF"/>
      </g>
    </g>
    <g id="subscribe" transform="translate(-14039.949 12820.033)">
      <path id="Subtraction_46" data-name="Subtraction 46" d="M13875.254-12890.1h-7.352a.487.487,0,0,1-.373-.171l-1.5-1.748a3,3,0,0,1-.724-1.951,2.992,2.992,0,0,1,1.079-2.3l1.024-.854v-1.452h-5.151a2.242,2.242,0,0,1-2.239-2.239v-4.9a2.244,2.244,0,0,1,2.239-2.243h13.381a2.245,2.245,0,0,1,2.243,2.243v4.9a2.244,2.244,0,0,1-2.243,2.239h-5.147v1.191h4.413a1.894,1.894,0,0,1,1.891,1.895v2.364a4.048,4.048,0,0,1-1.194,2.884A.482.482,0,0,1,13875.254-12890.1Zm-7.843-5.747h0l-.4.327a2.023,2.023,0,0,0-.725,1.55,2.037,2.037,0,0,0,.484,1.313l1.352,1.578h6.92l.011-.015a3.08,3.08,0,0,0,.76-2.034v-2.364a.912.912,0,0,0-.909-.913h-.213v1.261a.49.49,0,0,1-.487.491.492.492,0,0,1-.491-.491v-1.261h-1.121v1.261a.492.492,0,0,1-.491.491.49.49,0,0,1-.488-.491v-1.261h-1.121v1.261a.492.492,0,0,1-.491.491.492.492,0,0,1-.491-.491v-4.9a.562.562,0,0,0-.561-.561.562.562,0,0,0-.561.561v5.6a.49.49,0,0,1-.487.491.492.492,0,0,1-.491-.491v-1.4Zm3.079-10.014a.49.49,0,0,1,.49.488v2.891a1.668,1.668,0,0,1-.8,1.441l-.031.021.021.031a1.511,1.511,0,0,1,.324.94v.491h5.147a1.262,1.262,0,0,0,1.261-1.261v-4.9a1.262,1.262,0,0,0-1.261-1.261h-13.381a1.262,1.262,0,0,0-1.261,1.261v4.9a1.262,1.262,0,0,0,1.261,1.261h5.151v-.491a1.529,1.529,0,0,1,.376-1.007l.024-.027-.031-.024a1.672,1.672,0,0,1-.7-1.373v-2.894a.49.49,0,0,1,.491-.488.49.49,0,0,1,.491.488v2.894a.737.737,0,0,0,.432.676.905.905,0,0,0,.512.144,1.059,1.059,0,0,0,.471-.1c.463-.233.522-.506.522-.718v-2.891A.49.49,0,0,1,13870.49-12905.86Z" transform="translate(-13859.984 12907.998)" fill="#148AFF"/>
      <path id="Subtraction_48" data-name="Subtraction 48" d="M13861.969-12902.782a2.494,2.494,0,0,1-1.823-.782.492.492,0,0,1,.035-.692.488.488,0,0,1,.331-.125.5.5,0,0,1,.361.159,1.486,1.486,0,0,0,1.1.46.745.745,0,0,0,.77-.5c.059-.335-.382-.537-.574-.608-.65-.24-1.224-.493-1.247-.5s-.038-.02-.055-.029l-.008,0-.006,0a1.3,1.3,0,0,1-.581-1.287,1.442,1.442,0,0,1,1.048-1.162,2.181,2.181,0,0,1,.64-.095,1.926,1.926,0,0,1,1.573.7.49.49,0,0,1-.2.661.471.471,0,0,1-.233.06.49.49,0,0,1-.39-.2l0-.007a1.26,1.26,0,0,0-.741-.24,1.3,1.3,0,0,0-.362.056.454.454,0,0,0-.358.366.326.326,0,0,0,.115.3l.007,0,.029.013c.153.066.618.267,1.115.45a1.543,1.543,0,0,1,1.2,1.7A1.7,1.7,0,0,1,13861.969-12902.782Z" transform="translate(-13857.749 12910.102)" fill="#148AFF"/>
      <path id="Subtraction_47" data-name="Subtraction 47" d="M13860.507-12902.78a.49.49,0,0,1-.487-.491v-4.2a.489.489,0,0,1,.491-.486h1.193a1.476,1.476,0,0,1,1.482,1.419,1.456,1.456,0,0,1-.233.828l-.018.024.024.021a1.609,1.609,0,0,1,.605,1.263,1.623,1.623,0,0,1-1.621,1.621h-.673Zm.494-2.266v1.284h.035c.337,0,.737,0,.908,0a.641.641,0,0,0,.64-.64.641.641,0,0,0-.64-.641H13861Zm0-1.937v.957h.73a.479.479,0,0,0,.477-.48.477.477,0,0,0-.477-.477Z" transform="translate(-13847.901 12910.1)" fill="#148AFF"/>
    </g>
  </g>
</svg>
