<svg width="171" height="147" viewBox="0 0 171 147" fill="none" xmlns="http://www.w3.org/2000/svg">
<path d="M121.457 50.4159C102.727 50.4159 87.4878 41.9201 87.4878 31.4724C87.4878 21.0248 102.727 12.5322 121.457 12.5322C140.188 12.5322 155.428 21.028 155.428 31.4757C155.428 41.9233 140.189 50.4159 121.457 50.4159ZM121.457 13.456C103.239 13.456 88.4167 21.5388 88.4167 31.4724C88.4167 41.4061 103.239 49.49 121.457 49.49C139.675 49.49 154.498 41.4071 154.498 31.4724C154.498 21.5378 139.676 13.456 121.457 13.456Z" fill="#E8EEFC"/>
<path style="mix-blend-mode:multiply" d="M168.458 121.631L155.23 128.565C151.32 130.815 146.884 132 142.368 132H134.775L130.337 127.241C125.906 124.759 123.208 121.492 123.208 117.914C123.208 110.135 122.318 94.8369 137.997 94.8369C137.997 94.8369 163.469 109.687 168.664 112.988C169.398 113.457 169.998 114.106 170.407 114.873C170.816 115.64 171.019 116.499 170.999 117.367C170.978 118.235 170.733 119.084 170.289 119.83C169.844 120.577 169.213 121.197 168.458 121.631Z" fill="#E2F5FC"/>
<path d="M87.6658 5.19235C88.0402 4.11114 88.6513 3.12655 89.4549 2.31C90.2584 1.49346 91.2343 0.86544 92.3116 0.471503C93.3889 0.0775656 94.5407 -0.0724086 95.6834 0.0324615C96.8261 0.137332 97.931 0.494414 98.9181 1.07781L139.531 24.4219C140.989 25.2611 142.2 26.4681 143.042 27.9217C143.884 29.3753 144.327 31.0242 144.327 32.7026V123.987C144.34 125.041 144.141 126.087 143.743 127.063C143.345 128.039 142.756 128.927 142.009 129.673C141.262 130.419 140.373 131.009 139.395 131.407C138.416 131.806 137.367 132.006 136.31 131.996C135.578 131.983 134.856 131.831 134.181 131.548L96.2175 103.886C95.0871 103.236 94.1484 102.3 93.4958 101.173C92.8431 100.047 92.4995 98.7684 92.4995 97.4673L87.4058 6.71299C87.4142 6.19586 87.5019 5.68306 87.6658 5.19235Z" fill="#339AD5"/>
<path d="M92.9882 3.50596L135.52 27.9814C136.651 28.6319 137.589 29.5676 138.242 30.6944C138.895 31.8212 139.238 33.0994 139.238 34.4005V128.09C139.238 128.74 139.067 129.38 138.74 129.943C138.414 130.507 137.945 130.975 137.379 131.3C136.814 131.626 136.172 131.797 135.52 131.797C134.867 131.797 134.225 131.625 133.66 131.3L91.1292 106.825C89.9987 106.175 89.0599 105.239 88.4073 104.112C87.7547 102.985 87.4111 101.706 87.4111 100.405V6.715C87.4115 6.06464 87.5835 5.42583 87.91 4.8627C88.2364 4.29958 88.7057 3.83196 89.2708 3.50681C89.8359 3.18165 90.4769 3.0104 91.1294 3.01025C91.7819 3.01011 92.423 3.18106 92.9882 3.50596Z" fill="#339AD5"/>
<path d="M134.662 131.3C134.174 131.3 133.694 131.169 133.273 130.921L90.7419 106.448C89.7537 105.877 88.933 105.058 88.362 104.072C87.791 103.086 87.4895 101.968 87.4878 100.83V7.13972C87.4909 6.40225 87.7862 5.69587 88.3094 5.1744C88.8326 4.65292 89.5413 4.35858 90.2812 4.35547C90.7699 4.35569 91.2496 4.48601 91.6708 4.73294L134.2 29.2083C135.188 29.7788 136.008 30.5979 136.579 31.5835C137.15 32.5692 137.452 33.687 137.454 34.8252V128.514C137.451 129.252 137.156 129.958 136.633 130.48C136.11 131.001 135.402 131.296 134.662 131.3Z" fill="#2C87C1"/>
<path d="M93.0947 18.8921V97.8276L131.848 119.828V41.2618L93.0947 18.8921Z" fill="#339AD5"/>
<mask id="mask0_548_9428" style="mask-type:alpha" maskUnits="userSpaceOnUse" x="93" y="18" width="39" height="102">
<path d="M93.0947 18.8921V97.8276L131.848 119.828V41.2618L93.0947 18.8921Z" fill="#339AD5"/>
</mask>
<g mask="url(#mask0_548_9428)">
<g filter="url(#filter0_f_548_9428)">
<ellipse cx="119.161" cy="136.428" rx="38.5427" ry="38.4118" fill="#65CD35"/>
</g>
</g>
<path d="M117.311 27.0147C117.161 27.0146 117.014 26.9753 116.885 26.9007L106.972 21.201C106.873 21.1464 106.786 21.0726 106.716 20.984C106.645 20.8954 106.594 20.7938 106.563 20.685C106.533 20.5762 106.525 20.4625 106.539 20.3505C106.553 20.2384 106.59 20.1304 106.646 20.0326C106.703 19.9348 106.779 19.8493 106.869 19.781C106.959 19.7127 107.062 19.663 107.172 19.6348C107.281 19.6066 107.396 19.6005 107.508 19.6168C107.62 19.6332 107.728 19.6716 107.825 19.7299L117.737 25.4296C117.9 25.5233 118.027 25.6682 118.098 25.8414C118.17 26.0147 118.182 26.2068 118.133 26.3877C118.084 26.5686 117.976 26.7281 117.826 26.8416C117.676 26.955 117.493 27.0159 117.305 27.0147H117.311Z" fill="#339AD5"/>
<path d="M111.469 74.4135V65.5392C111.469 64.8741 111.294 64.2206 110.96 63.6445C110.627 63.0685 110.147 62.5901 109.569 62.2575C108.991 61.9249 108.336 61.7499 107.669 61.75C107.001 61.7501 106.346 61.9253 105.768 62.2581C102.282 61.7451 95.9852 75.5158 95.4102 77.4946L114.004 88.4068C114.004 88.4068 111.469 76.0245 111.469 74.4135Z" fill="#2C87C1"/>
<g filter="url(#filter1_d_548_9428)">
<path d="M70.9007 40.2862C70.0597 39.8181 69.1103 39.5778 68.1471 39.5893C67.1839 39.6007 66.2405 39.8636 65.411 40.3516C64.5815 40.8397 63.8947 41.5359 63.4191 42.3709C62.9436 43.2058 62.6959 44.1504 62.7007 45.1105C62.7514 56.1948 62.7968 73.266 62.5929 74.3167C62.226 76.2395 61.406 78.5517 59.6883 79.6841C59.3334 79.9185 40.1853 90.9437 31.5279 95.9229C31.0994 96.1698 30.7433 96.5244 30.4951 96.9513C30.247 97.3782 30.1155 97.8625 30.1138 98.3559C30.112 98.8493 30.2401 99.3345 30.4852 99.7631C30.7303 100.192 31.0838 100.549 31.5106 100.799C38.4978 104.897 52.6018 113.09 60.4166 117.625C62.0945 118.6 64.0015 119.116 65.9439 119.119C67.8863 119.122 69.7949 118.612 71.4758 117.642C78.8709 113.377 90.7813 106.502 93.2294 105.096L98.0491 102.328C99.0811 101.637 99.9457 100.726 100.58 99.661C101.215 98.5957 101.603 97.4028 101.717 96.1691C101.891 95.012 101.717 68.9869 101.717 68.9869C101.76 67.8615 102.036 66.7569 102.527 65.7426C103.018 64.7283 103.714 63.8261 104.571 63.0926C105.178 62.4901 105.949 62.077 106.787 61.9038C107.626 61.7305 108.498 61.8047 109.295 62.1172L82.2566 46.6312C80.3598 45.5429 75.3697 42.7651 70.9007 40.2862Z" fill="#B6E4F7"/>
</g>
<path d="M82.2977 22.0945C82.3096 31.8539 82.3161 45.7236 82.2632 46.6323L109.302 62.1183C109.629 62.2749 109.933 62.4769 110.204 62.7184C110.908 63.328 111.351 64.1842 111.441 65.1101C111.637 65.3047 111.469 83.0943 111.469 83.9299C111.392 85.0775 111.746 86.2126 112.461 87.1154C113.176 88.0182 114.202 88.6244 115.339 88.8165C118.26 89.2596 120.784 86.6915 121.166 83.9492C121.235 83.2118 121.254 82.4706 121.222 81.7306V48.5121C121.155 47.1707 121.304 45.8272 121.665 44.5331C122.562 41.794 125.788 37.8203 129.061 39.4636L90.5699 17.3272C89.731 16.8447 88.7794 16.5909 87.8109 16.5913C86.8423 16.5917 85.891 16.8463 85.0525 17.3296C84.214 17.8128 83.5179 18.5076 83.0343 19.344C82.5507 20.1805 82.2967 21.1291 82.2977 22.0945Z" fill="#B6E4F7"/>
<path d="M86.9358 38.0991C86.8448 38.0994 86.7564 38.1297 86.6845 38.1853C86.6126 38.2409 86.5611 38.3187 86.5382 38.4065C86.5153 38.4943 86.5222 38.5872 86.5578 38.6707C86.5934 38.7542 86.6558 38.8236 86.7351 38.868L94.9836 43.4751C95.031 43.505 95.084 43.5249 95.1393 43.5337C95.1946 43.5425 95.2511 43.5399 95.3054 43.5262C95.3598 43.5124 95.4107 43.4878 95.4551 43.4538C95.4996 43.4198 95.5366 43.3771 95.5639 43.3283C95.5912 43.2796 95.6083 43.2258 95.614 43.1702C95.6198 43.1147 95.6141 43.0585 95.5974 43.0052C95.5806 42.952 95.5532 42.9026 95.5167 42.8603C95.4802 42.8179 95.4353 42.7834 95.385 42.7589L87.1376 38.1518C87.0759 38.1176 87.0064 38.0994 86.9358 38.0991Z" fill="#339AD5"/>
<path d="M98.3845 44.5547C98.2935 44.555 98.2051 44.5853 98.1332 44.6409C98.0612 44.6965 98.0098 44.7743 97.9869 44.8621C97.964 44.9499 97.9709 45.0428 98.0065 45.1263C98.0422 45.2098 98.1045 45.2791 98.1839 45.3236L116.202 55.3777C116.25 55.4057 116.302 55.424 116.357 55.4314C116.411 55.4389 116.467 55.4353 116.52 55.4211C116.573 55.4068 116.623 55.382 116.666 55.3483C116.71 55.3145 116.746 55.2724 116.773 55.2245C116.799 55.1766 116.816 55.1238 116.822 55.0692C116.828 55.0147 116.823 54.9595 116.808 54.9069C116.792 54.8543 116.766 54.8054 116.731 54.7631C116.696 54.7207 116.652 54.6858 116.604 54.6604L98.5852 44.6063C98.5238 44.5724 98.4547 44.5546 98.3845 44.5547Z" fill="#339AD5"/>
<path d="M86.6941 32.1606C86.6031 32.1609 86.5147 32.1912 86.4428 32.2468C86.3709 32.3024 86.3194 32.3802 86.2965 32.468C86.2736 32.5558 86.2805 32.6487 86.3161 32.7322C86.3517 32.8157 86.4141 32.8851 86.4934 32.9296L116.443 49.5082C116.537 49.5543 116.646 49.5625 116.747 49.5311C116.847 49.4997 116.932 49.4311 116.984 49.3394C117.035 49.2477 117.049 49.1398 117.023 49.038C116.997 48.9362 116.933 48.8481 116.844 48.792L86.8948 32.2133C86.8336 32.1788 86.7644 32.1606 86.6941 32.1606Z" fill="#339AD5"/>
<path d="M90.4439 100.956C90.5349 100.956 90.6233 100.926 90.6953 100.87C90.7672 100.815 90.8186 100.737 90.8415 100.649C90.8645 100.561 90.8576 100.468 90.822 100.385C90.7864 100.301 90.724 100.232 90.6446 100.188L82.3961 95.5805C82.3009 95.5309 82.1901 95.5202 82.0872 95.5509C81.9843 95.5815 81.8975 95.6509 81.8452 95.7444C81.7929 95.8379 81.7792 95.948 81.8072 96.0514C81.8351 96.1547 81.9024 96.2431 81.9947 96.2978L90.2433 100.905C90.3045 100.939 90.3737 100.957 90.4439 100.956Z" fill="#339AD5"/>
<path d="M67.3425 73.25C67.2515 73.2503 67.1632 73.2806 67.0912 73.3362C67.0193 73.3918 66.9678 73.4696 66.9449 73.5574C66.922 73.6452 66.9289 73.7381 66.9645 73.8216C67.0002 73.9051 67.0625 73.9745 67.1419 74.0189L75.3904 78.6271C75.4858 78.6803 75.5985 78.6935 75.7037 78.6639C75.809 78.6342 75.8981 78.5641 75.9514 78.469C76.0048 78.3739 76.018 78.2615 75.9883 78.1566C75.9586 78.0518 75.8883 77.963 75.7928 77.9098L67.5443 73.3027C67.4827 73.2682 67.4132 73.25 67.3425 73.25Z" fill="#339AD5"/>
<path d="M67.3156 61.4421C67.2246 61.4423 67.1363 61.4726 67.0643 61.5282C66.9924 61.5839 66.941 61.6616 66.9181 61.7494C66.8952 61.8372 66.902 61.9301 66.9376 62.0136C66.9733 62.0971 67.0356 62.1665 67.115 62.211L75.3635 66.8181C75.4582 66.8642 75.5671 66.8724 75.6676 66.841C75.7682 66.8096 75.8529 66.741 75.9043 66.6493C75.9556 66.5576 75.9699 66.4497 75.944 66.3479C75.918 66.2461 75.854 66.158 75.7649 66.1018L67.5185 61.4894C67.4562 61.4564 67.3862 61.4401 67.3156 61.4421Z" fill="#339AD5"/>
<path d="M78.6532 67.8979C78.562 67.898 78.4735 67.9281 78.4014 67.9836C78.3293 68.0392 78.2777 68.1169 78.2546 68.2048C78.2316 68.2927 78.2384 68.3857 78.274 68.4693C78.3096 68.5529 78.372 68.6224 78.4515 68.6669L96.4698 78.7209C96.5646 78.7688 96.6744 78.7783 96.7761 78.7474C96.8778 78.7166 96.9637 78.6477 97.0156 78.5552C97.0676 78.4627 97.0817 78.3538 97.055 78.2512C97.0283 78.1486 96.9628 78.0603 96.8723 78.0047L78.8539 67.9506C78.7926 67.9164 78.7235 67.8983 78.6532 67.8979Z" fill="#339AD5"/>
<path d="M67.0784 67.3105C66.9874 67.3108 66.899 67.3411 66.827 67.3967C66.7551 67.4523 66.7037 67.5301 66.6808 67.6179C66.6579 67.7057 66.6647 67.7986 66.7003 67.8821C66.736 67.9656 66.7983 68.035 66.8777 68.0795L96.827 84.6581C96.8743 84.6879 96.9273 84.7079 96.9827 84.7166C97.038 84.7254 97.0945 84.7229 97.1488 84.7091C97.2031 84.6954 97.2541 84.6708 97.2985 84.6368C97.3429 84.6027 97.3799 84.56 97.4072 84.5113C97.4345 84.4625 97.4516 84.4087 97.4574 84.3532C97.4632 84.2976 97.4575 84.2415 97.4407 84.1882C97.424 84.1349 97.3965 84.0856 97.36 84.0432C97.3235 84.0009 97.2787 83.9664 97.2284 83.9419L67.2758 67.3632C67.2155 67.3294 67.1476 67.3113 67.0784 67.3105Z" fill="#339AD5"/>
<path d="M65.325 79.708C65.2339 79.7083 65.1456 79.7386 65.0737 79.7942C65.0017 79.8498 64.9502 79.9276 64.9273 80.0154C64.9044 80.1032 64.9113 80.1961 64.947 80.2796C64.9826 80.3631 65.0449 80.4325 65.1243 80.4769L95.0736 97.0555C95.169 97.1087 95.2817 97.122 95.3869 97.0923C95.4922 97.0627 95.5813 96.9926 95.6346 96.8975C95.688 96.8023 95.7013 96.69 95.6716 96.5851C95.6418 96.4802 95.5715 96.3914 95.476 96.3383L65.5267 79.7596C65.4651 79.7252 65.3956 79.7074 65.325 79.708Z" fill="#339AD5"/>
<path d="M88.3992 61.4419C88.3081 61.4422 88.2198 61.4725 88.1479 61.5281C88.0759 61.5837 88.0245 61.6615 88.0015 61.7493C87.9786 61.8371 87.9855 61.93 88.0212 62.0135C88.0568 62.097 88.1192 62.1664 88.1985 62.2108L96.447 66.8179C96.4943 66.8469 96.5471 66.8662 96.602 66.8744C96.657 66.8826 96.713 66.8797 96.7668 66.8658C96.8206 66.8518 96.871 66.8272 96.915 66.7934C96.959 66.7596 96.9957 66.7172 97.0228 66.6689C97.05 66.6206 97.067 66.5673 97.073 66.5122C97.079 66.4571 97.0737 66.4014 97.0575 66.3484C97.0413 66.2955 97.0145 66.2463 96.9788 66.2039C96.943 66.1615 96.8991 66.1267 96.8495 66.1017L88.6009 61.4946C88.5394 61.46 88.4699 61.4418 88.3992 61.4419Z" fill="#339AD5"/>
<path d="M75.5716 54.4346C75.4805 54.4349 75.3921 54.4652 75.3202 54.5208C75.2483 54.5764 75.1969 54.6542 75.1739 54.742C75.151 54.8298 75.1579 54.9227 75.1935 55.0062C75.2291 55.0897 75.2915 55.1591 75.3708 55.2035L83.6183 59.8106C83.7131 59.8585 83.8229 59.868 83.9246 59.8371C84.0263 59.8062 84.1122 59.7374 84.1641 59.6449C84.2161 59.5524 84.2302 59.4435 84.2035 59.3409C84.1768 59.2383 84.1113 59.15 84.0208 59.0944L75.769 54.4819C75.7082 54.4498 75.6403 54.4335 75.5716 54.4346Z" fill="#339AD5"/>
<path d="M66.9626 55.5034C66.8716 55.5037 66.7832 55.534 66.7113 55.5896C66.6394 55.6452 66.588 55.723 66.565 55.8108C66.5421 55.8986 66.549 55.9915 66.5846 56.075C66.6202 56.1585 66.6826 56.2279 66.7619 56.2723L96.7113 72.8509C96.7586 72.88 96.8113 72.8992 96.8662 72.9074C96.9212 72.9157 96.9773 72.9127 97.0311 72.8988C97.0848 72.8849 97.1352 72.8603 97.1792 72.8264C97.2232 72.7926 97.2599 72.7503 97.2871 72.7019C97.3142 72.6536 97.3313 72.6003 97.3373 72.5452C97.3432 72.4902 97.3379 72.4345 97.3217 72.3815C97.3055 72.3285 97.2788 72.2793 97.243 72.2369C97.2073 72.1945 97.1633 72.1597 97.1137 72.1347L67.1644 55.5561C67.1028 55.5216 67.0333 55.5035 66.9626 55.5034Z" fill="#339AD5"/>
<path d="M107.577 127.844C107.165 127.864 106.769 128.007 106.438 128.252C106.107 128.498 105.857 128.836 105.719 129.223C105.58 129.61 105.561 130.03 105.662 130.429C105.763 130.827 105.98 131.187 106.286 131.463C106.592 131.738 106.974 131.917 107.382 131.976C107.79 132.036 108.206 131.974 108.579 131.797C108.952 131.621 109.263 131.338 109.475 130.985C109.686 130.632 109.788 130.224 109.767 129.814C109.753 129.541 109.685 129.274 109.567 129.027C109.45 128.781 109.285 128.56 109.081 128.377C108.878 128.194 108.641 128.052 108.383 127.961C108.125 127.87 107.851 127.83 107.577 127.844Z" fill="#00D6D2"/>
<path d="M151.65 62.1752C151.744 62.1602 151.829 62.1085 151.885 62.0315C151.941 61.9545 151.965 61.8585 151.95 61.7644C151.88 61.333 151.924 60.8906 152.08 60.4819C152.235 60.0731 152.496 59.7123 152.835 59.4357C153.175 59.1591 153.582 58.9764 154.014 58.9061C154.447 58.8358 154.891 58.8802 155.301 59.035C155.832 59.2349 156.406 59.2914 156.966 59.1986C157.526 59.1059 158.051 58.8672 158.488 58.5069C158.926 58.1465 159.26 57.6773 159.456 57.1468C159.653 56.6163 159.706 56.0434 159.608 55.4862C159.592 55.3926 159.539 55.3094 159.461 55.2547C159.383 55.2001 159.287 55.1785 159.193 55.1947C159.145 55.2028 159.1 55.2202 159.059 55.2461C159.019 55.2719 158.984 55.3057 158.957 55.3453C158.93 55.383 158.911 55.4259 158.901 55.4712C158.892 55.5165 158.891 55.5634 158.901 55.6088C158.976 56.0415 158.935 56.4864 158.782 56.8983C158.63 57.3103 158.37 57.6747 158.031 57.9545C157.691 58.2344 157.283 58.4198 156.849 58.4919C156.414 58.5639 155.968 58.5202 155.556 58.3651C155.029 58.162 154.457 58.1027 153.899 58.1933C153.341 58.2838 152.817 58.5209 152.382 58.8802C152.084 59.1205 151.831 59.4118 151.636 59.7405C151.539 59.9051 151.457 60.0783 151.392 60.2578C151.205 60.774 151.154 61.3292 151.242 61.8709C151.256 61.9652 151.306 62.0502 151.383 62.1072C151.459 62.1643 151.556 62.1888 151.65 62.1752Z" fill="#339AD5"/>
<path d="M69.3959 127.97C69.4427 127.963 69.4876 127.947 69.528 127.922C69.5683 127.897 69.6034 127.865 69.6313 127.827C69.6591 127.789 69.6792 127.746 69.6903 127.7C69.7014 127.654 69.7033 127.606 69.6959 127.56C69.6254 127.128 69.6702 126.686 69.8256 126.277C69.9809 125.868 70.2415 125.507 70.5812 125.231C70.9208 124.954 71.3274 124.772 71.7603 124.701C72.1931 124.631 72.637 124.675 73.0471 124.83C73.578 125.03 74.1525 125.087 74.7124 124.994C75.2723 124.902 75.7977 124.663 76.2351 124.303C76.6726 123.942 77.0067 123.473 77.2034 122.942C77.4001 122.412 77.4526 121.839 77.3553 121.281C77.3473 121.235 77.33 121.19 77.3044 121.15C77.2788 121.11 77.2455 121.076 77.2064 121.049C77.1684 121.022 77.1253 121.003 77.0797 120.993C77.0341 120.983 76.987 120.982 76.941 120.99C76.8935 120.998 76.8479 121.015 76.8071 121.041C76.7664 121.066 76.7312 121.1 76.7036 121.139C76.6767 121.177 76.6578 121.22 76.6482 121.265C76.6385 121.311 76.6383 121.357 76.6475 121.403C76.7229 121.836 76.6822 122.28 76.5294 122.692C76.3767 123.104 76.1174 123.469 75.7778 123.749C75.4382 124.028 75.0304 124.214 74.5957 124.286C74.1611 124.358 73.715 124.314 73.3028 124.159C72.7753 123.956 72.2031 123.897 71.645 123.987C71.0869 124.078 70.5632 124.315 70.1275 124.674C69.8298 124.915 69.5774 125.206 69.3819 125.535C69.2855 125.699 69.2043 125.872 69.1392 126.051C68.9518 126.567 68.9002 127.122 68.9892 127.664C68.9956 127.711 69.0111 127.756 69.0351 127.797C69.059 127.837 69.0908 127.873 69.1286 127.902C69.1664 127.93 69.2094 127.951 69.2553 127.963C69.3012 127.974 69.349 127.977 69.3959 127.97Z" fill="#339AD5"/>
<path d="M78.6327 9.85328C78.2208 9.87422 77.8244 10.0164 77.4935 10.2619C77.1627 10.5074 76.9123 10.8452 76.774 11.2325C76.6358 11.6198 76.6158 12.0392 76.7167 12.4379C76.8176 12.8365 77.0348 13.1963 77.3408 13.4719C77.6469 13.7475 78.028 13.9264 78.4361 13.9861C78.8442 14.0458 79.2609 13.9836 79.6335 13.8072C80.006 13.6309 80.3178 13.3484 80.5293 12.9955C80.7409 12.6426 80.8427 12.2351 80.8219 11.8245C80.8081 11.5518 80.7405 11.2845 80.623 11.0378C80.5055 10.7911 80.3403 10.5699 80.137 10.3868C79.9337 10.2038 79.6962 10.0624 79.4381 9.97088C79.18 9.87934 78.9063 9.83937 78.6327 9.85328Z" fill="#FF70E9"/>
<path d="M77.7511 27.0394C77.7282 26.9981 77.6974 26.9617 77.6604 26.9322C77.6234 26.9028 77.5809 26.8809 77.5354 26.8678C77.4899 26.8547 77.4423 26.8507 77.3953 26.856C77.3482 26.8612 77.3027 26.8757 77.2612 26.8985C76.8784 27.1117 76.4461 27.2207 76.0076 27.2146C75.5692 27.2084 75.1401 27.0873 74.7635 26.8634C74.3869 26.6395 74.076 26.3208 73.8622 25.9392C73.6484 25.5576 73.5391 25.1266 73.5454 24.6896C73.5529 24.1243 73.4102 23.567 73.132 23.0743C72.8538 22.5816 72.4498 22.171 71.961 21.8841C71.4722 21.5971 70.9161 21.4441 70.3488 21.4405C69.7816 21.4369 69.2235 21.5828 68.7311 21.8634C68.6901 21.8865 68.6541 21.9175 68.6252 21.9546C68.5963 21.9916 68.5749 22.034 68.5625 22.0793C68.5501 22.1245 68.5467 22.1718 68.5527 22.2184C68.5587 22.265 68.5739 22.3099 68.5973 22.3506C68.6212 22.3922 68.6531 22.4287 68.6912 22.4579C68.7294 22.4871 68.7731 22.5083 68.8196 22.5205C68.8645 22.5331 68.9115 22.5363 68.9577 22.53C69.0039 22.5237 69.0483 22.508 69.0882 22.4839C69.4703 22.2661 69.9033 22.1526 70.3434 22.1552C70.7836 22.1577 71.2153 22.276 71.5949 22.4982C71.9744 22.7204 72.2882 23.0386 72.5048 23.4206C72.7213 23.8026 72.8327 24.2348 72.8278 24.6735C72.8167 25.2363 72.956 25.7919 73.2315 26.2833C73.507 26.7747 73.9088 27.1841 74.3955 27.4696C74.7253 27.6669 75.0878 27.8038 75.4659 27.8739C75.6542 27.9082 75.8452 27.9255 76.0366 27.9255C76.5882 27.9246 77.1305 27.7832 77.6119 27.5147C77.692 27.4686 77.7513 27.3935 77.7772 27.3049C77.8031 27.2164 77.7938 27.1213 77.7511 27.0394Z" fill="#339AD5"/>
<path d="M93.2437 114.072C93.2438 114.115 93.2339 114.158 93.2146 114.196C93.1909 114.245 93.1541 114.286 93.1083 114.314C93.0625 114.343 93.0096 114.358 92.9557 114.358H87.0538C86.9997 114.358 86.9468 114.343 86.9009 114.314C86.8551 114.285 86.8183 114.245 86.7947 114.196C86.771 114.148 86.7615 114.094 86.7673 114.04C86.773 113.986 86.7938 113.936 86.8273 113.893L89.7782 110.171C89.8051 110.137 89.8394 110.11 89.8786 110.091C89.9177 110.072 89.9607 110.062 90.0042 110.062C90.0477 110.062 90.0906 110.072 90.1297 110.091C90.1689 110.11 90.2033 110.137 90.2302 110.171L93.1811 113.893C93.2215 113.944 93.2436 114.007 93.2437 114.072ZM87.6483 113.785H92.3622L90.0058 110.812L87.6483 113.785Z" fill="#C6D4FF"/>
<path d="M147.889 54.0391C147.846 54.0393 147.803 54.0293 147.764 54.01C147.715 53.9865 147.674 53.9498 147.646 53.9041C147.618 53.8584 147.603 53.8057 147.603 53.7519L147.625 47.8683C147.625 47.8145 147.641 47.7619 147.67 47.7165C147.699 47.671 147.74 47.6346 147.789 47.6113C147.837 47.5879 147.892 47.5787 147.945 47.5848C147.999 47.5909 148.05 47.612 148.092 47.6457L151.815 50.601C151.849 50.6279 151.877 50.6621 151.896 50.7011C151.915 50.7401 151.925 50.7829 151.925 50.8263C151.925 50.8696 151.915 50.9124 151.896 50.9514C151.877 50.9905 151.849 51.0247 151.815 51.0516L148.07 53.9789C148.019 54.0194 147.955 54.0407 147.889 54.0391ZM148.198 48.463L148.18 53.1615L151.171 50.8236L148.198 48.463Z" fill="#C6D4FF"/>
<defs>
<filter id="filter0_f_548_9428" x="0.618164" y="18.0161" width="237.085" height="236.824" filterUnits="userSpaceOnUse" color-interpolation-filters="sRGB">
<feFlood flood-opacity="0" result="BackgroundImageFix"/>
<feBlend mode="normal" in="SourceGraphic" in2="BackgroundImageFix" result="shape"/>
<feGaussianBlur stdDeviation="40" result="effect1_foregroundBlur_548_9428"/>
</filter>
<filter id="filter1_d_548_9428" x="0.11377" y="39.5889" width="139.181" height="139.53" filterUnits="userSpaceOnUse" color-interpolation-filters="sRGB">
<feFlood flood-opacity="0" result="BackgroundImageFix"/>
<feColorMatrix in="SourceAlpha" type="matrix" values="0 0 0 0 0 0 0 0 0 0 0 0 0 0 0 0 0 0 127 0" result="hardAlpha"/>
<feOffset dy="30"/>
<feGaussianBlur stdDeviation="15"/>
<feComposite in2="hardAlpha" operator="out"/>
<feColorMatrix type="matrix" values="0 0 0 0 0 0 0 0 0 0 0 0 0 0 0 0 0 0 0.1 0"/>
<feBlend mode="normal" in2="BackgroundImageFix" result="effect1_dropShadow_548_9428"/>
<feBlend mode="normal" in="SourceGraphic" in2="effect1_dropShadow_548_9428" result="shape"/>
</filter>
</defs>
</svg>
