<svg xmlns="http://www.w3.org/2000/svg" width="60" height="60" viewBox="0 0 60 60">
  <g id="tax-center" transform="translate(-10178 -500)">
    <g id="Group_40041" data-name="Group 40041" transform="translate(10178 500)" opacity="0">
      <rect id="Rectangle_18695" data-name="Rectangle 18695" width="60" height="60" fill="#e3e3e3"/>
      <rect id="Rectangle_18696" data-name="Rectangle 18696" width="52.964" height="52.964" transform="translate(3.417 3.417)" fill="#b5b5b5"/>
    </g>
    <g id="_29-Tax" data-name="29-Tax" transform="translate(10181.416 503.417)">
      <path id="Subtraction_11" data-name="Subtraction 11" d="M47.564,52.964H32.234a1.571,1.571,0,1,1,0-3.142h15.33a2.266,2.266,0,0,0,2.264-2.263V14.64h-6.1a5.408,5.408,0,0,1-5.4-5.4V3.142H16.9A2.266,2.266,0,0,0,14.635,5.4V16.9a1.568,1.568,0,1,1-3.136,0V5.4A5.409,5.409,0,0,1,16.9,0h23a1.559,1.559,0,0,1,1.11.454l11.5,11.5a1.557,1.557,0,0,1,.453,1.115V47.559A5.408,5.408,0,0,1,47.564,52.964ZM41.471,5.353h0V9.235A2.263,2.263,0,0,0,43.728,11.5h3.886L41.471,5.354ZM14.984,52.964A14.984,14.984,0,1,1,29.972,37.977,15,15,0,0,1,14.984,52.964Zm0-26.826A11.842,11.842,0,1,0,26.829,37.977,11.854,11.854,0,0,0,14.984,26.137ZM11.152,43.392a1.565,1.565,0,0,1-1.113-.465,1.574,1.574,0,0,1,0-2.235L17.7,33.032a1.571,1.571,0,0,1,1.117-.465,1.592,1.592,0,0,1,1.113.465,1.568,1.568,0,0,1,0,2.229l-7.668,7.667A1.573,1.573,0,0,1,11.152,43.392Zm32.577-.011H36.067a1.571,1.571,0,0,1,0-3.142h7.662a1.571,1.571,0,1,1,0,3.142Zm-24.906,0a1.571,1.571,0,1,1,1.567-1.568A1.573,1.573,0,0,1,18.822,43.381Zm-7.67-7.667a1.568,1.568,0,1,1,1.569-1.568A1.57,1.57,0,0,1,11.152,35.714ZM43.728,33.8H36.067a1.571,1.571,0,0,1,0-3.142h7.662a1.571,1.571,0,1,1,0,3.142Zm0-9.582H32.234a1.568,1.568,0,1,1,0-3.136H43.728a1.568,1.568,0,1,1,0,3.136ZM32.234,14.64h-11.5a1.571,1.571,0,1,1,0-3.142h11.5a1.571,1.571,0,0,1,0,3.142Z" transform="translate(0 0)" fill="#339ad5"/>
    </g>
  </g>
</svg>
