<svg id="teamviewer-svgrepo-com" xmlns="http://www.w3.org/2000/svg" width="24" height="24" viewBox="0 0 24 24">
  <circle id="Ellipse_2865" data-name="Ellipse 2865" cx="12" cy="12" r="12" transform="translate(0 0)" fill="#0d8de8"/>
  <path id="Path_46573" data-name="Path 46573" d="M267.225,268.134H256.511a.713.713,0,0,1-.711-.711V256.711a.713.713,0,0,1,.711-.711h10.714a.713.713,0,0,1,.711.711v10.712A.71.71,0,0,1,267.225,268.134Zm-5.4-11.067a5.026,5.026,0,0,0-4.955,5,4.96,4.96,0,0,0,5,5,5.07,5.07,0,0,0,5-5A4.922,4.922,0,0,0,261.822,257.066Zm-1.142,3.3-.45,1.093h3.306l-.45-1.093,3.361,1.7-3.358,1.7.45-1.092h-3.308l.446,1.092-3.365-1.7Z" transform="translate(-249.819 -249.964)" fill="#fff"/>
</svg>
