<svg xmlns="http://www.w3.org/2000/svg" width="91.925" height="90.099" viewBox="0 0 91.925 90.099">
  <g id="Group_39371" data-name="Group 39371" transform="translate(-1260 -237.061)">
    <g id="Group_19" data-name="Group 19" transform="translate(1260 237.061)">
      <path id="Shape_1_copy_6" data-name="Shape 1 copy 6" d="M88.8,88.545A1.561,1.561,0,1,1,90.365,90.1,1.557,1.557,0,0,1,88.8,88.545ZM9.961,57.264a1.479,1.479,0,0,1,1.564-1.556,1.555,1.555,0,1,1,0,3.11A1.477,1.477,0,0,1,9.961,57.264Zm68.592-5.849a1.561,1.561,0,1,1,1.561,1.554A1.558,1.558,0,0,1,78.553,51.415ZM1.516,40.368a1.561,1.561,0,1,1,1.561,1.554A1.558,1.558,0,0,1,1.516,40.368ZM83.9,16.921V15.37H82.332a1.465,1.465,0,0,1-1.554-1.554,1.464,1.464,0,0,1,1.554-1.554H83.9V10.711a1.557,1.557,0,0,1,3.115,0v1.551h1.557a1.469,1.469,0,0,1,1.554,1.554,1.47,1.47,0,0,1-1.554,1.554H87.011v1.551a1.557,1.557,0,0,1-3.115,0Zm-77.7-2.972A4.581,4.581,0,0,0,1.522,9.286a1.555,1.555,0,0,1,0-3.109A4.58,4.58,0,0,0,6.194,1.516a1.56,1.56,0,0,1,3.119,0,4.588,4.588,0,0,0,4.682,4.662,1.555,1.555,0,0,1,0,3.109,4.589,4.589,0,0,0-4.682,4.663,1.478,1.478,0,0,1-1.559,1.515A1.478,1.478,0,0,1,6.194,13.949Zm0-6.216A7.356,7.356,0,0,1,7.758,9.286,7.31,7.31,0,0,1,9.312,7.733,7.277,7.277,0,0,1,7.758,6.178,7.323,7.323,0,0,1,6.194,7.733Z" transform="translate(0 0)" fill="#148AFF"/>
    </g>
    <path id="password-7" d="M22.379,44.885H43.1a7.681,7.681,0,0,0,7.673-7.673V23.53A7.681,7.681,0,0,0,43.1,15.857h-.387V9.787a9.976,9.976,0,0,0-19.949,0v6.07h-.381a7.681,7.681,0,0,0-7.673,7.673V37.213A7.681,7.681,0,0,0,22.379,44.885Zm5.5-35.1a4.863,4.863,0,0,1,9.719,0v6.07H27.875ZM19.821,23.53a2.561,2.561,0,0,1,2.558-2.558H43.1a2.561,2.561,0,0,1,2.558,2.558V37.213A2.561,2.561,0,0,1,43.1,39.77H22.379a2.561,2.561,0,0,1-2.558-2.558ZM65.474,46.164V59.08a6.4,6.4,0,0,1-6.394,6.394H6.394A6.4,6.4,0,0,1,0,59.08V46.164A6.4,6.4,0,0,1,6.394,39.77h4.859v5.115H6.394a1.28,1.28,0,0,0-1.279,1.279V59.08a1.28,1.28,0,0,0,1.279,1.279H59.08a1.28,1.28,0,0,0,1.279-1.279V46.164a1.28,1.28,0,0,0-1.279-1.279H55.371V39.77H59.08A6.4,6.4,0,0,1,65.474,46.164ZM27.622,50.128a2.558,2.558,0,1,1-2.558,2.558A2.557,2.557,0,0,1,27.622,50.128Zm-10.23,0a2.558,2.558,0,1,1-2.558,2.558A2.557,2.557,0,0,1,17.392,50.128Zm20.461,0a2.558,2.558,0,1,1-2.558,2.558A2.557,2.557,0,0,1,37.852,50.128Zm10.23,0a2.558,2.558,0,1,1-2.558,2.558A2.557,2.557,0,0,1,48.082,50.128Zm-17.9-19.821a2.558,2.558,0,1,1,2.558,2.558A2.557,2.557,0,0,1,30.179,30.307Zm0,0" transform="translate(1272.708 254.942)" fill="#37474f" stroke="#fff" stroke-width="1"/>
  </g>
</svg>
