<svg width="14" height="14" viewBox="0 0 14 14" fill="none" xmlns="http://www.w3.org/2000/svg">
<path d="M11.9279 12.4883L9.02257 8.14319C9.00301 8.11397 8.97678 8.08982 8.94604 8.07273C8.91531 8.05564 8.88095 8.0461 8.84581 8.04491C8.81068 8.04373 8.77579 8.05093 8.74399 8.06588C8.71219 8.08084 8.6844 8.10314 8.66291 8.13094L7.43735 9.71851C7.4089 9.75538 7.39279 9.80027 7.39131 9.84681C7.38983 9.89335 7.40306 9.93917 7.4291 9.97777L9.29314 12.7353C9.31349 12.7652 9.34087 12.7897 9.37288 12.8067C9.40488 12.8236 9.44053 12.8324 9.47674 12.8324H11.7428C11.783 12.8323 11.8224 12.8212 11.8567 12.8005C11.8911 12.7797 11.9192 12.75 11.938 12.7146C11.9568 12.6794 11.9658 12.6399 11.964 12.6C11.9623 12.5602 11.9498 12.5216 11.9279 12.4883Z" fill="#FFD800"/>
<path d="M9.66127 1.26142L7.28933 4.67013C7.26245 4.7088 7.24858 4.75502 7.24973 4.8021C7.25087 4.84918 7.26696 4.89467 7.29569 4.93198L8.52125 6.52003C8.54264 6.54772 8.57027 6.56994 8.6019 6.5849C8.63352 6.59985 8.66825 6.6071 8.70321 6.60606C8.73817 6.60503 8.77239 6.59574 8.80307 6.57894C8.83375 6.56214 8.86002 6.53832 8.87973 6.50942L12.2899 1.51289C12.3125 1.47957 12.3257 1.44071 12.3279 1.40047C12.3302 1.36023 12.3214 1.32015 12.3026 1.28451C12.2837 1.24893 12.2556 1.21915 12.221 1.19838C12.1865 1.17762 12.147 1.16666 12.1067 1.16667H9.84417C9.80857 1.16665 9.77348 1.17521 9.74189 1.19162C9.7103 1.20803 9.68313 1.23181 9.66268 1.26094L9.66127 1.26142Z" fill="#FFD800"/>
<path d="M2.11486 12.8334H4.06823C4.1033 12.8333 4.13787 12.825 4.16909 12.809C4.2003 12.793 4.22728 12.7699 4.24781 12.7415L8.14795 7.34803C8.17517 7.31029 8.18982 7.26494 8.18982 7.2184C8.18982 7.17187 8.17517 7.12651 8.14795 7.08877L4.10429 1.48205C4.08376 1.45362 4.05677 1.43047 4.02555 1.41449C3.99433 1.39851 3.95977 1.39017 3.9247 1.39014H1.97157C1.93142 1.39025 1.89205 1.40127 1.85767 1.42203C1.8233 1.44279 1.79522 1.4725 1.77643 1.50798C1.75746 1.54325 1.7484 1.583 1.75023 1.62301C1.75206 1.66302 1.76469 1.70178 1.7868 1.73518L5.3348 7.09655C5.35882 7.13282 5.37164 7.17537 5.37164 7.21887C5.37164 7.26238 5.35882 7.30492 5.3348 7.3412L1.93009 12.4904C1.9079 12.5239 1.8952 12.5626 1.89333 12.6027C1.89147 12.6428 1.90051 12.6826 1.91949 12.7179C1.93863 12.7529 1.96689 12.7822 2.00128 12.8025C2.03567 12.8228 2.07491 12.8335 2.11486 12.8334Z" fill="#339ad5"/>
</svg>
