<svg width="24" height="24" viewBox="0 0 24 24" fill="none" xmlns="http://www.w3.org/2000/svg">
<path d="M10.5516 10.4093C9.43657 10.4082 8.36756 9.9648 7.57908 9.17644C6.79059 8.38809 6.34702 7.31919 6.3457 6.20419C6.34702 5.0892 6.79059 4.02025 7.57908 3.2319C8.36756 2.44354 9.43657 2.00015 10.5516 1.99902C11.6665 2.00015 12.7354 2.44357 13.5238 3.23194C14.3122 4.02031 14.7556 5.08926 14.7567 6.20419C14.7556 7.31912 14.3122 8.38802 13.5238 9.1764C12.7354 9.96477 11.6665 10.4082 10.5516 10.4093ZM10.5516 3.16347C10.1517 3.16177 9.7555 3.23933 9.38581 3.39168C9.01612 3.54403 8.68029 3.76814 8.39774 4.05106C8.11495 4.33367 7.89098 4.66953 7.73875 5.03922C7.58653 5.40891 7.50907 5.80509 7.51087 6.20489C7.50897 6.60459 7.58639 7.00071 7.73862 7.37029C7.89085 7.73988 8.11488 8.07561 8.39774 8.35802C8.68029 8.64094 9.01612 8.86505 9.38581 9.0174C9.7555 9.16974 10.1517 9.24727 10.5516 9.24556C10.9513 9.24733 11.3475 9.16979 11.717 9.01744C12.0866 8.86509 12.4223 8.64098 12.7047 8.35802C12.9875 8.07561 13.2116 7.73988 13.3638 7.37029C13.516 7.00071 13.5934 6.60459 13.5915 6.20489C13.5933 5.80509 13.5159 5.40891 13.3637 5.03922C13.2115 4.66953 12.9875 4.33367 12.7047 4.05106C12.4223 3.7681 12.0866 3.54395 11.717 3.39159C11.3475 3.23924 10.9513 3.1617 10.5516 3.16347Z" fill="#6A6A6A"/>
<path d="M10.4414 20.5532H2.58125C2.42689 20.553 2.2789 20.4916 2.16976 20.3824C2.06061 20.2733 1.99921 20.1253 1.99902 19.9709V18.5217C2.0011 16.8307 2.67384 15.2095 3.86969 14.0137C5.06553 12.818 6.68685 12.1454 8.37794 12.1436H11.2877C11.442 12.1437 11.59 12.2052 11.6991 12.3143C11.8083 12.4235 11.8697 12.5714 11.8699 12.7258C11.8695 12.88 11.808 13.0278 11.6989 13.1368C11.5898 13.2458 11.4419 13.3071 11.2877 13.3073H8.37794C7.69218 13.3037 7.01253 13.4362 6.37831 13.6971C5.7441 13.9579 5.16792 14.3419 4.68312 14.827C4.19801 15.3117 3.81392 15.8879 3.55307 16.5221C3.29222 17.1563 3.15978 17.836 3.16347 18.5217V19.3887H10.4414C10.5957 19.3889 10.7437 19.4503 10.8528 19.5594C10.962 19.6686 11.0234 19.8166 11.0236 19.9709C11.0234 20.1253 10.962 20.2733 10.8528 20.3824C10.7437 20.4916 10.5957 20.553 10.4414 20.5532Z" fill="#6A6A6A"/>
<path d="M17.0697 22C16.9107 22.0023 16.7571 21.9417 16.6426 21.8313C16.5892 21.7744 16.5481 21.7071 16.5217 21.6337C16.4954 21.5602 16.4845 21.4821 16.4896 21.4042V20.5053L16.3764 20.4818C15.9411 20.3915 15.5274 20.2179 15.1579 19.9707L15.0611 19.9059L14.4155 20.5515C14.364 20.6098 14.301 20.6568 14.2304 20.6895C14.1598 20.7222 14.0833 20.7399 14.0055 20.7416C13.8836 20.7357 13.7659 20.6951 13.6663 20.6247C13.5667 20.5542 13.4893 20.4567 13.4432 20.3437C13.3994 20.2382 13.3904 20.1216 13.4174 20.0106C13.4444 19.8996 13.506 19.8002 13.5934 19.7266L14.239 19.081L14.1742 18.9842C13.929 18.6171 13.7564 18.2063 13.666 17.7742L13.6425 17.6603H12.7229C12.6455 17.6645 12.568 17.6522 12.4957 17.6243C12.4233 17.5965 12.3577 17.5537 12.303 17.4988C12.2483 17.4438 12.2058 17.3779 12.1783 17.3054C12.1509 17.2329 12.139 17.1555 12.1435 17.0781C12.139 17.0007 12.1509 16.9232 12.1783 16.8507C12.2058 16.7782 12.2483 16.7123 12.303 16.6574C12.3577 16.6024 12.4233 16.5596 12.4957 16.5318C12.568 16.504 12.6455 16.4917 12.7229 16.4959H13.6397L13.6624 16.382C13.7521 15.946 13.9251 15.5315 14.172 15.1613L14.2361 15.0638L13.5955 14.4231C13.5107 14.3514 13.4502 14.255 13.4226 14.1474C13.3949 14.0398 13.4014 13.9262 13.4411 13.8224C13.483 13.7098 13.556 13.6113 13.6516 13.5385C13.7473 13.4657 13.8616 13.4215 13.9813 13.411H14.0076C14.0858 13.4132 14.1627 13.4312 14.2337 13.464C14.3046 13.4968 14.3682 13.5436 14.4205 13.6018L15.0611 14.2424L15.1579 14.1776C15.5279 13.9296 15.9424 13.7556 16.3786 13.6651L16.4917 13.6416V12.7356C16.4904 12.5815 16.5499 12.4331 16.6573 12.3226C16.7647 12.2121 16.9114 12.1485 17.0654 12.1455H17.0804C17.1572 12.1454 17.2332 12.1607 17.304 12.1905C17.3748 12.2203 17.4389 12.2641 17.4925 12.3192C17.5468 12.3742 17.5896 12.4396 17.618 12.5115C17.6465 12.5834 17.6602 12.6604 17.6583 12.7377V13.6409L17.7722 13.6637C18.2078 13.7538 18.6218 13.9273 18.9915 14.1747L19.089 14.2388L19.7296 13.5982C19.8364 13.4881 19.9826 13.4249 20.136 13.4224H20.1417C20.2948 13.4225 20.4417 13.4825 20.551 13.5897C20.6068 13.6429 20.6513 13.707 20.6816 13.778C20.712 13.8489 20.7276 13.9253 20.7275 14.0025C20.728 14.081 20.7125 14.1588 20.6819 14.2312C20.6513 14.3035 20.6063 14.3688 20.5496 14.4231L19.9089 15.0638L19.973 15.1606C20.2221 15.5323 20.3962 15.9491 20.4855 16.3876L20.509 16.5016H21.4222C21.5758 16.5012 21.7234 16.5617 21.8325 16.6699C21.9417 16.7781 22.0035 16.9251 22.0044 17.0788C22.0058 17.1553 21.9918 17.2312 21.9631 17.3022C21.9345 17.3731 21.8919 17.4375 21.8379 17.4916C21.7838 17.5469 21.7192 17.5907 21.648 17.6207C21.5767 17.6506 21.5002 17.6661 21.4229 17.666H20.5047L20.4812 17.7792C20.3908 18.2138 20.2172 18.6268 19.9701 18.9956L19.9054 19.0924L20.5531 19.7401C20.608 19.7933 20.6518 19.8568 20.6819 19.9271C20.7119 19.9974 20.7277 20.073 20.7282 20.1494C20.7293 20.2263 20.7152 20.3026 20.6868 20.3741C20.6583 20.4455 20.616 20.5107 20.5623 20.5657C20.5088 20.6213 20.4446 20.6655 20.3735 20.6954C20.3024 20.7254 20.226 20.7406 20.1488 20.7401C20.0703 20.7402 19.9925 20.7245 19.9203 20.6938C19.848 20.6631 19.7826 20.6181 19.7281 20.5615L19.0797 19.9131L18.9822 19.9771C18.6135 20.2241 18.2004 20.3971 17.7658 20.4868L17.6526 20.5102V21.4149C17.6571 21.4919 17.6458 21.5691 17.6195 21.6417C17.5932 21.7142 17.5524 21.7807 17.4996 21.837C17.3835 21.946 17.2289 22.0046 17.0697 22ZM17.0697 14.7541C16.765 14.7527 16.4631 14.8117 16.1814 14.9277C15.8997 15.0436 15.6437 15.2142 15.4283 15.4296C15.2128 15.6449 15.0421 15.9009 14.9262 16.1826C14.8102 16.4643 14.7513 16.7663 14.7529 17.071C14.7518 17.3749 14.811 17.6761 14.9269 17.957C15.0429 18.238 15.2133 18.4932 15.4283 18.708C15.6437 18.9235 15.8996 19.0942 16.1814 19.2101C16.4631 19.3261 16.765 19.385 17.0697 19.3835C17.3736 19.3845 17.6748 19.3254 17.9558 19.2095C18.2367 19.0935 18.492 18.9231 18.7068 18.708C18.9218 18.4932 19.0922 18.238 19.2082 17.957C19.3241 17.6761 19.3833 17.3749 19.3822 17.071C19.3838 16.7663 19.3249 16.4643 19.2089 16.1826C19.093 15.9009 18.9223 15.6449 18.7068 15.4296C18.4921 15.2153 18.2372 15.0456 17.9568 14.93C17.6763 14.8145 17.3758 14.7554 17.0725 14.7563L17.0697 14.7541Z" fill="#6A6A6A"/>
</svg>
