<svg width="54" height="54" viewBox="0 0 54 54" fill="none" xmlns="http://www.w3.org/2000/svg">
<path d="M20.1565 49.0911L13.3205 49.0565C13.1649 49.0567 13.0114 49.0209 12.8719 48.9517C12.7325 48.8825 12.6111 48.782 12.5171 48.658C12.4222 48.5348 12.357 48.3913 12.3266 48.2388C12.2962 48.0863 12.3014 47.9288 12.3419 47.7787L13.6395 42.888L13.5125 42.7899C12.219 41.8252 11.1089 40.6359 10.2349 39.2794L10.1955 39.2198L10.1305 39.1891C9.79672 39.0355 9.44129 38.8937 9.09865 38.7598L9.08093 38.753C7.50182 38.2415 6.07719 37.34 4.9388 36.132C4.78072 35.9548 4.68917 35.7283 4.67985 35.4911L4.50066 30.5562C4.49575 30.4197 4.51841 30.2838 4.5673 30.1562C4.61619 30.0286 4.6903 29.9122 4.7852 29.8139C4.88088 29.7154 4.99537 29.6371 5.12188 29.5836C5.24839 29.5302 5.38433 29.5028 5.52167 29.5029C5.57211 29.503 5.62247 29.5066 5.67231 29.5144C5.91936 29.551 6.16888 29.5687 6.41862 29.5668C6.89499 29.5624 7.37031 29.5212 7.84036 29.4437L7.98805 29.4211L8.03629 29.2783C8.05008 29.235 8.05894 29.2006 8.06484 29.1731V29.1553C8.06977 29.1356 8.07469 29.1178 8.08256 29.0952C8.19874 28.7466 8.39369 28.1944 8.66051 27.5505C8.6999 27.4521 8.73928 27.3614 8.77768 27.2669C9.09388 26.2503 9.6662 25.3322 10.4397 24.6006C10.6224 24.4509 10.8513 24.3693 11.0875 24.3694H11.0954C11.2439 24.3704 11.3904 24.404 11.5245 24.4679C11.6586 24.5319 11.777 24.6247 11.8712 24.7396C12.3113 25.2752 11.8929 25.9486 11.692 26.2164L11.5936 26.3424L11.5995 26.3539C11.1936 26.9844 10.8383 27.6464 10.5371 28.3332C10.3491 28.7861 10.161 29.2874 10.0094 29.7432C9.9257 29.9933 9.85875 30.2414 9.82725 30.3605L9.81641 30.4009C9.81051 30.4216 9.80755 30.4344 9.8046 30.4422C9.82206 30.3952 9.85349 30.3546 9.89467 30.3259C9.93585 30.2972 9.98481 30.2817 10.035 30.2817V30.5129L9.79279 30.4764C9.7627 30.672 9.67628 30.8546 9.54408 31.0018C9.41189 31.1491 9.23965 31.2548 9.04844 31.3057C8.31846 31.4871 7.56954 31.581 6.81738 31.586H6.56828L6.69135 34.982L6.76224 35.0507C7.61694 35.8117 8.61472 36.395 9.69728 36.7661L9.72583 36.7781C10.226 36.9868 10.7429 37.2022 11.3081 37.4848C11.4806 37.5706 11.6249 37.7043 11.7236 37.8699C12.6168 39.3926 13.8463 40.6908 15.3183 41.6654L15.3951 41.7236C15.5559 41.8451 15.6768 42.0117 15.7422 42.2024C15.8076 42.3931 15.8146 42.5991 15.7623 42.7938L14.6389 47.0273L19.297 47.0508L19.7686 44.3798C19.81 44.1444 19.9332 43.931 20.1163 43.7774C20.2994 43.6238 20.5309 43.5397 20.7699 43.5399C20.7945 43.5399 20.8191 43.5399 20.8447 43.5399C22.5579 43.6639 24.2908 43.7279 26.001 43.7279C27.7112 43.7279 29.4076 43.6668 31.1976 43.5437H31.2724C31.5344 43.5438 31.7861 43.6454 31.975 43.8269C32.1638 44.0084 32.2751 44.256 32.2856 44.5177C32.299 45.3085 32.4084 46.0946 32.6115 46.859L32.6627 47.0383L37.3375 46.9989L37.2636 46.6965L37.2213 46.5201C37.1829 46.3596 37.1435 46.1974 37.1041 46.0369C36.8087 44.8249 36.4819 43.4513 36.1048 42.2649C36.035 42.0455 36.0422 41.8091 36.1251 41.5943C36.208 41.3795 36.3616 41.199 36.5606 41.0832C37.299 40.7128 37.9543 40.1965 38.4867 39.565C39.0192 38.9335 39.4178 38.2001 39.6581 37.4098C39.7178 37.1956 39.8458 37.007 40.0226 36.8723C40.1995 36.7376 40.4155 36.6643 40.6378 36.6637C40.73 36.664 40.8218 36.677 40.9105 36.7021C41.0394 36.7375 41.16 36.7982 41.2653 36.8805C41.3705 36.9628 41.4585 37.0649 41.5239 37.1814C41.5906 37.2974 41.6337 37.4257 41.6506 37.5584C41.6675 37.691 41.6579 37.8256 41.6224 37.9545C41.0728 39.7294 39.9267 41.2597 38.3782 42.2866L38.2344 42.3851L38.2836 42.5524C38.7641 44.1986 39.1698 45.8163 39.6502 47.7619C39.6873 47.9112 39.69 48.0671 39.6579 48.2176C39.6258 48.3681 39.5599 48.5089 39.4651 48.6301C39.3715 48.752 39.2513 48.8512 39.1135 48.9195C38.9758 48.9878 38.8243 49.0236 38.6706 49.0243L31.9528 49.0782H31.9449C31.762 49.0785 31.5824 49.0296 31.4251 48.9363C31.2677 48.8431 31.1384 48.7089 31.0509 48.5484C30.6215 47.7114 30.3805 46.7909 30.345 45.8509L30.3262 45.6105L30.087 45.6235C28.7342 45.6973 27.3804 45.7345 26.063 45.7345C24.6757 45.7345 23.256 45.6931 21.8421 45.6124L21.6225 45.5999L21.1529 48.2503C21.1116 48.4856 20.9887 48.6986 20.8057 48.8522C20.6228 49.0058 20.3915 49.0903 20.1526 49.0902L20.1565 49.0911ZM15.2927 31.2778C14.8866 31.2773 14.4973 31.116 14.2103 30.8288C13.9233 30.5415 13.7619 30.1522 13.7616 29.7461C13.7624 29.3404 13.924 28.9512 14.211 28.6644C14.498 28.3776 14.8869 28.2164 15.2927 28.2159C15.6983 28.2164 16.0872 28.3776 16.374 28.6644C16.6608 28.9512 16.8222 29.3405 16.8227 29.7461C16.8224 30.152 16.6612 30.5411 16.3744 30.8283C16.0876 31.1155 15.6986 31.277 15.2927 31.2778ZM15.1026 24.0165C14.43 23.992 13.7734 23.8037 13.1901 23.468C12.6067 23.1322 12.1141 22.659 11.7551 22.0896V22.0839C11.2476 21.3399 10.8252 20.5414 10.4958 19.7032L10.4899 19.6873L10.484 19.6719L10.4229 19.5162L10.3343 19.2907C10.0444 18.6225 9.82752 17.9252 9.68743 17.2105C9.64603 16.9667 9.69487 16.7161 9.8248 16.5057C9.95473 16.2953 10.1569 16.1394 10.3934 16.0672C11.1731 15.8299 11.9687 15.6478 12.7741 15.5226H12.7879C13.4254 15.4217 14.0693 15.3664 14.7147 15.3572C14.8014 15.3572 14.8959 15.3575 15.0101 15.3634C15.8274 15.3789 16.6325 15.5653 17.3731 15.9115C17.402 15.9247 17.4299 15.9397 17.4568 15.9567C18.03 16.3209 18.5096 16.8152 18.8568 17.3989C19.204 17.9827 19.4091 18.6396 19.4555 19.3171C19.5132 19.8825 19.4532 20.4539 19.2793 20.995C19.1055 21.536 18.8215 22.0353 18.4453 22.4613C17.6976 23.3214 16.6538 23.8686 15.5211 23.9949C15.3822 24.0108 15.2424 24.0183 15.1026 24.0175V24.0165ZM14.6802 17.4023C14.1442 17.4094 13.6093 17.4532 13.0793 17.534C12.9129 17.5596 12.7515 17.6004 12.5959 17.6398L12.5673 17.6465C12.461 17.6731 12.3616 17.6975 12.2611 17.7191L11.9835 17.7792L12.0819 18.046C12.1272 18.1701 12.1637 18.2854 12.2021 18.4124L12.2149 18.4527C12.2601 18.5965 12.3064 18.7482 12.3744 18.9215V18.9292C12.6466 19.6266 12.9943 20.2923 13.4111 20.9142L13.422 20.9291L13.4318 20.944C13.6156 21.2375 13.8652 21.4842 14.1609 21.6647C14.4565 21.8451 14.79 21.9541 15.1351 21.9834C15.1858 21.9835 15.2364 21.981 15.2868 21.9757H15.2996C15.8939 21.8892 16.4359 21.5877 16.8227 21.1281C17.0253 20.9182 17.1833 20.669 17.2873 20.3964C17.3914 20.1239 17.4393 19.8332 17.4282 19.5417V19.5272C17.398 19.1805 17.2959 18.8434 17.1284 18.5383C16.9609 18.2332 16.7318 17.9664 16.4555 17.7547L16.4387 17.7432L16.42 17.735C15.9421 17.5313 15.4291 17.4226 14.9097 17.4143C14.8368 17.4055 14.759 17.4033 14.6802 17.4033V17.4023Z" fill="#148AFF"/>
<path d="M35.2893 35.1712C31.5218 35.167 27.9097 33.6685 25.2456 31.0045C22.5815 28.3404 21.083 24.7282 21.0789 20.9606C21.083 17.193 22.5815 13.5808 25.2456 10.9167C27.9097 8.25261 31.5218 6.75417 35.2893 6.75C39.0569 6.75417 42.669 8.25261 45.3331 10.9167C47.9971 13.5808 49.4956 17.193 49.4998 20.9606C49.4956 24.7282 47.9971 28.3404 45.3331 31.0045C42.669 33.6685 39.0569 35.167 35.2893 35.1712ZM35.2893 8.78407C33.6893 8.77872 32.104 9.09043 30.6251 9.70134C29.1462 10.3123 27.8031 11.2105 26.6733 12.3436C25.5396 13.473 24.6413 14.8159 24.0301 16.2949C23.419 17.7738 23.1073 19.3594 23.113 20.9596C23.1073 22.5598 23.419 24.1454 24.0301 25.6244C24.6413 27.1033 25.5396 28.4462 26.6733 29.5757C27.8026 30.7094 29.1457 31.6077 30.6246 32.2189C32.1036 32.83 33.6891 33.1415 35.2893 33.1356C36.8894 33.1416 38.4748 32.8305 39.9537 32.2193C41.4325 31.6082 42.7753 30.7095 43.9044 29.5757C45.0381 28.4462 45.9364 27.1033 46.5475 25.6244C47.1587 24.1454 47.4704 22.5598 47.4647 20.9596C47.4704 19.3594 47.1587 17.7738 46.5475 16.2949C45.9364 14.8159 45.0381 13.473 43.9044 12.3436C42.7749 11.2104 41.432 10.3126 39.9532 9.70182C38.4745 9.09105 36.8893 8.77919 35.2893 8.78503V8.78407Z" fill="#148AFF"/>
<path d="M29.7373 13.9741V15.7602H33.3579C34.0411 15.7022 34.7232 15.8834 35.2876 16.2728C35.852 16.6621 36.2639 17.2355 36.4525 17.8947H29.7383V19.6758H36.4621C36.2936 20.3042 35.9263 20.8611 35.415 21.2633C34.9037 21.6654 34.276 21.8912 33.6256 21.9069H29.7383V23.687H32.3723L36.7457 30.075H39.0937L34.4665 23.5078C35.4944 23.4546 36.4707 23.0414 37.2246 22.3406C37.9784 21.6398 38.4618 20.6961 38.5899 19.6749H40.9105V17.8937H38.5476C38.3874 17.0784 37.9811 16.3317 37.3837 15.7542H40.9076V13.9741H29.7373Z" fill="#148AFF"/>
</svg>
