<svg xmlns="http://www.w3.org/2000/svg" width="12.41" height="12.41" viewBox="0 0 12.41 12.41">
  <g id="verified-2" transform="translate(0.15 0.15)">
    <g id="Group_37550" data-name="Group 37550">
      <g id="Group_37549" data-name="Group 37549">
        <path id="Path_43592" data-name="Path 43592" d="M10.337,1.773a6.055,6.055,0,0,0-8.563,8.563,6.055,6.055,0,1,0,8.563-8.563ZM6.055,11.4A5.345,5.345,0,1,1,11.4,6.055,5.351,5.351,0,0,1,6.055,11.4Z" fill="#00833c" stroke="#00833c" stroke-width="0.3"/>
      </g>
    </g>
    <g id="Group_37552" data-name="Group 37552" transform="translate(3.058 4.008)">
      <g id="Group_37551" data-name="Group 37551">
        <path id="Path_43593" data-name="Path 43593" d="M135.19,169.571a.355.355,0,0,0-.5,0l-3.133,3.133-1.649-1.649a.355.355,0,0,0-.5.5l1.9,1.9a.355.355,0,0,0,.5,0l3.384-3.384A.355.355,0,0,0,135.19,169.571Z" transform="translate(-129.301 -169.467)" fill="#00833c" stroke="#00833c" stroke-width="0.3"/>
      </g>
    </g>
  </g>
</svg>
