<?xml version="1.0" encoding="utf-8"?>
<!-- Generator: Adobe Illustrator 23.0.1, SVG Export Plug-In . SVG Version: 6.00 Build 0)  -->
<svg version="1.1" id="Capa_1" xmlns="http://www.w3.org/2000/svg" xmlns:xlink="http://www.w3.org/1999/xlink" x="0px" y="0px"
	 viewBox="0 0 512 512" style="enable-background:new 0 0 512 512;" xml:space="preserve">
<style type="text/css">
	.st0{fill:#339ad5;}
	.st1{fill:#339ad5;fill-opacity:0;}
</style>
<g>
	<g>
		<g>
			<path class="st0" d="M506.6,236.5c-4-5.8-99.7-141.6-251.1-141.6C125.7,95,9.9,230,5.1,235.7c-3.3,4-3.3,9.7,0,13.6
				C9.9,255.1,125.7,390,255.6,390s245.6-135,250.5-140.7C509.1,245.7,509.3,240.4,506.6,236.5z M255.6,369
				c-104.1,0-203.1-99.3-228.2-126.5C52.4,215.3,151.3,116,255.6,116c121.8,0,207.8,99.1,228.8,125.9
				C460.1,268.3,360.6,369,255.6,369z"/>
		</g>
	</g>
	<g>
		<g>
			<path class="st0" d="M255.6,158.2c-46.5,0-84.3,37.8-84.3,84.3s37.8,84.3,84.3,84.3s84.3-37.8,84.3-84.3S302.1,158.2,255.6,158.2
				z M255.6,305.7c-34.9,0-63.2-28.4-63.2-63.2s28.4-63.2,63.2-63.2s63.2,28.4,63.2,63.2S290.5,305.7,255.6,305.7z"/>
		</g>
	</g>
</g>
<g transform="translate(643 1998)">
	<rect x="-683.3" y="-2080.7" class="st1" width="597" height="597"/>
	<g transform="translate(-641.675 -1993.977)">
		<g transform="translate(5.743 3.834)">
			<path class="st0" d="M309.5,173.1c-4.1-4.1-10.8-4.1-14.9,0s-4.1,10.8,0,14.9l0,0c24.7,24.7,24.7,64.8,0,89.5s-64.8,24.7-89.5,0
				c-4.1-4.1-10.8-4.1-14.9,0s-4.1,10.8,0,14.9l0,0c33,33,86.4,33,119.4,0S342.5,206.1,309.5,173.1L309.5,173.1z"/>
		</g>
		<g transform="translate(5.091 3.181)">
			<path class="st0" d="M265.2,150.4c-45.4-8.6-89.1,21.2-97.7,66.6c-1,5.4-1.5,10.9-1.5,16.4c0.1,4.9,0.6,9.9,1.5,14.7
				c0.9,5,5.2,8.7,10.3,8.7c0.6,0,1.2,0,1.9-0.2c5.7-1,9.5-6.5,8.6-12.2c-0.7-3.6-1.1-7.3-1.1-11c-0.4-34.5,27.2-62.9,61.8-63.3
				c4.2-0.1,8.4,0.3,12.6,1.1c5.8,0.9,11.1-3.1,12-8.9C274.4,156.7,270.8,151.5,265.2,150.4L265.2,150.4z"/>
		</g>
		<g transform="translate(3.98 2.161)">
			<path class="st0" d="M502.4,227.7c-39.3-44.5-86.1-81.8-138.2-110.2c-5.2-2.7-11.6-0.6-14.2,4.5c-2.7,5.2-0.6,11.6,4.5,14.2l0,0
				c46.9,25.8,89.4,59,125.7,98.3C455,261.8,356,361.1,251.7,361.1c-36.8-0.3-73.1-9-106.1-25.4c-5.2-2.5-11.6-0.3-14.1,4.9
				c-2.5,5.2-0.3,11.6,4.9,14.1c35.8,17.8,75.3,27.2,115.3,27.5c130,0,245.9-135.2,250.8-140.9C505.8,237.3,505.7,231.6,502.4,227.7
				z"/>
		</g>
		<g transform="translate(0 1.272)">
			<path class="st0" d="M324.9,99.8c-22.3-7.8-45.7-11.9-69.3-12.2c-130,0-245.9,135.2-250.8,140.9c-3.1,3.7-3.3,8.9-0.6,12.9
				c26.8,35.9,59.5,66.9,96.8,91.8c4.8,3.2,11.3,1.9,14.5-2.9c0,0,0-0.1,0.1-0.1c3.2-4.8,1.9-11.4-2.9-14.6l0,0
				c-32.6-22-61.7-48.8-86.2-79.6c24.3-26.5,123.9-127.2,229.1-127.2c21.3,0.3,42.4,4,62.5,11c5.4,1.9,11.4-1,13.2-6.5v-0.1
				C333.3,107.7,330.4,101.7,324.9,99.8z"/>
		</g>
		<g transform="translate(1.909 0)">
			<path class="st0" d="M440.6,49.8c-4.1-4.1-10.8-4.1-14.9,0l0,0L66.8,408.6c-4.1,4.1-4.1,10.8,0,14.9s10.8,4.1,14.9,0L440.6,64.7
				C444.7,60.6,444.7,53.9,440.6,49.8L440.6,49.8z"/>
		</g>
	</g>
</g>
</svg>
