<svg xmlns="http://www.w3.org/2000/svg" width="28" height="28" viewBox="0 0 28 28">
  <g id="what_s_new" data-name="what&apos;s new" transform="translate(643 1998)">
    <g id="base" transform="translate(-643 -1998)">
      <g id="Group_42376" data-name="Group 42376" opacity="0">
        <g id="Rectangle_982" data-name="Rectangle 982" fill="#339ad5" stroke="#339ad5" stroke-width="0.4" opacity="0">
          <rect width="28" height="28" stroke="none"/>
          <rect x="0.2" y="0.2" width="27.6" height="27.6" fill="none"/>
        </g>
        <g id="Rectangle_983" data-name="Rectangle 983" transform="translate(2 2)" fill="#339ad5" stroke="#339ad5" stroke-width="0.4">
          <rect width="24" height="24" stroke="none"/>
          <rect x="0.2" y="0.2" width="23.6" height="23.6" fill="none"/>
        </g>
      </g>
    </g>
    <path id="new-2" d="M22.589,21.787l-.637.791a2.078,2.078,0,0,0-.458,1.409L21.545,25a2.871,2.871,0,0,1-2.105,2.9l-.981.265a2.078,2.078,0,0,0-1.2.871l-.555.851A2.871,2.871,0,0,1,13.3,30.993l-.949-.362a2.078,2.078,0,0,0-1.481,0l-.949.362a2.871,2.871,0,0,1-3.407-1.107l-.555-.851a2.078,2.078,0,0,0-1.2-.871L3.777,27.9A2.871,2.871,0,0,1,1.672,25a.387.387,0,0,1,.773.039,2.093,2.093,0,0,0,1.534,2.112l.981.265A2.851,2.851,0,0,1,6.6,28.612l.555.851a2.093,2.093,0,0,0,2.483.807l.949-.362a2.851,2.851,0,0,1,2.033,0l.949.362a2.093,2.093,0,0,0,2.483-.807l.555-.851a2.852,2.852,0,0,1,1.644-1.195l.981-.265a2.093,2.093,0,0,0,1.534-2.112l-.051-1.015a2.852,2.852,0,0,1,.628-1.933l.637-.791a2.093,2.093,0,0,0,0-2.61l-.637-.791a2.852,2.852,0,0,1-.628-1.933l.051-1.015a2.093,2.093,0,0,0-1.534-2.112l-.981-.265a2.851,2.851,0,0,1-1.644-1.195l-.555-.851a2.093,2.093,0,0,0-2.483-.807l-.949.362a2.851,2.851,0,0,1-2.033,0l-.949-.362a2.093,2.093,0,0,0-2.483.807L6.6,11.38A2.852,2.852,0,0,1,4.96,12.574l-.981.265a2.092,2.092,0,0,0-1.534,2.112L2.5,15.966A2.852,2.852,0,0,1,1.868,17.9l-.637.791a2.093,2.093,0,0,0,0,2.61l.637.791a.387.387,0,1,1-.6.486l-.637-.791a2.871,2.871,0,0,1,0-3.582l.637-.791A2.078,2.078,0,0,0,1.722,16L1.672,14.99a2.871,2.871,0,0,1,2.105-2.9l.981-.265a2.078,2.078,0,0,0,1.2-.871l.555-.851A2.871,2.871,0,0,1,9.918,9l.949.362a2.078,2.078,0,0,0,1.481,0L13.3,9A2.871,2.871,0,0,1,16.7,10.106l.555.851a2.078,2.078,0,0,0,1.2.871l.981.265a2.871,2.871,0,0,1,2.105,2.9L21.494,16a2.078,2.078,0,0,0,.458,1.409l.637.791a2.871,2.871,0,0,1,0,3.582ZM8.9,21.544v-3.1a.387.387,0,0,0-.774,0v1.935L6.5,18.215a.387.387,0,0,0-.7.232v3.1a.387.387,0,0,0,.774,0V19.609L8.2,21.776A.388.388,0,0,0,8.9,21.544Zm3.484-2.71a.387.387,0,1,0,0-.774H10.06a.387.387,0,0,0-.387.387v3.1a.387.387,0,0,0,.387.387h2.323a.387.387,0,1,0,0-.774H10.447v-.774h1.161a.387.387,0,1,0,0-.774H10.447v-.774Zm3.942,2.933a.387.387,0,0,0,.7-.175l.387-3.1a.387.387,0,0,0-.768-.1l-.263,2.1-.585-.829a.387.387,0,0,0-.633,0l-.585.829-.263-2.1a.387.387,0,0,0-.768.1l.387,3.1a.387.387,0,0,0,.7.175l.845-1.2ZM19.786,20a8.176,8.176,0,1,0-1.5,4.718.387.387,0,1,0-.632-.447A7.4,7.4,0,1,1,19.012,20a.387.387,0,1,0,.774,0Zm-1.267,2.663-.04.1a.387.387,0,1,0,.718.29l.044-.111a.387.387,0,0,0-.722-.279ZM8.705,24.447h5.806a.387.387,0,0,0,0-.774H8.705a.387.387,0,0,0,0,.774Z" transform="translate(-640.659 -2003.949)" fill="#339ad5"/>
    <path id="new-2_-_Outline" data-name="new-2 - Outline" d="M14.3,31.377a3.012,3.012,0,0,1-1.076-.2l-.949-.362a1.886,1.886,0,0,0-1.339,0l-.949.362a3.013,3.013,0,0,1-1.077.2A3.054,3.054,0,0,1,6.344,30l-.555-.851a1.878,1.878,0,0,0-1.083-.787l-.981-.265a3.072,3.072,0,0,1-2.253-3.1.587.587,0,0,1,1.173.059,1.891,1.891,0,0,0,1.387,1.909l.981.265A3.051,3.051,0,0,1,6.772,28.5l.555.851A1.906,1.906,0,0,0,8.91,30.2a1.851,1.851,0,0,0,.661-.121l.949-.362a3.051,3.051,0,0,1,2.175,0l.949.362a1.852,1.852,0,0,0,.662.121,1.881,1.881,0,0,0,1.583-.85l.555-.851a3.051,3.051,0,0,1,1.76-1.278l.981-.265a1.891,1.891,0,0,0,1.387-1.909l-.051-1.015a3.052,3.052,0,0,1,.672-2.068l.637-.791a1.891,1.891,0,0,0,0-2.359l-.637-.791a3.051,3.051,0,0,1-.672-2.069l.051-1.015a1.891,1.891,0,0,0-1.387-1.909l-.981-.265a3.051,3.051,0,0,1-1.76-1.278l-.555-.851a1.906,1.906,0,0,0-1.583-.85,1.852,1.852,0,0,0-.661.121l-.949.362a3.051,3.051,0,0,1-2.175,0l-.949-.362a1.851,1.851,0,0,0-.661-.121,1.881,1.881,0,0,0-1.583.851l-.555.851a3.051,3.051,0,0,1-1.76,1.278l-.981.265a1.891,1.891,0,0,0-1.387,1.909L2.7,15.956a3.051,3.051,0,0,1-.672,2.068l-.637.791a1.891,1.891,0,0,0,0,2.359l.637.791a.587.587,0,1,1-.914.737l-.637-.791a3.072,3.072,0,0,1,0-3.833l.637-.791a1.878,1.878,0,0,0,.414-1.273L1.472,15a3.072,3.072,0,0,1,2.253-3.1l.981-.265a1.878,1.878,0,0,0,1.083-.787L6.344,10A3.054,3.054,0,0,1,8.913,8.614a3.013,3.013,0,0,1,1.076.2l.949.362a1.886,1.886,0,0,0,1.339,0l.949-.362a3.013,3.013,0,0,1,1.076-.2A3.054,3.054,0,0,1,16.872,10l.555.851a1.878,1.878,0,0,0,1.083.787l.981.265A3.072,3.072,0,0,1,21.745,15l-.051,1.015a1.878,1.878,0,0,0,.414,1.273l.637.791a3.072,3.072,0,0,1,0,3.833l-.637.791a1.879,1.879,0,0,0-.414,1.273l.051,1.015a3.072,3.072,0,0,1-2.253,3.1l-.981.265a1.879,1.879,0,0,0-1.083.787L16.872,30A3.054,3.054,0,0,1,14.3,31.377Zm-2.7-1.083a2.272,2.272,0,0,1,.812.15l.949.362a2.613,2.613,0,0,0,.934.171,2.691,2.691,0,0,0,2.234-1.2l.555-.851a2.278,2.278,0,0,1,1.314-.954l.981-.265a2.67,2.67,0,0,0,1.958-2.695L21.295,24a2.278,2.278,0,0,1,.5-1.544l.637-.791a2.67,2.67,0,0,0,0-3.331l-.637-.791a2.278,2.278,0,0,1-.5-1.544l.051-1.015a2.67,2.67,0,0,0-1.958-2.695l-.981-.265a2.278,2.278,0,0,1-1.314-.954l-.555-.851a2.655,2.655,0,0,0-2.234-1.2,2.614,2.614,0,0,0-.934.171l-.949.362a2.278,2.278,0,0,1-1.624,0l-.949-.362a2.614,2.614,0,0,0-.934-.171,2.655,2.655,0,0,0-2.234,1.2l-.555.851a2.278,2.278,0,0,1-1.314.954l-.981.265A2.67,2.67,0,0,0,1.872,14.98l.051,1.015a2.278,2.278,0,0,1-.5,1.544l-.637.791a2.67,2.67,0,0,0,0,3.331l.637.791a.187.187,0,1,0,.291-.235l-.637-.791a2.294,2.294,0,0,1,0-2.861l.637-.791a2.652,2.652,0,0,0,.584-1.8l-.051-1.015a2.294,2.294,0,0,1,1.682-2.315l.981-.265A2.652,2.652,0,0,0,6.437,11.27l.555-.851A2.28,2.28,0,0,1,8.91,9.388a2.25,2.25,0,0,1,.8.148l.949.362a2.651,2.651,0,0,0,1.89,0l.949-.362a2.25,2.25,0,0,1,.8-.148,2.28,2.28,0,0,1,1.918,1.032l.555.851a2.652,2.652,0,0,0,1.529,1.111l.981.265a2.294,2.294,0,0,1,1.682,2.315l-.051,1.015a2.652,2.652,0,0,0,.584,1.8l.637.791a2.294,2.294,0,0,1,0,2.861l-.637.791a2.652,2.652,0,0,0-.584,1.8l.051,1.015a2.294,2.294,0,0,1-1.682,2.315l-.981.265a2.652,2.652,0,0,0-1.529,1.111l-.555.851A2.28,2.28,0,0,1,14.307,30.6a2.25,2.25,0,0,1-.8-.148l-.949-.362a2.651,2.651,0,0,0-1.89,0l-.949.362a2.25,2.25,0,0,1-.8.148,2.28,2.28,0,0,1-1.917-1.032l-.555-.851A2.652,2.652,0,0,0,4.908,27.61l-.981-.265A2.294,2.294,0,0,1,2.245,25.03a.187.187,0,0,0-.178-.2h-.01a.187.187,0,0,0-.186.178,2.67,2.67,0,0,0,1.958,2.695l.981.265a2.278,2.278,0,0,1,1.314.954l.555.851a2.655,2.655,0,0,0,2.234,1.2,2.615,2.615,0,0,0,.934-.171l.949-.362A2.272,2.272,0,0,1,11.608,30.295Zm0-1.922A8.377,8.377,0,1,1,19.986,20a.587.587,0,1,1-1.174,0,7.2,7.2,0,1,0-1.319,4.156.587.587,0,1,1,.958.678A8.4,8.4,0,0,1,11.608,28.373Zm0-16.355A7.977,7.977,0,1,0,18.125,24.6a.187.187,0,0,0-.305-.216A7.6,7.6,0,1,1,19.212,20a.187.187,0,1,0,.374,0A7.986,7.986,0,0,0,11.608,12.018Zm2.9,12.629H8.705a.587.587,0,1,1,0-1.174h5.806a.587.587,0,1,1,0,1.174Zm-5.806-.774a.187.187,0,1,0,0,.374h5.806a.187.187,0,1,0,0-.374Zm10.132-.382a.587.587,0,0,1-.544-.807l.038-.1a.591.591,0,0,1,.548-.376.587.587,0,0,1,.548.8l-.045.114A.585.585,0,0,1,18.838,23.491Zm.042-.88a.188.188,0,0,0-.175.12l-.041.1a.187.187,0,0,0,.173.257.186.186,0,0,0,.174-.117l.043-.109a.187.187,0,0,0-.174-.254Zm-6.5-.48H10.06a.588.588,0,0,1-.587-.587v-3.1a.588.588,0,0,1,.587-.587h2.323a.587.587,0,1,1,0,1.174H10.647v.374h.961a.587.587,0,1,1,0,1.174h-.961v.374h1.735a.587.587,0,0,1,0,1.174ZM10.06,18.26a.187.187,0,0,0-.187.187v3.1a.187.187,0,0,0,.187.187h2.323a.187.187,0,0,0,0-.374H10.247V20.183h1.361a.187.187,0,0,0,0-.374H10.247V18.635h2.135a.187.187,0,1,0,0-.374ZM6.189,22.131a.588.588,0,0,1-.587-.587v-3.1a.584.584,0,0,1,.592-.587.578.578,0,0,1,.465.235l1.266,1.688V18.447a.587.587,0,0,1,1.174,0v3.1a.576.576,0,0,1-.186.43.606.606,0,0,1-.405.157.578.578,0,0,1-.465-.235L6.776,20.209v1.335A.588.588,0,0,1,6.189,22.131Zm0-3.871A.187.187,0,0,0,6,18.447v3.1a.187.187,0,0,0,.374,0V19.009l1.986,2.648a.176.176,0,0,0,.145.075.2.2,0,0,0,.135-.052.176.176,0,0,0,.057-.135v-3.1a.187.187,0,0,0-.374,0v2.535L6.339,18.335A.176.176,0,0,0,6.194,18.26Zm8.128,3.871a.583.583,0,0,1-.586-.514l-.387-3.1a.588.588,0,0,1,.51-.655.6.6,0,0,1,.073,0,.588.588,0,0,1,.582.514l.2,1.593L15,19.56a.587.587,0,0,1,.959,0l.287.407.2-1.593a.587.587,0,0,1,1.165.146l-.387,3.1a.583.583,0,0,1-.586.514h0a.577.577,0,0,1-.476-.248l-.682-.966-.682.966A.577.577,0,0,1,14.321,22.131Zm-.39-3.871h-.024a.187.187,0,0,0-.162.209l.387,3.1a.185.185,0,0,0,.189.164.177.177,0,0,0,.15-.079l1.008-1.429,1.008,1.429a.177.177,0,0,0,.15.079.185.185,0,0,0,.189-.164l.387-3.1a.187.187,0,0,0-.371-.046l-.327,2.617-.883-1.25a.187.187,0,0,0-.306,0l-.883,1.25-.327-2.617A.187.187,0,0,0,13.931,18.26Z" transform="translate(-640.659 -2003.949)" fill="#339ad5"/>
  </g>
</svg>
